<?xml version="1.0" encoding="UTF-8" standalone="no"?>
<svg
   xmlns:dc="http://purl.org/dc/elements/1.1/"
   xmlns:cc="http://creativecommons.org/ns#"
   xmlns:rdf="http://www.w3.org/1999/02/22-rdf-syntax-ns#"
   xmlns:svg="http://www.w3.org/2000/svg"
   xmlns="http://www.w3.org/2000/svg"
   xmlns:sodipodi="http://sodipodi.sourceforge.net/DTD/sodipodi-0.dtd"
   xmlns:inkscape="http://www.inkscape.org/namespaces/inkscape"
   width="24"
   height="24"
   viewBox="0 0 6.3499999 6.3499999"
   version="1.1"
   id="svg10908"
   inkscape:version="1.0.1 (3bc2e813f5, 2020-09-07)"
   sodipodi:docname="mongodb-complex.svg">
  <title
     id="title11486">mongodb-complex</title>
  <defs
     id="defs10902" />
  <sodipodi:namedview
     id="base"
     pagecolor="#ffffff"
     bordercolor="#666666"
     borderopacity="1.0"
     inkscape:pageopacity="0.0"
     inkscape:pageshadow="2"
     inkscape:zoom="22.4"
     inkscape:cx="12.53886"
     inkscape:cy="5.7062559"
     inkscape:document-units="mm"
     inkscape:current-layer="layer1"
     inkscape:document-rotation="0"
     showgrid="false"
     units="px"
     inkscape:window-width="1140"
     inkscape:window-height="1368"
     inkscape:window-x="1411"
     inkscape:window-y="0"
     inkscape:window-maximized="0"
     inkscape:snap-center="true"
     inkscape:snap-object-midpoints="true"
     inkscape:snap-page="true"
     inkscape:snap-intersection-paths="true"
     inkscape:snap-smooth-nodes="false"
     showguides="true"
     inkscape:guide-bbox="true"
     inkscape:snap-bbox="true"
     inkscape:bbox-paths="true"
     inkscape:bbox-nodes="true"
     inkscape:snap-bbox-edge-midpoints="true"
     inkscape:snap-bbox-midpoints="true">
    <sodipodi:guide
       position="0,6.3499999"
       orientation="1,0"
       id="guide11518" />
  </sodipodi:namedview>
  <metadata
     id="metadata10905">
    <rdf:RDF>
      <cc:Work
         rdf:about="">
        <dc:format>image/svg+xml</dc:format>
        <dc:type
           rdf:resource="http://purl.org/dc/dcmitype/StillImage" />
        <dc:title>mongodb-complex</dc:title>
      </cc:Work>
    </rdf:RDF>
  </metadata>
  <g
     inkscape:label="Layer 1"
     inkscape:groupmode="layer"
     id="layer1"
     transform="translate(-109.4619,-112.48571)">
    <g
       id="mongodb-complex"
       transform="matrix(0.05205985,0,0,0.05205985,109.30506,112.32891)">
      <path
         fill-rule="evenodd"
         clip-rule="evenodd"
         fill="#439934"
         d="m 88.038,42.812 c 1.605,4.643 2.761,9.383 3.141,14.296 0.472,6.095 0.256,12.147 -1.029,18.142 -0.035,0.165 -0.109,0.32 -0.164,0.48 -0.403,10e-4 -0.814,-0.049 -1.208,0.012 -3.329,0.523 -6.655,1.065 -9.981,1.604 -3.438,0.557 -6.881,1.092 -10.313,1.687 -1.216,0.21 -2.721,-0.041 -3.212,1.641 -0.014,0.046 -0.154,0.054 -0.235,0.08 L 65.203,70.703 C 65.146,62.619 65.09,54.535 65.034,46.451 l 1.602,-0.275 c 2.62,-0.429 5.24,-0.864 7.862,-1.281 3.129,-0.497 6.261,-0.98 9.392,-1.465 1.381,-0.215 2.764,-0.412 4.148,-0.618 z"
         id="path3811" />
      <path
         fill-rule="evenodd"
         clip-rule="evenodd"
         fill="#45a538"
         d="m 61.729,110.054 c -1.69,-1.453 -3.439,-2.842 -5.059,-4.37 C 47.953,97.462 41.577,87.785 38.437,76.118 37.572,72.907 36.995,69.644 36.81,66.326 36.68,64.004 36.492,61.661 36.656,59.351 37.093,53.207 37.981,47.122 39.783,41.204 l 0.099,-0.138 c 0.175,0.233 0.427,0.439 0.516,0.702 1.759,5.18 3.505,10.364 5.242,15.551 5.458,16.3 10.909,32.604 16.376,48.9 0.107,0.318 0.384,0.579 0.583,0.866 z"
         id="path3813" />
      <path
         fill-rule="evenodd"
         clip-rule="evenodd"
         fill="#46a037"
         d="m 88.038,42.812 c -1.384,0.206 -2.768,0.403 -4.149,0.616 -3.131,0.485 -6.263,0.968 -9.392,1.465 -2.622,0.417 -5.242,0.852 -7.862,1.281 l -1.602,0.275 -0.012,-1.045 C 64.968,44.545 64.877,43.687 64.867,42.828 64.798,37.35 64.755,31.872 64.687,26.394 64.645,22.965 64.582,19.537 64.512,16.109 64.469,13.979 64.423,11.848 64.327,9.721 64.275,8.578 64.091,7.441 64.016,6.298 63.974,5.641 64.032,4.979 64.045,4.319 c 0.817,1.583 1.616,3.178 2.456,4.749 1.327,2.484 3.441,4.314 5.344,6.311 7.523,7.892 12.864,17.068 16.193,27.433 z"
         id="path3815" />
      <path
         fill-rule="evenodd"
         clip-rule="evenodd"
         fill="#409433"
         d="m 65.036,80.753 c 0.081,-0.026 0.222,-0.034 0.235,-0.08 0.491,-1.682 1.996,-1.431 3.212,-1.641 3.432,-0.594 6.875,-1.13 10.313,-1.687 3.326,-0.539 6.652,-1.081 9.981,-1.604 0.394,-0.062 0.805,-0.011 1.208,-0.012 -0.622,2.22 -1.112,4.488 -1.901,6.647 -0.896,2.449 -1.98,4.839 -3.131,7.182 -1.72,3.503 -3.863,6.77 -6.353,9.763 -1.919,2.308 -4.058,4.441 -6.202,6.548 -1.185,1.165 -2.582,2.114 -3.882,3.161 l -0.337,-0.23 -1.214,-1.038 -1.256,-2.753 c -0.865,-3.223 -1.319,-6.504 -1.394,-9.838 l 0.023,-0.561 0.171,-2.426 c 0.057,-0.828 0.133,-1.655 0.168,-2.485 0.129,-2.982 0.241,-5.964 0.359,-8.946 z"
         id="path3817" />
      <path
         fill-rule="evenodd"
         clip-rule="evenodd"
         fill="#4faa41"
         d="m 65.036,80.753 c -0.118,2.982 -0.23,5.964 -0.357,8.947 -0.035,0.83 -0.111,1.657 -0.168,2.485 l -0.765,0.289 C 62.047,87.472 60.347,82.523 58.684,77.561 55.934,69.352 53.217,61.13 50.471,52.919 48.254,46.291 46.019,39.67 43.771,33.052 43.666,32.742 43.364,32.5 43.154,32.226 l 4.896,-9.002 c 0.168,0.292 0.39,0.565 0.496,0.879 2.265,6.703 4.526,13.407 6.768,20.118 2.916,8.73 5.814,17.467 8.728,26.198 0.116,0.349 0.308,0.671 0.491,1.062 l 0.67,-0.78 c -0.056,3.351 -0.112,6.701 -0.167,10.052 z"
         id="path3819" />
      <path
         fill-rule="evenodd"
         clip-rule="evenodd"
         fill="#4aa73c"
         d="m 43.155,32.227 c 0.21,0.274 0.511,0.516 0.617,0.826 2.248,6.618 4.483,13.239 6.7,19.867 2.746,8.211 5.463,16.433 8.213,24.642 1.662,4.961 3.362,9.911 5.062,14.913 l 0.765,-0.289 -0.171,2.426 -0.155,0.559 c -0.266,2.656 -0.49,5.318 -0.814,7.968 -0.163,1.328 -0.509,2.632 -0.772,3.947 -0.198,-0.287 -0.476,-0.548 -0.583,-0.866 C 56.55,89.923 51.099,73.62 45.641,57.32 43.904,52.133 42.158,46.949 40.399,41.769 40.31,41.506 40.059,41.3 39.883,41.067 c 1.09,-2.947 2.181,-5.894 3.272,-8.84 z"
         id="path3821" />
      <path
         fill-rule="evenodd"
         clip-rule="evenodd"
         fill="#57ae47"
         d="m 65.202,70.702 -0.67,0.78 C 64.349,71.091 64.157,70.768 64.041,70.42 61.128,61.689 58.229,52.952 55.313,44.222 53.071,37.511 50.81,30.807 48.545,24.104 48.44,23.79 48.218,23.516 48.049,23.225 l 6.055,-7.965 c 0.191,0.255 0.463,0.482 0.562,0.769 1.681,4.921 3.347,9.848 5.003,14.778 1.547,4.604 3.071,9.215 4.636,13.813 0.105,0.308 0.47,0.526 0.714,0.786 l 0.012,1.045 c 0.058,8.082 0.115,16.167 0.171,24.251 z"
         id="path3823" />
      <path
         fill-rule="evenodd"
         clip-rule="evenodd"
         fill="#60b24f"
         d="M 65.021,45.404 C 64.777,45.144 64.412,44.926 64.307,44.618 62.742,40.02 61.218,35.409 59.671,30.805 58.015,25.875 56.349,20.949 54.668,16.027 54.569,15.74 54.297,15.513 54.106,15.258 56.075,13.33 57.983,11.333 60.031,9.494 61.852,7.86 63.316,6.108 63.383,3.526 63.386,3.419 63.442,3.312 63.528,3.012 l 0.519,1.306 c -0.013,0.661 -0.072,1.322 -0.029,1.979 0.075,1.143 0.259,2.28 0.311,3.423 0.096,2.127 0.142,4.258 0.185,6.388 0.069,3.428 0.132,6.856 0.175,10.285 0.067,5.478 0.111,10.956 0.18,16.434 0.008,0.861 0.098,1.718 0.152,2.577 z"
         id="path3825" />
      <path
         fill-rule="evenodd"
         clip-rule="evenodd"
         fill="#a9aa88"
         d="m 62.598,107.085 c 0.263,-1.315 0.609,-2.62 0.772,-3.947 0.325,-2.649 0.548,-5.312 0.814,-7.968 l 0.066,-0.01 0.066,0.011 c 0.075,3.334 0.529,6.615 1.394,9.838 -0.176,0.232 -0.425,0.439 -0.518,0.701 -0.727,2.05 -1.412,4.116 -2.143,6.166 -0.1,0.28 -0.378,0.498 -0.574,0.744 l -0.747,-2.566 z"
         id="path3827" />
      <path
         fill-rule="evenodd"
         clip-rule="evenodd"
         fill="#b6b598"
         d="m 62.476,112.621 c 0.196,-0.246 0.475,-0.464 0.574,-0.744 0.731,-2.05 1.417,-4.115 2.143,-6.166 0.093,-0.262 0.341,-0.469 0.518,-0.701 l 1.255,2.754 c -0.248,0.352 -0.59,0.669 -0.728,1.061 l -2.404,7.059 c -0.099,0.283 -0.437,0.483 -0.663,0.722 z"
         id="path3829" />
      <path
         fill-rule="evenodd"
         clip-rule="evenodd"
         fill="#c2c1a7"
         d="m 63.171,116.605 c 0.227,-0.238 0.564,-0.439 0.663,-0.722 l 2.404,-7.059 c 0.137,-0.391 0.48,-0.709 0.728,-1.061 l 1.215,1.037 c -0.587,0.58 -0.913,1.25 -0.717,2.097 l -0.369,1.208 c -0.168,0.207 -0.411,0.387 -0.494,0.624 -0.839,2.403 -1.64,4.819 -2.485,7.222 -0.107,0.305 -0.404,0.544 -0.614,0.812 -0.109,-1.387 -0.22,-2.771 -0.331,-4.158 z"
         id="path3831" />
      <path
         fill-rule="evenodd"
         clip-rule="evenodd"
         fill="#cecdb7"
         d="m 63.503,120.763 c 0.209,-0.269 0.506,-0.508 0.614,-0.812 0.845,-2.402 1.646,-4.818 2.485,-7.222 0.083,-0.236 0.325,-0.417 0.494,-0.624 l -0.509,5.545 c -0.136,0.157 -0.333,0.294 -0.398,0.477 -0.575,1.614 -1.117,3.24 -1.694,4.854 -0.119,0.333 -0.347,0.627 -0.525,0.938 -0.158,-0.207 -0.441,-0.407 -0.454,-0.623 -0.051,-0.841 -0.016,-1.688 -0.013,-2.533 z"
         id="path3833" />
      <path
         fill-rule="evenodd"
         clip-rule="evenodd"
         fill="#dbdac7"
         d="m 63.969,123.919 c 0.178,-0.312 0.406,-0.606 0.525,-0.938 0.578,-1.613 1.119,-3.239 1.694,-4.854 0.065,-0.183 0.263,-0.319 0.398,-0.477 l 0.012,3.64 -1.218,3.124 z"
         id="path3835" />
      <path
         fill-rule="evenodd"
         clip-rule="evenodd"
         fill="#ebe9dc"
         d="m 65.38,124.415 1.218,-3.124 0.251,3.696 z"
         id="path3837" />
      <path
         fill-rule="evenodd"
         clip-rule="evenodd"
         fill="#cecdb7"
         d="m 67.464,110.898 c -0.196,-0.847 0.129,-1.518 0.717,-2.097 l 0.337,0.23 z"
         id="path3839" />
      <path
         fill-rule="evenodd"
         clip-rule="evenodd"
         fill="#4faa41"
         d="m 64.316,95.172 -0.066,-0.011 -0.066,0.01 0.155,-0.559 z"
         id="path3841" />
    </g>
  </g>
</svg>
