<?xml version="1.0" encoding="UTF-8" standalone="no"?>
<svg
   xmlns:dc="http://purl.org/dc/elements/1.1/"
   xmlns:cc="http://creativecommons.org/ns#"
   xmlns:rdf="http://www.w3.org/1999/02/22-rdf-syntax-ns#"
   xmlns:svg="http://www.w3.org/2000/svg"
   xmlns="http://www.w3.org/2000/svg"
   xmlns:sodipodi="http://sodipodi.sourceforge.net/DTD/sodipodi-0.dtd"
   xmlns:inkscape="http://www.inkscape.org/namespaces/inkscape"
   width="24"
   height="24"
   viewBox="0 0 6.3499999 6.3499999"
   version="1.1"
   id="svg10908"
   inkscape:version="1.0.1 (3bc2e813f5, 2020-09-07)"
   sodipodi:docname="mongodb-square-outline.svg">
  <title
     id="title11486">mongodb-square-filled</title>
  <defs
     id="defs10902" />
  <sodipodi:namedview
     id="base"
     pagecolor="#ffffff"
     bordercolor="#666666"
     borderopacity="1.0"
     inkscape:pageopacity="0.0"
     inkscape:pageshadow="2"
     inkscape:zoom="22.4"
     inkscape:cx="11.865285"
     inkscape:cy="11.063399"
     inkscape:document-units="mm"
     inkscape:current-layer="layer1"
     inkscape:document-rotation="0"
     showgrid="false"
     units="px"
     inkscape:window-width="1140"
     inkscape:window-height="1368"
     inkscape:window-x="1411"
     inkscape:window-y="0"
     inkscape:window-maximized="0"
     inkscape:snap-center="true"
     inkscape:snap-object-midpoints="true"
     inkscape:snap-page="true"
     inkscape:snap-intersection-paths="true"
     inkscape:snap-smooth-nodes="false"
     showguides="true"
     inkscape:guide-bbox="true"
     inkscape:snap-bbox="true"
     inkscape:bbox-paths="true"
     inkscape:bbox-nodes="true"
     inkscape:snap-bbox-edge-midpoints="true"
     inkscape:snap-bbox-midpoints="true">
    <sodipodi:guide
       position="0,6.3499999"
       orientation="1,0"
       id="guide11518" />
  </sodipodi:namedview>
  <metadata
     id="metadata10905">
    <rdf:RDF>
      <cc:Work
         rdf:about="">
        <dc:format>image/svg+xml</dc:format>
        <dc:type
           rdf:resource="http://purl.org/dc/dcmitype/StillImage" />
        <dc:title>mongodb-square-outline</dc:title>
      </cc:Work>
    </rdf:RDF>
  </metadata>
  <g
     inkscape:label="Layer 1"
     inkscape:groupmode="layer"
     id="layer1"
     transform="translate(-109.4619,-112.48571)">
    <path
       id="path1441-5-4-20-0-2-5-5-55"
       style="fill:#000000;fill-opacity:1;stroke-width:0.264583"
       d="m 109.4619,112.48571 v 6.35 h 6.35 v -6.35 z m 0.52917,0.52916 h 5.29166 v 5.29167 h -5.29166 z m 2.62774,0.26459 c -0.003,0.0117 -0.005,0.0159 -0.006,0.0202 -0.003,0.10081 -0.0596,0.16925 -0.13074,0.23306 -0.08,0.0719 -0.15463,0.14951 -0.23151,0.22479 -0.0788,0.10367 -0.1574,0.20747 -0.23616,0.31109 -0.0638,0.11718 -0.12751,0.23423 -0.1912,0.3514 l -0.12816,0.3452 -0.004,0.005 c -0.0703,0.23105 -0.1054,0.46854 -0.12247,0.70848 -0.006,0.0902 0.001,0.1817 0.006,0.27234 0.007,0.1296 0.0299,0.25702 0.0636,0.3824 0.12265,0.45554 0.37129,0.83343 0.71159,1.15445 0.0632,0.0596 0.12828,0.11377 0.1943,0.17054 0.0113,-0.0386 0.0202,-0.0771 0.0305,-0.11576 0.0102,-0.0385 0.0209,-0.0771 0.0279,-0.11575 -0.007,0.0386 -0.015,0.0772 -0.0227,0.11575 l -0.0331,0.11576 0.0295,0.10025 0.0274,0.15554 0.0134,0.16227 c 0,0.0329 -0.001,0.0663 5.3e-4,0.0992 5.3e-4,0.008 0.0114,0.0162 0.0176,0.0243 l 0.0553,0.0191 0.0574,0.0222 -0.01,-0.14418 -5.3e-4,-0.14211 0.0196,-0.21652 0.0145,-0.047 0.0408,-0.0729 c 0.0508,-0.0409 0.10567,-0.078 0.15193,-0.12351 0.0837,-0.0823 0.16694,-0.16571 0.24184,-0.2558 0.0972,-0.11685 0.18092,-0.24457 0.24805,-0.38137 0.045,-0.0915 0.0875,-0.18447 0.12247,-0.28008 0.0309,-0.0843 0.05,-0.17326 0.0744,-0.25994 0.002,-0.006 0.005,-0.0122 0.006,-0.0186 0.0502,-0.23396 0.0588,-0.47049 0.0403,-0.70848 l 0.001,5.3e-4 c -0.0148,-0.19187 -0.0602,-0.37685 -0.123,-0.5581 -0.12995,-0.40475 -0.33825,-0.76306 -0.632,-1.07126 -0.0743,-0.078 -0.15698,-0.14896 -0.20877,-0.24598 -0.0328,-0.0614 -0.0637,-0.12367 -0.0956,-0.18552 z" />
  </g>
</svg>
