<?xml version="1.0" encoding="UTF-8" standalone="no"?>
<svg
   xmlns:dc="http://purl.org/dc/elements/1.1/"
   xmlns:cc="http://creativecommons.org/ns#"
   xmlns:rdf="http://www.w3.org/1999/02/22-rdf-syntax-ns#"
   xmlns:svg="http://www.w3.org/2000/svg"
   xmlns="http://www.w3.org/2000/svg"
   xmlns:sodipodi="http://sodipodi.sourceforge.net/DTD/sodipodi-0.dtd"
   xmlns:inkscape="http://www.inkscape.org/namespaces/inkscape"
   width="24"
   height="24"
   viewBox="0 0 6.3499999 6.3499999"
   version="1.1"
   id="svg10908"
   inkscape:version="1.0.1 (3bc2e813f5, 2020-09-07)"
   sodipodi:docname="phone-outline-square-outline-white.svg">
  <title
     id="title11486">phone-outline-square-outline-white</title>
  <defs
     id="defs10902" />
  <sodipodi:namedview
     id="base"
     pagecolor="#ffffff"
     bordercolor="#666666"
     borderopacity="1.0"
     inkscape:pageopacity="0.0"
     inkscape:pageshadow="2"
     inkscape:zoom="22.4"
     inkscape:cx="11.239633"
     inkscape:cy="11.063399"
     inkscape:document-units="mm"
     inkscape:current-layer="layer1"
     inkscape:document-rotation="0"
     showgrid="false"
     units="px"
     inkscape:window-width="1155"
     inkscape:window-height="1368"
     inkscape:window-x="1389"
     inkscape:window-y="1080"
     inkscape:window-maximized="0"
     inkscape:snap-center="true"
     inkscape:snap-object-midpoints="true"
     inkscape:snap-page="true"
     inkscape:snap-intersection-paths="true"
     inkscape:snap-smooth-nodes="false"
     showguides="true"
     inkscape:guide-bbox="true"
     inkscape:snap-bbox="true"
     inkscape:bbox-paths="true"
     inkscape:bbox-nodes="true"
     inkscape:snap-bbox-edge-midpoints="true"
     inkscape:snap-bbox-midpoints="true">
    <sodipodi:guide
       position="0,6.3499999"
       orientation="1,0"
       id="guide11518" />
  </sodipodi:namedview>
  <metadata
     id="metadata10905">
    <rdf:RDF>
      <cc:Work
         rdf:about="">
        <dc:format>image/svg+xml</dc:format>
        <dc:type
           rdf:resource="http://purl.org/dc/dcmitype/StillImage" />
        <dc:title>phone-outline-square-outline-white</dc:title>
      </cc:Work>
    </rdf:RDF>
  </metadata>
  <g
     inkscape:label="Layer 1"
     inkscape:groupmode="layer"
     id="layer1"
     transform="translate(-109.4619,-112.48571)">
    <path
       id="path1441-5-4-20-0-2-3-5-7-1"
       style="fill:#ffffff;fill-opacity:1;stroke-width:0.264583"
       d="m 109.4619,112.48571 v 6.35 h 6.35 v -6.35 z m 0.52917,0.52917 h 5.29167 v 5.29166 h -5.29167 z m 1.05833,0.85989 c -0.10914,0 -0.19843,0.0893 -0.19843,0.19844 0,1.86333 1.5101,3.37344 3.37343,3.37344 0.10914,0 0.19844,-0.0893 0.19844,-0.19844 v -0.69246 c 0,-0.10914 -0.0893,-0.19844 -0.19844,-0.19844 -0.24606,0 -0.48623,-0.0397 -0.70848,-0.11317 -0.0198,-0.008 -0.0417,-0.01 -0.0615,-0.01 -0.0516,0 -0.10139,0.0197 -0.14108,0.0574 l -0.43615,0.43666 c -0.56157,-0.28773 -1.02217,-0.74635 -1.30792,-1.30793 l 0.43666,-0.43615 c 0.0556,-0.0556 0.0714,-0.13311 0.0496,-0.20257 -0.0734,-0.22225 -0.11317,-0.46043 -0.11317,-0.70848 0,-0.10914 -0.0893,-0.19844 -0.19844,-0.19844 z m 0.20464,0.39688 h 0.29921 c 0.0119,0.17661 0.0418,0.34947 0.0894,0.51418 l -0.23823,0.23771 c -0.0814,-0.23812 -0.13252,-0.48996 -0.15038,-0.75189 z m 2.25619,2.38538 c 0.16868,0.0476 0.34112,0.077 0.51574,0.0889 v 0.29611 c -0.26194,-0.0179 -0.51385,-0.0694 -0.75396,-0.14883 z" />
  </g>
</svg>
