<?xml version="1.0" encoding="UTF-8" standalone="no"?>
<svg
   xmlns:dc="http://purl.org/dc/elements/1.1/"
   xmlns:cc="http://creativecommons.org/ns#"
   xmlns:rdf="http://www.w3.org/1999/02/22-rdf-syntax-ns#"
   xmlns:svg="http://www.w3.org/2000/svg"
   xmlns="http://www.w3.org/2000/svg"
   xmlns:sodipodi="http://sodipodi.sourceforge.net/DTD/sodipodi-0.dtd"
   xmlns:inkscape="http://www.inkscape.org/namespaces/inkscape"
   width="24"
   height="24"
   viewBox="0 0 6.3499999 6.3499999"
   version="1.1"
   id="svg10908"
   inkscape:version="1.0.1 (3bc2e813f5, 2020-09-07)"
   sodipodi:docname="csharp-circle-filled.svg">
  <title
     id="title11486">csharp-circle-filled</title>
  <defs
     id="defs10902" />
  <sodipodi:namedview
     id="base"
     pagecolor="#ffffff"
     bordercolor="#666666"
     borderopacity="1.0"
     inkscape:pageopacity="0.0"
     inkscape:pageshadow="2"
     inkscape:zoom="22.4"
     inkscape:cx="11.239633"
     inkscape:cy="11.063399"
     inkscape:document-units="mm"
     inkscape:current-layer="layer1"
     inkscape:document-rotation="0"
     showgrid="false"
     units="px"
     inkscape:window-width="1140"
     inkscape:window-height="1368"
     inkscape:window-x="1411"
     inkscape:window-y="0"
     inkscape:window-maximized="0"
     inkscape:snap-center="true"
     inkscape:snap-object-midpoints="true"
     inkscape:snap-page="true"
     inkscape:snap-intersection-paths="true"
     inkscape:snap-smooth-nodes="false"
     showguides="true"
     inkscape:guide-bbox="true"
     inkscape:snap-bbox="true"
     inkscape:bbox-paths="true"
     inkscape:bbox-nodes="true"
     inkscape:snap-bbox-edge-midpoints="true"
     inkscape:snap-bbox-midpoints="true">
    <sodipodi:guide
       position="0,6.3499999"
       orientation="1,0"
       id="guide11518" />
  </sodipodi:namedview>
  <metadata
     id="metadata10905">
    <rdf:RDF>
      <cc:Work
         rdf:about="">
        <dc:format>image/svg+xml</dc:format>
        <dc:type
           rdf:resource="http://purl.org/dc/dcmitype/StillImage" />
        <dc:title>csharp-circle-filled</dc:title>
      </cc:Work>
    </rdf:RDF>
  </metadata>
  <g
     inkscape:label="Layer 1"
     inkscape:groupmode="layer"
     id="layer1"
     transform="translate(-109.4619,-112.48571)">
    <path
       id="circle-0"
       style="fill:#000000;fill-opacity:1;fill-rule:evenodd;stroke:none;stroke-width:0.0916501"
       d="m 112.6369,112.48571 a 3.175,3.1749997 0 0 0 -3.175,3.175 3.175,3.1749997 0 0 0 3.175,3.175 3.175,3.1749997 0 0 0 3.175,-3.175 3.175,3.1749997 0 0 0 -3.175,-3.175 z m 0.002,0.80977 c 0.0459,0 0.0877,0.008 0.11834,0.0269 l 1.84691,1.06299 c 0.0344,0.0191 0.0691,0.0577 0.092,0.0997 l -0.0114,0.007 h -5.3e-4 c 0.0153,0.0344 0.0195,0.0692 0.0155,0.0997 v 2.13372 c 0,0.0727 -0.0461,0.16847 -0.1111,0.20671 l -1.83555,1.0666 c -0.0306,0.0153 -0.0724,0.0269 -0.11834,0.0269 -0.0459,0 -0.0883,-0.008 -0.11885,-0.0269 l -1.8433,-1.0666 c -0.0268,-0.0153 -0.0532,-0.0423 -0.0724,-0.0729 l 0.008,-0.004 c -0.0264,-0.0421 -0.0341,-0.0882 -0.0341,-0.13023 v -2.1301 c 0,-0.0727 0.0456,-0.16795 0.11059,-0.20619 l 1.83554,-1.06712 c 0.0306,-0.0153 0.073,-0.0269 0.11886,-0.0269 z m 0,0.85266 c -0.83363,0 -1.5105,0.67686 -1.5105,1.5105 -1e-5,0.83364 0.67687,1.5105 1.5105,1.5105 0.55831,0 1.04738,-0.30582 1.30741,-0.75706 l -0.49299,-0.29042 c -0.16061,0.28298 -0.46643,0.47388 -0.81442,0.47388 -0.51624,0 -0.9369,-0.42065 -0.9369,-0.9369 0,-0.51624 0.42066,-0.93689 0.9369,-0.93689 0.34799,0 0.65381,0.1912 0.81442,0.47801 l 0.49713,-0.28681 c -0.26005,-0.45506 -0.74941,-0.76481 -1.31155,-0.76481 z m 1.39578,1.01338 -0.046,0.22944 h -0.20258 v 0.1912 h 0.16795 l -0.0341,0.15296 h -0.13385 v 0.19121 h 0.0956 l -0.046,0.22944 h 0.18346 l 0.046,-0.22944 h 0.14521 l -0.046,0.22944 h 0.18759 l 0.046,-0.22944 h 0.19121 v -0.19121 h -0.1571 l 0.0346,-0.15296 h 0.12248 v -0.1912 h -0.0842 l 0.046,-0.22944 h -0.18396 l -0.0455,0.22944 h -0.14573 l 0.046,-0.22944 z m 0.10283,0.42064 h 0.14573 l -0.0346,0.15296 H 114.103 Z" />
  </g>
</svg>
