<?xml version="1.0" encoding="UTF-8" standalone="no"?>
<svg
   xmlns:dc="http://purl.org/dc/elements/1.1/"
   xmlns:cc="http://creativecommons.org/ns#"
   xmlns:rdf="http://www.w3.org/1999/02/22-rdf-syntax-ns#"
   xmlns:svg="http://www.w3.org/2000/svg"
   xmlns="http://www.w3.org/2000/svg"
   xmlns:sodipodi="http://sodipodi.sourceforge.net/DTD/sodipodi-0.dtd"
   xmlns:inkscape="http://www.inkscape.org/namespaces/inkscape"
   width="24"
   height="24"
   viewBox="0 0 6.3499999 6.3499999"
   version="1.1"
   id="svg10908"
   inkscape:version="1.0.1 (3bc2e813f5, 2020-09-07)"
   sodipodi:docname="csharp-circle-outline.svg">
  <title
     id="title11486">csharp-circle-outline</title>
  <defs
     id="defs10902" />
  <sodipodi:namedview
     id="base"
     pagecolor="#ffffff"
     bordercolor="#666666"
     borderopacity="1.0"
     inkscape:pageopacity="0.0"
     inkscape:pageshadow="2"
     inkscape:zoom="22.4"
     inkscape:cx="11.239633"
     inkscape:cy="11.063399"
     inkscape:document-units="mm"
     inkscape:current-layer="layer1"
     inkscape:document-rotation="0"
     showgrid="false"
     units="px"
     inkscape:window-width="1140"
     inkscape:window-height="1368"
     inkscape:window-x="1411"
     inkscape:window-y="0"
     inkscape:window-maximized="0"
     inkscape:snap-center="true"
     inkscape:snap-object-midpoints="true"
     inkscape:snap-page="true"
     inkscape:snap-intersection-paths="true"
     inkscape:snap-smooth-nodes="false"
     showguides="true"
     inkscape:guide-bbox="true"
     inkscape:snap-bbox="true"
     inkscape:bbox-paths="true"
     inkscape:bbox-nodes="true"
     inkscape:snap-bbox-edge-midpoints="true"
     inkscape:snap-bbox-midpoints="true">
    <sodipodi:guide
       position="0,6.3499999"
       orientation="1,0"
       id="guide11518" />
  </sodipodi:namedview>
  <metadata
     id="metadata10905">
    <rdf:RDF>
      <cc:Work
         rdf:about="">
        <dc:format>image/svg+xml</dc:format>
        <dc:type
           rdf:resource="http://purl.org/dc/dcmitype/StillImage" />
        <dc:title>csharp-circle-outline</dc:title>
      </cc:Work>
    </rdf:RDF>
  </metadata>
  <g
     inkscape:label="Layer 1"
     inkscape:groupmode="layer"
     id="layer1"
     transform="translate(-109.4619,-112.48571)">
    <path
       id="circle-2-4-0-0-4"
       style="fill:#000000;fill-opacity:1;fill-rule:evenodd;stroke:none;stroke-width:0.0916501"
       d="m 112.6369,112.48571 a 3.175,3.1749997 0 0 0 -3.175,3.175 3.175,3.1749997 0 0 0 3.175,3.175 3.175,3.1749997 0 0 0 3.175,-3.175 3.175,3.1749997 0 0 0 -3.175,-3.175 z m -0.005,0.52917 a 2.6458332,2.6458332 0 0 1 0.005,0 2.6458332,2.6458332 0 0 1 2.64583,2.64583 2.6458332,2.6458332 0 0 1 -2.64583,2.64583 2.6458332,2.6458332 0 0 1 -2.64583,-2.64583 2.6458332,2.6458332 0 0 1 2.64066,-2.64583 z m 0.007,0.2806 c -0.0459,0 -0.0882,0.0116 -0.11886,0.0269 l -1.83554,1.06712 c -0.065,0.0382 -0.11059,0.13353 -0.11059,0.20619 v 2.1301 c 0,0.0421 0.008,0.0882 0.0341,0.13023 l -0.008,0.004 c 0.0191,0.0306 0.0455,0.0576 0.0723,0.0729 l 1.8433,1.06661 c 0.0306,0.0191 0.073,0.0269 0.11886,0.0269 0.0459,0 0.0877,-0.0116 0.11834,-0.0269 l 1.83554,-1.06661 c 0.065,-0.0382 0.11111,-0.13404 0.11111,-0.2067 v -2.13372 c 0.004,-0.0306 -2.1e-4,-0.0653 -0.0155,-0.0997 h 5.3e-4 l 0.0114,-0.007 c -0.0229,-0.0421 -0.0576,-0.0806 -0.092,-0.0997 l -1.84691,-1.06298 c -0.0306,-0.0191 -0.0725,-0.0269 -0.11834,-0.0269 z m 0,0.85266 c 0.56214,0 1.05151,0.30975 1.31155,0.76481 l -0.49713,0.28681 c -0.16061,-0.28681 -0.46643,-0.47801 -0.81442,-0.47801 -0.51624,0 -0.93689,0.42065 -0.93689,0.93689 0,0.51625 0.42065,0.9369 0.93689,0.9369 0.34799,0 0.65381,-0.1909 0.81442,-0.47388 l 0.493,0.29042 c -0.26003,0.45124 -0.74911,0.75706 -1.30742,0.75706 -0.83363,0 -1.5105,-0.67686 -1.5105,-1.5105 0,-0.83364 0.67687,-1.5105 1.5105,-1.5105 z m 1.39578,1.01338 h 0.18707 l -0.046,0.22944 h 0.14572 l 0.0455,-0.22944 h 0.18397 l -0.046,0.22944 h 0.0842 v 0.1912 h -0.12247 l -0.0346,0.15296 h 0.1571 v 0.19121 h -0.1912 l -0.046,0.22944 h -0.18758 l 0.046,-0.22944 h -0.14521 l -0.046,0.22944 h -0.18345 l 0.046,-0.22944 h -0.0956 v -0.19121 h 0.13384 l 0.0341,-0.15296 h -0.16795 v -0.1912 h 0.20257 z m 0.10284,0.42064 -0.0341,0.15296 h 0.14521 l 0.0346,-0.15296 z" />
  </g>
</svg>
