<?xml version="1.0" encoding="UTF-8" standalone="no"?>
<svg
   xmlns:dc="http://purl.org/dc/elements/1.1/"
   xmlns:cc="http://creativecommons.org/ns#"
   xmlns:rdf="http://www.w3.org/1999/02/22-rdf-syntax-ns#"
   xmlns:svg="http://www.w3.org/2000/svg"
   xmlns="http://www.w3.org/2000/svg"
   xmlns:sodipodi="http://sodipodi.sourceforge.net/DTD/sodipodi-0.dtd"
   xmlns:inkscape="http://www.inkscape.org/namespaces/inkscape"
   width="24"
   height="24"
   viewBox="0 0 6.3499999 6.3499999"
   version="1.1"
   id="svg10908"
   inkscape:version="1.0.1 (3bc2e813f5, 2020-09-07)"
   sodipodi:docname="typescript-roundedsquare-filled.svg">
  <title
     id="title11486">typescript-roundedsquare-filled</title>
  <defs
     id="defs10902" />
  <sodipodi:namedview
     id="base"
     pagecolor="#ffffff"
     bordercolor="#666666"
     borderopacity="1.0"
     inkscape:pageopacity="0.0"
     inkscape:pageshadow="2"
     inkscape:zoom="22.4"
     inkscape:cx="11.865285"
     inkscape:cy="11.063399"
     inkscape:document-units="mm"
     inkscape:current-layer="layer1"
     inkscape:document-rotation="0"
     showgrid="false"
     units="px"
     inkscape:window-width="1140"
     inkscape:window-height="1368"
     inkscape:window-x="1411"
     inkscape:window-y="0"
     inkscape:window-maximized="0"
     inkscape:snap-center="true"
     inkscape:snap-object-midpoints="true"
     inkscape:snap-page="true"
     inkscape:snap-intersection-paths="true"
     inkscape:snap-smooth-nodes="false"
     showguides="true"
     inkscape:guide-bbox="true"
     inkscape:snap-bbox="true"
     inkscape:bbox-paths="true"
     inkscape:bbox-nodes="true"
     inkscape:snap-bbox-edge-midpoints="true"
     inkscape:snap-bbox-midpoints="true">
    <sodipodi:guide
       position="0,6.3499999"
       orientation="1,0"
       id="guide11518" />
  </sodipodi:namedview>
  <metadata
     id="metadata10905">
    <rdf:RDF>
      <cc:Work
         rdf:about="">
        <dc:format>image/svg+xml</dc:format>
        <dc:type
           rdf:resource="http://purl.org/dc/dcmitype/StillImage" />
        <dc:title>typescript-roundedsquare-filled</dc:title>
      </cc:Work>
    </rdf:RDF>
  </metadata>
  <g
     inkscape:label="Layer 1"
     inkscape:groupmode="layer"
     id="layer1"
     transform="translate(-109.4619,-112.48571)">
    <path
       id="typescript-4-7"
       style="fill:#000000;fill-opacity:1;stroke-width:0.0508"
       d="m 109.99106,112.48571 c -0.29316,0 -0.52916,0.23601 -0.52916,0.52917 v 2.64583 2.64583 c 0,0.29316 0.236,0.52917 0.52916,0.52917 h 5.29167 c 0.29315,0 0.52917,-0.23601 0.52917,-0.52917 v -5.29166 c 0,-0.29316 -0.23602,-0.52917 -0.52917,-0.52917 z m 4.27003,2.89698 a 1.6083278,1.6083278 0 0 1 0.3178,0.0253 v -0.002 a 0.79044792,0.79044792 0 0 1 0.3974,0.22893 1.0454639,1.0454639 0 0 1 0.15244,0.20309 c 0,0.008 -0.27417,0.19351 -0.44131,0.29714 -0.006,0.004 -0.031,-0.0224 -0.0579,-0.0625 a 0.36017197,0.36017197 0 0 0 -0.29817,-0.17931 c -0.19254,-0.0132 -0.31625,0.0882 -0.31523,0.25425 a 0.23266398,0.23266398 0 0 0 0.0274,0.11886 c 0.0422,0.0879 0.12104,0.14033 0.36793,0.24701 0.45466,0.19558 0.64908,0.32459 0.76998,0.50798 0.13513,0.2032 0.1653,0.53129 0.0739,0.77411 -0.1016,0.26416 -0.35076,0.44339 -0.7028,0.50281 a 1.9466557,1.9466557 0 0 1 -0.48369,-0.005 1.1683999,1.1683999 0 0 1 -0.64441,-0.33279 c -0.0584,-0.0645 -0.17247,-0.23224 -0.16536,-0.24443 a 0.47447192,0.47447192 0 0 1 0.0584,-0.0372 l 0.23357,-0.13436 0.18242,-0.10541 0.0382,0.0563 a 0.85242387,0.85242387 0 0 0 0.24081,0.23048 c 0.2032,0.10668 0.48037,0.0919 0.61753,-0.0315 a 0.27584397,0.27584397 0 0 0 0.0351,-0.3514 c -0.0508,-0.0706 -0.15218,-0.1303 -0.43615,-0.25425 -0.32766,-0.14123 -0.46887,-0.22823 -0.5979,-0.36742 a 0.83718387,0.83718387 0 0 1 -0.17415,-0.31781 1.2699999,1.2699999 0 0 1 -0.0114,-0.40618 c 0.0676,-0.31648 0.30468,-0.53753 0.65113,-0.60306 a 1.6083278,1.6083278 0 0 1 0.16433,-0.0119 z m -2.28359,0.0284 h 1.10795 l 0.003,0.262 v 0.25994 h -0.82475 v 2.34869 h -0.58446 v -2.34921 h -0.82631 v -0.25425 a 2.4988517,2.4988517 0 0 1 0.007,-0.262 c 0.003,-0.004 0.50816,-0.006 1.11776,-0.005 z" />
  </g>
</svg>
