<?xml version="1.0" encoding="UTF-8" standalone="no"?>
<svg
   xmlns:dc="http://purl.org/dc/elements/1.1/"
   xmlns:cc="http://creativecommons.org/ns#"
   xmlns:rdf="http://www.w3.org/1999/02/22-rdf-syntax-ns#"
   xmlns:svg="http://www.w3.org/2000/svg"
   xmlns="http://www.w3.org/2000/svg"
   xmlns:sodipodi="http://sodipodi.sourceforge.net/DTD/sodipodi-0.dtd"
   xmlns:inkscape="http://www.inkscape.org/namespaces/inkscape"
   width="24"
   height="24"
   viewBox="0 0 6.3499999 6.3499999"
   version="1.1"
   id="svg10908"
   inkscape:version="1.0.1 (3bc2e813f5, 2020-09-07)"
   sodipodi:docname="typescript-square-outline.svg">
  <title
     id="title11486">typescript-square-outline</title>
  <defs
     id="defs10902" />
  <sodipodi:namedview
     id="base"
     pagecolor="#ffffff"
     bordercolor="#666666"
     borderopacity="1.0"
     inkscape:pageopacity="0.0"
     inkscape:pageshadow="2"
     inkscape:zoom="22.4"
     inkscape:cx="11.865285"
     inkscape:cy="11.063399"
     inkscape:document-units="mm"
     inkscape:current-layer="layer1"
     inkscape:document-rotation="0"
     showgrid="false"
     units="px"
     inkscape:window-width="1140"
     inkscape:window-height="1368"
     inkscape:window-x="1411"
     inkscape:window-y="0"
     inkscape:window-maximized="0"
     inkscape:snap-center="true"
     inkscape:snap-object-midpoints="true"
     inkscape:snap-page="true"
     inkscape:snap-intersection-paths="true"
     inkscape:snap-smooth-nodes="false"
     showguides="true"
     inkscape:guide-bbox="true"
     inkscape:snap-bbox="true"
     inkscape:bbox-paths="true"
     inkscape:bbox-nodes="true"
     inkscape:snap-bbox-edge-midpoints="true"
     inkscape:snap-bbox-midpoints="true">
    <sodipodi:guide
       position="0,6.3499999"
       orientation="1,0"
       id="guide11518" />
  </sodipodi:namedview>
  <metadata
     id="metadata10905">
    <rdf:RDF>
      <cc:Work
         rdf:about="">
        <dc:format>image/svg+xml</dc:format>
        <dc:type
           rdf:resource="http://purl.org/dc/dcmitype/StillImage" />
        <dc:title>typescript-square-outline</dc:title>
      </cc:Work>
    </rdf:RDF>
  </metadata>
  <g
     inkscape:label="Layer 1"
     inkscape:groupmode="layer"
     id="layer1"
     transform="translate(-109.4619,-112.48571)">
    <path
       id="path1441-5-4-20-0-2-5-5-4-6-5"
       style="fill:#000000;fill-opacity:1;stroke-width:0.264583"
       d="m 109.4619,112.48571 v 6.35 h 6.35 v -6.35 z m 0.52968,0.52916 h 5.29115 v 5.29167 h -5.29115 v -2.64583 z m 4.01216,2.41432 a 1.3401997,1.3401997 0 0 0 -0.14986,0.01 c -0.2887,0.0546 -0.4863,0.23909 -0.5426,0.50281 a 1.0582752,1.0582752 0 0 0 0.009,0.33848 0.69761497,0.69761497 0 0 0 0.1447,0.26459 c 0.10753,0.11597 0.22565,0.18877 0.49868,0.30644 0.23663,0.10332 0.32098,0.15255 0.36328,0.21135 a 0.22985738,0.22985738 0 0 1 -0.0289,0.29301 c -0.11429,0.1027 -0.34536,0.11525 -0.5147,0.0264 a 0.71031428,0.71031428 0 0 1 -0.20102,-0.19223 l -0.0315,-0.047 -0.15193,0.0884 -0.19482,0.11162 a 0.39537161,0.39537161 0 0 0 -0.0486,0.031 c -0.006,0.0102 0.0888,0.14981 0.13746,0.20361 a 0.97361314,0.97361314 0 0 0 0.53692,0.2775 1.6221242,1.6221242 0 0 0 0.40307,0.004 c 0.29335,-0.0495 0.5008,-0.19898 0.58549,-0.4191 0.0762,-0.20234 0.0511,-0.47611 -0.0615,-0.64543 -0.10075,-0.15281 -0.26244,-0.26026 -0.64131,-0.42323 -0.2057,-0.0889 -0.27185,-0.13248 -0.30695,-0.20568 a 0.19387602,0.19387602 0 0 1 -0.0227,-0.0992 c -7.9e-4,-0.13844 0.1026,-0.22245 0.26303,-0.21135 a 0.30012685,0.30012685 0 0 1 0.24857,0.14934 c 0.0224,0.0334 0.0415,0.0552 0.0475,0.0522 0.13927,-0.0864 0.36794,-0.24054 0.36794,-0.24753 a 0.87117211,0.87117211 0 0 0 -0.12661,-0.1695 0.65867047,0.65867047 0 0 0 -0.33125,-0.19069 l 5.3e-4,0.002 a 1.3401997,1.3401997 0 0 0 -0.25218,-0.0212 z m -1.91616,0.0238 c -0.50798,-0.002 -0.92921,0.001 -0.93121,0.004 a 2.0822623,2.0822623 0 0 0 -0.006,0.21859 v 0.21136 h 0.68885 v 1.9575 h 0.4873 v -1.95698 h 0.6873 v -0.21653 l -0.003,-0.21807 z" />
  </g>
</svg>
