<?xml version="1.0" encoding="UTF-8" standalone="no"?>
<svg
   xmlns:dc="http://purl.org/dc/elements/1.1/"
   xmlns:cc="http://creativecommons.org/ns#"
   xmlns:rdf="http://www.w3.org/1999/02/22-rdf-syntax-ns#"
   xmlns:svg="http://www.w3.org/2000/svg"
   xmlns="http://www.w3.org/2000/svg"
   xmlns:sodipodi="http://sodipodi.sourceforge.net/DTD/sodipodi-0.dtd"
   xmlns:inkscape="http://www.inkscape.org/namespaces/inkscape"
   width="24"
   height="24"
   viewBox="0 0 6.3499999 6.3499999"
   version="1.1"
   id="svg10908"
   inkscape:version="1.0.1 (3bc2e813f5, 2020-09-07)"
   sodipodi:docname="typescript-square-filled.svg">
  <title
     id="title11486">typescript-square-filled</title>
  <defs
     id="defs10902" />
  <sodipodi:namedview
     id="base"
     pagecolor="#ffffff"
     bordercolor="#666666"
     borderopacity="1.0"
     inkscape:pageopacity="0.0"
     inkscape:pageshadow="2"
     inkscape:zoom="22.4"
     inkscape:cx="11.865285"
     inkscape:cy="11.063399"
     inkscape:document-units="mm"
     inkscape:current-layer="layer1"
     inkscape:document-rotation="0"
     showgrid="false"
     units="px"
     inkscape:window-width="1140"
     inkscape:window-height="1368"
     inkscape:window-x="1411"
     inkscape:window-y="0"
     inkscape:window-maximized="0"
     inkscape:snap-center="true"
     inkscape:snap-object-midpoints="true"
     inkscape:snap-page="true"
     inkscape:snap-intersection-paths="true"
     inkscape:snap-smooth-nodes="false"
     showguides="true"
     inkscape:guide-bbox="true"
     inkscape:snap-bbox="true"
     inkscape:bbox-paths="true"
     inkscape:bbox-nodes="true"
     inkscape:snap-bbox-edge-midpoints="true"
     inkscape:snap-bbox-midpoints="true">
    <sodipodi:guide
       position="0,6.3499999"
       orientation="1,0"
       id="guide11518" />
  </sodipodi:namedview>
  <metadata
     id="metadata10905">
    <rdf:RDF>
      <cc:Work
         rdf:about="">
        <dc:format>image/svg+xml</dc:format>
        <dc:type
           rdf:resource="http://purl.org/dc/dcmitype/StillImage" />
        <dc:title>typescript-square-filled</dc:title>
      </cc:Work>
    </rdf:RDF>
  </metadata>
  <g
     inkscape:label="Layer 1"
     inkscape:groupmode="layer"
     id="layer1"
     transform="translate(-109.4619,-112.48571)">
    <path
       id="typescript-4"
       class="cls-1"
       d="m 109.4619,115.66071 v 3.175 h 6.34999 v -6.35 h -6.34999 z m 5.11708,-0.254 a 0.79044795,0.79044795 0 0 1 0.39726,0.2286 1.0454639,1.0454639 0 0 1 0.1524,0.2032 c 0,0.008 -0.27432,0.19355 -0.44146,0.29718 -0.006,0.004 -0.0305,-0.0224 -0.0574,-0.0625 a 0.36017197,0.36017197 0 0 0 -0.29819,-0.17932 c -0.19253,-0.0132 -0.31649,0.0879 -0.31547,0.254 a 0.23266398,0.23266398 0 0 0 0.0274,0.11887 c 0.0422,0.0879 0.1209,0.14021 0.36779,0.24689 0.45466,0.19558 0.64923,0.32461 0.77013,0.508 0.13513,0.2032 0.1651,0.53137 0.0737,0.77419 -0.1016,0.26416 -0.35052,0.44349 -0.70256,0.50292 a 1.9466557,1.9466557 0 0 1 -0.48362,-0.005 1.1683999,1.1683999 0 0 1 -0.64465,-0.33274 c -0.0584,-0.0645 -0.17221,-0.23267 -0.1651,-0.24486 a 0.47447195,0.47447195 0 0 1 0.0584,-0.0371 l 0.23368,-0.13411 0.18237,-0.10566 0.0381,0.0564 a 0.85242389,0.85242389 0 0 0 0.24079,0.23063 c 0.2032,0.10668 0.48057,0.0919 0.61773,-0.0315 a 0.27584397,0.27584397 0 0 0 0.035,-0.35153 c -0.0508,-0.0706 -0.1524,-0.13005 -0.43637,-0.254 -0.32766,-0.14123 -0.46889,-0.2286 -0.59792,-0.36779 a 0.83718389,0.83718389 0 0 1 -0.17424,-0.3175 1.2699999,1.2699999 0 0 1 -0.0112,-0.40641 c 0.0676,-0.31648 0.3048,-0.53746 0.65125,-0.60299 a 1.6083278,1.6083278 0 0 1 0.48209,0.0132 z m -1.49047,0.26619 v 0.2601 h -0.82449 v 2.34848 h -0.5847 v -2.34899 h -0.82652 v -0.254 a 2.4988517,2.4988517 0 0 1 0.007,-0.26213 c 0.003,-0.004 0.508,-0.006 1.1176,-0.005 h 1.10795 z"
       style="fill:#000000;fill-opacity:1;stroke-width:0.0508" />
  </g>
</svg>
