<?xml version="1.0" encoding="UTF-8" standalone="no"?>
<svg
   xmlns:dc="http://purl.org/dc/elements/1.1/"
   xmlns:cc="http://creativecommons.org/ns#"
   xmlns:rdf="http://www.w3.org/1999/02/22-rdf-syntax-ns#"
   xmlns:svg="http://www.w3.org/2000/svg"
   xmlns="http://www.w3.org/2000/svg"
   xmlns:sodipodi="http://sodipodi.sourceforge.net/DTD/sodipodi-0.dtd"
   xmlns:inkscape="http://www.inkscape.org/namespaces/inkscape"
   width="24"
   height="24"
   viewBox="0 0 6.3499999 6.3499999"
   version="1.1"
   id="svg10908"
   inkscape:version="1.0.1 (3bc2e813f5, 2020-09-07)"
   sodipodi:docname="typescript-roundedsquare-outline.svg">
  <title
     id="title11486">typescript-roundedsquare-outline</title>
  <defs
     id="defs10902" />
  <sodipodi:namedview
     id="base"
     pagecolor="#ffffff"
     bordercolor="#666666"
     borderopacity="1.0"
     inkscape:pageopacity="0.0"
     inkscape:pageshadow="2"
     inkscape:zoom="22.4"
     inkscape:cx="11.865285"
     inkscape:cy="11.063399"
     inkscape:document-units="mm"
     inkscape:current-layer="layer1"
     inkscape:document-rotation="0"
     showgrid="false"
     units="px"
     inkscape:window-width="1140"
     inkscape:window-height="1368"
     inkscape:window-x="1411"
     inkscape:window-y="0"
     inkscape:window-maximized="0"
     inkscape:snap-center="true"
     inkscape:snap-object-midpoints="true"
     inkscape:snap-page="true"
     inkscape:snap-intersection-paths="true"
     inkscape:snap-smooth-nodes="false"
     showguides="true"
     inkscape:guide-bbox="true"
     inkscape:snap-bbox="true"
     inkscape:bbox-paths="true"
     inkscape:bbox-nodes="true"
     inkscape:snap-bbox-edge-midpoints="true"
     inkscape:snap-bbox-midpoints="true">
    <sodipodi:guide
       position="0,6.3499999"
       orientation="1,0"
       id="guide11518" />
  </sodipodi:namedview>
  <metadata
     id="metadata10905">
    <rdf:RDF>
      <cc:Work
         rdf:about="">
        <dc:format>image/svg+xml</dc:format>
        <dc:type
           rdf:resource="http://purl.org/dc/dcmitype/StillImage" />
        <dc:title>typescript-roundedsquare-outline</dc:title>
      </cc:Work>
    </rdf:RDF>
  </metadata>
  <g
     inkscape:label="Layer 1"
     inkscape:groupmode="layer"
     id="layer1"
     transform="translate(-109.4619,-112.48571)">
    <path
       id="roundedsquare-outline-2-16-6-9-4-5-5"
       style="fill:#000000;fill-opacity:1;fill-rule:evenodd;stroke:none;stroke-width:0.529071;stroke-linejoin:round;stroke-miterlimit:4;stroke-dasharray:none;stroke-opacity:1"
       d="m 110.32851,112.48571 c -0.47997,0 -0.86661,0.38664 -0.86661,0.86661 v 4.61678 c 0,0.47997 0.38664,0.86661 0.86661,0.86661 h 4.61678 c 0.47997,0 0.86661,-0.38664 0.86661,-0.86661 v -4.61678 c 0,-0.47997 -0.38664,-0.86661 -0.86661,-0.86661 z m 0.18655,0.52968 h 4.24316 c 0.2907,0.003 0.524,0.23726 0.524,0.52865 v 4.23334 c 0,0.29139 -0.2333,0.52565 -0.524,0.52865 h -4.24316 c -0.28894,-0.003 -0.52099,-0.23454 -0.52399,-0.52349 v -2.12183 -2.12183 c 0.003,-0.28894 0.23505,-0.52049 0.52399,-0.52349 z m 3.48868,2.41278 a 1.3401134,1.3401134 0 0 0 -0.14986,0.01 c -0.28868,0.0546 -0.4863,0.2386 -0.5426,0.5023 a 1.058207,1.058207 0 0 0 0.009,0.33899 0.69756999,0.69756999 0 0 0 0.14521,0.26459 c 0.10752,0.11597 0.22515,0.18877 0.49816,0.30644 0.23662,0.10332 0.32099,0.15256 0.36329,0.21136 a 0.22984256,0.22984256 0 0 1 -0.0289,0.293 c -0.11428,0.1027 -0.34539,0.11526 -0.5147,0.0264 a 0.71026851,0.71026851 0 0 1 -0.2005,-0.19223 l -0.0315,-0.047 -0.15193,0.0879 -0.19482,0.11214 a 0.39534613,0.39534613 0 0 0 -0.0491,0.0305 c -0.006,0.0102 0.0888,0.15032 0.13746,0.20412 a 0.97355038,0.97355038 0 0 0 0.53744,0.2775 1.6220196,1.6220196 0 0 0 0.40256,0.004 c 0.29333,-0.0495 0.50079,-0.19899 0.58549,-0.4191 0.0762,-0.20233 0.0511,-0.4756 -0.0615,-0.64492 -0.10074,-0.1528 -0.26247,-0.26026 -0.64131,-0.42323 -0.20569,-0.0889 -0.27134,-0.13247 -0.30644,-0.20567 a 0.19386352,0.19386352 0 0 1 -0.0233,-0.0992 c -7.9e-4,-0.13846 0.10261,-0.22246 0.26304,-0.21136 a 0.30010748,0.30010748 0 0 1 0.24856,0.14935 c 0.0225,0.0334 0.0421,0.0552 0.0481,0.0522 0.13926,-0.0863 0.36742,-0.24053 0.36742,-0.24753 a 0.87111599,0.87111599 0 0 0 -0.12661,-0.1695 0.65862803,0.65862803 0 0 0 -0.33125,-0.19068 l 5.3e-4,0.002 a 1.3401134,1.3401134 0 0 0 -0.25218,-0.0212 z m -1.91565,0.0248 c -0.50793,-0.002 -0.9292,0.001 -0.9312,0.004 a 2.0821281,2.0821281 0 0 0 -0.006,0.2186 v 0.21135 h 0.68885 v 1.95751 h 0.48679 v -1.95699 h 0.6873 v -0.21653 l -0.003,-0.21807 z" />
  </g>
</svg>
