<?xml version="1.0" encoding="UTF-8" standalone="no"?>
<svg
   xmlns:dc="http://purl.org/dc/elements/1.1/"
   xmlns:cc="http://creativecommons.org/ns#"
   xmlns:rdf="http://www.w3.org/1999/02/22-rdf-syntax-ns#"
   xmlns:svg="http://www.w3.org/2000/svg"
   xmlns="http://www.w3.org/2000/svg"
   xmlns:sodipodi="http://sodipodi.sourceforge.net/DTD/sodipodi-0.dtd"
   xmlns:inkscape="http://www.inkscape.org/namespaces/inkscape"
   width="24"
   height="24"
   viewBox="0 0 6.3499999 6.3499999"
   version="1.1"
   id="svg10908"
   inkscape:version="1.0.1 (3bc2e813f5, 2020-09-07)"
   sodipodi:docname="typescript-circle-outline.svg">
  <title
     id="title11486">typescript-circle-outline</title>
  <defs
     id="defs10902" />
  <sodipodi:namedview
     id="base"
     pagecolor="#ffffff"
     bordercolor="#666666"
     borderopacity="1.0"
     inkscape:pageopacity="0.0"
     inkscape:pageshadow="2"
     inkscape:zoom="22.4"
     inkscape:cx="11.865285"
     inkscape:cy="11.063399"
     inkscape:document-units="mm"
     inkscape:current-layer="layer1"
     inkscape:document-rotation="0"
     showgrid="false"
     units="px"
     inkscape:window-width="1140"
     inkscape:window-height="1368"
     inkscape:window-x="1411"
     inkscape:window-y="0"
     inkscape:window-maximized="0"
     inkscape:snap-center="true"
     inkscape:snap-object-midpoints="true"
     inkscape:snap-page="true"
     inkscape:snap-intersection-paths="true"
     inkscape:snap-smooth-nodes="false"
     showguides="true"
     inkscape:guide-bbox="true"
     inkscape:snap-bbox="true"
     inkscape:bbox-paths="true"
     inkscape:bbox-nodes="true"
     inkscape:snap-bbox-edge-midpoints="true"
     inkscape:snap-bbox-midpoints="true">
    <sodipodi:guide
       position="0,6.3499999"
       orientation="1,0"
       id="guide11518" />
  </sodipodi:namedview>
  <metadata
     id="metadata10905">
    <rdf:RDF>
      <cc:Work
         rdf:about="">
        <dc:format>image/svg+xml</dc:format>
        <dc:type
           rdf:resource="http://purl.org/dc/dcmitype/StillImage" />
        <dc:title>typescript-circle-outline</dc:title>
      </cc:Work>
    </rdf:RDF>
  </metadata>
  <g
     inkscape:label="Layer 1"
     inkscape:groupmode="layer"
     id="layer1"
     transform="translate(-109.4619,-112.48571)">
    <path
       id="circle-2-4-0-3-6-8"
       style="fill:#000000;fill-opacity:1;fill-rule:evenodd;stroke:none;stroke-width:0.0916501"
       d="m 112.6369,112.48571 a 3.175,3.1749997 0 0 0 -3.175,3.175 3.175,3.1749997 0 0 0 3.175,3.175 3.175,3.1749997 0 0 0 3.175,-3.175 3.175,3.1749997 0 0 0 -3.175,-3.175 z m -0.005,0.52917 a 2.6458332,2.6458332 0 0 1 0.005,0 2.6458332,2.6458332 0 0 1 2.64583,2.64583 2.6458332,2.6458332 0 0 1 -2.64583,2.64583 2.6458332,2.6458332 0 0 1 -2.64583,-2.64583 2.6458332,2.6458332 0 0 1 2.64066,-2.64583 z m 1.08676,2.46548 a 1.0454131,1.0454131 0 0 0 -0.1323,0.008 c -0.2252,0.0426 -0.37933,0.186 -0.42323,0.39171 a 0.82549989,0.82549989 0 0 0 0.007,0.26406 0.54416949,0.54416949 0 0 0 0.11317,0.20671 c 0.0839,0.0905 0.17563,0.14694 0.38861,0.23875 0.18454,0.0806 0.2507,0.11946 0.2837,0.16536 a 0.17929858,0.17929858 0 0 1 -0.0227,0.22841 c -0.0892,0.0802 -0.26944,0.0905 -0.40152,0.0212 a 0.55407549,0.55407549 0 0 1 -0.15658,-0.14986 l -0.0248,-0.0367 -0.11886,0.0682 -0.15193,0.0868 a 0.30840677,0.30840677 0 0 0 -0.0377,0.0243 c -0.005,0.008 0.0695,0.11726 0.10749,0.15916 a 0.75945989,0.75945989 0 0 0 0.41857,0.21653 1.2653262,1.2653262 0 0 0 0.31471,0.003 c 0.22883,-0.0386 0.39031,-0.15487 0.45631,-0.32659 0.0594,-0.15783 0.0403,-0.37125 -0.0476,-0.50333 -0.0786,-0.11921 -0.20521,-0.20308 -0.50074,-0.33021 -0.16048,-0.0694 -0.21186,-0.10361 -0.23926,-0.16072 a 0.15123159,0.15123159 0 0 1 -0.0176,-0.077 c -5.3e-4,-0.108 0.08,-0.17436 0.20515,-0.16537 a 0.23411178,0.23411178 0 0 1 0.19379,0.11679 c 0.0175,0.026 0.0332,0.0433 0.0372,0.0403 0.10863,-0.0674 0.2868,-0.18776 0.2868,-0.19276 a 0.67955149,0.67955149 0 0 0 -0.0992,-0.13229 0.51379117,0.51379117 0 0 0 -0.25786,-0.14831 l 5.3e-4,0.001 a 1.0454131,1.0454131 0 0 0 -0.18139,-0.0165 z m -1.50999,0.0186 c -0.39624,-10e-4 -0.72394,1.9e-4 -0.72605,0.003 a 1.6242536,1.6242536 0 0 0 -0.005,0.17001 v 0.16537 h 0.53743 v 1.52652 h 0.37982 v -1.52601 h 0.53589 v -0.1695 l -0.002,-0.1695 z" />
  </g>
</svg>
