<?xml version="1.0" encoding="UTF-8" standalone="no"?>
<svg
   xmlns:dc="http://purl.org/dc/elements/1.1/"
   xmlns:cc="http://creativecommons.org/ns#"
   xmlns:rdf="http://www.w3.org/1999/02/22-rdf-syntax-ns#"
   xmlns:svg="http://www.w3.org/2000/svg"
   xmlns="http://www.w3.org/2000/svg"
   xmlns:sodipodi="http://sodipodi.sourceforge.net/DTD/sodipodi-0.dtd"
   xmlns:inkscape="http://www.inkscape.org/namespaces/inkscape"
   width="24"
   height="24"
   viewBox="0 0 6.3499999 6.3499999"
   version="1.1"
   id="svg10908"
   inkscape:version="1.0.1 (3bc2e813f5, 2020-09-07)"
   sodipodi:docname="javascript-circle-outline.svg">
  <title
     id="title11486">javascript-circle-outline</title>
  <defs
     id="defs10902" />
  <sodipodi:namedview
     id="base"
     pagecolor="#ffffff"
     bordercolor="#666666"
     borderopacity="1.0"
     inkscape:pageopacity="0.0"
     inkscape:pageshadow="2"
     inkscape:zoom="22.4"
     inkscape:cx="11.239633"
     inkscape:cy="11.063399"
     inkscape:document-units="mm"
     inkscape:current-layer="layer1"
     inkscape:document-rotation="0"
     showgrid="false"
     units="px"
     inkscape:window-width="1140"
     inkscape:window-height="1368"
     inkscape:window-x="1411"
     inkscape:window-y="0"
     inkscape:window-maximized="0"
     inkscape:snap-center="true"
     inkscape:snap-object-midpoints="true"
     inkscape:snap-page="true"
     inkscape:snap-intersection-paths="true"
     inkscape:snap-smooth-nodes="false"
     showguides="true"
     inkscape:guide-bbox="true"
     inkscape:snap-bbox="true"
     inkscape:bbox-paths="true"
     inkscape:bbox-nodes="true"
     inkscape:snap-bbox-edge-midpoints="true"
     inkscape:snap-bbox-midpoints="true">
    <sodipodi:guide
       position="0,6.3499999"
       orientation="1,0"
       id="guide11518" />
  </sodipodi:namedview>
  <metadata
     id="metadata10905">
    <rdf:RDF>
      <cc:Work
         rdf:about="">
        <dc:format>image/svg+xml</dc:format>
        <dc:type
           rdf:resource="http://purl.org/dc/dcmitype/StillImage" />
        <dc:title>javascript-circle-outline</dc:title>
      </cc:Work>
    </rdf:RDF>
  </metadata>
  <g
     inkscape:label="Layer 1"
     inkscape:groupmode="layer"
     id="layer1"
     transform="translate(-109.4619,-112.48571)">
    <path
       id="circle-2-4-0-3-6-4"
       style="fill:#000000;fill-opacity:1;fill-rule:evenodd;stroke:none;stroke-width:0.0916501"
       d="m 112.6369,112.48571 a 3.175,3.1749997 0 0 0 -3.175,3.175 3.175,3.1749997 0 0 0 3.175,3.175 3.175,3.1749997 0 0 0 3.175,-3.175 3.175,3.1749997 0 0 0 -3.175,-3.175 z m -0.005,0.52917 a 2.6458332,2.6458332 0 0 1 0.005,0 2.6458332,2.6458332 0 0 1 2.64583,2.64583 2.6458332,2.6458332 0 0 1 -2.64583,2.64583 2.6458332,2.6458332 0 0 1 -2.64583,-2.64583 2.6458332,2.6458332 0 0 1 2.64066,-2.64583 z m 1.05213,2.43447 -0.12195,0.0155 c -0.1167,0.0294 -0.22781,0.091 -0.29301,0.17311 -0.19571,0.22202 -0.13994,0.61059 0.0982,0.7705 0.23454,0.17607 0.57921,0.21621 0.62321,0.38085 0.0428,0.20162 -0.14817,0.2666 -0.33796,0.2434 -0.13991,-0.0291 -0.21769,-0.10016 -0.30179,-0.22944 -0.15483,0.0896 -0.15507,0.0894 -0.31419,0.18086 0.0377,0.0825 0.0779,0.12022 0.14107,0.19172 0.29942,0.30372 1.04849,0.28866 1.18288,-0.17105 h -5.3e-4 c 0.006,-0.0157 0.0415,-0.12086 0.0124,-0.28318 -0.0302,-0.18855 -0.15305,-0.34682 -0.51728,-0.49455 -0.12654,-0.0581 -0.26745,-0.1 -0.30955,-0.19585 -0.014,-0.0558 -0.0164,-0.0871 -0.007,-0.12092 0.0271,-0.10935 0.15825,-0.14416 0.262,-0.11266 0.0668,0.0224 0.12985,0.074 0.16795,0.15606 0.17841,-0.11551 0.17827,-0.1149 0.30282,-0.1943 -0.0456,-0.0707 -0.0699,-0.10312 -0.0997,-0.13332 -0.10729,-0.11983 -0.2535,-0.18174 -0.48731,-0.17674 z m -1.24643,0.03 c 0,0.3302 -0.001,0.66284 -0.001,0.99684 0,0.21255 0.0114,0.40436 -0.0233,0.46406 -0.0566,0.1174 -0.20347,0.1029 -0.27027,0.0801 -0.0679,-0.0334 -0.10252,-0.0806 -0.14262,-0.1478 -0.011,-0.0193 -0.0187,-0.0346 -0.0217,-0.0357 l -0.31419,0.19276 c 0.0523,0.10727 0.12877,0.20046 0.22737,0.26097 0.14733,0.0885 0.34587,0.11528 0.55294,0.0677 0.13475,-0.0393 0.25071,-0.12064 0.31161,-0.24443 h -5.3e-4 c 0.0881,-0.16229 0.0695,-0.35581 0.0687,-0.57309 0.002,-0.35443 0,-0.69822 0,-1.06144 z" />
  </g>
</svg>
