<?xml version="1.0" encoding="UTF-8" standalone="no"?>
<svg
   xmlns:dc="http://purl.org/dc/elements/1.1/"
   xmlns:cc="http://creativecommons.org/ns#"
   xmlns:rdf="http://www.w3.org/1999/02/22-rdf-syntax-ns#"
   xmlns:svg="http://www.w3.org/2000/svg"
   xmlns="http://www.w3.org/2000/svg"
   xmlns:sodipodi="http://sodipodi.sourceforge.net/DTD/sodipodi-0.dtd"
   xmlns:inkscape="http://www.inkscape.org/namespaces/inkscape"
   width="24"
   height="24"
   viewBox="0 0 6.3499999 6.3499999"
   version="1.1"
   id="svg10908"
   inkscape:version="1.0.1 (3bc2e813f5, 2020-09-07)"
   sodipodi:docname="javascript-square-filled.svg">
  <title
     id="title11486">jjavascript-square-filled</title>
  <defs
     id="defs10902" />
  <sodipodi:namedview
     id="base"
     pagecolor="#ffffff"
     bordercolor="#666666"
     borderopacity="1.0"
     inkscape:pageopacity="0.0"
     inkscape:pageshadow="2"
     inkscape:zoom="22.4"
     inkscape:cx="11.239633"
     inkscape:cy="11.063399"
     inkscape:document-units="mm"
     inkscape:current-layer="layer1"
     inkscape:document-rotation="0"
     showgrid="false"
     units="px"
     inkscape:window-width="1140"
     inkscape:window-height="1368"
     inkscape:window-x="1411"
     inkscape:window-y="0"
     inkscape:window-maximized="0"
     inkscape:snap-center="true"
     inkscape:snap-object-midpoints="true"
     inkscape:snap-page="true"
     inkscape:snap-intersection-paths="true"
     inkscape:snap-smooth-nodes="false"
     showguides="true"
     inkscape:guide-bbox="true"
     inkscape:snap-bbox="true"
     inkscape:bbox-paths="true"
     inkscape:bbox-nodes="true"
     inkscape:snap-bbox-edge-midpoints="true"
     inkscape:snap-bbox-midpoints="true">
    <sodipodi:guide
       position="0,6.3499999"
       orientation="1,0"
       id="guide11518" />
  </sodipodi:namedview>
  <metadata
     id="metadata10905">
    <rdf:RDF>
      <cc:Work
         rdf:about="">
        <dc:format>image/svg+xml</dc:format>
        <dc:type
           rdf:resource="http://purl.org/dc/dcmitype/StillImage" />
        <dc:title>jjavascript-square-filled</dc:title>
      </cc:Work>
    </rdf:RDF>
  </metadata>
  <g
     inkscape:label="Layer 1"
     inkscape:groupmode="layer"
     id="layer1"
     transform="translate(-109.4619,-112.48571)">
    <path
       fill="#f0db4f"
       d="m 109.4619,112.48571 v 6.35 h 6.35 v -6.35 z m 3.35884,5.41086 c -0.0937,0.19045 -0.27264,0.31557 -0.47996,0.37597 -0.31856,0.0732 -0.62326,0.0315 -0.84993,-0.10459 -0.15169,-0.0931 -0.27015,-0.23633 -0.35057,-0.40137 l 0.48361,-0.29617 c 0.004,0.002 0.0169,0.0247 0.0339,0.0544 0.0617,0.10333 0.11486,0.17648 0.21941,0.22784 0.10272,0.0351 0.32822,0.0574 0.41529,-0.12329 0.0532,-0.0919 0.0363,-0.38751 0.0363,-0.71451 -5e-5,-0.51384 0.002,-1.02555 0.002,-1.53355 h 0.59482 c 0,0.5588 0.003,1.08804 0,1.63332 10e-4,0.33427 0.0303,0.63226 -0.10516,0.88194 z m 2.46756,-0.16804 c -0.20675,0.70724 -1.35951,0.7302 -1.82016,0.26294 -0.0973,-0.10998 -0.15835,-0.16744 -0.21641,-0.29439 0.24481,-0.14082 0.24481,-0.14082 0.48301,-0.27864 0.12938,0.19889 0.24902,0.30826 0.46426,0.35301 0.292,0.0357 0.58577,-0.0647 0.51988,-0.3748 -0.0677,-0.25329 -0.59791,-0.31491 -0.95874,-0.58578 -0.36632,-0.24602 -0.45217,-0.84384 -0.15113,-1.18541 0.10033,-0.12634 0.27142,-0.22063 0.45095,-0.26594 l 0.18735,-0.0242 c 0.35971,-0.007 0.58455,0.0877 0.7496,0.27204 0.0459,0.0465 0.0834,0.0967 0.15352,0.20549 -0.19162,0.12212 -0.19101,0.12095 -0.46548,0.29865 -0.0586,-0.12629 -0.1559,-0.20553 -0.25872,-0.23998 -0.15962,-0.0484 -0.36089,0.004 -0.40264,0.17287 -0.0145,0.052 -0.0115,0.10033 0.0115,0.18619 0.0647,0.14747 0.28168,0.21158 0.47635,0.30104 0.56037,0.22727 0.7496,0.47096 0.79614,0.76103 0.0448,0.24973 -0.0108,0.41174 -0.0193,0.43592 z"
       id="javascript-6"
       style="fill:#000000;fill-opacity:1;stroke-width:0.0508" />
  </g>
</svg>
