<?xml version="1.0" encoding="UTF-8" standalone="no"?>
<svg
   xmlns:dc="http://purl.org/dc/elements/1.1/"
   xmlns:cc="http://creativecommons.org/ns#"
   xmlns:rdf="http://www.w3.org/1999/02/22-rdf-syntax-ns#"
   xmlns:svg="http://www.w3.org/2000/svg"
   xmlns="http://www.w3.org/2000/svg"
   xmlns:sodipodi="http://sodipodi.sourceforge.net/DTD/sodipodi-0.dtd"
   xmlns:inkscape="http://www.inkscape.org/namespaces/inkscape"
   width="24"
   height="24"
   viewBox="0 0 6.3499999 6.3499999"
   version="1.1"
   id="svg10908"
   inkscape:version="1.0.1 (3bc2e813f5, 2020-09-07)"
   sodipodi:docname="javascript-complex.svg">
  <title
     id="title11486">javascript-complex</title>
  <defs
     id="defs10902" />
  <sodipodi:namedview
     id="base"
     pagecolor="#ffffff"
     bordercolor="#666666"
     borderopacity="1.0"
     inkscape:pageopacity="0.0"
     inkscape:pageshadow="2"
     inkscape:zoom="22.4"
     inkscape:cx="12.53886"
     inkscape:cy="5.7062559"
     inkscape:document-units="mm"
     inkscape:current-layer="layer1"
     inkscape:document-rotation="0"
     showgrid="false"
     units="px"
     inkscape:window-width="1140"
     inkscape:window-height="1368"
     inkscape:window-x="1411"
     inkscape:window-y="0"
     inkscape:window-maximized="0"
     inkscape:snap-center="true"
     inkscape:snap-object-midpoints="true"
     inkscape:snap-page="true"
     inkscape:snap-intersection-paths="true"
     inkscape:snap-smooth-nodes="false"
     showguides="true"
     inkscape:guide-bbox="true"
     inkscape:snap-bbox="true"
     inkscape:bbox-paths="true"
     inkscape:bbox-nodes="true"
     inkscape:snap-bbox-edge-midpoints="true"
     inkscape:snap-bbox-midpoints="true">
    <sodipodi:guide
       position="0,6.3499999"
       orientation="1,0"
       id="guide11518" />
  </sodipodi:namedview>
  <metadata
     id="metadata10905">
    <rdf:RDF>
      <cc:Work
         rdf:about="">
        <dc:format>image/svg+xml</dc:format>
        <dc:type
           rdf:resource="http://purl.org/dc/dcmitype/StillImage" />
        <dc:title>javascript-complex</dc:title>
      </cc:Work>
    </rdf:RDF>
  </metadata>
  <g
     inkscape:label="Layer 1"
     inkscape:groupmode="layer"
     id="layer1"
     transform="translate(-109.4619,-112.48571)">
    <g
       id="javascript-complex"
       transform="matrix(0.05072493,0,0,0.05072493,109.39048,112.41429)"
       style="fill:#205081">
      <path
         fill="#f0db4f"
         d="M 1.408,1.408 H 126.592 V 126.593 H 1.408 Z"
         id="path6941" />
      <path
         fill="#323330"
         d="m 116.347,96.736 c -0.917,-5.711 -4.641,-10.508 -15.672,-14.981 -3.832,-1.761 -8.104,-3.022 -9.377,-5.926 -0.452,-1.69 -0.512,-2.642 -0.226,-3.665 0.821,-3.32 4.784,-4.355 7.925,-3.403 2.023,0.678 3.938,2.237 5.093,4.724 5.402,-3.498 5.391,-3.475 9.163,-5.879 -1.381,-2.141 -2.118,-3.129 -3.022,-4.045 -3.249,-3.629 -7.676,-5.498 -14.756,-5.355 l -3.688,0.477 c -3.534,0.893 -6.902,2.748 -8.877,5.235 -5.926,6.724 -4.236,18.492 2.975,23.335 7.104,5.332 17.54,6.545 18.873,11.531 1.297,6.104 -4.486,8.08 -10.234,7.378 -4.236,-0.881 -6.592,-3.034 -9.139,-6.949 -4.688,2.713 -4.688,2.713 -9.508,5.485 1.143,2.499 2.344,3.63 4.26,5.795 9.068,9.198 31.76,8.746 35.83,-5.176 0.165,-0.478 1.261,-3.666 0.38,-8.581 z M 69.462,58.943 H 57.753 l -0.048,30.272 c 0,6.438 0.333,12.34 -0.714,14.149 -1.713,3.558 -6.152,3.117 -8.175,2.427 -2.059,-1.012 -3.106,-2.451 -4.319,-4.485 -0.333,-0.584 -0.583,-1.036 -0.667,-1.071 l -9.52,5.83 c 1.583,3.249 3.915,6.069 6.902,7.901 4.462,2.678 10.459,3.499 16.731,2.059 4.082,-1.189 7.604,-3.652 9.448,-7.401 2.666,-4.915 2.094,-10.864 2.07,-17.444 0.06,-10.735 0.001,-21.468 0.001,-32.237 z"
         id="path6943" />
    </g>
  </g>
</svg>
