<?xml version="1.0" encoding="UTF-8" standalone="no"?>
<svg
   xmlns:dc="http://purl.org/dc/elements/1.1/"
   xmlns:cc="http://creativecommons.org/ns#"
   xmlns:rdf="http://www.w3.org/1999/02/22-rdf-syntax-ns#"
   xmlns:svg="http://www.w3.org/2000/svg"
   xmlns="http://www.w3.org/2000/svg"
   xmlns:sodipodi="http://sodipodi.sourceforge.net/DTD/sodipodi-0.dtd"
   xmlns:inkscape="http://www.inkscape.org/namespaces/inkscape"
   width="24"
   height="24"
   viewBox="0 0 6.3499999 6.3499999"
   version="1.1"
   id="svg10908"
   inkscape:version="1.0.1 (3bc2e813f5, 2020-09-07)"
   sodipodi:docname="mongodb-plain.svg">
  <title
     id="title11486">mongodb-plain</title>
  <defs
     id="defs10902" />
  <sodipodi:namedview
     id="base"
     pagecolor="#ffffff"
     bordercolor="#666666"
     borderopacity="1.0"
     inkscape:pageopacity="0.0"
     inkscape:pageshadow="2"
     inkscape:zoom="22.4"
     inkscape:cx="12.53886"
     inkscape:cy="5.7062559"
     inkscape:document-units="mm"
     inkscape:current-layer="layer1"
     inkscape:document-rotation="0"
     showgrid="false"
     units="px"
     inkscape:window-width="1140"
     inkscape:window-height="1368"
     inkscape:window-x="1411"
     inkscape:window-y="0"
     inkscape:window-maximized="0"
     inkscape:snap-center="true"
     inkscape:snap-object-midpoints="true"
     inkscape:snap-page="true"
     inkscape:snap-intersection-paths="true"
     inkscape:snap-smooth-nodes="false"
     showguides="true"
     inkscape:guide-bbox="true"
     inkscape:snap-bbox="true"
     inkscape:bbox-paths="true"
     inkscape:bbox-nodes="true"
     inkscape:snap-bbox-edge-midpoints="true"
     inkscape:snap-bbox-midpoints="true">
    <sodipodi:guide
       position="0,6.3499999"
       orientation="1,0"
       id="guide11518" />
  </sodipodi:namedview>
  <metadata
     id="metadata10905">
    <rdf:RDF>
      <cc:Work
         rdf:about="">
        <dc:format>image/svg+xml</dc:format>
        <dc:type
           rdf:resource="http://purl.org/dc/dcmitype/StillImage" />
        <dc:title>mongodb-plain</dc:title>
      </cc:Work>
    </rdf:RDF>
  </metadata>
  <g
     inkscape:label="Layer 1"
     inkscape:groupmode="layer"
     id="layer1"
     transform="translate(-109.4619,-112.48571)">
    <path
       fill-rule="evenodd"
       clip-rule="evenodd"
       fill="#4faa41"
       d="m 114.05179,115.30195 c -0.0198,-0.25583 -0.0799,-0.50254 -0.16354,-0.74422 -0.17326,-0.53966 -0.45132,-1.01726 -0.84298,-1.4282 -0.099,-0.10394 -0.20916,-0.19917 -0.27822,-0.32853 -0.0437,-0.0818 -0.0853,-0.16477 -0.12786,-0.24724 l -0.027,-0.068 c -0.004,0.0156 -0.007,0.0212 -0.008,0.0268 -0.004,0.13443 -0.0796,0.22561 -0.17449,0.31069 -0.10666,0.0958 -0.20595,0.1997 -0.30845,0.30006 -0.10511,0.13823 -0.21017,0.27645 -0.31518,0.41463 -0.085,0.15622 -0.16995,0.31245 -0.25487,0.46868 l -0.17038,0.46023 -0.005,0.007 c -0.0938,0.30807 -0.14004,0.6248 -0.1628,0.94473 -0.008,0.12023 0.001,0.24222 0.008,0.36308 0.01,0.17279 0.0397,0.34263 0.0847,0.50981 0.16355,0.60738 0.49544,1.11121 0.94917,1.53924 0.0843,0.0795 0.17086,0.15185 0.25888,0.22753 0.0151,-0.0515 0.0271,-0.10309 0.0408,-0.15463 0.0137,-0.0513 0.0275,-0.10238 0.0367,-0.15387 -0.009,0.0515 -0.0197,0.10255 -0.03,0.15387 l -0.0441,0.15463 0.0394,0.13358 0.0365,0.20745 0.0174,0.21647 c -1.6e-4,0.0439 -0.002,0.088 7.4e-4,0.13192 6.6e-4,0.0112 0.0154,0.0216 0.0236,0.0324 l 0.0735,0.0258 0.0766,0.0298 -0.0131,-0.19244 -5.8e-4,-0.1895 0.0264,-0.28868 0.0192,-0.0629 0.0548,-0.0972 c 0.0677,-0.0545 0.14041,-0.10394 0.2021,-0.16456 0.11163,-0.10971 0.22299,-0.2208 0.32287,-0.34092 0.12963,-0.1558 0.24115,-0.32586 0.33067,-0.50826 0.0599,-0.12199 0.11632,-0.24644 0.163,-0.37393 0.0411,-0.11237 0.0666,-0.23046 0.099,-0.34604 0.003,-0.008 0.007,-0.0165 0.009,-0.025 0.067,-0.31197 0.0782,-0.6271 0.0536,-0.94441 z m -1.26043,2.63715 -0.043,-0.0942 0.043,0.0942 0.0632,0.054 z"
       id="mongodb"
       style="fill:#000000;fill-opacity:1;stroke-width:0.0534106" />
  </g>
</svg>
