<?xml version="1.0" encoding="UTF-8" standalone="no"?>
<svg
   xmlns:dc="http://purl.org/dc/elements/1.1/"
   xmlns:cc="http://creativecommons.org/ns#"
   xmlns:rdf="http://www.w3.org/1999/02/22-rdf-syntax-ns#"
   xmlns:svg="http://www.w3.org/2000/svg"
   xmlns="http://www.w3.org/2000/svg"
   xmlns:sodipodi="http://sodipodi.sourceforge.net/DTD/sodipodi-0.dtd"
   xmlns:inkscape="http://www.inkscape.org/namespaces/inkscape"
   width="24"
   height="24"
   viewBox="0 0 6.3499999 6.3499999"
   version="1.1"
   id="svg10908"
   inkscape:version="1.0.1 (3bc2e813f5, 2020-09-07)"
   sodipodi:docname="mongodb-circle-outline.svg">
  <title
     id="title11486">mongodb-circle-outline</title>
  <defs
     id="defs10902" />
  <sodipodi:namedview
     id="base"
     pagecolor="#ffffff"
     bordercolor="#666666"
     borderopacity="1.0"
     inkscape:pageopacity="0.0"
     inkscape:pageshadow="2"
     inkscape:zoom="22.4"
     inkscape:cx="11.865285"
     inkscape:cy="11.063399"
     inkscape:document-units="mm"
     inkscape:current-layer="layer1"
     inkscape:document-rotation="0"
     showgrid="false"
     units="px"
     inkscape:window-width="1140"
     inkscape:window-height="1368"
     inkscape:window-x="1411"
     inkscape:window-y="0"
     inkscape:window-maximized="0"
     inkscape:snap-center="true"
     inkscape:snap-object-midpoints="true"
     inkscape:snap-page="true"
     inkscape:snap-intersection-paths="true"
     inkscape:snap-smooth-nodes="false"
     showguides="true"
     inkscape:guide-bbox="true"
     inkscape:snap-bbox="true"
     inkscape:bbox-paths="true"
     inkscape:bbox-nodes="true"
     inkscape:snap-bbox-edge-midpoints="true"
     inkscape:snap-bbox-midpoints="true">
    <sodipodi:guide
       position="0,6.3499999"
       orientation="1,0"
       id="guide11518" />
  </sodipodi:namedview>
  <metadata
     id="metadata10905">
    <rdf:RDF>
      <cc:Work
         rdf:about="">
        <dc:format>image/svg+xml</dc:format>
        <dc:type
           rdf:resource="http://purl.org/dc/dcmitype/StillImage" />
        <dc:title>mongodb-circle-outline</dc:title>
      </cc:Work>
    </rdf:RDF>
  </metadata>
  <g
     inkscape:label="Layer 1"
     inkscape:groupmode="layer"
     id="layer1"
     transform="translate(-109.4619,-112.48571)">
    <path
       id="circle-2-4-0-0-0"
       style="fill:#000000;fill-opacity:1;fill-rule:evenodd;stroke:none;stroke-width:0.0916501"
       d="m 112.6369,112.48571 a 3.175,3.1749997 0 0 0 -3.175,3.175 3.175,3.1749997 0 0 0 3.175,3.175 3.175,3.1749997 0 0 0 3.175,-3.175 3.175,3.1749997 0 0 0 -3.175,-3.175 z m -0.005,0.52917 a 2.6458332,2.6458332 0 0 1 0.005,0 2.6458332,2.6458332 0 0 1 2.64583,2.64583 2.6458332,2.6458332 0 0 1 -2.64583,2.64583 2.6458332,2.6458332 0 0 1 -2.64583,-2.64583 2.6458332,2.6458332 0 0 1 2.64066,-2.64583 z m -0.0134,0.26458 c -0.003,0.0117 -0.005,0.016 -0.006,0.0202 -0.003,0.10081 -0.0601,0.16925 -0.13126,0.23306 -0.08,0.0719 -0.15411,0.14952 -0.23099,0.22479 -0.0788,0.10367 -0.15792,0.20748 -0.23668,0.3111 -0.0638,0.11718 -0.12751,0.23423 -0.1912,0.3514 l -0.12764,0.34519 -0.004,0.005 c -0.0703,0.23105 -0.10489,0.46855 -0.12196,0.70849 -0.006,0.0902 0.001,0.18169 0.006,0.27233 0.007,0.1296 0.0299,0.25703 0.0636,0.38241 0.12265,0.45554 0.37128,0.83343 0.71158,1.15445 0.0632,0.0596 0.12828,0.11376 0.1943,0.17053 0.0113,-0.0386 0.0202,-0.0771 0.0305,-0.11576 0.0102,-0.0385 0.0204,-0.0771 0.0274,-0.11575 -0.007,0.0386 -0.0145,0.0772 -0.0222,0.11575 l -0.0331,0.11576 0.0295,0.10025 0.0274,0.15555 0.0134,0.16226 c 0,0.0329 -10e-4,0.0663 5.3e-4,0.0992 5.3e-4,0.008 0.0114,0.0162 0.0176,0.0243 l 0.0548,0.0191 0.0579,0.0222 -0.0103,-0.14417 -5.3e-4,-0.14211 0.0202,-0.21653 0.0145,-0.047 0.0408,-0.0729 c 0.0508,-0.0409 0.10515,-0.078 0.15141,-0.12351 0.0837,-0.0823 0.16746,-0.1657 0.24237,-0.25579 0.0972,-0.11685 0.18091,-0.24457 0.24804,-0.38137 0.045,-0.0915 0.087,-0.18447 0.12196,-0.28009 0.0309,-0.0843 0.05,-0.17324 0.0744,-0.25993 0.002,-0.006 0.005,-0.0122 0.006,-0.0186 0.0502,-0.23398 0.0588,-0.47049 0.0403,-0.70848 l 5.3e-4,5.2e-4 c -0.0148,-0.19187 -0.0597,-0.37684 -0.12247,-0.5581 -0.12995,-0.40474 -0.33826,-0.76305 -0.63201,-1.07125 -0.0743,-0.078 -0.15698,-0.14896 -0.20877,-0.24598 -0.0328,-0.0614 -0.0642,-0.12368 -0.0961,-0.18552 z" />
  </g>
</svg>
