<?xml version="1.0" encoding="UTF-8" standalone="no"?>
<svg
   xmlns:dc="http://purl.org/dc/elements/1.1/"
   xmlns:cc="http://creativecommons.org/ns#"
   xmlns:rdf="http://www.w3.org/1999/02/22-rdf-syntax-ns#"
   xmlns:svg="http://www.w3.org/2000/svg"
   xmlns="http://www.w3.org/2000/svg"
   xmlns:sodipodi="http://sodipodi.sourceforge.net/DTD/sodipodi-0.dtd"
   xmlns:inkscape="http://www.inkscape.org/namespaces/inkscape"
   width="24"
   height="24"
   viewBox="0 0 6.3499999 6.3499999"
   version="1.1"
   id="svg10908"
   inkscape:version="1.0.1 (3bc2e813f5, 2020-09-07)"
   sodipodi:docname="mongodb-circle-filled.svg">
  <title
     id="title11486">mongodb-circle-filled</title>
  <defs
     id="defs10902" />
  <sodipodi:namedview
     id="base"
     pagecolor="#ffffff"
     bordercolor="#666666"
     borderopacity="1.0"
     inkscape:pageopacity="0.0"
     inkscape:pageshadow="2"
     inkscape:zoom="22.4"
     inkscape:cx="11.865285"
     inkscape:cy="11.063399"
     inkscape:document-units="mm"
     inkscape:current-layer="layer1"
     inkscape:document-rotation="0"
     showgrid="false"
     units="px"
     inkscape:window-width="1140"
     inkscape:window-height="1368"
     inkscape:window-x="1411"
     inkscape:window-y="0"
     inkscape:window-maximized="0"
     inkscape:snap-center="true"
     inkscape:snap-object-midpoints="true"
     inkscape:snap-page="true"
     inkscape:snap-intersection-paths="true"
     inkscape:snap-smooth-nodes="false"
     showguides="true"
     inkscape:guide-bbox="true"
     inkscape:snap-bbox="true"
     inkscape:bbox-paths="true"
     inkscape:bbox-nodes="true"
     inkscape:snap-bbox-edge-midpoints="true"
     inkscape:snap-bbox-midpoints="true">
    <sodipodi:guide
       position="0,6.3499999"
       orientation="1,0"
       id="guide11518" />
  </sodipodi:namedview>
  <metadata
     id="metadata10905">
    <rdf:RDF>
      <cc:Work
         rdf:about="">
        <dc:format>image/svg+xml</dc:format>
        <dc:type
           rdf:resource="http://purl.org/dc/dcmitype/StillImage" />
        <dc:title>mongodb-circle-filled</dc:title>
      </cc:Work>
    </rdf:RDF>
  </metadata>
  <g
     inkscape:label="Layer 1"
     inkscape:groupmode="layer"
     id="layer1"
     transform="translate(-109.4619,-112.48571)">
    <path
       id="circle-0-68"
       style="fill:#000000;fill-opacity:1;fill-rule:evenodd;stroke:none;stroke-width:0.0916501"
       d="m 112.6369,112.48571 a 3.175,3.1749997 0 0 0 -3.175,3.175 3.175,3.1749997 0 0 0 3.175,3.175 3.175,3.1749997 0 0 0 3.175,-3.175 3.175,3.1749997 0 0 0 -3.175,-3.175 z m -0.0186,0.79375 0.0202,0.0512 c 0.0319,0.0618 0.0633,0.12412 0.0961,0.18552 0.0518,0.097 0.13447,0.16798 0.20877,0.24598 0.29375,0.3082 0.50206,0.66651 0.63201,1.07125 0.0627,0.18126 0.10818,0.36623 0.12298,0.55811 l -10e-4,-5.3e-4 c 0.0185,0.23799 0.01,0.4745 -0.0403,0.70848 -0.001,0.006 -0.004,0.0126 -0.006,0.0186 -0.0244,0.0867 -0.0435,0.17563 -0.0744,0.25993 -0.0349,0.0956 -0.0769,0.18859 -0.12195,0.28009 -0.0671,0.1368 -0.15085,0.26452 -0.24805,0.38137 -0.0749,0.0901 -0.15866,0.1735 -0.24236,0.2558 -0.0463,0.0455 -0.10061,0.0826 -0.15141,0.1235 l -0.0408,0.0729 -0.0145,0.047 -0.0202,0.21653 5.3e-4,0.14211 0.0103,0.14418 -0.0574,-0.0222 -0.0553,-0.0191 c -0.006,-0.008 -0.0171,-0.0163 -0.0176,-0.0243 -0.002,-0.0329 -5.3e-4,-0.0663 -5.3e-4,-0.0992 l -0.0134,-0.16226 -0.0274,-0.15555 -0.0294,-0.10025 0.0331,-0.11575 c 0.008,-0.0385 0.0157,-0.0772 0.0227,-0.11576 -0.007,0.0386 -0.0177,0.0773 -0.0279,0.11576 -0.0103,0.0387 -0.0192,0.0772 -0.0305,0.11575 -0.066,-0.0568 -0.13111,-0.11093 -0.19431,-0.17053 -0.3403,-0.32102 -0.58893,-0.69891 -0.71158,-1.15445 -0.0337,-0.12538 -0.0566,-0.25281 -0.0636,-0.38241 -0.005,-0.0906 -0.0122,-0.18213 -0.006,-0.27233 0.0171,-0.23994 0.0517,-0.47744 0.12195,-0.70849 l 0.004,-0.005 0.12764,-0.3452 c 0.0637,-0.11717 0.1274,-0.23422 0.1912,-0.3514 0.0788,-0.10362 0.15788,-0.20743 0.23668,-0.31109 0.0769,-0.0753 0.151,-0.1529 0.231,-0.2248 0.0712,-0.0638 0.12825,-0.13225 0.13125,-0.23306 0.001,-0.004 0.003,-0.008 0.006,-0.0202 z" />
  </g>
</svg>
