<?xml version="1.0" encoding="UTF-8" standalone="no"?>
<svg
   xmlns:dc="http://purl.org/dc/elements/1.1/"
   xmlns:cc="http://creativecommons.org/ns#"
   xmlns:rdf="http://www.w3.org/1999/02/22-rdf-syntax-ns#"
   xmlns:svg="http://www.w3.org/2000/svg"
   xmlns="http://www.w3.org/2000/svg"
   xmlns:sodipodi="http://sodipodi.sourceforge.net/DTD/sodipodi-0.dtd"
   xmlns:inkscape="http://www.inkscape.org/namespaces/inkscape"
   width="24"
   height="24"
   viewBox="0 0 6.3499999 6.3499999"
   version="1.1"
   id="svg10908"
   inkscape:version="1.0.1 (3bc2e813f5, 2020-09-07)"
   sodipodi:docname="nodejs-complex.svg">
  <title
     id="title11486">nodejs-complex</title>
  <defs
     id="defs10902" />
  <sodipodi:namedview
     id="base"
     pagecolor="#ffffff"
     bordercolor="#666666"
     borderopacity="1.0"
     inkscape:pageopacity="0.0"
     inkscape:pageshadow="2"
     inkscape:zoom="22.4"
     inkscape:cx="12.53886"
     inkscape:cy="5.7062559"
     inkscape:document-units="mm"
     inkscape:current-layer="layer1"
     inkscape:document-rotation="0"
     showgrid="false"
     units="px"
     inkscape:window-width="1140"
     inkscape:window-height="1368"
     inkscape:window-x="1411"
     inkscape:window-y="0"
     inkscape:window-maximized="0"
     inkscape:snap-center="true"
     inkscape:snap-object-midpoints="true"
     inkscape:snap-page="true"
     inkscape:snap-intersection-paths="true"
     inkscape:snap-smooth-nodes="false"
     showguides="true"
     inkscape:guide-bbox="true"
     inkscape:snap-bbox="true"
     inkscape:bbox-paths="true"
     inkscape:bbox-nodes="true"
     inkscape:snap-bbox-edge-midpoints="true"
     inkscape:snap-bbox-midpoints="true">
    <sodipodi:guide
       position="0,6.3499999"
       orientation="1,0"
       id="guide11518" />
  </sodipodi:namedview>
  <metadata
     id="metadata10905">
    <rdf:RDF>
      <cc:Work
         rdf:about="">
        <dc:format>image/svg+xml</dc:format>
        <dc:type
           rdf:resource="http://purl.org/dc/dcmitype/StillImage" />
        <dc:title>nodejs-complex</dc:title>
      </cc:Work>
    </rdf:RDF>
  </metadata>
  <g
     inkscape:label="Layer 1"
     inkscape:groupmode="layer"
     id="layer1"
     transform="translate(-109.4619,-112.48571)">
    <path
       fill="#83cd29"
       d="m 115.22433,113.89303 -2.31572,-1.34463 c -0.14605,-0.0832 -0.3362,-0.0832 -0.4834,0 l -2.34046,1.34463 c -0.15072,0.0867 -0.25737,0.24966 -0.25737,0.42395 v 2.68569 c 0,0.1743 0.10944,0.3373 0.26015,0.42448 l 0.61836,0.35121 c 0.29555,0.14557 0.4,0.14557 0.53449,0.14557 0.4376,0 0.68757,-0.26462 0.68757,-0.72617 v -2.65145 c 0,-0.0374 -0.0195,-0.0932 -0.0562,-0.0932 h -0.29529 c -0.0374,0 -0.1211,0.0557 -0.1211,0.0931 v 2.65145 c 0,0.2046 -0.18506,0.4082 -0.53092,0.23527 l -0.63894,-0.36829 c -0.0223,-0.0121 -0.038,-0.0364 -0.038,-0.062 v -2.68569 c 0,-0.0253 0.0292,-0.0507 0.0516,-0.0637 l 2.3329,-1.34232 c 0.0218,-0.0123 0.0538,-0.0123 0.0756,0 l 2.30444,1.34201 c 0.0221,0.0133 0.0143,0.0379 0.0143,0.064 v 2.68569 c 0,0.0256 0.01,0.0506 -0.0122,0.0629 l -2.31515,1.3431 c -0.0199,0.0119 -0.0445,0.0119 -0.0662,0 l -0.59378,-0.35441 c -0.0179,-0.0104 -0.0392,-0.0141 -0.0563,-0.005 -0.16521,0.0936 -0.19567,0.10608 -0.35064,0.1598 -0.0381,0.0133 -0.0944,0.0363 0.0215,0.1013 l 0.77711,0.45971 c 0.0744,0.0431 0.15896,0.0654 0.24403,0.0654 0.0862,0 0.17067,-0.0224 0.24509,-0.0654 l 2.30459,-1.34342 c 0.15072,-0.0878 0.22214,-0.25018 0.22214,-0.42448 v -2.68569 c 0,-0.17429 -0.0714,-0.33683 -0.22209,-0.42395 z m -1.8307,2.68407 c -0.61579,0 -0.75143,-0.16989 -0.79665,-0.4761 -0.005,-0.033 -0.0332,-0.0724 -0.0668,-0.0724 h -0.30097 c -0.0372,0 -0.0672,0.0452 -0.0672,0.0822 0,0.39207 0.21316,0.86712 1.23163,0.86712 0.73724,0 1.15993,-0.28647 1.15993,-0.79344 0,-0.50267 -0.33961,-0.63459 -1.05459,-0.72922 -0.7227,-0.0955 -0.79612,-0.14378 -0.79612,-0.31309 0,-0.13958 0.0622,-0.32574 0.5973,-0.32574 0.47814,0 0.65438,0.10261 0.7269,0.42489 0.006,0.0303 0.0339,0.052 0.0651,0.052 h 0.30217 c 0.0186,0 0.0363,-0.007 0.0494,-0.0208 0.0126,-0.0143 0.0193,-0.0322 0.0176,-0.0514 -0.0468,-0.55497 -0.41549,-0.8136 -1.1612,-0.8136 -0.66331,0 -1.059,0.28011 -1.059,0.74964 0,0.50929 0.3937,0.65003 1.03044,0.71299 0.76172,0.0747 0.82095,0.18601 0.82095,0.33583 0,0.26021 -0.2089,0.37107 -0.69891,0.37107 z"
       id="nodejs-complex"
       style="stroke-width:0.0525142" />
  </g>
</svg>
