<?xml version="1.0" encoding="UTF-8" standalone="no"?>
<svg
   xmlns:dc="http://purl.org/dc/elements/1.1/"
   xmlns:cc="http://creativecommons.org/ns#"
   xmlns:rdf="http://www.w3.org/1999/02/22-rdf-syntax-ns#"
   xmlns:svg="http://www.w3.org/2000/svg"
   xmlns="http://www.w3.org/2000/svg"
   xmlns:sodipodi="http://sodipodi.sourceforge.net/DTD/sodipodi-0.dtd"
   xmlns:inkscape="http://www.inkscape.org/namespaces/inkscape"
   width="24"
   height="24"
   viewBox="0 0 6.3499999 6.3499999"
   version="1.1"
   id="svg10908"
   inkscape:version="1.0.1 (3bc2e813f5, 2020-09-07)"
   sodipodi:docname="nodejs-roundedsquare-outline.svg">
  <title
     id="title11486">nodejs-roundedsquare-outline</title>
  <defs
     id="defs10902" />
  <sodipodi:namedview
     id="base"
     pagecolor="#ffffff"
     bordercolor="#666666"
     borderopacity="1.0"
     inkscape:pageopacity="0.0"
     inkscape:pageshadow="2"
     inkscape:zoom="22.4"
     inkscape:cx="11.865285"
     inkscape:cy="11.063399"
     inkscape:document-units="mm"
     inkscape:current-layer="layer1"
     inkscape:document-rotation="0"
     showgrid="false"
     units="px"
     inkscape:window-width="1140"
     inkscape:window-height="1368"
     inkscape:window-x="1411"
     inkscape:window-y="0"
     inkscape:window-maximized="0"
     inkscape:snap-center="true"
     inkscape:snap-object-midpoints="true"
     inkscape:snap-page="true"
     inkscape:snap-intersection-paths="true"
     inkscape:snap-smooth-nodes="false"
     showguides="true"
     inkscape:guide-bbox="true"
     inkscape:snap-bbox="true"
     inkscape:bbox-paths="true"
     inkscape:bbox-nodes="true"
     inkscape:snap-bbox-edge-midpoints="true"
     inkscape:snap-bbox-midpoints="true">
    <sodipodi:guide
       position="0,6.3499999"
       orientation="1,0"
       id="guide11518" />
  </sodipodi:namedview>
  <metadata
     id="metadata10905">
    <rdf:RDF>
      <cc:Work
         rdf:about="">
        <dc:format>image/svg+xml</dc:format>
        <dc:type
           rdf:resource="http://purl.org/dc/dcmitype/StillImage" />
        <dc:title>nodejs-roundedsquare-outline</dc:title>
      </cc:Work>
    </rdf:RDF>
  </metadata>
  <g
     inkscape:label="Layer 1"
     inkscape:groupmode="layer"
     id="layer1"
     transform="translate(-109.4619,-112.48571)">
    <path
       id="roundedsquare-outline-2-2-3-6-8"
       style="fill:#000000;fill-opacity:1;fill-rule:evenodd;stroke:none;stroke-width:0.529071;stroke-linejoin:round;stroke-miterlimit:4;stroke-dasharray:none;stroke-opacity:1"
       d="m 110.32851,112.48571 c -0.47997,0 -0.86661,0.38664 -0.86661,0.86661 v 4.61678 c 0,0.47998 0.38664,0.86661 0.86661,0.86661 h 4.61678 c 0.47997,0 0.86661,-0.38663 0.86661,-0.86661 v -4.61678 c 0,-0.47997 -0.38664,-0.86661 -0.86661,-0.86661 z m 0.19172,0.52917 h 4.23334 c 0.29316,0 0.52916,0.236 0.52916,0.52916 v 4.23334 c 0,0.29316 -0.236,0.52916 -0.52916,0.52916 h -4.23334 c -0.29316,0 -0.52916,-0.236 -0.52916,-0.52916 v -4.23334 c 0,-0.29316 0.236,-0.52916 0.52916,-0.52916 z m 2.13372,0.26458 c -0.0634,0 -0.1267,0.0159 -0.1819,0.047 l -1.75234,1.00821 c -0.11299,0.065 -0.18966,0.1876 -0.18966,0.31833 v 2.01435 c 0,0.13072 0.0787,0.25295 0.19172,0.31832 l 0.46147,0.26304 c 0.22163,0.10929 0.28313,0.10955 0.38396,0.10955 0.32825,0 0.49868,-0.1985 0.49868,-0.54467 v -1.98851 c 5e-5,-0.0281 0.0178,-0.0703 -0.01,-0.0703 h -0.22118 c -0.028,0 -0.0837,0.0418 -0.0837,0.0698 v 1.98903 c 0,0.15344 -0.14264,0.30592 -0.40204,0.17622 l -0.4775,-0.27647 c -0.0166,-0.009 -0.0263,-0.0268 -0.0263,-0.046 v -2.01435 c 0,-0.019 0.0182,-0.0383 0.0351,-0.0481 l 1.7477,-1.00666 c 0.0163,-0.009 0.0396,-0.009 0.0558,0 l 1.73168,1.00666 c 0.0166,0.01 0.0134,0.0284 0.0134,0.0481 v 2.01383 c 0,0.0192 0.004,0.0382 -0.0124,0.0475 l -1.7384,1.00718 c -0.0149,0.009 -0.0343,0.009 -0.0506,0 l -0.44545,-0.26562 c -0.0134,-0.008 -0.0295,-0.0107 -0.0424,-0.004 -0.12387,0.0702 -0.14736,0.0796 -0.26354,0.11989 -0.0286,0.01 -0.0705,0.0272 0.0165,0.076 l 0.58239,0.34468 c 0.0558,0.0323 0.11967,0.0491 0.18346,0.0491 0.0647,0 0.12764,-0.0168 0.18345,-0.0491 l 1.73219,-1.00769 c 0.11307,-0.0659 0.17002,-0.18761 0.17002,-0.31833 v -2.01435 c -4e-5,-0.13074 -0.057,-0.25247 -0.17002,-0.31781 v 5.3e-4 l -1.73891,-1.00823 c -0.0548,-0.0312 -0.11803,-0.047 -0.18139,-0.047 z m 0.47336,1.44126 c -0.49753,0 -0.79427,0.21008 -0.79427,0.56224 0,0.38196 0.29552,0.48762 0.77308,0.53485 0.5713,0.056 0.61547,0.1393 0.61547,0.25166 0,0.1952 -0.15652,0.27854 -0.524,0.27854 -0.46187,0 -0.56346,-0.12742 -0.59738,-0.35709 -0.004,-0.0248 -0.025,-0.0543 -0.0501,-0.0543 h -0.22582 c -0.0279,0 -0.0506,0.0337 -0.0506,0.0615 0,0.29406 0.16012,0.6506 0.92398,0.6506 0.5529,0 0.86971,-0.21507 0.86971,-0.59531 0,-0.377 -0.25442,-0.47577 -0.79065,-0.54674 -0.54204,-0.0716 -0.59737,-0.10814 -0.59737,-0.23512 0,-0.10468 0.0466,-0.24392 0.44803,-0.24392 0.35858,0 0.49079,0.0767 0.54519,0.31833 0.005,0.0227 0.0256,0.0393 0.0491,0.0393 h 0.22634 c 0.0139,0 0.0274,-0.006 0.0372,-0.0155 0.01,-0.0107 0.0142,-0.0244 0.0129,-0.0388 -0.0352,-0.41627 -0.31152,-0.6103 -0.87075,-0.6103 z" />
  </g>
</svg>
