<?xml version="1.0" encoding="UTF-8" standalone="no"?>
<svg
   xmlns:dc="http://purl.org/dc/elements/1.1/"
   xmlns:cc="http://creativecommons.org/ns#"
   xmlns:rdf="http://www.w3.org/1999/02/22-rdf-syntax-ns#"
   xmlns:svg="http://www.w3.org/2000/svg"
   xmlns="http://www.w3.org/2000/svg"
   xmlns:sodipodi="http://sodipodi.sourceforge.net/DTD/sodipodi-0.dtd"
   xmlns:inkscape="http://www.inkscape.org/namespaces/inkscape"
   width="24"
   height="24"
   viewBox="0 0 6.3499999 6.3499999"
   version="1.1"
   id="svg10908"
   inkscape:version="1.0.1 (3bc2e813f5, 2020-09-07)"
   sodipodi:docname="cplusplus-roundedsquare-filled.svg">
  <title
     id="title11486">cplusplus-roundedsquare-filled</title>
  <defs
     id="defs10902" />
  <sodipodi:namedview
     id="base"
     pagecolor="#ffffff"
     bordercolor="#666666"
     borderopacity="1.0"
     inkscape:pageopacity="0.0"
     inkscape:pageshadow="2"
     inkscape:zoom="22.4"
     inkscape:cx="11.239633"
     inkscape:cy="11.063399"
     inkscape:document-units="mm"
     inkscape:current-layer="layer1"
     inkscape:document-rotation="0"
     showgrid="false"
     units="px"
     inkscape:window-width="1140"
     inkscape:window-height="1368"
     inkscape:window-x="1411"
     inkscape:window-y="0"
     inkscape:window-maximized="0"
     inkscape:snap-center="true"
     inkscape:snap-object-midpoints="true"
     inkscape:snap-page="true"
     inkscape:snap-intersection-paths="true"
     inkscape:snap-smooth-nodes="false"
     showguides="true"
     inkscape:guide-bbox="true"
     inkscape:snap-bbox="true"
     inkscape:bbox-paths="true"
     inkscape:bbox-nodes="true"
     inkscape:snap-bbox-edge-midpoints="true"
     inkscape:snap-bbox-midpoints="true">
    <sodipodi:guide
       position="0,6.3499999"
       orientation="1,0"
       id="guide11518" />
  </sodipodi:namedview>
  <metadata
     id="metadata10905">
    <rdf:RDF>
      <cc:Work
         rdf:about="">
        <dc:format>image/svg+xml</dc:format>
        <dc:type
           rdf:resource="http://purl.org/dc/dcmitype/StillImage" />
        <dc:title>cplusplus-roundedsquare-filled</dc:title>
      </cc:Work>
    </rdf:RDF>
  </metadata>
  <g
     inkscape:label="Layer 1"
     inkscape:groupmode="layer"
     id="layer1"
     transform="translate(-109.4619,-112.48571)">
    <path
       id="roundedsquare-7"
       style="fill:#000000;fill-opacity:1;fill-rule:evenodd;stroke:none;stroke-width:0.0694534"
       d="m 109.99107,112.48571 c -0.29316,0 -0.52917,0.23601 -0.52917,0.52917 v 5.29166 c 0,0.29316 0.23601,0.52917 0.52917,0.52917 h 5.29166 c 0.29316,0 0.52917,-0.23601 0.52917,-0.52917 v -5.29166 c 0,-0.29316 -0.23601,-0.52917 -0.52917,-0.52917 z m 2.64738,0.80977 c 0.0458,0 0.0877,0.008 0.11834,0.0269 l 1.84691,1.06299 c 0.0344,0.0191 0.0691,0.0572 0.092,0.0992 l -0.0114,0.008 h -5.3e-4 c 0.0153,0.0344 0.0195,0.0691 0.0155,0.0997 v 2.13372 c 0,0.0727 -0.0461,0.16795 -0.11111,0.20619 l -1.83554,1.06712 c -0.0306,0.0153 -0.0724,0.0269 -0.11834,0.0269 -0.0458,0 -0.0883,-0.008 -0.11886,-0.0269 l -1.8433,-1.06712 c -0.0268,-0.0153 -0.0532,-0.0418 -0.0723,-0.0723 l 0.008,-0.004 c -0.0264,-0.0421 -0.0341,-0.0876 -0.0341,-0.12971 v -2.1301 c 0,-0.0727 0.0456,-0.16847 0.11059,-0.20671 l 1.83555,-1.0666 c 0.0305,-0.0153 0.0729,-0.0269 0.11885,-0.0269 z m 0,0.85266 c -0.83363,0 -1.5105,0.67686 -1.5105,1.5105 0,0.83364 0.67687,1.5105 1.5105,1.5105 0.55831,0 1.04739,-0.30582 1.30742,-0.75706 l -0.493,-0.29042 c -0.16061,0.28298 -0.46643,0.47388 -0.81442,0.47388 -0.51624,0 -0.93689,-0.42065 -0.93689,-0.9369 0,-0.51624 0.42065,-0.93689 0.93689,-0.93689 0.34799,0 0.65381,0.1912 0.81442,0.47801 l 0.49713,-0.28681 c -0.26003,-0.45506 -0.74941,-0.76481 -1.31155,-0.76481 z m 0.87953,1.24282 v 0.1912 h -0.1912 v 0.15296 h 0.1912 v 0.19121 h 0.1912 v -0.19121 h 0.19121 v -0.15296 h -0.19121 v -0.1912 z m 0.72657,0 v 0.1912 h -0.22944 v 0.15296 h 0.22944 v 0.19121 h 0.15297 v -0.19121 h 0.1912 v -0.15296 h -0.1912 v -0.1912 z" />
  </g>
</svg>
