<?xml version="1.0" encoding="UTF-8" standalone="no"?>
<svg
   xmlns:dc="http://purl.org/dc/elements/1.1/"
   xmlns:cc="http://creativecommons.org/ns#"
   xmlns:rdf="http://www.w3.org/1999/02/22-rdf-syntax-ns#"
   xmlns:svg="http://www.w3.org/2000/svg"
   xmlns="http://www.w3.org/2000/svg"
   xmlns:sodipodi="http://sodipodi.sourceforge.net/DTD/sodipodi-0.dtd"
   xmlns:inkscape="http://www.inkscape.org/namespaces/inkscape"
   width="24"
   height="24"
   viewBox="0 0 6.3499999 6.3499999"
   version="1.1"
   id="svg10908"
   inkscape:version="1.0.1 (3bc2e813f5, 2020-09-07)"
   sodipodi:docname="react-square-filled.svg">
  <title
     id="title11486">react-square-filled</title>
  <defs
     id="defs10902" />
  <sodipodi:namedview
     id="base"
     pagecolor="#ffffff"
     bordercolor="#666666"
     borderopacity="1.0"
     inkscape:pageopacity="0.0"
     inkscape:pageshadow="2"
     inkscape:zoom="22.4"
     inkscape:cx="11.865285"
     inkscape:cy="11.063399"
     inkscape:document-units="mm"
     inkscape:current-layer="layer1"
     inkscape:document-rotation="0"
     showgrid="false"
     units="px"
     inkscape:window-width="1140"
     inkscape:window-height="1368"
     inkscape:window-x="1411"
     inkscape:window-y="0"
     inkscape:window-maximized="0"
     inkscape:snap-center="true"
     inkscape:snap-object-midpoints="true"
     inkscape:snap-page="true"
     inkscape:snap-intersection-paths="true"
     inkscape:snap-smooth-nodes="false"
     showguides="true"
     inkscape:guide-bbox="true"
     inkscape:snap-bbox="true"
     inkscape:bbox-paths="true"
     inkscape:bbox-nodes="true"
     inkscape:snap-bbox-edge-midpoints="true"
     inkscape:snap-bbox-midpoints="true">
    <sodipodi:guide
       position="0,6.3499999"
       orientation="1,0"
       id="guide11518" />
  </sodipodi:namedview>
  <metadata
     id="metadata10905">
    <rdf:RDF>
      <cc:Work
         rdf:about="">
        <dc:format>image/svg+xml</dc:format>
        <dc:type
           rdf:resource="http://purl.org/dc/dcmitype/StillImage" />
        <dc:title>react-square-filled</dc:title>
      </cc:Work>
    </rdf:RDF>
  </metadata>
  <g
     inkscape:label="Layer 1"
     inkscape:groupmode="layer"
     id="layer1"
     transform="translate(-109.4619,-112.48571)">
    <path
       id="square-4-0"
       style="fill:#000000;fill-opacity:1;fill-rule:evenodd;stroke:none;stroke-width:0.0694534"
       d="m 109.4619,112.48571 v 6.35 h 6.35 v -6.35 z m 2.22777,1.04851 c 0.26627,0 0.60488,0.19771 0.94723,0.52865 0.34235,-0.33094 0.68095,-0.52865 0.94723,-0.52865 0.0913,0 0.1711,0.0191 0.2434,0.061 0.24306,0.13694 0.33104,0.49059 0.25115,0.99271 -0.0153,0.0875 -0.0346,0.17896 -0.0574,0.27026 0.0913,0.0266 0.17882,0.0568 0.26252,0.0873 0.47549,0.18259 0.73432,0.4337 0.73432,0.7152 0,0.28149 -0.25883,0.53262 -0.73432,0.7152 -0.0837,0.0343 -0.17122,0.0607 -0.26252,0.0873 0.0229,0.0913 0.0422,0.18277 0.0574,0.27027 0.0799,0.49831 -0.008,0.85195 -0.25115,0.99271 -0.0723,0.0419 -0.1521,0.061 -0.2434,0.061 -0.26628,0 -0.60488,-0.19772 -0.94723,-0.52865 -0.33855,0.33093 -0.67715,0.52865 -0.94723,0.52865 -0.0913,0 -0.17109,-0.0191 -0.24339,-0.061 -0.24306,-0.13696 -0.33105,-0.49059 -0.25115,-0.99271 0.0153,-0.0875 0.0346,-0.17897 0.0574,-0.27027 -0.0913,-0.0266 -0.17881,-0.0568 -0.26252,-0.0873 -0.47168,-0.18258 -0.73432,-0.43371 -0.73432,-0.7152 0,-0.2815 0.25883,-0.53261 0.73432,-0.7152 0.0837,-0.0343 0.17122,-0.0607 0.26252,-0.0873 -0.0229,-0.0913 -0.0422,-0.18276 -0.0574,-0.27026 -0.0799,-0.49831 0.008,-0.85197 0.25115,-0.99271 0.0723,-0.0419 0.15209,-0.061 0.24339,-0.061 z m -0.004,0.21704 c -0.0494,0 -0.0953,0.0113 -0.13333,0.0341 -0.15595,0.0913 -0.20939,0.37264 -0.14469,0.77205 0.0153,0.0799 0.0304,0.16364 0.0532,0.25115 0.19781,-0.0419 0.40723,-0.0761 0.62786,-0.0951 0.12933,-0.18259 0.26271,-0.34999 0.39585,-0.49454 -0.28529,-0.28149 -0.57068,-0.46768 -0.79892,-0.46768 z m 1.90169,0 c -0.23203,0 -0.51743,0.18998 -0.79892,0.46768 0.13314,0.14836 0.26652,0.31195 0.39584,0.49454 0.22063,0.019 0.42955,0.0494 0.62736,0.0951 0.0229,-0.0875 0.0423,-0.17125 0.0537,-0.25115 0.0647,-0.39941 0.0113,-0.68075 -0.14469,-0.77205 -0.038,-0.0228 -0.0839,-0.0341 -0.13333,-0.0341 z m -0.95046,0.62374 c -0.0913,0.0989 -0.17881,0.20542 -0.26251,0.31574 0.0875,-0.004 0.17501,-0.008 0.26251,-0.008 0.0875,0 0.17502,0.004 0.26252,0.008 -0.0837,-0.11032 -0.17122,-0.21684 -0.26252,-0.31574 z m 0.004,0.52503 c -0.14455,0 -0.28508,0.004 -0.42582,0.015 -0.0837,0.12173 -0.16352,0.24362 -0.23202,0.36535 -0.0723,0.12552 -0.14064,0.2548 -0.20154,0.38034 0.0609,0.12552 0.12924,0.25482 0.20154,0.38034 0.0685,0.12173 0.14471,0.24362 0.22841,0.36535 0.13694,0.0112 0.27746,0.015 0.42581,0.015 0.14455,0 0.28506,-0.004 0.42582,-0.015 0.0837,-0.12173 0.16352,-0.24362 0.23202,-0.36535 0.0723,-0.12933 0.13735,-0.25482 0.20206,-0.38034 -0.0609,-0.12554 -0.12976,-0.25482 -0.20206,-0.38034 -0.0685,-0.12173 -0.14419,-0.24362 -0.22789,-0.36535 -0.13694,-0.0112 -0.27798,-0.015 -0.42633,-0.015 z m -0.71107,0.0419 c -0.14455,0.0191 -0.2815,0.0419 -0.41083,0.0724 0.0418,0.12933 0.0876,0.25856 0.1447,0.3917 0.0418,-0.0761 0.0836,-0.15626 0.12919,-0.23616 0.0418,-0.0799 0.0912,-0.15559 0.13694,-0.22789 z m 1.4149,0.004 0.13694,0.22841 c 0.0456,0.0761 0.0874,0.15575 0.12919,0.23565 0.0571,-0.13312 0.1029,-0.26618 0.1447,-0.39171 -0.12933,-0.0305 -0.26628,-0.0534 -0.41083,-0.0724 z m 0.62012,0.12196 c -0.0571,0.1902 -0.13711,0.38802 -0.22841,0.58963 0.0913,0.20161 0.16751,0.40304 0.22841,0.59324 0.0837,-0.0228 0.16729,-0.0496 0.24339,-0.0801 0.37659,-0.14074 0.59738,-0.33076 0.59738,-0.50953 0,-0.21301 -0.31583,-0.44108 -0.84077,-0.59324 z m -2.65514,0.004 c -0.0837,0.0228 -0.16729,0.0496 -0.24339,0.0801 -0.38039,0.14074 -0.59738,0.33074 -0.59738,0.50953 0,0.21301 0.31583,0.44109 0.84077,0.59325 0.0571,-0.1902 0.13711,-0.38803 0.22841,-0.58963 -0.0913,-0.20161 -0.16751,-0.40305 -0.22841,-0.59325 z m 1.32719,0.15525 a 0.4336461,0.4336461 0 0 1 0.43357,0.43357 0.4336461,0.4336461 0 0 1 -0.43357,0.43356 0.4336461,0.4336461 0 0 1 -0.43356,-0.43356 0.4336461,0.4336461 0 0 1 0.43356,-0.43357 z m -0.97358,0.68472 c -0.0571,0.13314 -0.1029,0.26618 -0.1447,0.3917 0.12933,0.0305 0.26628,0.0533 0.41083,0.0724 -0.0456,-0.0761 -0.0912,-0.14833 -0.13694,-0.23203 -0.0456,-0.0761 -0.0874,-0.15592 -0.12919,-0.23202 z m 1.94717,0.004 c -0.0418,0.0761 -0.0836,0.15626 -0.12919,0.23616 -0.0418,0.0799 -0.0913,0.1556 -0.13695,0.2279 0.14455,-0.0191 0.2815,-0.0418 0.41083,-0.0724 -0.0418,-0.12933 -0.0876,-0.25857 -0.14469,-0.39171 z m -2.14871,0.59738 c -0.0229,0.0875 -0.0423,0.17125 -0.0537,0.25115 -0.0647,0.3994 -0.0113,0.68074 0.14469,0.77204 0.038,0.0228 0.0839,0.0341 0.13333,0.0341 0.23204,0 0.51742,-0.18998 0.79891,-0.46767 -0.13314,-0.14835 -0.2665,-0.31196 -0.39584,-0.49454 -0.22062,-0.019 -0.42955,-0.0494 -0.62735,-0.0951 z m 2.35076,0 c -0.1978,0.0419 -0.40725,0.0761 -0.62787,0.0951 -0.12934,0.18258 -0.2627,0.34999 -0.39584,0.49454 0.28529,0.2815 0.57069,0.46767 0.79892,0.46767 0.0494,0 0.0953,-0.0113 0.13332,-0.0341 0.15595,-0.0913 0.2094,-0.37264 0.1447,-0.77204 -0.0153,-0.0799 -0.0304,-0.16365 -0.0532,-0.25115 z m -1.43815,0.11782 c 0.0837,0.11031 0.17121,0.21685 0.26251,0.31575 0.0913,-0.0989 0.17882,-0.20544 0.26252,-0.31575 -0.0875,0.004 -0.17502,0.008 -0.26252,0.008 -0.0875,0 -0.17501,-0.004 -0.26251,-0.008 z" />
  </g>
</svg>
