<?xml version="1.0" encoding="UTF-8" standalone="no"?>
<svg
   xmlns:dc="http://purl.org/dc/elements/1.1/"
   xmlns:cc="http://creativecommons.org/ns#"
   xmlns:rdf="http://www.w3.org/1999/02/22-rdf-syntax-ns#"
   xmlns:svg="http://www.w3.org/2000/svg"
   xmlns="http://www.w3.org/2000/svg"
   xmlns:sodipodi="http://sodipodi.sourceforge.net/DTD/sodipodi-0.dtd"
   xmlns:inkscape="http://www.inkscape.org/namespaces/inkscape"
   width="24"
   height="24"
   viewBox="0 0 6.3499999 6.3499999"
   version="1.1"
   id="svg10908"
   inkscape:version="1.0.1 (3bc2e813f5, 2020-09-07)"
   sodipodi:docname="react-square-outline.svg">
  <title
     id="title11486">react-square-outline</title>
  <defs
     id="defs10902" />
  <sodipodi:namedview
     id="base"
     pagecolor="#ffffff"
     bordercolor="#666666"
     borderopacity="1.0"
     inkscape:pageopacity="0.0"
     inkscape:pageshadow="2"
     inkscape:zoom="22.4"
     inkscape:cx="11.865285"
     inkscape:cy="11.063399"
     inkscape:document-units="mm"
     inkscape:current-layer="layer1"
     inkscape:document-rotation="0"
     showgrid="false"
     units="px"
     inkscape:window-width="1140"
     inkscape:window-height="1368"
     inkscape:window-x="1411"
     inkscape:window-y="0"
     inkscape:window-maximized="0"
     inkscape:snap-center="true"
     inkscape:snap-object-midpoints="true"
     inkscape:snap-page="true"
     inkscape:snap-intersection-paths="true"
     inkscape:snap-smooth-nodes="false"
     showguides="true"
     inkscape:guide-bbox="true"
     inkscape:snap-bbox="true"
     inkscape:bbox-paths="true"
     inkscape:bbox-nodes="true"
     inkscape:snap-bbox-edge-midpoints="true"
     inkscape:snap-bbox-midpoints="true">
    <sodipodi:guide
       position="0,6.3499999"
       orientation="1,0"
       id="guide11518" />
  </sodipodi:namedview>
  <metadata
     id="metadata10905">
    <rdf:RDF>
      <cc:Work
         rdf:about="">
        <dc:format>image/svg+xml</dc:format>
        <dc:type
           rdf:resource="http://purl.org/dc/dcmitype/StillImage" />
        <dc:title>react-square-outline</dc:title>
      </cc:Work>
    </rdf:RDF>
  </metadata>
  <g
     inkscape:label="Layer 1"
     inkscape:groupmode="layer"
     id="layer1"
     transform="translate(-109.4619,-112.48571)">
    <path
       id="path1441-5-4-20-0-2-1-4-4"
       style="fill:#000000;fill-opacity:1;stroke-width:0.264583"
       d="m 109.4619,112.48571 v 6.35 h 6.35 v -6.35 z m 0.52917,0.52917 h 5.29166 v 5.29166 h -5.29166 z m 1.6986,0.51934 c -0.0913,0 -0.17113,0.0191 -0.2434,0.061 -0.24346,0.14074 -0.33051,0.4944 -0.25063,0.99271 0.0152,0.0875 0.034,0.17896 0.0568,0.27026 -0.0913,0.0266 -0.17883,0.053 -0.26252,0.0873 -0.47549,0.18258 -0.73432,0.4337 -0.73432,0.7152 0,0.28149 0.26263,0.53262 0.73432,0.7152 0.0837,0.0305 0.17123,0.0607 0.26252,0.0873 -0.0228,0.0913 -0.0416,0.18278 -0.0568,0.27027 -0.0799,0.50212 0.008,0.85575 0.25063,0.99271 0.0723,0.0419 0.1521,0.061 0.2434,0.061 0.27008,0 0.60868,-0.19772 0.94723,-0.52865 0.34235,0.33093 0.68095,0.52865 0.94723,0.52865 0.0913,0 0.17111,-0.0191 0.24339,-0.061 0.24345,-0.14076 0.33103,-0.4944 0.25115,-0.99271 -0.0152,-0.0875 -0.034,-0.17896 -0.0568,-0.27027 0.0913,-0.0266 0.17882,-0.053 0.26251,-0.0873 0.47549,-0.18258 0.73381,-0.43371 0.73381,-0.7152 0,-0.2815 -0.25832,-0.53262 -0.73381,-0.7152 -0.0837,-0.0305 -0.17122,-0.0607 -0.26251,-0.0873 0.0228,-0.0913 0.0416,-0.18276 0.0568,-0.27026 0.0799,-0.50212 -0.008,-0.85577 -0.25115,-0.99271 -0.0723,-0.0419 -0.1521,-0.061 -0.24339,-0.061 -0.26628,0 -0.60488,0.19771 -0.94723,0.52865 -0.34235,-0.33094 -0.68096,-0.52865 -0.94723,-0.52865 z m -0.004,0.21704 c 0.22824,0 0.51363,0.18619 0.79892,0.46768 -0.13313,0.14455 -0.26651,0.31195 -0.39584,0.49454 -0.22063,0.019 -0.42954,0.0532 -0.62735,0.0951 -0.0228,-0.0875 -0.0379,-0.17127 -0.0532,-0.25115 -0.0647,-0.39941 -0.0118,-0.68075 0.14418,-0.77205 0.038,-0.0228 0.0839,-0.0341 0.13332,-0.0341 z m 1.9017,0 c 0.0494,0 0.0953,0.0113 0.13332,0.0341 0.15597,0.0913 0.20936,0.37264 0.1447,0.77205 -0.0114,0.0799 -0.0303,0.16364 -0.0532,0.25115 -0.19781,-0.0457 -0.40724,-0.0761 -0.62787,-0.0951 -0.12933,-0.18259 -0.26218,-0.34618 -0.39532,-0.49454 0.28149,-0.2777 0.56637,-0.46768 0.7984,-0.46768 z m -0.95084,0.62374 c 0.0913,0.0989 0.17884,0.20542 0.26252,0.31574 -0.0875,-0.004 -0.17503,-0.008 -0.26252,-0.008 -0.0875,0 -0.17503,0.004 -0.26252,0.008 0.0837,-0.11032 0.17123,-0.21683 0.26252,-0.31574 z m 0.004,0.52503 c 0.14835,0 0.28887,0.004 0.42581,0.015 0.0837,0.12173 0.15994,0.24362 0.22841,0.36535 0.0723,0.12552 0.14067,0.2548 0.20154,0.38034 -0.0647,0.12552 -0.12927,0.25101 -0.20154,0.38034 -0.0685,0.12173 -0.14834,0.24362 -0.23203,0.36535 -0.14075,0.0114 -0.28178,0.015 -0.42633,0.015 -0.14835,0 -0.28887,-0.004 -0.42581,-0.015 -0.0837,-0.12173 -0.15994,-0.24362 -0.22841,-0.36535 -0.0723,-0.12552 -0.14068,-0.25482 -0.20154,-0.38034 0.0609,-0.12554 0.12926,-0.25482 0.20154,-0.38034 0.0685,-0.12173 0.14834,-0.24362 0.23203,-0.36535 0.14074,-0.0114 0.28178,-0.015 0.42633,-0.015 z m -0.71159,0.0419 c -0.0457,0.0723 -0.0951,0.14801 -0.13694,0.22789 -0.0456,0.0799 -0.0874,0.16009 -0.12919,0.23616 -0.0571,-0.13314 -0.10286,-0.26237 -0.14469,-0.3917 0.12932,-0.0305 0.26627,-0.0532 0.41082,-0.0724 z m 1.4149,0.004 c 0.14455,0.019 0.2815,0.0418 0.41083,0.0724 -0.0418,0.12553 -0.0871,0.25859 -0.14418,0.39171 -0.0418,-0.0799 -0.0841,-0.15958 -0.1297,-0.23565 z m 0.62012,0.12196 c 0.52494,0.15216 0.84078,0.38023 0.84078,0.59324 0,0.17877 -0.22079,0.36879 -0.59738,0.50953 -0.0761,0.0305 -0.15972,0.0573 -0.2434,0.0801 -0.0609,-0.1902 -0.13659,-0.39163 -0.22789,-0.59324 0.0913,-0.20161 0.17083,-0.39943 0.22789,-0.58963 z m -2.65513,0.004 c 0.0609,0.1902 0.13712,0.39164 0.2284,0.59325 -0.0913,0.2016 -0.17136,0.39943 -0.2284,0.58963 -0.52494,-0.15216 -0.84026,-0.38024 -0.84026,-0.59325 0,-0.17879 0.21647,-0.36879 0.59686,-0.50953 0.0761,-0.0305 0.15971,-0.0573 0.2434,-0.0801 z m 1.32757,0.15605 a 0.4336461,0.4336461 0 0 0 -0.43357,0.43357 0.4336461,0.4336461 0 0 0 0.43357,0.43356 0.4336461,0.4336461 0 0 0 0.43356,-0.43356 0.4336461,0.4336461 0 0 0 -0.43356,-0.43357 z m -0.97359,0.68472 c 0.0418,0.0761 0.0836,0.15593 0.12919,0.23202 0.0457,0.0837 0.0913,0.15594 0.13695,0.23203 -0.14455,-0.019 -0.2815,-0.0419 -0.41083,-0.0724 0.0418,-0.12552 0.0876,-0.25856 0.14469,-0.3917 z m 1.94769,0.004 c 0.0571,0.13314 0.10234,0.26238 0.14418,0.39171 -0.12933,0.0305 -0.26628,0.0532 -0.41083,0.0724 0.0456,-0.0723 0.0951,-0.14802 0.13694,-0.2279 0.0456,-0.0799 0.0879,-0.16009 0.12971,-0.23616 z m -2.14922,0.59738 c 0.1978,0.0457 0.40673,0.0761 0.62735,0.0951 0.12934,0.18258 0.2627,0.34619 0.39584,0.49454 -0.28149,0.27769 -0.56688,0.46767 -0.79892,0.46767 -0.0494,0 -0.0953,-0.0113 -0.13332,-0.0341 -0.15595,-0.0913 -0.20885,-0.37264 -0.14418,-0.77204 0.0114,-0.0799 0.0303,-0.16366 0.0532,-0.25115 z m 2.35076,0 c 0.0228,0.0875 0.0379,0.17127 0.0532,0.25115 0.0647,0.3994 0.0113,0.68074 -0.14469,0.77204 -0.038,0.0228 -0.0834,0.0341 -0.13281,0.0341 -0.22823,0 -0.51363,-0.18617 -0.79892,-0.46767 0.13314,-0.14455 0.26599,-0.31196 0.39533,-0.49454 0.22062,-0.019 0.43007,-0.0532 0.62787,-0.0951 z m -1.43816,0.11782 c 0.0875,0.004 0.17503,0.008 0.26252,0.008 0.0875,0 0.17503,-0.004 0.26252,-0.008 -0.0837,0.11031 -0.17122,0.21685 -0.26252,0.31575 -0.0913,-0.0989 -0.17883,-0.20544 -0.26252,-0.31575 z" />
  </g>
</svg>
