<?xml version="1.0" encoding="UTF-8" standalone="no"?>
<svg
   xmlns:dc="http://purl.org/dc/elements/1.1/"
   xmlns:cc="http://creativecommons.org/ns#"
   xmlns:rdf="http://www.w3.org/1999/02/22-rdf-syntax-ns#"
   xmlns:svg="http://www.w3.org/2000/svg"
   xmlns="http://www.w3.org/2000/svg"
   xmlns:sodipodi="http://sodipodi.sourceforge.net/DTD/sodipodi-0.dtd"
   xmlns:inkscape="http://www.inkscape.org/namespaces/inkscape"
   width="24"
   height="24"
   viewBox="0 0 6.3499999 6.3499999"
   version="1.1"
   id="svg10908"
   inkscape:version="1.0.1 (3bc2e813f5, 2020-09-07)"
   sodipodi:docname="git-square-outline.svg">
  <title
     id="title11486">git-square-outline</title>
  <defs
     id="defs10902" />
  <sodipodi:namedview
     id="base"
     pagecolor="#ffffff"
     bordercolor="#666666"
     borderopacity="1.0"
     inkscape:pageopacity="0.0"
     inkscape:pageshadow="2"
     inkscape:zoom="22.4"
     inkscape:cx="11.239633"
     inkscape:cy="11.063399"
     inkscape:document-units="mm"
     inkscape:current-layer="layer1"
     inkscape:document-rotation="0"
     showgrid="false"
     units="px"
     inkscape:window-width="1140"
     inkscape:window-height="1368"
     inkscape:window-x="1411"
     inkscape:window-y="0"
     inkscape:window-maximized="0"
     inkscape:snap-center="true"
     inkscape:snap-object-midpoints="true"
     inkscape:snap-page="true"
     inkscape:snap-intersection-paths="true"
     inkscape:snap-smooth-nodes="false"
     showguides="true"
     inkscape:guide-bbox="true"
     inkscape:snap-bbox="true"
     inkscape:bbox-paths="true"
     inkscape:bbox-nodes="true"
     inkscape:snap-bbox-edge-midpoints="true"
     inkscape:snap-bbox-midpoints="true">
    <sodipodi:guide
       position="0,6.3499999"
       orientation="1,0"
       id="guide11518" />
  </sodipodi:namedview>
  <metadata
     id="metadata10905">
    <rdf:RDF>
      <cc:Work
         rdf:about="">
        <dc:format>image/svg+xml</dc:format>
        <dc:type
           rdf:resource="http://purl.org/dc/dcmitype/StillImage" />
        <dc:title>git-square-outline</dc:title>
      </cc:Work>
    </rdf:RDF>
  </metadata>
  <g
     inkscape:label="Layer 1"
     inkscape:groupmode="layer"
     id="layer1"
     transform="translate(-109.4619,-112.48571)">
    <path
       id="path1441-5-4-20-0-2-1-3"
       style="fill:#000000;fill-opacity:1;stroke-width:0.264583"
       d="m 109.4619,112.48571 v 6.35 h 6.35 v -6.35 z m 0.52917,0.52917 h 5.29166 v 5.29166 h -5.29166 z m 2.6417,0.2651 c -0.0785,0 -0.15713,0.0301 -0.21705,0.0899 l -0.4315,0.4315 0.54778,0.54777 c 0.1273,-0.043 0.27322,-0.0142 0.37465,0.0873 0.10194,0.10206 0.13038,0.249 0.0863,0.37672 l 0.52813,0.52813 c 0.12768,-0.044 0.27482,-0.0159 0.37672,0.0863 0.14258,0.14247 0.14258,0.37371 0,0.51625 -0.14256,0.14258 -0.37359,0.14258 -0.51624,0 -0.1072,-0.10726 -0.13339,-0.2648 -0.0791,-0.39688 l -0.49247,-0.49248 v 1.29553 c 0.0348,0.0172 0.0676,0.0399 0.0966,0.0687 0.14253,0.14246 0.14253,0.37348 0,0.51625 -0.14254,0.14247 -0.37386,0.14247 -0.51625,0 -0.1425,-0.14273 -0.15387,-0.37375 -0.0114,-0.51625 0.0352,-0.0352 0.0698,-0.0618 0.10748,-0.0796 v -1.30741 c -0.0377,-0.0178 -0.0721,-0.0442 -0.10748,-0.0796 -0.10792,-0.10789 -0.12826,-0.26634 -0.0729,-0.39895 l -0.53692,-0.5395 -1.4242,1.42524 c -0.11974,0.11984 -0.1187,0.3138 0.001,0.43356 l 2.07946,2.07895 c 0.11968,0.11972 0.31369,0.11972 0.43356,0 l 2.06913,-2.06913 c 0.11976,-0.11979 0.12023,-0.31385 5.3e-4,-0.43356 l -2.07894,-2.07895 c -0.0598,-0.0598 -0.13857,-0.0899 -0.21704,-0.0899 z" />
  </g>
</svg>
