<?xml version="1.0" encoding="UTF-8" standalone="no"?>
<svg
   xmlns:dc="http://purl.org/dc/elements/1.1/"
   xmlns:cc="http://creativecommons.org/ns#"
   xmlns:rdf="http://www.w3.org/1999/02/22-rdf-syntax-ns#"
   xmlns:svg="http://www.w3.org/2000/svg"
   xmlns="http://www.w3.org/2000/svg"
   xmlns:sodipodi="http://sodipodi.sourceforge.net/DTD/sodipodi-0.dtd"
   xmlns:inkscape="http://www.inkscape.org/namespaces/inkscape"
   width="24"
   height="24"
   viewBox="0 0 6.3499999 6.3499999"
   version="1.1"
   id="svg10908"
   inkscape:version="1.0.1 (3bc2e813f5, 2020-09-07)"
   sodipodi:docname="git-circle-outline.svg">
  <title
     id="title11486">git-circle-outline</title>
  <defs
     id="defs10902" />
  <sodipodi:namedview
     id="base"
     pagecolor="#ffffff"
     bordercolor="#666666"
     borderopacity="1.0"
     inkscape:pageopacity="0.0"
     inkscape:pageshadow="2"
     inkscape:zoom="22.4"
     inkscape:cx="11.239633"
     inkscape:cy="11.063399"
     inkscape:document-units="mm"
     inkscape:current-layer="layer1"
     inkscape:document-rotation="0"
     showgrid="false"
     units="px"
     inkscape:window-width="1140"
     inkscape:window-height="1368"
     inkscape:window-x="1411"
     inkscape:window-y="0"
     inkscape:window-maximized="0"
     inkscape:snap-center="true"
     inkscape:snap-object-midpoints="true"
     inkscape:snap-page="true"
     inkscape:snap-intersection-paths="true"
     inkscape:snap-smooth-nodes="false"
     showguides="true"
     inkscape:guide-bbox="true"
     inkscape:snap-bbox="true"
     inkscape:bbox-paths="true"
     inkscape:bbox-nodes="true"
     inkscape:snap-bbox-edge-midpoints="true"
     inkscape:snap-bbox-midpoints="true">
    <sodipodi:guide
       position="0,6.3499999"
       orientation="1,0"
       id="guide11518" />
  </sodipodi:namedview>
  <metadata
     id="metadata10905">
    <rdf:RDF>
      <cc:Work
         rdf:about="">
        <dc:format>image/svg+xml</dc:format>
        <dc:type
           rdf:resource="http://purl.org/dc/dcmitype/StillImage" />
        <dc:title>git-circle-outline</dc:title>
      </cc:Work>
    </rdf:RDF>
  </metadata>
  <g
     inkscape:label="Layer 1"
     inkscape:groupmode="layer"
     id="layer1"
     transform="translate(-109.4619,-112.48571)">
    <path
       id="circle-2-4-0-7-1"
       style="fill:#000000;fill-opacity:1;fill-rule:evenodd;stroke:none;stroke-width:0.0916501"
       d="m 112.6369,112.48571 a 3.175,3.1749997 0 0 0 -3.175,3.175 3.175,3.1749997 0 0 0 3.175,3.175 3.175,3.1749997 0 0 0 3.175,-3.175 3.175,3.1749997 0 0 0 -3.175,-3.175 z m -0.005,0.52917 a 2.6458332,2.6458332 0 0 1 0.005,0 2.6458332,2.6458332 0 0 1 2.64583,2.64583 2.6458332,2.6458332 0 0 1 -2.64583,2.64583 2.6458332,2.6458332 0 0 1 -2.64583,-2.64583 2.6458332,2.6458332 0 0 1 2.64066,-2.64583 z m 0.002,0.58239 c -0.068,0 -0.13618,0.0261 -0.1881,0.078 l -0.37414,0.37414 0.4749,0.47439 c 0.11034,-0.0372 0.23663,-0.0119 0.32453,0.076 0.0884,0.0885 0.1131,0.21591 0.0749,0.3266 l 0.45734,0.45733 c 0.11066,-0.0382 0.23826,-0.0136 0.3266,0.0749 0.12356,0.12347 0.12356,0.32346 0,0.447 -0.12356,0.12357 -0.32338,0.12357 -0.44701,0 -0.0929,-0.093 -0.11582,-0.22918 -0.0687,-0.34365 l -0.42684,-0.42633 v 1.12241 c 0.0302,0.0149 0.0586,0.0345 0.0837,0.0594 0.12353,0.12346 0.12353,0.32379 0,0.44752 -0.12353,0.12346 -0.3236,0.12346 -0.447,0 -0.12351,-0.1237 -0.13388,-0.32402 -0.0103,-0.44752 0.0306,-0.0305 0.0608,-0.0533 0.0935,-0.0687 v -1.13327 c -0.0327,-0.0154 -0.0629,-0.038 -0.0935,-0.0687 -0.0935,-0.0935 -0.11097,-0.23077 -0.0631,-0.34571 l -0.46509,-0.46819 -1.23455,1.23558 c -0.10376,0.10386 -0.10275,0.27189 0.001,0.37569 l 1.80196,1.80196 c 0.10373,0.10376 0.27231,0.10376 0.37621,0 l 1.79317,-1.79317 c 0.10379,-0.10382 0.10376,-0.27246 0,-0.37621 l -1.80144,-1.80144 c -0.0519,-0.0519 -0.12009,-0.078 -0.18811,-0.078 z" />
  </g>
</svg>
