<?xml version="1.0" encoding="UTF-8" standalone="no"?>
<svg
   xmlns:dc="http://purl.org/dc/elements/1.1/"
   xmlns:cc="http://creativecommons.org/ns#"
   xmlns:rdf="http://www.w3.org/1999/02/22-rdf-syntax-ns#"
   xmlns:svg="http://www.w3.org/2000/svg"
   xmlns="http://www.w3.org/2000/svg"
   xmlns:sodipodi="http://sodipodi.sourceforge.net/DTD/sodipodi-0.dtd"
   xmlns:inkscape="http://www.inkscape.org/namespaces/inkscape"
   width="24"
   height="24"
   viewBox="0 0 6.3499999 6.3499999"
   version="1.1"
   id="svg10908"
   inkscape:version="1.0.1 (3bc2e813f5, 2020-09-07)"
   sodipodi:docname="inkscape-roundedsquare-filled.svg">
  <title
     id="title11486">inkscape-roundedsquare-filled</title>
  <defs
     id="defs10902" />
  <sodipodi:namedview
     id="base"
     pagecolor="#ffffff"
     bordercolor="#666666"
     borderopacity="1.0"
     inkscape:pageopacity="0.0"
     inkscape:pageshadow="2"
     inkscape:zoom="22.4"
     inkscape:cx="11.239633"
     inkscape:cy="11.063399"
     inkscape:document-units="mm"
     inkscape:current-layer="layer1"
     inkscape:document-rotation="0"
     showgrid="false"
     units="px"
     inkscape:window-width="1140"
     inkscape:window-height="1368"
     inkscape:window-x="1411"
     inkscape:window-y="0"
     inkscape:window-maximized="0"
     inkscape:snap-center="true"
     inkscape:snap-object-midpoints="true"
     inkscape:snap-page="true"
     inkscape:snap-intersection-paths="true"
     inkscape:snap-smooth-nodes="false"
     showguides="true"
     inkscape:guide-bbox="true"
     inkscape:snap-bbox="true"
     inkscape:bbox-paths="true"
     inkscape:bbox-nodes="true"
     inkscape:snap-bbox-edge-midpoints="true"
     inkscape:snap-bbox-midpoints="true">
    <sodipodi:guide
       position="0,6.3499999"
       orientation="1,0"
       id="guide11518" />
  </sodipodi:namedview>
  <metadata
     id="metadata10905">
    <rdf:RDF>
      <cc:Work
         rdf:about="">
        <dc:format>image/svg+xml</dc:format>
        <dc:type
           rdf:resource="http://purl.org/dc/dcmitype/StillImage" />
        <dc:title>inkscape-roundedsquare-filled</dc:title>
      </cc:Work>
    </rdf:RDF>
  </metadata>
  <g
     inkscape:label="Layer 1"
     inkscape:groupmode="layer"
     id="layer1"
     transform="translate(-109.4619,-112.48571)">
    <path
       id="roundedsquare-4-6"
       style="fill:#000000;fill-opacity:1;fill-rule:evenodd;stroke:none;stroke-width:0.0694534"
       d="m 109.99107,112.48571 c -0.29316,0 -0.52917,0.23601 -0.52917,0.52917 v 5.29166 c 0,0.29316 0.23601,0.52917 0.52917,0.52917 h 5.29166 c 0.29316,0 0.52917,-0.23601 0.52917,-0.52917 v -5.29166 c 0,-0.29316 -0.23601,-0.52917 -0.52917,-0.52917 z m 2.60656,0.82424 c 0.14688,0 0.29543,0.0539 0.40669,0.16123 l 1.82314,1.86603 c 0.72224,0.72224 -0.80447,0.88985 -1.24953,1.14361 -0.15226,0.16005 0.47619,0.26162 0.40979,0.45681 -0.12883,0.39429 -0.48403,0.14447 -0.86661,0.53486 -0.15225,0.16007 0.2928,0.1446 0.14056,0.30075 -0.2889,0.21081 -0.88224,0.35894 -0.92914,0.10129 -0.0664,-0.36287 -0.42136,-0.21437 -0.57361,-0.37052 l 0.15968,-0.48059 c -0.15224,-0.16006 -0.92881,-0.30428 -1.08107,-0.46044 -0.15615,-0.15614 0.58529,-0.27326 0.43305,-0.42943 -0.42553,-0.21081 -1.42487,-0.12516 -0.83148,-0.863 l 1.76062,-1.79937 c 0.1054,-0.10735 0.25102,-0.16123 0.39791,-0.16123 z m 0.0139,0.17622 c -0.10541,5.2e-4 -0.21069,0.0397 -0.28681,0.11782 -0.15226,0.15616 -0.43307,0.42906 -0.67902,0.69453 -0.14058,0.14054 -0.12516,0.34778 0.031,0.34778 h 0.37879 l 0.25373,-0.43718 0.15193,0.60461 0.46095,-0.29249 0.28887,0.15245 0.0661,-0.41031 0.34365,0.2775 v -5.3e-4 c 0.0391,-0.039 0.039,-0.16769 -0.0274,-0.23409 l -0.69453,-0.70642 c -0.0761,-0.0761 -0.18192,-0.11418 -0.28732,-0.11368 z m -0.83716,2.74505 c -0.22642,0 0.67922,0.37067 0.86661,0.31987 0.0859,-0.0429 0.12865,-0.10508 0.0662,-0.11678 -0.17568,-0.0312 -0.88586,-0.17579 -0.93276,-0.20309 z m 2.76572,0.49403 c 0.14249,-0.004 0.28698,0.0602 0.33383,0.19688 0,0.16785 -0.65577,0.10944 -0.65577,0.0196 0.039,-0.13858 0.17945,-0.21213 0.32194,-0.21652 z m -2.98844,0.38705 c 0.0703,0.005 0.13401,0.0293 0.17208,0.0791 -0.0703,0.18732 -0.31255,0.35546 -0.46871,0.22272 -0.18445,-0.16089 0.0858,-0.31748 0.29663,-0.30179 z m 2.58433,0.0129 c 0.21861,0.0429 0.26159,0.19908 0.21859,0.24598 -0.1952,0.11711 -0.4177,-0.0664 -0.21859,-0.24598 z" />
  </g>
</svg>
