<?xml version="1.0" encoding="UTF-8" standalone="no"?>
<svg
   xmlns:dc="http://purl.org/dc/elements/1.1/"
   xmlns:cc="http://creativecommons.org/ns#"
   xmlns:rdf="http://www.w3.org/1999/02/22-rdf-syntax-ns#"
   xmlns:svg="http://www.w3.org/2000/svg"
   xmlns="http://www.w3.org/2000/svg"
   xmlns:xlink="http://www.w3.org/1999/xlink"
   xmlns:sodipodi="http://sodipodi.sourceforge.net/DTD/sodipodi-0.dtd"
   xmlns:inkscape="http://www.inkscape.org/namespaces/inkscape"
   width="24"
   height="24"
   viewBox="0 0 6.3499999 6.3499999"
   version="1.1"
   id="svg10908"
   inkscape:version="1.0.1 (3bc2e813f5, 2020-09-07)"
   sodipodi:docname="inkscape-complex.svg">
  <title
     id="title11486">inkscape-complex</title>
  <defs
     id="defs10902">
    <clipPath
       id="b">
      <use
         xlink:href="#a"
         overflow="visible"
         id="use6568"
         x="0"
         y="0"
         width="100%"
         height="100%" />
    </clipPath>
    <linearGradient
       id="c"
       gradientUnits="userSpaceOnUse"
       x1="98.292999"
       y1="237.026"
       x2="74.286003"
       y2="215.319"
       gradientTransform="matrix(0.985,0,0,-0.985,6.128,272.439)">
      <stop
         offset="0"
         stop-color="#C0CDF9"
         id="stop6571" />
      <stop
         offset="1"
         stop-color="#07092D"
         stop-opacity=".288"
         id="stop6573" />
    </linearGradient>
    <linearGradient
       id="d"
       gradientUnits="userSpaceOnUse"
       x1="33.173"
       y1="245.076"
       x2="60.307999"
       y2="217.94099"
       gradientTransform="matrix(1.003,0,0,-1.003,-0.413,276.586)">
      <stop
         offset="0"
         stop-color="#fff"
         id="stop6580" />
      <stop
         offset="1"
         stop-color="#fff"
         stop-opacity="0"
         id="stop6582" />
    </linearGradient>
    <linearGradient
       id="e"
       gradientUnits="userSpaceOnUse"
       x1="48.612"
       y1="250.177"
       x2="81.172997"
       y2="217.616"
       gradientTransform="matrix(0.994,0,0,-0.994,2.709,274.439)">
      <stop
         offset="0"
         stop-color="#fff"
         id="stop6587" />
      <stop
         offset="1"
         stop-color="#fff"
         stop-opacity="0"
         id="stop6589" />
    </linearGradient>
    <radialGradient
       id="f-8"
       cx="51.136002"
       cy="13.518"
       r="33.212002"
       gradientTransform="matrix(0.827,0,0,-0.553,1.123,126.746)"
       gradientUnits="userSpaceOnUse">
      <stop
         offset="0"
         stop-color="#fff"
         id="stop6594" />
      <stop
         offset="1"
         stop-color="#fff"
         stop-opacity="0"
         id="stop6596" />
    </radialGradient>
    <radialGradient
       id="g"
       cx="147.452"
       cy="14.758"
       r="33.212002"
       gradientTransform="matrix(1.055,0,0,-0.706,-97.55,130.348)"
       gradientUnits="userSpaceOnUse">
      <stop
         offset="0"
         stop-color="#fff"
         id="stop6601" />
      <stop
         offset="1"
         stop-color="#fff"
         stop-opacity="0"
         id="stop6603" />
    </radialGradient>
    <radialGradient
       id="h"
       cx="-53.737"
       cy="94.672997"
       r="37.174"
       gradientTransform="matrix(0.526,0,0,-0.223,130.969,98.356)"
       gradientUnits="userSpaceOnUse">
      <stop
         offset="0"
         stop-color="#fff"
         id="stop6610" />
      <stop
         offset="1"
         stop-color="#fff"
         stop-opacity="0"
         id="stop6612" />
    </radialGradient>
    <radialGradient
       id="i"
       cx="-45.82"
       cy="80.196999"
       r="37.174"
       gradientTransform="matrix(0.526,0,0,-0.223,130.969,97.429)"
       gradientUnits="userSpaceOnUse">
      <stop
         offset="0"
         stop-color="#fff"
         id="stop6617" />
      <stop
         offset="1"
         stop-color="#fff"
         stop-opacity="0"
         id="stop6619" />
    </radialGradient>
    <linearGradient
       id="j"
       gradientUnits="userSpaceOnUse"
       x1="-32.429001"
       y1="73.095001"
       x2="-32.292999"
       y2="66.244003"
       gradientTransform="matrix(0.526,0,0,-0.526,130.306,130.092)">
      <stop
         offset="0"
         stop-color="#fff"
         id="stop6626" />
      <stop
         offset="1"
         stop-color="#fff"
         stop-opacity="0"
         id="stop6628" />
    </linearGradient>
    <linearGradient
       id="k"
       gradientUnits="userSpaceOnUse"
       x1="112.548"
       y1="76.804001"
       x2="112.548"
       y2="71.973999"
       gradientTransform="matrix(0.709,0,0,-1.134,33.501,178.262)">
      <stop
         offset="0"
         stop-color="#fff"
         id="stop6633" />
      <stop
         offset="1"
         stop-color="#fff"
         stop-opacity="0"
         id="stop6635" />
    </linearGradient>
    <radialGradient
       id="l"
       cx="-34.115002"
       cy="13.297"
       r="15.297"
       gradientTransform="matrix(0.526,0,0,-0.078,130.969,98.77)"
       gradientUnits="userSpaceOnUse">
      <stop
         offset="0"
         stop-color="#fff"
         id="stop6642" />
      <stop
         offset="1"
         stop-color="#fff"
         stop-opacity="0"
         id="stop6644" />
    </radialGradient>
    <linearGradient
       id="m"
       gradientUnits="userSpaceOnUse"
       x1="-643.91199"
       y1="327.836"
       x2="-643.77698"
       y2="320.98401"
       gradientTransform="matrix(0.203,-0.103,-0.238,-0.469,311.261,190.221)">
      <stop
         offset="0"
         stop-color="#fff"
         id="stop6651" />
      <stop
         offset="1"
         stop-color="#fff"
         stop-opacity="0"
         id="stop6653" />
    </linearGradient>
    <linearGradient
       id="n"
       gradientUnits="userSpaceOnUse"
       x1="-341.63501"
       y1="195.138"
       x2="-341.63501"
       y2="190.308"
       gradientTransform="matrix(0.273,-0.139,-0.513,-1.011,295.216,251.45)">
      <stop
         offset="0"
         stop-color="#fff"
         id="stop6658" />
      <stop
         offset="1"
         stop-color="#fff"
         stop-opacity="0"
         id="stop6660" />
    </linearGradient>
    <radialGradient
       id="o"
       cx="-645.599"
       cy="1737.484"
       r="15.297"
       gradientTransform="matrix(0.203,-0.103,-0.035,-0.069,297.352,162.155)"
       gradientUnits="userSpaceOnUse">
      <stop
         offset="0"
         stop-color="#fff"
         id="stop6667" />
      <stop
         offset="1"
         stop-color="#fff"
         stop-opacity="0"
         id="stop6669" />
    </radialGradient>
    <radialGradient
       id="p"
       cx="-185.187"
       cy="69.660004"
       r="24.691999"
       gradientTransform="matrix(0.526,0,0,-0.214,130.969,105.831)"
       gradientUnits="userSpaceOnUse">
      <stop
         offset="0"
         stop-color="#fff"
         stop-opacity=".33"
         id="stop6676" />
      <stop
         offset="1"
         stop-color="#fff"
         stop-opacity="0"
         id="stop6678" />
    </radialGradient>
    <linearGradient
       id="q"
       gradientUnits="userSpaceOnUse"
       x1="-136.743"
       y1="250.438"
       x2="-136.60699"
       y2="243.586"
       gradientTransform="matrix(0.463,0.102,0.123,-0.366,65.856,208.72)">
      <stop
         offset="0"
         stop-color="#fff"
         id="stop6683" />
      <stop
         offset="1"
         stop-color="#fff"
         stop-opacity="0"
         id="stop6685" />
    </linearGradient>
    <linearGradient
       id="r"
       gradientUnits="userSpaceOnUse"
       x1="60.342999"
       y1="183.942"
       x2="60.342999"
       y2="179.112"
       gradientTransform="matrix(0.623,0.219,0.166,-0.789,-34.636,234.581)">
      <stop
         offset="0"
         stop-color="#fff"
         id="stop6690" />
      <stop
         offset="1"
         stop-color="#fff"
         stop-opacity="0"
         id="stop6692" />
    </linearGradient>
    <radialGradient
       id="s"
       cx="-62.571999"
       cy="357.021"
       r="11.363"
       gradientTransform="matrix(0.624,-0.173,-0.065,-0.233,95.948,182.007)"
       gradientUnits="userSpaceOnUse">
      <stop
         offset="0"
         stop-color="#fff"
         id="stop6701" />
      <stop
         offset="1"
         stop-color="#fff"
         stop-opacity="0"
         id="stop6703" />
    </radialGradient>
    <radialGradient
       id="t"
       cx="193.011"
       cy="256.754"
       r="59.424999"
       gradientTransform="matrix(1.712,0,0,-1.685,-261.607,451.789)"
       gradientUnits="userSpaceOnUse">
      <stop
         offset="0"
         stop-color="#fff"
         id="stop6710" />
      <stop
         offset="1"
         stop-color="#fff"
         stop-opacity="0"
         id="stop6712" />
    </radialGradient>
    <linearGradient
       id="u"
       gradientUnits="userSpaceOnUse"
       x1="-224.589"
       y1="68.903"
       x2="-161.63699"
       y2="52.257999"
       gradientTransform="matrix(0.485,0,0,-0.485,149.184,125.791)">
      <stop
         offset="0"
         stop-color="#fff"
         id="stop6717" />
      <stop
         offset="1"
         stop-color="#fff"
         stop-opacity="0"
         id="stop6719" />
    </linearGradient>
    <linearGradient
       id="v"
       gradientUnits="userSpaceOnUse"
       x1="13.153"
       y1="197.76801"
       x2="9.2530003"
       y2="188.832"
       gradientTransform="matrix(0.88,0,0,-0.88,42.035,252.063)">
      <stop
         offset="0"
         stop-color="#EEEEEC"
         id="stop6726" />
      <stop
         offset="1"
         stop-color="#EEEEEC"
         stop-opacity="0"
         id="stop6728" />
    </linearGradient>
    <radialGradient
       id="w"
       cx="26.356001"
       cy="55.589001"
       r="24.385"
       gradientTransform="matrix(0.656,0,0,-0.834,66.991,147.128)"
       gradientUnits="userSpaceOnUse">
      <stop
         offset="0"
         stop-color="#fff"
         id="stop6733" />
      <stop
         offset="1"
         stop-color="#fff"
         stop-opacity="0"
         id="stop6735" />
    </radialGradient>
    <linearGradient
       id="x"
       gradientUnits="userSpaceOnUse"
       x1="-245.694"
       y1="88.661003"
       x2="-235.88"
       y2="80.863998"
       gradientTransform="matrix(0.49,0,0,-0.49,147.66,125.008)">
      <stop
         offset="0"
         stop-color="#fff"
         id="stop6748" />
      <stop
         offset="1"
         stop-color="#fff"
         stop-opacity="0"
         id="stop6750" />
    </linearGradient>
    <linearGradient
       id="y"
       gradientUnits="userSpaceOnUse"
       x1="-115.448"
       y1="55.254002"
       x2="-144.875"
       y2="134.487"
       gradientTransform="matrix(0.485,0,0,-0.485,149.184,125.791)">
      <stop
         offset="0"
         stop-color="#729FCF"
         id="stop6755" />
      <stop
         offset="1"
         stop-color="#729FCF"
         stop-opacity="0"
         id="stop6757" />
    </linearGradient>
    <path
       id="path6780"
       d="M 53.4,9.5 9.1,54.9 c -16.8,16.8 10.8,15.4 20.8,21.7 4.6,3 -14.8,6.9 -10.9,10.9 3.9,4 23.3,7.6 27.2,11.5 3.9,4 -7.8,8.2 -4,12.1 3.8,4 12.8,0.2 14.4,9.2 1.2,6.7 16.6,3.3 23.4,-2.4 l -3.5,-7.6 c 9.7,-9.8 18.3,-4.4 21.8,-13.4 1.9,-4.8 -14.6,-8.3 -10.2,-11.4 10.5,-7.4 49.2,-11.2 31.4,-29 L 73.6,9.5 C 68,4.2 58.6,4.2 53.4,9.5 Z M 42.7,79.1 c 1,0 33.1,4.3 20.7,7.6 C 58.7,88 37,79.1 42.7,79.1 Z m 61.5,17.8 c 0,2.3 17.5,3.5 16.6,-0.5 -1.4,-6.9 -14.7,-6.3 -16.6,0.5 z m -74.7,12 c 4,3.4 10,-0.8 11.9,-5.6 -3.8,-5.1 -18.1,0.3 -11.9,5.6 z m 72.6,-7.2 c -4.9,4.5 0.9,9.2 5.7,6.1 1.2,-0.9 -0.2,-5.1 -5.7,-6.1 z" />
  </defs>
  <sodipodi:namedview
     id="base"
     pagecolor="#ffffff"
     bordercolor="#666666"
     borderopacity="1.0"
     inkscape:pageopacity="0.0"
     inkscape:pageshadow="2"
     inkscape:zoom="22.4"
     inkscape:cx="12.53886"
     inkscape:cy="5.7062559"
     inkscape:document-units="mm"
     inkscape:current-layer="layer1"
     inkscape:document-rotation="0"
     showgrid="false"
     units="px"
     inkscape:window-width="1140"
     inkscape:window-height="1368"
     inkscape:window-x="1411"
     inkscape:window-y="0"
     inkscape:window-maximized="0"
     inkscape:snap-center="true"
     inkscape:snap-object-midpoints="true"
     inkscape:snap-page="true"
     inkscape:snap-intersection-paths="true"
     inkscape:snap-smooth-nodes="false"
     showguides="true"
     inkscape:guide-bbox="true"
     inkscape:snap-bbox="true"
     inkscape:bbox-paths="true"
     inkscape:bbox-nodes="true"
     inkscape:snap-bbox-edge-midpoints="true"
     inkscape:snap-bbox-midpoints="true">
    <sodipodi:guide
       position="0,6.3499999"
       orientation="1,0"
       id="guide11518" />
  </sodipodi:namedview>
  <metadata
     id="metadata10905">
    <rdf:RDF>
      <cc:Work
         rdf:about="">
        <dc:format>image/svg+xml</dc:format>
        <dc:type
           rdf:resource="http://purl.org/dc/dcmitype/StillImage" />
        <dc:title>inkscape-complex</dc:title>
      </cc:Work>
    </rdf:RDF>
  </metadata>
  <g
     inkscape:label="Layer 1"
     inkscape:groupmode="layer"
     id="layer1"
     transform="translate(-109.4619,-112.48571)">
    <g
       transform="matrix(0.05222259,0,0,0.05222259,109.29535,112.28255)"
       enable-background="new"
       id="inkscape-complex"
       style="fill:#205081">
      <g
         opacity="0.783"
         id="g6559">
        <path
           d="m 53.3,10.088 -44.8,45.8 c -16.9,16.9 11,15.5 21.1,21.9 4.7,3 -15,6.9 -11,11 3.9,4 23.6,7.7 27.5,11.6 3.9,4 -7.9,8.2 -4,12.3 3.8,4 12.9,0.2 14.5,9.3 1.2,6.7 16.7,3.4 23.7,-2.4 4.3,-3.7 -7.5,-3.7 -3.6,-7.7 9.8,-9.9 18.5,-4.5 22,-13.6 2,-4.9 -14.8,-8.4 -10.3,-11.5 10.7,-7.5 49.7,-11.3 31.7,-29.3 l -46.3,-47.4 c -5.8,-5.4 -15.2,-5.4 -20.5,0 z m 51.3,88.2 c 0,2.3 17.7,3.6 16.7,-0.5 -1.4,-7 -14.8,-6.4 -16.7,0.5 z m -75.4,12.1 c 4,3.5 10.1,-0.8 12,-5.6 -3.9,-5.2 -18.3,0.2 -12,5.6 z m 73.2,-7.3 c -5,4.6 0.9,9.3 5.8,6.2 1.3,-0.9 -0.1,-5.1 -5.8,-6.2 z"
           id="path6555" />
        <path
           opacity="0.576"
           enable-background="new"
           d="m 53.3,11.088 -44.8,45.8 c -16.9,17 11,15.6 21.1,22 4.7,3 -15,6.9 -11,11 3.9,4 23.6,7.7 27.5,11.6 3.9,4 -7.9,8.2 -4,12.3 3.8,4 12.9,0.2 14.5,9.3 1.2,6.7 16.7,3.4 23.7,-2.4 4.3,-3.7 -7.5,-3.7 -3.6,-7.7 9.8,-9.9 18.5,-4.5 22,-13.6 2,-4.9 -14.8,-8.4 -10.3,-11.5 10.6,-7.5 49.7,-11.3 31.7,-29.3 l -46.3,-47.5 c -5.8,-5.4 -15.2,-5.4 -20.5,0 z m 51.3,88.3 c 0,2.3 17.7,3.6 16.7,-0.5 -1.4,-7 -14.8,-6.5 -16.7,0.5 z m -75.4,12 c 4,3.5 10.1,-0.8 12,-5.6 -3.9,-5.1 -18.3,0.3 -12,5.6 z m 73.2,-7.2 c -5,4.6 0.9,9.3 5.8,6.2 1.3,-0.9 -0.1,-5.2 -5.8,-6.2 z"
           id="path6557" />
      </g>
      <path
         d="M 53.3,9 8.5,54.8 c -16.9,16.9 11,15.5 21.1,21.9 4.7,3 -15,6.9 -11,11 3.9,4 23.6,7.7 27.5,11.6 3.9,4 -7.9,8.2 -4,12.3 3.8,4 12.9,0.2 14.5,9.3 1.2,6.7 16.7,3.4 23.7,-2.4 4.3,-3.7 -7.5,-3.7 -3.6,-7.7 9.8,-9.9 18.5,-4.5 22,-13.6 2,-4.9 -14.8,-8.4 -10.3,-11.5 C 99,78.2 138.1,74.4 120.1,56.4 L 73.8,9 C 68,3.6 58.6,3.6 53.3,9 Z m 51.3,88.2 c 0,2.3 17.7,3.6 16.7,-0.5 -1.4,-6.9 -14.8,-6.4 -16.7,0.5 z m -75.4,12.1 c 4,3.5 10.1,-0.8 12,-5.6 -3.9,-5.2 -18.3,0.3 -12,5.6 z m 73.2,-7.3 c -5,4.6 0.9,9.3 5.8,6.2 1.3,-0.9 -0.1,-5.1 -5.8,-6.2 z"
         id="path6561" />
      <path
         d="M 53.3,9 8.5,54.8 c -16.9,16.9 11,15.5 21.1,21.9 4.7,3 -15,6.9 -11,11 3.9,4 23.6,7.7 27.5,11.6 3.9,4 -7.9,8.2 -4,12.3 3.8,4 12.9,0.2 14.5,9.3 1.2,6.7 16.7,3.4 23.7,-2.4 4.3,-3.7 -7.5,-3.7 -3.6,-7.7 9.8,-9.9 18.5,-4.5 22,-13.6 2,-4.9 -14.8,-8.4 -10.3,-11.5 C 99,78.2 138.1,74.4 120.1,56.4 L 73.8,9 C 68,3.6 58.6,3.6 53.3,9 Z m 51.3,88.2 c 0,2.3 17.7,3.6 16.7,-0.5 -1.4,-6.9 -14.8,-6.4 -16.7,0.5 z m -75.4,12.1 c 4,3.5 10.1,-0.8 12,-5.6 -3.9,-5.2 -18.3,0.3 -12,5.6 z m 73.2,-7.3 c -5,4.6 0.9,9.3 5.8,6.2 1.3,-0.9 -0.1,-5.1 -5.8,-6.2 z"
         fill="none"
         id="path6563" />
      <defs
         id="defs6566">
        <path
           id="path16571"
           d="M 53.4,9.5 9.1,54.9 c -16.8,16.8 10.8,15.4 20.8,21.7 4.6,3 -14.8,6.9 -10.9,10.9 3.9,4 23.3,7.6 27.2,11.5 3.9,4 -7.8,8.2 -4,12.1 3.8,4 12.8,0.2 14.4,9.2 1.2,6.7 16.6,3.3 23.4,-2.4 l -3.5,-7.6 c 9.7,-9.8 18.3,-4.4 21.8,-13.4 1.9,-4.8 -14.6,-8.3 -10.2,-11.4 10.5,-7.4 49.2,-11.2 31.4,-29 L 73.6,9.5 C 68,4.2 58.6,4.2 53.4,9.5 Z M 42.7,79.1 c 1,0 33.1,4.3 20.7,7.6 C 58.7,88 37,79.1 42.7,79.1 Z m 61.5,17.8 c 0,2.3 17.5,3.5 16.6,-0.5 -1.4,-6.9 -14.7,-6.3 -16.6,0.5 z m -74.7,12 c 4,3.4 10,-0.8 11.9,-5.6 -3.8,-5.1 -18.1,0.3 -11.9,5.6 z m 72.6,-7.2 c -4.9,4.5 0.9,9.2 5.7,6.1 1.2,-0.9 -0.2,-5.1 -5.7,-6.1 z" />
      </defs>
      <clipPath
         id="clipPath16119">
        <use
           xlink:href="#a"
           overflow="visible"
           id="use16117"
           x="0"
           y="0"
           width="100%"
           height="100%" />
      </clipPath>
      <g
         transform="matrix(0.991,0,0,0.991,0.605,0.604)"
         clip-path="url(#b)"
         id="g6578">
        <linearGradient
           id="linearGradient16125"
           gradientUnits="userSpaceOnUse"
           x1="98.292999"
           y1="237.026"
           x2="74.286003"
           y2="215.319"
           gradientTransform="matrix(0.985,0,0,-0.985,6.128,272.439)">
          <stop
             offset="0"
             stop-color="#C0CDF9"
             id="stop16121" />
          <stop
             offset="1"
             stop-color="#07092D"
             stop-opacity=".288"
             id="stop16123" />
        </linearGradient>
        <path
           fill="url(#c)"
           d="M 53.4,9.5 9.1,54.9 c -16.8,16.8 10.8,15.4 20.8,21.7 4.6,3 -14.8,6.9 -10.9,10.9 3.9,4 23.3,7.6 27.2,11.5 3.9,4 -7.8,8.2 -4,12.1 3.8,4 12.8,0.2 14.4,9.2 1.2,6.7 16.6,3.3 23.4,-2.4 l -3.5,-7.6 c 9.7,-9.8 18.3,-4.4 21.8,-13.4 1.9,-4.8 -14.6,-8.3 -10.2,-11.4 10.5,-7.4 49.2,-11.2 31.4,-29 L 73.6,9.5 C 68,4.2 58.6,4.2 53.4,9.5 Z M 42.7,79.1 c 1,0 33.1,4.3 20.7,7.6 C 58.7,88 37,79.1 42.7,79.1 Z m 61.5,17.8 c 0,2.3 17.5,3.5 16.6,-0.5 -1.4,-6.9 -14.7,-6.3 -16.6,0.5 z m -74.7,12 c 4,3.4 10,-0.8 11.9,-5.6 -3.8,-5.1 -18.1,0.3 -11.9,5.6 z m 72.6,-7.2 c -4.9,4.5 0.9,9.2 5.7,6.1 1.2,-0.9 -0.2,-5.1 -5.7,-6.1 z"
           id="path6576"
           style="fill:url(#c)" />
      </g>
      <linearGradient
         id="linearGradient16133"
         gradientUnits="userSpaceOnUse"
         x1="33.173"
         y1="245.076"
         x2="60.307999"
         y2="217.94099"
         gradientTransform="matrix(1.003,0,0,-1.003,-0.413,276.586)">
        <stop
           offset="0"
           stop-color="#fff"
           id="stop16129" />
        <stop
           offset="1"
           stop-color="#fff"
           stop-opacity="0"
           id="stop16131" />
      </linearGradient>
      <path
         opacity="0.505"
         fill="url(#d)"
         enable-background="new"
         d="m 12.5,57.3 c -12.2,12 9.2,8.7 25.6,15.1 l 34,-59.7 C 67,7.4 60.4,7.9 55.7,12.7 Z"
         id="path6585"
         style="fill:url(#d)" />
      <linearGradient
         id="linearGradient16140"
         gradientUnits="userSpaceOnUse"
         x1="48.612"
         y1="250.177"
         x2="81.172997"
         y2="217.616"
         gradientTransform="matrix(0.994,0,0,-0.994,2.709,274.439)">
        <stop
           offset="0"
           stop-color="#fff"
           id="stop16136" />
        <stop
           offset="1"
           stop-color="#fff"
           stop-opacity="0"
           id="stop16138" />
      </linearGradient>
      <path
         fill="url(#e)"
         d="m 71.1,12.3 17.7,18 c 1.6,1.6 1.6,5 0.7,6 L 80.7,29.1 79,39.6 71.7,35.7 59.9,43.2 56,27.5 49.7,41.2 33.8,41 c -3,0 -2.6,-3.1 0.5,-6.3 6.2,-6.8 18.2,-18.5 22,-22.5 4,-4 10.8,-3.8 14.8,0.1 z"
         id="path6592"
         style="fill:url(#e)" />
      <radialGradient
         id="radialGradient16147"
         cx="51.136002"
         cy="13.518"
         r="33.212002"
         gradientTransform="matrix(0.827,0,0,-0.553,1.123,126.746)"
         gradientUnits="userSpaceOnUse">
        <stop
           offset="0"
           stop-color="#fff"
           id="stop16143" />
        <stop
           offset="1"
           stop-color="#fff"
           stop-opacity="0"
           id="stop16145" />
      </radialGradient>
      <path
         opacity="0.217"
         fill="url(#f)"
         enable-background="new"
         d="m 46.8,97.4 c 0,0 1.9,2.9 1.7,4.3 -0.4,2.7 -6.2,4.1 -4.9,6.5 1.3,2.4 5.9,1 9.7,3.5 3.8,2.5 2.8,7.5 5.6,8.8 5.4,2.5 19.8,-4.3 19,-4.1 -0.7,0.1 -14.1,2.9 -17.1,0.5 -3.4,-2.8 -4.4,-4.7 -7,-6.4 -2.4,-1.5 -5.7,-2.2 -6.5,-3.4 -0.8,-1.3 1.6,-2.9 1.7,-5.3 0.2,-1.6 -2.2,-4.4 -2.2,-4.4 z"
         id="path6599"
         style="fill:url(#f-8)" />
      <g
         opacity="0.276"
         enable-background="new"
         id="g6608">
        <radialGradient
           id="radialGradient16154"
           cx="147.452"
           cy="14.758"
           r="33.212002"
           gradientTransform="matrix(1.055,0,0,-0.706,-97.55,130.348)"
           gradientUnits="userSpaceOnUse">
          <stop
             offset="0"
             stop-color="#fff"
             id="stop16150" />
          <stop
             offset="1"
             stop-color="#fff"
             stop-opacity="0"
             id="stop16152" />
        </radialGradient>
        <path
           fill="url(#g)"
           d="m 46.8,97.4 c 0,0 1.9,2.9 1.7,4.3 -0.4,2.7 -6.2,4.1 -4.9,6.5 1.3,2.4 5.9,1 9.7,3.5 3.8,2.5 2.8,7.5 5.6,8.8 5.4,2.5 19.8,-4.3 19,-4.1 -23.8,0.1 -19.3,-6 -28.5,-10.1 -1.3,-0.6 -0.6,-2.2 -0.4,-4.6 0.2,-1.5 -2.2,-4.3 -2.2,-4.3 z"
           id="path6606"
           style="fill:url(#g)" />
      </g>
      <radialGradient
         id="radialGradient16162"
         cx="-53.737"
         cy="94.672997"
         r="37.174"
         gradientTransform="matrix(0.526,0,0,-0.223,130.969,98.356)"
         gradientUnits="userSpaceOnUse">
        <stop
           offset="0"
           stop-color="#fff"
           id="stop16158" />
        <stop
           offset="1"
           stop-color="#fff"
           stop-opacity="0"
           id="stop16160" />
      </radialGradient>
      <path
         opacity="0.453"
         fill="url(#h)"
         enable-background="new"
         d="M 87.2,84.9 C 108.5,77.1 115.4,76 122.4,68.9 114.2,75.8 97,79.5 83,85.6 Z"
         id="path6615"
         style="fill:url(#h)" />
      <g
         opacity="0.512"
         enable-background="new"
         id="g6624">
        <radialGradient
           id="radialGradient16169"
           cx="-45.82"
           cy="80.196999"
           r="37.174"
           gradientTransform="matrix(0.526,0,0,-0.223,130.969,97.429)"
           gradientUnits="userSpaceOnUse">
          <stop
             offset="0"
             stop-color="#fff"
             id="stop16165" />
          <stop
             offset="1"
             stop-color="#fff"
             stop-opacity="0"
             id="stop16167" />
        </radialGradient>
        <path
           fill="url(#i)"
           d="m 87.2,83.9 c 35.1,-12.4 29.2,-12.4 35.2,-16 -11.2,4.3 -32,4.7 -39.4,16.7 z"
           id="path6622"
           style="fill:url(#i)" />
      </g>
      <linearGradient
         id="linearGradient16177"
         gradientUnits="userSpaceOnUse"
         x1="-32.429001"
         y1="73.095001"
         x2="-32.292999"
         y2="66.244003"
         gradientTransform="matrix(0.526,0,0,-0.526,130.306,130.092)">
        <stop
           offset="0"
           stop-color="#fff"
           id="stop16173" />
        <stop
           offset="1"
           stop-color="#fff"
           stop-opacity="0"
           id="stop16175" />
      </linearGradient>
      <path
         opacity="0.286"
         fill="url(#j)"
         enable-background="new"
         d="m 117.8,93.8 c 0,0.8 -2,1.4 -4.6,1.4 -2.5,0 -4.6,-0.6 -4.6,-1.4 0,-0.8 2,-1.4 4.6,-1.4 2.6,0 4.6,0.6 4.6,1.4 z"
         id="path6631"
         style="fill:url(#j)" />
      <g
         opacity="0.621"
         enable-background="new"
         id="g6640">
        <linearGradient
           id="linearGradient16184"
           gradientUnits="userSpaceOnUse"
           x1="112.548"
           y1="76.804001"
           x2="112.548"
           y2="71.973999"
           gradientTransform="matrix(0.709,0,0,-1.134,33.501,178.262)">
          <stop
             offset="0"
             stop-color="#fff"
             id="stop16180" />
          <stop
             offset="1"
             stop-color="#fff"
             stop-opacity="0"
             id="stop16182" />
        </linearGradient>
        <path
           fill="url(#k)"
           d="m 119.4,95.4 c 0,1.7 -2.8,3 -6.1,3 -3.4,0 -6.1,-1.4 -6.1,-3 0,-1.7 2.8,-3 6.1,-3 3.4,0 6.1,1.4 6.1,3 z"
           id="path6638"
           style="fill:url(#k)" />
      </g>
      <g
         id="g6649">
        <radialGradient
           id="radialGradient16192"
           cx="-34.115002"
           cy="13.297"
           r="15.297"
           gradientTransform="matrix(0.526,0,0,-0.078,130.969,98.77)"
           gradientUnits="userSpaceOnUse">
          <stop
             offset="0"
             stop-color="#fff"
             id="stop16188" />
          <stop
             offset="1"
             stop-color="#fff"
             stop-opacity="0"
             id="stop16190" />
        </radialGradient>
        <path
           fill="url(#l)"
           d="m 104.9,97.1 c 2.2,2 14.2,3 16.2,-0.6 -3.9,2.8 -12.5,1.8 -16.2,0.6 z"
           id="path6647"
           style="fill:url(#l)" />
      </g>
      <linearGradient
         id="linearGradient16200"
         gradientUnits="userSpaceOnUse"
         x1="-643.91199"
         y1="327.836"
         x2="-643.77698"
         y2="320.98401"
         gradientTransform="matrix(0.203,-0.103,-0.238,-0.469,311.261,190.221)">
        <stop
           offset="0"
           stop-color="#fff"
           id="stop16196" />
        <stop
           offset="1"
           stop-color="#fff"
           stop-opacity="0"
           id="stop16198" />
      </linearGradient>
      <path
         opacity="0.286"
         fill="url(#m)"
         enable-background="new"
         d="m 104.9,103.8 c 0.4,0.9 0.2,1.9 -0.6,2.3 -0.8,0.4 -1.8,0 -2.2,-0.8 -0.4,-0.9 -0.2,-1.9 0.6,-2.3 0.8,-0.5 1.8,-0.1 2.2,0.8 z"
         id="path6656"
         style="fill:url(#m)" />
      <g
         opacity="0.621"
         enable-background="new"
         id="g6665">
        <linearGradient
           id="linearGradient16207"
           gradientUnits="userSpaceOnUse"
           x1="-341.63501"
           y1="195.138"
           x2="-341.63501"
           y2="190.308"
           gradientTransform="matrix(0.273,-0.139,-0.513,-1.011,295.216,251.45)">
          <stop
             offset="0"
             stop-color="#fff"
             id="stop16203" />
          <stop
             offset="1"
             stop-color="#fff"
             stop-opacity="0"
             id="stop16205" />
        </linearGradient>
        <path
           fill="url(#n)"
           d="m 105.8,104.2 c 0.7,1.3 0.3,2.8 -0.9,3.4 -1.2,0.6 -2.6,0 -3.3,-1.3 -0.7,-1.3 -0.3,-2.8 0.9,-3.4 1.2,-0.6 2.6,0 3.3,1.3 z"
           id="path6663"
           style="fill:url(#n)" />
      </g>
      <g
         id="g6674">
        <radialGradient
           id="radialGradient16215"
           cx="-645.599"
           cy="1737.484"
           r="15.297"
           gradientTransform="matrix(0.203,-0.103,-0.035,-0.069,297.352,162.155)"
           gradientUnits="userSpaceOnUse">
          <stop
             offset="0"
             stop-color="#fff"
             id="stop16211" />
          <stop
             offset="1"
             stop-color="#fff"
             stop-opacity="0"
             id="stop16213" />
        </radialGradient>
        <path
           fill="url(#o)"
           d="m 101.9,107.8 c 1.7,1.4 8.3,1.5 5.8,-2.4 0.7,3.1 -3.8,2.8 -5.8,2.4 z"
           id="path6672"
           style="fill:url(#o)" />
      </g>
      <radialGradient
         id="radialGradient16223"
         cx="-185.187"
         cy="69.660004"
         r="24.691999"
         gradientTransform="matrix(0.526,0,0,-0.214,130.969,105.831)"
         gradientUnits="userSpaceOnUse">
        <stop
           offset="0"
           stop-color="#fff"
           stop-opacity=".33"
           id="stop16219" />
        <stop
           offset="1"
           stop-color="#fff"
           stop-opacity="0"
           id="stop16221" />
      </radialGradient>
      <path
         fill="url(#p)"
         d="M 21,87.3 C 21,87 43.4,94.1 47.2,98 44.1,94.9 28.1,87.9 25.7,87.8 23.3,87.7 21.3,87.5 21,87.3 Z"
         id="path6681"
         style="fill:url(#p)" />
      <g
         transform="matrix(0.879,-0.193,0.234,0.696,-20.21,36.726)"
         id="g6699">
        <linearGradient
           id="linearGradient16230"
           gradientUnits="userSpaceOnUse"
           x1="-136.743"
           y1="250.438"
           x2="-136.60699"
           y2="243.586"
           gradientTransform="matrix(0.463,0.102,0.123,-0.366,65.856,208.72)">
          <stop
             offset="0"
             stop-color="#fff"
             id="stop16226" />
          <stop
             offset="1"
             stop-color="#fff"
             stop-opacity="0"
             id="stop16228" />
        </linearGradient>
        <path
           opacity="0.286"
           fill="url(#q)"
           enable-background="new"
           d="m 38,105.3 c 0,0.8 -2,1.4 -4.6,1.4 -2.6,0 -4.6,-0.6 -4.6,-1.4 0,-0.8 2,-1.4 4.6,-1.4 2.6,0 4.6,0.6 4.6,1.4 z"
           id="path6688"
           style="fill:url(#q)" />
        <g
           opacity="0.621"
           enable-background="new"
           id="g6697">
          <linearGradient
             id="linearGradient16237"
             gradientUnits="userSpaceOnUse"
             x1="60.342999"
             y1="183.942"
             x2="60.342999"
             y2="179.112"
             gradientTransform="matrix(0.623,0.219,0.166,-0.789,-34.636,234.581)">
            <stop
               offset="0"
               stop-color="#fff"
               id="stop16233" />
            <stop
               offset="1"
               stop-color="#fff"
               stop-opacity="0"
               id="stop16235" />
          </linearGradient>
          <path
             fill="url(#r)"
             d="m 39.6,106.9 c 0,1.7 -2.8,3 -6.1,3 -3.3,0 -6.1,-1.4 -6.1,-3 0,-1.7 2.8,-3 6.1,-3 3.3,0 6.1,1.3 6.1,3 z"
             id="path6695"
             style="fill:url(#r)" />
        </g>
      </g>
      <g
         opacity="0.616"
         enable-background="new"
         id="g6708">
        <radialGradient
           id="radialGradient16246"
           cx="-62.571999"
           cy="357.021"
           r="11.363"
           gradientTransform="matrix(0.624,-0.173,-0.065,-0.233,95.948,182.007)"
           gradientUnits="userSpaceOnUse">
          <stop
             offset="0"
             stop-color="#fff"
             id="stop16242" />
          <stop
             offset="1"
             stop-color="#fff"
             stop-opacity="0"
             id="stop16244" />
        </radialGradient>
        <path
           fill="url(#s)"
           d="m 28.2,106.3 c 0,0 1.2,3.2 4.5,3.4 3.4,0.2 7.2,-4 7.5,-5.5 -0.6,1.3 -3.8,5.2 -7.9,5.1 -2.4,0 -4.1,-3 -4.1,-3 z"
           id="path6706"
           style="fill:url(#s)" />
      </g>
      <radialGradient
         id="radialGradient16254"
         cx="193.011"
         cy="256.754"
         r="59.424999"
         gradientTransform="matrix(1.712,0,0,-1.685,-261.607,451.789)"
         gradientUnits="userSpaceOnUse">
        <stop
           offset="0"
           stop-color="#fff"
           id="stop16250" />
        <stop
           offset="1"
           stop-color="#fff"
           stop-opacity="0"
           id="stop16252" />
      </radialGradient>
      <path
         stroke="url(#t)"
         stroke-width="0.488"
         d="m 63.4,6.5 c -3.4,0 -6.7,1.2 -9,3.6 L 9.7,55.9 C 5.6,60 4.6,62.7 4.9,64.2 5,65 5.4,65.6 6.2,66.3 c 0.8,0.7 2,1.4 3.4,2 2.9,1.2 6.7,2.2 10.5,3.2 3.8,1 7.5,2.1 10.3,3.9 0.4,0.3 0.8,0.6 1.1,1.1 0.3,0.5 0.4,1.1 0.3,1.7 -0.2,1.1 -0.9,1.7 -1.6,2.2 -1.4,1.1 -3.3,1.9 -5.2,2.8 -1.9,0.9 -3.8,1.9 -4.8,2.6 -0.5,0.4 -0.7,0.7 -0.6,0.7 0,0 -0.1,-0.3 0.1,-0.1 0.6,0.6 2.5,1.7 4.9,2.6 2.4,0.9 5.3,1.9 8.2,2.8 2.9,1 5.9,1.9 8.4,2.9 2.5,1 4.6,1.9 5.9,3.3 0.7,0.7 1.2,1.6 1.3,2.4 0.1,0.9 -0.1,1.7 -0.5,2.4 -0.7,1.4 -1.8,2.5 -2.7,3.5 -1,1 -1.9,2 -2.2,2.7 -0.2,0.3 -0.2,0.5 -0.2,0.7 0,0.1 0,0.3 0.3,0.6 1.3,1.4 4.1,1.6 7.3,2.3 1.6,0.4 3.3,0.9 4.7,2.2 1.4,1.3 2.5,3.1 3,5.7 0.2,1.1 0.8,1.6 2.1,2 1.4,0.4 3.5,0.5 5.8,0.2 4.6,-0.7 10.1,-2.9 13.2,-5.5 l 0.2,-0.2 c -0.2,-0.2 -0.7,-0.5 -1.5,-0.9 -1,-0.5 -2.1,-0.9 -3,-2 -0.4,-0.6 -0.7,-1.4 -0.6,-2.3 0.1,-0.9 0.6,-1.6 1.2,-2.2 5.2,-5.2 10.2,-6.5 14,-7.5 1.9,-0.5 3.5,-1 4.7,-1.7 1.2,-0.8 2.2,-1.8 3,-3.8 0.1,-0.2 0.1,-0.3 0,-0.5 -0.1,-0.3 -0.4,-0.7 -0.9,-1.1 -1,-0.9 -2.7,-1.8 -4.4,-2.8 -1.7,-0.9 -3.3,-1.8 -4.5,-2.9 -0.6,-0.6 -1.2,-1.2 -1.3,-2.3 -0.1,-1.1 0.6,-2 1.4,-2.6 3,-2.1 7.5,-3.7 12.4,-5.4 4.9,-1.7 10.2,-3.5 14.4,-5.5 4.3,-2 7.4,-4.3 8.4,-6.6 0.5,-1.2 0.6,-2.3 0.1,-3.9 -0.5,-1.6 -1.7,-3.4 -3.9,-5.5 L 72.7,10.2 C 70.1,7.7 66.7,6.5 63.4,6.5 Z m 49.8,86.9 c -2.9,0.1 -5.5,1.4 -6.6,3.5 0.3,0.1 0.6,0.3 1.1,0.4 1.5,0.3 3.6,0.6 5.6,0.6 2,0 4.1,-0.1 5.4,-0.5 0.5,-0.2 0.8,-0.3 1,-0.4 -0.3,-1.2 -0.9,-2 -2.1,-2.6 -1.1,-0.8 -2.8,-1.1 -4.4,-1 z m -76.5,9.8 c -2.3,-0.2 -5.1,0.7 -6.5,1.9 -0.7,0.6 -1,1.1 -1,1.4 0,0.3 0.1,0.8 1,1.6 1.5,1.3 3.1,1.1 5,0.1 1.6,-0.9 3,-2.5 3.9,-4.2 -0.6,-0.4 -1.4,-0.7 -2.4,-0.8 z m 66.2,0.7 c -0.5,0.6 -0.7,1.2 -0.8,1.6 0,0.6 0.1,1 0.5,1.4 0.8,0.8 2.5,1.1 4.3,0.1 0,-0.2 -0.1,-0.5 -0.4,-0.9 -0.4,-0.8 -1.7,-1.7 -3.6,-2.2 z"
         fill="none"
         id="path6715"
         style="stroke:url(#t)" />
      <g
         opacity="0.325"
         enable-background="new"
         id="g6724">
        <linearGradient
           id="linearGradient16261"
           gradientUnits="userSpaceOnUse"
           x1="-224.589"
           y1="68.903"
           x2="-161.63699"
           y2="52.257999"
           gradientTransform="matrix(0.485,0,0,-0.485,149.184,125.791)">
          <stop
             offset="0"
             stop-color="#fff"
             id="stop16257" />
          <stop
             offset="1"
             stop-color="#fff"
             stop-opacity="0"
             id="stop16259" />
        </linearGradient>
        <path
           fill="url(#u)"
           d="m 38.8,78.2 c -2.7,0.8 -11.4,4.1 -10.2,6.6 1.2,2.4 21.5,3.4 24.6,10.6 1.4,3.1 -3.1,5.5 -2,8.7 0.9,2.5 7.6,8.7 11.9,11.7 3.4,2.3 7.8,-1.9 6,-5.3 C 66.3,105 79,98.3 84.7,95.2 88,93.4 77.8,84.6 77.8,84.6 Z"
           id="path6722"
           style="fill:url(#u)" />
      </g>
      <linearGradient
         id="linearGradient16269"
         gradientUnits="userSpaceOnUse"
         x1="13.153"
         y1="197.76801"
         x2="9.2530003"
         y2="188.832"
         gradientTransform="matrix(0.88,0,0,-0.88,42.035,252.063)">
        <stop
           offset="0"
           stop-color="#EEEEEC"
           id="stop16265" />
        <stop
           offset="1"
           stop-color="#EEEEEC"
           stop-opacity="0"
           id="stop16267" />
      </linearGradient>
      <path
         fill="url(#v)"
         d="m 39.8,80.7 c 2.4,1.8 7.2,0.7 10.1,2 6.9,3.1 15.4,6.6 13.8,0.4 L 62,84.6 v -2.8 l -4.1,1 c 0,0 -3.2,-2.5 -4.6,-3.4 -0.3,-0.2 -1.9,1.4 -1.9,1.4 l -0.3,-1.7 c -2,-0.2 -4,-0.3 -5.8,-0.3 -4.2,0.1 -7,0.7 -5.5,1.9 z"
         id="path6731"
         style="fill:url(#v)" />
      <g
         opacity="0.478"
         enable-background="new"
         id="g6740">
        <radialGradient
           id="radialGradient16276"
           cx="26.356001"
           cy="55.589001"
           r="24.385"
           gradientTransform="matrix(0.656,0,0,-0.834,66.991,147.128)"
           gradientUnits="userSpaceOnUse">
          <stop
             offset="0"
             stop-color="#fff"
             id="stop16272" />
          <stop
             offset="1"
             stop-color="#fff"
             stop-opacity="0"
             id="stop16274" />
        </radialGradient>
        <path
           fill="url(#w)"
           d="m 85.1,86.3 c -0.9,3.4 11.5,8.1 10.5,10.5 -2,5.2 -13.2,1.7 -21.8,12.6 -1.2,1.6 1.7,7.2 1.3,6.5 -0.4,-0.7 -3.4,-5.3 -2.6,-7.6 2.4,-7.1 26,-9.8 21.7,-13.2 -2.5,-1.9 -11.4,-7.3 -9.1,-8.8 z"
           id="path6738"
           style="fill:url(#w)" />
      </g>
      <path
         opacity="0.586"
         fill="#ffffff"
         enable-background="new"
         d="m 113,93.4 c 0,0.3 -0.6,0.6 -1.4,0.6 -0.8,0 -1.4,-0.3 -1.4,-0.6 0,-0.3 0.6,-0.6 1.4,-0.6 0.8,0 1.4,0.3 1.4,0.6 z"
         id="path6742" />
      <path
         opacity="0.586"
         fill="#ffffff"
         enable-background="new"
         d="m 103.9,103.8 c 0,0.3 -0.4,0.6 -0.9,0.6 -0.5,0 -0.9,-0.3 -0.9,-0.6 0,-0.3 0.4,-0.6 0.9,-0.6 0.5,0 0.9,0.3 0.9,0.6 z"
         id="path6744" />
      <path
         opacity="0.586"
         fill="#ffffff"
         enable-background="new"
         d="m 35.2,103.3 c 0,0.3 -0.7,0.6 -1.5,0.6 -0.8,0 -1.5,-0.3 -1.5,-0.6 0,-0.3 0.7,-0.6 1.5,-0.6 0.8,0 1.5,0.3 1.5,0.6 z"
         id="path6746" />
      <linearGradient
         id="linearGradient16287"
         gradientUnits="userSpaceOnUse"
         x1="-245.694"
         y1="88.661003"
         x2="-235.88"
         y2="80.863998"
         gradientTransform="matrix(0.49,0,0,-0.49,147.66,125.008)">
        <stop
           offset="0"
           stop-color="#fff"
           id="stop16283" />
        <stop
           offset="1"
           stop-color="#fff"
           stop-opacity="0"
           id="stop16285" />
      </linearGradient>
      <path
         opacity="0.251"
         fill="url(#x)"
         enable-background="new"
         d="m 34.3,78.5 c -7.8,4.8 -19.8,6.5 -6.6,9.7 -1.6,-3.5 3.4,-3.1 6.6,-9.7 z"
         id="path6753"
         style="fill:url(#x)" />
      <g
         opacity="0.363"
         enable-background="new"
         id="g6762">
        <linearGradient
           id="linearGradient16294"
           gradientUnits="userSpaceOnUse"
           x1="-115.448"
           y1="55.254002"
           x2="-144.875"
           y2="134.487"
           gradientTransform="matrix(0.485,0,0,-0.485,149.184,125.791)">
          <stop
             offset="0"
             stop-color="#729FCF"
             id="stop16290" />
          <stop
             offset="1"
             stop-color="#729FCF"
             stop-opacity="0"
             id="stop16292" />
        </linearGradient>
        <path
           fill="url(#y)"
           d="m 61.9,122.2 c 0,0 12,-1.1 14.7,-4.6 1.6,-2 -6.4,-4.4 -4.7,-6.4 6.5,-7.4 12,-7.1 19.6,-10.3 7.6,-3.1 4.8,-4.6 2.3,-6 -4.2,-2.3 -13.6,-4.8 -10.5,-10.4 3.1,-5.6 30.4,-13.4 30.4,-13.4 8.3,-2.8 7.2,-7.9 3.2,-12.2 L 92.6,34.8 c 0,0 1.2,23 -3.7,32.9 -6.1,12.1 -38.4,25.7 -24.9,27.2 4.8,0.5 7.1,2.2 9,5.8 4,7.6 -11.1,21.5 -11.1,21.5 z"
           id="path6760"
           style="fill:url(#y)" />
      </g>
    </g>
  </g>
</svg>
