<?xml version="1.0" encoding="UTF-8" standalone="no"?>
<svg
   xmlns:dc="http://purl.org/dc/elements/1.1/"
   xmlns:cc="http://creativecommons.org/ns#"
   xmlns:rdf="http://www.w3.org/1999/02/22-rdf-syntax-ns#"
   xmlns:svg="http://www.w3.org/2000/svg"
   xmlns="http://www.w3.org/2000/svg"
   xmlns:sodipodi="http://sodipodi.sourceforge.net/DTD/sodipodi-0.dtd"
   xmlns:inkscape="http://www.inkscape.org/namespaces/inkscape"
   width="24"
   height="24"
   viewBox="0 0 6.3499999 6.3499999"
   version="1.1"
   id="svg10908"
   inkscape:version="1.0.1 (3bc2e813f5, 2020-09-07)"
   sodipodi:docname="dotnet-circle-filled.svg">
  <title
     id="title11486">dotnet-circle-filled</title>
  <defs
     id="defs10902" />
  <sodipodi:namedview
     id="base"
     pagecolor="#ffffff"
     bordercolor="#666666"
     borderopacity="1.0"
     inkscape:pageopacity="0.0"
     inkscape:pageshadow="2"
     inkscape:zoom="22.4"
     inkscape:cx="11.239633"
     inkscape:cy="11.063399"
     inkscape:document-units="mm"
     inkscape:current-layer="layer1"
     inkscape:document-rotation="0"
     showgrid="false"
     units="px"
     inkscape:window-width="1140"
     inkscape:window-height="1368"
     inkscape:window-x="1411"
     inkscape:window-y="0"
     inkscape:window-maximized="0"
     inkscape:snap-center="true"
     inkscape:snap-object-midpoints="true"
     inkscape:snap-page="true"
     inkscape:snap-intersection-paths="true"
     inkscape:snap-smooth-nodes="false"
     showguides="true"
     inkscape:guide-bbox="true"
     inkscape:snap-bbox="true"
     inkscape:bbox-paths="true"
     inkscape:bbox-nodes="true"
     inkscape:snap-bbox-edge-midpoints="true"
     inkscape:snap-bbox-midpoints="true">
    <sodipodi:guide
       position="0,6.3499999"
       orientation="1,0"
       id="guide11518" />
  </sodipodi:namedview>
  <metadata
     id="metadata10905">
    <rdf:RDF>
      <cc:Work
         rdf:about="">
        <dc:format>image/svg+xml</dc:format>
        <dc:type
           rdf:resource="http://purl.org/dc/dcmitype/StillImage" />
        <dc:title>dotnet-circle-filled</dc:title>
      </cc:Work>
    </rdf:RDF>
  </metadata>
  <g
     inkscape:label="Layer 1"
     inkscape:groupmode="layer"
     id="layer1"
     transform="translate(-109.4619,-112.48571)">
    <path
       id="circle-11-6"
       style="fill:#000000;fill-opacity:1;fill-rule:evenodd;stroke:none;stroke-width:0.0916501"
       d="m 112.6369,112.48571 a 3.175,3.1749997 0 0 0 -3.175,3.175 3.175,3.1749997 0 0 0 3.175,3.175 3.175,3.1749997 0 0 0 3.175,-3.175 3.175,3.1749997 0 0 0 -3.175,-3.175 z m 2.30787,2.23759 c 0.0104,0 0.0208,7.9e-4 0.0357,0.002 -0.005,0.0113 -0.007,0.0195 -0.0114,0.0269 -0.073,0.13045 -0.14447,0.26205 -0.21962,0.39119 -0.13087,0.22484 -0.2619,0.44943 -0.39688,0.67179 -0.0866,0.14259 -0.1808,0.28083 -0.28732,0.4098 -0.0786,0.0951 -0.16117,0.186 -0.26665,0.25269 -0.0719,0.0455 -0.14851,0.0722 -0.23565,0.0718 -0.30907,-0.001 -0.61851,-8e-4 -0.92759,-0.001 -0.0919,-1.5e-4 -0.17043,-0.0352 -0.23719,-0.0971 -0.0957,-0.0889 -0.15272,-0.2021 -0.19947,-0.32143 -0.0853,-0.21786 -0.13278,-0.44646 -0.18759,-0.67283 -0.0257,-0.10596 -0.0549,-0.21082 -0.0827,-0.31626 -0.002,-0.007 -0.005,-0.0135 -0.009,-0.0233 l -0.0217,0.0202 c -0.12052,0.11974 -0.22645,0.25194 -0.32143,0.39222 -0.0259,0.0383 -0.0347,0.0884 -0.0491,0.13384 -0.0532,0.1669 -0.10158,0.33542 -0.15917,0.50075 -0.0551,0.15837 -0.15396,0.2847 -0.3085,0.35915 -0.0904,0.0435 -0.18656,0.0671 -0.28681,0.0692 -0.1486,0.003 -0.29732,0.004 -0.44596,0.005 -0.0355,2.6e-4 -0.0372,-0.002 -0.0279,-0.0367 0.0637,-0.23665 0.14428,-0.46721 0.24546,-0.6904 0.10432,-0.23026 0.22709,-0.45007 0.38189,-0.6506 0.1054,-0.13655 0.22173,-0.26235 0.36742,-0.3576 0.0739,-0.0483 0.15247,-0.0865 0.24185,-0.0966 0.0147,-0.002 0.0296,-0.003 0.0444,-0.003 0.31654,-1.5e-4 0.63331,0.003 0.94981,-0.002 0.16977,-0.002 0.29244,0.0695 0.38448,0.20619 0.0572,0.085 0.0983,0.17752 0.1328,0.27337 0.0695,0.19333 0.11296,0.39368 0.16175,0.59272 0.0279,0.11392 0.0586,0.2271 0.0884,0.34055 0.002,0.009 0.006,0.0169 0.009,0.0253 l 0.007,5.3e-4 c 0.0179,-0.046 0.0381,-0.0911 0.0532,-0.13798 0.0854,-0.26499 0.17021,-0.53039 0.25425,-0.79581 0.0323,-0.10196 0.0677,-0.20228 0.13125,-0.28991 0.10051,-0.13848 0.24048,-0.21132 0.40618,-0.23668 0.065,-0.01 0.1311,-0.0144 0.19689,-0.015 0.19665,-0.002 0.39346,-5.3e-4 0.59014,-5.3e-4 z" />
  </g>
</svg>
