<?xml version="1.0" encoding="UTF-8" standalone="no"?>
<svg
   xmlns:dc="http://purl.org/dc/elements/1.1/"
   xmlns:cc="http://creativecommons.org/ns#"
   xmlns:rdf="http://www.w3.org/1999/02/22-rdf-syntax-ns#"
   xmlns:svg="http://www.w3.org/2000/svg"
   xmlns="http://www.w3.org/2000/svg"
   xmlns:sodipodi="http://sodipodi.sourceforge.net/DTD/sodipodi-0.dtd"
   xmlns:inkscape="http://www.inkscape.org/namespaces/inkscape"
   width="24"
   height="24"
   viewBox="0 0 6.3499999 6.3499999"
   version="1.1"
   id="svg10908"
   inkscape:version="1.0.1 (3bc2e813f5, 2020-09-07)"
   sodipodi:docname="dotnet-square-filled.svg">
  <title
     id="title11486">dotnet-square-filled</title>
  <defs
     id="defs10902" />
  <sodipodi:namedview
     id="base"
     pagecolor="#ffffff"
     bordercolor="#666666"
     borderopacity="1.0"
     inkscape:pageopacity="0.0"
     inkscape:pageshadow="2"
     inkscape:zoom="22.4"
     inkscape:cx="11.239633"
     inkscape:cy="11.063399"
     inkscape:document-units="mm"
     inkscape:current-layer="layer1"
     inkscape:document-rotation="0"
     showgrid="false"
     units="px"
     inkscape:window-width="1140"
     inkscape:window-height="1368"
     inkscape:window-x="1411"
     inkscape:window-y="0"
     inkscape:window-maximized="0"
     inkscape:snap-center="true"
     inkscape:snap-object-midpoints="true"
     inkscape:snap-page="true"
     inkscape:snap-intersection-paths="true"
     inkscape:snap-smooth-nodes="false"
     showguides="true"
     inkscape:guide-bbox="true"
     inkscape:snap-bbox="true"
     inkscape:bbox-paths="true"
     inkscape:bbox-nodes="true"
     inkscape:snap-bbox-edge-midpoints="true"
     inkscape:snap-bbox-midpoints="true">
    <sodipodi:guide
       position="0,6.3499999"
       orientation="1,0"
       id="guide11518" />
  </sodipodi:namedview>
  <metadata
     id="metadata10905">
    <rdf:RDF>
      <cc:Work
         rdf:about="">
        <dc:format>image/svg+xml</dc:format>
        <dc:type
           rdf:resource="http://purl.org/dc/dcmitype/StillImage" />
        <dc:title>dotnet-square-filled</dc:title>
      </cc:Work>
    </rdf:RDF>
  </metadata>
  <g
     inkscape:label="Layer 1"
     inkscape:groupmode="layer"
     id="layer1"
     transform="translate(-109.4619,-112.48571)">
    <path
       id="square-3-4"
       style="fill:#000000;fill-opacity:1;fill-rule:evenodd;stroke:none;stroke-width:0.0694534"
       d="m 109.4619,112.48571 v 6.35 h 6.35 v -6.35 z m 5.48287,2.23759 c 0.0104,0 0.0208,7.9e-4 0.0357,0.002 -0.005,0.0113 -0.007,0.0195 -0.0114,0.0269 -0.073,0.13045 -0.14446,0.26204 -0.21962,0.39119 -0.13087,0.22485 -0.2619,0.44942 -0.39688,0.67179 -0.0866,0.14259 -0.1808,0.28083 -0.28732,0.40979 -0.0786,0.0951 -0.16117,0.18602 -0.26665,0.2527 -0.0719,0.0455 -0.1485,0.0717 -0.23564,0.0713 -0.30907,-10e-4 -0.61852,-2.5e-4 -0.9276,-5.3e-4 -0.0919,-1.7e-4 -0.17043,-0.0352 -0.23719,-0.0972 -0.0957,-0.0889 -0.15272,-0.2021 -0.19947,-0.32142 -0.0853,-0.21787 -0.13278,-0.44645 -0.18759,-0.67283 -0.0257,-0.10595 -0.0554,-0.21081 -0.0832,-0.31626 -0.002,-0.007 -0.005,-0.0135 -0.009,-0.0233 l -0.0217,0.0202 c -0.12052,0.11974 -0.22645,0.25194 -0.32143,0.39223 -0.0259,0.0383 -0.0347,0.0884 -0.0491,0.13384 -0.0532,0.16691 -0.10158,0.33541 -0.15916,0.50075 -0.0551,0.15835 -0.15397,0.28469 -0.30851,0.35915 -0.0904,0.0435 -0.18655,0.0671 -0.2868,0.0692 -0.1486,0.003 -0.29733,0.004 -0.44597,0.005 -0.0355,2.6e-4 -0.0372,-0.002 -0.0279,-0.0367 0.0637,-0.23665 0.14429,-0.46721 0.24547,-0.6904 0.10432,-0.23026 0.22708,-0.45008 0.38188,-0.65061 0.10541,-0.13654 0.22174,-0.26234 0.36743,-0.35759 0.0739,-0.0483 0.15246,-0.0865 0.24184,-0.0966 0.0147,-0.002 0.0296,-0.003 0.0444,-0.003 0.31654,-1.4e-4 0.63332,0.003 0.94982,-0.002 0.16977,-0.002 0.29243,0.0695 0.38447,0.20618 0.0572,0.085 0.0984,0.17752 0.13281,0.27337 0.0695,0.19333 0.11244,0.39369 0.16123,0.59273 0.0279,0.11392 0.0591,0.22709 0.0889,0.34055 0.002,0.009 0.006,0.0169 0.009,0.0253 l 0.007,5.3e-4 c 0.0179,-0.046 0.0381,-0.0911 0.0532,-0.13798 0.0854,-0.26499 0.17021,-0.5304 0.25425,-0.79581 0.0323,-0.10196 0.0677,-0.20228 0.13126,-0.28991 0.10051,-0.13847 0.24047,-0.21133 0.40617,-0.23668 0.065,-0.01 0.1311,-0.0144 0.19689,-0.015 0.19665,-0.002 0.39347,-5.3e-4 0.59015,-5.3e-4 z" />
  </g>
</svg>
