<?xml version="1.0" encoding="UTF-8" standalone="no"?>
<svg
   xmlns:dc="http://purl.org/dc/elements/1.1/"
   xmlns:cc="http://creativecommons.org/ns#"
   xmlns:rdf="http://www.w3.org/1999/02/22-rdf-syntax-ns#"
   xmlns:svg="http://www.w3.org/2000/svg"
   xmlns="http://www.w3.org/2000/svg"
   xmlns:sodipodi="http://sodipodi.sourceforge.net/DTD/sodipodi-0.dtd"
   xmlns:inkscape="http://www.inkscape.org/namespaces/inkscape"
   width="24"
   height="24"
   viewBox="0 0 6.3499999 6.3499999"
   version="1.1"
   id="svg10908"
   inkscape:version="1.0.1 (3bc2e813f5, 2020-09-07)"
   sodipodi:docname="dotnet-roundedsquare-filled.svg">
  <title
     id="title11486">dotnet-roundedsquare-filled</title>
  <defs
     id="defs10902" />
  <sodipodi:namedview
     id="base"
     pagecolor="#ffffff"
     bordercolor="#666666"
     borderopacity="1.0"
     inkscape:pageopacity="0.0"
     inkscape:pageshadow="2"
     inkscape:zoom="22.4"
     inkscape:cx="11.239633"
     inkscape:cy="11.063399"
     inkscape:document-units="mm"
     inkscape:current-layer="layer1"
     inkscape:document-rotation="0"
     showgrid="false"
     units="px"
     inkscape:window-width="1140"
     inkscape:window-height="1368"
     inkscape:window-x="1411"
     inkscape:window-y="0"
     inkscape:window-maximized="0"
     inkscape:snap-center="true"
     inkscape:snap-object-midpoints="true"
     inkscape:snap-page="true"
     inkscape:snap-intersection-paths="true"
     inkscape:snap-smooth-nodes="false"
     showguides="true"
     inkscape:guide-bbox="true"
     inkscape:snap-bbox="true"
     inkscape:bbox-paths="true"
     inkscape:bbox-nodes="true"
     inkscape:snap-bbox-edge-midpoints="true"
     inkscape:snap-bbox-midpoints="true">
    <sodipodi:guide
       position="0,6.3499999"
       orientation="1,0"
       id="guide11518" />
  </sodipodi:namedview>
  <metadata
     id="metadata10905">
    <rdf:RDF>
      <cc:Work
         rdf:about="">
        <dc:format>image/svg+xml</dc:format>
        <dc:type
           rdf:resource="http://purl.org/dc/dcmitype/StillImage" />
        <dc:title>dotnet-roundedsquare-filled</dc:title>
      </cc:Work>
    </rdf:RDF>
  </metadata>
  <g
     inkscape:label="Layer 1"
     inkscape:groupmode="layer"
     id="layer1"
     transform="translate(-109.4619,-112.48571)">
    <path
       id="roundedsquare-7-3"
       style="fill:#000000;fill-opacity:1;fill-rule:evenodd;stroke:none;stroke-width:0.0694534"
       d="m 109.99107,112.48571 c -0.29316,0 -0.52917,0.23602 -0.52917,0.52917 v 5.29166 c 0,0.29316 0.23601,0.52917 0.52917,0.52917 h 5.29166 c 0.29316,0 0.52917,-0.23601 0.52917,-0.52917 v -5.29166 c 0,-0.29315 -0.23601,-0.52917 -0.52917,-0.52917 z m 4.95422,2.23759 c 0.0104,0 0.0208,7.9e-4 0.0357,0.002 -0.005,0.0113 -0.007,0.0195 -0.0119,0.0269 -0.073,0.13045 -0.14446,0.26153 -0.21962,0.39067 -0.13087,0.22485 -0.2619,0.44994 -0.39687,0.67231 -0.0866,0.14259 -0.18029,0.28084 -0.28681,0.4098 -0.0786,0.0951 -0.1617,0.18601 -0.26717,0.25269 -0.0719,0.0455 -0.1485,0.0717 -0.23564,0.0713 -0.30907,-10e-4 -0.61801,-2.5e-4 -0.92708,-5.3e-4 -0.0919,-1.5e-4 -0.17044,-0.0352 -0.23719,-0.0971 -0.0957,-0.0889 -0.15323,-0.2021 -0.19999,-0.32143 -0.0853,-0.21786 -0.13277,-0.44645 -0.18758,-0.67283 -0.0257,-0.10595 -0.0549,-0.21081 -0.0827,-0.31626 -0.002,-0.007 -0.005,-0.0135 -0.009,-0.0232 l -0.0212,0.0202 c -0.12051,0.11974 -0.22697,0.25194 -0.32195,0.39222 -0.0259,0.0383 -0.0342,0.0884 -0.0486,0.13384 -0.0532,0.1669 -0.10209,0.33542 -0.15968,0.50075 -0.0551,0.15837 -0.15397,0.2847 -0.30851,0.35915 -0.0904,0.0435 -0.18655,0.0666 -0.2868,0.0687 -0.1486,0.003 -0.29733,0.004 -0.44597,0.005 -0.0355,2.6e-4 -0.0372,-0.002 -0.0279,-0.0367 0.0637,-0.23664 0.14429,-0.4672 0.24547,-0.69039 0.10432,-0.23026 0.2276,-0.45008 0.3824,-0.65061 0.1054,-0.13655 0.22173,-0.26235 0.36742,-0.3576 0.0739,-0.0483 0.15247,-0.0865 0.24185,-0.0966 0.0147,-0.002 0.0296,-0.003 0.0444,-0.003 0.31653,-1.5e-4 0.6328,0.003 0.9493,-0.002 0.16976,-0.002 0.29294,0.0695 0.38499,0.20619 0.0572,0.085 0.0978,0.17752 0.13229,0.27337 0.0695,0.19333 0.11294,0.39369 0.16174,0.59273 0.0279,0.11392 0.0591,0.2271 0.0889,0.34055 0.002,0.009 0.006,0.0169 0.009,0.0253 l 0.007,5.3e-4 c 0.0179,-0.046 0.0386,-0.0916 0.0537,-0.1385 0.0854,-0.26499 0.16969,-0.52988 0.25374,-0.7953 0.0323,-0.10196 0.0677,-0.20227 0.13125,-0.2899 0.10051,-0.13847 0.24048,-0.21133 0.40618,-0.23668 0.065,-0.01 0.1316,-0.0144 0.1974,-0.015 0.19664,-0.002 0.39348,-5.3e-4 0.59015,-5.3e-4 z" />
  </g>
</svg>
