<?xml version="1.0" encoding="UTF-8" standalone="no"?>
<svg
   xmlns:dc="http://purl.org/dc/elements/1.1/"
   xmlns:cc="http://creativecommons.org/ns#"
   xmlns:rdf="http://www.w3.org/1999/02/22-rdf-syntax-ns#"
   xmlns:svg="http://www.w3.org/2000/svg"
   xmlns="http://www.w3.org/2000/svg"
   xmlns:xlink="http://www.w3.org/1999/xlink"
   xmlns:sodipodi="http://sodipodi.sourceforge.net/DTD/sodipodi-0.dtd"
   xmlns:inkscape="http://www.inkscape.org/namespaces/inkscape"
   width="24"
   height="24"
   viewBox="0 0 6.3499999 6.3499999"
   version="1.1"
   id="svg10908"
   inkscape:version="1.0.1 (3bc2e813f5, 2020-09-07)"
   sodipodi:docname="dotnet-simple.svg">
  <title
     id="title11486">dotnet-simple</title>
  <defs
     id="defs10902">
    <clipPath
       id="b">
      <use
         xlink:href="#a"
         overflow="visible"
         id="use6568"
         x="0"
         y="0"
         width="100%"
         height="100%" />
    </clipPath>
    <linearGradient
       id="c"
       gradientUnits="userSpaceOnUse"
       x1="98.292999"
       y1="237.026"
       x2="74.286003"
       y2="215.319"
       gradientTransform="matrix(0.985,0,0,-0.985,6.128,272.439)">
      <stop
         offset="0"
         stop-color="#C0CDF9"
         id="stop6571" />
      <stop
         offset="1"
         stop-color="#07092D"
         stop-opacity=".288"
         id="stop6573" />
    </linearGradient>
    <linearGradient
       id="d"
       gradientUnits="userSpaceOnUse"
       x1="33.173"
       y1="245.076"
       x2="60.307999"
       y2="217.94099"
       gradientTransform="matrix(1.003,0,0,-1.003,-0.413,276.586)">
      <stop
         offset="0"
         stop-color="#fff"
         id="stop6580" />
      <stop
         offset="1"
         stop-color="#fff"
         stop-opacity="0"
         id="stop6582" />
    </linearGradient>
    <linearGradient
       id="e"
       gradientUnits="userSpaceOnUse"
       x1="48.612"
       y1="250.177"
       x2="81.172997"
       y2="217.616"
       gradientTransform="matrix(0.994,0,0,-0.994,2.709,274.439)">
      <stop
         offset="0"
         stop-color="#fff"
         id="stop6587" />
      <stop
         offset="1"
         stop-color="#fff"
         stop-opacity="0"
         id="stop6589" />
    </linearGradient>
    <radialGradient
       id="f-8"
       cx="51.136002"
       cy="13.518"
       r="33.212002"
       gradientTransform="matrix(0.827,0,0,-0.553,1.123,126.746)"
       gradientUnits="userSpaceOnUse">
      <stop
         offset="0"
         stop-color="#fff"
         id="stop6594" />
      <stop
         offset="1"
         stop-color="#fff"
         stop-opacity="0"
         id="stop6596" />
    </radialGradient>
    <radialGradient
       id="g"
       cx="147.452"
       cy="14.758"
       r="33.212002"
       gradientTransform="matrix(1.055,0,0,-0.706,-97.55,130.348)"
       gradientUnits="userSpaceOnUse">
      <stop
         offset="0"
         stop-color="#fff"
         id="stop6601" />
      <stop
         offset="1"
         stop-color="#fff"
         stop-opacity="0"
         id="stop6603" />
    </radialGradient>
    <radialGradient
       id="h"
       cx="-53.737"
       cy="94.672997"
       r="37.174"
       gradientTransform="matrix(0.526,0,0,-0.223,130.969,98.356)"
       gradientUnits="userSpaceOnUse">
      <stop
         offset="0"
         stop-color="#fff"
         id="stop6610" />
      <stop
         offset="1"
         stop-color="#fff"
         stop-opacity="0"
         id="stop6612" />
    </radialGradient>
    <radialGradient
       id="i"
       cx="-45.82"
       cy="80.196999"
       r="37.174"
       gradientTransform="matrix(0.526,0,0,-0.223,130.969,97.429)"
       gradientUnits="userSpaceOnUse">
      <stop
         offset="0"
         stop-color="#fff"
         id="stop6617" />
      <stop
         offset="1"
         stop-color="#fff"
         stop-opacity="0"
         id="stop6619" />
    </radialGradient>
    <linearGradient
       id="j"
       gradientUnits="userSpaceOnUse"
       x1="-32.429001"
       y1="73.095001"
       x2="-32.292999"
       y2="66.244003"
       gradientTransform="matrix(0.526,0,0,-0.526,130.306,130.092)">
      <stop
         offset="0"
         stop-color="#fff"
         id="stop6626" />
      <stop
         offset="1"
         stop-color="#fff"
         stop-opacity="0"
         id="stop6628" />
    </linearGradient>
    <linearGradient
       id="k"
       gradientUnits="userSpaceOnUse"
       x1="112.548"
       y1="76.804001"
       x2="112.548"
       y2="71.973999"
       gradientTransform="matrix(0.709,0,0,-1.134,33.501,178.262)">
      <stop
         offset="0"
         stop-color="#fff"
         id="stop6633" />
      <stop
         offset="1"
         stop-color="#fff"
         stop-opacity="0"
         id="stop6635" />
    </linearGradient>
    <radialGradient
       id="l"
       cx="-34.115002"
       cy="13.297"
       r="15.297"
       gradientTransform="matrix(0.526,0,0,-0.078,130.969,98.77)"
       gradientUnits="userSpaceOnUse">
      <stop
         offset="0"
         stop-color="#fff"
         id="stop6642" />
      <stop
         offset="1"
         stop-color="#fff"
         stop-opacity="0"
         id="stop6644" />
    </radialGradient>
    <linearGradient
       id="m"
       gradientUnits="userSpaceOnUse"
       x1="-643.91199"
       y1="327.836"
       x2="-643.77698"
       y2="320.98401"
       gradientTransform="matrix(0.203,-0.103,-0.238,-0.469,311.261,190.221)">
      <stop
         offset="0"
         stop-color="#fff"
         id="stop6651" />
      <stop
         offset="1"
         stop-color="#fff"
         stop-opacity="0"
         id="stop6653" />
    </linearGradient>
    <linearGradient
       id="n"
       gradientUnits="userSpaceOnUse"
       x1="-341.63501"
       y1="195.138"
       x2="-341.63501"
       y2="190.308"
       gradientTransform="matrix(0.273,-0.139,-0.513,-1.011,295.216,251.45)">
      <stop
         offset="0"
         stop-color="#fff"
         id="stop6658" />
      <stop
         offset="1"
         stop-color="#fff"
         stop-opacity="0"
         id="stop6660" />
    </linearGradient>
    <radialGradient
       id="o"
       cx="-645.599"
       cy="1737.484"
       r="15.297"
       gradientTransform="matrix(0.203,-0.103,-0.035,-0.069,297.352,162.155)"
       gradientUnits="userSpaceOnUse">
      <stop
         offset="0"
         stop-color="#fff"
         id="stop6667" />
      <stop
         offset="1"
         stop-color="#fff"
         stop-opacity="0"
         id="stop6669" />
    </radialGradient>
    <radialGradient
       id="p"
       cx="-185.187"
       cy="69.660004"
       r="24.691999"
       gradientTransform="matrix(0.526,0,0,-0.214,130.969,105.831)"
       gradientUnits="userSpaceOnUse">
      <stop
         offset="0"
         stop-color="#fff"
         stop-opacity=".33"
         id="stop6676" />
      <stop
         offset="1"
         stop-color="#fff"
         stop-opacity="0"
         id="stop6678" />
    </radialGradient>
    <linearGradient
       id="q"
       gradientUnits="userSpaceOnUse"
       x1="-136.743"
       y1="250.438"
       x2="-136.60699"
       y2="243.586"
       gradientTransform="matrix(0.463,0.102,0.123,-0.366,65.856,208.72)">
      <stop
         offset="0"
         stop-color="#fff"
         id="stop6683" />
      <stop
         offset="1"
         stop-color="#fff"
         stop-opacity="0"
         id="stop6685" />
    </linearGradient>
    <linearGradient
       id="r"
       gradientUnits="userSpaceOnUse"
       x1="60.342999"
       y1="183.942"
       x2="60.342999"
       y2="179.112"
       gradientTransform="matrix(0.623,0.219,0.166,-0.789,-34.636,234.581)">
      <stop
         offset="0"
         stop-color="#fff"
         id="stop6690" />
      <stop
         offset="1"
         stop-color="#fff"
         stop-opacity="0"
         id="stop6692" />
    </linearGradient>
    <radialGradient
       id="s"
       cx="-62.571999"
       cy="357.021"
       r="11.363"
       gradientTransform="matrix(0.624,-0.173,-0.065,-0.233,95.948,182.007)"
       gradientUnits="userSpaceOnUse">
      <stop
         offset="0"
         stop-color="#fff"
         id="stop6701" />
      <stop
         offset="1"
         stop-color="#fff"
         stop-opacity="0"
         id="stop6703" />
    </radialGradient>
    <radialGradient
       id="t"
       cx="193.011"
       cy="256.754"
       r="59.424999"
       gradientTransform="matrix(1.712,0,0,-1.685,-261.607,451.789)"
       gradientUnits="userSpaceOnUse">
      <stop
         offset="0"
         stop-color="#fff"
         id="stop6710" />
      <stop
         offset="1"
         stop-color="#fff"
         stop-opacity="0"
         id="stop6712" />
    </radialGradient>
    <linearGradient
       id="u"
       gradientUnits="userSpaceOnUse"
       x1="-224.589"
       y1="68.903"
       x2="-161.63699"
       y2="52.257999"
       gradientTransform="matrix(0.485,0,0,-0.485,149.184,125.791)">
      <stop
         offset="0"
         stop-color="#fff"
         id="stop6717" />
      <stop
         offset="1"
         stop-color="#fff"
         stop-opacity="0"
         id="stop6719" />
    </linearGradient>
    <linearGradient
       id="v"
       gradientUnits="userSpaceOnUse"
       x1="13.153"
       y1="197.76801"
       x2="9.2530003"
       y2="188.832"
       gradientTransform="matrix(0.88,0,0,-0.88,42.035,252.063)">
      <stop
         offset="0"
         stop-color="#EEEEEC"
         id="stop6726" />
      <stop
         offset="1"
         stop-color="#EEEEEC"
         stop-opacity="0"
         id="stop6728" />
    </linearGradient>
    <radialGradient
       id="w"
       cx="26.356001"
       cy="55.589001"
       r="24.385"
       gradientTransform="matrix(0.656,0,0,-0.834,66.991,147.128)"
       gradientUnits="userSpaceOnUse">
      <stop
         offset="0"
         stop-color="#fff"
         id="stop6733" />
      <stop
         offset="1"
         stop-color="#fff"
         stop-opacity="0"
         id="stop6735" />
    </radialGradient>
    <linearGradient
       id="x"
       gradientUnits="userSpaceOnUse"
       x1="-245.694"
       y1="88.661003"
       x2="-235.88"
       y2="80.863998"
       gradientTransform="matrix(0.49,0,0,-0.49,147.66,125.008)">
      <stop
         offset="0"
         stop-color="#fff"
         id="stop6748" />
      <stop
         offset="1"
         stop-color="#fff"
         stop-opacity="0"
         id="stop6750" />
    </linearGradient>
    <linearGradient
       id="y"
       gradientUnits="userSpaceOnUse"
       x1="-115.448"
       y1="55.254002"
       x2="-144.875"
       y2="134.487"
       gradientTransform="matrix(0.485,0,0,-0.485,149.184,125.791)">
      <stop
         offset="0"
         stop-color="#729FCF"
         id="stop6755" />
      <stop
         offset="1"
         stop-color="#729FCF"
         stop-opacity="0"
         id="stop6757" />
    </linearGradient>
    <path
       id="path6780"
       d="M 53.4,9.5 9.1,54.9 c -16.8,16.8 10.8,15.4 20.8,21.7 4.6,3 -14.8,6.9 -10.9,10.9 3.9,4 23.3,7.6 27.2,11.5 3.9,4 -7.8,8.2 -4,12.1 3.8,4 12.8,0.2 14.4,9.2 1.2,6.7 16.6,3.3 23.4,-2.4 l -3.5,-7.6 c 9.7,-9.8 18.3,-4.4 21.8,-13.4 1.9,-4.8 -14.6,-8.3 -10.2,-11.4 10.5,-7.4 49.2,-11.2 31.4,-29 L 73.6,9.5 C 68,4.2 58.6,4.2 53.4,9.5 Z M 42.7,79.1 c 1,0 33.1,4.3 20.7,7.6 C 58.7,88 37,79.1 42.7,79.1 Z m 61.5,17.8 c 0,2.3 17.5,3.5 16.6,-0.5 -1.4,-6.9 -14.7,-6.3 -16.6,0.5 z m -74.7,12 c 4,3.4 10,-0.8 11.9,-5.6 -3.8,-5.1 -18.1,0.3 -11.9,5.6 z m 72.6,-7.2 c -4.9,4.5 0.9,9.2 5.7,6.1 1.2,-0.9 -0.2,-5.1 -5.7,-6.1 z" />
  </defs>
  <sodipodi:namedview
     id="base"
     pagecolor="#ffffff"
     bordercolor="#666666"
     borderopacity="1.0"
     inkscape:pageopacity="0.0"
     inkscape:pageshadow="2"
     inkscape:zoom="22.4"
     inkscape:cx="12.53886"
     inkscape:cy="7.4919702"
     inkscape:document-units="mm"
     inkscape:current-layer="layer1"
     inkscape:document-rotation="0"
     showgrid="false"
     units="px"
     inkscape:window-width="1140"
     inkscape:window-height="1368"
     inkscape:window-x="1411"
     inkscape:window-y="0"
     inkscape:window-maximized="0"
     inkscape:snap-center="true"
     inkscape:snap-object-midpoints="true"
     inkscape:snap-page="true"
     inkscape:snap-intersection-paths="true"
     inkscape:snap-smooth-nodes="false"
     showguides="true"
     inkscape:guide-bbox="true"
     inkscape:snap-bbox="true"
     inkscape:bbox-paths="true"
     inkscape:bbox-nodes="true"
     inkscape:snap-bbox-edge-midpoints="true"
     inkscape:snap-bbox-midpoints="true">
    <sodipodi:guide
       position="0,6.3499999"
       orientation="1,0"
       id="guide11518" />
  </sodipodi:namedview>
  <metadata
     id="metadata10905">
    <rdf:RDF>
      <cc:Work
         rdf:about="">
        <dc:format>image/svg+xml</dc:format>
        <dc:type
           rdf:resource="http://purl.org/dc/dcmitype/StillImage" />
        <dc:title>dotnet-simple</dc:title>
      </cc:Work>
    </rdf:RDF>
  </metadata>
  <g
     inkscape:label="Layer 1"
     inkscape:groupmode="layer"
     id="layer1"
     transform="translate(-109.4619,-112.48571)">
    <path
       fill-rule="evenodd"
       clip-rule="evenodd"
       fill="#1384c8"
       d="m 113.53823,116.37863 c 0.0238,-0.0613 0.0509,-0.12172 0.071,-0.18424 0.1139,-0.35331 0.2267,-0.70691 0.33876,-1.06081 0.0431,-0.13595 0.0902,-0.26982 0.17499,-0.38666 0.13401,-0.18464 0.32069,-0.28137 0.54163,-0.31517 0.0867,-0.0132 0.17513,-0.0194 0.26285,-0.0202 0.2622,-0.002 0.5245,-7.5e-4 0.78675,-5.1e-4 0.0139,0 0.0279,0.001 0.0476,0.003 -0.006,0.0151 -0.01,0.0261 -0.0155,0.036 -0.0973,0.17394 -0.19276,0.34892 -0.29297,0.52112 -0.17448,0.29979 -0.34927,0.59948 -0.52923,0.89598 -0.11545,0.19012 -0.24065,0.37436 -0.38268,0.54631 -0.10479,0.12684 -0.2151,0.24811 -0.35574,0.33702 -0.0958,0.0606 -0.19818,0.096 -0.31437,0.0954 -0.4121,-0.002 -0.82419,-5.8e-4 -1.23629,-0.001 -0.12251,-2e-4 -0.2274,-0.0469 -0.31641,-0.12958 -0.1276,-0.11852 -0.20376,-0.26941 -0.26609,-0.42852 -0.1137,-0.29048 -0.17737,-0.59494 -0.25045,-0.89677 -0.0343,-0.14128 -0.0732,-0.28147 -0.11027,-0.42205 -0.002,-0.009 -0.007,-0.0176 -0.0124,-0.0307 l -0.0287,0.027 c -0.1607,0.15965 -0.30223,0.33558 -0.42887,0.52261 -0.0345,0.051 -0.0461,0.11819 -0.0654,0.17877 -0.0709,0.22253 -0.13551,0.44719 -0.21227,0.66763 -0.0735,0.21117 -0.20535,0.37914 -0.4114,0.4784 -0.12047,0.058 -0.24911,0.0894 -0.38277,0.0923 -0.19814,0.004 -0.39637,0.005 -0.59455,0.007 -0.0474,4.5e-4 -0.0496,-0.003 -0.0372,-0.0493 0.085,-0.31552 0.19266,-0.62298 0.32757,-0.92057 0.13909,-0.30701 0.30292,-0.59978 0.50932,-0.86716 0.14053,-0.18205 0.29575,-0.35001 0.49,-0.47701 0.0985,-0.0644 0.20326,-0.11524 0.32244,-0.12864 0.0196,-0.002 0.0395,-0.004 0.0592,-0.004 0.42205,-2e-4 0.8441,0.004 1.2661,-0.002 0.22636,-0.003 0.39024,0.0923 0.51296,0.27455 0.0763,0.1133 0.13092,0.23701 0.17687,0.3648 0.0926,0.25777 0.15025,0.52505 0.21531,0.79044 0.0372,0.15189 0.0787,0.30273 0.11843,0.45401 0.003,0.0114 0.008,0.0222 0.0118,0.0333 z"
       id="dotnet-plain"
       style="stroke-width:0.0497821" />
  </g>
</svg>
