<?xml version="1.0" encoding="UTF-8" standalone="no"?>
<svg
   xmlns:dc="http://purl.org/dc/elements/1.1/"
   xmlns:cc="http://creativecommons.org/ns#"
   xmlns:rdf="http://www.w3.org/1999/02/22-rdf-syntax-ns#"
   xmlns:svg="http://www.w3.org/2000/svg"
   xmlns="http://www.w3.org/2000/svg"
   xmlns:sodipodi="http://sodipodi.sourceforge.net/DTD/sodipodi-0.dtd"
   xmlns:inkscape="http://www.inkscape.org/namespaces/inkscape"
   width="24"
   height="24"
   viewBox="0 0 6.3499999 6.3499999"
   version="1.1"
   id="svg10908"
   inkscape:version="1.0.1 (3bc2e813f5, 2020-09-07)"
   sodipodi:docname="email-round-square-outline-white.svg">
  <title
     id="title11486">email-round-square-outline-white</title>
  <defs
     id="defs10902" />
  <sodipodi:namedview
     id="base"
     pagecolor="#ffffff"
     bordercolor="#666666"
     borderopacity="1.0"
     inkscape:pageopacity="0.0"
     inkscape:pageshadow="2"
     inkscape:zoom="22.4"
     inkscape:cx="11.239633"
     inkscape:cy="11.063399"
     inkscape:document-units="mm"
     inkscape:current-layer="layer1"
     inkscape:document-rotation="0"
     showgrid="false"
     units="px"
     inkscape:window-width="1214"
     inkscape:window-height="1368"
     inkscape:window-x="1330"
     inkscape:window-y="1080"
     inkscape:window-maximized="0"
     inkscape:snap-center="true"
     inkscape:snap-object-midpoints="true"
     inkscape:snap-page="true"
     inkscape:snap-intersection-paths="true"
     inkscape:snap-smooth-nodes="false"
     showguides="true"
     inkscape:guide-bbox="true"
     inkscape:snap-bbox="true"
     inkscape:bbox-paths="true"
     inkscape:bbox-nodes="true"
     inkscape:snap-bbox-edge-midpoints="true"
     inkscape:snap-bbox-midpoints="true">
    <sodipodi:guide
       position="0,6.3499999"
       orientation="1,0"
       id="guide11518" />
  </sodipodi:namedview>
  <metadata
     id="metadata10905">
    <rdf:RDF>
      <cc:Work
         rdf:about="">
        <dc:format>image/svg+xml</dc:format>
        <dc:type
           rdf:resource="http://purl.org/dc/dcmitype/StillImage" />
        <dc:title>email-round-square-outline-white</dc:title>
      </cc:Work>
    </rdf:RDF>
  </metadata>
  <g
     inkscape:label="Layer 1"
     inkscape:groupmode="layer"
     id="layer1"
     transform="translate(-109.4619,-112.48571)">
    <path
       id="path1441-5-4-20-0-2-3-55"
       style="fill:#ffffff;fill-opacity:1;stroke-width:0.264583"
       d="m 109.4619,112.48571 v 6.35 h 6.35 v -6.35 z m 0.52917,0.52917 h 5.29166 v 5.29166 h -5.29166 z m 1.05833,1.05833 c -0.21828,0 -0.39481,0.17859 -0.39481,0.39687 l -0.002,2.38125 c 0,0.21829 0.1786,0.39688 0.39688,0.39688 h 3.175 c 0.21828,0 0.39687,-0.17859 0.39687,-0.39688 v -2.38125 c 0,-0.21828 -0.17859,-0.39687 -0.39687,-0.39687 z m 0.17002,0.53175 c 0.0295,2.4e-4 0.0596,0.008 0.0879,0.0258 l 1.32963,0.83149 1.32963,-0.83147 c 0.11311,-0.0694 0.25787,0.0102 0.25787,0.14314 0,0.0576 -0.03,0.11088 -0.0796,0.14263 l -1.4025,0.87695 c -0.0635,0.0397 -0.14734,0.0397 -0.21084,0 l -1.4025,-0.87695 c -0.0496,-0.0317 -0.0796,-0.0851 -0.0796,-0.14263 0,-0.0997 0.0816,-0.16977 0.17002,-0.16898 z" />
  </g>
</svg>
