<?xml version="1.0" encoding="UTF-8" standalone="no"?>
<svg
   xmlns:dc="http://purl.org/dc/elements/1.1/"
   xmlns:cc="http://creativecommons.org/ns#"
   xmlns:rdf="http://www.w3.org/1999/02/22-rdf-syntax-ns#"
   xmlns:svg="http://www.w3.org/2000/svg"
   xmlns="http://www.w3.org/2000/svg"
   xmlns:sodipodi="http://sodipodi.sourceforge.net/DTD/sodipodi-0.dtd"
   xmlns:inkscape="http://www.inkscape.org/namespaces/inkscape"
   width="24"
   height="24"
   viewBox="0 0 6.3499999 6.3499999"
   version="1.1"
   id="svg10908"
   inkscape:version="1.0.1 (3bc2e813f5, 2020-09-07)"
   sodipodi:docname="javascript-circle-filled.svg">
  <title
     id="title11486">javascript-circle-filled</title>
  <defs
     id="defs10902" />
  <sodipodi:namedview
     id="base"
     pagecolor="#ffffff"
     bordercolor="#666666"
     borderopacity="1.0"
     inkscape:pageopacity="0.0"
     inkscape:pageshadow="2"
     inkscape:zoom="22.4"
     inkscape:cx="11.239633"
     inkscape:cy="11.063399"
     inkscape:document-units="mm"
     inkscape:current-layer="layer1"
     inkscape:document-rotation="0"
     showgrid="false"
     units="px"
     inkscape:window-width="1140"
     inkscape:window-height="1368"
     inkscape:window-x="1411"
     inkscape:window-y="0"
     inkscape:window-maximized="0"
     inkscape:snap-center="true"
     inkscape:snap-object-midpoints="true"
     inkscape:snap-page="true"
     inkscape:snap-intersection-paths="true"
     inkscape:snap-smooth-nodes="false"
     showguides="true"
     inkscape:guide-bbox="true"
     inkscape:snap-bbox="true"
     inkscape:bbox-paths="true"
     inkscape:bbox-nodes="true"
     inkscape:snap-bbox-edge-midpoints="true"
     inkscape:snap-bbox-midpoints="true">
    <sodipodi:guide
       position="0,6.3499999"
       orientation="1,0"
       id="guide11518" />
  </sodipodi:namedview>
  <metadata
     id="metadata10905">
    <rdf:RDF>
      <cc:Work
         rdf:about="">
        <dc:format>image/svg+xml</dc:format>
        <dc:type
           rdf:resource="http://purl.org/dc/dcmitype/StillImage" />
        <dc:title>javascript-circle-filled</dc:title>
      </cc:Work>
    </rdf:RDF>
  </metadata>
  <g
     inkscape:label="Layer 1"
     inkscape:groupmode="layer"
     id="layer1"
     transform="translate(-109.4619,-112.48571)">
    <path
       id="circle-17-4"
       style="fill:#000000;fill-opacity:1;fill-rule:evenodd;stroke:none;stroke-width:0.0916501"
       d="m 112.6369,112.48571 a 3.175,3.1749997 0 0 0 -3.175,3.175 3.175,3.1749997 0 0 0 3.175,3.175 3.175,3.1749997 0 0 0 3.175,-3.175 3.175,3.1749997 0 0 0 -3.175,-3.175 z m 1.04696,2.96364 c 0.23381,-0.005 0.38002,0.0569 0.48731,0.17674 0.0298,0.0302 0.0541,0.0626 0.0997,0.13332 -0.12455,0.0794 -0.12441,0.0788 -0.30283,0.1943 -0.0381,-0.0821 -0.10114,-0.13366 -0.16794,-0.15606 -0.10375,-0.0315 -0.2349,0.003 -0.262,0.11266 -0.009,0.0338 -0.007,0.0651 0.007,0.12092 0.0421,0.0959 0.183,0.13775 0.30954,0.19585 0.36423,0.14773 0.48708,0.306 0.51728,0.49455 0.0291,0.16232 -0.006,0.26748 -0.0124,0.28318 h 5.3e-4 c -0.13439,0.45971 -0.88345,0.47477 -1.18287,0.17105 -0.0632,-0.0715 -0.10338,-0.10922 -0.14108,-0.19172 0.15912,-0.0915 0.15937,-0.0913 0.3142,-0.18086 0.0841,0.12928 0.16188,0.20034 0.30179,0.22944 0.18979,0.0232 0.38076,-0.0418 0.33796,-0.2434 -0.044,-0.16464 -0.38868,-0.20478 -0.62322,-0.38085 -0.23813,-0.15991 -0.29389,-0.54848 -0.0982,-0.7705 0.0652,-0.0821 0.1763,-0.14371 0.293,-0.17311 z m -1.24643,0.03 h 0.38705 c 0,0.36322 0.002,0.70701 0,1.06144 8e-4,0.21728 0.0194,0.4108 -0.0687,0.57309 h 5.3e-4 c -0.0609,0.12379 -0.17686,0.20513 -0.31161,0.24443 -0.20707,0.0476 -0.40561,0.0208 -0.55294,-0.0677 -0.0986,-0.0605 -0.17508,-0.1537 -0.22738,-0.26097 l 0.3142,-0.19276 c 0.003,0.001 0.0107,0.0164 0.0217,0.0357 0.0401,0.0672 0.0747,0.1144 0.14263,0.1478 0.0668,0.0228 0.21367,0.0373 0.27027,-0.0801 0.0346,-0.0597 0.0233,-0.25151 0.0233,-0.46406 0,-0.334 10e-4,-0.66664 10e-4,-0.99684 z" />
  </g>
</svg>
