<?xml version="1.0" encoding="UTF-8" standalone="no"?>
<svg
   xmlns:dc="http://purl.org/dc/elements/1.1/"
   xmlns:cc="http://creativecommons.org/ns#"
   xmlns:rdf="http://www.w3.org/1999/02/22-rdf-syntax-ns#"
   xmlns:svg="http://www.w3.org/2000/svg"
   xmlns="http://www.w3.org/2000/svg"
   xmlns:sodipodi="http://sodipodi.sourceforge.net/DTD/sodipodi-0.dtd"
   xmlns:inkscape="http://www.inkscape.org/namespaces/inkscape"
   width="24"
   height="24"
   viewBox="0 0 6.3499999 6.3499999"
   version="1.1"
   id="svg10908"
   inkscape:version="1.0.1 (3bc2e813f5, 2020-09-07)"
   sodipodi:docname="javascript-roundedsquare-outline.svg">
  <title
     id="title11486">javascript-roundedsquare-outline</title>
  <defs
     id="defs10902" />
  <sodipodi:namedview
     id="base"
     pagecolor="#ffffff"
     bordercolor="#666666"
     borderopacity="1.0"
     inkscape:pageopacity="0.0"
     inkscape:pageshadow="2"
     inkscape:zoom="22.4"
     inkscape:cx="11.239633"
     inkscape:cy="11.063399"
     inkscape:document-units="mm"
     inkscape:current-layer="layer1"
     inkscape:document-rotation="0"
     showgrid="false"
     units="px"
     inkscape:window-width="1140"
     inkscape:window-height="1368"
     inkscape:window-x="1411"
     inkscape:window-y="0"
     inkscape:window-maximized="0"
     inkscape:snap-center="true"
     inkscape:snap-object-midpoints="true"
     inkscape:snap-page="true"
     inkscape:snap-intersection-paths="true"
     inkscape:snap-smooth-nodes="false"
     showguides="true"
     inkscape:guide-bbox="true"
     inkscape:snap-bbox="true"
     inkscape:bbox-paths="true"
     inkscape:bbox-nodes="true"
     inkscape:snap-bbox-edge-midpoints="true"
     inkscape:snap-bbox-midpoints="true">
    <sodipodi:guide
       position="0,6.3499999"
       orientation="1,0"
       id="guide11518" />
  </sodipodi:namedview>
  <metadata
     id="metadata10905">
    <rdf:RDF>
      <cc:Work
         rdf:about="">
        <dc:format>image/svg+xml</dc:format>
        <dc:type
           rdf:resource="http://purl.org/dc/dcmitype/StillImage" />
        <dc:title>javascript-roundedsquare-outline</dc:title>
      </cc:Work>
    </rdf:RDF>
  </metadata>
  <g
     inkscape:label="Layer 1"
     inkscape:groupmode="layer"
     id="layer1"
     transform="translate(-109.4619,-112.48571)">
    <path
       id="roundedsquare-outline-2-2-8-6-4-7"
       style="fill:#000000;fill-opacity:1;fill-rule:evenodd;stroke:none;stroke-width:0.529071;stroke-linejoin:round;stroke-miterlimit:4;stroke-dasharray:none;stroke-opacity:1"
       d="m 110.32852,112.48571 c -0.47997,0 -0.86662,0.38664 -0.86662,0.86661 v 4.61678 c 0,0.47997 0.38665,0.86661 0.86662,0.86661 h 4.61677 c 0.47997,0 0.86661,-0.38664 0.86661,-0.86661 v -4.61678 c 0,-0.47997 -0.38664,-0.86661 -0.86661,-0.86661 z m 0.19172,0.52917 h 4.23333 c 0.29317,0 0.52917,0.236 0.52917,0.52916 v 4.23334 c 0,0.29316 -0.236,0.52916 -0.52917,0.52916 h -4.23333 c -0.29317,0 -0.52917,-0.236 -0.52917,-0.52916 v -4.23334 c 0,-0.29316 0.236,-0.52916 0.52917,-0.52916 z m 3.4587,2.37453 -0.15606,0.0202 c -0.14961,0.0378 -0.29209,0.11647 -0.37569,0.22169 -0.25088,0.28466 -0.1797,0.78302 0.12557,0.98806 0.30068,0.22571 0.74242,0.27674 0.79892,0.48782 0.0549,0.25844 -0.18971,0.34244 -0.43305,0.31264 -0.17936,-0.0373 -0.27929,-0.12831 -0.38706,-0.29404 -0.1985,0.11484 -0.19804,0.11468 -0.40204,0.23203 0.0484,0.10581 0.0987,0.15376 0.17984,0.24547 0.38388,0.38936 1.34491,0.37026 1.51722,-0.21911 0.008,-0.0202 0.0538,-0.15519 0.0165,-0.36329 -0.0388,-0.24173 -0.19654,-0.44467 -0.66352,-0.63407 -0.16222,-0.0745 -0.34298,-0.12826 -0.39688,-0.25115 -0.0203,-0.0714 -0.0224,-0.11173 -0.0103,-0.15503 0.0348,-0.14118 0.20237,-0.18447 0.33538,-0.14417 0.0857,0.0287 0.1671,0.0948 0.216,0.19998 0.22873,-0.14809 0.2279,-0.14731 0.38758,-0.24907 -0.0583,-0.0907 -0.0894,-0.13225 -0.12764,-0.17105 -0.13753,-0.15356 -0.32501,-0.23286 -0.62477,-0.22686 z m -1.5968,0.0382 c 0,0.42333 -0.002,0.84976 -0.002,1.27796 0,0.2725 0.0143,0.51933 -0.03,0.59583 -0.0726,0.15061 -0.26063,0.13151 -0.34624,0.10232 -0.0871,-0.0428 -0.13153,-0.10356 -0.18293,-0.18966 -0.0141,-0.0247 -0.0254,-0.0445 -0.0284,-0.0455 l -0.40256,0.24701 c 0.067,0.13755 0.16556,0.25675 0.29197,0.33435 0.18889,0.1132 0.44301,0.14833 0.70849,0.0873 0.17274,-0.0503 0.32135,-0.15444 0.39945,-0.31316 v -5.3e-4 c 0.113,-0.20808 0.0889,-0.45627 0.0878,-0.73484 0.002,-0.4544 0,-0.89549 0,-1.36115 z" />
  </g>
</svg>
