<?xml version="1.0" encoding="UTF-8" standalone="no"?>
<svg
   xmlns:dc="http://purl.org/dc/elements/1.1/"
   xmlns:cc="http://creativecommons.org/ns#"
   xmlns:rdf="http://www.w3.org/1999/02/22-rdf-syntax-ns#"
   xmlns:svg="http://www.w3.org/2000/svg"
   xmlns="http://www.w3.org/2000/svg"
   xmlns:sodipodi="http://sodipodi.sourceforge.net/DTD/sodipodi-0.dtd"
   xmlns:inkscape="http://www.inkscape.org/namespaces/inkscape"
   width="24"
   height="24"
   viewBox="0 0 6.3499999 6.3499999"
   version="1.1"
   id="svg10908"
   inkscape:version="1.0.1 (3bc2e813f5, 2020-09-07)"
   sodipodi:docname="javascript-square-outline.svg">
  <title
     id="title11486">javascript-square-outline</title>
  <defs
     id="defs10902" />
  <sodipodi:namedview
     id="base"
     pagecolor="#ffffff"
     bordercolor="#666666"
     borderopacity="1.0"
     inkscape:pageopacity="0.0"
     inkscape:pageshadow="2"
     inkscape:zoom="22.4"
     inkscape:cx="11.239633"
     inkscape:cy="11.063399"
     inkscape:document-units="mm"
     inkscape:current-layer="layer1"
     inkscape:document-rotation="0"
     showgrid="false"
     units="px"
     inkscape:window-width="1140"
     inkscape:window-height="1368"
     inkscape:window-x="1411"
     inkscape:window-y="0"
     inkscape:window-maximized="0"
     inkscape:snap-center="true"
     inkscape:snap-object-midpoints="true"
     inkscape:snap-page="true"
     inkscape:snap-intersection-paths="true"
     inkscape:snap-smooth-nodes="false"
     showguides="true"
     inkscape:guide-bbox="true"
     inkscape:snap-bbox="true"
     inkscape:bbox-paths="true"
     inkscape:bbox-nodes="true"
     inkscape:snap-bbox-edge-midpoints="true"
     inkscape:snap-bbox-midpoints="true">
    <sodipodi:guide
       position="0,6.3499999"
       orientation="1,0"
       id="guide11518" />
  </sodipodi:namedview>
  <metadata
     id="metadata10905">
    <rdf:RDF>
      <cc:Work
         rdf:about="">
        <dc:format>image/svg+xml</dc:format>
        <dc:type
           rdf:resource="http://purl.org/dc/dcmitype/StillImage" />
        <dc:title>javascript-square-outline</dc:title>
      </cc:Work>
    </rdf:RDF>
  </metadata>
  <g
     inkscape:label="Layer 1"
     inkscape:groupmode="layer"
     id="layer1"
     transform="translate(-109.4619,-112.48571)">
    <path
       id="path1441-5-4-20-0-2-5-5-4-6-2"
       style="fill:#000000;fill-opacity:1;stroke-width:0.264583"
       d="m 109.4619,112.48571 v 6.35 h 6.35 v -6.35 z m 0.52968,0.52917 h 5.29115 v 5.29167 h -5.29115 z m 3.98736,2.37453 -0.15607,0.0202 c -0.1496,0.0378 -0.29208,0.11648 -0.37568,0.22169 -0.25086,0.28465 -0.17916,0.78305 0.12609,0.98806 0.30068,0.22571 0.74251,0.27677 0.79891,0.48782 0.0549,0.25842 -0.19024,0.34245 -0.43356,0.31265 -0.17936,-0.0373 -0.27877,-0.12884 -0.38654,-0.29456 -0.19849,0.11484 -0.19857,0.11519 -0.40256,0.23254 0.0484,0.10579 0.0993,0.15325 0.18035,0.24495 0.38376,0.38925 1.34404,0.37028 1.5167,-0.21859 0.007,-0.0206 0.0538,-0.15566 0.0165,-0.36329 -0.0388,-0.24172 -0.19658,-0.44519 -0.66353,-0.63458 -0.16221,-0.0745 -0.34297,-0.12774 -0.39687,-0.25063 -0.02,-0.0714 -0.0224,-0.11173 -0.0103,-0.15503 0.0348,-0.14104 0.2029,-0.18448 0.3359,-0.14418 0.0857,0.0287 0.16659,0.0948 0.21549,0.19999 0.22872,-0.14808 0.2279,-0.14731 0.38758,-0.24908 -0.0584,-0.0906 -0.0894,-0.13225 -0.12765,-0.17105 -0.13752,-0.15358 -0.32501,-0.23286 -0.62476,-0.22686 z m -1.59681,0.0382 c 0,0.42331 -0.002,0.84978 -0.002,1.27796 0,0.27248 0.0143,0.51881 -0.03,0.59531 -0.0726,0.15057 -0.26064,0.13204 -0.34624,0.10284 -0.0871,-0.0428 -0.13153,-0.10355 -0.18293,-0.18965 -0.0141,-0.0247 -0.0249,-0.0445 -0.0279,-0.0455 l -0.40307,0.24701 c 0.067,0.13754 0.16557,0.25675 0.29197,0.33435 0.18888,0.1133 0.44302,0.14833 0.70848,0.0873 0.17275,-0.0503 0.32188,-0.15496 0.39998,-0.31367 0.1129,-0.20807 0.0883,-0.45628 0.0873,-0.73484 0.002,-0.45437 0,-0.89552 0,-1.36116 z" />
  </g>
</svg>
