<?xml version="1.0" encoding="UTF-8" standalone="no"?>
<svg
   xmlns:dc="http://purl.org/dc/elements/1.1/"
   xmlns:cc="http://creativecommons.org/ns#"
   xmlns:rdf="http://www.w3.org/1999/02/22-rdf-syntax-ns#"
   xmlns:svg="http://www.w3.org/2000/svg"
   xmlns="http://www.w3.org/2000/svg"
   xmlns:sodipodi="http://sodipodi.sourceforge.net/DTD/sodipodi-0.dtd"
   xmlns:inkscape="http://www.inkscape.org/namespaces/inkscape"
   width="24"
   height="24"
   viewBox="0 0 6.3499999 6.3499999"
   version="1.1"
   id="svg10908"
   inkscape:version="1.0.1 (3bc2e813f5, 2020-09-07)"
   sodipodi:docname="phone-outline.svg">
  <title
     id="title11486">phone-outline</title>
  <defs
     id="defs10902" />
  <sodipodi:namedview
     id="base"
     pagecolor="#ffffff"
     bordercolor="#666666"
     borderopacity="1.0"
     inkscape:pageopacity="0.0"
     inkscape:pageshadow="2"
     inkscape:zoom="22.4"
     inkscape:cx="11.239633"
     inkscape:cy="11.063399"
     inkscape:document-units="mm"
     inkscape:current-layer="layer1"
     inkscape:document-rotation="0"
     showgrid="false"
     units="px"
     inkscape:window-width="1140"
     inkscape:window-height="1368"
     inkscape:window-x="1404"
     inkscape:window-y="0"
     inkscape:window-maximized="0"
     inkscape:snap-center="true"
     inkscape:snap-object-midpoints="true"
     inkscape:snap-page="true"
     inkscape:snap-intersection-paths="true"
     inkscape:snap-smooth-nodes="false"
     showguides="true"
     inkscape:guide-bbox="true"
     inkscape:snap-bbox="true"
     inkscape:bbox-paths="true"
     inkscape:bbox-nodes="true"
     inkscape:snap-bbox-edge-midpoints="true"
     inkscape:snap-bbox-midpoints="true">
    <sodipodi:guide
       position="0,6.3499999"
       orientation="1,0"
       id="guide11518" />
  </sodipodi:namedview>
  <metadata
     id="metadata10905">
    <rdf:RDF>
      <cc:Work
         rdf:about="">
        <dc:format>image/svg+xml</dc:format>
        <dc:type
           rdf:resource="http://purl.org/dc/dcmitype/StillImage" />
        <dc:title>phone-outline</dc:title>
      </cc:Work>
    </rdf:RDF>
  </metadata>
  <g
     inkscape:label="Layer 1"
     inkscape:groupmode="layer"
     id="layer1"
     transform="translate(-109.4619,-112.48571)">
    <path
       d="m 111.19228,113.80863 c 0.0159,0.23548 0.0556,0.46566 0.11906,0.68527 l -0.3175,0.3175 c -0.10848,-0.3175 -0.17727,-0.65352 -0.20108,-1.00277 h 0.39952 m 2.60879,3.18029 c 0.2249,0.0635 0.45508,0.10319 0.68792,0.11906 v 0.39423 c -0.34925,-0.0238 -0.68527,-0.0926 -1.00542,-0.19844 l 0.3175,-0.31485 m -2.35479,-3.70946 h -0.92604 c -0.14552,0 -0.26459,0.11906 -0.26459,0.26458 0,2.48444 2.01348,4.49792 4.49792,4.49792 0.14552,0 0.26458,-0.11906 0.26458,-0.26458 v -0.9234 c 0,-0.14552 -0.11906,-0.26458 -0.26458,-0.26458 -0.32808,0 -0.64823,-0.0529 -0.94456,-0.15081 -0.0265,-0.0106 -0.0556,-0.0132 -0.082,-0.0132 -0.0688,0 -0.13494,0.0265 -0.18786,0.0767 l -0.58208,0.58208 c -0.74877,-0.38365 -1.3626,-0.99484 -1.7436,-1.74361 l 0.58208,-0.58208 c 0.0741,-0.0741 0.0952,-0.17727 0.0661,-0.26987 -0.0979,-0.29634 -0.15082,-0.61384 -0.15082,-0.94457 0,-0.14552 -0.11906,-0.26458 -0.26458,-0.26458 z"
       id="phone-outline-6"
       style="stroke-width:0.264583" />
  </g>
</svg>
