<?xml version="1.0" encoding="UTF-8" standalone="no"?>
<svg
   xmlns:dc="http://purl.org/dc/elements/1.1/"
   xmlns:cc="http://creativecommons.org/ns#"
   xmlns:rdf="http://www.w3.org/1999/02/22-rdf-syntax-ns#"
   xmlns:svg="http://www.w3.org/2000/svg"
   xmlns="http://www.w3.org/2000/svg"
   xmlns:sodipodi="http://sodipodi.sourceforge.net/DTD/sodipodi-0.dtd"
   xmlns:inkscape="http://www.inkscape.org/namespaces/inkscape"
   width="24"
   height="24"
   viewBox="0 0 6.3499999 6.3499999"
   version="1.1"
   id="svg10908"
   inkscape:version="1.0.1 (3bc2e813f5, 2020-09-07)"
   sodipodi:docname="jquery-circle-outline.svg">
  <title
     id="title11486">jquery-circle-outline</title>
  <defs
     id="defs10902" />
  <sodipodi:namedview
     id="base"
     pagecolor="#ffffff"
     bordercolor="#666666"
     borderopacity="1.0"
     inkscape:pageopacity="0.0"
     inkscape:pageshadow="2"
     inkscape:zoom="22.4"
     inkscape:cx="11.865285"
     inkscape:cy="11.063399"
     inkscape:document-units="mm"
     inkscape:current-layer="layer1"
     inkscape:document-rotation="0"
     showgrid="false"
     units="px"
     inkscape:window-width="1140"
     inkscape:window-height="1368"
     inkscape:window-x="1411"
     inkscape:window-y="0"
     inkscape:window-maximized="0"
     inkscape:snap-center="true"
     inkscape:snap-object-midpoints="true"
     inkscape:snap-page="true"
     inkscape:snap-intersection-paths="true"
     inkscape:snap-smooth-nodes="false"
     showguides="true"
     inkscape:guide-bbox="true"
     inkscape:snap-bbox="true"
     inkscape:bbox-paths="true"
     inkscape:bbox-nodes="true"
     inkscape:snap-bbox-edge-midpoints="true"
     inkscape:snap-bbox-midpoints="true">
    <sodipodi:guide
       position="0,6.3499999"
       orientation="1,0"
       id="guide11518" />
  </sodipodi:namedview>
  <metadata
     id="metadata10905">
    <rdf:RDF>
      <cc:Work
         rdf:about="">
        <dc:format>image/svg+xml</dc:format>
        <dc:type
           rdf:resource="http://purl.org/dc/dcmitype/StillImage" />
        <dc:title>jquery-circle-outline</dc:title>
      </cc:Work>
    </rdf:RDF>
  </metadata>
  <g
     inkscape:label="Layer 1"
     inkscape:groupmode="layer"
     id="layer1"
     transform="translate(-109.4619,-112.48571)">
    <path
       id="circle-2-4-0-6-19"
       style="fill:#000000;fill-opacity:1;fill-rule:evenodd;stroke:none;stroke-width:0.0916501"
       d="m 112.6369,112.48571 a 3.175,3.1749997 0 0 0 -3.175,3.175 3.175,3.1749997 0 0 0 3.175,3.175 3.175,3.1749997 0 0 0 3.175,-3.175 3.175,3.1749997 0 0 0 -3.175,-3.175 z m -0.005,0.52917 a 2.6458332,2.6458332 0 0 1 0.005,0 2.6458332,2.6458332 0 0 1 2.64583,2.64583 2.6458332,2.6458332 0 0 1 -2.64583,2.64583 2.6458332,2.6458332 0 0 1 -2.64583,-2.64583 2.6458332,2.6458332 0 0 1 2.64066,-2.64583 z m 0.40876,0.65784 -0.11679,0.16071 c -0.1558,0.22929 -0.17115,0.51419 -0.063,0.7674 0.11401,0.26878 0.34745,0.47926 0.62011,0.57929 0.0112,0.004 0.0227,0.008 0.0341,0.0119 l 0.015,0.005 c 0.016,0.005 0.032,0.0108 0.0486,0.0139 0.75343,0.14559 0.95797,-0.38622 1.01234,-0.46457 -0.17902,0.25774 -0.47989,0.31955 -0.84904,0.22996 -0.0292,-0.007 -0.0613,-0.0179 -0.0894,-0.0279 -0.0361,-0.0129 -0.0715,-0.0274 -0.10594,-0.0439 -0.0656,-0.0315 -0.12811,-0.0694 -0.18603,-0.11318 -0.3303,-0.25066 -0.53541,-0.72891 -0.31988,-1.11827 z m -0.85421,0.18655 -0.21601,0.30489 c -0.2643,0.38031 -0.25014,0.88919 -0.0439,1.29139 0.0346,0.0675 0.0738,0.13309 0.1173,0.19534 l -0.001,-5.3e-4 c 0.0396,0.0568 0.0834,0.12442 0.13591,0.17002 0.019,0.021 0.0391,0.0414 0.0594,0.0615 l 0.016,0.0155 c 0.0198,0.0192 0.0398,0.0381 0.0605,0.0563 l 0.003,0.002 5.2e-4,5.3e-4 c 0.0229,0.0202 0.0468,0.0393 0.0708,0.0584 l 0.016,0.0129 c 0.0242,0.0185 0.0486,0.0364 0.0739,0.0537 l 0.002,0.002 c 0.0111,0.008 0.0223,0.0148 0.0336,0.0222 l 0.016,0.0103 c 0.018,0.0116 0.0362,0.0228 0.0548,0.0336 l 0.008,0.005 c 0.016,0.009 0.0323,0.0186 0.0486,0.0274 l 0.017,0.009 c 0.0112,0.006 0.0227,0.0119 0.0341,0.0176 l 0.005,0.003 c 0.0233,0.0114 0.0467,0.0227 0.0708,0.0331 l 0.0155,0.006 c 0.0192,0.008 0.0385,0.0164 0.0579,0.0238 l 0.0248,0.009 c 0.0177,0.007 0.0353,0.0126 0.0532,0.0186 l 0.0243,0.008 c 0.0254,0.008 0.0505,0.0179 0.077,0.0222 1.36455,0.22607 1.67948,-0.82424 1.67948,-0.82424 -0.28396,0.40897 -0.83375,0.604 -1.42058,0.45165 -0.0261,-0.007 -0.0519,-0.0141 -0.0775,-0.0222 l -0.0233,-0.008 c -0.0181,-0.006 -0.0358,-0.012 -0.0538,-0.0186 l -0.0248,-0.009 c -0.0196,-0.008 -0.0387,-0.0151 -0.0579,-0.0233 l -0.016,-0.007 c -0.0241,-0.0105 -0.0474,-0.0215 -0.0708,-0.0331 -0.0121,-0.006 -0.0239,-0.0121 -0.0356,-0.0181 l -0.0207,-0.0103 c -0.0152,-0.008 -0.0306,-0.0172 -0.0455,-0.0258 l -0.0109,-0.006 c -0.0185,-0.0108 -0.0368,-0.0221 -0.0548,-0.0336 l -0.016,-0.0108 c -0.0119,-0.008 -0.0241,-0.0153 -0.0357,-0.0233 -0.0252,-0.0174 -0.0497,-0.0359 -0.0739,-0.0543 l -0.0165,-0.0129 c -0.25686,-0.20278 -0.46025,-0.48 -0.55707,-0.79427 -0.10146,-0.32591 -0.0797,-0.69162 0.0961,-0.98857 z m -1.06712,0.38396 -0.28525,0.36173 c -0.36543,0.5252 -0.31997,1.20871 -0.0408,1.76682 0.007,0.0134 0.0133,0.0261 0.0202,0.0393 l 0.0134,0.0253 0.008,0.0145 0.0145,0.0263 c 0.009,0.0153 0.0177,0.0303 0.0269,0.0455 l 0.015,0.0253 c 0.0101,0.0162 0.0205,0.032 0.031,0.0481 l 0.0134,0.0207 c 0.0145,0.0217 0.0296,0.0434 0.045,0.0646 l 5.3e-4,0.002 0.008,0.0103 c 0.0133,0.0183 0.027,0.0363 0.0408,0.0543 l 0.0155,0.0196 c 0.0123,0.0155 0.0248,0.0312 0.0377,0.0465 l 0.0145,0.0171 c 0.0172,0.0202 0.0344,0.0401 0.0522,0.0599 l 10e-4,0.001 0.002,0.002 c 0.0174,0.019 0.0351,0.0377 0.0532,0.0563 l 0.0176,0.0176 c 0.014,0.0141 0.0281,0.0275 0.0424,0.0413 l 0.0176,0.0171 c 0.0192,0.0181 0.0386,0.0359 0.0584,0.0532 l 5.3e-4,5.3e-4 0.01,0.009 c 0.0174,0.0151 0.0353,0.0303 0.0532,0.045 l 0.0222,0.0176 c 0.0146,0.0118 0.0296,0.0233 0.0444,0.0346 l 0.0233,0.0181 c 0.0164,0.0121 0.0334,0.0236 0.0501,0.0351 l 0.0181,0.0129 0.005,0.003 c 0.0159,0.0109 0.0324,0.0215 0.0486,0.032 l 0.0207,0.0139 c 0.0248,0.0157 0.0499,0.031 0.0754,0.046 l 0.0212,0.0119 c 0.0187,0.0108 0.0372,0.0217 0.0563,0.032 0.0103,0.006 0.0211,0.0106 0.0315,0.016 0.0135,0.007 0.0265,0.0143 0.0403,0.0212 l 0.009,0.005 0.0165,0.008 c 0.0213,0.0101 0.0424,0.0198 0.0641,0.0294 l 0.0139,0.006 c 0.0248,0.0109 0.0497,0.0211 0.0749,0.031 l 0.0181,0.007 c 0.0233,0.009 0.0471,0.018 0.0708,0.0264 l 0.009,0.003 c 0.0261,0.009 0.0526,0.017 0.0791,0.0253 l 0.0191,0.006 c 0.027,0.008 0.0533,0.0176 0.0811,0.0227 1.76733,0.3223 2.281,-1.06195 2.281,-1.06195 -0.4312,0.56175 -1.1967,0.71016 -1.92185,0.54519 l 0.002,10e-4 c -0.0274,-0.006 -0.0538,-0.0147 -0.0806,-0.0227 l -0.0202,-0.006 c -0.0262,-0.008 -0.0522,-0.0163 -0.078,-0.0253 l -0.0108,-0.004 c -0.0231,-0.008 -0.046,-0.017 -0.0687,-0.0259 l -0.0191,-0.008 c -0.0249,-0.01 -0.0499,-0.0202 -0.0744,-0.031 l -0.0145,-0.007 c -0.0211,-0.01 -0.0424,-0.0196 -0.063,-0.0295 l -0.0181,-0.009 c -0.0163,-0.008 -0.0321,-0.0165 -0.0481,-0.0248 -0.0107,-0.006 -0.0219,-0.0106 -0.0326,-0.0165 -0.0196,-0.0105 -0.0387,-0.0214 -0.0579,-0.0326 l -0.0196,-0.0114 c -0.0255,-0.0149 -0.0506,-0.0302 -0.0755,-0.046 l -0.0207,-0.0135 c -0.0181,-0.0116 -0.036,-0.0239 -0.0537,-0.0362 l -0.0171,-0.0119 c -0.0171,-0.0121 -0.0344,-0.0243 -0.0512,-0.0367 l -0.0222,-0.017 c -0.0154,-0.0118 -0.031,-0.0239 -0.046,-0.0362 l -0.0202,-0.016 c -0.0192,-0.0159 -0.0385,-0.0322 -0.0574,-0.0486 l -0.007,-0.005 c -0.0203,-0.0179 -0.0407,-0.0364 -0.0605,-0.0548 l -0.0165,-0.0165 c -0.0146,-0.0139 -0.0292,-0.0276 -0.0434,-0.0419 l -0.017,-0.0171 c -0.018,-0.0185 -0.0354,-0.0369 -0.0527,-0.0558 l -0.003,-0.003 c -0.0183,-0.02 -0.0362,-0.0403 -0.0537,-0.061 l -0.0139,-0.0171 c -0.0131,-0.0157 -0.0261,-0.0315 -0.0388,-0.0475 l -0.0145,-0.0176 c -0.0152,-0.0198 -0.0298,-0.0393 -0.0444,-0.0594 -0.40258,-0.54916 -0.5471,-1.30659 -0.2253,-1.92857 z" />
  </g>
</svg>
