<?xml version="1.0" encoding="UTF-8" standalone="no"?>
<svg
   xmlns:dc="http://purl.org/dc/elements/1.1/"
   xmlns:cc="http://creativecommons.org/ns#"
   xmlns:rdf="http://www.w3.org/1999/02/22-rdf-syntax-ns#"
   xmlns:svg="http://www.w3.org/2000/svg"
   xmlns="http://www.w3.org/2000/svg"
   xmlns:sodipodi="http://sodipodi.sourceforge.net/DTD/sodipodi-0.dtd"
   xmlns:inkscape="http://www.inkscape.org/namespaces/inkscape"
   width="24"
   height="24"
   viewBox="0 0 6.3499999 6.3499999"
   version="1.1"
   id="svg10908"
   inkscape:version="1.0.1 (3bc2e813f5, 2020-09-07)"
   sodipodi:docname="jquery-circle-filled.svg">
  <title
     id="title11486">jquery-circle-filled</title>
  <defs
     id="defs10902" />
  <sodipodi:namedview
     id="base"
     pagecolor="#ffffff"
     bordercolor="#666666"
     borderopacity="1.0"
     inkscape:pageopacity="0.0"
     inkscape:pageshadow="2"
     inkscape:zoom="22.4"
     inkscape:cx="11.865285"
     inkscape:cy="11.063399"
     inkscape:document-units="mm"
     inkscape:current-layer="layer1"
     inkscape:document-rotation="0"
     showgrid="false"
     units="px"
     inkscape:window-width="1140"
     inkscape:window-height="1368"
     inkscape:window-x="1411"
     inkscape:window-y="0"
     inkscape:window-maximized="0"
     inkscape:snap-center="true"
     inkscape:snap-object-midpoints="true"
     inkscape:snap-page="true"
     inkscape:snap-intersection-paths="true"
     inkscape:snap-smooth-nodes="false"
     showguides="true"
     inkscape:guide-bbox="true"
     inkscape:snap-bbox="true"
     inkscape:bbox-paths="true"
     inkscape:bbox-nodes="true"
     inkscape:snap-bbox-edge-midpoints="true"
     inkscape:snap-bbox-midpoints="true">
    <sodipodi:guide
       position="0,6.3499999"
       orientation="1,0"
       id="guide11518" />
  </sodipodi:namedview>
  <metadata
     id="metadata10905">
    <rdf:RDF>
      <cc:Work
         rdf:about="">
        <dc:format>image/svg+xml</dc:format>
        <dc:type
           rdf:resource="http://purl.org/dc/dcmitype/StillImage" />
        <dc:title>jquery-circle-filled</dc:title>
      </cc:Work>
    </rdf:RDF>
  </metadata>
  <g
     inkscape:label="Layer 1"
     inkscape:groupmode="layer"
     id="layer1"
     transform="translate(-109.4619,-112.48571)">
    <path
       id="circle-11-75"
       style="fill:#000000;fill-opacity:1;fill-rule:evenodd;stroke:none;stroke-width:0.0916501"
       d="m 112.6369,112.48571 a 3.175,3.1749997 0 0 0 -3.175,3.175 3.175,3.1749997 0 0 0 3.175,3.175 3.175,3.1749997 0 0 0 3.175,-3.175 3.175,3.1749997 0 0 0 -3.175,-3.175 z m 0.40359,1.18701 c -0.21553,0.38936 -0.0104,0.86761 0.31988,1.11828 0.0579,0.0437 0.12043,0.0817 0.18604,0.11317 0.0345,0.0165 0.0698,0.031 0.10593,0.0439 0.0281,0.01 0.0602,0.0209 0.0894,0.0279 0.36915,0.0896 0.67002,0.0278 0.84905,-0.22996 -0.0544,0.0784 -0.25892,0.61016 -1.01235,0.46457 -0.0166,-0.003 -0.0326,-0.009 -0.0486,-0.0139 l -0.015,-0.005 c -0.0114,-0.004 -0.0229,-0.008 -0.0341,-0.0119 -0.27266,-0.10003 -0.50611,-0.31051 -0.62012,-0.57929 -0.10811,-0.25321 -0.0928,-0.53811 0.063,-0.7674 z m -0.85421,0.18655 c -0.1758,0.29695 -0.19758,0.66266 -0.0961,0.98857 0.0968,0.31427 0.30021,0.59149 0.55707,0.79427 l 0.0165,0.0129 c 0.0242,0.0184 0.0487,0.0369 0.0739,0.0543 0.0116,0.008 0.0232,0.0153 0.0351,0.0232 l 0.0165,0.0109 c 0.018,0.0115 0.0363,0.0228 0.0548,0.0336 l 0.0108,0.006 c 0.0149,0.009 0.0303,0.0178 0.0455,0.0258 l 0.0207,0.0104 c 0.0118,0.006 0.0236,0.0121 0.0357,0.0181 0.0234,0.0116 0.0467,0.0226 0.0708,0.0331 l 0.016,0.007 c 0.0192,0.008 0.0383,0.0152 0.0579,0.0233 l 0.0248,0.009 c 0.0179,0.007 0.0356,0.0126 0.0537,0.0186 l 0.0233,0.008 c 0.0256,0.008 0.0514,0.0152 0.0775,0.0222 0.58683,0.15234 1.13662,-0.0427 1.42058,-0.45165 0,0 -0.31493,1.05031 -1.67948,0.82424 -0.0265,-0.004 -0.0516,-0.0142 -0.077,-0.0222 l -0.0243,-0.008 c -0.0179,-0.006 -0.0355,-0.0116 -0.0532,-0.0186 l -0.0248,-0.009 c -0.0194,-0.007 -0.0387,-0.0158 -0.0579,-0.0238 l -0.0155,-0.006 c -0.0241,-0.0104 -0.0475,-0.0217 -0.0708,-0.0331 l -0.005,-0.003 c -0.0114,-0.006 -0.0229,-0.0116 -0.0341,-0.0176 l -0.017,-0.009 c -0.0163,-0.009 -0.0326,-0.0184 -0.0486,-0.0274 l -0.008,-0.005 c -0.0186,-0.0108 -0.0368,-0.022 -0.0548,-0.0336 l -0.016,-0.0103 c -0.0113,-0.007 -0.0225,-0.0142 -0.0336,-0.0222 l -0.002,-0.002 c -0.0253,-0.0173 -0.0497,-0.0352 -0.0739,-0.0537 l -0.016,-0.0129 c -0.024,-0.0191 -0.0479,-0.0382 -0.0708,-0.0584 l -5.3e-4,-5.3e-4 -0.003,-0.002 c -0.0207,-0.0182 -0.0407,-0.0371 -0.0605,-0.0563 l -0.016,-0.0155 c -0.0203,-0.0201 -0.0404,-0.0405 -0.0594,-0.0615 -0.0525,-0.0456 -0.0963,-0.11322 -0.13591,-0.17002 l 0.001,5.3e-4 c -0.0435,-0.0623 -0.0827,-0.12784 -0.11731,-0.19534 -0.20621,-0.40221 -0.22037,-0.91108 0.0439,-1.29139 z m -1.06712,0.38396 c -0.3218,0.62198 -0.17727,1.3794 0.22531,1.92856 0.0146,0.0201 0.0292,0.0396 0.0444,0.0594 l 0.0145,0.0176 c 0.0127,0.0161 0.0257,0.0318 0.0387,0.0475 l 0.014,0.0171 c 0.0175,0.0207 0.0354,0.041 0.0537,0.061 l 0.003,0.003 c 0.0173,0.0189 0.0347,0.0373 0.0527,0.0558 l 0.017,0.0171 c 0.0142,0.0143 0.0288,0.028 0.0434,0.0419 l 0.0165,0.0165 c 0.0198,0.0184 0.0402,0.0369 0.0605,0.0548 l 0.007,0.005 c 0.0188,0.0164 0.0382,0.0327 0.0574,0.0486 l 0.0202,0.016 c 0.015,0.0123 0.0306,0.0244 0.046,0.0362 l 0.0222,0.017 c 0.0168,0.0124 0.0341,0.0246 0.0512,0.0367 l 0.0171,0.0119 c 0.0177,0.0123 0.0356,0.0246 0.0537,0.0362 l 0.0207,0.0134 c 0.0249,0.0158 0.0499,0.0311 0.0755,0.046 l 0.0196,0.0114 c 0.0192,0.0112 0.0383,0.0221 0.0579,0.0326 0.0107,0.006 0.0219,0.0105 0.0326,0.0165 0.016,0.008 0.0318,0.0168 0.0481,0.0248 l 0.0181,0.009 c 0.0207,0.01 0.0419,0.0194 0.063,0.0294 l 0.0145,0.007 c 0.0245,0.0108 0.0495,0.021 0.0744,0.031 l 0.0191,0.008 c 0.0227,0.009 0.0456,0.0178 0.0687,0.0258 l 0.0108,0.004 c 0.0258,0.009 0.0518,0.0173 0.078,0.0253 l 0.0202,0.006 c 0.0268,0.008 0.0532,0.0168 0.0806,0.0227 l -0.002,-0.001 c 0.72514,0.16497 1.49065,0.0166 1.92185,-0.54519 0,0 -0.51368,1.38425 -2.281,1.06195 -0.0278,-0.005 -0.0541,-0.0147 -0.0811,-0.0227 l -0.0191,-0.006 c -0.0265,-0.008 -0.053,-0.0163 -0.0791,-0.0253 l -0.009,-0.003 c -0.0237,-0.008 -0.0475,-0.0174 -0.0708,-0.0264 l -0.0181,-0.007 c -0.0252,-0.01 -0.0501,-0.0201 -0.0749,-0.031 l -0.0139,-0.006 c -0.0217,-0.01 -0.0428,-0.0193 -0.0641,-0.0295 l -0.0165,-0.008 -0.009,-0.005 c -0.0138,-0.007 -0.0268,-0.0142 -0.0403,-0.0212 -0.0104,-0.005 -0.0212,-0.01 -0.0315,-0.016 -0.0191,-0.0104 -0.0376,-0.0212 -0.0563,-0.032 l -0.0212,-0.0119 c -0.0255,-0.015 -0.0507,-0.0303 -0.0754,-0.046 l -0.0207,-0.0139 c -0.0162,-0.0105 -0.0327,-0.0211 -0.0486,-0.032 l -0.005,-0.003 -0.0181,-0.0129 c -0.0167,-0.0116 -0.0337,-0.023 -0.0501,-0.0351 l -0.0233,-0.0181 c -0.0149,-0.0113 -0.0298,-0.0228 -0.0444,-0.0346 l -0.0222,-0.0176 c -0.0179,-0.0147 -0.0358,-0.0299 -0.0532,-0.045 l -0.01,-0.009 -5.3e-4,-5.3e-4 c -0.0198,-0.0173 -0.0392,-0.0351 -0.0584,-0.0532 l -0.0176,-0.0171 c -0.0143,-0.0138 -0.0284,-0.0272 -0.0424,-0.0413 l -0.0176,-0.0176 c -0.0181,-0.0186 -0.0358,-0.0373 -0.0532,-0.0563 l -0.002,-0.002 -10e-4,-10e-4 c -0.0178,-0.0198 -0.035,-0.0397 -0.0522,-0.06 l -0.0145,-0.0171 c -0.0129,-0.0153 -0.0259,-0.031 -0.0382,-0.0465 l -0.015,-0.0196 c -0.0138,-0.0179 -0.0275,-0.036 -0.0408,-0.0543 l -0.008,-0.0104 -5.3e-4,-0.002 c -0.0154,-0.0212 -0.0305,-0.0429 -0.045,-0.0646 l -0.0134,-0.0207 c -0.0105,-0.016 -0.0209,-0.0319 -0.031,-0.0481 l -0.015,-0.0253 c -0.009,-0.0152 -0.0179,-0.0302 -0.0269,-0.0455 l -0.0145,-0.0264 -0.008,-0.0145 -0.0134,-0.0253 c -0.007,-0.0132 -0.0131,-0.0259 -0.0202,-0.0393 -0.27914,-0.55811 -0.32461,-1.24162 0.0408,-1.76681 z" />
  </g>
</svg>
