<?xml version="1.0" encoding="UTF-8" standalone="no"?>
<svg
   xmlns:dc="http://purl.org/dc/elements/1.1/"
   xmlns:cc="http://creativecommons.org/ns#"
   xmlns:rdf="http://www.w3.org/1999/02/22-rdf-syntax-ns#"
   xmlns:svg="http://www.w3.org/2000/svg"
   xmlns="http://www.w3.org/2000/svg"
   xmlns:sodipodi="http://sodipodi.sourceforge.net/DTD/sodipodi-0.dtd"
   xmlns:inkscape="http://www.inkscape.org/namespaces/inkscape"
   width="24"
   height="24"
   viewBox="0 0 6.3499999 6.3499999"
   version="1.1"
   id="svg10908"
   inkscape:version="1.0.1 (3bc2e813f5, 2020-09-07)"
   sodipodi:docname="gitlab-roundedsquare-filled.svg">
  <title
     id="title11486">gitlab-roundedsquare-filled</title>
  <defs
     id="defs10902" />
  <sodipodi:namedview
     id="base"
     pagecolor="#ffffff"
     bordercolor="#666666"
     borderopacity="1.0"
     inkscape:pageopacity="0.0"
     inkscape:pageshadow="2"
     inkscape:zoom="22.4"
     inkscape:cx="11.239633"
     inkscape:cy="11.063399"
     inkscape:document-units="mm"
     inkscape:current-layer="layer1"
     inkscape:document-rotation="0"
     showgrid="false"
     units="px"
     inkscape:window-width="1140"
     inkscape:window-height="1368"
     inkscape:window-x="1411"
     inkscape:window-y="0"
     inkscape:window-maximized="0"
     inkscape:snap-center="true"
     inkscape:snap-object-midpoints="true"
     inkscape:snap-page="true"
     inkscape:snap-intersection-paths="true"
     inkscape:snap-smooth-nodes="false"
     showguides="true"
     inkscape:guide-bbox="true"
     inkscape:snap-bbox="true"
     inkscape:bbox-paths="true"
     inkscape:bbox-nodes="true"
     inkscape:snap-bbox-edge-midpoints="true"
     inkscape:snap-bbox-midpoints="true">
    <sodipodi:guide
       position="0,6.3499999"
       orientation="1,0"
       id="guide11518" />
  </sodipodi:namedview>
  <metadata
     id="metadata10905">
    <rdf:RDF>
      <cc:Work
         rdf:about="">
        <dc:format>image/svg+xml</dc:format>
        <dc:type
           rdf:resource="http://purl.org/dc/dcmitype/StillImage" />
        <dc:title>gitlab-roundedsquare-filled</dc:title>
      </cc:Work>
    </rdf:RDF>
  </metadata>
  <g
     inkscape:label="Layer 1"
     inkscape:groupmode="layer"
     id="layer1"
     transform="translate(-109.4619,-112.48571)">
    <path
       id="roundedsquare-56-4"
       style="fill:#000000;fill-opacity:1;fill-rule:evenodd;stroke:none;stroke-width:0.0694534"
       d="m 109.99107,112.48571 c -0.29316,0 -0.52917,0.23601 -0.52917,0.52917 v 5.29166 c 0,0.29315 0.23601,0.52917 0.52917,0.52917 h 5.29166 c 0.29316,0 0.52917,-0.23602 0.52917,-0.52917 v -5.29166 c 0,-0.29316 -0.23601,-0.52917 -0.52917,-0.52917 z m 4.12326,0.98237 c 0.0406,-0.006 0.0849,0.0142 0.10025,0.0615 l 0.52813,1.62574 0.26666,0.82011 a 0.1812992,0.1812992 0 0 1 -0.0662,0.20309 l -2.30632,1.67587 -2.30632,-1.67587 c -0.0129,-0.009 -0.0236,-0.0206 -0.0336,-0.0326 a 0.18110975,0.18110975 0 0 1 -0.0326,-0.17053 l 0.15503,-0.47646 0.11163,-0.34365 0.52813,-1.62522 a 0.08850886,0.08850887 0 0 1 0.0212,-0.0341 c 0.0339,-0.0362 0.0916,-0.0363 0.12713,-0.003 0.003,0.003 0.007,0.006 0.0103,0.0103 a 0.10411916,0.10411916 0 0 1 0.0139,0.0289 l 0.17829,0.55191 0.34985,1.08313 h 1.7539 l 0.52813,-1.63194 c 0.007,-0.0206 0.0189,-0.0423 0.0341,-0.0527 0.0115,-0.008 0.0247,-0.0129 0.0382,-0.015 z" />
  </g>
</svg>
