<?xml version="1.0" encoding="UTF-8" standalone="no"?>
<svg
   xmlns:dc="http://purl.org/dc/elements/1.1/"
   xmlns:cc="http://creativecommons.org/ns#"
   xmlns:rdf="http://www.w3.org/1999/02/22-rdf-syntax-ns#"
   xmlns:svg="http://www.w3.org/2000/svg"
   xmlns="http://www.w3.org/2000/svg"
   xmlns:sodipodi="http://sodipodi.sourceforge.net/DTD/sodipodi-0.dtd"
   xmlns:inkscape="http://www.inkscape.org/namespaces/inkscape"
   width="24"
   height="24"
   viewBox="0 0 6.3499999 6.3499999"
   version="1.1"
   id="svg10908"
   inkscape:version="1.0.1 (3bc2e813f5, 2020-09-07)"
   sodipodi:docname="python-simple2.svg">
  <title
     id="title11486">python-simple</title>
  <defs
     id="defs10902" />
  <sodipodi:namedview
     id="base"
     pagecolor="#ffffff"
     bordercolor="#666666"
     borderopacity="1.0"
     inkscape:pageopacity="0.0"
     inkscape:pageshadow="2"
     inkscape:zoom="22.4"
     inkscape:cx="12.53886"
     inkscape:cy="9.2776845"
     inkscape:document-units="mm"
     inkscape:current-layer="layer1"
     inkscape:document-rotation="0"
     showgrid="false"
     units="px"
     inkscape:window-width="1140"
     inkscape:window-height="1368"
     inkscape:window-x="1411"
     inkscape:window-y="0"
     inkscape:window-maximized="0"
     inkscape:snap-center="true"
     inkscape:snap-object-midpoints="true"
     inkscape:snap-page="true"
     inkscape:snap-intersection-paths="true"
     inkscape:snap-smooth-nodes="false"
     showguides="true"
     inkscape:guide-bbox="true"
     inkscape:snap-bbox="true"
     inkscape:bbox-paths="true"
     inkscape:bbox-nodes="true"
     inkscape:snap-bbox-edge-midpoints="true"
     inkscape:snap-bbox-midpoints="true">
    <sodipodi:guide
       position="0,6.3499999"
       orientation="1,0"
       id="guide11518" />
  </sodipodi:namedview>
  <metadata
     id="metadata10905">
    <rdf:RDF>
      <cc:Work
         rdf:about="">
        <dc:format>image/svg+xml</dc:format>
        <dc:type
           rdf:resource="http://purl.org/dc/dcmitype/StillImage" />
        <dc:title>python-simple</dc:title>
      </cc:Work>
    </rdf:RDF>
  </metadata>
  <g
     inkscape:label="Layer 1"
     inkscape:groupmode="layer"
     id="layer1"
     transform="translate(-109.4619,-112.48571)">
    <path
       fill="#ffd845"
       d="m 111.87562,115.55692 h 1.51311 c 0.4212,0 0.75299,-0.35639 0.75299,-0.77936 v -1.44248 c 0,-0.41057 -0.34413,-0.71901 -0.75527,-0.78751 -0.26019,-0.0433 -0.52904,-0.063 -0.78807,-0.0618 -0.25894,0.001 -0.49879,0.0232 -0.71637,0.0618 -0.64112,0.11318 -0.74999,0.35032 -0.74999,0.78751 v 0.56131 h 1.50485 v 0.20757 h -2.08728 c -0.44025,0 -0.8258,0.26506 -0.94634,0.76856 -0.13912,0.57703 -0.1453,0.92984 0,1.53236 0.10767,0.44844 0.36479,0.76067 0.80509,0.76067 h 0.51612 v -0.67708 c 0,-0.50007 0.43733,-0.93155 0.95116,-0.93155 z m -0.0954,-2.02948 c -0.15702,0 -0.28426,-0.12864 -0.28426,-0.28774 0,-0.15977 0.12719,-0.2896 0.28426,-0.2896 0.15646,0 0.28432,0.12983 0.28432,0.2896 -6e-5,0.1591 -0.12792,0.28774 -0.28432,0.28774 z m 3.88092,1.34508 c -0.10887,-0.43838 -0.31669,-0.76856 -0.75757,-0.76856 h -0.5543 v 0.6736 c 0,0.52151 -0.45633,0.93503 -0.96056,0.93503 h -1.51311 c -0.41451,0 -0.7436,0.38016 -0.7436,0.79529 v 1.44259 c 0,0.41046 0.35001,0.65196 0.75045,0.76975 0.47958,0.14099 0.93374,0.16647 1.5075,0 0.38136,-0.11047 0.75176,-0.33267 0.75176,-0.76975 v -0.57735 h -1.50485 v -0.20757 h 2.26672 c 0.44024,0 0.60438,-0.29972 0.75756,-0.76072 0.15811,-0.47455 0.15132,-0.92362 0,-1.53231 z m -2.17711,2.88548 c 0.15707,0 0.28431,0.12864 0.28431,0.28784 0,0.15962 -0.12718,0.2895 -0.28431,0.2895 -0.15644,0 -0.28426,-0.12983 -0.28426,-0.2895 0,-0.1592 0.12782,-0.28784 0.28426,-0.28784 z"
       id="python-plain"
       style="stroke-width:0.0518914" />
  </g>
</svg>
