<?xml version="1.0" encoding="UTF-8" standalone="no"?>
<svg
   xmlns:dc="http://purl.org/dc/elements/1.1/"
   xmlns:cc="http://creativecommons.org/ns#"
   xmlns:rdf="http://www.w3.org/1999/02/22-rdf-syntax-ns#"
   xmlns:svg="http://www.w3.org/2000/svg"
   xmlns="http://www.w3.org/2000/svg"
   xmlns:sodipodi="http://sodipodi.sourceforge.net/DTD/sodipodi-0.dtd"
   xmlns:inkscape="http://www.inkscape.org/namespaces/inkscape"
   width="24"
   height="24"
   viewBox="0 0 6.3499999 6.3499999"
   version="1.1"
   id="svg10908"
   inkscape:version="1.0.1 (3bc2e813f5, 2020-09-07)"
   sodipodi:docname="jquery-square-outline.svg">
  <title
     id="title11486">jquery-square-outline</title>
  <defs
     id="defs10902" />
  <sodipodi:namedview
     id="base"
     pagecolor="#ffffff"
     bordercolor="#666666"
     borderopacity="1.0"
     inkscape:pageopacity="0.0"
     inkscape:pageshadow="2"
     inkscape:zoom="22.4"
     inkscape:cx="11.239633"
     inkscape:cy="11.063399"
     inkscape:document-units="mm"
     inkscape:current-layer="layer1"
     inkscape:document-rotation="0"
     showgrid="false"
     units="px"
     inkscape:window-width="1140"
     inkscape:window-height="1368"
     inkscape:window-x="1411"
     inkscape:window-y="0"
     inkscape:window-maximized="0"
     inkscape:snap-center="true"
     inkscape:snap-object-midpoints="true"
     inkscape:snap-page="true"
     inkscape:snap-intersection-paths="true"
     inkscape:snap-smooth-nodes="false"
     showguides="true"
     inkscape:guide-bbox="true"
     inkscape:snap-bbox="true"
     inkscape:bbox-paths="true"
     inkscape:bbox-nodes="true"
     inkscape:snap-bbox-edge-midpoints="true"
     inkscape:snap-bbox-midpoints="true">
    <sodipodi:guide
       position="0,6.3499999"
       orientation="1,0"
       id="guide11518" />
  </sodipodi:namedview>
  <metadata
     id="metadata10905">
    <rdf:RDF>
      <cc:Work
         rdf:about="">
        <dc:format>image/svg+xml</dc:format>
        <dc:type
           rdf:resource="http://purl.org/dc/dcmitype/StillImage" />
        <dc:title>jquery-square-outline</dc:title>
      </cc:Work>
    </rdf:RDF>
  </metadata>
  <g
     inkscape:label="Layer 1"
     inkscape:groupmode="layer"
     id="layer1"
     transform="translate(-109.4619,-112.48571)">
    <path
       id="path1441-5-4-20-0-2-1-5-9-8"
       style="fill:#000000;fill-opacity:1;stroke-width:0.264583"
       d="m 109.4619,112.48571 v 6.35 h 6.35 v -6.35 z m 0.52917,0.52917 h 5.29166 v 5.29166 h -5.29166 z m 3.11143,0.35139 -0.13436,0.18552 c -0.17976,0.26455 -0.19759,0.59305 -0.0729,0.88522 0.13155,0.31013 0.40112,0.55326 0.71572,0.66869 v 5.3e-4 c 0.013,0.005 0.0261,0.009 0.0393,0.0134 l 0.017,0.005 c 0.0185,0.006 0.0371,0.0124 0.0563,0.016 0.86934,0.168 1.10515,-0.44599 1.16789,-0.53641 -0.20656,0.2974 -0.55385,0.36848 -0.97979,0.26511 -0.0336,-0.008 -0.0705,-0.02 -0.10283,-0.0315 -0.0416,-0.0148 -0.0827,-0.0315 -0.12248,-0.0506 -0.0757,-0.0364 -0.14762,-0.0808 -0.21445,-0.13126 -0.38113,-0.28923 -0.61818,-0.84058 -0.36949,-1.28984 z m -0.98547,0.2155 -0.24908,0.3514 c -0.30498,0.43882 -0.28852,1.02623 -0.0506,1.49035 0.0399,0.0779 0.0847,0.15346 0.13488,0.2253 h -5.3e-4 c 0.0457,0.0655 0.0959,0.14377 0.15657,0.19638 0.022,0.0242 0.0454,0.0476 0.0687,0.0708 l 0.0181,0.0181 c 0.0228,0.0221 0.0459,0.0435 0.0698,0.0646 l 0.003,0.002 5.3e-4,0.001 c 0.0265,0.0232 0.0539,0.0451 0.0816,0.0672 l 0.0186,0.0145 c 0.0279,0.0214 0.0562,0.0425 0.0853,0.0625 l 0.003,0.002 c 0.0128,0.009 0.0258,0.0172 0.0388,0.0258 l 0.0186,0.0119 c 0.0208,0.0134 0.0416,0.0263 0.0631,0.0387 l 0.009,0.005 c 0.0185,0.0106 0.0371,0.0208 0.0558,0.031 l 0.0196,0.0109 c 0.013,0.007 0.0261,0.0135 0.0393,0.0202 l 0.006,0.003 c 0.0268,0.0132 0.0539,0.0258 0.0816,0.0377 l 0.0181,0.008 c 0.0221,0.009 0.0443,0.0184 0.0667,0.0269 l 0.0289,0.0103 c 0.0204,0.008 0.0408,0.0148 0.0615,0.0217 l 0.0279,0.009 c 0.0293,0.009 0.0584,0.0208 0.0889,0.0258 1.57447,0.26085 1.93786,-0.95136 1.93786,-0.95136 -0.32765,0.47188 -0.96258,0.69667 -1.63969,0.5209 -0.0301,-0.008 -0.0594,-0.016 -0.0889,-0.0253 l -0.0269,-0.009 c -0.0209,-0.007 -0.0419,-0.0136 -0.0625,-0.0212 l -0.0279,-0.0109 c -0.0226,-0.009 -0.0451,-0.0175 -0.0672,-0.0269 l -0.0181,-0.008 c -0.0278,-0.0121 -0.0553,-0.0248 -0.0822,-0.0382 -0.0139,-0.007 -0.0277,-0.0137 -0.0413,-0.0207 l -0.0238,-0.0124 c -0.0175,-0.009 -0.035,-0.0194 -0.0522,-0.0294 l -0.0124,-0.007 c -0.0213,-0.0125 -0.0422,-0.0256 -0.063,-0.0388 l -0.0191,-0.0124 c -0.0137,-0.009 -0.0273,-0.0178 -0.0408,-0.0269 -0.029,-0.02 -0.0568,-0.0412 -0.0847,-0.0625 l -0.0191,-0.015 c -0.29637,-0.234 -0.53167,-0.55415 -0.64338,-0.91677 -0.11706,-0.37605 -0.0917,-0.79787 0.11111,-1.1405 z m -1.22938,0.4439 -0.32918,0.41754 c -0.42165,0.606 -0.3696,1.39466 -0.0475,2.03864 0.008,0.0155 0.0159,0.0303 0.0238,0.0455 l 0.015,0.0289 0.009,0.017 0.0165,0.03 c 0.01,0.0176 0.0205,0.0352 0.031,0.0527 l 0.0176,0.0289 c 0.0116,0.0188 0.0235,0.0374 0.0357,0.0558 l 0.015,0.0233 c 0.0167,0.025 0.0339,0.0499 0.0517,0.0744 l 0.002,0.002 0.009,0.0119 c 0.0153,0.0212 0.031,0.0419 0.047,0.0625 l 0.0176,0.0227 c 0.0143,0.0179 0.0287,0.0355 0.0434,0.0532 l 0.0165,0.0202 c 0.0198,0.0233 0.0404,0.0464 0.061,0.0693 l 0.001,10e-4 0.002,0.002 c 0.0201,0.022 0.0412,0.0436 0.062,0.0651 l 0.0196,0.0196 c 0.0162,0.0163 0.0325,0.0322 0.0491,0.0481 l 0.0202,0.0191 c 0.0222,0.0209 0.0444,0.0415 0.0672,0.0615 l 10e-4,0.001 0.0119,0.01 c 0.0201,0.0174 0.0408,0.0347 0.0615,0.0517 l 0.0253,0.0202 c 0.0169,0.0136 0.034,0.0272 0.0512,0.0403 l 0.0269,0.0207 c 0.0189,0.0139 0.0381,0.0274 0.0574,0.0408 l 0.0212,0.015 0.006,0.004 c 0.0183,0.0126 0.0371,0.0246 0.0558,0.0367 l 0.0243,0.016 c 0.0286,0.0181 0.0574,0.0364 0.0868,0.0538 l 0.0243,0.0134 c 0.0216,0.0125 0.0436,0.0247 0.0656,0.0367 0.0119,0.007 0.0242,0.0124 0.0362,0.0186 0.0156,0.008 0.0307,0.0164 0.0465,0.0243 l 0.0109,0.005 0.0191,0.009 c 0.0245,0.0117 0.0494,0.0235 0.0744,0.0346 l 0.0155,0.007 c 0.0286,0.0125 0.0572,0.0247 0.0863,0.0362 l 0.0212,0.008 c 0.0269,0.0103 0.0542,0.0209 0.0816,0.0305 l 0.0103,0.004 c 0.0301,0.0105 0.0603,0.0205 0.091,0.03 l 0.0222,0.007 c 0.0311,0.009 0.0614,0.0204 0.0935,0.0264 2.03922,0.37188 2.63188,-1.22525 2.63188,-1.22525 -0.49754,0.64818 -1.38075,0.81874 -2.21743,0.62838 v 0.002 c -0.0317,-0.007 -0.0621,-0.0171 -0.093,-0.0264 l -0.0233,-0.007 c -0.0302,-0.009 -0.0601,-0.0188 -0.0899,-0.0289 l -0.0124,-0.005 c -0.0267,-0.009 -0.0534,-0.0193 -0.0796,-0.0295 l -0.0222,-0.009 c -0.0288,-0.0113 -0.057,-0.0233 -0.0853,-0.0357 l -0.017,-0.008 c -0.0243,-0.011 -0.0485,-0.0221 -0.0724,-0.0336 l -0.0207,-0.0103 c -0.0188,-0.009 -0.0378,-0.0188 -0.0563,-0.0284 -0.0124,-0.007 -0.0249,-0.0128 -0.0372,-0.0196 -0.0226,-0.0122 -0.0445,-0.0243 -0.0667,-0.0372 l -0.0227,-0.0129 c -0.0294,-0.0173 -0.0586,-0.035 -0.0873,-0.0532 l -0.0233,-0.016 c -0.0209,-0.0134 -0.0416,-0.0267 -0.062,-0.0408 l -0.0202,-0.0139 c -0.0197,-0.014 -0.0394,-0.0281 -0.0589,-0.0424 l -0.0258,-0.0196 c -0.0177,-0.0136 -0.0352,-0.0276 -0.0527,-0.0419 l -0.0238,-0.0186 c -0.0222,-0.0183 -0.0444,-0.0369 -0.0661,-0.0558 l -0.007,-0.006 c -0.0235,-0.0206 -0.0464,-0.0419 -0.0692,-0.063 l -0.0196,-0.0191 c -0.0169,-0.016 -0.0333,-0.032 -0.0496,-0.0486 l -0.0196,-0.0196 c -0.0208,-0.0213 -0.041,-0.0427 -0.061,-0.0646 l -0.003,-0.003 c -0.0211,-0.0231 -0.0417,-0.0464 -0.062,-0.0703 l -0.016,-0.0191 c -0.0151,-0.0182 -0.0304,-0.0367 -0.045,-0.0553 l -0.016,-0.0202 c -0.0175,-0.0228 -0.0349,-0.0455 -0.0517,-0.0687 -0.46451,-0.63365 -0.63123,-1.50752 -0.25993,-2.22519 z" />
  </g>
</svg>
