<?xml version="1.0" encoding="UTF-8" standalone="no"?>
<svg
   xmlns:dc="http://purl.org/dc/elements/1.1/"
   xmlns:cc="http://creativecommons.org/ns#"
   xmlns:rdf="http://www.w3.org/1999/02/22-rdf-syntax-ns#"
   xmlns:svg="http://www.w3.org/2000/svg"
   xmlns="http://www.w3.org/2000/svg"
   xmlns:sodipodi="http://sodipodi.sourceforge.net/DTD/sodipodi-0.dtd"
   xmlns:inkscape="http://www.inkscape.org/namespaces/inkscape"
   width="24"
   height="24"
   viewBox="0 0 6.3499999 6.3499999"
   version="1.1"
   id="svg10908"
   inkscape:version="1.0.1 (3bc2e813f5, 2020-09-07)"
   sodipodi:docname="jquery-complex.svg">
  <title
     id="title11486">jquery-complex</title>
  <defs
     id="defs10902" />
  <sodipodi:namedview
     id="base"
     pagecolor="#ffffff"
     bordercolor="#666666"
     borderopacity="1.0"
     inkscape:pageopacity="0.0"
     inkscape:pageshadow="2"
     inkscape:zoom="22.4"
     inkscape:cx="12.53886"
     inkscape:cy="5.7062559"
     inkscape:document-units="mm"
     inkscape:current-layer="layer1"
     inkscape:document-rotation="0"
     showgrid="false"
     units="px"
     inkscape:window-width="1140"
     inkscape:window-height="1368"
     inkscape:window-x="1411"
     inkscape:window-y="0"
     inkscape:window-maximized="0"
     inkscape:snap-center="true"
     inkscape:snap-object-midpoints="true"
     inkscape:snap-page="true"
     inkscape:snap-intersection-paths="true"
     inkscape:snap-smooth-nodes="false"
     showguides="true"
     inkscape:guide-bbox="true"
     inkscape:snap-bbox="true"
     inkscape:bbox-paths="true"
     inkscape:bbox-nodes="true"
     inkscape:snap-bbox-edge-midpoints="true"
     inkscape:snap-bbox-midpoints="true">
    <sodipodi:guide
       position="0,6.3499999"
       orientation="1,0"
       id="guide11518" />
  </sodipodi:namedview>
  <metadata
     id="metadata10905">
    <rdf:RDF>
      <cc:Work
         rdf:about="">
        <dc:format>image/svg+xml</dc:format>
        <dc:type
           rdf:resource="http://purl.org/dc/dcmitype/StillImage" />
        <dc:title>jquery-complex</dc:title>
      </cc:Work>
    </rdf:RDF>
  </metadata>
  <g
     inkscape:label="Layer 1"
     inkscape:groupmode="layer"
     id="layer1"
     transform="translate(-109.4619,-112.48571)">
    <path
       fill="#0868ac"
       d="m 109.86515,114.0382 c -0.5622,0.808 -0.49221,1.85935 -0.0627,2.71796 0.0102,0.0206 0.0209,0.0408 0.0314,0.0611 l 0.0201,0.0387 0.0125,0.0223 0.0224,0.0401 c 0.0134,0.0235 0.027,0.0469 0.041,0.0703 l 0.0234,0.0385 c 0.0155,0.025 0.0313,0.0497 0.0476,0.0744 l 0.0203,0.0313 c 0.0224,0.0334 0.0453,0.0667 0.0689,0.0995 l 0.002,0.003 0.0116,0.0157 c 0.0204,0.0282 0.0415,0.056 0.0628,0.0836 l 0.0237,0.0301 c 0.019,0.0239 0.0383,0.0477 0.058,0.0713 l 0.0222,0.0265 c 0.0264,0.0311 0.0534,0.062 0.0808,0.0924 l 0.002,0.002 0.003,0.003 c 0.0269,0.0293 0.0543,0.058 0.0822,0.0866 l 0.0264,0.0266 c 0.0216,0.0217 0.0435,0.0431 0.0656,0.0643 l 0.0269,0.0255 c 0.0296,0.0279 0.0594,0.0552 0.0899,0.0819 l 0.001,0.001 0.0156,0.0134 c 0.0269,0.0232 0.0542,0.0463 0.0817,0.069 l 0.0339,0.027 c 0.0225,0.018 0.0452,0.0358 0.0681,0.0532 l 0.0364,0.0277 c 0.0253,0.0186 0.0507,0.0369 0.0764,0.0548 l 0.0278,0.0197 0.008,0.005 c 0.0244,0.0168 0.0493,0.0329 0.0742,0.0491 l 0.0321,0.0214 c 0.0382,0.0242 0.077,0.0481 0.11617,0.0712 l 0.0321,0.0181 c 0.0288,0.0166 0.0578,0.0329 0.0872,0.0489 0.0159,0.009 0.0322,0.0167 0.0482,0.0249 0.0207,0.0109 0.0413,0.0219 0.0624,0.0324 l 0.0144,0.007 0.0255,0.0123 c 0.0327,0.0156 0.0656,0.0309 0.0989,0.0457 l 0.0209,0.009 c 0.0381,0.0167 0.0766,0.0327 0.11536,0.048 l 0.0281,0.0111 c 0.0359,0.0138 0.0723,0.0275 0.10883,0.0403 l 0.0137,0.005 c 0.0401,0.014 0.0806,0.027 0.12137,0.0397 l 0.0293,0.009 c 0.0415,0.0125 0.0825,0.0274 0.1253,0.0353 2.71893,0.49583 3.50872,-1.63389 3.50872,-1.63389 -0.66333,0.86417 -1.84074,1.09213 -2.95631,0.83833 -0.0423,-0.01 -0.0832,-0.0227 -0.12448,-0.0349 l -0.031,-0.009 c -0.0403,-0.0123 -0.0802,-0.0253 -0.1199,-0.039 l -0.0165,-0.006 c -0.0356,-0.0125 -0.0707,-0.0257 -0.10572,-0.0392 l -0.0297,-0.0117 c -0.0383,-0.0151 -0.0765,-0.0309 -0.11413,-0.0475 l -0.0228,-0.0101 c -0.0324,-0.0147 -0.0644,-0.0295 -0.0963,-0.0448 l -0.0278,-0.0133 c -0.025,-0.0122 -0.0498,-0.0251 -0.0745,-0.0379 -0.0165,-0.009 -0.0333,-0.0169 -0.0497,-0.026 -0.0302,-0.0162 -0.0597,-0.0329 -0.0893,-0.0501 l -0.0301,-0.0168 c -0.0392,-0.023 -0.0779,-0.047 -0.11622,-0.0712 l -0.0314,-0.0209 c -0.0278,-0.0179 -0.0555,-0.0361 -0.0827,-0.055 l -0.0266,-0.0187 c -0.0263,-0.0186 -0.0523,-0.0374 -0.0782,-0.0565 l -0.0346,-0.0262 c -0.0237,-0.0181 -0.0473,-0.0363 -0.0705,-0.0551 l -0.0315,-0.0252 c -0.0297,-0.0244 -0.0589,-0.0489 -0.0879,-0.0741 l -0.01,-0.008 c -0.0313,-0.0275 -0.062,-0.0557 -0.0924,-0.084 l -0.026,-0.025 c -0.0225,-0.0214 -0.0446,-0.043 -0.0664,-0.0651 l -0.026,-0.0259 c -0.0277,-0.0283 -0.0549,-0.057 -0.0815,-0.0862 l -0.004,-0.004 c -0.0281,-0.0308 -0.0557,-0.0622 -0.0826,-0.094 l -0.0216,-0.0257 c -0.0201,-0.0242 -0.04,-0.0487 -0.0595,-0.0735 l -0.0218,-0.0271 c -0.0234,-0.0304 -0.0463,-0.0606 -0.0687,-0.0915 -0.61934,-0.84486 -0.8419,-2.01003 -0.34688,-2.96692 m 1.30642,-0.12408 c -0.40662,0.58509 -0.3845,1.36836 -0.0673,1.98714 0.0532,0.10374 0.11296,0.20441 0.17984,0.30019 0.0609,0.0873 0.12846,0.19121 0.2093,0.26135 0.0293,0.0323 0.06,0.0638 0.0912,0.0947 l 0.0241,0.0237 c 0.0304,0.0295 0.0612,0.0584 0.0932,0.0866 l 0.004,0.003 9.3e-4,9.8e-4 c 0.0353,0.031 0.0718,0.0607 0.10883,0.0901 l 0.0247,0.0193 c 0.0372,0.0285 0.075,0.0564 0.11382,0.0831 l 0.003,0.002 c 0.0171,0.0118 0.0346,0.0228 0.0519,0.0343 l 0.0246,0.0163 c 0.0277,0.0178 0.0558,0.0351 0.0844,0.0517 l 0.012,0.007 c 0.0246,0.0142 0.0496,0.0281 0.0746,0.0417 l 0.0266,0.0138 c 0.0173,0.009 0.0346,0.0182 0.0521,0.027 l 0.008,0.004 c 0.0358,0.0176 0.072,0.0347 0.10889,0.0507 l 0.0241,0.01 c 0.0295,0.0125 0.0593,0.0248 0.0892,0.0362 l 0.0382,0.014 c 0.0272,0.0101 0.0544,0.0193 0.0819,0.0285 l 0.0371,0.0119 c 0.0391,0.0121 0.0777,0.0275 0.11847,0.0342 2.09928,0.3478 2.58395,-1.26855 2.58395,-1.26855 -0.43685,0.62918 -1.28293,0.92942 -2.18574,0.69504 -0.0401,-0.0106 -0.0796,-0.022 -0.11892,-0.0344 l -0.0357,-0.0116 c -0.0279,-0.009 -0.0557,-0.0186 -0.0831,-0.0286 l -0.0375,-0.014 c -0.0302,-0.0116 -0.06,-0.0236 -0.0895,-0.0361 l -0.0241,-0.0102 c -0.0371,-0.0161 -0.0736,-0.0331 -0.10949,-0.0509 -0.0185,-0.009 -0.0367,-0.0186 -0.055,-0.0279 l -0.0317,-0.0163 c -0.0234,-0.0126 -0.0466,-0.0258 -0.0695,-0.0393 l -0.0166,-0.009 c -0.0284,-0.0166 -0.0564,-0.0337 -0.0842,-0.0514 l -0.0254,-0.0169 c -0.0183,-0.0118 -0.0366,-0.0239 -0.0545,-0.036 -0.0387,-0.0267 -0.0764,-0.0546 -0.11347,-0.083 l -0.0255,-0.0201 c -0.39516,-0.31199 -0.70845,-0.73845 -0.85734,-1.22194 -0.15609,-0.50138 -0.12244,-1.06424 0.14798,-1.52108 m 1.13561,-0.0395 c -0.23969,0.35274 -0.26324,0.79082 -0.0969,1.18036 0.1754,0.41356 0.53477,0.73791 0.95424,0.8918 0.0173,0.006 0.0346,0.0121 0.0521,0.018 l 0.023,0.007 c 0.0247,0.008 0.0492,0.0168 0.0748,0.0216 1.15916,0.22398 1.47357,-0.59482 1.55722,-0.71538 -0.27536,0.39653 -0.73821,0.4917 -1.30612,0.35387 -0.0449,-0.0109 -0.0941,-0.0271 -0.13738,-0.0424 -0.0555,-0.0198 -0.1101,-0.0423 -0.16317,-0.0677 -0.10082,-0.0485 -0.19696,-0.10725 -0.28606,-0.17453 -0.50817,-0.38563 -0.82385,-1.12114 -0.49227,-1.72014"
       id="jquery-complex"
       style="stroke-width:0.0509746" />
  </g>
</svg>
