<?xml version="1.0" encoding="UTF-8" standalone="no"?>
<svg
   xmlns:dc="http://purl.org/dc/elements/1.1/"
   xmlns:cc="http://creativecommons.org/ns#"
   xmlns:rdf="http://www.w3.org/1999/02/22-rdf-syntax-ns#"
   xmlns:svg="http://www.w3.org/2000/svg"
   xmlns="http://www.w3.org/2000/svg"
   xmlns:sodipodi="http://sodipodi.sourceforge.net/DTD/sodipodi-0.dtd"
   xmlns:inkscape="http://www.inkscape.org/namespaces/inkscape"
   width="24"
   height="24"
   viewBox="0 0 6.3499999 6.3499999"
   version="1.1"
   id="svg10908"
   inkscape:version="1.0.1 (3bc2e813f5, 2020-09-07)"
   sodipodi:docname="jquery-square-filled.svg">
  <title
     id="title11486">jquery-square-filled</title>
  <defs
     id="defs10902" />
  <sodipodi:namedview
     id="base"
     pagecolor="#ffffff"
     bordercolor="#666666"
     borderopacity="1.0"
     inkscape:pageopacity="0.0"
     inkscape:pageshadow="2"
     inkscape:zoom="22.4"
     inkscape:cx="11.239633"
     inkscape:cy="11.063399"
     inkscape:document-units="mm"
     inkscape:current-layer="layer1"
     inkscape:document-rotation="0"
     showgrid="false"
     units="px"
     inkscape:window-width="1140"
     inkscape:window-height="1368"
     inkscape:window-x="1411"
     inkscape:window-y="0"
     inkscape:window-maximized="0"
     inkscape:snap-center="true"
     inkscape:snap-object-midpoints="true"
     inkscape:snap-page="true"
     inkscape:snap-intersection-paths="true"
     inkscape:snap-smooth-nodes="false"
     showguides="true"
     inkscape:guide-bbox="true"
     inkscape:snap-bbox="true"
     inkscape:bbox-paths="true"
     inkscape:bbox-nodes="true"
     inkscape:snap-bbox-edge-midpoints="true"
     inkscape:snap-bbox-midpoints="true">
    <sodipodi:guide
       position="0,6.3499999"
       orientation="1,0"
       id="guide11518" />
  </sodipodi:namedview>
  <metadata
     id="metadata10905">
    <rdf:RDF>
      <cc:Work
         rdf:about="">
        <dc:format>image/svg+xml</dc:format>
        <dc:type
           rdf:resource="http://purl.org/dc/dcmitype/StillImage" />
        <dc:title>jquery-square-filled</dc:title>
      </cc:Work>
    </rdf:RDF>
  </metadata>
  <g
     inkscape:label="Layer 1"
     inkscape:groupmode="layer"
     id="layer1"
     transform="translate(-109.4619,-112.48571)">
    <path
       id="square-3-49"
       style="fill:#000000;fill-opacity:1;fill-rule:evenodd;stroke:none;stroke-width:0.0694534"
       d="m 109.4619,112.48571 v 6.35 h 6.35 v -6.35 z m 3.64061,0.88056 c -0.24869,0.44927 -0.0122,1.00062 0.36897,1.28985 0.0668,0.0505 0.13875,0.0949 0.21445,0.13126 0.0398,0.0191 0.0809,0.0358 0.12248,0.0506 0.0324,0.0115 0.0697,0.0235 0.10335,0.0315 0.42594,0.10338 0.77271,0.0323 0.97927,-0.2651 -0.0627,0.0904 -0.29855,0.70441 -1.16789,0.53641 -0.0192,-0.004 -0.0373,-0.01 -0.0558,-0.016 l -0.0176,-0.005 c -0.0132,-0.005 -0.0258,-0.008 -0.0387,-0.0134 v -5.3e-4 c -0.3146,-0.11543 -0.58417,-0.35856 -0.71572,-0.66869 -0.12473,-0.29217 -0.10743,-0.62067 0.0723,-0.88522 z m -0.98547,0.2155 c -0.20279,0.34263 -0.22817,0.76444 -0.11111,1.14049 0.11171,0.36263 0.34649,0.68277 0.64286,0.91675 l 0.0191,0.015 c 0.0279,0.0213 0.0563,0.0425 0.0853,0.0625 0.0135,0.009 0.0271,0.0179 0.0408,0.0269 l 0.0191,0.0124 c 0.0208,0.0132 0.0417,0.0263 0.063,0.0388 l 0.0124,0.007 c 0.0172,0.01 0.0347,0.0204 0.0522,0.0294 l 0.0238,0.0124 c 0.0136,0.007 0.0275,0.0137 0.0413,0.0207 0.0269,0.0134 0.0544,0.0261 0.0822,0.0382 l 0.0181,0.008 c 0.0221,0.009 0.0441,0.0179 0.0667,0.0269 l 0.0284,0.0109 c 0.0206,0.008 0.0416,0.0142 0.0625,0.0212 l 0.0264,0.009 c 0.0295,0.009 0.0593,0.0173 0.0894,0.0253 0.67711,0.17578 1.31153,-0.049 1.63918,-0.5209 0,0 -0.3634,1.21221 -1.93787,0.95136 -0.0305,-0.005 -0.0596,-0.0168 -0.0889,-0.0258 l -0.0274,-0.009 c -0.0207,-0.007 -0.0411,-0.0137 -0.0615,-0.0217 l -0.0289,-0.0103 c -0.0224,-0.008 -0.0446,-0.0179 -0.0667,-0.0269 l -0.0181,-0.008 c -0.0277,-0.012 -0.0554,-0.0245 -0.0822,-0.0377 l -0.006,-0.003 c -0.0132,-0.007 -0.0263,-0.0131 -0.0393,-0.0202 l -0.0196,-0.0109 c -0.0187,-0.0102 -0.0373,-0.0204 -0.0558,-0.031 l -0.009,-0.005 c -0.0214,-0.0125 -0.0422,-0.0254 -0.063,-0.0387 l -0.0186,-0.0119 c -0.013,-0.009 -0.026,-0.0168 -0.0388,-0.0258 l -0.003,-0.002 c -0.0291,-0.02 -0.0579,-0.0411 -0.0858,-0.0625 l -0.0181,-0.0145 c -0.0278,-0.0221 -0.0551,-0.044 -0.0816,-0.0672 l -0.001,-0.001 -0.003,-0.002 c -0.0239,-0.0211 -0.0475,-0.0425 -0.0703,-0.0646 l -0.0176,-0.0181 c -0.0234,-0.0232 -0.0467,-0.0466 -0.0687,-0.0708 -0.0606,-0.0526 -0.11139,-0.13087 -0.15709,-0.19637 h 10e-4 c -0.0502,-0.0718 -0.095,-0.14741 -0.13487,-0.22531 -0.23788,-0.46411 -0.25434,-1.05152 0.0506,-1.49035 z m -1.2299,0.4439 c -0.3713,0.71767 -0.20405,1.59153 0.26045,2.22518 0.0168,0.0232 0.0337,0.0459 0.0512,0.0687 l 0.0165,0.0202 c 0.0146,0.0186 0.0294,0.0371 0.0444,0.0553 l 0.0165,0.0191 c 0.0203,0.0239 0.0409,0.0472 0.062,0.0703 l 0.003,0.003 c 0.02,0.0219 0.0407,0.0433 0.0615,0.0646 l 0.0191,0.0196 c 0.0163,0.0166 0.0332,0.0326 0.0501,0.0486 l 0.0191,0.0191 c 0.0228,0.0212 0.0463,0.0425 0.0698,0.0631 l 0.007,0.006 c 0.0217,0.0189 0.0439,0.0375 0.0662,0.0558 l 0.0232,0.0186 c 0.0175,0.0142 0.0355,0.0283 0.0532,0.0419 l 0.0259,0.0196 c 0.0195,0.0143 0.0392,0.0284 0.0589,0.0424 l 0.0196,0.0139 c 0.0204,0.0141 0.0411,0.0274 0.062,0.0408 l 0.0238,0.016 c 0.0287,0.0182 0.0574,0.0359 0.0868,0.0532 l 0.0227,0.0129 c 0.0222,0.0129 0.0446,0.025 0.0672,0.0372 0.0123,0.007 0.0248,0.0126 0.0372,0.0196 0.0185,0.01 0.037,0.0194 0.0558,0.0284 l 0.0212,0.0103 c 0.0239,0.0115 0.0475,0.0226 0.0718,0.0336 l 0.0171,0.008 c 0.0283,0.0124 0.057,0.0244 0.0858,0.0357 l 0.0222,0.009 c 0.0262,0.0101 0.0529,0.0205 0.0796,0.0295 l 0.0119,0.005 c 0.0298,0.0102 0.0597,0.0199 0.0899,0.0289 l 0.0233,0.007 c 0.0309,0.009 0.0618,0.0193 0.0935,0.0263 v -0.002 c 0.83668,0.19035 1.7199,0.0198 2.21744,-0.62838 0,0 -0.59266,1.59712 -2.63189,1.22524 -0.0321,-0.006 -0.0629,-0.0173 -0.094,-0.0263 l -0.0217,-0.007 c -0.0306,-0.01 -0.0609,-0.0195 -0.091,-0.03 l -0.0104,-0.004 c -0.0274,-0.01 -0.0547,-0.0202 -0.0816,-0.0305 l -0.0212,-0.008 c -0.0291,-0.0115 -0.0577,-0.0237 -0.0863,-0.0362 l -0.016,-0.007 c -0.025,-0.0111 -0.0494,-0.0229 -0.0739,-0.0346 l -0.0191,-0.009 -0.0108,-0.005 c -0.0158,-0.008 -0.0314,-0.0163 -0.047,-0.0243 -0.012,-0.006 -0.0243,-0.0116 -0.0362,-0.0186 -0.022,-0.012 -0.0435,-0.0242 -0.0651,-0.0367 l -0.0243,-0.0134 c -0.0294,-0.0173 -0.0582,-0.0356 -0.0868,-0.0537 l -0.0243,-0.016 c -0.0187,-0.0121 -0.0375,-0.0241 -0.0558,-0.0367 l -0.006,-0.004 -0.0212,-0.015 c -0.0193,-0.0134 -0.0385,-0.0269 -0.0574,-0.0408 l -0.0274,-0.0207 c -0.0172,-0.0131 -0.0343,-0.0267 -0.0512,-0.0403 l -0.0253,-0.0202 c -0.0207,-0.017 -0.0409,-0.0343 -0.061,-0.0517 l -0.0119,-0.01 -0.001,-0.001 c -0.0228,-0.02 -0.045,-0.0406 -0.0672,-0.0615 l -0.0202,-0.0191 c -0.0166,-0.0159 -0.0329,-0.0318 -0.0491,-0.0481 l -0.0202,-0.0196 c -0.0208,-0.0215 -0.0414,-0.0431 -0.0615,-0.0651 l -0.002,-0.002 -0.001,-0.001 c -0.0206,-0.0228 -0.0407,-0.0459 -0.0605,-0.0692 l -0.0165,-0.0202 c -0.0147,-0.0177 -0.0291,-0.0353 -0.0434,-0.0532 l -0.0181,-0.0227 c -0.016,-0.0206 -0.0317,-0.0413 -0.047,-0.0625 l -0.009,-0.0119 -0.002,-0.002 c -0.0178,-0.0245 -0.035,-0.0494 -0.0517,-0.0744 l -0.015,-0.0233 c -0.0122,-0.0184 -0.0246,-0.037 -0.0362,-0.0558 l -0.0171,-0.0289 c -0.0105,-0.0175 -0.021,-0.0351 -0.031,-0.0527 l -0.0165,-0.03 -0.009,-0.017 -0.015,-0.0289 c -0.008,-0.0152 -0.0158,-0.03 -0.0238,-0.0455 -0.32206,-0.64398 -0.37463,-1.43264 0.047,-2.03864 z" />
  </g>
</svg>
