<?xml version="1.0" encoding="UTF-8" standalone="no"?>
<svg
   xmlns:dc="http://purl.org/dc/elements/1.1/"
   xmlns:cc="http://creativecommons.org/ns#"
   xmlns:rdf="http://www.w3.org/1999/02/22-rdf-syntax-ns#"
   xmlns:svg="http://www.w3.org/2000/svg"
   xmlns="http://www.w3.org/2000/svg"
   xmlns:sodipodi="http://sodipodi.sourceforge.net/DTD/sodipodi-0.dtd"
   xmlns:inkscape="http://www.inkscape.org/namespaces/inkscape"
   width="24"
   height="24"
   viewBox="0 0 6.3499999 6.3499999"
   version="1.1"
   id="svg10908"
   inkscape:version="1.0.1 (3bc2e813f5, 2020-09-07)"
   sodipodi:docname="gitlab-square-outline.svg">
  <title
     id="title11486">gitlab-square-outline</title>
  <defs
     id="defs10902" />
  <sodipodi:namedview
     id="base"
     pagecolor="#ffffff"
     bordercolor="#666666"
     borderopacity="1.0"
     inkscape:pageopacity="0.0"
     inkscape:pageshadow="2"
     inkscape:zoom="22.4"
     inkscape:cx="11.239633"
     inkscape:cy="11.063399"
     inkscape:document-units="mm"
     inkscape:current-layer="layer1"
     inkscape:document-rotation="0"
     showgrid="false"
     units="px"
     inkscape:window-width="1140"
     inkscape:window-height="1368"
     inkscape:window-x="1411"
     inkscape:window-y="0"
     inkscape:window-maximized="0"
     inkscape:snap-center="true"
     inkscape:snap-object-midpoints="true"
     inkscape:snap-page="true"
     inkscape:snap-intersection-paths="true"
     inkscape:snap-smooth-nodes="false"
     showguides="true"
     inkscape:guide-bbox="true"
     inkscape:snap-bbox="true"
     inkscape:bbox-paths="true"
     inkscape:bbox-nodes="true"
     inkscape:snap-bbox-edge-midpoints="true"
     inkscape:snap-bbox-midpoints="true">
    <sodipodi:guide
       position="0,6.3499999"
       orientation="1,0"
       id="guide11518" />
  </sodipodi:namedview>
  <metadata
     id="metadata10905">
    <rdf:RDF>
      <cc:Work
         rdf:about="">
        <dc:format>image/svg+xml</dc:format>
        <dc:type
           rdf:resource="http://purl.org/dc/dcmitype/StillImage" />
        <dc:title>gitlab-square-outline</dc:title>
      </cc:Work>
    </rdf:RDF>
  </metadata>
  <g
     inkscape:label="Layer 1"
     inkscape:groupmode="layer"
     id="layer1"
     transform="translate(-109.4619,-112.48571)">
    <path
       id="path1441-5-4-20-0-2-5-5-4-69"
       style="fill:#000000;fill-opacity:1;stroke-width:0.264583"
       d="m 109.4619,112.48571 v 6.35 h 6.35 v -6.35 z m 0.52917,0.52916 h 5.29166 v 5.29167 h -5.29166 z m 4.12326,0.45321 c -0.0135,0.002 -0.0267,0.007 -0.0382,0.015 -0.0152,0.0104 -0.0273,0.0321 -0.0341,0.0527 l -0.52813,1.63194 H 111.76 l -0.34985,-1.08314 -0.17828,-0.5519 a 0.10411915,0.10411915 0 0 0 -0.0139,-0.0289 c -0.003,-0.004 -0.007,-0.008 -0.0103,-0.0103 -0.0355,-0.0336 -0.0932,-0.0336 -0.12713,0.003 a 0.08850885,0.08850887 0 0 0 -0.0212,0.0341 l -0.52813,1.62522 -0.11162,0.34365 -0.15503,0.47646 a 0.18110974,0.18110974 0 0 0 0.032,0.17053 c 0.01,0.012 0.0212,0.0233 0.0341,0.0326 l 2.30632,1.67586 2.30632,-1.67586 a 0.18129919,0.18129919 0 0 0 0.0662,-0.20309 l -0.26666,-0.82011 -0.52813,-1.62574 c -0.0154,-0.0473 -0.0596,-0.0676 -0.10025,-0.0615 z" />
  </g>
</svg>
