<?xml version="1.0" encoding="UTF-8" standalone="no"?>
<svg
   xmlns:dc="http://purl.org/dc/elements/1.1/"
   xmlns:cc="http://creativecommons.org/ns#"
   xmlns:rdf="http://www.w3.org/1999/02/22-rdf-syntax-ns#"
   xmlns:svg="http://www.w3.org/2000/svg"
   xmlns="http://www.w3.org/2000/svg"
   xmlns:sodipodi="http://sodipodi.sourceforge.net/DTD/sodipodi-0.dtd"
   xmlns:inkscape="http://www.inkscape.org/namespaces/inkscape"
   width="24"
   height="24"
   viewBox="0 0 6.3499999 6.3499999"
   version="1.1"
   id="svg10908"
   inkscape:version="1.0.1 (3bc2e813f5, 2020-09-07)"
   sodipodi:docname="java-roundedsquare-filled.svg">
  <title
     id="title11486">java-roundedsquare-filled</title>
  <defs
     id="defs10902" />
  <sodipodi:namedview
     id="base"
     pagecolor="#ffffff"
     bordercolor="#666666"
     borderopacity="1.0"
     inkscape:pageopacity="0.0"
     inkscape:pageshadow="2"
     inkscape:zoom="22.4"
     inkscape:cx="11.239633"
     inkscape:cy="11.063399"
     inkscape:document-units="mm"
     inkscape:current-layer="layer1"
     inkscape:document-rotation="0"
     showgrid="false"
     units="px"
     inkscape:window-width="1140"
     inkscape:window-height="1368"
     inkscape:window-x="1411"
     inkscape:window-y="0"
     inkscape:window-maximized="0"
     inkscape:snap-center="true"
     inkscape:snap-object-midpoints="true"
     inkscape:snap-page="true"
     inkscape:snap-intersection-paths="true"
     inkscape:snap-smooth-nodes="false"
     showguides="true"
     inkscape:guide-bbox="true"
     inkscape:snap-bbox="true"
     inkscape:bbox-paths="true"
     inkscape:bbox-nodes="true"
     inkscape:snap-bbox-edge-midpoints="true"
     inkscape:snap-bbox-midpoints="true">
    <sodipodi:guide
       position="0,6.3499999"
       orientation="1,0"
       id="guide11518" />
  </sodipodi:namedview>
  <metadata
     id="metadata10905">
    <rdf:RDF>
      <cc:Work
         rdf:about="">
        <dc:format>image/svg+xml</dc:format>
        <dc:type
           rdf:resource="http://purl.org/dc/dcmitype/StillImage" />
        <dc:title>java-roundedsquare-filled</dc:title>
      </cc:Work>
    </rdf:RDF>
  </metadata>
  <g
     inkscape:label="Layer 1"
     inkscape:groupmode="layer"
     id="layer1"
     transform="translate(-109.4619,-112.48571)">
    <path
       id="roundedsquare-59-3"
       style="fill:#000000;fill-opacity:1;fill-rule:evenodd;stroke:none;stroke-width:0.0694534"
       d="m 109.99107,112.48571 c -0.29316,0 -0.52917,0.23601 -0.52917,0.52917 v 5.29166 c 0,0.29316 0.23601,0.52917 0.52917,0.52917 h 5.29166 c 0.29316,0 0.52917,-0.23601 0.52917,-0.52917 v -5.29166 c 0,-0.29316 -0.23601,-0.52917 -0.52917,-0.52917 z m 3.1228,0.79375 c 0,0 0.49442,0.49522 -0.46974,1.25625 -0.77325,0.61067 -0.17603,0.95861 0,1.35651 -0.45139,-0.40721 -0.78278,-0.76551 -0.56069,-1.09916 0.32612,-0.48966 1.22998,-0.72734 1.03043,-1.5136 z m 0.59635,0.97255 c -1.03857,0.60231 -0.84659,0.77703 -0.59635,1.12861 0.26784,0.37718 -0.31574,0.67852 -0.31574,0.67852 0,0 0.29029,-0.23772 0.0605,-0.5023 -0.77863,-0.89728 0.85167,-1.30483 0.85163,-1.30483 z m 0.31316,1.60352 c 0.44984,0.0216 0.65489,0.66193 -0.38913,0.93638 0,0 0.0141,-0.0122 0.0181,-0.0233 0.89358,-0.46422 0.48012,-0.91018 0.19172,-0.85008 -0.0706,0.0147 -0.1018,0.0274 -0.1018,0.0274 0,0 0.0259,-0.0412 0.076,-0.0589 0.0713,-0.0251 0.1409,-0.0346 0.20516,-0.0315 z m -1.98283,0.045 c 0.038,-0.001 0.0589,5.3e-4 0.0589,5.3e-4 0,0 -0.86546,0.20529 -0.30645,0.28009 0.23613,0.0315 0.70662,0.0243 1.14515,-0.0124 0.35822,-0.0301 0.71779,-0.0946 0.71779,-0.0946 0,0 -0.12616,0.0545 -0.21756,0.11679 -0.87912,0.23127 -2.57704,0.12371 -2.08824,-0.11266 0.30995,-0.14991 0.57646,-0.17478 0.69039,-0.17776 z m -0.14262,0.54053 c 0,0 -0.20375,0.15116 0.108,0.18346 0.40317,0.0416 0.7212,0.045 1.27228,-0.061 0,0 0.0761,0.0772 0.19585,0.11937 -1.12711,0.32967 -2.38257,0.0259 -1.57613,-0.24185 z m 0.1142,0.52142 c 0,0 -0.18177,0.10589 0.12971,0.14159 0.37741,0.0431 0.57024,0.0368 0.98599,-0.0418 0,0 0.10926,0.0688 0.26199,0.12815 -0.93238,0.39947 -2.10993,-0.0233 -1.37769,-0.22789 z m -0.47335,0.34623 c 0.045,0.002 0.0813,0.0102 0.1049,0.0269 0,0 -0.0593,-0.005 -0.16382,0.0181 -0.10024,0.0216 -0.41886,0.12454 -0.24907,0.19844 0.47267,0.20513 2.17446,0.15576 2.71249,-0.007 0.2789,-0.0846 0.15306,-0.19273 0.14934,-0.19585 0.48894,0.22266 -1.07379,0.66856 -2.97294,0.3607 -0.60995,-0.099 0.10445,-0.4131 0.4191,-0.40101 z m 2.8546,0.28215 c -0.0311,0.40581 -1.34853,0.49095 -2.20607,0.43615 -0.56359,-0.0363 -0.67334,-0.12712 -0.67334,-0.12712 0.53541,0.0884 1.43837,0.10474 2.17041,-0.0331 0.64879,-0.12206 0.70904,-0.27596 0.709,-0.27596 z" />
  </g>
</svg>
