<?xml version="1.0" encoding="UTF-8" standalone="no"?>
<svg
   xmlns:dc="http://purl.org/dc/elements/1.1/"
   xmlns:cc="http://creativecommons.org/ns#"
   xmlns:rdf="http://www.w3.org/1999/02/22-rdf-syntax-ns#"
   xmlns:svg="http://www.w3.org/2000/svg"
   xmlns="http://www.w3.org/2000/svg"
   xmlns:sodipodi="http://sodipodi.sourceforge.net/DTD/sodipodi-0.dtd"
   xmlns:inkscape="http://www.inkscape.org/namespaces/inkscape"
   width="24"
   height="24"
   viewBox="0 0 6.3499999 6.3499999"
   version="1.1"
   id="svg10908"
   inkscape:version="1.0.1 (3bc2e813f5, 2020-09-07)"
   sodipodi:docname="java-square-outline.svg">
  <title
     id="title11486">java-square-outline</title>
  <defs
     id="defs10902" />
  <sodipodi:namedview
     id="base"
     pagecolor="#ffffff"
     bordercolor="#666666"
     borderopacity="1.0"
     inkscape:pageopacity="0.0"
     inkscape:pageshadow="2"
     inkscape:zoom="22.4"
     inkscape:cx="11.239633"
     inkscape:cy="11.063399"
     inkscape:document-units="mm"
     inkscape:current-layer="layer1"
     inkscape:document-rotation="0"
     showgrid="false"
     units="px"
     inkscape:window-width="1140"
     inkscape:window-height="1368"
     inkscape:window-x="1411"
     inkscape:window-y="0"
     inkscape:window-maximized="0"
     inkscape:snap-center="true"
     inkscape:snap-object-midpoints="true"
     inkscape:snap-page="true"
     inkscape:snap-intersection-paths="true"
     inkscape:snap-smooth-nodes="false"
     showguides="true"
     inkscape:guide-bbox="true"
     inkscape:snap-bbox="true"
     inkscape:bbox-paths="true"
     inkscape:bbox-nodes="true"
     inkscape:snap-bbox-edge-midpoints="true"
     inkscape:snap-bbox-midpoints="true">
    <sodipodi:guide
       position="0,6.3499999"
       orientation="1,0"
       id="guide11518" />
  </sodipodi:namedview>
  <metadata
     id="metadata10905">
    <rdf:RDF>
      <cc:Work
         rdf:about="">
        <dc:format>image/svg+xml</dc:format>
        <dc:type
           rdf:resource="http://purl.org/dc/dcmitype/StillImage" />
        <dc:title>java-square-outline</dc:title>
      </cc:Work>
    </rdf:RDF>
  </metadata>
  <g
     inkscape:label="Layer 1"
     inkscape:groupmode="layer"
     id="layer1"
     transform="translate(-109.4619,-112.48571)">
    <path
       id="path1441-5-4-20-0-2-1-4-3"
       style="fill:#000000;fill-opacity:1;stroke-width:0.264583"
       d="m 109.4619,112.48571 v 6.35 h 6.35 v -6.35 z m 0.52917,0.52916 h 5.29166 v 5.29167 h -5.29166 z m 3.1228,0.26459 c 0.19954,0.78626 -0.7043,1.02394 -1.03043,1.5136 -0.22209,0.33365 0.1093,0.69195 0.56069,1.09916 -0.17604,-0.3979 -0.77324,-0.74584 0,-1.35651 0.96416,-0.76103 0.46974,-1.25625 0.46974,-1.25625 z m 0.59635,0.97255 c 4e-5,0 -1.63026,0.40755 -0.85163,1.30483 0.22983,0.26458 -0.0605,0.50229 -0.0605,0.50229 0,0 0.58358,-0.30133 0.31574,-0.67851 -0.25024,-0.35158 -0.44222,-0.5263 0.59635,-1.12861 z m 0.31316,1.60352 c -0.0643,-0.003 -0.13385,0.006 -0.20516,0.0315 -0.0501,0.0177 -0.076,0.0589 -0.076,0.0589 0,0 0.0312,-0.0127 0.1018,-0.0274 0.2884,-0.0601 0.70186,0.38586 -0.19172,0.85008 -0.004,0.011 -0.0181,0.0233 -0.0181,0.0233 1.04402,-0.27445 0.83897,-0.91479 0.38913,-0.93638 z m -1.98283,0.045 c -0.11393,0.003 -0.38044,0.0279 -0.69039,0.17777 -0.48881,0.23637 1.20912,0.34393 2.08824,0.11266 0.0914,-0.0623 0.21756,-0.11679 0.21756,-0.11679 0,0 -0.35957,0.0645 -0.71779,0.0946 -0.43853,0.0367 -0.90902,0.0439 -1.14515,0.0124 -0.55901,-0.0748 0.30644,-0.28008 0.30644,-0.28008 0,0 -0.0209,-0.002 -0.0589,-5.3e-4 z m -0.14262,0.54054 c -0.80644,0.2677 0.44902,0.57152 1.57613,0.24185 -0.1198,-0.0422 -0.19586,-0.11938 -0.19586,-0.11938 -0.55108,0.10602 -0.86911,0.10261 -1.27227,0.061 -0.31175,-0.0323 -0.108,-0.18345 -0.108,-0.18345 z m 0.1142,0.52141 c -0.73223,0.20459 0.44532,0.62737 1.37769,0.2279 -0.15272,-0.0594 -0.26199,-0.12816 -0.26199,-0.12816 -0.41576,0.0786 -0.60858,0.085 -0.98599,0.0419 -0.31148,-0.0357 -0.12971,-0.1416 -0.12971,-0.1416 z m -0.47336,0.34624 c -0.31465,-0.0121 -1.02905,0.30202 -0.41909,0.40101 1.89914,0.30786 3.46188,-0.13804 2.97294,-0.3607 0.004,0.003 0.12956,0.11129 -0.14934,0.19585 -0.53803,0.16301 -2.23982,0.21236 -2.7125,0.007 -0.16978,-0.0739 0.14885,-0.1768 0.24908,-0.19844 0.1045,-0.0226 0.16382,-0.0181 0.16382,-0.0181 -0.0236,-0.0166 -0.06,-0.025 -0.10491,-0.0269 z m 2.85461,0.28215 c 4e-5,0 -0.0602,0.15389 -0.709,0.27595 -0.73204,0.13781 -1.63501,0.12144 -2.17041,0.0331 0,0 0.10975,0.0908 0.67334,0.12712 0.85753,0.0548 2.17494,-0.0303 2.20607,-0.43615 z" />
  </g>
</svg>
