<?xml version="1.0" encoding="UTF-8" standalone="no"?>
<svg
   xmlns:dc="http://purl.org/dc/elements/1.1/"
   xmlns:cc="http://creativecommons.org/ns#"
   xmlns:rdf="http://www.w3.org/1999/02/22-rdf-syntax-ns#"
   xmlns:svg="http://www.w3.org/2000/svg"
   xmlns="http://www.w3.org/2000/svg"
   xmlns:sodipodi="http://sodipodi.sourceforge.net/DTD/sodipodi-0.dtd"
   xmlns:inkscape="http://www.inkscape.org/namespaces/inkscape"
   width="24"
   height="24"
   viewBox="0 0 6.3499999 6.3499999"
   version="1.1"
   id="svg10908"
   inkscape:version="1.0.1 (3bc2e813f5, 2020-09-07)"
   sodipodi:docname="java-circle-filled.svg">
  <title
     id="title11486">java-circle-filled</title>
  <defs
     id="defs10902" />
  <sodipodi:namedview
     id="base"
     pagecolor="#ffffff"
     bordercolor="#666666"
     borderopacity="1.0"
     inkscape:pageopacity="0.0"
     inkscape:pageshadow="2"
     inkscape:zoom="22.4"
     inkscape:cx="11.239633"
     inkscape:cy="11.063399"
     inkscape:document-units="mm"
     inkscape:current-layer="layer1"
     inkscape:document-rotation="0"
     showgrid="false"
     units="px"
     inkscape:window-width="1140"
     inkscape:window-height="1368"
     inkscape:window-x="1411"
     inkscape:window-y="0"
     inkscape:window-maximized="0"
     inkscape:snap-center="true"
     inkscape:snap-object-midpoints="true"
     inkscape:snap-page="true"
     inkscape:snap-intersection-paths="true"
     inkscape:snap-smooth-nodes="false"
     showguides="true"
     inkscape:guide-bbox="true"
     inkscape:snap-bbox="true"
     inkscape:bbox-paths="true"
     inkscape:bbox-nodes="true"
     inkscape:snap-bbox-edge-midpoints="true"
     inkscape:snap-bbox-midpoints="true">
    <sodipodi:guide
       position="0,6.3499999"
       orientation="1,0"
       id="guide11518" />
  </sodipodi:namedview>
  <metadata
     id="metadata10905">
    <rdf:RDF>
      <cc:Work
         rdf:about="">
        <dc:format>image/svg+xml</dc:format>
        <dc:type
           rdf:resource="http://purl.org/dc/dcmitype/StillImage" />
        <dc:title>java-circle-filled</dc:title>
      </cc:Work>
    </rdf:RDF>
  </metadata>
  <g
     inkscape:label="Layer 1"
     inkscape:groupmode="layer"
     id="layer1"
     transform="translate(-109.4619,-112.48571)">
    <path
       id="circle-3-3"
       style="fill:#000000;fill-opacity:1;fill-rule:evenodd;stroke:none;stroke-width:0.0916501"
       d="m 112.6369,112.48571 a 3.175,3.1749997 0 0 0 -3.175,3.175 3.175,3.1749997 0 0 0 3.175,3.175 3.175,3.1749997 0 0 0 3.175,-3.175 3.175,3.1749997 0 0 0 -3.175,-3.175 z m 0.4129,0.84646 c 0,0 0.42891,0.42925 -0.4067,1.08882 -0.67015,0.52925 -0.15256,0.8308 0,1.17564 -0.39116,-0.35291 -0.67824,-0.66324 -0.48576,-0.9524 0.28264,-0.42436 1.06538,-0.63064 0.89246,-1.31206 z m 0.51727,0.84336 c -0.90008,0.52201 -0.73416,0.67353 -0.51727,0.97823 0.23211,0.32689 -0.27337,0.58757 -0.27337,0.58757 0,0 0.25137,-0.20633 0.0522,-0.43564 -0.67481,-0.77765 0.7385,-1.13016 0.73845,-1.13016 z m 0.27131,1.38958 c 0.38987,0.0187 0.56788,0.57397 -0.33693,0.81184 0,0 0.0125,-0.0107 0.0155,-0.0207 0.77444,-0.40231 0.41582,-0.789 0.16588,-0.73691 -0.0611,0.0128 -0.0884,0.0238 -0.0884,0.0238 0,0 0.0228,-0.0353 0.0661,-0.0506 0.0618,-0.0217 0.12207,-0.0301 0.17777,-0.0274 z m -1.71824,0.0388 c 0.0329,-8e-4 0.0511,5.3e-4 0.0511,5.3e-4 0,0 -0.75009,0.17807 -0.26561,0.24288 0.20465,0.0273 0.61213,0.0209 0.99219,-0.0109 0.31045,-0.0261 0.62218,-0.0816 0.62218,-0.0816 0,0 -0.10942,0.0468 -0.18862,0.10077 -0.7619,0.20042 -2.23335,0.10718 -1.80971,-0.0977 0.26862,-0.12994 0.49968,-0.15141 0.59842,-0.15399 z m -0.12351,0.4687 c 0,0 -0.17716,0.13065 0.093,0.15865 0.34941,0.0361 0.62517,0.0392 1.10277,-0.0527 0,0 0.0662,0.0667 0.17002,0.10335 -0.97683,0.28573 -2.06472,0.0227 -1.36581,-0.20929 z m 0.0987,0.45165 c 0,0 -0.15781,0.0921 0.11214,0.12299 0.32709,0.0374 0.49441,0.0319 0.85473,-0.0362 0,0 0.095,0.0591 0.22737,0.11059 -0.80807,0.3462 -1.82884,-0.0201 -1.19424,-0.19741 z m -0.41031,0.30024 c 0.039,0.002 0.0705,0.008 0.091,0.0227 0,0 -0.0515,-0.003 -0.14211,0.0165 -0.0869,0.0188 -0.36316,0.10746 -0.21601,0.17156 0.40965,0.17785 1.88498,0.13506 2.35128,-0.006 0.24111,-0.0731 0.13294,-0.16634 0.12919,-0.1695 0.42321,0.19301 -0.93088,0.5789 -2.57658,0.31213 -0.52864,-0.0858 0.0906,-0.35775 0.36328,-0.34727 z m 2.47375,0.24443 c -0.027,0.35163 -1.16832,0.42577 -1.91151,0.37827 -0.48848,-0.0314 -0.58343,-0.11058 -0.58343,-0.11058 0.46401,0.0766 1.24659,0.0905 1.88102,-0.0289 0.56231,-0.10577 0.61395,-0.23875 0.61392,-0.23875 z" />
  </g>
</svg>
