<?xml version="1.0" encoding="UTF-8" standalone="no"?>
<svg
   xmlns:dc="http://purl.org/dc/elements/1.1/"
   xmlns:cc="http://creativecommons.org/ns#"
   xmlns:rdf="http://www.w3.org/1999/02/22-rdf-syntax-ns#"
   xmlns:svg="http://www.w3.org/2000/svg"
   xmlns="http://www.w3.org/2000/svg"
   xmlns:sodipodi="http://sodipodi.sourceforge.net/DTD/sodipodi-0.dtd"
   xmlns:inkscape="http://www.inkscape.org/namespaces/inkscape"
   width="24"
   height="24"
   viewBox="0 0 6.3499999 6.3499999"
   version="1.1"
   id="svg10908"
   inkscape:version="1.0.1 (3bc2e813f5, 2020-09-07)"
   sodipodi:docname="java-roundedsquare-outline.svg">
  <title
     id="title11486">java-roundedsquare-outline</title>
  <defs
     id="defs10902" />
  <sodipodi:namedview
     id="base"
     pagecolor="#ffffff"
     bordercolor="#666666"
     borderopacity="1.0"
     inkscape:pageopacity="0.0"
     inkscape:pageshadow="2"
     inkscape:zoom="22.4"
     inkscape:cx="11.239633"
     inkscape:cy="11.063399"
     inkscape:document-units="mm"
     inkscape:current-layer="layer1"
     inkscape:document-rotation="0"
     showgrid="false"
     units="px"
     inkscape:window-width="1140"
     inkscape:window-height="1368"
     inkscape:window-x="1411"
     inkscape:window-y="0"
     inkscape:window-maximized="0"
     inkscape:snap-center="true"
     inkscape:snap-object-midpoints="true"
     inkscape:snap-page="true"
     inkscape:snap-intersection-paths="true"
     inkscape:snap-smooth-nodes="false"
     showguides="true"
     inkscape:guide-bbox="true"
     inkscape:snap-bbox="true"
     inkscape:bbox-paths="true"
     inkscape:bbox-nodes="true"
     inkscape:snap-bbox-edge-midpoints="true"
     inkscape:snap-bbox-midpoints="true">
    <sodipodi:guide
       position="0,6.3499999"
       orientation="1,0"
       id="guide11518" />
  </sodipodi:namedview>
  <metadata
     id="metadata10905">
    <rdf:RDF>
      <cc:Work
         rdf:about="">
        <dc:format>image/svg+xml</dc:format>
        <dc:type
           rdf:resource="http://purl.org/dc/dcmitype/StillImage" />
        <dc:title>java-roundedsquare-outline</dc:title>
      </cc:Work>
    </rdf:RDF>
  </metadata>
  <g
     inkscape:label="Layer 1"
     inkscape:groupmode="layer"
     id="layer1"
     transform="translate(-109.4619,-112.48571)">
    <path
       id="roundedsquare-outline-2-16-6-5"
       style="fill:#000000;fill-opacity:1;fill-rule:evenodd;stroke:none;stroke-width:0.529071;stroke-linejoin:round;stroke-miterlimit:4;stroke-dasharray:none;stroke-opacity:1"
       d="m 110.32851,112.48571 c -0.47997,0 -0.86661,0.38663 -0.86661,0.86661 v 4.61678 c 0,0.47997 0.38664,0.86661 0.86661,0.86661 h 4.61678 c 0.47997,0 0.86661,-0.38664 0.86661,-0.86661 v -4.61678 c 0,-0.47998 -0.38664,-0.86661 -0.86661,-0.86661 z m 0.19172,0.52917 h 4.23334 c 0.29316,0 0.52916,0.236 0.52916,0.52916 v 4.23334 c 0,0.29316 -0.236,0.52916 -0.52916,0.52916 h -4.23334 c -0.29316,0 -0.52916,-0.236 -0.52916,-0.52916 v -4.23334 c 0,-0.29316 0.236,-0.52916 0.52916,-0.52916 z m 2.59364,0.26458 c 0.19954,0.78626 -0.70378,1.02394 -1.02991,1.5136 -0.22209,0.33365 0.10878,0.69195 0.56017,1.09916 -0.17602,-0.3979 -0.77272,-0.74584 5.3e-4,-1.35651 0.96415,-0.76103 0.46921,-1.25625 0.46921,-1.25625 z m 0.59635,0.97255 c 3e-5,0 -1.63026,0.40755 -0.85163,1.30483 0.22983,0.26458 -0.0605,0.5023 -0.0605,0.5023 0,0 0.58358,-0.30134 0.31574,-0.67852 -0.25024,-0.35158 -0.44223,-0.5263 0.59635,-1.12861 z m 0.31316,1.60352 c -0.0643,-0.003 -0.13333,0.006 -0.20464,0.0315 -0.0501,0.0177 -0.0765,0.0589 -0.0765,0.0589 0,0 0.0317,-0.0127 0.10232,-0.0274 0.28839,-0.0601 0.70135,0.38585 -0.19224,0.85007 -0.004,0.011 -0.0176,0.0233 -0.0176,0.0233 1.04403,-0.27444 0.83846,-0.91479 0.38861,-0.93638 z m -1.98283,0.045 c -0.11393,0.003 -0.38044,0.0279 -0.69039,0.17776 -0.48881,0.23638 1.20912,0.34393 2.08824,0.11266 0.0914,-0.0623 0.21756,-0.11679 0.21756,-0.11679 0,0 -0.35958,0.0645 -0.71779,0.0946 -0.43854,0.0367 -0.90902,0.0439 -1.14515,0.0124 -0.55901,-0.0748 0.30645,-0.28009 0.30645,-0.28009 0,0 -0.0209,-0.002 -0.0589,-5.3e-4 z m -0.14211,0.54053 c -0.80643,0.2677 0.44852,0.57152 1.57562,0.24185 -0.1198,-0.0422 -0.19585,-0.11937 -0.19585,-0.11937 -0.55108,0.10602 -0.86912,0.10261 -1.27228,0.061 -0.31175,-0.0323 -0.10749,-0.18346 -0.10749,-0.18346 z m 0.11369,0.52142 c -0.73223,0.20458 0.44532,0.62736 1.37769,0.22789 -0.15272,-0.0594 -0.26199,-0.12815 -0.26199,-0.12815 -0.41575,0.0786 -0.60858,0.085 -0.98599,0.0418 -0.31148,-0.0357 -0.12971,-0.14159 -0.12971,-0.14159 z m -0.47335,0.34623 c -0.31466,-0.0121 -1.02906,0.30202 -0.4191,0.40101 1.89914,0.30786 3.46188,-0.13803 2.97294,-0.3607 0.004,0.003 0.12956,0.11129 -0.14934,0.19585 -0.53803,0.16302 -2.23981,0.21237 -2.71249,0.007 -0.16979,-0.0739 0.14884,-0.17679 0.24907,-0.19844 0.1045,-0.0226 0.16434,-0.0181 0.16434,-0.0181 -0.0236,-0.0166 -0.0605,-0.025 -0.10542,-0.0269 z m 2.8546,0.28215 c 5e-5,0 -0.0597,0.1539 -0.70848,0.27596 -0.73203,0.13781 -1.63501,0.12143 -2.17041,0.0331 0,0 0.10924,0.0908 0.67282,0.12712 0.85754,0.0548 2.17494,-0.0303 2.20607,-0.43615 z" />
  </g>
</svg>
