<?xml version="1.0" encoding="UTF-8" standalone="no"?>
<svg
   xmlns:dc="http://purl.org/dc/elements/1.1/"
   xmlns:cc="http://creativecommons.org/ns#"
   xmlns:rdf="http://www.w3.org/1999/02/22-rdf-syntax-ns#"
   xmlns:svg="http://www.w3.org/2000/svg"
   xmlns="http://www.w3.org/2000/svg"
   xmlns:sodipodi="http://sodipodi.sourceforge.net/DTD/sodipodi-0.dtd"
   xmlns:inkscape="http://www.inkscape.org/namespaces/inkscape"
   width="24"
   height="24"
   viewBox="0 0 6.3499999 6.3499999"
   version="1.1"
   id="svg10908"
   inkscape:version="1.0.1 (3bc2e813f5, 2020-09-07)"
   sodipodi:docname="java-plain.svg">
  <title
     id="title11486">java-plain</title>
  <defs
     id="defs10902" />
  <sodipodi:namedview
     id="base"
     pagecolor="#ffffff"
     bordercolor="#666666"
     borderopacity="1.0"
     inkscape:pageopacity="0.0"
     inkscape:pageshadow="2"
     inkscape:zoom="22.4"
     inkscape:cx="12.53886"
     inkscape:cy="5.7062559"
     inkscape:document-units="mm"
     inkscape:current-layer="layer1"
     inkscape:document-rotation="0"
     showgrid="false"
     units="px"
     inkscape:window-width="1140"
     inkscape:window-height="1368"
     inkscape:window-x="1411"
     inkscape:window-y="0"
     inkscape:window-maximized="0"
     inkscape:snap-center="true"
     inkscape:snap-object-midpoints="true"
     inkscape:snap-page="true"
     inkscape:snap-intersection-paths="true"
     inkscape:snap-smooth-nodes="false"
     showguides="true"
     inkscape:guide-bbox="true"
     inkscape:snap-bbox="true"
     inkscape:bbox-paths="true"
     inkscape:bbox-nodes="true"
     inkscape:snap-bbox-edge-midpoints="true"
     inkscape:snap-bbox-midpoints="true">
    <sodipodi:guide
       position="0,6.3499999"
       orientation="1,0"
       id="guide11518" />
  </sodipodi:namedview>
  <metadata
     id="metadata10905">
    <rdf:RDF>
      <cc:Work
         rdf:about="">
        <dc:format>image/svg+xml</dc:format>
        <dc:type
           rdf:resource="http://purl.org/dc/dcmitype/StillImage" />
        <dc:title>java-plain</dc:title>
      </cc:Work>
    </rdf:RDF>
  </metadata>
  <g
     inkscape:label="Layer 1"
     inkscape:groupmode="layer"
     id="layer1"
     transform="translate(-109.4619,-112.48571)">
    <path
       fill="#ea2d2e"
       d="m 111.80351,117.39638 c -0.9763,0.27277 0.59402,0.83627 1.8372,0.30365 -0.20364,-0.0792 -0.34969,-0.17047 -0.34969,-0.17047 -0.55434,0.10479 -0.81149,0.11303 -1.3147,0.0556 -0.41531,-0.0476 -0.17281,-0.18873 -0.17281,-0.18873 z m 1.68835,-0.5321 c -0.73478,0.14136 -1.15919,0.13684 -1.69674,0.0814 -0.41566,-0.043 -0.14356,-0.24443 -0.14356,-0.24443 -1.07525,0.35691 0.5986,0.76189 2.10142,0.32231 -0.15974,-0.0563 -0.26112,-0.15927 -0.26112,-0.15927 z m 0.5758,-3.08149 c 5e-5,0 -2.17375,0.54274 -1.13558,1.73912 0.30644,0.35278 -0.0804,0.66996 -0.0804,0.66996 0,0 0.77776,-0.40142 0.42065,-0.90433 -0.33366,-0.46877 -0.58944,-0.70166 0.79531,-1.50475 z m 0.50861,4.12784 c 0,0 0.17952,0.14803 -0.19779,0.26244 -0.71738,0.21732 -2.98641,0.28284 -3.61664,0.009 -0.22638,-0.0986 0.19834,-0.23527 0.33198,-0.26412 0.13933,-0.0302 0.21889,-0.0247 0.21889,-0.0247 -0.25191,-0.17739 -1.62852,0.34846 -0.69906,0.4993 2.53442,0.41084 4.61991,-0.18501 3.96262,-0.48164 z m -0.87106,-1.54305 c 0.12183,-0.0831 0.29011,-0.15531 0.29011,-0.15531 0,0 -0.4794,0.0857 -0.95702,0.12585 -0.58471,0.049 -1.21189,0.0587 -1.52673,0.0166 -0.74536,-0.0997 0.40864,-0.3738 0.40864,-0.3738 0,0 -0.44827,-0.0303 -0.9993,0.23624 -0.65175,0.31515 1.61214,0.4588 2.7843,0.15043 z m 0.28533,0.77043 c -0.005,0.0147 -0.0238,0.0313 -0.0238,0.0313 1.59088,-0.41821 1.00597,-1.47418 0.2453,-1.20691 -0.0667,0.0236 -0.10174,0.0785 -0.10174,0.0785 0,0 0.0422,-0.017 0.13623,-0.0366 0.38453,-0.0801 0.93546,0.51476 -0.25598,1.1337 z m -1.34441,-1.1686 c -0.23471,-0.53053 -1.03063,-0.99467 3.6e-4,-1.8089 1.28555,-1.01472 0.62591,-1.67482 0.62591,-1.67482 0.26605,1.04834 -0.93861,1.36501 -1.37345,2.01789 -0.29612,0.44486 0.14533,0.92289 0.74718,1.46583 z m 1.38745,2.63245 c -0.97606,0.18375 -2.18001,0.16233 -2.89388,0.0445 0,0 0.14621,0.12108 0.89767,0.16945 1.14336,0.0731 2.89962,-0.0407 2.94113,-0.58175 5e-5,0 -0.0799,0.20511 -0.94492,0.36784 z"
       id="java"
       style="fill:#000000;fill-opacity:1;stroke-width:0.0508704" />
  </g>
</svg>
