<?xml version="1.0" encoding="UTF-8" standalone="no"?>
<svg
   xmlns:dc="http://purl.org/dc/elements/1.1/"
   xmlns:cc="http://creativecommons.org/ns#"
   xmlns:rdf="http://www.w3.org/1999/02/22-rdf-syntax-ns#"
   xmlns:svg="http://www.w3.org/2000/svg"
   xmlns="http://www.w3.org/2000/svg"
   xmlns:sodipodi="http://sodipodi.sourceforge.net/DTD/sodipodi-0.dtd"
   xmlns:inkscape="http://www.inkscape.org/namespaces/inkscape"
   width="24"
   height="24"
   viewBox="0 0 6.3499999 6.3499999"
   version="1.1"
   id="svg10908"
   inkscape:version="1.0.1 (3bc2e813f5, 2020-09-07)"
   sodipodi:docname="phone-default-square-outline-white.svg">
  <title
     id="title11486">phone-default-square-outline-white</title>
  <defs
     id="defs10902" />
  <sodipodi:namedview
     id="base"
     pagecolor="#ffffff"
     bordercolor="#666666"
     borderopacity="1.0"
     inkscape:pageopacity="0.0"
     inkscape:pageshadow="2"
     inkscape:zoom="22.4"
     inkscape:cx="11.239633"
     inkscape:cy="11.063399"
     inkscape:document-units="mm"
     inkscape:current-layer="layer1"
     inkscape:document-rotation="0"
     showgrid="false"
     units="px"
     inkscape:window-width="1140"
     inkscape:window-height="1368"
     inkscape:window-x="1404"
     inkscape:window-y="1080"
     inkscape:window-maximized="0"
     inkscape:snap-center="true"
     inkscape:snap-object-midpoints="true"
     inkscape:snap-page="true"
     inkscape:snap-intersection-paths="true"
     inkscape:snap-smooth-nodes="false"
     showguides="true"
     inkscape:guide-bbox="true"
     inkscape:snap-bbox="true"
     inkscape:bbox-paths="true"
     inkscape:bbox-nodes="true"
     inkscape:snap-bbox-edge-midpoints="true"
     inkscape:snap-bbox-midpoints="true">
    <sodipodi:guide
       position="0,6.3499999"
       orientation="1,0"
       id="guide11518" />
  </sodipodi:namedview>
  <metadata
     id="metadata10905">
    <rdf:RDF>
      <cc:Work
         rdf:about="">
        <dc:format>image/svg+xml</dc:format>
        <dc:type
           rdf:resource="http://purl.org/dc/dcmitype/StillImage" />
        <dc:title>phone-default-square-outline-white</dc:title>
      </cc:Work>
    </rdf:RDF>
  </metadata>
  <g
     inkscape:label="Layer 1"
     inkscape:groupmode="layer"
     id="layer1"
     transform="translate(-109.4619,-112.48571)">
    <path
       id="path1441-5-4-20-0-2-3-7"
       style="fill:#ffffff;fill-opacity:1;stroke-width:0.264583"
       d="m 109.4619,112.48571 v 6.35 h 6.35 v -6.35 z m 0.52917,0.52917 h 5.29166 v 5.29166 h -5.29166 z m 1.09605,0.85989 c -0.10715,0 -0.23616,0.0476 -0.23616,0.19637 0,1.84349 1.53401,3.37551 3.37551,3.37551 0.14089,0 0.19637,-0.12496 0.19637,-0.2341 v -0.68471 c 0,-0.10716 -0.0892,-0.19637 -0.19637,-0.19637 -0.24408,0 -0.48047,-0.0397 -0.70073,-0.1111 -0.0694,-0.0238 -0.14641,-0.006 -0.19999,0.0475 l -0.31161,0.39119 c -0.56158,-0.26789 -1.08756,-0.77405 -1.36736,-1.35547 l 0.38706,-0.3297 c 0.0536,-0.0556 0.0695,-0.1326 0.0475,-0.20205 -0.0734,-0.22027 -0.11111,-0.45666 -0.11111,-0.70074 0,-0.10715 -0.0892,-0.19637 -0.19637,-0.19637 z" />
  </g>
</svg>
