<?xml version="1.0" encoding="UTF-8" standalone="no"?>
<svg
   xmlns:dc="http://purl.org/dc/elements/1.1/"
   xmlns:cc="http://creativecommons.org/ns#"
   xmlns:rdf="http://www.w3.org/1999/02/22-rdf-syntax-ns#"
   xmlns:svg="http://www.w3.org/2000/svg"
   xmlns="http://www.w3.org/2000/svg"
   xmlns:sodipodi="http://sodipodi.sourceforge.net/DTD/sodipodi-0.dtd"
   xmlns:inkscape="http://www.inkscape.org/namespaces/inkscape"
   width="24"
   height="24"
   viewBox="0 0 6.3499999 6.3499999"
   version="1.1"
   id="svg10908"
   inkscape:version="1.0.1 (3bc2e813f5, 2020-09-07)"
   sodipodi:docname="cplusplus-roundedsquare-outline.svg">
  <title
     id="title11486">cplusplus-roundedsquare-outline</title>
  <defs
     id="defs10902" />
  <sodipodi:namedview
     id="base"
     pagecolor="#ffffff"
     bordercolor="#666666"
     borderopacity="1.0"
     inkscape:pageopacity="0.0"
     inkscape:pageshadow="2"
     inkscape:zoom="22.4"
     inkscape:cx="11.239633"
     inkscape:cy="11.063399"
     inkscape:document-units="mm"
     inkscape:current-layer="layer1"
     inkscape:document-rotation="0"
     showgrid="false"
     units="px"
     inkscape:window-width="1140"
     inkscape:window-height="1368"
     inkscape:window-x="1411"
     inkscape:window-y="0"
     inkscape:window-maximized="0"
     inkscape:snap-center="true"
     inkscape:snap-object-midpoints="true"
     inkscape:snap-page="true"
     inkscape:snap-intersection-paths="true"
     inkscape:snap-smooth-nodes="false"
     showguides="true"
     inkscape:guide-bbox="true"
     inkscape:snap-bbox="true"
     inkscape:bbox-paths="true"
     inkscape:bbox-nodes="true"
     inkscape:snap-bbox-edge-midpoints="true"
     inkscape:snap-bbox-midpoints="true">
    <sodipodi:guide
       position="0,6.3499999"
       orientation="1,0"
       id="guide11518" />
  </sodipodi:namedview>
  <metadata
     id="metadata10905">
    <rdf:RDF>
      <cc:Work
         rdf:about="">
        <dc:format>image/svg+xml</dc:format>
        <dc:type
           rdf:resource="http://purl.org/dc/dcmitype/StillImage" />
        <dc:title>cplusplus-roundedsquare-outline</dc:title>
      </cc:Work>
    </rdf:RDF>
  </metadata>
  <g
     inkscape:label="Layer 1"
     inkscape:groupmode="layer"
     id="layer1"
     transform="translate(-109.4619,-112.48571)">
    <path
       id="roundedsquare-outline-2-2-8"
       style="fill:#000000;fill-opacity:1;fill-rule:evenodd;stroke:none;stroke-width:0.529071;stroke-linejoin:round;stroke-miterlimit:4;stroke-dasharray:none;stroke-opacity:1"
       d="m 110.32851,112.48571 c -0.47997,0 -0.86661,0.38664 -0.86661,0.86661 v 4.61678 c 0,0.47997 0.38664,0.86661 0.86661,0.86661 h 4.61678 c 0.47997,0 0.86661,-0.38664 0.86661,-0.86661 v -4.61678 c 0,-0.47997 -0.38664,-0.86661 -0.86661,-0.86661 z m 0.19172,0.52917 h 4.23334 c 0.29316,0 0.52916,0.236 0.52916,0.52916 v 4.23334 c 0,0.29315 -0.236,0.52916 -0.52916,0.52916 h -4.23334 c -0.29316,0 -0.52916,-0.23601 -0.52916,-0.52916 v -4.23334 c 0,-0.29316 0.236,-0.52916 0.52916,-0.52916 z m 2.11822,0.2806 c -0.0459,0 -0.0883,0.0116 -0.11886,0.0269 l -1.83554,1.0666 c -0.065,0.0382 -0.11059,0.13405 -0.11059,0.20671 v 2.1301 c 0,0.0421 0.008,0.0876 0.0341,0.12971 l -0.008,0.004 c 0.0191,0.0306 0.0455,0.0571 0.0724,0.0723 l 1.8433,1.06712 c 0.0306,0.0191 0.073,0.0269 0.11886,0.0269 0.0459,0 0.0878,-0.0116 0.11834,-0.0269 l 1.83554,-1.06712 c 0.065,-0.0382 0.11111,-0.13353 0.11111,-0.20619 v -2.13372 c 0.004,-0.0306 -2.1e-4,-0.0653 -0.0155,-0.0997 h 5.3e-4 l 0.0114,-0.008 c -0.0229,-0.0421 -0.0576,-0.0801 -0.092,-0.0992 l -1.84691,-1.06299 c -0.0306,-0.0191 -0.0725,-0.0269 -0.11834,-0.0269 z m 0,0.85266 c 0.56214,0 1.05152,0.30975 1.31155,0.76481 l -0.49713,0.28681 c -0.16061,-0.28681 -0.46643,-0.47801 -0.81442,-0.47801 -0.51624,0 -0.93689,0.42065 -0.93689,0.93689 0,0.51625 0.42065,0.9369 0.93689,0.9369 0.34799,0 0.65381,-0.1909 0.81442,-0.47388 l 0.493,0.29042 c -0.26003,0.45124 -0.74911,0.75706 -1.30742,0.75706 -0.83363,0 -1.5105,-0.67686 -1.5105,-1.5105 0,-0.83364 0.67687,-1.5105 1.5105,-1.5105 z m 0.87953,1.24282 h 0.1912 v 0.1912 h 0.19121 v 0.15296 h -0.19121 v 0.19121 h -0.1912 v -0.19121 h -0.1912 v -0.15296 h 0.1912 z m 0.72657,0 h 0.15297 v 0.1912 h 0.1912 v 0.15296 h -0.1912 v 0.19121 h -0.15297 v -0.19121 h -0.22944 v -0.15296 h 0.22944 z" />
  </g>
</svg>
