<?xml version="1.0" encoding="UTF-8" standalone="no"?>
<svg
   xmlns:dc="http://purl.org/dc/elements/1.1/"
   xmlns:cc="http://creativecommons.org/ns#"
   xmlns:rdf="http://www.w3.org/1999/02/22-rdf-syntax-ns#"
   xmlns:svg="http://www.w3.org/2000/svg"
   xmlns="http://www.w3.org/2000/svg"
   xmlns:sodipodi="http://sodipodi.sourceforge.net/DTD/sodipodi-0.dtd"
   xmlns:inkscape="http://www.inkscape.org/namespaces/inkscape"
   width="24"
   height="24"
   viewBox="0 0 6.3499999 6.3499999"
   version="1.1"
   id="svg10908"
   inkscape:version="1.0.1 (3bc2e813f5, 2020-09-07)"
   sodipodi:docname="java-square-filled.svg">
  <title
     id="title11486">java-square-filled</title>
  <defs
     id="defs10902" />
  <sodipodi:namedview
     id="base"
     pagecolor="#ffffff"
     bordercolor="#666666"
     borderopacity="1.0"
     inkscape:pageopacity="0.0"
     inkscape:pageshadow="2"
     inkscape:zoom="22.4"
     inkscape:cx="11.239633"
     inkscape:cy="11.063399"
     inkscape:document-units="mm"
     inkscape:current-layer="layer1"
     inkscape:document-rotation="0"
     showgrid="false"
     units="px"
     inkscape:window-width="1140"
     inkscape:window-height="1368"
     inkscape:window-x="1411"
     inkscape:window-y="0"
     inkscape:window-maximized="0"
     inkscape:snap-center="true"
     inkscape:snap-object-midpoints="true"
     inkscape:snap-page="true"
     inkscape:snap-intersection-paths="true"
     inkscape:snap-smooth-nodes="false"
     showguides="true"
     inkscape:guide-bbox="true"
     inkscape:snap-bbox="true"
     inkscape:bbox-paths="true"
     inkscape:bbox-nodes="true"
     inkscape:snap-bbox-edge-midpoints="true"
     inkscape:snap-bbox-midpoints="true">
    <sodipodi:guide
       position="0,6.3499999"
       orientation="1,0"
       id="guide11518" />
  </sodipodi:namedview>
  <metadata
     id="metadata10905">
    <rdf:RDF>
      <cc:Work
         rdf:about="">
        <dc:format>image/svg+xml</dc:format>
        <dc:type
           rdf:resource="http://purl.org/dc/dcmitype/StillImage" />
        <dc:title>java-square-filled</dc:title>
      </cc:Work>
    </rdf:RDF>
  </metadata>
  <g
     inkscape:label="Layer 1"
     inkscape:groupmode="layer"
     id="layer1"
     transform="translate(-109.4619,-112.48571)">
    <path
       id="square-4-97"
       style="fill:#000000;fill-opacity:1;fill-rule:evenodd;stroke:none;stroke-width:0.0694534"
       d="m 109.4619,112.48571 v 6.35 h 6.35 v -6.35 z m 3.65146,0.79375 c 0,0 0.49494,0.49522 -0.46922,1.25625 -0.77324,0.61067 -0.17656,0.95861 -5.3e-4,1.35651 -0.45139,-0.40721 -0.78227,-0.76551 -0.56018,-1.09916 0.32613,-0.48966 1.22946,-0.72734 1.02992,-1.5136 z m 0.59635,0.97255 c -1.03858,0.60231 -0.84659,0.77703 -0.59635,1.12861 0.26784,0.37718 -0.31523,0.67851 -0.31523,0.67851 0,0 0.28978,-0.23771 0.06,-0.50229 -0.77863,-0.89728 0.85167,-1.30483 0.85163,-1.30483 z m 0.31315,1.60352 c 0.44985,0.0216 0.65541,0.66193 -0.3886,0.93637 0,0 0.0141,-0.0122 0.0181,-0.0232 0.89358,-0.46422 0.48013,-0.91018 0.19172,-0.85008 -0.0706,0.0147 -0.10232,0.0274 -0.10232,0.0274 0,0 0.0264,-0.0412 0.0765,-0.0589 0.0713,-0.0251 0.14037,-0.0346 0.20463,-0.0315 z m -1.9823,0.045 c 0.038,-0.001 0.0589,5.3e-4 0.0589,5.3e-4 0,0 -0.86545,0.20529 -0.30644,0.28009 0.23613,0.0315 0.70662,0.0243 1.14515,-0.0124 0.35821,-0.0301 0.71778,-0.0946 0.71778,-0.0946 0,0 -0.12667,0.0545 -0.21807,0.11679 -0.87912,0.23126 -2.57706,0.12371 -2.08825,-0.11266 0.30995,-0.14991 0.57699,-0.17478 0.69092,-0.17777 z m -0.14263,0.54054 c 0,0 -0.20426,0.15115 0.10749,0.18345 0.40316,0.0416 0.72171,0.045 1.27279,-0.061 0,0 0.076,0.0772 0.19585,0.11938 -1.12711,0.32967 -2.38257,0.0258 -1.57613,-0.24185 z m 0.11369,0.52141 c 0,0 -0.18177,0.1059 0.1297,0.1416 0.37741,0.0431 0.57024,0.0367 0.98599,-0.0419 0,0 0.10979,0.0688 0.26252,0.12816 -0.93238,0.39947 -2.11044,-0.0233 -1.37821,-0.2279 z m -0.47336,0.34624 c 0.045,0.002 0.0818,0.0102 0.10542,0.0269 0,0 -0.0598,-0.005 -0.16433,0.0181 -0.10023,0.0216 -0.41834,0.12453 -0.24856,0.19843 0.47268,0.20513 2.17446,0.15577 2.71249,-0.007 0.2789,-0.0846 0.15306,-0.19273 0.14935,-0.19586 0.48893,0.22267 -1.0738,0.66857 -2.97295,0.3607 -0.60996,-0.099 0.10392,-0.4131 0.41858,-0.401 z m 2.85461,0.28215 c -0.0311,0.40581 -1.34802,0.49095 -2.20555,0.43615 -0.56359,-0.0363 -0.67335,-0.12712 -0.67335,-0.12712 0.5354,0.0884 1.43837,0.10473 2.17041,-0.0331 0.64879,-0.12206 0.70853,-0.27595 0.70849,-0.27595 z" />
  </g>
</svg>
