<?xml version="1.0" encoding="UTF-8" standalone="no"?>
<svg
   xmlns:dc="http://purl.org/dc/elements/1.1/"
   xmlns:cc="http://creativecommons.org/ns#"
   xmlns:rdf="http://www.w3.org/1999/02/22-rdf-syntax-ns#"
   xmlns:svg="http://www.w3.org/2000/svg"
   xmlns="http://www.w3.org/2000/svg"
   xmlns:sodipodi="http://sodipodi.sourceforge.net/DTD/sodipodi-0.dtd"
   xmlns:inkscape="http://www.inkscape.org/namespaces/inkscape"
   width="24"
   height="24"
   viewBox="0 0 6.3499999 6.3499999"
   version="1.1"
   id="svg10908"
   inkscape:version="1.0.1 (3bc2e813f5, 2020-09-07)"
   sodipodi:docname="java-circle-outline.svg">
  <title
     id="title11486">java-circle-outline</title>
  <defs
     id="defs10902" />
  <sodipodi:namedview
     id="base"
     pagecolor="#ffffff"
     bordercolor="#666666"
     borderopacity="1.0"
     inkscape:pageopacity="0.0"
     inkscape:pageshadow="2"
     inkscape:zoom="22.4"
     inkscape:cx="11.239633"
     inkscape:cy="11.063399"
     inkscape:document-units="mm"
     inkscape:current-layer="layer1"
     inkscape:document-rotation="0"
     showgrid="false"
     units="px"
     inkscape:window-width="1140"
     inkscape:window-height="1368"
     inkscape:window-x="1411"
     inkscape:window-y="0"
     inkscape:window-maximized="0"
     inkscape:snap-center="true"
     inkscape:snap-object-midpoints="true"
     inkscape:snap-page="true"
     inkscape:snap-intersection-paths="true"
     inkscape:snap-smooth-nodes="false"
     showguides="true"
     inkscape:guide-bbox="true"
     inkscape:snap-bbox="true"
     inkscape:bbox-paths="true"
     inkscape:bbox-nodes="true"
     inkscape:snap-bbox-edge-midpoints="true"
     inkscape:snap-bbox-midpoints="true">
    <sodipodi:guide
       position="0,6.3499999"
       orientation="1,0"
       id="guide11518" />
  </sodipodi:namedview>
  <metadata
     id="metadata10905">
    <rdf:RDF>
      <cc:Work
         rdf:about="">
        <dc:format>image/svg+xml</dc:format>
        <dc:type
           rdf:resource="http://purl.org/dc/dcmitype/StillImage" />
        <dc:title>java-circle-outline</dc:title>
      </cc:Work>
    </rdf:RDF>
  </metadata>
  <g
     inkscape:label="Layer 1"
     inkscape:groupmode="layer"
     id="layer1"
     transform="translate(-109.4619,-112.48571)">
    <path
       id="circle-2-4-0-7-7-0"
       style="fill:#000000;fill-opacity:1;fill-rule:evenodd;stroke:none;stroke-width:0.0916501"
       d="m 112.6369,112.48571 a 3.175,3.1749997 0 0 0 -3.175,3.175 3.175,3.1749997 0 0 0 3.175,3.175 3.175,3.1749997 0 0 0 3.175,-3.175 3.175,3.1749997 0 0 0 -3.175,-3.175 z m -0.005,0.52917 a 2.6458332,2.6458332 0 0 1 0.005,0 2.6458332,2.6458332 0 0 1 2.64583,2.64583 2.6458332,2.6458332 0 0 1 -2.64583,2.64583 2.6458332,2.6458332 0 0 1 -2.64583,-2.64583 2.6458332,2.6458332 0 0 1 2.64066,-2.64583 z m 0.41806,0.31729 c 0.17293,0.68142 -0.60981,0.8877 -0.89245,1.31206 -0.19248,0.28916 0.0946,0.59949 0.48576,0.9524 -0.15256,-0.34484 -0.67015,-0.64639 0,-1.17564 0.83561,-0.65957 0.40669,-1.08882 0.40669,-1.08882 z m 0.51728,0.84336 c 4e-5,0 -1.41326,0.35251 -0.73845,1.13016 0.19918,0.22931 -0.0522,0.43564 -0.0522,0.43564 0,0 0.50549,-0.26068 0.27337,-0.58757 -0.21688,-0.3047 -0.3828,-0.45622 0.51728,-0.97823 z m 0.27131,1.38958 c -0.0557,-0.003 -0.11597,0.006 -0.17777,0.0274 -0.0434,0.0153 -0.0661,0.0506 -0.0661,0.0506 0,0 0.0278,-0.011 0.0889,-0.0238 0.24993,-0.0521 0.60804,0.33459 -0.1664,0.73691 -0.003,0.01 -0.0155,0.0207 -0.0155,0.0207 0.90481,-0.23786 0.7268,-0.79313 0.33693,-0.81184 z m -1.71825,0.0388 c -0.0987,0.003 -0.32979,0.0241 -0.59841,0.15399 -0.42364,0.20485 1.04781,0.29809 1.80971,0.0977 0.0792,-0.054 0.18862,-0.10077 0.18862,-0.10077 0,0 -0.31174,0.0556 -0.62219,0.0816 -0.38006,0.0318 -0.78753,0.0382 -0.99218,0.0109 -0.48448,-0.0648 0.26561,-0.24288 0.26561,-0.24288 0,0 -0.0183,-0.001 -0.0512,-5.3e-4 z m -0.1235,0.4687 c -0.69891,0.23199 0.38897,0.49502 1.36581,0.20929 -0.10383,-0.0366 -0.17002,-0.10335 -0.17002,-0.10335 -0.4776,0.0919 -0.75336,0.0888 -1.10278,0.0527 -0.27017,-0.028 -0.093,-0.15865 -0.093,-0.15865 z m 0.0987,0.45165 c -0.6346,0.1773 0.38617,0.54361 1.19424,0.19741 -0.13237,-0.0515 -0.22738,-0.11059 -0.22738,-0.11059 -0.36032,0.0681 -0.52763,0.0736 -0.85472,0.0362 -0.26995,-0.0309 -0.11214,-0.12299 -0.11214,-0.12299 z m -0.41031,0.30024 c -0.27271,-0.0105 -0.89192,0.26148 -0.36329,0.34727 1.64571,0.26677 2.9998,-0.11912 2.57659,-0.31213 0.004,0.003 0.11191,0.0964 -0.12919,0.1695 -0.4663,0.14125 -1.94163,0.18405 -2.35128,0.006 -0.14715,-0.0641 0.12914,-0.1528 0.21601,-0.17156 0.0906,-0.0196 0.14211,-0.0165 0.14211,-0.0165 -0.0205,-0.0144 -0.052,-0.0211 -0.091,-0.0227 z m 2.47375,0.24443 c 3e-5,0 -0.0516,0.13298 -0.61392,0.23875 -0.63444,0.11943 -1.41701,0.10555 -1.88102,0.0289 0,0 0.095,0.0791 0.58343,0.11058 0.74319,0.0475 1.88453,-0.0266 1.91151,-0.37827 z" />
  </g>
</svg>
