<?xml version="1.0" encoding="UTF-8" standalone="no"?>
<svg
   xmlns:dc="http://purl.org/dc/elements/1.1/"
   xmlns:cc="http://creativecommons.org/ns#"
   xmlns:rdf="http://www.w3.org/1999/02/22-rdf-syntax-ns#"
   xmlns:svg="http://www.w3.org/2000/svg"
   xmlns="http://www.w3.org/2000/svg"
   xmlns:sodipodi="http://sodipodi.sourceforge.net/DTD/sodipodi-0.dtd"
   xmlns:inkscape="http://www.inkscape.org/namespaces/inkscape"
   width="24"
   height="24"
   viewBox="0 0 6.3499999 6.3499999"
   version="1.1"
   id="svg10908"
   inkscape:version="1.0.1 (3bc2e813f5, 2020-09-07)"
   sodipodi:docname="dotnet-square-outline.svg">
  <title
     id="title11486">dotnet-square-outline</title>
  <defs
     id="defs10902" />
  <sodipodi:namedview
     id="base"
     pagecolor="#ffffff"
     bordercolor="#666666"
     borderopacity="1.0"
     inkscape:pageopacity="0.0"
     inkscape:pageshadow="2"
     inkscape:zoom="22.4"
     inkscape:cx="11.239633"
     inkscape:cy="11.063399"
     inkscape:document-units="mm"
     inkscape:current-layer="layer1"
     inkscape:document-rotation="0"
     showgrid="false"
     units="px"
     inkscape:window-width="1140"
     inkscape:window-height="1368"
     inkscape:window-x="1411"
     inkscape:window-y="0"
     inkscape:window-maximized="0"
     inkscape:snap-center="true"
     inkscape:snap-object-midpoints="true"
     inkscape:snap-page="true"
     inkscape:snap-intersection-paths="true"
     inkscape:snap-smooth-nodes="false"
     showguides="true"
     inkscape:guide-bbox="true"
     inkscape:snap-bbox="true"
     inkscape:bbox-paths="true"
     inkscape:bbox-nodes="true"
     inkscape:snap-bbox-edge-midpoints="true"
     inkscape:snap-bbox-midpoints="true">
    <sodipodi:guide
       position="0,6.3499999"
       orientation="1,0"
       id="guide11518" />
  </sodipodi:namedview>
  <metadata
     id="metadata10905">
    <rdf:RDF>
      <cc:Work
         rdf:about="">
        <dc:format>image/svg+xml</dc:format>
        <dc:type
           rdf:resource="http://purl.org/dc/dcmitype/StillImage" />
        <dc:title>dotnet-square-outline</dc:title>
      </cc:Work>
    </rdf:RDF>
  </metadata>
  <g
     inkscape:label="Layer 1"
     inkscape:groupmode="layer"
     id="layer1"
     transform="translate(-109.4619,-112.48571)">
    <path
       id="path1441-5-4-20-0-2-1-5-9"
       style="fill:#000000;fill-opacity:1;stroke-width:0.264583"
       d="m 109.4619,112.48571 v 6.35 h 6.35 v -6.35 z m 0.52917,0.52916 h 5.29166 v 5.29167 h -5.29166 z m 4.95422,1.70843 c -0.19669,0 -0.3935,-0.002 -0.59015,5.3e-4 -0.0658,5.2e-4 -0.1324,0.005 -0.1974,0.015 -0.1657,0.0253 -0.30567,0.0982 -0.40618,0.23668 -0.0635,0.0876 -0.099,0.18794 -0.13126,0.2899 -0.084,0.26542 -0.16833,0.53083 -0.25373,0.79582 -0.0151,0.0469 -0.0358,0.092 -0.0537,0.13798 l -0.007,-5.3e-4 c -0.003,-0.008 -0.007,-0.0163 -0.009,-0.0253 -0.0298,-0.11345 -0.061,-0.22663 -0.0889,-0.34055 -0.0488,-0.19904 -0.0922,-0.3994 -0.16175,-0.59273 -0.0345,-0.0958 -0.0751,-0.18837 -0.13229,-0.27337 -0.092,-0.13671 -0.21522,-0.2083 -0.38499,-0.20618 -0.3165,0.005 -0.63275,0.002 -0.94929,0.002 -0.0148,0 -0.0297,10e-4 -0.0444,0.003 -0.0894,0.0101 -0.16794,0.0483 -0.24184,0.0966 -0.14569,0.0953 -0.26202,0.22104 -0.36742,0.3576 -0.1548,0.20053 -0.27809,0.42035 -0.38241,0.65061 -0.10118,0.22319 -0.18176,0.45374 -0.24546,0.6904 -0.009,0.0351 -0.008,0.037 0.0279,0.0367 0.14864,-0.001 0.29737,-0.002 0.44596,-0.005 0.10025,-0.002 0.19641,-0.0257 0.28681,-0.0692 0.15454,-0.0745 0.25341,-0.20078 0.3085,-0.35916 0.0576,-0.16533 0.10649,-0.33384 0.15969,-0.50074 0.0144,-0.0455 0.0227,-0.0955 0.0486,-0.13384 0.095,-0.14028 0.20143,-0.27249 0.32195,-0.39223 l 0.0212,-0.0202 c 0.004,0.01 0.007,0.0162 0.009,0.0233 0.0278,0.10544 0.057,0.2103 0.0827,0.31626 0.0548,0.22637 0.10229,0.45495 0.18759,0.67283 0.0468,0.11931 0.10377,0.23252 0.19947,0.32142 0.0668,0.062 0.14581,0.097 0.23771,0.0972 0.30908,2.6e-4 0.61801,-5.3e-4 0.92708,5.3e-4 0.0871,5.3e-4 0.16374,-0.0258 0.23564,-0.0713 0.10548,-0.0667 0.18857,-0.1576 0.26717,-0.2527 0.10652,-0.12897 0.2002,-0.2672 0.2868,-0.40979 0.13498,-0.22237 0.26601,-0.44695 0.39688,-0.6718 0.0752,-0.12914 0.14662,-0.26073 0.21962,-0.39118 0.005,-0.007 0.007,-0.0156 0.0119,-0.0269 -0.0148,-10e-4 -0.0253,-0.002 -0.0357,-0.002 z" />
  </g>
</svg>
