<?xml version="1.0" encoding="UTF-8" standalone="no"?>
<svg
   xmlns:dc="http://purl.org/dc/elements/1.1/"
   xmlns:cc="http://creativecommons.org/ns#"
   xmlns:rdf="http://www.w3.org/1999/02/22-rdf-syntax-ns#"
   xmlns:svg="http://www.w3.org/2000/svg"
   xmlns="http://www.w3.org/2000/svg"
   xmlns:sodipodi="http://sodipodi.sourceforge.net/DTD/sodipodi-0.dtd"
   xmlns:inkscape="http://www.inkscape.org/namespaces/inkscape"
   width="24"
   height="24"
   viewBox="0 0 6.3499999 6.3499999"
   version="1.1"
   id="svg10908"
   inkscape:version="1.0.1 (3bc2e813f5, 2020-09-07)"
   sodipodi:docname="dotnet-circle-outline.svg">
  <title
     id="title11486">dotnet-circle-outline</title>
  <defs
     id="defs10902" />
  <sodipodi:namedview
     id="base"
     pagecolor="#ffffff"
     bordercolor="#666666"
     borderopacity="1.0"
     inkscape:pageopacity="0.0"
     inkscape:pageshadow="2"
     inkscape:zoom="22.4"
     inkscape:cx="11.239633"
     inkscape:cy="11.063399"
     inkscape:document-units="mm"
     inkscape:current-layer="layer1"
     inkscape:document-rotation="0"
     showgrid="false"
     units="px"
     inkscape:window-width="1140"
     inkscape:window-height="1368"
     inkscape:window-x="1411"
     inkscape:window-y="0"
     inkscape:window-maximized="0"
     inkscape:snap-center="true"
     inkscape:snap-object-midpoints="true"
     inkscape:snap-page="true"
     inkscape:snap-intersection-paths="true"
     inkscape:snap-smooth-nodes="false"
     showguides="true"
     inkscape:guide-bbox="true"
     inkscape:snap-bbox="true"
     inkscape:bbox-paths="true"
     inkscape:bbox-nodes="true"
     inkscape:snap-bbox-edge-midpoints="true"
     inkscape:snap-bbox-midpoints="true">
    <sodipodi:guide
       position="0,6.3499999"
       orientation="1,0"
       id="guide11518" />
  </sodipodi:namedview>
  <metadata
     id="metadata10905">
    <rdf:RDF>
      <cc:Work
         rdf:about="">
        <dc:format>image/svg+xml</dc:format>
        <dc:type
           rdf:resource="http://purl.org/dc/dcmitype/StillImage" />
        <dc:title>dotnet-circle-outline</dc:title>
      </cc:Work>
    </rdf:RDF>
  </metadata>
  <g
     inkscape:label="Layer 1"
     inkscape:groupmode="layer"
     id="layer1"
     transform="translate(-109.4619,-112.48571)">
    <path
       id="circle-2-4-0-6-1"
       style="fill:#000000;fill-opacity:1;fill-rule:evenodd;stroke:none;stroke-width:0.0916501"
       d="m 112.6369,112.48571 a 3.175,3.1749997 0 0 0 -3.175,3.175 3.175,3.1749997 0 0 0 3.175,3.175 3.175,3.1749997 0 0 0 3.175,-3.175 3.175,3.1749997 0 0 0 -3.175,-3.175 z m -0.005,0.52917 a 2.6458332,2.6458332 0 0 1 0.005,0 2.6458332,2.6458332 0 0 1 2.64583,2.64583 2.6458332,2.6458332 0 0 1 -2.64583,2.64583 2.6458332,2.6458332 0 0 1 -2.64583,-2.64583 2.6458332,2.6458332 0 0 1 2.64066,-2.64583 z m 2.31304,1.70842 c -0.19668,0 -0.3935,-0.002 -0.59015,5.3e-4 -0.0658,5.3e-4 -0.13188,0.005 -0.19688,0.015 -0.1657,0.0254 -0.30567,0.0982 -0.40618,0.23668 -0.0635,0.0876 -0.099,0.18795 -0.13126,0.28991 -0.084,0.26542 -0.16885,0.53082 -0.25425,0.79581 -0.0151,0.0469 -0.0353,0.092 -0.0532,0.13798 l -0.007,-5.3e-4 c -0.003,-0.008 -0.007,-0.0163 -0.009,-0.0253 -0.0298,-0.11345 -0.061,-0.22663 -0.0889,-0.34055 -0.0488,-0.19904 -0.0917,-0.39939 -0.16123,-0.59272 -0.0344,-0.0958 -0.0756,-0.18837 -0.13281,-0.27337 -0.092,-0.13671 -0.2147,-0.20831 -0.38447,-0.20619 -0.3165,0.005 -0.63327,0.002 -0.94981,0.002 -0.0148,0 -0.0297,10e-4 -0.0444,0.003 -0.0894,0.0101 -0.16795,0.0483 -0.24184,0.0966 -0.14569,0.0952 -0.26202,0.22105 -0.36742,0.3576 -0.1548,0.20053 -0.27757,0.42034 -0.38189,0.6506 -0.10118,0.22319 -0.18176,0.45375 -0.24546,0.6904 -0.009,0.0351 -0.008,0.0369 0.0279,0.0367 0.14864,-10e-4 0.29737,-0.002 0.44597,-0.005 0.10025,-0.002 0.1964,-0.0258 0.2868,-0.0692 0.15454,-0.0744 0.25341,-0.20078 0.30851,-0.35915 0.0576,-0.16533 0.10597,-0.33385 0.15917,-0.50075 0.0144,-0.0455 0.0232,-0.0955 0.0491,-0.13384 0.095,-0.14028 0.20091,-0.27248 0.32143,-0.39222 l 0.0217,-0.0202 c 0.004,0.01 0.007,0.0162 0.009,0.0233 0.0278,0.10544 0.0575,0.2103 0.0832,0.31626 0.0548,0.22637 0.10228,0.45497 0.18758,0.67283 0.0467,0.11933 0.10377,0.23253 0.19947,0.32143 0.0668,0.062 0.1453,0.097 0.2372,0.0971 0.30908,2.6e-4 0.61852,-3e-5 0.92759,10e-4 0.0871,5.3e-4 0.16375,-0.0263 0.23564,-0.0718 0.10548,-0.0667 0.18805,-0.15759 0.26665,-0.25269 0.10651,-0.12897 0.20072,-0.26721 0.28733,-0.4098 0.13497,-0.22236 0.266,-0.44695 0.39687,-0.67179 0.0752,-0.12914 0.14662,-0.26074 0.21962,-0.39119 0.005,-0.007 0.006,-0.0156 0.0114,-0.0269 -0.0148,-0.001 -0.0253,-0.002 -0.0356,-0.002 z" />
  </g>
</svg>
