<?xml version="1.0" encoding="UTF-8" standalone="no"?>
<svg
   xmlns:dc="http://purl.org/dc/elements/1.1/"
   xmlns:cc="http://creativecommons.org/ns#"
   xmlns:rdf="http://www.w3.org/1999/02/22-rdf-syntax-ns#"
   xmlns:svg="http://www.w3.org/2000/svg"
   xmlns="http://www.w3.org/2000/svg"
   xmlns:sodipodi="http://sodipodi.sourceforge.net/DTD/sodipodi-0.dtd"
   xmlns:inkscape="http://www.inkscape.org/namespaces/inkscape"
   width="24"
   height="24"
   viewBox="0 0 6.3499999 6.3499999"
   version="1.1"
   id="svg10908"
   inkscape:version="1.0.1 (3bc2e813f5, 2020-09-07)"
   sodipodi:docname="jira-old-square-filled.svg">
  <title
     id="title11486">jiraold-square-filled</title>
  <defs
     id="defs10902" />
  <sodipodi:namedview
     id="base"
     pagecolor="#ffffff"
     bordercolor="#666666"
     borderopacity="1.0"
     inkscape:pageopacity="0.0"
     inkscape:pageshadow="2"
     inkscape:zoom="22.4"
     inkscape:cx="11.239633"
     inkscape:cy="11.063399"
     inkscape:document-units="mm"
     inkscape:current-layer="layer1"
     inkscape:document-rotation="0"
     showgrid="false"
     units="px"
     inkscape:window-width="1140"
     inkscape:window-height="1368"
     inkscape:window-x="1411"
     inkscape:window-y="0"
     inkscape:window-maximized="0"
     inkscape:snap-center="true"
     inkscape:snap-object-midpoints="true"
     inkscape:snap-page="true"
     inkscape:snap-intersection-paths="true"
     inkscape:snap-smooth-nodes="false"
     showguides="true"
     inkscape:guide-bbox="true"
     inkscape:snap-bbox="true"
     inkscape:bbox-paths="true"
     inkscape:bbox-nodes="true"
     inkscape:snap-bbox-edge-midpoints="true"
     inkscape:snap-bbox-midpoints="true">
    <sodipodi:guide
       position="0,6.3499999"
       orientation="1,0"
       id="guide11518" />
  </sodipodi:namedview>
  <metadata
     id="metadata10905">
    <rdf:RDF>
      <cc:Work
         rdf:about="">
        <dc:format>image/svg+xml</dc:format>
        <dc:type
           rdf:resource="http://purl.org/dc/dcmitype/StillImage" />
        <dc:title>jiraold-square-filled</dc:title>
      </cc:Work>
    </rdf:RDF>
  </metadata>
  <g
     inkscape:label="Layer 1"
     inkscape:groupmode="layer"
     id="layer1"
     transform="translate(-109.4619,-112.48571)">
    <path
       id="square-41"
       style="fill:#000000;fill-opacity:1;fill-rule:evenodd;stroke:none;stroke-width:0.0694534"
       d="m 109.4619,112.48571 v 6.35 h 6.35 v -6.35 z m 1.40922,1.06609 a 0.10115632,0.10115632 0 0 1 0.0403,0.007 c 0.21822,0.0836 0.44016,0.15274 0.64285,0.19998 a 0.12660732,0.12660732 0 0 1 0.0889,0.077 c 0.14768,0.4044 0.52437,0.78782 0.91984,1.19115 0.0162,0.0157 0.0383,0.0351 0.0744,0.0351 0.0362,0 0.058,-0.0201 0.0739,-0.0351 0.39537,-0.40329 0.77268,-0.7883 0.92035,-1.1927 a 0.12641682,0.12641682 0 0 1 0.0884,-0.077 c 0.20258,-0.0472 0.42424,-0.11071 0.64286,-0.1943 a 0.10146112,0.10146112 0 0 1 0.0977,0.0139 0.10374714,0.10374714 0 0 1 0.0393,0.0904 c -0.0335,0.33612 -0.16642,0.66319 -0.40618,1.00769 -0.22537,0.32382 -0.51934,0.62318 -0.80357,0.91312 -0.0206,0.0211 -0.0411,0.0421 -0.0615,0.063 -0.0207,0.0208 -0.0323,0.063 -0.005,0.0966 a 4.0759708,4.0759708 0 0 1 0.18965,0.25425 c 0.0829,0.12124 0.15362,0.24024 0.21342,0.35812 h 5.3e-4 c 0.83249,0.13091 1.39157,0.4211 1.39165,0.74621 0,0.27379 -0.41377,0.51666 -1.03766,0.66094 -0.007,0.002 -0.0137,0.002 -0.0217,0.002 -0.0548,0 -0.0992,-0.0435 -0.0992,-0.0971 0,-0.0443 0.03,-0.0817 0.0713,-0.0935 h 5.3e-4 c 0.46414,-0.13468 0.74931,-0.31888 0.74931,-0.4408 -5.3e-4,-0.12943 -0.31783,-0.24686 -0.8201,-0.32039 -0.002,-2.1e-4 -0.004,-5.3e-4 -0.006,-5.3e-4 a 0.04038632,0.04038632 0 0 0 -0.0388,0.0506 l -5.3e-4,5.3e-4 a 1.8530084,1.8530084 0 0 1 0.0475,0.33073 0.10127062,0.10127062 0 0 1 -0.10129,0.10645 h -0.61495 a 0.10111822,0.10111822 0 0 1 -0.10128,-0.0935 c -0.0434,-0.58495 -0.53782,-1.08969 -1.06144,-1.62367 -0.28422,-0.28986 -0.57824,-0.58934 -0.80357,-0.91312 -0.23983,-0.34447 -0.37267,-0.67563 -0.40617,-1.01182 a 0.10115632,0.10115632 0 0 1 0.0966,-0.11111 z m 1.4211,0.3147 c 0.0393,0 0.15086,0.0119 0.34365,0.0119 h 0.001 c 0.19275,0 0.30497,-0.0119 0.34417,-0.0119 0.0476,0 0.093,0.0389 0.093,0.0935 a 0.10058481,0.10058481 0 0 1 -0.007,0.0377 c -0.0255,0.0683 -0.14165,0.31408 -0.35863,0.52504 -0.0243,0.0237 -0.0522,0.0284 -0.0713,0.0284 -0.019,0 -0.0464,-0.005 -0.0708,-0.0284 -0.2169,-0.21096 -0.33365,-0.45669 -0.35916,-0.52504 -0.004,-0.01 -0.008,-0.0219 -0.008,-0.0377 0,-0.0546 0.0454,-0.0935 0.093,-0.0935 z m -0.38705,2.14561 a 0.10134682,0.10134682 0 0 1 0.0713,0.0305 c 0.18441,0.19248 0.30801,0.33286 0.40927,0.46457 0.0205,0.0263 0.0483,0.0884 0.0129,0.15399 -0.10204,0.18967 -0.15827,0.36982 -0.17157,0.54984 a 0.10195643,0.10195642 0 0 1 -0.10129,0.094 h -0.61546 c -0.0276,0 -0.0543,-0.0115 -0.0734,-0.0315 -0.0189,-0.0202 -0.0289,-0.0474 -0.0279,-0.0749 a 1.8495413,1.8495413 0 0 1 0.0465,-0.32969 v -5.3e-4 a 0.04076733,0.04076733 0 0 0 -0.0393,-0.0512 0.03173756,0.03173755 0 0 0 -0.005,5.3e-4 c -0.50102,0.0735 -0.81758,0.19071 -0.81804,0.31987 v 5.3e-4 c 0,0.12185 0.28552,0.30554 0.74983,0.44029 v 10e-4 c 0.041,0.0119 0.0713,0.0483 0.0713,0.0925 0,0.0537 -0.0445,0.0977 -0.0992,0.0977 -0.008,0 -0.0157,-0.001 -0.0227,-0.003 -2.2e-4,8e-5 -0.001,0 -0.001,0 -0.62502,-0.14429 -1.03558,-0.38637 -1.03558,-0.66047 0,-0.32481 0.55827,-0.61459 1.38958,-0.74569 a 3.1278068,3.1278068 0 0 1 0.17622,-0.30282 c 0.0102,-0.0157 0.0377,-0.0455 0.0837,-0.0455 z" />
  </g>
</svg>
