<?xml version="1.0" encoding="UTF-8" standalone="no"?>
<svg
   xmlns:dc="http://purl.org/dc/elements/1.1/"
   xmlns:cc="http://creativecommons.org/ns#"
   xmlns:rdf="http://www.w3.org/1999/02/22-rdf-syntax-ns#"
   xmlns:svg="http://www.w3.org/2000/svg"
   xmlns="http://www.w3.org/2000/svg"
   xmlns:sodipodi="http://sodipodi.sourceforge.net/DTD/sodipodi-0.dtd"
   xmlns:inkscape="http://www.inkscape.org/namespaces/inkscape"
   width="24"
   height="24"
   viewBox="0 0 6.3499999 6.3499999"
   version="1.1"
   id="svg10908"
   inkscape:version="1.0.1 (3bc2e813f5, 2020-09-07)"
   sodipodi:docname="jira-old-circle-outline.svg">
  <title
     id="title11486">jira-old-circle-outline</title>
  <defs
     id="defs10902" />
  <sodipodi:namedview
     id="base"
     pagecolor="#ffffff"
     bordercolor="#666666"
     borderopacity="1.0"
     inkscape:pageopacity="0.0"
     inkscape:pageshadow="2"
     inkscape:zoom="22.4"
     inkscape:cx="11.239633"
     inkscape:cy="11.063399"
     inkscape:document-units="mm"
     inkscape:current-layer="layer1"
     inkscape:document-rotation="0"
     showgrid="false"
     units="px"
     inkscape:window-width="1140"
     inkscape:window-height="1368"
     inkscape:window-x="1411"
     inkscape:window-y="0"
     inkscape:window-maximized="0"
     inkscape:snap-center="true"
     inkscape:snap-object-midpoints="true"
     inkscape:snap-page="true"
     inkscape:snap-intersection-paths="true"
     inkscape:snap-smooth-nodes="false"
     showguides="true"
     inkscape:guide-bbox="true"
     inkscape:snap-bbox="true"
     inkscape:bbox-paths="true"
     inkscape:bbox-nodes="true"
     inkscape:snap-bbox-edge-midpoints="true"
     inkscape:snap-bbox-midpoints="true">
    <sodipodi:guide
       position="0,6.3499999"
       orientation="1,0"
       id="guide11518" />
  </sodipodi:namedview>
  <metadata
     id="metadata10905">
    <rdf:RDF>
      <cc:Work
         rdf:about="">
        <dc:format>image/svg+xml</dc:format>
        <dc:type
           rdf:resource="http://purl.org/dc/dcmitype/StillImage" />
        <dc:title>jira-old-circle-outline</dc:title>
      </cc:Work>
    </rdf:RDF>
  </metadata>
  <g
     inkscape:label="Layer 1"
     inkscape:groupmode="layer"
     id="layer1"
     transform="translate(-109.4619,-112.48571)">
    <path
       id="circle-2-4-0-3"
       style="fill:#000000;fill-opacity:1;fill-rule:evenodd;stroke:none;stroke-width:0.0916501"
       d="m 112.6369,112.48571 a 3.175,3.1749997 0 0 0 -3.175,3.175 3.175,3.1749997 0 0 0 3.175,3.175 3.175,3.1749997 0 0 0 3.175,-3.175 3.175,3.1749997 0 0 0 -3.175,-3.175 z m -0.005,0.52917 a 2.6458332,2.6458332 0 0 1 0.005,0 2.6458332,2.6458332 0 0 1 2.64583,2.64583 2.6458332,2.6458332 0 0 1 -2.64583,2.64583 2.6458332,2.6458332 0 0 1 -2.64583,-2.64583 2.6458332,2.6458332 0 0 1 2.64066,-2.64583 z m -1.52756,0.81855 a 0.08766881,0.08766881 0 0 0 -0.0806,0.0961 c 0.029,0.29137 0.14405,0.5779 0.35192,0.87643 0.19528,0.28061 0.45026,0.54047 0.69659,0.79169 0.4538,0.46277 0.88221,0.90018 0.91985,1.40714 a 0.08763579,0.08763579 0 0 0 0.0873,0.0811 h 0.5333 a 0.08776787,0.08776787 0 0 0 0.0879,-0.092 1.6059406,1.6059406 0 0 0 -0.0413,-0.28732 h 5.3e-4 a 0.03500148,0.03500148 0 0 1 0.0336,-0.0439 c 0.002,0 0.003,2.6e-4 0.005,5.3e-4 0.43531,0.0637 0.71054,0.16533 0.71107,0.2775 0,0.10566 -0.24785,0.26516 -0.65009,0.38189 v 5.3e-4 c -0.0358,0.0102 -0.062,0.0422 -0.062,0.0806 0,0.0465 0.0384,0.0842 0.0858,0.0842 0.007,0 0.013,-8e-4 0.0191,-0.002 0.54071,-0.12505 0.89916,-0.33478 0.89916,-0.57206 -5e-5,-0.28176 -0.48464,-0.53353 -1.20612,-0.64699 h -5.3e-4 c -0.0519,-0.10216 -0.11315,-0.2055 -0.185,-0.31057 a 3.5325082,3.5325082 0 0 0 -0.16433,-0.22066 c -0.0235,-0.0292 -0.0134,-0.0652 0.005,-0.0832 0.0177,-0.0182 0.0353,-0.0365 0.0532,-0.0548 0.24633,-0.25128 0.50129,-0.51104 0.6966,-0.79168 0.2078,-0.29857 0.32285,-0.58151 0.35192,-0.87282 a 0.08991419,0.08991419 0 0 0 -0.0341,-0.0785 0.08793297,0.08793297 0 0 0 -0.0847,-0.0119 c -0.18947,0.0724 -0.38151,0.12706 -0.55707,0.16794 a 0.10956124,0.10956124 0 0 0 -0.077,0.0672 c -0.12798,0.35048 -0.45472,0.68401 -0.79737,1.03353 -0.0138,0.0131 -0.0327,0.0305 -0.0641,0.0305 -0.0313,0 -0.0506,-0.0169 -0.0646,-0.0305 -0.34276,-0.34955 -0.66938,-0.68202 -0.79737,-1.0325 a 0.10972634,0.10972634 0 0 0 -0.0765,-0.0667 c -0.17567,-0.0409 -0.36845,-0.1007 -0.55759,-0.17311 a 0.08766881,0.08766881 0 0 0 -0.0377,-0.006 z m 1.23507,0.27234 c -0.0412,0 -0.0806,0.0338 -0.0806,0.0811 0,0.0138 0.003,0.0238 0.007,0.0326 0.0221,0.0592 0.1231,0.27244 0.31109,0.45527 h -10e-4 c 0.0211,0.0205 0.0451,0.0243 0.0615,0.0243 0.0165,0 0.0404,-0.004 0.0615,-0.0243 0.18804,-0.18283 0.28949,-0.39603 0.31161,-0.45527 a 0.0871735,0.0871735 0 0 0 0.007,-0.0326 c 0,-0.0473 -0.0394,-0.0811 -0.0806,-0.0811 -0.034,0 -0.13112,0.0103 -0.29817,0.0103 h -0.001 c -0.16708,0 -0.26361,-0.0103 -0.29766,-0.0103 z m -0.33641,1.85931 c -0.0399,0 -0.0635,0.0257 -0.0724,0.0393 a 2.7107658,2.7107658 0 0 0 -0.15296,0.26252 c -0.72046,0.11362 -1.20406,0.36497 -1.20406,0.64647 0,0.23754 0.3554,0.44756 0.8971,0.57257 0,0 0.001,7e-5 0.001,0 0.006,0.002 0.0127,0.003 0.0196,0.003 0.0475,0 0.0858,-0.0382 0.0858,-0.0847 0,-0.0383 -0.0258,-0.0698 -0.0615,-0.0801 l -5.3e-4,-5.3e-4 c -0.40229,-0.11675 -0.64957,-0.27629 -0.64957,-0.38189 v -5.3e-4 c 5.3e-4,-0.11193 0.27478,-0.21377 0.709,-0.2775 a 0.02750588,0.02750588 0 0 1 0.005,-5.3e-4 0.03533169,0.03533169 0 0 1 0.0341,0.045 1.6029358,1.6029358 0 0 0 -0.0403,0.28577 c -10e-4,0.0239 0.008,0.0476 0.0243,0.0651 0.0165,0.0173 0.0397,0.0274 0.0636,0.0274 h 0.5333 a 0.08836224,0.08836224 0 0 0 0.0879,-0.0816 c 0.0116,-0.15601 0.0604,-0.31208 0.14883,-0.47645 0.0306,-0.0569 0.007,-0.11055 -0.0114,-0.13333 -0.0878,-0.11415 -0.19521,-0.23574 -0.35502,-0.40256 a 0.08783391,0.08783391 0 0 0 -0.062,-0.0269 z" />
  </g>
</svg>
