<?xml version="1.0" encoding="UTF-8" standalone="no"?>
<svg
   xmlns:dc="http://purl.org/dc/elements/1.1/"
   xmlns:cc="http://creativecommons.org/ns#"
   xmlns:rdf="http://www.w3.org/1999/02/22-rdf-syntax-ns#"
   xmlns:svg="http://www.w3.org/2000/svg"
   xmlns="http://www.w3.org/2000/svg"
   xmlns:sodipodi="http://sodipodi.sourceforge.net/DTD/sodipodi-0.dtd"
   xmlns:inkscape="http://www.inkscape.org/namespaces/inkscape"
   width="24"
   height="24"
   viewBox="0 0 6.3499999 6.3499999"
   version="1.1"
   id="svg10908"
   inkscape:version="1.0.1 (3bc2e813f5, 2020-09-07)"
   sodipodi:docname="jira-old-roundedsquare-outline.svg">
  <title
     id="title11486">jira-old-roundedsquare-outline</title>
  <defs
     id="defs10902" />
  <sodipodi:namedview
     id="base"
     pagecolor="#ffffff"
     bordercolor="#666666"
     borderopacity="1.0"
     inkscape:pageopacity="0.0"
     inkscape:pageshadow="2"
     inkscape:zoom="22.4"
     inkscape:cx="11.239633"
     inkscape:cy="11.063399"
     inkscape:document-units="mm"
     inkscape:current-layer="layer1"
     inkscape:document-rotation="0"
     showgrid="false"
     units="px"
     inkscape:window-width="1140"
     inkscape:window-height="1368"
     inkscape:window-x="1411"
     inkscape:window-y="0"
     inkscape:window-maximized="0"
     inkscape:snap-center="true"
     inkscape:snap-object-midpoints="true"
     inkscape:snap-page="true"
     inkscape:snap-intersection-paths="true"
     inkscape:snap-smooth-nodes="false"
     showguides="true"
     inkscape:guide-bbox="true"
     inkscape:snap-bbox="true"
     inkscape:bbox-paths="true"
     inkscape:bbox-nodes="true"
     inkscape:snap-bbox-edge-midpoints="true"
     inkscape:snap-bbox-midpoints="true">
    <sodipodi:guide
       position="0,6.3499999"
       orientation="1,0"
       id="guide11518" />
  </sodipodi:namedview>
  <metadata
     id="metadata10905">
    <rdf:RDF>
      <cc:Work
         rdf:about="">
        <dc:format>image/svg+xml</dc:format>
        <dc:type
           rdf:resource="http://purl.org/dc/dcmitype/StillImage" />
        <dc:title>jira-old-roundedsquare-outline</dc:title>
      </cc:Work>
    </rdf:RDF>
  </metadata>
  <g
     inkscape:label="Layer 1"
     inkscape:groupmode="layer"
     id="layer1"
     transform="translate(-109.4619,-112.48571)">
    <path
       id="roundedsquare-outline-2-16-6"
       style="fill:#000000;fill-opacity:1;fill-rule:evenodd;stroke:none;stroke-width:0.529071;stroke-linejoin:round;stroke-miterlimit:4;stroke-dasharray:none;stroke-opacity:1"
       d="m 110.32851,112.48571 c -0.47997,0 -0.86661,0.38664 -0.86661,0.86661 v 4.61678 c 0,0.47997 0.38664,0.86661 0.86661,0.86661 h 4.61678 c 0.47997,0 0.86661,-0.38664 0.86661,-0.86661 v -4.61678 c 0,-0.47997 -0.38664,-0.86661 -0.86661,-0.86661 z m 0.19172,0.52917 h 4.23334 c 0.29316,0 0.52916,0.236 0.52916,0.52916 v 4.23334 c 0,0.29315 -0.236,0.52916 -0.52916,0.52916 h -4.23334 c -0.29316,0 -0.52916,-0.23601 -0.52916,-0.52916 v -4.23334 c 0,-0.29316 0.236,-0.52916 0.52916,-0.52916 z m 0.35089,0.53692 a 0.10115632,0.10115632 0 0 0 -0.0961,0.1111 c 0.0335,0.33619 0.16633,0.66736 0.40618,1.01182 0.22531,0.32378 0.51934,0.62326 0.80356,0.91313 0.52362,0.53397 1.018,1.03872 1.06144,1.62367 a 0.10111822,0.10111822 0 0 0 0.10077,0.0935 h 0.61546 a 0.10127062,0.10127062 0 0 0 0.10077,-0.10645 1.8530084,1.8530084 0 0 0 -0.047,-0.33073 v -5.3e-4 a 0.04038632,0.04038632 0 0 1 0.0393,-0.0506 c 0.002,0 0.004,2.6e-4 0.006,5.3e-4 0.50227,0.0735 0.82009,0.19097 0.82062,0.32039 0,0.12192 -0.28568,0.30612 -0.74982,0.4408 -0.0413,0.0118 -0.0713,0.0493 -0.0713,0.0935 0,0.0537 0.0439,0.0971 0.0987,0.0971 0.008,0 0.0151,-5.3e-4 0.0222,-0.002 0.62389,-0.14429 1.03767,-0.38715 1.03767,-0.66094 -9e-5,-0.32511 -0.55916,-0.61529 -1.39165,-0.74621 h -5.3e-4 c -0.0598,-0.11788 -0.13052,-0.23688 -0.21343,-0.35812 a 4.0759708,4.0759708 0 0 0 -0.18965,-0.25425 c -0.0271,-0.0337 -0.016,-0.0758 0.005,-0.0966 0.0204,-0.0209 0.0414,-0.0419 0.062,-0.063 0.28423,-0.28995 0.57821,-0.58931 0.80357,-0.91313 0.23977,-0.3445 0.37264,-0.67156 0.40618,-1.00769 a 0.10374714,0.10374714 0 0 0 -0.0393,-0.0904 0.10146112,0.10146112 0 0 0 -0.0977,-0.0139 c -0.21862,0.0836 -0.44079,0.14713 -0.64337,0.1943 a 0.12641682,0.12641682 0 0 0 -0.0884,0.077 c -0.14768,0.40439 -0.52448,0.7894 -0.91985,1.19269 -0.0159,0.0151 -0.0382,0.0351 -0.0744,0.0351 -0.0361,0 -0.0582,-0.0195 -0.0744,-0.0351 -0.39547,-0.40332 -0.77216,-0.78674 -0.91984,-1.19114 a 0.12660732,0.12660732 0 0 0 -0.0884,-0.077 c -0.20269,-0.0472 -0.42464,-0.11643 -0.64286,-0.19999 a 0.10115632,0.10115632 0 0 0 -0.0408,-0.007 z m 1.42162,0.3147 c -0.0476,0 -0.093,0.039 -0.093,0.0935 0,0.0159 0.004,0.0277 0.008,0.0377 0.0255,0.0683 0.14225,0.31408 0.35915,0.52504 0.0243,0.0233 0.0519,0.0284 0.0708,0.0284 0.0191,0 0.0465,-0.005 0.0708,-0.0284 0.21698,-0.21096 0.33361,-0.45669 0.35915,-0.52504 a 0.10058481,0.10058481 0 0 0 0.007,-0.0377 c 0,-0.0546 -0.0459,-0.0935 -0.0935,-0.0935 -0.0392,0 -0.1509,0.0119 -0.34365,0.0119 h -0.001 c -0.19279,0 -0.30437,-0.0119 -0.34365,-0.0119 z m -0.38758,2.14561 c -0.046,0 -0.073,0.0298 -0.0832,0.0455 a 3.1278068,3.1278068 0 0 0 -0.17673,0.30282 c -0.83131,0.1311 -1.38906,0.42088 -1.38906,0.74569 0,0.27409 0.41054,0.51618 1.03559,0.66042 h 5.3e-4 c 0.007,0.002 0.0153,0.003 0.0233,0.003 0.0547,0 0.0987,-0.044 0.0987,-0.0977 0,-0.0442 -0.0298,-0.0806 -0.0708,-0.0925 l -5.3e-4,-0.001 c -0.46431,-0.13476 -0.74983,-0.31844 -0.74983,-0.44028 v -5.3e-4 c 5.3e-4,-0.12916 0.31702,-0.24635 0.81804,-0.31988 a 0.03173756,0.03173755 0 0 1 0.005,-0.001 0.04076733,0.04076733 0 0 1 0.0393,0.0517 l 5.3e-4,5.3e-4 a 1.8495413,1.8495413 0 0 0 -0.047,0.32969 c -0.001,0.0276 0.009,0.0547 0.0279,0.0749 0.0191,0.02 0.0458,0.0315 0.0734,0.0315 h 0.61547 a 0.10195643,0.10195642 0 0 0 0.10128,-0.094 c 0.0133,-0.18003 0.0695,-0.36018 0.17157,-0.54984 0.0354,-0.0656 0.008,-0.1277 -0.0124,-0.154 -0.10127,-0.13171 -0.22538,-0.27209 -0.40979,-0.46457 a 0.10134682,0.10134682 0 0 0 -0.0713,-0.0305 z" />
  </g>
</svg>
