<?xml version="1.0" encoding="UTF-8" standalone="no"?>
<svg
   xmlns:dc="http://purl.org/dc/elements/1.1/"
   xmlns:cc="http://creativecommons.org/ns#"
   xmlns:rdf="http://www.w3.org/1999/02/22-rdf-syntax-ns#"
   xmlns:svg="http://www.w3.org/2000/svg"
   xmlns="http://www.w3.org/2000/svg"
   xmlns:sodipodi="http://sodipodi.sourceforge.net/DTD/sodipodi-0.dtd"
   xmlns:inkscape="http://www.inkscape.org/namespaces/inkscape"
   width="24"
   height="24"
   viewBox="0 0 6.3499999 6.3499999"
   version="1.1"
   id="svg10908"
   inkscape:version="1.0.1 (3bc2e813f5, 2020-09-07)"
   sodipodi:docname="jira-old-circle-filled.svg">
  <title
     id="title11486">jira-old-circle-filled</title>
  <defs
     id="defs10902" />
  <sodipodi:namedview
     id="base"
     pagecolor="#ffffff"
     bordercolor="#666666"
     borderopacity="1.0"
     inkscape:pageopacity="0.0"
     inkscape:pageshadow="2"
     inkscape:zoom="22.4"
     inkscape:cx="11.239633"
     inkscape:cy="11.063399"
     inkscape:document-units="mm"
     inkscape:current-layer="layer1"
     inkscape:document-rotation="0"
     showgrid="false"
     units="px"
     inkscape:window-width="1140"
     inkscape:window-height="1368"
     inkscape:window-x="1411"
     inkscape:window-y="0"
     inkscape:window-maximized="0"
     inkscape:snap-center="true"
     inkscape:snap-object-midpoints="true"
     inkscape:snap-page="true"
     inkscape:snap-intersection-paths="true"
     inkscape:snap-smooth-nodes="false"
     showguides="true"
     inkscape:guide-bbox="true"
     inkscape:snap-bbox="true"
     inkscape:bbox-paths="true"
     inkscape:bbox-nodes="true"
     inkscape:snap-bbox-edge-midpoints="true"
     inkscape:snap-bbox-midpoints="true">
    <sodipodi:guide
       position="0,6.3499999"
       orientation="1,0"
       id="guide11518" />
  </sodipodi:namedview>
  <metadata
     id="metadata10905">
    <rdf:RDF>
      <cc:Work
         rdf:about="">
        <dc:format>image/svg+xml</dc:format>
        <dc:type
           rdf:resource="http://purl.org/dc/dcmitype/StillImage" />
        <dc:title>jira-old-circle-filled</dc:title>
      </cc:Work>
    </rdf:RDF>
  </metadata>
  <g
     inkscape:label="Layer 1"
     inkscape:groupmode="layer"
     id="layer1"
     transform="translate(-109.4619,-112.48571)">
    <path
       id="circle-17"
       style="fill:#000000;fill-opacity:1;fill-rule:evenodd;stroke:none;stroke-width:0.0916501"
       d="m 112.6369,112.48571 a 3.175,3.1749997 0 0 0 -3.175,3.175 3.175,3.1749997 0 0 0 3.175,3.175 3.175,3.1749997 0 0 0 3.175,-3.175 3.175,3.1749997 0 0 0 -3.175,-3.175 z m -1.53272,1.34772 a 0.08766881,0.08766881 0 0 1 0.0377,0.006 c 0.18914,0.0724 0.38192,0.13218 0.55759,0.17312 a 0.10972634,0.10972634 0 0 1 0.0765,0.0667 c 0.12799,0.35048 0.45461,0.68294 0.79737,1.0325 0.014,0.0136 0.0333,0.0305 0.0646,0.0305 0.0314,0 0.0503,-0.0174 0.0641,-0.0305 0.34265,-0.34952 0.66939,-0.68306 0.79737,-1.03353 a 0.10956124,0.10956124 0 0 1 0.077,-0.0672 c 0.17556,-0.0409 0.3676,-0.0955 0.55707,-0.16795 a 0.08793297,0.08793297 0 0 1 0.0847,0.0119 0.08991419,0.08991419 0 0 1 0.0341,0.0786 c -0.0291,0.2913 -0.14412,0.57424 -0.35192,0.87281 -0.19531,0.28064 -0.45027,0.5404 -0.6966,0.79169 -0.0179,0.0183 -0.0355,0.0366 -0.0532,0.0548 -0.0186,0.018 -0.0287,0.054 -0.005,0.0832 a 3.5325082,3.5325082 0 0 1 0.16433,0.22066 c 0.0718,0.10507 0.1331,0.20841 0.185,0.31058 h 5.3e-4 c 0.72148,0.11345 1.20607,0.36522 1.20612,0.64698 0,0.23729 -0.35845,0.44701 -0.89916,0.57206 -0.006,0.001 -0.0121,0.002 -0.0191,0.002 -0.0474,0 -0.0858,-0.0377 -0.0858,-0.0842 0,-0.0384 0.0262,-0.0704 0.062,-0.0806 v -5.3e-4 c 0.40224,-0.11673 0.65009,-0.27622 0.65009,-0.38189 -5.3e-4,-0.11217 -0.27576,-0.21377 -0.71107,-0.2775 -0.002,-2.4e-4 -0.003,-5.3e-4 -0.005,-5.3e-4 a 0.03500148,0.03500148 0 0 0 -0.0336,0.0439 h -5.3e-4 a 1.6059406,1.6059406 0 0 1 0.0413,0.28733 0.08776787,0.08776787 0 0 1 -0.0879,0.092 h -0.5333 a 0.08763579,0.08763579 0 0 1 -0.0873,-0.0811 c -0.0376,-0.50696 -0.46605,-0.94437 -0.91985,-1.40715 -0.24633,-0.25122 -0.50131,-0.51108 -0.69659,-0.79168 -0.20787,-0.29854 -0.32292,-0.58506 -0.35192,-0.87644 a 0.08766881,0.08766881 0 0 1 0.0806,-0.0961 z m 1.23506,0.27234 c 0.034,0 0.13058,0.0103 0.29766,0.0103 h 0.001 c 0.16705,0 0.26417,-0.0103 0.29817,-0.0103 0.0412,0 0.0806,0.0338 0.0806,0.0811 a 0.0871735,0.0871735 0 0 1 -0.007,0.0326 c -0.0221,0.0592 -0.12358,0.27244 -0.31161,0.45527 -0.0211,0.0206 -0.045,0.0243 -0.0615,0.0243 -0.0164,0 -0.0404,-0.004 -0.0615,-0.0243 h 0.001 c -0.18799,-0.18283 -0.289,-0.39603 -0.3111,-0.45527 -0.004,-0.009 -0.007,-0.0188 -0.007,-0.0326 0,-0.0473 0.0394,-0.0811 0.0806,-0.0811 z m -0.33641,1.85931 a 0.08783391,0.08783391 0 0 1 0.062,0.0269 c 0.15981,0.16681 0.26722,0.2884 0.35502,0.40256 0.0179,0.0228 0.042,0.0765 0.0114,0.13332 -0.0885,0.16437 -0.13723,0.32044 -0.14883,0.47646 a 0.08836224,0.08836224 0 0 1 -0.0879,0.0816 h -0.5333 c -0.0239,0 -0.0471,-0.0101 -0.0636,-0.0274 -0.0162,-0.0175 -0.0253,-0.0412 -0.0243,-0.0651 a 1.6029358,1.6029358 0 0 1 0.0403,-0.28578 0.03533169,0.03533169 0 0 0 -0.0341,-0.045 0.02750588,0.02750588 0 0 0 -0.005,5.3e-4 c -0.43422,0.0637 -0.7086,0.16556 -0.709,0.2775 v 5.3e-4 c 0,0.1056 0.24728,0.26513 0.64957,0.38189 l 5.3e-4,5.3e-4 c 0.0357,0.0103 0.0615,0.0418 0.0615,0.0801 0,0.0465 -0.0383,0.0847 -0.0858,0.0847 -0.007,0 -0.0136,-0.001 -0.0196,-0.003 -5e-5,6e-5 -0.001,0 -0.001,0 -0.5417,-0.12502 -0.8971,-0.33503 -0.8971,-0.57258 0,-0.2815 0.4836,-0.53285 1.20406,-0.64647 a 2.7107658,2.7107658 0 0 1 0.15296,-0.26252 c 0.009,-0.0136 0.0324,-0.0393 0.0724,-0.0393 z" />
  </g>
</svg>
