<?xml version="1.0" encoding="UTF-8" standalone="no"?>
<svg
   xmlns:dc="http://purl.org/dc/elements/1.1/"
   xmlns:cc="http://creativecommons.org/ns#"
   xmlns:rdf="http://www.w3.org/1999/02/22-rdf-syntax-ns#"
   xmlns:svg="http://www.w3.org/2000/svg"
   xmlns="http://www.w3.org/2000/svg"
   xmlns:xlink="http://www.w3.org/1999/xlink"
   xmlns:sodipodi="http://sodipodi.sourceforge.net/DTD/sodipodi-0.dtd"
   xmlns:inkscape="http://www.inkscape.org/namespaces/inkscape"
   width="24"
   height="24"
   viewBox="0 0 6.3499999 6.3499999"
   version="1.1"
   id="svg10908"
   inkscape:version="1.0.1 (3bc2e813f5, 2020-09-07)"
   sodipodi:docname="jira-old-plain.svg">
  <title
     id="title11486">jira-old-plain</title>
  <defs
     id="defs10902">
    <clipPath
       id="b">
      <use
         xlink:href="#a"
         overflow="visible"
         id="use6568"
         x="0"
         y="0"
         width="100%"
         height="100%" />
    </clipPath>
    <linearGradient
       id="c"
       gradientUnits="userSpaceOnUse"
       x1="98.292999"
       y1="237.026"
       x2="74.286003"
       y2="215.319"
       gradientTransform="matrix(0.985,0,0,-0.985,6.128,272.439)">
      <stop
         offset="0"
         stop-color="#C0CDF9"
         id="stop6571" />
      <stop
         offset="1"
         stop-color="#07092D"
         stop-opacity=".288"
         id="stop6573" />
    </linearGradient>
    <linearGradient
       id="d"
       gradientUnits="userSpaceOnUse"
       x1="33.173"
       y1="245.076"
       x2="60.307999"
       y2="217.94099"
       gradientTransform="matrix(1.003,0,0,-1.003,-0.413,276.586)">
      <stop
         offset="0"
         stop-color="#fff"
         id="stop6580" />
      <stop
         offset="1"
         stop-color="#fff"
         stop-opacity="0"
         id="stop6582" />
    </linearGradient>
    <linearGradient
       id="e"
       gradientUnits="userSpaceOnUse"
       x1="48.612"
       y1="250.177"
       x2="81.172997"
       y2="217.616"
       gradientTransform="matrix(0.994,0,0,-0.994,2.709,274.439)">
      <stop
         offset="0"
         stop-color="#fff"
         id="stop6587" />
      <stop
         offset="1"
         stop-color="#fff"
         stop-opacity="0"
         id="stop6589" />
    </linearGradient>
    <radialGradient
       id="f-8"
       cx="51.136002"
       cy="13.518"
       r="33.212002"
       gradientTransform="matrix(0.827,0,0,-0.553,1.123,126.746)"
       gradientUnits="userSpaceOnUse">
      <stop
         offset="0"
         stop-color="#fff"
         id="stop6594" />
      <stop
         offset="1"
         stop-color="#fff"
         stop-opacity="0"
         id="stop6596" />
    </radialGradient>
    <radialGradient
       id="g"
       cx="147.452"
       cy="14.758"
       r="33.212002"
       gradientTransform="matrix(1.055,0,0,-0.706,-97.55,130.348)"
       gradientUnits="userSpaceOnUse">
      <stop
         offset="0"
         stop-color="#fff"
         id="stop6601" />
      <stop
         offset="1"
         stop-color="#fff"
         stop-opacity="0"
         id="stop6603" />
    </radialGradient>
    <radialGradient
       id="h"
       cx="-53.737"
       cy="94.672997"
       r="37.174"
       gradientTransform="matrix(0.526,0,0,-0.223,130.969,98.356)"
       gradientUnits="userSpaceOnUse">
      <stop
         offset="0"
         stop-color="#fff"
         id="stop6610" />
      <stop
         offset="1"
         stop-color="#fff"
         stop-opacity="0"
         id="stop6612" />
    </radialGradient>
    <radialGradient
       id="i"
       cx="-45.82"
       cy="80.196999"
       r="37.174"
       gradientTransform="matrix(0.526,0,0,-0.223,130.969,97.429)"
       gradientUnits="userSpaceOnUse">
      <stop
         offset="0"
         stop-color="#fff"
         id="stop6617" />
      <stop
         offset="1"
         stop-color="#fff"
         stop-opacity="0"
         id="stop6619" />
    </radialGradient>
    <linearGradient
       id="j"
       gradientUnits="userSpaceOnUse"
       x1="-32.429001"
       y1="73.095001"
       x2="-32.292999"
       y2="66.244003"
       gradientTransform="matrix(0.526,0,0,-0.526,130.306,130.092)">
      <stop
         offset="0"
         stop-color="#fff"
         id="stop6626" />
      <stop
         offset="1"
         stop-color="#fff"
         stop-opacity="0"
         id="stop6628" />
    </linearGradient>
    <linearGradient
       id="k"
       gradientUnits="userSpaceOnUse"
       x1="112.548"
       y1="76.804001"
       x2="112.548"
       y2="71.973999"
       gradientTransform="matrix(0.709,0,0,-1.134,33.501,178.262)">
      <stop
         offset="0"
         stop-color="#fff"
         id="stop6633" />
      <stop
         offset="1"
         stop-color="#fff"
         stop-opacity="0"
         id="stop6635" />
    </linearGradient>
    <radialGradient
       id="l"
       cx="-34.115002"
       cy="13.297"
       r="15.297"
       gradientTransform="matrix(0.526,0,0,-0.078,130.969,98.77)"
       gradientUnits="userSpaceOnUse">
      <stop
         offset="0"
         stop-color="#fff"
         id="stop6642" />
      <stop
         offset="1"
         stop-color="#fff"
         stop-opacity="0"
         id="stop6644" />
    </radialGradient>
    <linearGradient
       id="m"
       gradientUnits="userSpaceOnUse"
       x1="-643.91199"
       y1="327.836"
       x2="-643.77698"
       y2="320.98401"
       gradientTransform="matrix(0.203,-0.103,-0.238,-0.469,311.261,190.221)">
      <stop
         offset="0"
         stop-color="#fff"
         id="stop6651" />
      <stop
         offset="1"
         stop-color="#fff"
         stop-opacity="0"
         id="stop6653" />
    </linearGradient>
    <linearGradient
       id="n"
       gradientUnits="userSpaceOnUse"
       x1="-341.63501"
       y1="195.138"
       x2="-341.63501"
       y2="190.308"
       gradientTransform="matrix(0.273,-0.139,-0.513,-1.011,295.216,251.45)">
      <stop
         offset="0"
         stop-color="#fff"
         id="stop6658" />
      <stop
         offset="1"
         stop-color="#fff"
         stop-opacity="0"
         id="stop6660" />
    </linearGradient>
    <radialGradient
       id="o"
       cx="-645.599"
       cy="1737.484"
       r="15.297"
       gradientTransform="matrix(0.203,-0.103,-0.035,-0.069,297.352,162.155)"
       gradientUnits="userSpaceOnUse">
      <stop
         offset="0"
         stop-color="#fff"
         id="stop6667" />
      <stop
         offset="1"
         stop-color="#fff"
         stop-opacity="0"
         id="stop6669" />
    </radialGradient>
    <radialGradient
       id="p"
       cx="-185.187"
       cy="69.660004"
       r="24.691999"
       gradientTransform="matrix(0.526,0,0,-0.214,130.969,105.831)"
       gradientUnits="userSpaceOnUse">
      <stop
         offset="0"
         stop-color="#fff"
         stop-opacity=".33"
         id="stop6676" />
      <stop
         offset="1"
         stop-color="#fff"
         stop-opacity="0"
         id="stop6678" />
    </radialGradient>
    <linearGradient
       id="q"
       gradientUnits="userSpaceOnUse"
       x1="-136.743"
       y1="250.438"
       x2="-136.60699"
       y2="243.586"
       gradientTransform="matrix(0.463,0.102,0.123,-0.366,65.856,208.72)">
      <stop
         offset="0"
         stop-color="#fff"
         id="stop6683" />
      <stop
         offset="1"
         stop-color="#fff"
         stop-opacity="0"
         id="stop6685" />
    </linearGradient>
    <linearGradient
       id="r"
       gradientUnits="userSpaceOnUse"
       x1="60.342999"
       y1="183.942"
       x2="60.342999"
       y2="179.112"
       gradientTransform="matrix(0.623,0.219,0.166,-0.789,-34.636,234.581)">
      <stop
         offset="0"
         stop-color="#fff"
         id="stop6690" />
      <stop
         offset="1"
         stop-color="#fff"
         stop-opacity="0"
         id="stop6692" />
    </linearGradient>
    <radialGradient
       id="s"
       cx="-62.571999"
       cy="357.021"
       r="11.363"
       gradientTransform="matrix(0.624,-0.173,-0.065,-0.233,95.948,182.007)"
       gradientUnits="userSpaceOnUse">
      <stop
         offset="0"
         stop-color="#fff"
         id="stop6701" />
      <stop
         offset="1"
         stop-color="#fff"
         stop-opacity="0"
         id="stop6703" />
    </radialGradient>
    <radialGradient
       id="t"
       cx="193.011"
       cy="256.754"
       r="59.424999"
       gradientTransform="matrix(1.712,0,0,-1.685,-261.607,451.789)"
       gradientUnits="userSpaceOnUse">
      <stop
         offset="0"
         stop-color="#fff"
         id="stop6710" />
      <stop
         offset="1"
         stop-color="#fff"
         stop-opacity="0"
         id="stop6712" />
    </radialGradient>
    <linearGradient
       id="u"
       gradientUnits="userSpaceOnUse"
       x1="-224.589"
       y1="68.903"
       x2="-161.63699"
       y2="52.257999"
       gradientTransform="matrix(0.485,0,0,-0.485,149.184,125.791)">
      <stop
         offset="0"
         stop-color="#fff"
         id="stop6717" />
      <stop
         offset="1"
         stop-color="#fff"
         stop-opacity="0"
         id="stop6719" />
    </linearGradient>
    <linearGradient
       id="v"
       gradientUnits="userSpaceOnUse"
       x1="13.153"
       y1="197.76801"
       x2="9.2530003"
       y2="188.832"
       gradientTransform="matrix(0.88,0,0,-0.88,42.035,252.063)">
      <stop
         offset="0"
         stop-color="#EEEEEC"
         id="stop6726" />
      <stop
         offset="1"
         stop-color="#EEEEEC"
         stop-opacity="0"
         id="stop6728" />
    </linearGradient>
    <radialGradient
       id="w"
       cx="26.356001"
       cy="55.589001"
       r="24.385"
       gradientTransform="matrix(0.656,0,0,-0.834,66.991,147.128)"
       gradientUnits="userSpaceOnUse">
      <stop
         offset="0"
         stop-color="#fff"
         id="stop6733" />
      <stop
         offset="1"
         stop-color="#fff"
         stop-opacity="0"
         id="stop6735" />
    </radialGradient>
    <linearGradient
       id="x"
       gradientUnits="userSpaceOnUse"
       x1="-245.694"
       y1="88.661003"
       x2="-235.88"
       y2="80.863998"
       gradientTransform="matrix(0.49,0,0,-0.49,147.66,125.008)">
      <stop
         offset="0"
         stop-color="#fff"
         id="stop6748" />
      <stop
         offset="1"
         stop-color="#fff"
         stop-opacity="0"
         id="stop6750" />
    </linearGradient>
    <linearGradient
       id="y"
       gradientUnits="userSpaceOnUse"
       x1="-115.448"
       y1="55.254002"
       x2="-144.875"
       y2="134.487"
       gradientTransform="matrix(0.485,0,0,-0.485,149.184,125.791)">
      <stop
         offset="0"
         stop-color="#729FCF"
         id="stop6755" />
      <stop
         offset="1"
         stop-color="#729FCF"
         stop-opacity="0"
         id="stop6757" />
    </linearGradient>
    <path
       id="path6780"
       d="M 53.4,9.5 9.1,54.9 c -16.8,16.8 10.8,15.4 20.8,21.7 4.6,3 -14.8,6.9 -10.9,10.9 3.9,4 23.3,7.6 27.2,11.5 3.9,4 -7.8,8.2 -4,12.1 3.8,4 12.8,0.2 14.4,9.2 1.2,6.7 16.6,3.3 23.4,-2.4 l -3.5,-7.6 c 9.7,-9.8 18.3,-4.4 21.8,-13.4 1.9,-4.8 -14.6,-8.3 -10.2,-11.4 10.5,-7.4 49.2,-11.2 31.4,-29 L 73.6,9.5 C 68,4.2 58.6,4.2 53.4,9.5 Z M 42.7,79.1 c 1,0 33.1,4.3 20.7,7.6 C 58.7,88 37,79.1 42.7,79.1 Z m 61.5,17.8 c 0,2.3 17.5,3.5 16.6,-0.5 -1.4,-6.9 -14.7,-6.3 -16.6,0.5 z m -74.7,12 c 4,3.4 10,-0.8 11.9,-5.6 -3.8,-5.1 -18.1,0.3 -11.9,5.6 z m 72.6,-7.2 c -4.9,4.5 0.9,9.2 5.7,6.1 1.2,-0.9 -0.2,-5.1 -5.7,-6.1 z" />
  </defs>
  <sodipodi:namedview
     id="base"
     pagecolor="#ffffff"
     bordercolor="#666666"
     borderopacity="1.0"
     inkscape:pageopacity="0.0"
     inkscape:pageshadow="2"
     inkscape:zoom="22.4"
     inkscape:cx="12.53886"
     inkscape:cy="7.4919702"
     inkscape:document-units="mm"
     inkscape:current-layer="layer1"
     inkscape:document-rotation="0"
     showgrid="false"
     units="px"
     inkscape:window-width="1140"
     inkscape:window-height="1368"
     inkscape:window-x="1411"
     inkscape:window-y="0"
     inkscape:window-maximized="0"
     inkscape:snap-center="true"
     inkscape:snap-object-midpoints="true"
     inkscape:snap-page="true"
     inkscape:snap-intersection-paths="true"
     inkscape:snap-smooth-nodes="false"
     showguides="false"
     inkscape:guide-bbox="true"
     inkscape:snap-bbox="true"
     inkscape:bbox-paths="true"
     inkscape:bbox-nodes="true"
     inkscape:snap-bbox-edge-midpoints="true"
     inkscape:snap-bbox-midpoints="true">
    <sodipodi:guide
       position="0,6.3499999"
       orientation="1,0"
       id="guide11518" />
  </sodipodi:namedview>
  <metadata
     id="metadata10905">
    <rdf:RDF>
      <cc:Work
         rdf:about="">
        <dc:format>image/svg+xml</dc:format>
        <dc:type
           rdf:resource="http://purl.org/dc/dcmitype/StillImage" />
        <dc:title>jira-old-plain</dc:title>
      </cc:Work>
    </rdf:RDF>
  </metadata>
  <g
     inkscape:label="Layer 1"
     inkscape:groupmode="layer"
     id="layer1"
     transform="translate(-109.4619,-112.48571)">
    <path
       id="confluenceold"
       style="fill:#000000;fill-opacity:1;stroke-width:0.0508005"
       d="m 112.54234,114.14364 c 0.0325,0.0315 0.0692,0.0375 0.0945,0.0375 h 2.6e-4 c 0.0254,0 0.0621,-0.006 0.0946,-0.0375 0.2893,-0.28128 0.44475,-0.60925 0.47879,-0.70039 a 0.13411308,0.13411308 0 0 0 0.01,-0.0498 c 0,-0.0728 -0.0607,-0.12482 -0.12411,-0.12482 -0.0523,0 -0.20152,0.0155 -0.45852,0.0155 h -0.002 c -0.25705,0 -0.40605,-0.0155 -0.45842,-0.0155 -0.0634,0 -0.12411,0.052 -0.12411,0.12477 0,0.0212 0.005,0.0364 0.0101,0.0498 0.034,0.0911 0.18949,0.4191 0.47869,0.70039 z m 1.41418,2.44939 c -0.0798,-0.15718 -0.17424,-0.31613 -0.28478,-0.47778 a 5.4346279,5.4346279 0 0 0 -0.25269,-0.33894 c -0.0361,-0.0449 -0.0209,-0.10079 0.007,-0.12852 0.0272,-0.0279 0.0546,-0.0558 0.0821,-0.084 0.37898,-0.38659 0.7709,-0.78614 1.07138,-1.21789 0.31969,-0.45934 0.49683,-0.895 0.54154,-1.34317 a 0.13832952,0.13832952 0 0 0 -0.0523,-0.12065 0.13528149,0.13528149 0 0 0 -0.13005,-0.0187 c -0.29149,0.11146 -0.58741,0.19609 -0.85751,0.25898 a 0.16855576,0.16855576 0 0 0 -0.11806,0.10293 c -0.1969,0.53919 -0.69947,1.05248 -1.22663,1.5902 -0.0212,0.0201 -0.0508,0.0466 -0.0991,0.0466 -0.0482,0 -0.0775,-0.0257 -0.0991,-0.0466 -0.52731,-0.53777 -1.02972,-1.04923 -1.22663,-1.58843 a 0.16880976,0.16880976 0 0 0 -0.11801,-0.10286 c -0.27026,-0.063 -0.56643,-0.15478 -0.85741,-0.26619 a 0.13487509,0.13487509 0 0 0 -0.18248,0.1393 c 0.0447,0.44826 0.22175,0.88931 0.54154,1.34859 0.30043,0.43171 0.6924,0.83135 1.07138,1.21784 0.69815,0.71197 1.35769,1.38462 1.4156,2.16456 a 0.13482429,0.13482429 0 0 0 0.13447,0.12497 h 0.82032 a 0.13502749,0.13502749 0 0 0 0.13478,-0.14164 2.4706779,2.4706779 0 0 0 -0.0631,-0.44145 l 2.9e-4,-3.4e-4 a 0.05384843,0.05384843 0 0 1 0.0518,-0.0679 c 0.003,0 0.005,5e-4 0.008,8.7e-4 h 10e-5 c 0.66971,0.098 1.09323,0.25466 1.09389,0.42723 v 3.4e-4 c 0,0.16256 -0.38075,0.40793 -0.9996,0.58751 l -2.5e-4,2.5e-4 c -0.055,0.0157 -0.0952,0.0654 -0.0952,0.12446 0,0.0715 0.0591,0.12975 0.13208,0.12975 0.0102,0 0.0198,-0.001 0.0293,-0.003 0.83185,-0.19238 1.38329,-0.51573 1.38329,-0.88078 -10e-5,-0.43348 -0.74555,-0.82063 -1.85553,-0.99518 z m -2.19971,-0.42281 a 0.13512909,0.13512909 0 0 0 -0.0958,-0.041 c -0.0613,0 -0.0975,0.0395 -0.11125,0.0605 a 4.1704088,4.1704088 0 0 0 -0.23531,0.40386 c -1.10841,0.17481 -1.85253,0.56165 -1.85253,0.99472 0,0.36546 0.54747,0.68815 1.38085,0.88048 1e-4,0 9.2e-4,0 0.001,-1.1e-4 0.01,0.002 0.0199,0.004 0.0305,0.004 0.073,0 0.13208,-0.0582 0.13208,-0.12974 0,-0.0589 -0.0402,-0.108 -0.095,-0.12385 l -3.5e-4,-8.7e-4 c -0.6189,-0.17962 -0.99965,-0.42504 -0.99965,-0.5875 v -4e-4 c 6.1e-4,-0.17221 0.42301,-0.32868 1.09104,-0.42672 a 0.04231674,0.04231674 0 0 1 0.007,-8.2e-4 0.05435644,0.05435644 0 0 1 0.0524,0.0686 l 5e-4,5e-4 a 2.4660551,2.4660551 0 0 0 -0.0625,0.43958 c -0.002,0.0367 0.0117,0.0731 0.0372,0.10007 0.0254,0.0267 0.0612,0.042 0.098,0.042 h 0.82043 a 0.1359419,0.1359419 0 0 0 0.13498,-0.12537 c 0.0178,-0.24003 0.0928,-0.48057 0.22885,-0.73345 0.0471,-0.0875 0.0105,-0.16968 -0.0167,-0.20473 -0.13502,-0.17562 -0.30033,-0.36282 -0.5462,-0.61946 z" />
  </g>
</svg>
