<?xml version="1.0" encoding="UTF-8" standalone="no"?>
<svg
   xmlns:dc="http://purl.org/dc/elements/1.1/"
   xmlns:cc="http://creativecommons.org/ns#"
   xmlns:rdf="http://www.w3.org/1999/02/22-rdf-syntax-ns#"
   xmlns:svg="http://www.w3.org/2000/svg"
   xmlns="http://www.w3.org/2000/svg"
   xmlns:sodipodi="http://sodipodi.sourceforge.net/DTD/sodipodi-0.dtd"
   xmlns:inkscape="http://www.inkscape.org/namespaces/inkscape"
   width="24"
   height="24"
   viewBox="0 0 6.3499999 6.3499999"
   version="1.1"
   id="svg10908"
   inkscape:version="1.0.1 (3bc2e813f5, 2020-09-07)"
   sodipodi:docname="nodejs-circle-outline.svg">
  <title
     id="title11486">nodejs-circle-outline</title>
  <defs
     id="defs10902" />
  <sodipodi:namedview
     id="base"
     pagecolor="#ffffff"
     bordercolor="#666666"
     borderopacity="1.0"
     inkscape:pageopacity="0.0"
     inkscape:pageshadow="2"
     inkscape:zoom="22.4"
     inkscape:cx="11.865285"
     inkscape:cy="11.063399"
     inkscape:document-units="mm"
     inkscape:current-layer="layer1"
     inkscape:document-rotation="0"
     showgrid="false"
     units="px"
     inkscape:window-width="1140"
     inkscape:window-height="1368"
     inkscape:window-x="1411"
     inkscape:window-y="0"
     inkscape:window-maximized="0"
     inkscape:snap-center="true"
     inkscape:snap-object-midpoints="true"
     inkscape:snap-page="true"
     inkscape:snap-intersection-paths="true"
     inkscape:snap-smooth-nodes="false"
     showguides="true"
     inkscape:guide-bbox="true"
     inkscape:snap-bbox="true"
     inkscape:bbox-paths="true"
     inkscape:bbox-nodes="true"
     inkscape:snap-bbox-edge-midpoints="true"
     inkscape:snap-bbox-midpoints="true">
    <sodipodi:guide
       position="0,6.3499999"
       orientation="1,0"
       id="guide11518" />
  </sodipodi:namedview>
  <metadata
     id="metadata10905">
    <rdf:RDF>
      <cc:Work
         rdf:about="">
        <dc:format>image/svg+xml</dc:format>
        <dc:type
           rdf:resource="http://purl.org/dc/dcmitype/StillImage" />
        <dc:title>nodejs-circle-outline</dc:title>
      </cc:Work>
    </rdf:RDF>
  </metadata>
  <g
     inkscape:label="Layer 1"
     inkscape:groupmode="layer"
     id="layer1"
     transform="translate(-109.4619,-112.48571)">
    <path
       id="circle-2-4-0-7-0"
       style="fill:#000000;fill-opacity:1;fill-rule:evenodd;stroke:none;stroke-width:0.0916501"
       d="m 112.6369,112.48571 a 3.175,3.1749997 0 0 0 -3.175,3.175 3.175,3.1749997 0 0 0 3.175,3.175 3.175,3.1749997 0 0 0 3.175,-3.175 3.175,3.1749997 0 0 0 -3.175,-3.175 z m -0.005,0.52917 a 2.6458332,2.6458332 0 0 1 0.005,0 2.6458332,2.6458332 0 0 1 2.64583,2.64583 2.6458332,2.6458332 0 0 1 -2.64583,2.64583 2.6458332,2.6458332 0 0 1 -2.64583,-2.64583 2.6458332,2.6458332 0 0 1 2.64066,-2.64583 z m 0.0222,0.26458 c -0.0634,0 -0.12722,0.0159 -0.18242,0.047 l -1.75183,1.00873 c -0.11299,0.065 -0.19017,0.18708 -0.19017,0.31781 v 2.01435 c 0,0.13072 0.0787,0.25295 0.19172,0.31832 l 0.46199,0.26304 c 0.22163,0.10929 0.28312,0.10955 0.38395,0.10955 0.32824,0 0.49868,-0.1985 0.49868,-0.54467 v -1.98851 c 3e-5,-0.0281 0.0173,-0.0703 -0.0104,-0.0703 h -0.22117 c -0.028,0 -0.0837,0.0418 -0.0837,0.0698 v 1.98903 c 0,0.15344 -0.14212,0.30592 -0.40152,0.17622 l -0.47749,-0.27595 c -0.0166,-0.009 -0.0269,-0.0273 -0.0269,-0.0465 v -2.01435 c 0,-0.019 0.0182,-0.0383 0.0351,-0.0481 l 1.74769,-1.00666 c 0.0163,-0.009 0.0396,-0.009 0.0558,0 l 1.73168,1.00666 c 0.0166,0.01 0.0139,0.0284 0.0139,0.0481 v 2.01383 c 0,0.0192 0.004,0.0382 -0.0129,0.0475 l -1.73788,1.00718 c -0.0149,0.009 -0.0343,0.009 -0.0506,0 l -0.44597,-0.26562 c -0.0134,-0.008 -0.0295,-0.0107 -0.0424,-0.004 -0.12387,0.0702 -0.14685,0.0796 -0.26303,0.11989 -0.0286,0.01 -0.071,0.0272 0.016,0.076 l 0.58291,0.34468 c 0.0558,0.0323 0.11913,0.0491 0.18293,0.0491 0.0647,0 0.12816,-0.0168 0.18397,-0.0491 l 1.73168,-1.00769 c 0.11307,-0.0659 0.17053,-0.18761 0.17053,-0.31833 v -2.01383 c -4e-5,-0.13074 -0.0575,-0.25299 -0.17053,-0.31833 v 0.001 l -1.73841,-1.00876 c -0.0548,-0.0312 -0.11802,-0.047 -0.18139,-0.047 z m 0.47335,1.44126 c -0.49753,0 -0.79426,0.21008 -0.79426,0.56224 0,0.38196 0.295,0.48762 0.77256,0.53485 0.57129,0.056 0.61598,0.1393 0.61598,0.25166 0,0.1952 -0.15704,0.27854 -0.52451,0.27854 -0.46188,0 -0.56348,-0.12742 -0.59738,-0.35709 -0.004,-0.0248 -0.025,-0.0543 -0.0501,-0.0543 h -0.22582 c -0.0279,0 -0.0501,0.0337 -0.0501,0.0615 0,0.29406 0.1596,0.6506 0.92346,0.6506 0.55289,0 0.87023,-0.21507 0.87023,-0.59531 0,-0.377 -0.25493,-0.47577 -0.79117,-0.54674 -0.54203,-0.0716 -0.59686,-0.10763 -0.59686,-0.23461 0,-0.10468 0.0466,-0.24443 0.44803,-0.24443 0.35857,0 0.4908,0.0767 0.54519,0.31833 0.005,0.0227 0.0251,0.0393 0.0486,0.0393 h 0.22685 c 0.0139,0 0.0269,-0.006 0.0367,-0.0155 0.01,-0.0107 0.0148,-0.0244 0.0135,-0.0388 -0.0352,-0.41627 -0.31151,-0.6103 -0.87075,-0.6103 z" />
  </g>
</svg>
