<?xml version="1.0" encoding="UTF-8" standalone="no"?>
<svg
   xmlns:dc="http://purl.org/dc/elements/1.1/"
   xmlns:cc="http://creativecommons.org/ns#"
   xmlns:rdf="http://www.w3.org/1999/02/22-rdf-syntax-ns#"
   xmlns:svg="http://www.w3.org/2000/svg"
   xmlns="http://www.w3.org/2000/svg"
   xmlns:sodipodi="http://sodipodi.sourceforge.net/DTD/sodipodi-0.dtd"
   xmlns:inkscape="http://www.inkscape.org/namespaces/inkscape"
   width="24"
   height="24"
   viewBox="0 0 6.3499999 6.3499999"
   version="1.1"
   id="svg10908"
   inkscape:version="1.0.1 (3bc2e813f5, 2020-09-07)"
   sodipodi:docname="nodejs-simple.svg">
  <title
     id="title11486">nodejs-simple</title>
  <defs
     id="defs10902" />
  <sodipodi:namedview
     id="base"
     pagecolor="#ffffff"
     bordercolor="#666666"
     borderopacity="1.0"
     inkscape:pageopacity="0.0"
     inkscape:pageshadow="2"
     inkscape:zoom="22.4"
     inkscape:cx="12.53886"
     inkscape:cy="5.7062559"
     inkscape:document-units="mm"
     inkscape:current-layer="layer1"
     inkscape:document-rotation="0"
     showgrid="false"
     units="px"
     inkscape:window-width="1140"
     inkscape:window-height="1368"
     inkscape:window-x="1411"
     inkscape:window-y="0"
     inkscape:window-maximized="0"
     inkscape:snap-center="true"
     inkscape:snap-object-midpoints="true"
     inkscape:snap-page="true"
     inkscape:snap-intersection-paths="true"
     inkscape:snap-smooth-nodes="false"
     showguides="true"
     inkscape:guide-bbox="true"
     inkscape:snap-bbox="true"
     inkscape:bbox-paths="true"
     inkscape:bbox-nodes="true"
     inkscape:snap-bbox-edge-midpoints="true"
     inkscape:snap-bbox-midpoints="true">
    <sodipodi:guide
       position="0,6.3499999"
       orientation="1,0"
       id="guide11518" />
  </sodipodi:namedview>
  <metadata
     id="metadata10905">
    <rdf:RDF>
      <cc:Work
         rdf:about="">
        <dc:format>image/svg+xml</dc:format>
        <dc:type
           rdf:resource="http://purl.org/dc/dcmitype/StillImage" />
        <dc:title>nodejs-simple</dc:title>
      </cc:Work>
    </rdf:RDF>
  </metadata>
  <g
     inkscape:label="Layer 1"
     inkscape:groupmode="layer"
     id="layer1"
     transform="translate(-109.4619,-112.48571)">
    <path
       fill="#83cd29"
       d="m 115.21943,113.89304 -2.31815,-1.34464 c -0.14605,-0.0832 -0.33735,-0.0832 -0.48456,0 l -2.33626,1.34464 c -0.15066,0.0867 -0.25312,0.24965 -0.25312,0.42395 v 2.6857 c 0,0.17429 0.10461,0.3373 0.25533,0.42447 l 0.61594,0.35122 c 0.2955,0.14557 0.37736,0.14557 0.5118,0.14557 0.43766,0 0.66494,-0.26462 0.66494,-0.72617 v -2.65146 c 5e-5,-0.0374 0.0234,-0.0932 -0.0134,-0.0932 h -0.29524 c -0.0374,0 -0.11143,0.0557 -0.11143,0.0931 v 2.65146 c 0,0.20459 -0.1899,0.40819 -0.53575,0.23526 l -0.63658,-0.36828 c -0.0222,-0.0121 -0.0355,-0.0364 -0.0355,-0.062 v -2.6857 c 0,-0.0253 0.0243,-0.0507 0.0468,-0.0637 l 2.33048,-1.34233 c 0.0218,-0.0123 0.0526,-0.0123 0.0743,0 l 2.3087,1.34201 c 0.0221,0.0133 0.0186,0.0379 0.0186,0.064 v 2.6857 c 0,0.0256 0.005,0.0506 -0.017,0.0629 l -2.31762,1.34311 c -0.0199,0.0119 -0.0457,0.0119 -0.0675,0 l -0.59432,-0.35442 c -0.0179,-0.0104 -0.0395,-0.0141 -0.0567,-0.005 -0.16516,0.0936 -0.19583,0.10608 -0.35075,0.1598 -0.0382,0.0133 -0.0945,0.0363 0.0214,0.1013 l 0.77712,0.45971 c 0.0744,0.0431 0.15896,0.0654 0.24404,0.0654 0.0862,0 0.17062,-0.0224 0.24502,-0.0654 l 2.30938,-1.34343 c 0.15077,-0.0878 0.22697,-0.25018 0.22697,-0.42447 v -2.6857 c -5e-5,-0.1743 -0.0763,-0.33683 -0.22701,-0.42395 z m -1.83544,2.68407 c -0.61583,0 -0.75142,-0.16988 -0.79665,-0.4761 -0.005,-0.033 -0.0333,-0.0724 -0.0669,-0.0724 h -0.3009 c -0.0372,0 -0.0672,0.0452 -0.0672,0.0822 0,0.39208 0.21321,0.86712 1.23168,0.86712 0.73719,0 1.15994,-0.28646 1.15994,-0.79344 0,-0.50267 -0.33962,-0.63458 -1.05459,-0.72922 -0.72272,-0.0955 -0.79613,-0.14378 -0.79613,-0.31309 0,-0.13958 0.0622,-0.32575 0.5973,-0.32575 0.47809,0 0.65433,0.10262 0.72686,0.4249 0.006,0.0303 0.0339,0.052 0.0652,0.052 h 0.30218 c 0.0186,0 0.0363,-0.008 0.0493,-0.0208 0.0127,-0.0143 0.0193,-0.0322 0.0176,-0.0514 -0.0469,-0.55503 -0.41555,-0.81367 -1.16119,-0.81367 -0.66337,0 -1.05902,0.28012 -1.05902,0.74965 0,0.50929 0.3937,0.65002 1.03045,0.71299 0.76171,0.0747 0.82095,0.18601 0.82095,0.33583 0,0.26026 -0.2089,0.37112 -0.69886,0.37112 z"
       id="nodejs-plain"
       style="stroke-width:0.0525145" />
  </g>
</svg>
