<?xml version="1.0" encoding="UTF-8" standalone="no"?>
<svg
   xmlns:dc="http://purl.org/dc/elements/1.1/"
   xmlns:cc="http://creativecommons.org/ns#"
   xmlns:rdf="http://www.w3.org/1999/02/22-rdf-syntax-ns#"
   xmlns:svg="http://www.w3.org/2000/svg"
   xmlns="http://www.w3.org/2000/svg"
   xmlns:sodipodi="http://sodipodi.sourceforge.net/DTD/sodipodi-0.dtd"
   xmlns:inkscape="http://www.inkscape.org/namespaces/inkscape"
   width="24"
   height="24"
   viewBox="0 0 6.3499999 6.3499999"
   version="1.1"
   id="svg10908"
   inkscape:version="1.0.1 (3bc2e813f5, 2020-09-07)"
   sodipodi:docname="typescript-complex.svg">
  <title
     id="title11486">typescript-simple</title>
  <defs
     id="defs10902" />
  <sodipodi:namedview
     id="base"
     pagecolor="#ffffff"
     bordercolor="#666666"
     borderopacity="1.0"
     inkscape:pageopacity="0.0"
     inkscape:pageshadow="2"
     inkscape:zoom="22.4"
     inkscape:cx="12.53886"
     inkscape:cy="9.2776845"
     inkscape:document-units="mm"
     inkscape:current-layer="layer1"
     inkscape:document-rotation="0"
     showgrid="false"
     units="px"
     inkscape:window-width="1140"
     inkscape:window-height="1368"
     inkscape:window-x="1411"
     inkscape:window-y="0"
     inkscape:window-maximized="0"
     inkscape:snap-center="true"
     inkscape:snap-object-midpoints="true"
     inkscape:snap-page="true"
     inkscape:snap-intersection-paths="true"
     inkscape:snap-smooth-nodes="false"
     showguides="true"
     inkscape:guide-bbox="true"
     inkscape:snap-bbox="true"
     inkscape:bbox-paths="true"
     inkscape:bbox-nodes="true"
     inkscape:snap-bbox-edge-midpoints="true"
     inkscape:snap-bbox-midpoints="true">
    <sodipodi:guide
       position="0,6.3499999"
       orientation="1,0"
       id="guide11518" />
  </sodipodi:namedview>
  <metadata
     id="metadata10905">
    <rdf:RDF>
      <cc:Work
         rdf:about="">
        <dc:format>image/svg+xml</dc:format>
        <dc:type
           rdf:resource="http://purl.org/dc/dcmitype/StillImage" />
        <dc:title>typescript-simple</dc:title>
      </cc:Work>
    </rdf:RDF>
  </metadata>
  <g
     inkscape:label="Layer 1"
     inkscape:groupmode="layer"
     id="layer1"
     transform="translate(-109.4619,-112.48571)">
    <rect
       class="cls-1"
       x="110.51868"
       y="114.79113"
       width="5.0632358"
       height="3.7424359"
       id="rect7119"
       style="fill:#0076b2;fill-opacity:1;stroke-width:0.0508;stroke-miterlimit:4;stroke-dasharray:none" />
    <g
       id="typescript-complex"
       transform="matrix(0.0508,0,0,0.0508,109.3857,112.41408)"
       style="fill:#ffffff;fill-opacity:1;stroke-width:1;stroke-miterlimit:4;stroke-dasharray:none">
      <path
         id="original-2-09"
         data-name="original"
         class="cls-2"
         d="m 1.5,63.91 v 62.5 h 125 V 1.41 H 1.5 Z m 100.73,-5 a 15.56,15.56 0 0 1 7.82,4.5 20.58,20.58 0 0 1 3,4 c 0,0.16 -5.4,3.81 -8.69,5.85 -0.12,0.08 -0.6,-0.44 -1.13,-1.23 A 7.09,7.09 0 0 0 97.36,68.5 c -3.79,-0.26 -6.23,1.73 -6.21,5 a 4.58,4.58 0 0 0 0.54,2.34 c 0.83,1.73 2.38,2.76 7.24,4.86 8.95,3.85 12.78,6.39 15.16,10 2.66,4 3.25,10.46 1.45,15.24 -2,5.2 -6.9,8.73 -13.83,9.9 a 38.32,38.32 0 0 1 -9.52,-0.1 23,23 0 0 1 -12.72,-6.63 c -1.15,-1.27 -3.39,-4.58 -3.25,-4.82 a 9.34,9.34 0 0 1 1.15,-0.73 L 82,101 l 3.59,-2.08 0.75,1.11 a 16.78,16.78 0 0 0 4.74,4.54 c 4,2.1 9.46,1.81 12.16,-0.62 a 5.43,5.43 0 0 0 0.69,-6.92 c -1,-1.39 -3,-2.56 -8.59,-5 -6.45,-2.78 -9.23,-4.5 -11.77,-7.24 a 16.48,16.48 0 0 1 -3.43,-6.25 25,25 0 0 1 -0.22,-8 c 1.33,-6.23 6,-10.58 12.82,-11.87 a 31.66,31.66 0 0 1 9.49,0.26 z m -29.34,5.24 v 5.12 H 56.66 V 115.5 H 45.15 V 69.26 H 28.88 v -5 A 49.19,49.19 0 0 1 29,59.09 C 29.08,59 39,59 51,59 h 21.83 z"
         style="fill:#ffffff;fill-opacity:1;stroke-width:1;stroke-miterlimit:4;stroke-dasharray:none" />
    </g>
  </g>
</svg>
