<?xml version="1.0" encoding="UTF-8" standalone="no"?>
<svg
   xmlns:dc="http://purl.org/dc/elements/1.1/"
   xmlns:cc="http://creativecommons.org/ns#"
   xmlns:rdf="http://www.w3.org/1999/02/22-rdf-syntax-ns#"
   xmlns:svg="http://www.w3.org/2000/svg"
   xmlns="http://www.w3.org/2000/svg"
   xmlns:sodipodi="http://sodipodi.sourceforge.net/DTD/sodipodi-0.dtd"
   xmlns:inkscape="http://www.inkscape.org/namespaces/inkscape"
   width="24"
   height="24"
   viewBox="0 0 6.3499999 6.3499999"
   version="1.1"
   id="svg10908"
   inkscape:version="1.0.1 (3bc2e813f5, 2020-09-07)"
   sodipodi:docname="typescript-circle-filled.svg">
  <title
     id="title11486">typescript-circle-filled</title>
  <defs
     id="defs10902" />
  <sodipodi:namedview
     id="base"
     pagecolor="#ffffff"
     bordercolor="#666666"
     borderopacity="1.0"
     inkscape:pageopacity="0.0"
     inkscape:pageshadow="2"
     inkscape:zoom="22.4"
     inkscape:cx="11.865285"
     inkscape:cy="11.063399"
     inkscape:document-units="mm"
     inkscape:current-layer="layer1"
     inkscape:document-rotation="0"
     showgrid="false"
     units="px"
     inkscape:window-width="1140"
     inkscape:window-height="1368"
     inkscape:window-x="1411"
     inkscape:window-y="0"
     inkscape:window-maximized="0"
     inkscape:snap-center="true"
     inkscape:snap-object-midpoints="true"
     inkscape:snap-page="true"
     inkscape:snap-intersection-paths="true"
     inkscape:snap-smooth-nodes="false"
     showguides="true"
     inkscape:guide-bbox="true"
     inkscape:snap-bbox="true"
     inkscape:bbox-paths="true"
     inkscape:bbox-nodes="true"
     inkscape:snap-bbox-edge-midpoints="true"
     inkscape:snap-bbox-midpoints="true">
    <sodipodi:guide
       position="0,6.3499999"
       orientation="1,0"
       id="guide11518" />
  </sodipodi:namedview>
  <metadata
     id="metadata10905">
    <rdf:RDF>
      <cc:Work
         rdf:about="">
        <dc:format>image/svg+xml</dc:format>
        <dc:type
           rdf:resource="http://purl.org/dc/dcmitype/StillImage" />
        <dc:title>typescript-circle-filled</dc:title>
      </cc:Work>
    </rdf:RDF>
  </metadata>
  <g
     inkscape:label="Layer 1"
     inkscape:groupmode="layer"
     id="layer1"
     transform="translate(-109.4619,-112.48571)">
    <path
       id="circle-17-2"
       style="fill:#000000;fill-opacity:1;fill-rule:evenodd;stroke:none;stroke-width:0.0916501"
       d="m 112.6369,112.48571 a 3.175,3.1749997 0 0 0 -3.175,3.175 3.175,3.1749997 0 0 0 3.175,3.175 3.175,3.1749997 0 0 0 3.175,-3.175 3.175,3.1749997 0 0 0 -3.175,-3.175 z m 1.08159,2.99465 v 5.3e-4 a 1.0454131,1.0454131 0 0 1 0.18138,0.0165 l -5.3e-4,-10e-4 a 0.51379117,0.51379117 0 0 1 0.25787,0.14831 0.67955149,0.67955149 0 0 1 0.0992,0.13229 c 0,0.005 -0.17818,0.12535 -0.28681,0.19275 -0.004,0.003 -0.0197,-0.0143 -0.0372,-0.0403 a 0.23411178,0.23411178 0 0 0 -0.19379,-0.11678 c -0.12515,-0.009 -0.20568,0.0574 -0.20515,0.16536 a 0.15123159,0.15123159 0 0 0 0.0176,0.077 c 0.0274,0.0571 0.0788,0.0913 0.23927,0.16071 0.29553,0.12713 0.42214,0.21101 0.50074,0.33021 0.0878,0.13208 0.10694,0.3455 0.0475,0.50333 -0.066,0.17172 -0.22747,0.288 -0.4563,0.3266 a 1.2653262,1.2653262 0 0 1 -0.31471,-0.003 0.75945989,0.75945989 0 0 1 -0.41858,-0.21652 c -0.038,-0.0419 -0.11249,-0.15116 -0.10749,-0.15917 a 0.30840677,0.30840677 0 0 1 0.0377,-0.0243 l 0.15192,-0.0868 0.11886,-0.0682 0.0248,0.0367 a 0.55407549,0.55407549 0 0 0 0.15658,0.14986 c 0.13208,0.0693 0.31233,0.059 0.40153,-0.0212 a 0.17929858,0.17929858 0 0 0 0.0227,-0.2284 c -0.033,-0.0459 -0.0992,-0.0848 -0.28371,-0.16537 -0.21298,-0.0918 -0.30471,-0.14825 -0.3886,-0.23875 a 0.54416949,0.54416949 0 0 1 -0.11318,-0.2067 0.82549989,0.82549989 0 0 1 -0.007,-0.26407 c 0.0439,-0.20571 0.19803,-0.34911 0.42323,-0.3917 a 1.0454131,1.0454131 0 0 1 0.13229,-0.008 z m -1.50999,0.0186 h 0.71985 l 0.002,0.1695 v 0.1695 h -0.53589 v 1.526 h -0.37982 v -1.52652 h -0.53743 v -0.16536 a 1.6242536,1.6242536 0 0 1 0.005,-0.17002 c 0.002,-0.003 0.32981,-0.004 0.72605,-0.003 z" />
  </g>
</svg>
