<?xml version="1.0" encoding="UTF-8" standalone="no"?>
<svg
   xmlns:dc="http://purl.org/dc/elements/1.1/"
   xmlns:cc="http://creativecommons.org/ns#"
   xmlns:rdf="http://www.w3.org/1999/02/22-rdf-syntax-ns#"
   xmlns:svg="http://www.w3.org/2000/svg"
   xmlns="http://www.w3.org/2000/svg"
   xmlns:sodipodi="http://sodipodi.sourceforge.net/DTD/sodipodi-0.dtd"
   xmlns:inkscape="http://www.inkscape.org/namespaces/inkscape"
   width="24"
   height="24"
   viewBox="0 0 6.3499999 6.3499999"
   version="1.1"
   id="svg10908"
   inkscape:version="1.0.1 (3bc2e813f5, 2020-09-07)"
   sodipodi:docname="react-simple.svg">
  <title
     id="title11486">react-simple</title>
  <defs
     id="defs10902" />
  <sodipodi:namedview
     id="base"
     pagecolor="#ffffff"
     bordercolor="#666666"
     borderopacity="1.0"
     inkscape:pageopacity="0.0"
     inkscape:pageshadow="2"
     inkscape:zoom="22.4"
     inkscape:cx="12.53886"
     inkscape:cy="9.2776845"
     inkscape:document-units="mm"
     inkscape:current-layer="layer1"
     inkscape:document-rotation="0"
     showgrid="false"
     units="px"
     inkscape:window-width="1140"
     inkscape:window-height="1368"
     inkscape:window-x="1411"
     inkscape:window-y="0"
     inkscape:window-maximized="0"
     inkscape:snap-center="true"
     inkscape:snap-object-midpoints="true"
     inkscape:snap-page="true"
     inkscape:snap-intersection-paths="true"
     inkscape:snap-smooth-nodes="false"
     showguides="true"
     inkscape:guide-bbox="true"
     inkscape:snap-bbox="true"
     inkscape:bbox-paths="true"
     inkscape:bbox-nodes="true"
     inkscape:snap-bbox-edge-midpoints="true"
     inkscape:snap-bbox-midpoints="true">
    <sodipodi:guide
       position="0,6.3499999"
       orientation="1,0"
       id="guide11518" />
  </sodipodi:namedview>
  <metadata
     id="metadata10905">
    <rdf:RDF>
      <cc:Work
         rdf:about="">
        <dc:format>image/svg+xml</dc:format>
        <dc:type
           rdf:resource="http://purl.org/dc/dcmitype/StillImage" />
        <dc:title>react-simple</dc:title>
      </cc:Work>
    </rdf:RDF>
  </metadata>
  <g
     inkscape:label="Layer 1"
     inkscape:groupmode="layer"
     id="layer1"
     transform="translate(-109.4619,-112.48571)">
    <path
       id="react-plain"
       style="fill:#61dafb;stroke-width:0.0507188"
       d="m 114.83303,114.7072 c -0.11159,-0.0406 -0.22825,-0.0812 -0.34997,-0.11665 0.0304,-0.12173 0.0558,-0.24345 0.0761,-0.36011 0.10651,-0.66948 -0.0101,-1.14117 -0.33475,-1.32376 -0.0964,-0.0558 -0.20286,-0.0812 -0.3246,-0.0812 -0.35503,0 -0.80643,0.26374 -1.26289,0.70499 -0.45647,-0.44125 -0.90787,-0.70499 -1.26291,-0.70499 -0.12172,0 -0.22823,0.0254 -0.3246,0.0812 -0.32459,0.18766 -0.44125,0.65935 -0.33474,1.32376 0.0203,0.11666 0.0456,0.23838 0.0761,0.36011 -0.12172,0.0355 -0.23837,0.071 -0.34996,0.11665 -0.63398,0.24345 -0.97887,0.5782 -0.97887,0.95352 0,0.37532 0.34996,0.71006 0.97887,0.95351 0.11159,0.0406 0.22824,0.0812 0.34996,0.11665 -0.0304,0.12173 -0.0558,0.24345 -0.0761,0.36011 -0.10651,0.66949 0.0101,1.14117 0.33474,1.32376 0.0964,0.0558 0.20288,0.0812 0.3246,0.0812 0.36011,0 0.81152,-0.26374 1.26291,-0.70499 0.45646,0.44125 0.90786,0.70499 1.26289,0.70499 0.12174,0 0.22824,-0.0254 0.3246,-0.0812 0.3246,-0.18766 0.44126,-0.65935 0.33475,-1.32376 -0.0203,-0.11666 -0.0456,-0.23838 -0.0761,-0.36011 0.12172,-0.0355 0.23838,-0.071 0.34997,-0.11665 0.63397,-0.24345 0.97886,-0.57819 0.97886,-0.95351 0,-0.37532 -0.34489,-0.71007 -0.97886,-0.95352 z m -0.75065,-1.54692 c 0.20795,0.12172 0.27895,0.49704 0.19273,1.02959 -0.0152,0.10651 -0.0406,0.21809 -0.071,0.33474 -0.26374,-0.0609 -0.54269,-0.10143 -0.83685,-0.12679 -0.17246,-0.24345 -0.34997,-0.46154 -0.52749,-0.65935 0.37533,-0.37025 0.75571,-0.62384 1.0651,-0.62384 0.0659,0 0.1268,0.0152 0.17751,0.0456 z m -0.56804,3.00762 c -0.0913,0.16231 -0.19782,0.32461 -0.30939,0.48691 -0.18767,0.0152 -0.37533,0.0203 -0.56806,0.0203 -0.1978,0 -0.38546,-0.005 -0.56805,-0.0203 -0.11158,-0.1623 -0.21302,-0.3246 -0.30431,-0.48691 -0.0964,-0.16737 -0.18766,-0.33981 -0.26881,-0.50718 0.0811,-0.16738 0.17244,-0.33982 0.26881,-0.50719 0.0913,-0.1623 0.1978,-0.3246 0.30938,-0.4869 0.18767,-0.0152 0.37533,-0.0203 0.56805,-0.0203 0.19781,0 0.38548,0.005 0.56806,0.0203 0.11158,0.1623 0.21302,0.3246 0.30432,0.4869 0.0964,0.16737 0.18766,0.33981 0.2688,0.50719 -0.0862,0.16737 -0.17245,0.33474 -0.2688,0.50718 z m 0.42095,-0.16737 c 0.0761,0.17752 0.13694,0.34996 0.19275,0.52241 -0.17246,0.0406 -0.35505,0.071 -0.54778,0.0964 0.0609,-0.0964 0.1268,-0.1978 0.1826,-0.30431 0.0609,-0.10651 0.11665,-0.21302 0.17243,-0.31446 z m -1.2984,1.37448 c -0.12172,-0.13187 -0.23838,-0.27388 -0.34996,-0.42096 0.11665,0.005 0.23331,0.0101 0.34996,0.0101 0.11666,0 0.23331,-0.005 0.34996,-0.0101 -0.11157,0.14708 -0.22822,0.28909 -0.34996,0.42096 z m -0.94337,-0.76078 c -0.19273,-0.0254 -0.37532,-0.0558 -0.54776,-0.0964 0.0558,-0.16737 0.11665,-0.34488 0.19273,-0.5224 0.0558,0.10144 0.11158,0.20795 0.17244,0.30939 0.0609,0.11158 0.12173,0.20794 0.18259,0.30938 z m -0.35503,-1.29333 c -0.0761,-0.17752 -0.13694,-0.34996 -0.19273,-0.5224 0.17244,-0.0406 0.35503,-0.071 0.54776,-0.0964 -0.0609,0.0964 -0.1268,0.1978 -0.18259,0.30431 -0.0609,0.10651 -0.11665,0.21302 -0.17244,0.31446 z m 1.2984,-1.37448 c 0.12174,0.13187 0.23839,0.27388 0.34996,0.42097 -0.11665,-0.005 -0.2333,-0.0102 -0.34996,-0.0102 -0.11665,0 -0.23331,0.005 -0.34996,0.0102 0.11158,-0.14709 0.22824,-0.2891 0.34996,-0.42097 z m 1.12597,1.0651 -0.1826,-0.30432 c 0.19273,0.0254 0.37532,0.0558 0.54778,0.0964 -0.0558,0.16737 -0.11667,0.34489 -0.19275,0.5224 -0.0558,-0.10651 -0.11158,-0.21302 -0.17243,-0.31445 z m -2.76418,-0.82165 c -0.0862,-0.53255 -0.0152,-0.90787 0.19272,-1.02959 0.0507,-0.0304 0.11159,-0.0456 0.17752,-0.0456 0.30431,0 0.6847,0.24852 1.0651,0.62384 -0.17752,0.19273 -0.35504,0.4159 -0.52748,0.65935 -0.29417,0.0254 -0.57312,0.071 -0.83686,0.12679 -0.0304,-0.11665 -0.0507,-0.22823 -0.071,-0.33474 z m -1.25276,1.47085 c 0,-0.23838 0.2891,-0.49198 0.79629,-0.67964 0.10144,-0.0406 0.21302,-0.0761 0.3246,-0.10651 0.0811,0.2536 0.18258,0.52241 0.30431,0.79122 -0.12173,0.26881 -0.22823,0.53255 -0.30431,0.78614 -0.69992,-0.20287 -1.12089,-0.50719 -1.12089,-0.79121 z m 1.44548,2.50044 c -0.20794,-0.12173 -0.27894,-0.49705 -0.19272,-1.0296 0.0152,-0.10651 0.0406,-0.21809 0.071,-0.33474 0.26374,0.0609 0.54269,0.10144 0.83686,0.1268 0.17245,0.24345 0.34996,0.46154 0.52748,0.65934 -0.37532,0.37025 -0.75571,0.62384 -1.0651,0.62384 -0.0659,0 -0.12679,-0.0152 -0.17751,-0.0456 z m 3.08371,-1.0296 c 0.0862,0.53255 0.0152,0.90787 -0.19273,1.0296 -0.0507,0.0304 -0.11158,0.0456 -0.17752,0.0456 -0.30431,0 -0.6847,-0.24852 -1.06509,-0.62384 0.17751,-0.19273 0.35503,-0.41589 0.52747,-0.65934 0.29417,-0.0254 0.57313,-0.071 0.83686,-0.1268 0.0304,0.11665 0.0507,0.22823 0.071,0.33474 z m 0.45647,-0.79121 c -0.10144,0.0406 -0.21302,0.0761 -0.3246,0.10651 -0.0812,-0.2536 -0.18259,-0.52241 -0.30431,-0.79122 0.12172,-0.26881 0.22823,-0.53254 0.30431,-0.78614 0.69993,0.20288 1.12089,0.50719 1.12089,0.79122 0,0.23837 -0.29417,0.49197 -0.79629,0.67963 z m -1.5165,-0.67963 a 0.57819486,0.57819486 0 0 1 -0.57819,0.57819 0.57819486,0.57819486 0 0 1 -0.5782,-0.57819 0.57819486,0.57819486 0 0 1 0.5782,-0.5782 0.57819486,0.57819486 0 0 1 0.57819,0.5782 z" />
  </g>
</svg>
