<?xml version="1.0" encoding="UTF-8" standalone="no"?>
<svg
   xmlns:dc="http://purl.org/dc/elements/1.1/"
   xmlns:cc="http://creativecommons.org/ns#"
   xmlns:rdf="http://www.w3.org/1999/02/22-rdf-syntax-ns#"
   xmlns:svg="http://www.w3.org/2000/svg"
   xmlns="http://www.w3.org/2000/svg"
   xmlns:sodipodi="http://sodipodi.sourceforge.net/DTD/sodipodi-0.dtd"
   xmlns:inkscape="http://www.inkscape.org/namespaces/inkscape"
   width="24"
   height="24"
   viewBox="0 0 6.3499999 6.3499999"
   version="1.1"
   id="svg10908"
   inkscape:version="1.0.1 (3bc2e813f5, 2020-09-07)"
   sodipodi:docname="github-circle-outline-white.svg">
  <title
     id="title11486">github-circle-outline-white</title>
  <defs
     id="defs10902" />
  <sodipodi:namedview
     id="base"
     pagecolor="#ffffff"
     bordercolor="#666666"
     borderopacity="1.0"
     inkscape:pageopacity="0.0"
     inkscape:pageshadow="2"
     inkscape:zoom="22.4"
     inkscape:cx="11.239633"
     inkscape:cy="11.063399"
     inkscape:document-units="mm"
     inkscape:current-layer="layer1"
     inkscape:document-rotation="0"
     showgrid="false"
     units="px"
     inkscape:window-width="1274"
     inkscape:window-height="1368"
     inkscape:window-x="1277"
     inkscape:window-y="1080"
     inkscape:window-maximized="0"
     inkscape:snap-center="true"
     inkscape:snap-object-midpoints="true"
     inkscape:snap-page="true"
     inkscape:snap-intersection-paths="true"
     inkscape:snap-smooth-nodes="false"
     showguides="true"
     inkscape:guide-bbox="true"
     inkscape:snap-bbox="true"
     inkscape:bbox-paths="true"
     inkscape:bbox-nodes="true"
     inkscape:snap-bbox-edge-midpoints="true"
     inkscape:snap-bbox-midpoints="true">
    <sodipodi:guide
       position="0,6.3499999"
       orientation="1,0"
       id="guide11518" />
  </sodipodi:namedview>
  <metadata
     id="metadata10905">
    <rdf:RDF>
      <cc:Work
         rdf:about="">
        <dc:format>image/svg+xml</dc:format>
        <dc:type
           rdf:resource="http://purl.org/dc/dcmitype/StillImage" />
        <dc:title>github-circle-outline-white</dc:title>
      </cc:Work>
    </rdf:RDF>
  </metadata>
  <g
     inkscape:label="Layer 1"
     inkscape:groupmode="layer"
     id="layer1"
     transform="translate(-109.4619,-112.48571)">
    <path
       id="circle-2-4-0-0-79-4-2"
       style="fill:#ffffff;fill-opacity:1;fill-rule:evenodd;stroke:none;stroke-width:0.0916501"
       d="m 112.6369,112.48571 a 3.175,3.1749997 0 0 0 -3.175,3.175 3.175,3.1749997 0 0 0 3.175,3.175 3.175,3.1749997 0 0 0 3.175,-3.175 3.175,3.1749997 0 0 0 -3.175,-3.175 z m -0.005,0.52917 a 2.6458331,2.6458331 0 0 1 0.005,0 2.6458331,2.6458331 0 0 1 2.64584,2.64583 2.6458331,2.6458331 0 0 1 -1.97456,2.55902 c 1e-5,5.3e-4 -10e-6,0.001 0,0.002 l -5.3e-4,5.2e-4 a 2.6922539,2.6922539 0 0 1 -0.34468,0.0646 2.6458331,2.6458331 0 0 0 0.3452,-0.0667 c -0.005,-0.35918 10e-4,-0.63736 10e-4,-0.925 0,-0.25159 -0.0866,-0.41602 -0.18345,-0.49972 0.60058,-0.0668 1.23197,-0.29527 1.23197,-1.33118 0,-0.29446 -0.10508,-0.53455 -0.27802,-0.72347 0.028,-0.0679 0.12044,-0.3422 -0.0264,-0.71365 0,0 -0.0141,-0.005 -0.0434,-0.006 -0.0877,-0.004 -0.31155,0.0204 -0.69764,0.28215 -0.21559,-0.0598 -0.44631,-0.0894 -0.67542,-0.0904 -0.22926,0.001 -0.46022,0.0312 -0.67541,0.091 -0.38655,-0.26172 -0.61031,-0.28672 -0.69815,-0.28268 -0.0292,0.001 -0.0434,0.006 -0.0434,0.006 -0.14648,0.37151 -0.0538,0.64577 -0.0258,0.71365 -0.17254,0.18893 -0.27803,0.42953 -0.27803,0.72399 0,1.03345 0.62981,1.26463 1.22887,1.33274 -0.0771,0.0674 -0.14736,0.18638 -0.17156,0.3607 -0.15392,0.0689 -0.5439,0.18796 -0.78445,-0.22428 0,0 -0.14264,-0.25904 -0.41342,-0.27801 0,0 -0.26334,-0.004 -0.0186,0.16381 0,0 0.17652,0.0836 0.29921,0.39532 0,0 0.15814,0.48097 0.90847,0.31781 0.003,0.26208 0.005,0.42669 0.004,0.68833 a 2.6458331,2.6458331 0 0 0 0.10955,0.0263 2.6458331,2.6458331 0 0 0 0.0687,0.0139 2.6922539,2.6922539 0 0 1 -0.0687,-0.0139 2.6922539,2.6922539 0 0 1 -0.10955,-0.0248 c 0,-5.3e-4 0,-10e-4 0,-0.002 a 2.6458331,2.6458331 0 0 1 -1.97765,-2.56009 2.6458331,2.6458331 0 0 1 2.64067,-2.64584 z m -1.72289,3.7207 c 0.008,-0.002 0.0186,-2.6e-4 0.0284,0.004 0.0196,0.009 0.0312,0.0274 0.0243,0.0408 -0.006,0.0134 -0.0272,0.0169 -0.0465,0.008 -0.0196,-0.009 -0.0307,-0.0269 -0.0243,-0.0403 0.003,-0.007 0.01,-0.0108 0.0181,-0.0124 z m 0.12454,0.093 h 5.3e-4 c 0.01,0.002 0.0206,0.008 0.0294,0.0176 0.0175,0.019 0.0209,0.0437 0.007,0.0558 -0.0128,0.0119 -0.0378,0.006 -0.0548,-0.0124 -0.0176,-0.0188 -0.0215,-0.0437 -0.008,-0.0558 0.006,-0.006 0.0163,-0.007 0.0263,-0.005 z m 0.11369,0.13953 c 0.0109,0.004 0.0221,0.0124 0.0305,0.0243 0.0165,0.0243 0.0164,0.0534 -5.3e-4,0.0651 -0.0166,0.0115 -0.0431,5.3e-4 -0.0599,-0.0233 -0.0165,-0.024 -0.017,-0.0531 0,-0.0646 0.008,-0.006 0.0192,-0.006 0.03,-0.002 z m 0.12299,0.15089 c 0.0127,0.002 0.0267,0.009 0.0382,0.0196 0.0236,0.0217 0.0302,0.053 0.0145,0.0692 -0.0148,0.0163 -0.0463,0.0119 -0.0692,-0.0103 -0.0236,-0.0218 -0.0302,-0.0525 -0.0155,-0.0687 0.007,-0.008 0.0193,-0.0117 0.032,-0.01 z m 0.16691,0.11989 c 0.0122,-0.004 0.0275,-0.004 0.0429,5.3e-4 0.0305,0.009 0.0503,0.0343 0.0439,0.0558 -0.006,0.0212 -0.0371,0.0307 -0.0677,0.0217 -0.0305,-0.009 -0.0502,-0.0345 -0.0439,-0.0558 0.004,-0.0107 0.0126,-0.0183 0.0248,-0.0222 z m 0.44856,0.008 c 0.0319,-0.005 0.0606,0.008 0.0646,0.0295 0.004,0.0217 -0.0188,0.0442 -0.0506,0.0501 -0.0312,0.006 -0.0601,-0.008 -0.0641,-0.0295 -0.004,-0.0222 0.0189,-0.0444 0.0501,-0.0501 z m -0.19948,0.0248 c 0.032,-5.3e-4 0.0584,0.0172 0.0584,0.0393 7.9e-4,0.0222 -0.0254,0.0408 -0.0574,0.0413 -0.0323,8e-4 -0.0581,-0.0174 -0.0584,-0.0393 0,-0.0224 0.0251,-0.0408 0.0574,-0.0413 z" />
  </g>
</svg>
