<?xml version="1.0" encoding="UTF-8" standalone="no"?>
<svg
   xmlns:dc="http://purl.org/dc/elements/1.1/"
   xmlns:cc="http://creativecommons.org/ns#"
   xmlns:rdf="http://www.w3.org/1999/02/22-rdf-syntax-ns#"
   xmlns:svg="http://www.w3.org/2000/svg"
   xmlns="http://www.w3.org/2000/svg"
   xmlns:sodipodi="http://sodipodi.sourceforge.net/DTD/sodipodi-0.dtd"
   xmlns:inkscape="http://www.inkscape.org/namespaces/inkscape"
   width="24"
   height="24"
   viewBox="0 0 6.3499999 6.3499999"
   version="1.1"
   id="svg10908"
   inkscape:version="1.0.1 (3bc2e813f5, 2020-09-07)"
   sodipodi:docname="github-roundedsquare-filled-white.svg">
  <title
     id="title11486">github-roundedsquare-filled-white</title>
  <defs
     id="defs10902" />
  <sodipodi:namedview
     id="base"
     pagecolor="#ffffff"
     bordercolor="#666666"
     borderopacity="1.0"
     inkscape:pageopacity="0.0"
     inkscape:pageshadow="2"
     inkscape:zoom="22.4"
     inkscape:cx="11.239633"
     inkscape:cy="11.063399"
     inkscape:document-units="mm"
     inkscape:current-layer="layer1"
     inkscape:document-rotation="0"
     showgrid="false"
     units="px"
     inkscape:window-width="1140"
     inkscape:window-height="1080"
     inkscape:window-x="1223"
     inkscape:window-y="1232"
     inkscape:window-maximized="0"
     inkscape:snap-center="true"
     inkscape:snap-object-midpoints="true"
     inkscape:snap-page="true"
     inkscape:snap-intersection-paths="true"
     inkscape:snap-smooth-nodes="false"
     showguides="true"
     inkscape:guide-bbox="true"
     inkscape:snap-bbox="true"
     inkscape:bbox-paths="true"
     inkscape:bbox-nodes="true"
     inkscape:snap-bbox-edge-midpoints="true"
     inkscape:snap-bbox-midpoints="true">
    <sodipodi:guide
       position="0,6.3499999"
       orientation="1,0"
       id="guide11518" />
  </sodipodi:namedview>
  <metadata
     id="metadata10905">
    <rdf:RDF>
      <cc:Work
         rdf:about="">
        <dc:format>image/svg+xml</dc:format>
        <dc:type
           rdf:resource="http://purl.org/dc/dcmitype/StillImage" />
        <dc:title>github-roundedsquare-filled-white</dc:title>
      </cc:Work>
    </rdf:RDF>
  </metadata>
  <g
     inkscape:label="Layer 1"
     inkscape:groupmode="layer"
     id="layer1"
     transform="translate(-109.4619,-112.48571)">
    <path
       id="roundedsquare-3-7"
       style="fill:#ffffff;fill-opacity:1;fill-rule:evenodd;stroke:none;stroke-width:0.0694534"
       d="m 109.99107,112.48571 c -0.29316,0 -0.52917,0.23601 -0.52917,0.52917 v 5.29166 c 0,0.29316 0.23601,0.52917 0.52917,0.52917 h 5.29166 c 0.29316,0 0.52917,-0.23601 0.52917,-0.52917 v -5.29166 c 0,-0.29316 -0.23601,-0.52917 -0.52917,-0.52917 z m 1.0759,1.05885 c 0.0973,-0.004 0.34497,0.0228 0.77308,0.31264 0.23832,-0.0662 0.49437,-0.099 0.74828,-0.10025 0.25374,10e-4 0.50897,0.034 0.74775,0.10025 0.57012,-0.38646 0.82114,-0.30644 0.82114,-0.30644 0.16262,0.41139 0.0599,0.71546 0.0289,0.79065 0.19153,0.20923 0.30799,0.47539 0.30799,0.8015 0,1.14726 -0.69912,1.40034 -1.36426,1.47433 0.1072,0.0927 0.20258,0.27431 0.20258,0.55294 -3e-5,0.31909 -0.006,0.7376 -0.001,1.13636 h -1.48467 c 0.002,-0.29091 -1e-4,-0.5819 -0.003,-0.87281 -0.83099,0.18069 -1.00614,-0.35244 -1.00614,-0.35244 -0.13588,-0.34526 -0.33177,-0.43718 -0.33177,-0.43718 -0.2711,-0.18538 0.0207,-0.18138 0.0207,-0.18138 0.2999,0.021 0.45733,0.30799 0.45733,0.30799 0.26642,0.45655 0.69927,0.32432 0.86972,0.24805 0.0268,-0.19306 0.10373,-0.32487 0.18914,-0.39946 -0.66347,-0.0754 -1.36065,-0.33186 -1.36065,-1.4764 0,-0.32611 0.11692,-0.59227 0.308,-0.8015 -0.031,-0.0752 -0.13326,-0.3787 0.0289,-0.79013 0,0 0.0157,-0.005 0.0481,-0.007 z m -0.39274,3.00602 c -0.009,0.002 -0.0172,0.007 -0.0202,0.0145 -0.007,0.0149 0.006,0.0353 0.0274,0.045 0.0213,0.0101 0.0442,0.006 0.0511,-0.009 0.008,-0.0149 -0.005,-0.0353 -0.0269,-0.045 -0.0108,-0.005 -0.0225,-0.007 -0.0315,-0.005 z m 0.13849,0.10387 c -0.0109,-0.002 -0.0221,-8e-4 -0.0289,0.006 -0.0144,0.0134 -0.0103,0.0412 0.009,0.062 0.019,0.021 0.0468,0.0266 0.061,0.0134 0.0145,-0.0134 0.0102,-0.0409 -0.009,-0.062 -0.01,-0.0102 -0.0206,-0.0166 -0.0315,-0.0191 z m 0.12558,0.15399 c -0.012,-0.004 -0.0246,-0.004 -0.0336,0.003 -0.0189,0.0127 -0.0183,0.0447 0,0.0713 0.0185,0.0263 0.0484,0.0381 0.0667,0.0253 0.0188,-0.013 0.0182,-0.0449 0,-0.0718 -0.009,-0.0132 -0.021,-0.0228 -0.0331,-0.0274 z m 0.13539,0.16743 c -0.0139,-0.002 -0.0272,0.002 -0.0351,0.0104 -0.0164,0.018 -0.009,0.0524 0.0171,0.0765 0.0255,0.0246 0.0607,0.0294 0.077,0.0114 0.0174,-0.0179 0.01,-0.0524 -0.0165,-0.0765 -0.0127,-0.0121 -0.028,-0.0195 -0.0418,-0.0217 z m 0.185,0.13281 c -0.0136,0.004 -0.0244,0.013 -0.0274,0.0248 -0.007,0.0236 0.0153,0.0507 0.0491,0.061 0.0339,0.01 0.0674,-2.6e-4 0.0744,-0.0238 0.007,-0.0238 -0.0148,-0.0513 -0.0486,-0.0615 -0.0171,-0.005 -0.0339,-0.005 -0.0475,-5.3e-4 z m 0.49713,0.008 c -0.0346,0.006 -0.0598,0.0312 -0.0558,0.0558 0.004,0.0238 0.0367,0.0385 0.0713,0.032 0.0353,-0.007 0.0598,-0.0313 0.0558,-0.0553 -0.004,-0.0244 -0.036,-0.0387 -0.0713,-0.0326 z m -0.22066,0.0279 c -0.0357,7.9e-4 -0.0641,0.0211 -0.0641,0.046 2.6e-4,0.0242 0.0293,0.0442 0.0651,0.0434 0.0355,-5.3e-4 0.064,-0.0214 0.063,-0.046 0,-0.0244 -0.0286,-0.0439 -0.0641,-0.0434 z" />
  </g>
</svg>
