<?xml version="1.0" encoding="UTF-8" standalone="no"?>
<svg
   xmlns:dc="http://purl.org/dc/elements/1.1/"
   xmlns:cc="http://creativecommons.org/ns#"
   xmlns:rdf="http://www.w3.org/1999/02/22-rdf-syntax-ns#"
   xmlns:svg="http://www.w3.org/2000/svg"
   xmlns="http://www.w3.org/2000/svg"
   xmlns:xlink="http://www.w3.org/1999/xlink"
   xmlns:sodipodi="http://sodipodi.sourceforge.net/DTD/sodipodi-0.dtd"
   xmlns:inkscape="http://www.inkscape.org/namespaces/inkscape"
   width="24"
   height="24"
   viewBox="0 0 6.3499999 6.3499999"
   version="1.1"
   id="svg10908"
   inkscape:version="1.0.1 (3bc2e813f5, 2020-09-07)"
   sodipodi:docname="github-plain-white.svg">
  <title
     id="title11486">github-plain-white</title>
  <defs
     id="defs10902">
    <clipPath
       id="b">
      <use
         xlink:href="#a"
         overflow="visible"
         id="use6568"
         x="0"
         y="0"
         width="100%"
         height="100%" />
    </clipPath>
    <linearGradient
       id="c"
       gradientUnits="userSpaceOnUse"
       x1="98.292999"
       y1="237.026"
       x2="74.286003"
       y2="215.319"
       gradientTransform="matrix(0.985,0,0,-0.985,6.128,272.439)">
      <stop
         offset="0"
         stop-color="#C0CDF9"
         id="stop6571" />
      <stop
         offset="1"
         stop-color="#07092D"
         stop-opacity=".288"
         id="stop6573" />
    </linearGradient>
    <linearGradient
       id="d"
       gradientUnits="userSpaceOnUse"
       x1="33.173"
       y1="245.076"
       x2="60.307999"
       y2="217.94099"
       gradientTransform="matrix(1.003,0,0,-1.003,-0.413,276.586)">
      <stop
         offset="0"
         stop-color="#fff"
         id="stop6580" />
      <stop
         offset="1"
         stop-color="#fff"
         stop-opacity="0"
         id="stop6582" />
    </linearGradient>
    <linearGradient
       id="e"
       gradientUnits="userSpaceOnUse"
       x1="48.612"
       y1="250.177"
       x2="81.172997"
       y2="217.616"
       gradientTransform="matrix(0.994,0,0,-0.994,2.709,274.439)">
      <stop
         offset="0"
         stop-color="#fff"
         id="stop6587" />
      <stop
         offset="1"
         stop-color="#fff"
         stop-opacity="0"
         id="stop6589" />
    </linearGradient>
    <radialGradient
       id="f-8"
       cx="51.136002"
       cy="13.518"
       r="33.212002"
       gradientTransform="matrix(0.827,0,0,-0.553,1.123,126.746)"
       gradientUnits="userSpaceOnUse">
      <stop
         offset="0"
         stop-color="#fff"
         id="stop6594" />
      <stop
         offset="1"
         stop-color="#fff"
         stop-opacity="0"
         id="stop6596" />
    </radialGradient>
    <radialGradient
       id="g"
       cx="147.452"
       cy="14.758"
       r="33.212002"
       gradientTransform="matrix(1.055,0,0,-0.706,-97.55,130.348)"
       gradientUnits="userSpaceOnUse">
      <stop
         offset="0"
         stop-color="#fff"
         id="stop6601" />
      <stop
         offset="1"
         stop-color="#fff"
         stop-opacity="0"
         id="stop6603" />
    </radialGradient>
    <radialGradient
       id="h"
       cx="-53.737"
       cy="94.672997"
       r="37.174"
       gradientTransform="matrix(0.526,0,0,-0.223,130.969,98.356)"
       gradientUnits="userSpaceOnUse">
      <stop
         offset="0"
         stop-color="#fff"
         id="stop6610" />
      <stop
         offset="1"
         stop-color="#fff"
         stop-opacity="0"
         id="stop6612" />
    </radialGradient>
    <radialGradient
       id="i"
       cx="-45.82"
       cy="80.196999"
       r="37.174"
       gradientTransform="matrix(0.526,0,0,-0.223,130.969,97.429)"
       gradientUnits="userSpaceOnUse">
      <stop
         offset="0"
         stop-color="#fff"
         id="stop6617" />
      <stop
         offset="1"
         stop-color="#fff"
         stop-opacity="0"
         id="stop6619" />
    </radialGradient>
    <linearGradient
       id="j"
       gradientUnits="userSpaceOnUse"
       x1="-32.429001"
       y1="73.095001"
       x2="-32.292999"
       y2="66.244003"
       gradientTransform="matrix(0.526,0,0,-0.526,130.306,130.092)">
      <stop
         offset="0"
         stop-color="#fff"
         id="stop6626" />
      <stop
         offset="1"
         stop-color="#fff"
         stop-opacity="0"
         id="stop6628" />
    </linearGradient>
    <linearGradient
       id="k"
       gradientUnits="userSpaceOnUse"
       x1="112.548"
       y1="76.804001"
       x2="112.548"
       y2="71.973999"
       gradientTransform="matrix(0.709,0,0,-1.134,33.501,178.262)">
      <stop
         offset="0"
         stop-color="#fff"
         id="stop6633" />
      <stop
         offset="1"
         stop-color="#fff"
         stop-opacity="0"
         id="stop6635" />
    </linearGradient>
    <radialGradient
       id="l"
       cx="-34.115002"
       cy="13.297"
       r="15.297"
       gradientTransform="matrix(0.526,0,0,-0.078,130.969,98.77)"
       gradientUnits="userSpaceOnUse">
      <stop
         offset="0"
         stop-color="#fff"
         id="stop6642" />
      <stop
         offset="1"
         stop-color="#fff"
         stop-opacity="0"
         id="stop6644" />
    </radialGradient>
    <linearGradient
       id="m"
       gradientUnits="userSpaceOnUse"
       x1="-643.91199"
       y1="327.836"
       x2="-643.77698"
       y2="320.98401"
       gradientTransform="matrix(0.203,-0.103,-0.238,-0.469,311.261,190.221)">
      <stop
         offset="0"
         stop-color="#fff"
         id="stop6651" />
      <stop
         offset="1"
         stop-color="#fff"
         stop-opacity="0"
         id="stop6653" />
    </linearGradient>
    <linearGradient
       id="n"
       gradientUnits="userSpaceOnUse"
       x1="-341.63501"
       y1="195.138"
       x2="-341.63501"
       y2="190.308"
       gradientTransform="matrix(0.273,-0.139,-0.513,-1.011,295.216,251.45)">
      <stop
         offset="0"
         stop-color="#fff"
         id="stop6658" />
      <stop
         offset="1"
         stop-color="#fff"
         stop-opacity="0"
         id="stop6660" />
    </linearGradient>
    <radialGradient
       id="o"
       cx="-645.599"
       cy="1737.484"
       r="15.297"
       gradientTransform="matrix(0.203,-0.103,-0.035,-0.069,297.352,162.155)"
       gradientUnits="userSpaceOnUse">
      <stop
         offset="0"
         stop-color="#fff"
         id="stop6667" />
      <stop
         offset="1"
         stop-color="#fff"
         stop-opacity="0"
         id="stop6669" />
    </radialGradient>
    <radialGradient
       id="p"
       cx="-185.187"
       cy="69.660004"
       r="24.691999"
       gradientTransform="matrix(0.526,0,0,-0.214,130.969,105.831)"
       gradientUnits="userSpaceOnUse">
      <stop
         offset="0"
         stop-color="#fff"
         stop-opacity=".33"
         id="stop6676" />
      <stop
         offset="1"
         stop-color="#fff"
         stop-opacity="0"
         id="stop6678" />
    </radialGradient>
    <linearGradient
       id="q"
       gradientUnits="userSpaceOnUse"
       x1="-136.743"
       y1="250.438"
       x2="-136.60699"
       y2="243.586"
       gradientTransform="matrix(0.463,0.102,0.123,-0.366,65.856,208.72)">
      <stop
         offset="0"
         stop-color="#fff"
         id="stop6683" />
      <stop
         offset="1"
         stop-color="#fff"
         stop-opacity="0"
         id="stop6685" />
    </linearGradient>
    <linearGradient
       id="r"
       gradientUnits="userSpaceOnUse"
       x1="60.342999"
       y1="183.942"
       x2="60.342999"
       y2="179.112"
       gradientTransform="matrix(0.623,0.219,0.166,-0.789,-34.636,234.581)">
      <stop
         offset="0"
         stop-color="#fff"
         id="stop6690" />
      <stop
         offset="1"
         stop-color="#fff"
         stop-opacity="0"
         id="stop6692" />
    </linearGradient>
    <radialGradient
       id="s"
       cx="-62.571999"
       cy="357.021"
       r="11.363"
       gradientTransform="matrix(0.624,-0.173,-0.065,-0.233,95.948,182.007)"
       gradientUnits="userSpaceOnUse">
      <stop
         offset="0"
         stop-color="#fff"
         id="stop6701" />
      <stop
         offset="1"
         stop-color="#fff"
         stop-opacity="0"
         id="stop6703" />
    </radialGradient>
    <radialGradient
       id="t"
       cx="193.011"
       cy="256.754"
       r="59.424999"
       gradientTransform="matrix(1.712,0,0,-1.685,-261.607,451.789)"
       gradientUnits="userSpaceOnUse">
      <stop
         offset="0"
         stop-color="#fff"
         id="stop6710" />
      <stop
         offset="1"
         stop-color="#fff"
         stop-opacity="0"
         id="stop6712" />
    </radialGradient>
    <linearGradient
       id="u"
       gradientUnits="userSpaceOnUse"
       x1="-224.589"
       y1="68.903"
       x2="-161.63699"
       y2="52.257999"
       gradientTransform="matrix(0.485,0,0,-0.485,149.184,125.791)">
      <stop
         offset="0"
         stop-color="#fff"
         id="stop6717" />
      <stop
         offset="1"
         stop-color="#fff"
         stop-opacity="0"
         id="stop6719" />
    </linearGradient>
    <linearGradient
       id="v"
       gradientUnits="userSpaceOnUse"
       x1="13.153"
       y1="197.76801"
       x2="9.2530003"
       y2="188.832"
       gradientTransform="matrix(0.88,0,0,-0.88,42.035,252.063)">
      <stop
         offset="0"
         stop-color="#EEEEEC"
         id="stop6726" />
      <stop
         offset="1"
         stop-color="#EEEEEC"
         stop-opacity="0"
         id="stop6728" />
    </linearGradient>
    <radialGradient
       id="w"
       cx="26.356001"
       cy="55.589001"
       r="24.385"
       gradientTransform="matrix(0.656,0,0,-0.834,66.991,147.128)"
       gradientUnits="userSpaceOnUse">
      <stop
         offset="0"
         stop-color="#fff"
         id="stop6733" />
      <stop
         offset="1"
         stop-color="#fff"
         stop-opacity="0"
         id="stop6735" />
    </radialGradient>
    <linearGradient
       id="x"
       gradientUnits="userSpaceOnUse"
       x1="-245.694"
       y1="88.661003"
       x2="-235.88"
       y2="80.863998"
       gradientTransform="matrix(0.49,0,0,-0.49,147.66,125.008)">
      <stop
         offset="0"
         stop-color="#fff"
         id="stop6748" />
      <stop
         offset="1"
         stop-color="#fff"
         stop-opacity="0"
         id="stop6750" />
    </linearGradient>
    <linearGradient
       id="y"
       gradientUnits="userSpaceOnUse"
       x1="-115.448"
       y1="55.254002"
       x2="-144.875"
       y2="134.487"
       gradientTransform="matrix(0.485,0,0,-0.485,149.184,125.791)">
      <stop
         offset="0"
         stop-color="#729FCF"
         id="stop6755" />
      <stop
         offset="1"
         stop-color="#729FCF"
         stop-opacity="0"
         id="stop6757" />
    </linearGradient>
    <path
       id="path6780"
       d="M 53.4,9.5 9.1,54.9 c -16.8,16.8 10.8,15.4 20.8,21.7 4.6,3 -14.8,6.9 -10.9,10.9 3.9,4 23.3,7.6 27.2,11.5 3.9,4 -7.8,8.2 -4,12.1 3.8,4 12.8,0.2 14.4,9.2 1.2,6.7 16.6,3.3 23.4,-2.4 l -3.5,-7.6 c 9.7,-9.8 18.3,-4.4 21.8,-13.4 1.9,-4.8 -14.6,-8.3 -10.2,-11.4 10.5,-7.4 49.2,-11.2 31.4,-29 L 73.6,9.5 C 68,4.2 58.6,4.2 53.4,9.5 Z M 42.7,79.1 c 1,0 33.1,4.3 20.7,7.6 C 58.7,88 37,79.1 42.7,79.1 Z m 61.5,17.8 c 0,2.3 17.5,3.5 16.6,-0.5 -1.4,-6.9 -14.7,-6.3 -16.6,0.5 z m -74.7,12 c 4,3.4 10,-0.8 11.9,-5.6 -3.8,-5.1 -18.1,0.3 -11.9,5.6 z m 72.6,-7.2 c -4.9,4.5 0.9,9.2 5.7,6.1 1.2,-0.9 -0.2,-5.1 -5.7,-6.1 z" />
  </defs>
  <sodipodi:namedview
     id="base"
     pagecolor="#ffffff"
     bordercolor="#666666"
     borderopacity="1.0"
     inkscape:pageopacity="0.0"
     inkscape:pageshadow="2"
     inkscape:zoom="22.4"
     inkscape:cx="12.53886"
     inkscape:cy="7.4919702"
     inkscape:document-units="mm"
     inkscape:current-layer="layer1"
     inkscape:document-rotation="0"
     showgrid="false"
     units="px"
     inkscape:window-width="1140"
     inkscape:window-height="1080"
     inkscape:window-x="1294"
     inkscape:window-y="1250"
     inkscape:window-maximized="0"
     inkscape:snap-center="true"
     inkscape:snap-object-midpoints="true"
     inkscape:snap-page="true"
     inkscape:snap-intersection-paths="true"
     inkscape:snap-smooth-nodes="false"
     showguides="false"
     inkscape:guide-bbox="true"
     inkscape:snap-bbox="true"
     inkscape:bbox-paths="true"
     inkscape:bbox-nodes="true"
     inkscape:snap-bbox-edge-midpoints="true"
     inkscape:snap-bbox-midpoints="true">
    <sodipodi:guide
       position="0,6.3499999"
       orientation="1,0"
       id="guide11518" />
  </sodipodi:namedview>
  <metadata
     id="metadata10905">
    <rdf:RDF>
      <cc:Work
         rdf:about="">
        <dc:format>image/svg+xml</dc:format>
        <dc:type
           rdf:resource="http://purl.org/dc/dcmitype/StillImage" />
        <dc:title>github-plain-white</dc:title>
      </cc:Work>
    </rdf:RDF>
  </metadata>
  <g
     inkscape:label="Layer 1"
     inkscape:groupmode="layer"
     id="layer1"
     transform="translate(-109.4619,-112.48571)">
    <path
       id="github"
       style="fill:#ffffff;fill-opacity:1;stroke-width:0.0532379"
       d="m 110.66445,117.15967 c -0.007,0.0162 -0.0318,0.021 -0.0544,0.01 -0.0231,-0.0106 -0.036,-0.0326 -0.0285,-0.0488 0.007,-0.0167 0.0317,-0.0213 0.0547,-0.0101 0.0231,0.0106 0.0363,0.0329 0.0282,0.0491 z m -0.0391,-0.0297 m 0.16766,0.17677 c -0.0151,0.0144 -0.0447,0.008 -0.0648,-0.0151 -0.0208,-0.0226 -0.0247,-0.053 -0.009,-0.0676 0.0157,-0.0143 0.0444,-0.008 0.0652,0.0151 0.0207,0.023 0.0248,0.0531 0.009,0.0677 z m -0.0302,-0.0333 m 0.15547,0.22075 c -0.0195,0.0139 -0.0513,9.3e-4 -0.071,-0.028 -0.0194,-0.029 -0.0194,-0.0638 5.3e-4,-0.0776 0.0196,-0.0139 0.051,-10e-4 0.071,0.0273 0.0194,0.0294 0.0194,0.0641 -5.3e-4,0.0783 z m 0,0 m 0.17145,0.18118 c -0.0173,0.0197 -0.0545,0.0144 -0.0816,-0.0124 -0.0277,-0.0263 -0.0354,-0.0636 -0.018,-0.0832 0.0177,-0.0197 0.0549,-0.0142 0.0822,0.0124 0.0277,0.0262 0.0361,0.0636 0.0175,0.0832 z m 0,0 m 0.23659,0.10518 c -0.008,0.0255 -0.0434,0.0371 -0.0794,0.0262 -0.0359,-0.0112 -0.0594,-0.041 -0.052,-0.0667 0.007,-0.0257 0.0433,-0.0377 0.0795,-0.0262 0.0359,0.0111 0.0594,0.0408 0.052,0.0667 z m 0,0 m 0.25989,0.0195 c 8.9e-4,0.0268 -0.0296,0.0491 -0.0673,0.0496 -0.038,9.3e-4 -0.0688,-0.0209 -0.0691,-0.0473 0,-0.0271 0.0299,-0.049 0.0678,-0.0498 0.0377,-6.9e-4 0.0687,0.0209 0.0687,0.0474 z m 0,0 m 0.24174,-0.0421 c 0.005,0.0261 -0.0217,0.053 -0.0592,0.0602 -0.0368,0.007 -0.071,-0.009 -0.0757,-0.0352 -0.005,-0.0268 0.0222,-0.0538 0.059,-0.0607 0.0375,-0.007 0.0712,0.009 0.0759,0.0357 z m 0,0 m 0.80895,-5.27219 c -1.75326,0 -3.17498,1.4574 -3.17498,3.25538 0,1.43837 0.90973,2.65857 2.17124,3.08908 0.15863,0.0302 0.21688,-0.0706 0.21688,-0.1566 0,-0.0776 -0.003,-0.33407 -0.004,-0.60609 -0.88328,0.19693 -1.06966,-0.38409 -1.06966,-0.38409 -0.14443,-0.37628 -0.35253,-0.47633 -0.35253,-0.47633 -0.28812,-0.20205 0.0217,-0.19784 0.0217,-0.19784 0.31877,0.0229 0.4867,0.33547 0.4867,0.33547 0.28318,0.49757 0.74275,0.35374 0.92392,0.27062 0.0285,-0.21041 0.11078,-0.35407 0.20158,-0.43536 -0.7052,-0.0822 -1.44658,-0.3614 -1.44658,-1.60877 0,-0.35542 0.12408,-0.64582 0.32718,-0.87385 -0.033,-0.0819 -0.14169,-0.41304 0.0307,-0.86145 0,0 0.26656,-0.0875 0.87329,0.33369 0.25331,-0.0722 0.52498,-0.10846 0.79485,-0.1097 0.26971,10e-4 0.54153,0.0374 0.79532,0.1096 0.60599,-0.42118 0.87224,-0.33369 0.87224,-0.33369 0.17282,0.44835 0.0641,0.7795 0.0312,0.86144 0.20357,0.22803 0.32676,0.51843 0.32676,0.87385 0,1.25033 -0.74274,1.52559 -1.44974,1.60623 0.11394,0.10103 0.21541,0.29919 0.21541,0.60285 0,0.43558 -0.004,0.78614 -0.004,0.89336 0,0.0866 0.0572,0.18814 0.21809,0.15617 1.26077,-0.43094 2.16945,-1.65076 2.16945,-3.08859 -5e-5,-1.79788 -1.42161,-3.25533 -3.17503,-3.25533 z" />
  </g>
</svg>
