<?xml version="1.0" encoding="UTF-8" standalone="no"?>
<svg
   xmlns:dc="http://purl.org/dc/elements/1.1/"
   xmlns:cc="http://creativecommons.org/ns#"
   xmlns:rdf="http://www.w3.org/1999/02/22-rdf-syntax-ns#"
   xmlns:svg="http://www.w3.org/2000/svg"
   xmlns="http://www.w3.org/2000/svg"
   xmlns:sodipodi="http://sodipodi.sourceforge.net/DTD/sodipodi-0.dtd"
   xmlns:inkscape="http://www.inkscape.org/namespaces/inkscape"
   width="24"
   height="24"
   viewBox="0 0 6.3499999 6.3499999"
   version="1.1"
   id="svg10908"
   inkscape:version="1.0.1 (3bc2e813f5, 2020-09-07)"
   sodipodi:docname="github-circle-filled.svg">
  <title
     id="title11486">github-circle-filled</title>
  <defs
     id="defs10902" />
  <sodipodi:namedview
     id="base"
     pagecolor="#ffffff"
     bordercolor="#666666"
     borderopacity="1.0"
     inkscape:pageopacity="0.0"
     inkscape:pageshadow="2"
     inkscape:zoom="22.4"
     inkscape:cx="11.239633"
     inkscape:cy="11.063399"
     inkscape:document-units="mm"
     inkscape:current-layer="layer1"
     inkscape:document-rotation="0"
     showgrid="false"
     units="px"
     inkscape:window-width="1140"
     inkscape:window-height="1368"
     inkscape:window-x="1411"
     inkscape:window-y="0"
     inkscape:window-maximized="0"
     inkscape:snap-center="true"
     inkscape:snap-object-midpoints="true"
     inkscape:snap-page="true"
     inkscape:snap-intersection-paths="true"
     inkscape:snap-smooth-nodes="false"
     showguides="true"
     inkscape:guide-bbox="true"
     inkscape:snap-bbox="true"
     inkscape:bbox-paths="true"
     inkscape:bbox-nodes="true"
     inkscape:snap-bbox-edge-midpoints="true"
     inkscape:snap-bbox-midpoints="true">
    <sodipodi:guide
       position="0,6.3499999"
       orientation="1,0"
       id="guide11518" />
  </sodipodi:namedview>
  <metadata
     id="metadata10905">
    <rdf:RDF>
      <cc:Work
         rdf:about="">
        <dc:format>image/svg+xml</dc:format>
        <dc:type
           rdf:resource="http://purl.org/dc/dcmitype/StillImage" />
        <dc:title>github-circle-filled</dc:title>
      </cc:Work>
    </rdf:RDF>
  </metadata>
  <g
     inkscape:label="Layer 1"
     inkscape:groupmode="layer"
     id="layer1"
     transform="translate(-109.4619,-112.48571)">
    <path
       id="circle-2-4-0-0-79-4-21"
       style="fill:#000000;fill-opacity:1;fill-rule:evenodd;stroke:none;stroke-width:0.0916501"
       d="m 112.6369,112.48571 a 3.175,3.1749997 0 0 0 -3.175,3.175 3.175,3.1749997 0 0 0 3.175,3.175 3.175,3.1749997 0 0 0 3.175,-3.175 3.175,3.1749997 0 0 0 -3.175,-3.175 z m -1.37356,1.5353 c 0.0878,-0.004 0.3116,0.0204 0.69815,0.28216 0.21519,-0.0598 0.44615,-0.0898 0.67541,-0.0909 0.22911,10e-4 0.45982,0.0311 0.67541,0.0909 0.38609,-0.26171 0.60994,-0.28615 0.69764,-0.28216 0.0293,10e-4 0.0434,0.006 0.0434,0.006 0.1468,0.37146 0.0544,0.64577 0.0264,0.71365 0.17293,0.18893 0.27801,0.42953 0.27801,0.72399 0,1.03591 -0.63138,1.26385 -1.23196,1.33067 0.0968,0.0837 0.18345,0.24813 0.18345,0.49971 -3e-5,0.28813 -0.006,0.56702 -0.001,0.92708 h -5.2e-4 a 2.6922539,2.6922539 0 0 1 -0.66972,0.0847 2.6922539,2.6922539 0 0 1 -10e-4,0 2.6922539,2.6922539 0 0 1 -0.66818,-0.0842 c 0.001,-0.26268 -10e-4,-0.42721 -0.004,-0.68988 -0.75032,0.16315 -0.90846,-0.31781 -0.90846,-0.31781 -0.12269,-0.31175 -0.2992,-0.39481 -0.2992,-0.39481 -0.24474,-0.16734 0.0186,-0.16433 0.0186,-0.16433 0.27078,0.019 0.41341,0.27802 0.41341,0.27802 0.24055,0.41223 0.63054,0.29314 0.78445,0.22427 0.0242,-0.17431 0.0945,-0.29334 0.17156,-0.3607 -0.59906,-0.0681 -1.22886,-0.29928 -1.22886,-1.33273 0,-0.29447 0.10548,-0.53507 0.27802,-0.72399 -0.028,-0.0679 -0.12063,-0.34215 0.0258,-0.71365 0,0 0.0142,-0.004 0.0434,-0.006 z m -0.3545,2.71457 c -0.008,0.002 -0.0151,0.005 -0.0181,0.0124 -0.006,0.0134 0.005,0.0316 0.0243,0.0403 0.0193,0.009 0.0405,0.006 0.0465,-0.008 0.007,-0.0134 -0.005,-0.032 -0.0243,-0.0408 -0.01,-0.004 -0.0204,-0.006 -0.0284,-0.004 z m 0.12454,0.093 c -0.01,-0.002 -0.0203,-7.9e-4 -0.0263,0.005 -0.0132,0.0121 -0.009,0.0371 0.008,0.0558 0.017,0.0188 0.042,0.0248 0.0548,0.0129 0.0142,-0.0121 0.0108,-0.0368 -0.007,-0.0558 -0.009,-0.009 -0.0195,-0.0158 -0.0294,-0.0181 z m 0.11369,0.13953 c -0.0108,-0.004 -0.022,-0.004 -0.03,0.002 -0.017,0.0115 -0.017,0.0406 -5.3e-4,0.0646 0.0168,0.0239 0.0439,0.0343 0.0605,0.0227 0.017,-0.0117 0.017,-0.0403 5.3e-4,-0.0646 -0.008,-0.0119 -0.0196,-0.0207 -0.0305,-0.0248 z m 0.12299,0.15141 c -0.0127,-0.002 -0.025,0.001 -0.032,0.009 -0.0147,0.0162 -0.008,0.047 0.0155,0.0687 0.023,0.0222 0.0544,0.0267 0.0692,0.0104 0.0157,-0.0162 0.009,-0.0475 -0.0145,-0.0692 -0.0115,-0.011 -0.0255,-0.0172 -0.0382,-0.0191 z m 0.1664,0.11937 c -0.0122,0.004 -0.0203,0.0116 -0.0243,0.0222 -0.006,0.0213 0.0134,0.0465 0.0439,0.0558 0.0306,0.009 0.0617,-5.3e-4 0.0677,-0.0217 0.006,-0.0215 -0.0134,-0.0461 -0.0439,-0.0553 -0.0154,-0.005 -0.0307,-0.005 -0.0429,-0.001 z m 0.44907,0.008 c -0.0312,0.006 -0.0541,0.0279 -0.0501,0.0501 0.004,0.0215 0.0329,0.0352 0.0641,0.0295 0.0318,-0.006 0.0546,-0.0285 0.0506,-0.0501 -0.004,-0.022 -0.0327,-0.035 -0.0646,-0.0295 z m -0.19947,0.0248 c -0.0323,5.3e-4 -0.0574,0.0189 -0.0574,0.0413 2.6e-4,0.0219 0.0261,0.0402 0.0584,0.0393 0.032,-5.3e-4 0.0581,-0.0186 0.0574,-0.0408 0,-0.022 -0.0264,-0.0403 -0.0584,-0.0398 z" />
  </g>
</svg>
