<?xml version="1.0" encoding="UTF-8" standalone="no"?>
<svg
   xmlns:dc="http://purl.org/dc/elements/1.1/"
   xmlns:cc="http://creativecommons.org/ns#"
   xmlns:rdf="http://www.w3.org/1999/02/22-rdf-syntax-ns#"
   xmlns:svg="http://www.w3.org/2000/svg"
   xmlns="http://www.w3.org/2000/svg"
   xmlns:sodipodi="http://sodipodi.sourceforge.net/DTD/sodipodi-0.dtd"
   xmlns:inkscape="http://www.inkscape.org/namespaces/inkscape"
   width="24"
   height="24"
   viewBox="0 0 6.3499999 6.3499999"
   version="1.1"
   id="svg10908"
   inkscape:version="1.0.1 (3bc2e813f5, 2020-09-07)"
   sodipodi:docname="email-default-square-filled.svg">
  <title
     id="title11486">email-default-square-filled</title>
  <defs
     id="defs10902" />
  <sodipodi:namedview
     id="base"
     pagecolor="#ffffff"
     bordercolor="#666666"
     borderopacity="1.0"
     inkscape:pageopacity="0.0"
     inkscape:pageshadow="2"
     inkscape:zoom="15.839192"
     inkscape:cx="14.047334"
     inkscape:cy="12.630995"
     inkscape:document-units="mm"
     inkscape:current-layer="layer1"
     inkscape:document-rotation="0"
     showgrid="false"
     units="px"
     inkscape:window-width="1346"
     inkscape:window-height="1198"
     inkscape:window-x="2914"
     inkscape:window-y="82"
     inkscape:window-maximized="0" />
  <metadata
     id="metadata10905">
    <rdf:RDF>
      <cc:Work
         rdf:about="">
        <dc:format>image/svg+xml</dc:format>
        <dc:type
           rdf:resource="http://purl.org/dc/dcmitype/StillImage" />
        <dc:title>email-default-square-filled</dc:title>
      </cc:Work>
    </rdf:RDF>
  </metadata>
  <g
     inkscape:label="Layer 1"
     inkscape:groupmode="layer"
     id="layer1"
     transform="translate(-109.4619,-112.48571)">
    <path
       id="square-651"
       style="fill:#000000;fill-opacity:1;fill-rule:evenodd;stroke:none;stroke-width:0.0694534"
       d="m 109.4619,112.48571 v 6.35 h 6.35 v -6.35 z m 1.5875,1.5875 h 3.175 c 0.21829,0 0.39688,0.1786 0.39688,0.39688 v 2.38125 c 0,0.21828 -0.17859,0.39687 -0.39688,0.39687 h -3.175 c -0.21828,0 -0.39687,-0.17859 -0.39687,-0.39687 l 0.002,-2.38125 c 0,-0.21828 0.17652,-0.39688 0.39481,-0.39688 z m 0.17002,0.53176 c -0.0885,-8e-4 -0.17002,0.0693 -0.17002,0.16898 0,0.0576 0.03,0.11082 0.0796,0.14262 l 1.40249,0.87695 c 0.0635,0.0397 0.14734,0.0397 0.21084,0 l 1.4025,-0.87695 c 0.0496,-0.0317 0.0796,-0.085 0.0796,-0.14262 0,-0.13287 -0.14475,-0.21265 -0.25786,-0.14315 l -1.32964,0.83148 -1.32963,-0.83148 c -0.0283,-0.0173 -0.0584,-0.0256 -0.0879,-0.0258 z" />
  </g>
</svg>
