<?xml version="1.0" encoding="UTF-8" standalone="no"?>
<svg
   xmlns:dc="http://purl.org/dc/elements/1.1/"
   xmlns:cc="http://creativecommons.org/ns#"
   xmlns:rdf="http://www.w3.org/1999/02/22-rdf-syntax-ns#"
   xmlns:svg="http://www.w3.org/2000/svg"
   xmlns="http://www.w3.org/2000/svg"
   xmlns:sodipodi="http://sodipodi.sourceforge.net/DTD/sodipodi-0.dtd"
   xmlns:inkscape="http://www.inkscape.org/namespaces/inkscape"
   width="24"
   height="24"
   viewBox="0 0 6.3499999 6.3499999"
   version="1.1"
   id="svg10908"
   inkscape:version="1.0.1 (3bc2e813f5, 2020-09-07)"
   sodipodi:docname="docker-circle-filled.svg">
  <title
     id="title11486">docker-circle-filled</title>
  <defs
     id="defs10902" />
  <sodipodi:namedview
     id="base"
     pagecolor="#ffffff"
     bordercolor="#666666"
     borderopacity="1.0"
     inkscape:pageopacity="0.0"
     inkscape:pageshadow="2"
     inkscape:zoom="22.4"
     inkscape:cx="11.239633"
     inkscape:cy="11.063399"
     inkscape:document-units="mm"
     inkscape:current-layer="layer1"
     inkscape:document-rotation="0"
     showgrid="false"
     units="px"
     inkscape:window-width="1140"
     inkscape:window-height="1368"
     inkscape:window-x="1411"
     inkscape:window-y="0"
     inkscape:window-maximized="0"
     inkscape:snap-center="true"
     inkscape:snap-object-midpoints="true"
     inkscape:snap-page="true"
     inkscape:snap-intersection-paths="true"
     inkscape:snap-smooth-nodes="false"
     showguides="true"
     inkscape:guide-bbox="true"
     inkscape:snap-bbox="true"
     inkscape:bbox-paths="true"
     inkscape:bbox-nodes="true"
     inkscape:snap-bbox-edge-midpoints="true"
     inkscape:snap-bbox-midpoints="true">
    <sodipodi:guide
       position="0,6.3499999"
       orientation="1,0"
       id="guide11518" />
  </sodipodi:namedview>
  <metadata
     id="metadata10905">
    <rdf:RDF>
      <cc:Work
         rdf:about="">
        <dc:format>image/svg+xml</dc:format>
        <dc:type
           rdf:resource="http://purl.org/dc/dcmitype/StillImage" />
        <dc:title>docker-circle-filled</dc:title>
      </cc:Work>
    </rdf:RDF>
  </metadata>
  <g
     inkscape:label="Layer 1"
     inkscape:groupmode="layer"
     id="layer1"
     transform="translate(-109.4619,-112.48571)">
    <path
       id="circle-17-1"
       style="fill:#000000;fill-opacity:1;fill-rule:evenodd;stroke:none;stroke-width:0.0916501"
       d="m 112.6369,112.48571 a 3.175,3.1749997 0 0 0 -3.175,3.175 3.175,3.1749997 0 0 0 3.175,3.175 3.175,3.1749997 0 0 0 3.175,-3.175 3.175,3.1749997 0 0 0 -3.175,-3.175 z m -0.49248,1.64228 h 0.57155 v 0.95291 h 0.49557 v 0.53743 h 0.25528 c 0.11436,0 0.23279,-0.0379 0.33952,-0.076 0.0534,-0.019 0.11041,-0.061 0.16381,-0.0915 -0.0687,-0.0915 -0.1028,-0.20572 -0.1142,-0.31626 -0.0152,-0.15247 0.0149,-0.35105 0.11782,-0.46922 l 0.0537,-0.061 0.061,0.0496 c 0.15248,0.12198 0.28199,0.29373 0.30489,0.49196 0.18297,-0.0533 0.4004,-0.0421 0.56431,0.0532 l 0.0605,0.0388 -0.0341,0.0682 c -0.13722,0.27064 -0.42692,0.35471 -0.709,0.33951 -0.4193,1.04825 -1.33796,1.54771 -2.45101,1.54771 -0.57558,0 -1.10187,-0.21373 -1.40302,-0.7245 l -0.004,-0.008 -0.0419,-0.0842 c -0.10295,-0.2249 -0.13382,-0.46091 -0.11472,-0.70487 l 0.008,-0.0574 h 0.42685 v -0.53382 h 0.49558 v -0.49558 h 0.95291 z m 0.076,0.0765 v 0.41909 H 112.64 v -0.41909 z m -0.95292,0.49557 v 0.4191 h 0.38138 v -0.4191 z m 0.45786,0 v 0.4191 h 0.41909 v -0.4191 z m 0.49506,0 v 0.4191 H 112.64 v -0.4191 z m -1.44849,0.49558 v 0.4191 h 0.41961 v -0.4191 z m 0.49557,0 v 0.4191 h 0.38138 v -0.4191 z m 0.45786,0 v 0.4191 h 0.41909 v -0.4191 z m 0.49506,0 v 0.4191 H 112.64 v -0.4191 z m 0.49558,0 v 0.4191 h 0.41961 v -0.4191 z m -1.06712,1.07126 c -0.0648,0 -0.11834,0.053 -0.11834,0.11782 0,0.0649 0.0535,0.11833 0.11834,0.11833 0.0648,0 0.11834,-0.0535 0.11834,-0.11833 0,-0.0649 -0.0535,-0.11383 -0.11834,-0.11782 z m 0,0.0336 c 0.0112,0 0.022,0.004 0.03,0.008 -0.008,0.004 -0.0152,0.015 -0.0191,0.03 0,0.0191 0.0155,0.0346 0.0346,0.0346 0.0153,0 0.0225,-0.008 0.0305,-0.0191 0.004,0.008 0.008,0.019 0.008,0.0305 0,0.0458 -0.038,0.0837 -0.0837,0.0837 -0.0458,0 -0.0837,-0.038 -0.0837,-0.0837 0,-0.0458 0.038,-0.0842 0.0837,-0.0842 z m -0.22479,0.28267 c -0.10673,0.0305 -0.23634,0.0494 -0.38499,0.0574 -0.0572,0.004 -0.11832,0.004 -0.17932,0.004 -0.0686,0 -0.14479,-0.004 -0.2248,-0.008 0.26684,0.26683 0.59094,0.46884 1.19321,0.47284 h 0.12971 c -0.28588,-0.13724 -0.44612,-0.32404 -0.53381,-0.52607 z" />
  </g>
</svg>
