<?xml version="1.0" encoding="UTF-8" standalone="no"?>
<svg
   xmlns:dc="http://purl.org/dc/elements/1.1/"
   xmlns:cc="http://creativecommons.org/ns#"
   xmlns:rdf="http://www.w3.org/1999/02/22-rdf-syntax-ns#"
   xmlns:svg="http://www.w3.org/2000/svg"
   xmlns="http://www.w3.org/2000/svg"
   xmlns:xlink="http://www.w3.org/1999/xlink"
   xmlns:sodipodi="http://sodipodi.sourceforge.net/DTD/sodipodi-0.dtd"
   xmlns:inkscape="http://www.inkscape.org/namespaces/inkscape"
   width="24"
   height="24"
   viewBox="0 0 6.3499999 6.3499999"
   version="1.1"
   id="svg10908"
   inkscape:version="1.0.1 (3bc2e813f5, 2020-09-07)"
   sodipodi:docname="docker-complex.svg">
  <title
     id="title11486">docker-complex</title>
  <defs
     id="defs10902">
    <clipPath
       id="b">
      <use
         xlink:href="#a"
         overflow="visible"
         id="use6568"
         x="0"
         y="0"
         width="100%"
         height="100%" />
    </clipPath>
    <linearGradient
       id="c"
       gradientUnits="userSpaceOnUse"
       x1="98.292999"
       y1="237.026"
       x2="74.286003"
       y2="215.319"
       gradientTransform="matrix(0.985,0,0,-0.985,6.128,272.439)">
      <stop
         offset="0"
         stop-color="#C0CDF9"
         id="stop6571" />
      <stop
         offset="1"
         stop-color="#07092D"
         stop-opacity=".288"
         id="stop6573" />
    </linearGradient>
    <linearGradient
       id="d"
       gradientUnits="userSpaceOnUse"
       x1="33.173"
       y1="245.076"
       x2="60.307999"
       y2="217.94099"
       gradientTransform="matrix(1.003,0,0,-1.003,-0.413,276.586)">
      <stop
         offset="0"
         stop-color="#fff"
         id="stop6580" />
      <stop
         offset="1"
         stop-color="#fff"
         stop-opacity="0"
         id="stop6582" />
    </linearGradient>
    <linearGradient
       id="e"
       gradientUnits="userSpaceOnUse"
       x1="48.612"
       y1="250.177"
       x2="81.172997"
       y2="217.616"
       gradientTransform="matrix(0.994,0,0,-0.994,2.709,274.439)">
      <stop
         offset="0"
         stop-color="#fff"
         id="stop6587" />
      <stop
         offset="1"
         stop-color="#fff"
         stop-opacity="0"
         id="stop6589" />
    </linearGradient>
    <radialGradient
       id="f-8"
       cx="51.136002"
       cy="13.518"
       r="33.212002"
       gradientTransform="matrix(0.827,0,0,-0.553,1.123,126.746)"
       gradientUnits="userSpaceOnUse">
      <stop
         offset="0"
         stop-color="#fff"
         id="stop6594" />
      <stop
         offset="1"
         stop-color="#fff"
         stop-opacity="0"
         id="stop6596" />
    </radialGradient>
    <radialGradient
       id="g"
       cx="147.452"
       cy="14.758"
       r="33.212002"
       gradientTransform="matrix(1.055,0,0,-0.706,-97.55,130.348)"
       gradientUnits="userSpaceOnUse">
      <stop
         offset="0"
         stop-color="#fff"
         id="stop6601" />
      <stop
         offset="1"
         stop-color="#fff"
         stop-opacity="0"
         id="stop6603" />
    </radialGradient>
    <radialGradient
       id="h"
       cx="-53.737"
       cy="94.672997"
       r="37.174"
       gradientTransform="matrix(0.526,0,0,-0.223,130.969,98.356)"
       gradientUnits="userSpaceOnUse">
      <stop
         offset="0"
         stop-color="#fff"
         id="stop6610" />
      <stop
         offset="1"
         stop-color="#fff"
         stop-opacity="0"
         id="stop6612" />
    </radialGradient>
    <radialGradient
       id="i"
       cx="-45.82"
       cy="80.196999"
       r="37.174"
       gradientTransform="matrix(0.526,0,0,-0.223,130.969,97.429)"
       gradientUnits="userSpaceOnUse">
      <stop
         offset="0"
         stop-color="#fff"
         id="stop6617" />
      <stop
         offset="1"
         stop-color="#fff"
         stop-opacity="0"
         id="stop6619" />
    </radialGradient>
    <linearGradient
       id="j"
       gradientUnits="userSpaceOnUse"
       x1="-32.429001"
       y1="73.095001"
       x2="-32.292999"
       y2="66.244003"
       gradientTransform="matrix(0.526,0,0,-0.526,130.306,130.092)">
      <stop
         offset="0"
         stop-color="#fff"
         id="stop6626" />
      <stop
         offset="1"
         stop-color="#fff"
         stop-opacity="0"
         id="stop6628" />
    </linearGradient>
    <linearGradient
       id="k"
       gradientUnits="userSpaceOnUse"
       x1="112.548"
       y1="76.804001"
       x2="112.548"
       y2="71.973999"
       gradientTransform="matrix(0.709,0,0,-1.134,33.501,178.262)">
      <stop
         offset="0"
         stop-color="#fff"
         id="stop6633" />
      <stop
         offset="1"
         stop-color="#fff"
         stop-opacity="0"
         id="stop6635" />
    </linearGradient>
    <radialGradient
       id="l"
       cx="-34.115002"
       cy="13.297"
       r="15.297"
       gradientTransform="matrix(0.526,0,0,-0.078,130.969,98.77)"
       gradientUnits="userSpaceOnUse">
      <stop
         offset="0"
         stop-color="#fff"
         id="stop6642" />
      <stop
         offset="1"
         stop-color="#fff"
         stop-opacity="0"
         id="stop6644" />
    </radialGradient>
    <linearGradient
       id="m"
       gradientUnits="userSpaceOnUse"
       x1="-643.91199"
       y1="327.836"
       x2="-643.77698"
       y2="320.98401"
       gradientTransform="matrix(0.203,-0.103,-0.238,-0.469,311.261,190.221)">
      <stop
         offset="0"
         stop-color="#fff"
         id="stop6651" />
      <stop
         offset="1"
         stop-color="#fff"
         stop-opacity="0"
         id="stop6653" />
    </linearGradient>
    <linearGradient
       id="n"
       gradientUnits="userSpaceOnUse"
       x1="-341.63501"
       y1="195.138"
       x2="-341.63501"
       y2="190.308"
       gradientTransform="matrix(0.273,-0.139,-0.513,-1.011,295.216,251.45)">
      <stop
         offset="0"
         stop-color="#fff"
         id="stop6658" />
      <stop
         offset="1"
         stop-color="#fff"
         stop-opacity="0"
         id="stop6660" />
    </linearGradient>
    <radialGradient
       id="o"
       cx="-645.599"
       cy="1737.484"
       r="15.297"
       gradientTransform="matrix(0.203,-0.103,-0.035,-0.069,297.352,162.155)"
       gradientUnits="userSpaceOnUse">
      <stop
         offset="0"
         stop-color="#fff"
         id="stop6667" />
      <stop
         offset="1"
         stop-color="#fff"
         stop-opacity="0"
         id="stop6669" />
    </radialGradient>
    <radialGradient
       id="p"
       cx="-185.187"
       cy="69.660004"
       r="24.691999"
       gradientTransform="matrix(0.526,0,0,-0.214,130.969,105.831)"
       gradientUnits="userSpaceOnUse">
      <stop
         offset="0"
         stop-color="#fff"
         stop-opacity=".33"
         id="stop6676" />
      <stop
         offset="1"
         stop-color="#fff"
         stop-opacity="0"
         id="stop6678" />
    </radialGradient>
    <linearGradient
       id="q"
       gradientUnits="userSpaceOnUse"
       x1="-136.743"
       y1="250.438"
       x2="-136.60699"
       y2="243.586"
       gradientTransform="matrix(0.463,0.102,0.123,-0.366,65.856,208.72)">
      <stop
         offset="0"
         stop-color="#fff"
         id="stop6683" />
      <stop
         offset="1"
         stop-color="#fff"
         stop-opacity="0"
         id="stop6685" />
    </linearGradient>
    <linearGradient
       id="r"
       gradientUnits="userSpaceOnUse"
       x1="60.342999"
       y1="183.942"
       x2="60.342999"
       y2="179.112"
       gradientTransform="matrix(0.623,0.219,0.166,-0.789,-34.636,234.581)">
      <stop
         offset="0"
         stop-color="#fff"
         id="stop6690" />
      <stop
         offset="1"
         stop-color="#fff"
         stop-opacity="0"
         id="stop6692" />
    </linearGradient>
    <radialGradient
       id="s"
       cx="-62.571999"
       cy="357.021"
       r="11.363"
       gradientTransform="matrix(0.624,-0.173,-0.065,-0.233,95.948,182.007)"
       gradientUnits="userSpaceOnUse">
      <stop
         offset="0"
         stop-color="#fff"
         id="stop6701" />
      <stop
         offset="1"
         stop-color="#fff"
         stop-opacity="0"
         id="stop6703" />
    </radialGradient>
    <radialGradient
       id="t"
       cx="193.011"
       cy="256.754"
       r="59.424999"
       gradientTransform="matrix(1.712,0,0,-1.685,-261.607,451.789)"
       gradientUnits="userSpaceOnUse">
      <stop
         offset="0"
         stop-color="#fff"
         id="stop6710" />
      <stop
         offset="1"
         stop-color="#fff"
         stop-opacity="0"
         id="stop6712" />
    </radialGradient>
    <linearGradient
       id="u"
       gradientUnits="userSpaceOnUse"
       x1="-224.589"
       y1="68.903"
       x2="-161.63699"
       y2="52.257999"
       gradientTransform="matrix(0.485,0,0,-0.485,149.184,125.791)">
      <stop
         offset="0"
         stop-color="#fff"
         id="stop6717" />
      <stop
         offset="1"
         stop-color="#fff"
         stop-opacity="0"
         id="stop6719" />
    </linearGradient>
    <linearGradient
       id="v"
       gradientUnits="userSpaceOnUse"
       x1="13.153"
       y1="197.76801"
       x2="9.2530003"
       y2="188.832"
       gradientTransform="matrix(0.88,0,0,-0.88,42.035,252.063)">
      <stop
         offset="0"
         stop-color="#EEEEEC"
         id="stop6726" />
      <stop
         offset="1"
         stop-color="#EEEEEC"
         stop-opacity="0"
         id="stop6728" />
    </linearGradient>
    <radialGradient
       id="w"
       cx="26.356001"
       cy="55.589001"
       r="24.385"
       gradientTransform="matrix(0.656,0,0,-0.834,66.991,147.128)"
       gradientUnits="userSpaceOnUse">
      <stop
         offset="0"
         stop-color="#fff"
         id="stop6733" />
      <stop
         offset="1"
         stop-color="#fff"
         stop-opacity="0"
         id="stop6735" />
    </radialGradient>
    <linearGradient
       id="x"
       gradientUnits="userSpaceOnUse"
       x1="-245.694"
       y1="88.661003"
       x2="-235.88"
       y2="80.863998"
       gradientTransform="matrix(0.49,0,0,-0.49,147.66,125.008)">
      <stop
         offset="0"
         stop-color="#fff"
         id="stop6748" />
      <stop
         offset="1"
         stop-color="#fff"
         stop-opacity="0"
         id="stop6750" />
    </linearGradient>
    <linearGradient
       id="y"
       gradientUnits="userSpaceOnUse"
       x1="-115.448"
       y1="55.254002"
       x2="-144.875"
       y2="134.487"
       gradientTransform="matrix(0.485,0,0,-0.485,149.184,125.791)">
      <stop
         offset="0"
         stop-color="#729FCF"
         id="stop6755" />
      <stop
         offset="1"
         stop-color="#729FCF"
         stop-opacity="0"
         id="stop6757" />
    </linearGradient>
    <path
       id="path6780"
       d="M 53.4,9.5 9.1,54.9 c -16.8,16.8 10.8,15.4 20.8,21.7 4.6,3 -14.8,6.9 -10.9,10.9 3.9,4 23.3,7.6 27.2,11.5 3.9,4 -7.8,8.2 -4,12.1 3.8,4 12.8,0.2 14.4,9.2 1.2,6.7 16.6,3.3 23.4,-2.4 l -3.5,-7.6 c 9.7,-9.8 18.3,-4.4 21.8,-13.4 1.9,-4.8 -14.6,-8.3 -10.2,-11.4 10.5,-7.4 49.2,-11.2 31.4,-29 L 73.6,9.5 C 68,4.2 58.6,4.2 53.4,9.5 Z M 42.7,79.1 c 1,0 33.1,4.3 20.7,7.6 C 58.7,88 37,79.1 42.7,79.1 Z m 61.5,17.8 c 0,2.3 17.5,3.5 16.6,-0.5 -1.4,-6.9 -14.7,-6.3 -16.6,0.5 z m -74.7,12 c 4,3.4 10,-0.8 11.9,-5.6 -3.8,-5.1 -18.1,0.3 -11.9,5.6 z m 72.6,-7.2 c -4.9,4.5 0.9,9.2 5.7,6.1 1.2,-0.9 -0.2,-5.1 -5.7,-6.1 z" />
  </defs>
  <sodipodi:namedview
     id="base"
     pagecolor="#ffffff"
     bordercolor="#666666"
     borderopacity="1.0"
     inkscape:pageopacity="0.0"
     inkscape:pageshadow="2"
     inkscape:zoom="22.4"
     inkscape:cx="12.53886"
     inkscape:cy="7.4919702"
     inkscape:document-units="mm"
     inkscape:current-layer="layer1"
     inkscape:document-rotation="0"
     showgrid="false"
     units="px"
     inkscape:window-width="1140"
     inkscape:window-height="1368"
     inkscape:window-x="1411"
     inkscape:window-y="0"
     inkscape:window-maximized="0"
     inkscape:snap-center="true"
     inkscape:snap-object-midpoints="true"
     inkscape:snap-page="true"
     inkscape:snap-intersection-paths="true"
     inkscape:snap-smooth-nodes="false"
     showguides="false"
     inkscape:guide-bbox="true"
     inkscape:snap-bbox="true"
     inkscape:bbox-paths="true"
     inkscape:bbox-nodes="true"
     inkscape:snap-bbox-edge-midpoints="true"
     inkscape:snap-bbox-midpoints="true">
    <sodipodi:guide
       position="0,6.3499999"
       orientation="1,0"
       id="guide11518" />
  </sodipodi:namedview>
  <metadata
     id="metadata10905">
    <rdf:RDF>
      <cc:Work
         rdf:about="">
        <dc:format>image/svg+xml</dc:format>
        <dc:type
           rdf:resource="http://purl.org/dc/dcmitype/StillImage" />
        <dc:title>docker-complex</dc:title>
      </cc:Work>
    </rdf:RDF>
  </metadata>
  <g
     inkscape:label="Layer 1"
     inkscape:groupmode="layer"
     id="layer1"
     transform="translate(-109.4619,-112.48571)">
    <g
       id="docker-complex"
       transform="matrix(0.05047695,0,0,0.05047695,109.40638,112.43271)"
       style="fill:#205081">
      <path
         fill-rule="evenodd"
         clip-rule="evenodd"
         fill="#3a4d54"
         d="m 73.8,50.8 h 11.3 v 11.5 h 5.7 c 2.6,0 5.3,-0.5 7.8,-1.3 1.2,-0.4 2.6,-1 3.8,-1.7 -1.6,-2.1 -2.4,-4.7 -2.6,-7.3 -0.3,-3.5 0.4,-8.1 2.8,-10.8 l 1.2,-1.4 1.4,1.1 c 3.6,2.9 6.5,6.8 7.1,11.4 4.3,-1.3 9.3,-1 13.1,1.2 l 1.5,0.9 -0.8,1.6 c -3.2,6.2 -9.9,8.2 -16.4,7.8 -9.8,24.3 -31,35.8 -56.8,35.8 -13.3,0 -25.5,-5 -32.5,-16.8 l -0.1,-0.2 -1,-2.1 C 16.9,75.3 16.2,69.6 16.7,63.9 l 0.2,-1.7 h 9.6 V 50.8 H 37.8 V 39.6 H 60.3 V 28.3 h 13.5 z"
         id="path4785" />
      <path
         fill="#00aada"
         d="m 110.4,55.1 c 0.8,-5.9 -3.6,-10.5 -6.4,-12.7 -3.1,3.6 -3.6,13.2 1.3,17.2 -2.8,2.4 -8.5,4.7 -14.5,4.7 H 18.6 c -0.6,6.2 0.5,11.9 3,16.8 l 0.8,1.5 c 0.5,0.9 1.1,1.7 1.7,2.6 3,0.2 5.7,0.3 8.2,0.2 4.9,-0.1 8.9,-0.7 12,-1.7 0.5,-0.2 0.9,0.1 1.1,0.5 0.2,0.5 -0.1,0.9 -0.5,1.1 -0.4,0.1 -0.8,0.3 -1.3,0.4 -2.4,0.7 -5,1.1 -8.3,1.3 h -0.6 c -1.3,0.1 -2.7,0.1 -4.2,0.1 -1.6,0 -3.1,0 -4.9,-0.1 6,6.8 15.4,10.8 27.2,10.8 25,0 46.2,-11.1 55.5,-35.9 6.7,0.7 13.1,-1 16,-6.7 -4.5,-2.7 -10.5,-1.8 -13.9,-0.1 z"
         id="path4787" />
      <path
         fill="#28b8eb"
         d="m 110.4,55.1 c 0.8,-5.9 -3.6,-10.5 -6.4,-12.7 -3.1,3.6 -3.6,13.2 1.3,17.2 -2.8,2.4 -8.5,4.7 -14.5,4.7 h -68 c -0.3,9.5 3.2,16.7 9.5,21 4.9,-0.1 8.9,-0.7 12,-1.7 0.5,-0.2 0.9,0.1 1.1,0.5 0.2,0.5 -0.1,0.9 -0.5,1.1 -0.4,0.1 -0.8,0.3 -1.3,0.4 -2.4,0.7 -5.2,1.2 -8.5,1.4 L 35,86.9 c 8.5,4.4 20.8,4.3 35,-1.1 15.8,-6.1 30.6,-17.7 40.9,-30.9 -0.2,0.1 -0.4,0.1 -0.5,0.2 z"
         id="path4789" />
      <path
         fill="#028bb8"
         d="m 18.7,71.8 c 0.4,3.3 1.4,6.4 2.9,9.3 l 0.8,1.5 c 0.5,0.9 1.1,1.7 1.7,2.6 3,0.2 5.7,0.3 8.2,0.2 4.9,-0.1 8.9,-0.7 12,-1.7 0.5,-0.2 0.9,0.1 1.1,0.5 0.2,0.5 -0.1,0.9 -0.5,1.1 -0.4,0.1 -0.8,0.3 -1.3,0.4 -2.4,0.7 -5.2,1.2 -8.5,1.4 h -0.4 c -1.3,0.1 -2.7,0.1 -4.1,0.1 -1.6,0 -3.2,0 -4.9,-0.1 6,6.8 15.5,10.8 27.3,10.8 21.4,0 40,-8.1 50.8,-26 H 18.7 Z"
         id="path4791" />
      <path
         fill="#019bc6"
         d="m 23.5,71.8 c 1.3,5.8 4.3,10.4 8.8,13.5 4.9,-0.1 8.9,-0.7 12,-1.7 0.5,-0.2 0.9,0.1 1.1,0.5 0.2,0.5 -0.1,0.9 -0.5,1.1 -0.4,0.1 -0.8,0.3 -1.3,0.4 -2.4,0.7 -5.2,1.2 -8.6,1.4 8.5,4.4 20.8,4.3 34.9,-1.1 8.5,-3.3 16.8,-8.2 24.2,-14.1 z"
         id="path4793" />
      <path
         fill-rule="evenodd"
         clip-rule="evenodd"
         fill="#00acd3"
         d="m 28.4,52.7 h 9.8 v 9.8 h -9.8 z m 0.8,0.8 H 30 v 8.1 h -0.8 z m 1.4,0 h 0.8 v 8.1 h -0.8 z m 1.5,0 h 0.8 v 8.1 h -0.8 z m 1.5,0 h 0.8 v 8.1 h -0.8 z m 1.5,0 h 0.8 v 8.1 h -0.8 z m 1.5,0 h 0.8 v 8.1 h -0.8 z m 3,-12 h 9.8 v 9.8 h -9.8 z m 0.9,0.8 h 0.8 v 8.1 h -0.8 z m 1.4,0 h 0.8 v 8.1 h -0.8 z m 1.5,0 h 0.8 v 8.1 h -0.8 z m 1.5,0 h 0.8 v 8.1 h -0.8 z m 1.4,0 h 0.8 v 8.1 h -0.8 z m 1.5,0 h 0.8 v 8.1 h -0.8 z"
         id="path4795" />
      <path
         fill-rule="evenodd"
         clip-rule="evenodd"
         fill="#23c2ee"
         d="m 39.6,52.7 h 9.8 v 9.8 h -9.8 z m 0.9,0.8 h 0.8 v 8.1 h -0.8 z m 1.4,0 h 0.8 v 8.1 h -0.8 z m 1.5,0 h 0.8 v 8.1 h -0.8 z m 1.5,0 h 0.8 v 8.1 h -0.8 z m 1.4,0 h 0.8 v 8.1 h -0.8 z m 1.5,0 h 0.8 v 8.1 h -0.8 z"
         id="path4797" />
      <path
         fill-rule="evenodd"
         clip-rule="evenodd"
         fill="#00acd3"
         d="m 50.9,52.7 h 9.8 v 9.8 h -9.8 z m 0.8,0.8 h 0.8 v 8.1 h -0.8 z m 1.5,0 H 54 v 8.1 h -0.8 z m 1.5,0 h 0.8 v 8.1 h -0.8 z m 1.4,0 h 0.8 v 8.1 h -0.8 z m 1.5,0 h 0.8 v 8.1 h -0.8 z m 1.5,0 h 0.8 v 8.1 h -0.8 z"
         id="path4799" />
      <path
         fill-rule="evenodd"
         clip-rule="evenodd"
         fill="#23c2ee"
         d="m 50.9,41.5 h 9.8 v 9.8 h -9.8 z m 0.8,0.8 h 0.8 v 8.1 h -0.8 z m 1.5,0 H 54 v 8.1 h -0.8 z m 1.5,0 h 0.8 v 8.1 h -0.8 z m 1.4,0 h 0.8 v 8.1 h -0.8 z m 1.5,0 h 0.8 v 8.1 h -0.8 z m 1.5,0 h 0.8 v 8.1 h -0.8 z m 3.1,10.4 H 72 v 9.8 h -9.8 z m 0.8,0.8 h 0.8 v 8.1 H 63 Z m 1.5,0 h 0.8 v 8.1 h -0.8 z m 1.4,0 h 0.8 v 8.1 h -0.8 z m 1.5,0 h 0.8 v 8.1 h -0.8 z m 1.5,0 h 0.8 v 8.1 h -0.8 z m 1.5,0 h 0.8 v 8.1 h -0.8 z"
         id="path4801" />
      <path
         fill-rule="evenodd"
         clip-rule="evenodd"
         fill="#00acd3"
         d="M 62.2,41.5 H 72 v 9.8 h -9.8 z m 0.8,0.8 h 0.8 v 8.1 H 63 Z m 1.5,0 h 0.8 v 8.1 h -0.8 z m 1.4,0 h 0.8 v 8.1 h -0.8 z m 1.5,0 h 0.8 v 8.1 h -0.8 z m 1.5,0 h 0.8 v 8.1 h -0.8 z m 1.5,0 h 0.8 v 8.1 h -0.8 z"
         id="path4803" />
      <path
         fill-rule="evenodd"
         clip-rule="evenodd"
         fill="#23c2ee"
         d="M 62.2,30.2 H 72 V 40 H 62.2 Z M 63,31 h 0.8 v 8.1 H 63 Z m 1.5,0 h 0.8 v 8.1 h -0.8 z m 1.4,0 h 0.8 v 8.1 h -0.8 z m 1.5,0 h 0.8 v 8.1 h -0.8 z m 1.5,0 h 0.8 v 8.1 h -0.8 z m 1.5,0 h 0.8 v 8.1 h -0.8 z"
         id="path4805" />
      <path
         fill-rule="evenodd"
         clip-rule="evenodd"
         fill="#00acd3"
         d="m 73.5,52.7 h 9.8 v 9.8 h -9.8 z m 0.8,0.8 h 0.8 v 8.1 h -0.8 z m 1.4,0 h 0.8 v 8.1 h -0.8 z m 1.5,0 H 78 v 8.1 h -0.8 z m 1.5,0 h 0.8 v 8.1 h -0.8 z m 1.5,0 H 81 v 8.1 h -0.8 z m 1.5,0 h 0.8 v 8.1 h -0.8 z"
         id="path4807" />
      <path
         fill-rule="evenodd"
         clip-rule="evenodd"
         fill="#d4eef1"
         d="m 48.8,78.3 c 1.5,0 2.7,1.2 2.7,2.7 0,1.5 -1.2,2.7 -2.7,2.7 -1.5,0 -2.7,-1.2 -2.7,-2.7 0,-1.5 1.2,-2.7 2.7,-2.7"
         id="path4809" />
      <path
         fill-rule="evenodd"
         clip-rule="evenodd"
         fill="#3a4d54"
         d="m 48.8,79.1 c 0.2,0 0.5,0 0.7,0.1 -0.2,0.1 -0.4,0.4 -0.4,0.7 0,0.4 0.4,0.8 0.8,0.8 0.3,0 0.6,-0.2 0.7,-0.4 0.1,0.2 0.1,0.5 0.1,0.7 0,1.1 -0.9,1.9 -1.9,1.9 -1.1,0 -1.9,-0.9 -1.9,-1.9 0,-1 0.8,-1.9 1.9,-1.9 M 1.1,72.8 h 125.4 c -2.7,-0.7 -8.6,-1.6 -7.7,-5.2 -5,5.7 -16.9,4 -20,1.2 -3.4,4.9 -23,3 -24.3,-0.8 -4.2,5 -17.3,5 -21.5,0 -1.4,3.8 -21,5.7 -24.3,0.8 -3,2.8 -15,4.5 -20,-1.2 1.1,3.5 -4.9,4.5 -7.6,5.2"
         id="path4811" />
      <path
         fill="#bfdbe0"
         d="M 56,97.8 C 49.3,94.6 45.7,90.3 43.6,85.6 c -2.5,0.7 -5.5,1.2 -8.9,1.4 -1.3,0.1 -2.7,0.1 -4.1,0.1 -1.7,0 -3.4,0 -5.2,-0.1 6,6 13.6,10.7 27.5,10.8 z"
         id="path4813" />
      <path
         fill="#d4eef1"
         d="m 46.1,89.9 c -0.9,-1.3 -1.8,-2.8 -2.5,-4.3 -2.5,0.7 -5.5,1.2 -8.9,1.4 2.3,1.2 5.7,2.4 11.4,2.9 z"
         id="path4815" />
    </g>
  </g>
</svg>
