<?xml version="1.0" encoding="UTF-8" standalone="no"?>
<svg
   xmlns:dc="http://purl.org/dc/elements/1.1/"
   xmlns:cc="http://creativecommons.org/ns#"
   xmlns:rdf="http://www.w3.org/1999/02/22-rdf-syntax-ns#"
   xmlns:svg="http://www.w3.org/2000/svg"
   xmlns="http://www.w3.org/2000/svg"
   xmlns:sodipodi="http://sodipodi.sourceforge.net/DTD/sodipodi-0.dtd"
   xmlns:inkscape="http://www.inkscape.org/namespaces/inkscape"
   width="24"
   height="24"
   viewBox="0 0 6.3499999 6.3499999"
   version="1.1"
   id="svg10908"
   inkscape:version="1.0.1 (3bc2e813f5, 2020-09-07)"
   sodipodi:docname="docker-roundedsquare-outline.svg">
  <title
     id="title11486">docker-roundedsquare-outline</title>
  <defs
     id="defs10902" />
  <sodipodi:namedview
     id="base"
     pagecolor="#ffffff"
     bordercolor="#666666"
     borderopacity="1.0"
     inkscape:pageopacity="0.0"
     inkscape:pageshadow="2"
     inkscape:zoom="22.4"
     inkscape:cx="11.239633"
     inkscape:cy="11.063399"
     inkscape:document-units="mm"
     inkscape:current-layer="layer1"
     inkscape:document-rotation="0"
     showgrid="false"
     units="px"
     inkscape:window-width="1140"
     inkscape:window-height="1368"
     inkscape:window-x="1411"
     inkscape:window-y="0"
     inkscape:window-maximized="0"
     inkscape:snap-center="true"
     inkscape:snap-object-midpoints="true"
     inkscape:snap-page="true"
     inkscape:snap-intersection-paths="true"
     inkscape:snap-smooth-nodes="false"
     showguides="true"
     inkscape:guide-bbox="true"
     inkscape:snap-bbox="true"
     inkscape:bbox-paths="true"
     inkscape:bbox-nodes="true"
     inkscape:snap-bbox-edge-midpoints="true"
     inkscape:snap-bbox-midpoints="true">
    <sodipodi:guide
       position="0,6.3499999"
       orientation="1,0"
       id="guide11518" />
  </sodipodi:namedview>
  <metadata
     id="metadata10905">
    <rdf:RDF>
      <cc:Work
         rdf:about="">
        <dc:format>image/svg+xml</dc:format>
        <dc:type
           rdf:resource="http://purl.org/dc/dcmitype/StillImage" />
        <dc:title>docker-roundedsquare-outline</dc:title>
      </cc:Work>
    </rdf:RDF>
  </metadata>
  <g
     inkscape:label="Layer 1"
     inkscape:groupmode="layer"
     id="layer1"
     transform="translate(-109.4619,-112.48571)">
    <path
       id="roundedsquare-outline-2-2-3-6"
       style="fill:#000000;fill-opacity:1;fill-rule:evenodd;stroke:none;stroke-width:0.529071;stroke-linejoin:round;stroke-miterlimit:4;stroke-dasharray:none;stroke-opacity:1"
       d="m 110.32851,112.48571 c -0.47997,0 -0.86661,0.38664 -0.86661,0.86661 v 4.61678 c 0,0.47997 0.38664,0.86661 0.86661,0.86661 h 4.61678 c 0.47997,0 0.86661,-0.38664 0.86661,-0.86661 v -4.61678 c 0,-0.47997 -0.38664,-0.86661 -0.86661,-0.86661 z m 0.19172,0.52917 h 4.23334 c 0.29316,0 0.52916,0.236 0.52916,0.52916 v 4.23334 c 0,0.29316 -0.236,0.52916 -0.52916,0.52916 h -4.23334 c -0.29316,0 -0.52916,-0.236 -0.52916,-0.52916 v -4.23334 c 0,-0.29316 0.236,-0.52916 0.52916,-0.52916 z m 1.62419,1.11311 v 0.45785 h -0.95291 v 0.49506 h -0.49558 v 0.53382 h -0.42684 l -0.008,0.0574 c -0.0191,0.24396 0.0113,0.47997 0.11421,0.70487 l 0.0424,0.0842 0.004,0.008 c 0.30114,0.51078 0.82743,0.7245 1.40301,0.7245 1.11305,0 2.03171,-0.49946 2.45102,-1.54771 0.28208,0.0152 0.57178,-0.0689 0.70899,-0.33951 l 0.0341,-0.0682 -0.0605,-0.0388 c -0.16392,-0.0953 -0.38134,-0.10656 -0.56431,-0.0532 -0.0229,-0.19823 -0.15241,-0.36998 -0.30489,-0.49196 l -0.061,-0.0496 -0.0537,0.0615 c -0.10293,0.11816 -0.13306,0.31622 -0.11782,0.4687 0.0114,0.11053 0.0455,0.22479 0.1142,0.31626 -0.0534,0.0305 -0.11044,0.0725 -0.16381,0.0915 -0.10673,0.0381 -0.22516,0.0765 -0.33952,0.0765 h -0.25528 v -0.53795 h -0.49557 v -0.95291 z m 0.076,0.0765 H 112.64 v 0.41961 h -0.41961 z m -0.95292,0.49557 h 0.38138 v 0.4191 h -0.38138 z m 0.45734,0 h 0.41961 v 0.4191 h -0.41961 z m 0.49558,0 H 112.64 v 0.4191 h -0.41961 z m -1.44849,0.49558 h 0.41961 v 0.4191 h -0.41961 z m 0.49557,0 h 0.38138 v 0.4191 h -0.38138 z m 0.45734,0 h 0.41961 v 0.4191 h -0.41961 z m 0.49558,0 H 112.64 v 0.4191 h -0.41961 z m 0.49558,0 h 0.41961 v 0.4191 H 112.716 Z m -1.06712,1.07126 c 0.0648,0.004 0.11834,0.0529 0.11834,0.11782 0,0.0648 -0.0536,0.11833 -0.11834,0.11833 -0.0648,0 -0.11834,-0.0535 -0.11834,-0.11833 0,-0.0648 0.0536,-0.11782 0.11834,-0.11782 z m 0,0.0336 c -0.0457,0 -0.0837,0.0384 -0.0837,0.0842 0,0.0457 0.0379,0.0837 0.0837,0.0837 0.0457,0 0.0837,-0.0379 0.0837,-0.0837 0,-0.0115 -0.004,-0.0229 -0.008,-0.0305 -0.008,0.0114 -0.0152,0.0191 -0.0305,0.0191 -0.0191,0 -0.0346,-0.0155 -0.0346,-0.0346 0.004,-0.015 0.0115,-0.026 0.0191,-0.03 -0.008,-0.004 -0.0188,-0.008 -0.03,-0.008 z m -0.22479,0.28267 c 0.0877,0.20204 0.24742,0.38884 0.53329,0.52607 h -0.12919 c -0.60227,-0.004 -0.92637,-0.20601 -1.19321,-0.47284 0.08,0.004 0.15619,0.008 0.2248,0.008 0.061,0 0.12213,-1.4e-4 0.17932,-0.004 0.14865,-0.008 0.27826,-0.0269 0.38499,-0.0574 z" />
  </g>
</svg>
