<?xml version="1.0" encoding="UTF-8" standalone="no"?>
<svg
   xmlns:dc="http://purl.org/dc/elements/1.1/"
   xmlns:cc="http://creativecommons.org/ns#"
   xmlns:rdf="http://www.w3.org/1999/02/22-rdf-syntax-ns#"
   xmlns:svg="http://www.w3.org/2000/svg"
   xmlns="http://www.w3.org/2000/svg"
   xmlns:sodipodi="http://sodipodi.sourceforge.net/DTD/sodipodi-0.dtd"
   xmlns:inkscape="http://www.inkscape.org/namespaces/inkscape"
   width="24"
   height="24"
   viewBox="0 0 6.3499999 6.3499999"
   version="1.1"
   id="svg10908"
   inkscape:version="1.0.1 (3bc2e813f5, 2020-09-07)"
   sodipodi:docname="docker-roundedsquare-filled.svg">
  <title
     id="title11486">docker-roundedsquare-filled</title>
  <defs
     id="defs10902" />
  <sodipodi:namedview
     id="base"
     pagecolor="#ffffff"
     bordercolor="#666666"
     borderopacity="1.0"
     inkscape:pageopacity="0.0"
     inkscape:pageshadow="2"
     inkscape:zoom="22.4"
     inkscape:cx="11.239633"
     inkscape:cy="11.063399"
     inkscape:document-units="mm"
     inkscape:current-layer="layer1"
     inkscape:document-rotation="0"
     showgrid="false"
     units="px"
     inkscape:window-width="1140"
     inkscape:window-height="1368"
     inkscape:window-x="1411"
     inkscape:window-y="0"
     inkscape:window-maximized="0"
     inkscape:snap-center="true"
     inkscape:snap-object-midpoints="true"
     inkscape:snap-page="true"
     inkscape:snap-intersection-paths="true"
     inkscape:snap-smooth-nodes="false"
     showguides="true"
     inkscape:guide-bbox="true"
     inkscape:snap-bbox="true"
     inkscape:bbox-paths="true"
     inkscape:bbox-nodes="true"
     inkscape:snap-bbox-edge-midpoints="true"
     inkscape:snap-bbox-midpoints="true">
    <sodipodi:guide
       position="0,6.3499999"
       orientation="1,0"
       id="guide11518" />
  </sodipodi:namedview>
  <metadata
     id="metadata10905">
    <rdf:RDF>
      <cc:Work
         rdf:about="">
        <dc:format>image/svg+xml</dc:format>
        <dc:type
           rdf:resource="http://purl.org/dc/dcmitype/StillImage" />
        <dc:title>docker-roundedsquare-filled</dc:title>
      </cc:Work>
    </rdf:RDF>
  </metadata>
  <g
     inkscape:label="Layer 1"
     inkscape:groupmode="layer"
     id="layer1"
     transform="translate(-109.4619,-112.48571)">
    <path
       id="roundedsquare-56-3"
       style="fill:#000000;fill-opacity:1;fill-rule:evenodd;stroke:none;stroke-width:0.0694534"
       d="m 109.99107,112.48571 c -0.29316,0 -0.52917,0.23601 -0.52917,0.52917 v 5.29166 c 0,0.29315 0.23601,0.52917 0.52917,0.52917 h 5.29166 c 0.29316,0 0.52917,-0.23602 0.52917,-0.52917 v -5.29166 c 0,-0.29316 -0.23601,-0.52917 -0.52917,-0.52917 z m 2.15284,1.64228 h 0.57206 v 0.95291 h 0.49557 v 0.53795 h 0.25528 c 0.11435,0 0.23278,-0.0384 0.33952,-0.0765 0.0534,-0.019 0.11041,-0.061 0.16381,-0.0915 -0.0687,-0.0915 -0.10332,-0.20572 -0.11472,-0.31626 -0.0152,-0.15246 0.0154,-0.35053 0.11834,-0.4687 l 0.0532,-0.0615 0.061,0.0496 c 0.15247,0.12197 0.2825,0.29374 0.3054,0.49196 0.18297,-0.0533 0.39989,-0.0421 0.56379,0.0532 l 0.061,0.0388 -0.0346,0.0687 c -0.13722,0.27065 -0.42692,0.35419 -0.709,0.33899 -0.41931,1.04825 -1.33798,1.54771 -2.45102,1.54771 -0.57559,0 -1.10135,-0.21372 -1.4025,-0.7245 l -0.004,-0.008 -0.0419,-0.0842 c -0.10295,-0.2249 -0.13331,-0.46091 -0.11421,-0.70487 l 0.008,-0.0574 h 0.42685 v -0.53382 h 0.49558 v -0.49506 h 0.95291 z m 0.0765,0.0765 v 0.41961 h 0.41909 v -0.41961 z m -0.95292,0.49557 v 0.4191 h 0.38138 v -0.4191 z m 0.45734,0 v 0.4191 h 0.41961 v -0.4191 z m 0.49558,0 v 0.4191 h 0.41909 v -0.4191 z m -1.44849,0.49558 v 0.4191 h 0.41909 v -0.4191 z m 0.49557,0 v 0.4191 h 0.38138 v -0.4191 z m 0.45734,0 v 0.4191 h 0.41961 v -0.4191 z m 0.49558,0 v 0.4191 h 0.41909 v -0.4191 z m 0.49558,0 v 0.4191 h 0.41909 v -0.4191 z m -1.06712,1.07126 c -0.0648,0 -0.11834,0.053 -0.11834,0.11782 0,0.0649 0.0535,0.11833 0.11834,0.11833 0.0648,0 0.11782,-0.0535 0.11782,-0.11833 0,-0.0649 -0.053,-0.11383 -0.11782,-0.11782 z m 0,0.0336 c 0.0112,0 0.022,0.004 0.03,0.008 -0.008,0.004 -0.0152,0.015 -0.0191,0.03 0,0.0191 0.015,0.0346 0.0341,0.0346 0.0153,0 0.0225,-0.008 0.0305,-0.0191 0.004,0.008 0.008,0.019 0.008,0.0305 0,0.0458 -0.038,0.0837 -0.0837,0.0837 -0.0458,0 -0.0842,-0.038 -0.0842,-0.0837 0,-0.0458 0.0385,-0.0842 0.0842,-0.0842 z m -0.22531,0.28267 c -0.10673,0.0305 -0.23633,0.0494 -0.38499,0.0574 -0.0572,0.004 -0.1178,0.004 -0.1788,0.004 -0.0686,0 -0.14479,-0.004 -0.2248,-0.008 0.26684,0.26684 0.59043,0.46884 1.1927,0.47284 h 0.1297 c -0.28589,-0.13724 -0.44611,-0.32404 -0.53381,-0.52607 z" />
  </g>
</svg>
