<?xml version="1.0" encoding="UTF-8" standalone="no"?>
<svg
   xmlns:dc="http://purl.org/dc/elements/1.1/"
   xmlns:cc="http://creativecommons.org/ns#"
   xmlns:rdf="http://www.w3.org/1999/02/22-rdf-syntax-ns#"
   xmlns:svg="http://www.w3.org/2000/svg"
   xmlns="http://www.w3.org/2000/svg"
   xmlns:sodipodi="http://sodipodi.sourceforge.net/DTD/sodipodi-0.dtd"
   xmlns:inkscape="http://www.inkscape.org/namespaces/inkscape"
   width="24"
   height="24"
   viewBox="0 0 6.3499999 6.3499999"
   version="1.1"
   id="svg10908"
   inkscape:version="1.0.1 (3bc2e813f5, 2020-09-07)"
   sodipodi:docname="git-square-filled.svg">
  <title
     id="title11486">git-square-filled</title>
  <defs
     id="defs10902" />
  <sodipodi:namedview
     id="base"
     pagecolor="#ffffff"
     bordercolor="#666666"
     borderopacity="1.0"
     inkscape:pageopacity="0.0"
     inkscape:pageshadow="2"
     inkscape:zoom="22.4"
     inkscape:cx="11.239633"
     inkscape:cy="11.063399"
     inkscape:document-units="mm"
     inkscape:current-layer="layer1"
     inkscape:document-rotation="0"
     showgrid="false"
     units="px"
     inkscape:window-width="1140"
     inkscape:window-height="1368"
     inkscape:window-x="1411"
     inkscape:window-y="0"
     inkscape:window-maximized="0"
     inkscape:snap-center="true"
     inkscape:snap-object-midpoints="true"
     inkscape:snap-page="true"
     inkscape:snap-intersection-paths="true"
     inkscape:snap-smooth-nodes="false"
     showguides="true"
     inkscape:guide-bbox="true"
     inkscape:snap-bbox="true"
     inkscape:bbox-paths="true"
     inkscape:bbox-nodes="true"
     inkscape:snap-bbox-edge-midpoints="true"
     inkscape:snap-bbox-midpoints="true">
    <sodipodi:guide
       position="0,6.3499999"
       orientation="1,0"
       id="guide11518" />
  </sodipodi:namedview>
  <metadata
     id="metadata10905">
    <rdf:RDF>
      <cc:Work
         rdf:about="">
        <dc:format>image/svg+xml</dc:format>
        <dc:type
           rdf:resource="http://purl.org/dc/dcmitype/StillImage" />
        <dc:title>git-square-filled</dc:title>
      </cc:Work>
    </rdf:RDF>
  </metadata>
  <g
     inkscape:label="Layer 1"
     inkscape:groupmode="layer"
     id="layer1"
     transform="translate(-109.4619,-112.48571)">
    <path
       id="square-4-9"
       style="fill:#000000;fill-opacity:1;fill-rule:evenodd;stroke:none;stroke-width:0.0694534"
       d="m 109.4619,112.48571 v 6.35 h 6.35 v -6.35 z m 3.17087,0.79427 c 0.0785,0 0.1567,0.0301 0.21652,0.0899 l 2.07895,2.07895 c 0.11971,0.11971 0.11974,0.31377 0,0.43356 l -2.06913,2.06913 c -0.11987,0.11972 -0.3144,0.11972 -0.43408,0 l -2.07894,-2.07895 c -0.11975,-0.11976 -0.1208,-0.31372 -0.001,-0.43356 l 1.4242,-1.42524 0.53692,0.5395 c -0.0554,0.13261 -0.0356,0.29106 0.0724,0.39895 0.0353,0.0354 0.0703,0.0618 0.108,0.0796 v 1.30741 c -0.0377,0.0178 -0.0728,0.0444 -0.108,0.0796 -0.14251,0.1425 -0.13062,0.37352 0.0119,0.51625 0.14239,0.14247 0.3737,0.14247 0.51624,0 0.14253,-0.14277 0.14253,-0.37379 0,-0.51625 -0.029,-0.0288 -0.0618,-0.0515 -0.0966,-0.0687 v -1.29553 l 0.49196,0.49248 c -0.0543,0.13208 -0.0276,0.28962 0.0796,0.39688 0.14265,0.14258 0.37368,0.14258 0.51625,0 0.14258,-0.14254 0.14258,-0.37378 0,-0.51625 -0.10191,-0.1022 -0.24956,-0.1303 -0.37724,-0.0863 l -0.52762,-0.52813 c 0.0441,-0.12772 0.0156,-0.27466 -0.0863,-0.37672 -0.10143,-0.10151 -0.24735,-0.13034 -0.37465,-0.0873 l -0.54777,-0.54777 0.4315,-0.4315 c 0.0599,-0.0598 0.13856,-0.0899 0.21704,-0.0899 z" />
  </g>
</svg>
