<?xml version="1.0" encoding="UTF-8" standalone="no"?>
<svg
   xmlns:dc="http://purl.org/dc/elements/1.1/"
   xmlns:cc="http://creativecommons.org/ns#"
   xmlns:rdf="http://www.w3.org/1999/02/22-rdf-syntax-ns#"
   xmlns:svg="http://www.w3.org/2000/svg"
   xmlns="http://www.w3.org/2000/svg"
   xmlns:sodipodi="http://sodipodi.sourceforge.net/DTD/sodipodi-0.dtd"
   xmlns:inkscape="http://www.inkscape.org/namespaces/inkscape"
   width="24"
   height="24"
   viewBox="0 0 6.3499999 6.3499999"
   version="1.1"
   id="svg10908"
   inkscape:version="1.0.1 (3bc2e813f5, 2020-09-07)"
   sodipodi:docname="phone-round-roundedsquare-outline.svg">
  <title
     id="title11486">phone-round-roundedsquare-outline</title>
  <defs
     id="defs10902" />
  <sodipodi:namedview
     id="base"
     pagecolor="#ffffff"
     bordercolor="#666666"
     borderopacity="1.0"
     inkscape:pageopacity="0.0"
     inkscape:pageshadow="2"
     inkscape:zoom="22.4"
     inkscape:cx="11.239633"
     inkscape:cy="11.063399"
     inkscape:document-units="mm"
     inkscape:current-layer="layer1"
     inkscape:document-rotation="0"
     showgrid="false"
     units="px"
     inkscape:window-width="1140"
     inkscape:window-height="1368"
     inkscape:window-x="1411"
     inkscape:window-y="0"
     inkscape:window-maximized="0"
     inkscape:snap-center="true"
     inkscape:snap-object-midpoints="true"
     inkscape:snap-page="true"
     inkscape:snap-intersection-paths="true"
     inkscape:snap-smooth-nodes="false"
     showguides="true"
     inkscape:guide-bbox="true"
     inkscape:snap-bbox="true"
     inkscape:bbox-paths="true"
     inkscape:bbox-nodes="true"
     inkscape:snap-bbox-edge-midpoints="true"
     inkscape:snap-bbox-midpoints="true">
    <sodipodi:guide
       position="0,6.3499999"
       orientation="1,0"
       id="guide11518" />
  </sodipodi:namedview>
  <metadata
     id="metadata10905">
    <rdf:RDF>
      <cc:Work
         rdf:about="">
        <dc:format>image/svg+xml</dc:format>
        <dc:type
           rdf:resource="http://purl.org/dc/dcmitype/StillImage" />
        <dc:title>phone-round-roundedsquare-outline</dc:title>
      </cc:Work>
    </rdf:RDF>
  </metadata>
  <g
     inkscape:label="Layer 1"
     inkscape:groupmode="layer"
     id="layer1"
     transform="translate(-109.4619,-112.48571)">
    <path
       id="roundedsquare-outline-2-28"
       style="fill:#000000;fill-opacity:1;fill-rule:evenodd;stroke:none;stroke-width:0.529071;stroke-linejoin:round;stroke-miterlimit:4;stroke-dasharray:none;stroke-opacity:1"
       d="m 110.32852,112.48571 c -0.47997,0 -0.86662,0.38664 -0.86662,0.86661 v 4.61678 c 0,0.47997 0.38665,0.86661 0.86662,0.86661 h 4.61677 c 0.47997,0 0.86661,-0.38664 0.86661,-0.86661 v -4.61678 c 0,-0.47997 -0.38664,-0.86661 -0.86661,-0.86661 z m 0.19172,0.52917 h 4.23333 c 0.29316,0 0.52917,0.236 0.52917,0.52916 v 4.23334 c 0,0.29316 -0.23601,0.52916 -0.52917,0.52916 h -4.23333 c -0.29316,0 -0.52917,-0.236 -0.52917,-0.52916 v -4.23334 c 0,-0.29316 0.23601,-0.52916 0.52917,-0.52916 z m 0.73173,0.86351 c -0.22422,0 -0.41076,0.18659 -0.39687,0.41083 0.10517,1.69465 1.46063,3.04812 3.1533,3.1533 0.22423,0.0139 0.41082,-0.17265 0.41082,-0.39688 v -0.34365 c 0.002,-0.20042 -0.14891,-0.36893 -0.34933,-0.39274 l -0.50384,-0.0574 c -0.12105,-0.0139 -0.24023,0.0273 -0.32557,0.11265 l -0.36535,0.36536 c -0.56157,-0.28575 -1.02166,-0.74437 -1.30741,-1.30793 l 0.3669,-0.36691 c 0.0853,-0.0853 0.12706,-0.20451 0.11317,-0.32556 l -0.0574,-0.49971 c -0.0238,-0.20042 -0.1924,-0.3514 -0.39481,-0.3514 z" />
  </g>
</svg>
