<?xml version="1.0" encoding="UTF-8" standalone="no"?>
<svg
   xmlns:dc="http://purl.org/dc/elements/1.1/"
   xmlns:cc="http://creativecommons.org/ns#"
   xmlns:rdf="http://www.w3.org/1999/02/22-rdf-syntax-ns#"
   xmlns:svg="http://www.w3.org/2000/svg"
   xmlns="http://www.w3.org/2000/svg"
   xmlns:sodipodi="http://sodipodi.sourceforge.net/DTD/sodipodi-0.dtd"
   xmlns:inkscape="http://www.inkscape.org/namespaces/inkscape"
   width="24"
   height="24"
   viewBox="0 0 6.3499999 6.3499999"
   version="1.1"
   id="svg10908"
   inkscape:version="1.0.1 (3bc2e813f5, 2020-09-07)"
   sodipodi:docname="postgresql-roundedsquare-outline.svg">
  <title
     id="title11486">postgresql-roundedsquare-outline</title>
  <defs
     id="defs10902" />
  <sodipodi:namedview
     id="base"
     pagecolor="#ffffff"
     bordercolor="#666666"
     borderopacity="1.0"
     inkscape:pageopacity="0.0"
     inkscape:pageshadow="2"
     inkscape:zoom="22.4"
     inkscape:cx="11.865285"
     inkscape:cy="11.063399"
     inkscape:document-units="mm"
     inkscape:current-layer="layer1"
     inkscape:document-rotation="0"
     showgrid="false"
     units="px"
     inkscape:window-width="1140"
     inkscape:window-height="1368"
     inkscape:window-x="1411"
     inkscape:window-y="0"
     inkscape:window-maximized="0"
     inkscape:snap-center="true"
     inkscape:snap-object-midpoints="true"
     inkscape:snap-page="true"
     inkscape:snap-intersection-paths="true"
     inkscape:snap-smooth-nodes="false"
     showguides="true"
     inkscape:guide-bbox="true"
     inkscape:snap-bbox="true"
     inkscape:bbox-paths="true"
     inkscape:bbox-nodes="true"
     inkscape:snap-bbox-edge-midpoints="true"
     inkscape:snap-bbox-midpoints="true">
    <sodipodi:guide
       position="0,6.3499999"
       orientation="1,0"
       id="guide11518" />
  </sodipodi:namedview>
  <metadata
     id="metadata10905">
    <rdf:RDF>
      <cc:Work
         rdf:about="">
        <dc:format>image/svg+xml</dc:format>
        <dc:type
           rdf:resource="http://purl.org/dc/dcmitype/StillImage" />
        <dc:title>postgresql-roundedsquare-outline</dc:title>
      </cc:Work>
    </rdf:RDF>
  </metadata>
  <g
     inkscape:label="Layer 1"
     inkscape:groupmode="layer"
     id="layer1"
     transform="translate(-109.4619,-112.48571)">
    <path
       id="roundedsquare-outline-2-16-6-9-4"
       style="fill:#000000;fill-opacity:1;fill-rule:evenodd;stroke:none;stroke-width:0.529071;stroke-linejoin:round;stroke-miterlimit:4;stroke-dasharray:none;stroke-opacity:1"
       d="m 110.32851,112.48571 c -0.47997,0 -0.86661,0.38664 -0.86661,0.86661 v 4.61678 c 0,0.47998 0.38664,0.86661 0.86661,0.86661 h 4.61678 c 0.47997,0 0.86661,-0.38663 0.86661,-0.86661 v -4.61678 c 0,-0.47997 -0.38664,-0.86661 -0.86661,-0.86661 z m 0.19172,0.52917 h 4.23334 c 0.29316,0 0.52916,0.236 0.52916,0.52916 v 4.23334 c 0,0.29316 -0.236,0.52916 -0.52916,0.52916 h -4.23334 c -0.29316,0 -0.52916,-0.236 -0.52916,-0.52916 v -4.23334 c 0,-0.29316 0.236,-0.52916 0.52916,-0.52916 z m 2.93419,0.26355 c -0.0145,0 -0.0288,0.007 -0.0434,0.009 -0.0958,0.0106 -0.19072,0.0289 -0.28267,0.0574 -0.0344,0.0106 -0.0655,0.004 -0.0982,5.3e-4 -0.025,-0.002 -0.0499,-0.009 -0.0749,-0.0104 -0.0954,-0.004 -0.1909,-0.0114 -0.28629,-0.0103 -0.0914,7.9e-4 -0.18181,0.0157 -0.27027,0.0408 -0.074,0.021 -0.14655,0.0469 -0.21291,0.0858 -0.0284,0.0166 -0.0507,0.0136 -0.0801,0.005 -0.0987,-0.0285 -0.19838,-0.0556 -0.29869,-0.078 -0.0625,-0.014 -0.12683,-0.0207 -0.19069,-0.0274 -0.0612,-0.006 -0.12297,-0.0101 -0.18449,-0.0114 -0.0601,-0.001 -0.12052,-0.001 -0.18035,0.004 -0.0953,0.008 -0.18866,0.0281 -0.27956,0.0594 -0.10094,0.0347 -0.19356,0.0849 -0.27699,0.1509 -0.0847,0.067 -0.15259,0.14893 -0.20722,0.24236 -0.0576,0.0986 -0.0969,0.20384 -0.12144,0.31471 -0.0133,0.0601 -0.0219,0.12193 -0.031,0.18293 -0.003,0.019 0.0288,0.038 -0.0103,0.0568 v 0.26561 c 0.0391,0.0177 0.008,0.0355 0.0103,0.0532 0.005,0.0426 0.01,0.0854 0.017,0.12764 0.0114,0.0668 0.0251,0.13355 0.0388,0.19999 0.0192,0.0928 0.0393,0.18516 0.0605,0.2775 0.0155,0.0672 0.0332,0.13404 0.0517,0.20051 0.0282,0.10152 0.0559,0.20346 0.0879,0.30385 0.0296,0.0933 0.0636,0.18504 0.0971,0.27699 0.0465,0.12721 0.10216,0.25048 0.16898,0.36845 0.0578,0.10215 0.1238,0.19776 0.21239,0.27647 0.0584,0.0518 0.12331,0.0917 0.19895,0.11162 0.0594,0.0156 0.12002,0.0177 0.18087,0.005 0.0705,-0.0145 0.13309,-0.0449 0.18862,-0.0904 0.006,-0.005 0.0132,-0.009 0.0207,5.3e-4 0.0287,0.0364 0.0673,0.0607 0.10748,0.0816 0.10852,0.0566 0.22662,0.0737 0.34675,0.0806 0.0291,0.001 0.0585,-0.002 0.0878,-0.003 0.0571,-10e-4 0.11283,-0.0126 0.16744,-0.0284 0.0286,-0.008 0.0562,-0.0186 0.0853,-0.0284 0.002,0.031 0.004,0.0605 0.004,0.0904 l 0.004,0.16278 c 8e-4,0.0247 0.002,0.0497 0.004,0.0744 0.006,0.0636 0.0115,0.1273 0.0191,0.19069 0.005,0.0437 0.011,0.0876 0.0212,0.13022 0.0207,0.0861 0.0486,0.16987 0.0842,0.25115 0.035,0.0798 0.0853,0.14704 0.15244,0.20257 0.0868,0.0718 0.18836,0.10234 0.29817,0.10801 0.0454,0.002 0.0922,2.6e-4 0.13695,-0.008 0.0708,-0.0129 0.14135,-0.0293 0.21032,-0.0501 0.14033,-0.0424 0.26181,-0.11537 0.35244,-0.23358 0.0516,-0.0674 0.0937,-0.1402 0.12092,-0.22066 0.0224,-0.0665 0.0437,-0.1335 0.0605,-0.20154 0.0133,-0.0536 0.0198,-0.10906 0.0279,-0.16381 0.005,-0.0362 0.009,-0.073 0.0119,-0.10955 0.005,-0.0592 0.0111,-0.11837 0.015,-0.17777 0.003,-0.0413 0.003,-0.0826 0.004,-0.12403 5.3e-4,-0.0126 0.002,-0.0252 0.004,-0.0377 10e-4,-0.0116 0.007,-0.0158 0.0186,-0.0155 0.0418,5.3e-4 0.0839,10e-4 0.12558,0 0.0468,-0.002 0.094,-0.004 0.14004,-0.0119 0.0655,-0.011 0.13058,-0.025 0.19482,-0.0419 0.0759,-0.0199 0.14589,-0.0556 0.21291,-0.0961 0.0781,-0.0472 0.14894,-0.10235 0.2067,-0.17363 0.0502,-0.0622 0.0741,-0.13392 0.062,-0.21239 -0.0181,-0.11336 -0.11326,-0.18773 -0.22427,-0.19275 -0.0403,-10e-4 -0.0812,0.002 -0.12144,0.007 -0.0486,0.006 -0.0968,0.017 -0.14521,0.0243 -0.0335,0.005 -0.0673,0.007 -0.10077,0.0108 l -5.3e-4,-0.005 c 0.0624,-0.11795 0.12747,-0.23437 0.18655,-0.35398 0.0453,-0.0918 0.084,-0.18682 0.12403,-0.28112 0.0663,-0.15623 0.11894,-0.31742 0.16277,-0.48111 0.042,-0.15675 0.0781,-0.31488 0.0894,-0.47749 0.004,-0.0649 0.008,-0.1303 0.007,-0.19533 -2.7e-4,-0.0518 -0.006,-0.10385 -0.0114,-0.15555 -0.006,-0.0593 -0.0239,-0.11546 -0.0486,-0.1695 -0.0327,-0.0712 -0.0831,-0.1295 -0.13643,-0.185 -0.0427,-0.0444 -0.0894,-0.0851 -0.13591,-0.12558 -0.0663,-0.0578 -0.14109,-0.10378 -0.21859,-0.14469 -0.088,-0.0465 -0.18051,-0.0829 -0.27699,-0.10749 -0.0583,-0.0148 -0.11816,-0.0259 -0.17725,-0.0377 -0.0213,-0.005 -0.0428,-0.0129 -0.0641,-0.0129 z m 0.29249,0.1235 c 0.0862,0.005 0.17135,0.016 0.2558,0.0357 0.10461,0.0244 0.20485,0.0599 0.30024,0.10904 0.0713,0.0367 0.1395,0.079 0.2005,0.13126 0.04,0.0343 0.0807,0.0682 0.11679,0.10645 0.0446,0.0471 0.0899,0.0947 0.11782,0.15503 0.021,0.0455 0.0361,0.0923 0.0403,0.14211 0.005,0.0619 0.0114,0.12449 0.0109,0.18655 -5.3e-4,0.0593 -0.009,0.11857 -0.0145,0.17777 -0.0131,0.13498 -0.0424,0.2671 -0.078,0.39739 -0.0295,0.10762 -0.064,0.21417 -0.10129,0.31936 -0.0344,0.097 -0.0737,0.19199 -0.11369,0.2868 -0.0296,0.0701 -0.0614,0.13946 -0.0961,0.20723 -0.0655,0.12841 -0.13407,0.25525 -0.2129,0.3762 -0.0136,0.0209 -0.0265,0.0427 -0.0398,0.0641 0.0344,0.0232 0.0734,0.0314 0.11265,0.0356 0.0373,0.004 0.0754,0.007 0.11265,0.004 0.0597,-0.005 0.11947,-0.0129 0.1788,-0.0212 0.0588,-0.008 0.1164,-0.0246 0.17674,-0.0202 0.0603,0.004 0.10326,0.05 0.0992,0.10645 -0.002,0.0358 -0.0192,0.0663 -0.0429,0.0925 -0.11212,0.12361 -0.25253,0.19872 -0.41342,0.23564 -0.0611,0.014 -0.12399,0.021 -0.18655,0.0269 -0.0533,0.005 -0.10778,0.006 -0.16123,0.004 -0.0393,-0.002 -0.0781,-0.0102 -0.11834,-0.016 -0.004,0.0368 -0.008,0.075 -0.0124,0.11318 l -0.0186,0.14624 c -0.006,0.0464 -0.0102,0.0926 -0.016,0.13901 -0.006,0.045 -0.0126,0.0899 -0.0186,0.13487 -0.006,0.0419 -0.0101,0.0838 -0.016,0.12558 -0.01,0.0641 -0.019,0.12867 -0.0315,0.19223 -0.015,0.076 -0.0379,0.14953 -0.0755,0.21808 -0.0458,0.0837 -0.11062,0.14762 -0.19327,0.19482 -0.0852,0.0487 -0.17844,0.0739 -0.27285,0.0951 -0.0668,0.015 -0.1354,0.0175 -0.20309,0.0114 -0.11739,-0.0106 -0.2178,-0.0609 -0.29352,-0.15193 -0.0723,-0.0869 -0.12098,-0.1865 -0.1385,-0.29921 -0.008,-0.0536 -0.0148,-0.10773 -0.0196,-0.16174 -0.005,-0.0601 -0.009,-0.12013 -0.0114,-0.18035 -0.004,-0.0765 -0.006,-0.15297 -0.008,-0.22945 -0.002,-0.094 -0.003,-0.18813 -0.004,-0.28215 l -5.3e-4,-0.004 c -0.0478,0.0286 -0.0948,0.0604 -0.14469,0.0863 -0.0584,0.0303 -0.12189,0.0477 -0.18759,0.0527 -0.0515,0.004 -0.10374,0.007 -0.15503,0.003 -0.0841,-0.007 -0.1676,-0.0201 -0.24288,-0.0615 -0.0305,-0.0168 -0.0627,-0.0369 -0.0837,-0.0636 -0.0504,-0.0644 -0.026,-0.14588 0.0501,-0.185 0.0525,-0.0271 0.10944,-0.0386 0.1664,-0.0517 0.0495,-0.0115 0.099,-0.0241 0.14727,-0.0398 0.0478,-0.0156 0.0778,-0.0546 0.10749,-0.0925 l 0.047,-0.0605 c -0.0197,-0.002 -0.0383,-0.005 -0.0568,-0.006 -0.0562,-0.005 -0.10992,-0.0207 -0.16123,-0.0434 -0.0439,-0.0194 -0.0443,-0.0215 -0.0765,0.0134 -0.0538,0.0584 -0.10597,0.11789 -0.15865,0.17725 -0.0388,0.0436 -0.0777,0.088 -0.11627,0.13178 -0.0382,0.0433 -0.0735,0.0888 -0.11472,0.12919 -0.0611,0.0599 -0.13484,0.096 -0.22273,0.092 -0.0564,-0.002 -0.10808,-0.0225 -0.15451,-0.0548 -0.0958,-0.0667 -0.16035,-0.16033 -0.21911,-0.25838 -0.0753,-0.12564 -0.13346,-0.25935 -0.18293,-0.39687 -0.0342,-0.095 -0.0683,-0.1904 -0.0982,-0.28681 -0.0325,-0.10477 -0.0609,-0.21073 -0.0889,-0.31677 -0.0212,-0.08 -0.04,-0.16048 -0.0579,-0.24133 -0.0204,-0.0919 -0.0401,-0.18441 -0.0574,-0.27699 -0.0117,-0.0625 -0.0185,-0.1257 -0.0279,-0.18862 -0.0127,-0.0848 -0.0151,-0.17066 -0.0103,-0.2558 0.004,-0.0767 0.0148,-0.15324 0.0258,-0.22944 0.0152,-0.10543 0.0503,-0.20474 0.10025,-0.29869 0.0306,-0.0576 0.0682,-0.11003 0.11214,-0.15865 0.0721,-0.0798 0.15976,-0.13705 0.25683,-0.18035 0.0678,-0.0302 0.13935,-0.0488 0.21239,-0.063 0.1084,-0.0211 0.21769,-0.0205 0.32711,-0.0181 0.0478,7.9e-4 0.0954,0.0101 0.14315,0.0145 0.1029,0.0102 0.20377,0.0321 0.30334,0.0589 0.0726,0.0194 0.14402,0.0449 0.216,0.0667 0.007,0.002 0.0179,0.002 0.0238,-10e-4 0.0975,-0.0637 0.20392,-0.10566 0.3173,-0.12971 0.043,-0.009 0.0872,-0.0132 0.13125,-0.016 0.0535,-0.004 0.10734,-0.007 0.16072,-0.004 0.0642,0.004 0.12845,0.0129 0.19223,0.0217 0.031,0.005 0.061,0.0151 0.092,0.0181 0.0149,10e-4 0.0308,-0.009 0.0465,-0.0129 0.0801,-0.0185 0.15951,-0.0391 0.24029,-0.0537 0.0601,-0.0109 0.12178,-0.0161 0.18294,-0.0196 0.0682,-0.004 0.13699,-0.007 0.20515,-0.004 z m -0.0827,0.13591 c -0.0608,-0.002 -0.12173,0.005 -0.18242,0.0108 -0.055,0.005 -0.10947,0.014 -0.16485,0.0212 0.0594,0.0335 0.11786,0.0632 0.17312,0.0982 0.11619,0.0736 0.22017,0.16184 0.30954,0.26665 l 5.3e-4,10e-4 c 0.0452,0.053 0.0888,0.10758 0.12919,0.16433 0.0782,0.10976 0.14056,0.22822 0.18655,0.35502 0.0204,0.0559 0.0368,0.11247 0.0295,0.17364 -0.005,0.0428 -0.005,0.0861 -0.008,0.12919 -0.003,0.0358 -0.009,0.0713 -0.0134,0.10697 -0.007,0.0539 -0.0172,0.10765 -0.0202,0.16175 -0.003,0.0515 2.2e-4,0.10344 0.003,0.15502 0.003,0.0524 0.0107,0.10478 0.0155,0.1571 0.005,0.0593 0.0129,0.11834 0.0145,0.17777 0.001,0.0488 -0.003,0.098 -0.007,0.14676 -0.005,0.0587 -0.0202,0.11548 -0.0424,0.17001 -0.0156,0.0384 -0.034,0.0758 -0.0517,0.11421 l 0.007,0.007 0.0108,0.008 0.0109,-0.0196 c 0.0914,-0.14412 0.17297,-0.29373 0.24339,-0.44907 0.0453,-0.10004 0.0874,-0.20134 0.12816,-0.30334 0.0635,-0.15882 0.1136,-0.32234 0.15245,-0.48886 0.0174,-0.0748 0.0311,-0.15044 0.0429,-0.22634 0.009,-0.0593 0.017,-0.11945 0.0186,-0.17932 0.002,-0.0635 -0.002,-0.12733 -0.008,-0.19069 -0.004,-0.0479 -0.0161,-0.096 -0.046,-0.13487 -0.0482,-0.0626 -0.0999,-0.12266 -0.16381,-0.17002 -0.0538,-0.0399 -0.10758,-0.0806 -0.16537,-0.1142 -0.0916,-0.0532 -0.19091,-0.0886 -0.29455,-0.11265 -0.10114,-0.0236 -0.20383,-0.0336 -0.30696,-0.0357 z m -0.91623,0.0532 c -0.0798,-8e-4 -0.15946,0.003 -0.23719,0.0207 -0.11731,0.0272 -0.22445,0.0758 -0.31781,0.154 -0.0521,0.0437 -0.0976,0.0926 -0.13746,0.14727 -0.0467,0.0642 -0.0846,0.1335 -0.11679,0.20619 -0.0442,0.0997 -0.0744,0.20338 -0.0951,0.31006 -0.0104,0.0532 -0.0186,0.10711 -0.0269,0.16072 -0.003,0.0188 -0.003,0.0378 -0.005,0.0594 0.0144,-0.008 0.0251,-0.0134 0.0357,-0.0186 l 0.0346,-0.0155 c 0.11697,-0.0535 0.23821,-0.0881 0.36846,-0.0842 0.0553,10e-4 0.10789,0.013 0.15709,0.0372 0.0944,0.0466 0.14964,0.12567 0.17364,0.22583 0.0166,0.0691 0.0283,0.13949 0.0393,0.20981 0.009,0.0549 0.017,0.11051 0.0181,0.16588 10e-4,0.0809 -0.003,0.16198 -0.007,0.24288 -0.004,0.0689 -0.0183,0.1367 -0.0424,0.20102 -0.0438,0.11697 -0.0924,0.23199 -0.13797,0.3483 -0.0151,0.0384 -0.0266,0.0782 -0.0408,0.1204 0.022,0 0.0396,-2.3e-4 0.0574,0 0.007,2.7e-4 0.0145,5.3e-4 0.0212,0.002 0.0524,0.0124 0.0977,0.0362 0.13487,0.0765 0.0497,0.0536 0.0757,0.1162 0.077,0.18862 7.9e-4,0.0401 -0.004,0.0803 -0.003,0.1204 8e-4,0.18702 0.002,0.37423 0.004,0.56121 2.7e-4,0.0305 0.002,0.0609 0.004,0.0915 0.005,0.0639 0.009,0.12796 0.0155,0.19172 0.004,0.0452 0.0105,0.0905 0.0176,0.13539 0.0101,0.0636 0.039,0.12003 0.0718,0.17415 0.0283,0.0466 0.0653,0.0859 0.11369,0.11317 0.0823,0.0464 0.17056,0.0507 0.25993,0.0336 0.0604,-0.0115 0.11967,-0.0301 0.17829,-0.0491 0.0578,-0.0188 0.11014,-0.0496 0.15399,-0.092 0.0411,-0.0398 0.0702,-0.0886 0.0899,-0.14211 0.0381,-0.10391 0.0498,-0.21338 0.0656,-0.32195 0.006,-0.0406 0.0111,-0.0812 0.0165,-0.12196 0.006,-0.0464 0.0126,-0.0927 0.0186,-0.13901 0.004,-0.0345 0.008,-0.0694 0.0124,-0.10387 0.006,-0.0496 0.0124,-0.0988 0.0181,-0.14831 0.004,-0.0383 0.008,-0.0768 0.0119,-0.11524 0.005,-0.049 0.0107,-0.0981 0.015,-0.14727 0.003,-0.0374 0.002,-0.0755 0.009,-0.11214 0.0122,-0.0671 0.0444,-0.1243 0.10387,-0.16123 0.0249,-0.0154 0.053,-0.0258 0.0806,-0.0388 l -0.006,-0.008 c -0.0256,-0.0331 -0.0515,-0.0657 -0.0765,-0.0992 -0.0393,-0.0525 -0.0678,-0.11107 -0.0961,-0.17002 -0.0269,-0.0559 -0.0596,-0.10858 -0.0878,-0.16381 -0.0494,-0.0963 -0.0997,-0.19222 -0.14522,-0.29042 -0.0573,-0.12336 -0.10258,-0.25144 -0.11678,-0.38809 -0.006,-0.0578 -0.007,-0.1153 0.004,-0.1726 0.0187,-0.0915 0.0664,-0.1633 0.14677,-0.21239 0.0745,-0.0455 0.15729,-0.06 0.24236,-0.0646 0.0528,-0.003 0.10592,-5.3e-4 0.16071,-5.3e-4 l -0.002,-0.009 c -0.0341,-0.0712 -0.0655,-0.14336 -0.10284,-0.21291 -0.0526,-0.0982 -0.12038,-0.18666 -0.19534,-0.26872 -0.0555,-0.0608 -0.11549,-0.11707 -0.18138,-0.16691 -0.0648,-0.049 -0.13283,-0.0928 -0.20567,-0.12868 -0.0869,-0.0428 -0.17742,-0.0761 -0.27234,-0.0971 -0.0912,-0.0203 -0.18292,-0.0325 -0.27647,-0.0336 z m -1.34617,0.009 c -0.0208,-0.001 -0.0421,5.3e-4 -0.063,0.004 -0.0517,0.005 -0.10367,0.007 -0.15451,0.0165 -0.0865,0.0164 -0.16963,0.0443 -0.2465,0.0894 -0.069,0.0404 -0.12716,0.0928 -0.1757,0.15555 -0.0536,0.0692 -0.0899,0.14749 -0.11576,0.23099 -0.0306,0.0985 -0.0452,0.19999 -0.0491,0.30231 -0.003,0.0897 -0.005,0.1799 0.0104,0.26923 0.0115,0.0665 0.0193,0.13374 0.032,0.19999 0.0173,0.0903 0.0359,0.18038 0.0574,0.26975 0.0307,0.12794 0.0613,0.25604 0.0977,0.38241 0.0348,0.12111 0.0742,0.24111 0.11679,0.35967 0.0348,0.0968 0.075,0.19153 0.1173,0.28525 0.0276,0.0611 0.0606,0.12009 0.0956,0.17725 0.0373,0.0607 0.08,0.11822 0.13746,0.16226 0.0725,0.0557 0.12835,0.0644 0.20206,0.003 0.0316,-0.0262 0.0584,-0.0586 0.0858,-0.0894 0.0436,-0.0488 0.0858,-0.0988 0.12919,-0.1478 0.0553,-0.0625 0.11131,-0.12441 0.16692,-0.18655 0.0118,-0.0131 0.0232,-0.0265 0.0346,-0.0398 l -0.0186,-0.0165 c -0.0691,-0.0664 -0.12284,-0.14364 -0.1602,-0.23203 l 5.3e-4,-5.3e-4 c -0.0297,-0.0704 -0.0479,-0.14375 -0.0532,-0.21963 -0.005,-0.0713 0.004,-0.14241 0.0108,-0.21342 0.007,-0.0688 0.0134,-0.13813 0.0155,-0.20722 0.003,-0.11356 -0.004,-0.22654 -0.0103,-0.34003 -0.003,-0.0676 0.005,-0.13589 0.0108,-0.20361 0.005,-0.061 0.0123,-0.12231 0.0238,-0.18242 0.0193,-0.10086 0.0446,-0.20025 0.0811,-0.29662 0.0347,-0.0914 0.0745,-0.18033 0.13074,-0.26045 0.0385,-0.055 0.0826,-0.1065 0.12454,-0.16019 l -0.0124,-0.004 c -0.1367,-0.0434 -0.2757,-0.0771 -0.41858,-0.092 -0.0676,-0.007 -0.13533,-0.0109 -0.20309,-0.015 z m 2.44017,1.04955 c -0.0525,-8e-4 -0.10334,0.007 -0.15193,0.0274 -0.0539,0.0222 -0.0954,0.0575 -0.11214,0.11627 -0.0124,0.0438 -0.0159,0.0876 -0.0114,0.13333 0.007,0.0697 0.0221,0.13723 0.0465,0.20205 0.0326,0.0868 0.0667,0.17365 0.10749,0.25683 0.0552,0.11257 0.11808,0.22141 0.17673,0.33228 0.0157,0.0296 0.0286,0.0606 0.045,0.0951 0.0342,-0.0725 0.0509,-0.14483 0.0527,-0.21963 0.002,-0.0629 -0.004,-0.12618 -0.007,-0.18913 -0.002,-0.0386 -0.008,-0.0768 -0.0119,-0.11524 -0.005,-0.0536 -0.0126,-0.10702 -0.0139,-0.16072 -0.001,-0.0546 0.003,-0.10929 0.007,-0.16381 0.004,-0.0523 0.0129,-0.10454 0.0191,-0.15658 l 5.3e-4,5.3e-4 c 0.005,-0.0439 0.01,-0.0879 0.015,-0.13177 0.002,-0.0177 -0.007,-0.0227 -0.0217,-0.0233 -0.0466,-0.002 -0.0935,-0.003 -0.14004,-0.004 z m -1.61076,0.0212 c -0.0237,-5.3e-4 -0.0473,0.002 -0.0713,0.005 -0.11732,0.0185 -0.22501,0.0618 -0.32505,0.12506 -0.0201,0.0128 -0.0309,0.0228 -0.0274,0.0517 0.007,0.0611 0.009,0.12325 0.009,0.18501 -2.7e-4,0.0874 -0.004,0.17467 -0.007,0.262 -0.001,0.0284 -0.005,0.057 -0.008,0.0853 -0.005,0.0434 -0.0136,0.0869 -0.0134,0.13023 2.4e-4,0.0446 0.005,0.0901 0.016,0.13332 0.0344,0.13706 0.10696,0.24901 0.22634,0.32815 0.0734,0.0487 0.15474,0.0734 0.24391,0.078 0.006,-0.0205 0.0116,-0.0398 0.0176,-0.0589 l -0.001,5.3e-4 c 0.0375,-0.1201 0.0884,-0.23501 0.13798,-0.35037 0.0402,-0.0936 0.0625,-0.1918 0.0698,-0.29301 0.004,-0.0499 0.003,-0.10082 0,-0.15089 -0.003,-0.0556 -0.007,-0.11133 -0.0155,-0.1664 -0.0104,-0.0703 -0.0221,-0.14072 -0.0388,-0.20981 -0.0181,-0.0748 -0.0636,-0.12654 -0.14159,-0.14572 -0.0238,-0.006 -0.0476,-0.009 -0.0713,-0.009 z m 1.57665,0.0326 c 0.0126,0.002 0.0316,0.005 0.0496,0.009 0.0261,0.007 0.0358,0.0271 0.0263,0.0532 -0.0173,0.0478 -0.0543,0.0748 -0.10232,0.0827 -0.0448,0.008 -0.084,-0.009 -0.11317,-0.045 -0.0208,-0.0254 -0.013,-0.0551 0.0181,-0.0724 0.0357,-0.0198 0.0751,-0.025 0.12144,-0.0279 z m -1.56218,0.0367 c 0.0462,5.3e-4 0.0905,0.007 0.12867,0.0357 0.0245,0.0188 0.0313,0.0442 0.0155,0.0698 -0.0225,0.0365 -0.0567,0.0549 -0.0987,0.0584 -0.0663,0.005 -0.11296,-0.0254 -0.14056,-0.0832 v -5.2e-4 c -0.0157,-0.033 -0.007,-0.0602 0.0295,-0.0729 0.009,-0.003 0.0182,-0.007 0.0274,-0.007 0.0127,-0.001 0.0254,-5.3e-4 0.0382,-5.3e-4 z m 1.79059,1.46968 c -0.0123,-0.001 -0.0247,7.9e-4 -0.0388,0.006 -0.0402,0.0135 -0.073,0.0339 -0.0827,0.0775 -0.007,0.0294 -0.009,0.0598 -0.0119,0.0899 -5.3e-4,0.005 0.006,0.0152 0.0114,0.0165 0.031,0.008 0.0618,0.0178 0.0935,0.0207 0.0389,0.004 0.0787,0.002 0.11782,5.3e-4 0.0423,-0.002 0.0849,-0.004 0.12661,-0.0119 0.0983,-0.0165 0.19357,-0.0435 0.27802,-0.0992 0.0304,-0.0201 0.0601,-0.0406 0.0904,-0.061 l -0.002,-0.004 c -0.0323,0.004 -0.0648,0.011 -0.0971,0.0145 l -5.3e-4,-5.3e-4 c -0.066,0.007 -0.1322,0.0143 -0.19844,0.0181 -0.032,10e-4 -0.0643,-0.005 -0.0966,-0.007 -0.0541,-0.004 -0.10667,-0.0166 -0.15244,-0.0455 -0.0133,-0.008 -0.0254,-0.0132 -0.0377,-0.0145 z m -1.57923,0.0119 c -0.0147,-6e-5 -0.0292,0.006 -0.0414,0.017 -0.0302,0.0285 -0.0567,0.0608 -0.0832,0.093 -0.0307,0.0372 -0.0596,0.0761 -0.0992,0.1049 -0.0576,0.0419 -0.12475,0.059 -0.19224,0.0755 -0.0537,0.0131 -0.10741,0.0252 -0.16123,0.0377 l -5.3e-4,0.007 c 0.016,0.007 0.0315,0.0169 0.0481,0.0222 0.0821,0.0259 0.16545,0.0388 0.25218,0.0315 0.0626,-0.005 0.12228,-0.0192 0.1788,-0.046 0.0778,-0.0368 0.13775,-0.0948 0.18862,-0.16278 0.008,-0.0113 0.0118,-0.0282 0.0129,-0.0429 0.003,-0.0516 -0.0226,-0.09 -0.0605,-0.12092 -0.0128,-0.0105 -0.0277,-0.016 -0.0424,-0.016 z" />
  </g>
</svg>
