<?xml version="1.0" encoding="UTF-8" standalone="no"?>
<svg
   xmlns:dc="http://purl.org/dc/elements/1.1/"
   xmlns:cc="http://creativecommons.org/ns#"
   xmlns:rdf="http://www.w3.org/1999/02/22-rdf-syntax-ns#"
   xmlns:svg="http://www.w3.org/2000/svg"
   xmlns="http://www.w3.org/2000/svg"
   xmlns:sodipodi="http://sodipodi.sourceforge.net/DTD/sodipodi-0.dtd"
   xmlns:inkscape="http://www.inkscape.org/namespaces/inkscape"
   width="24"
   height="24"
   viewBox="0 0 6.3499999 6.3499999"
   version="1.1"
   id="svg10908"
   inkscape:version="1.0.1 (3bc2e813f5, 2020-09-07)"
   sodipodi:docname="postgresql-roundedsquare-filled.svg">
  <title
     id="title11486">postgresql-roundedsquare-filled</title>
  <defs
     id="defs10902" />
  <sodipodi:namedview
     id="base"
     pagecolor="#ffffff"
     bordercolor="#666666"
     borderopacity="1.0"
     inkscape:pageopacity="0.0"
     inkscape:pageshadow="2"
     inkscape:zoom="22.4"
     inkscape:cx="11.865285"
     inkscape:cy="11.063399"
     inkscape:document-units="mm"
     inkscape:current-layer="layer1"
     inkscape:document-rotation="0"
     showgrid="false"
     units="px"
     inkscape:window-width="1140"
     inkscape:window-height="1368"
     inkscape:window-x="1411"
     inkscape:window-y="0"
     inkscape:window-maximized="0"
     inkscape:snap-center="true"
     inkscape:snap-object-midpoints="true"
     inkscape:snap-page="true"
     inkscape:snap-intersection-paths="true"
     inkscape:snap-smooth-nodes="false"
     showguides="true"
     inkscape:guide-bbox="true"
     inkscape:snap-bbox="true"
     inkscape:bbox-paths="true"
     inkscape:bbox-nodes="true"
     inkscape:snap-bbox-edge-midpoints="true"
     inkscape:snap-bbox-midpoints="true">
    <sodipodi:guide
       position="0,6.3499999"
       orientation="1,0"
       id="guide11518" />
  </sodipodi:namedview>
  <metadata
     id="metadata10905">
    <rdf:RDF>
      <cc:Work
         rdf:about="">
        <dc:format>image/svg+xml</dc:format>
        <dc:type
           rdf:resource="http://purl.org/dc/dcmitype/StillImage" />
        <dc:title>postgresql-roundedsquare-filled</dc:title>
      </cc:Work>
    </rdf:RDF>
  </metadata>
  <g
     inkscape:label="Layer 1"
     inkscape:groupmode="layer"
     id="layer1"
     transform="translate(-109.4619,-112.48571)">
    <path
       id="roundedsquare-7-9"
       style="fill:#000000;fill-opacity:1;fill-rule:evenodd;stroke:none;stroke-width:0.0694534"
       d="m 109.99107,112.48571 c -0.29316,0 -0.52917,0.23601 -0.52917,0.52917 v 5.29166 c 0,0.29316 0.23601,0.52917 0.52917,0.52917 h 5.29166 c 0.29316,0 0.52917,-0.23601 0.52917,-0.52917 v -5.29166 c 0,-0.29316 -0.23601,-0.52917 -0.52917,-0.52917 z m 3.46335,0.79272 h 0.39998 c 0.0213,0 0.0428,0.008 0.0641,0.0129 0.0591,0.0118 0.11843,0.0229 0.17673,0.0377 0.0965,0.0246 0.1895,0.061 0.2775,0.10749 0.0775,0.0409 0.15178,0.0869 0.21808,0.14469 0.0465,0.0405 0.0937,0.0812 0.13642,0.12557 0.0533,0.0555 0.10373,0.11381 0.13643,0.18501 0.0247,0.0541 0.0426,0.1102 0.0486,0.1695 0.005,0.0517 0.0106,0.10374 0.0109,0.15554 0.001,0.065 -0.003,0.13044 -0.007,0.19534 -0.0113,0.16261 -0.0474,0.32074 -0.0894,0.47749 -0.0438,0.16369 -0.097,0.32489 -0.16329,0.48111 -0.04,0.0943 -0.0787,0.18932 -0.12403,0.28112 -0.0591,0.11961 -0.12415,0.23603 -0.18655,0.35398 l 0.001,0.005 c 0.0335,-0.004 0.0673,-0.006 0.10077,-0.0109 0.0484,-0.007 0.0966,-0.0183 0.14521,-0.0243 0.0402,-0.005 0.0811,-0.008 0.12144,-0.007 0.11103,0.005 0.20619,0.0794 0.22427,0.19276 0.0121,0.0785 -0.0118,0.15019 -0.062,0.21239 -0.0578,0.0713 -0.12912,0.12643 -0.20722,0.17363 -0.067,0.0405 -0.13649,0.0762 -0.21239,0.0961 -0.0642,0.0169 -0.12932,0.0309 -0.19482,0.0419 -0.046,0.008 -0.0932,0.01 -0.14004,0.0119 -0.0417,0.001 -0.0838,5.3e-4 -0.12558,0 -0.0118,-2.6e-4 -0.0181,0.004 -0.0191,0.0155 -0.002,0.0125 -0.003,0.0251 -0.004,0.0377 -0.001,0.0414 -0.001,0.0827 -0.004,0.12402 -0.004,0.0594 -0.01,0.11857 -0.015,0.17777 -0.003,0.0365 -0.007,0.0734 -0.0119,0.10956 -0.008,0.0548 -0.0146,0.11021 -0.0279,0.16381 -0.0168,0.068 -0.0381,0.13504 -0.0605,0.20154 -0.0272,0.0805 -0.0698,0.15326 -0.12144,0.22066 -0.0906,0.11821 -0.21159,0.19118 -0.35192,0.23357 -0.069,0.0208 -0.14004,0.0372 -0.21084,0.0501 -0.0447,0.008 -0.091,0.01 -0.13642,0.008 -0.10981,-0.006 -0.21189,-0.0362 -0.29869,-0.108 -0.0671,-0.0555 -0.11745,-0.12277 -0.15245,-0.20257 -0.0356,-0.0813 -0.0635,-0.16505 -0.0842,-0.25115 -0.0102,-0.0427 -0.0157,-0.0865 -0.0207,-0.13023 -0.008,-0.0634 -0.0136,-0.12708 -0.0196,-0.19068 -0.002,-0.0247 -0.003,-0.0497 -0.004,-0.0744 l -0.004,-0.16278 c 0,-0.0299 -0.002,-0.06 -0.004,-0.091 -0.0291,0.01 -0.0572,0.0209 -0.0858,0.0289 -0.0546,0.0158 -0.10981,0.0274 -0.16691,0.0284 -0.0293,10e-4 -0.0588,0.004 -0.0879,0.003 -0.12013,-0.007 -0.23823,-0.024 -0.34675,-0.0806 -0.0402,-0.0209 -0.0788,-0.0453 -0.10749,-0.0816 -0.007,-0.01 -0.0152,-0.006 -0.0212,-5.3e-4 -0.0555,0.0455 -0.1176,0.0759 -0.1881,0.0904 -0.0609,0.0125 -0.12147,0.0104 -0.18087,-0.005 -0.0757,-0.0199 -0.14056,-0.0598 -0.19896,-0.11162 -0.0886,-0.0787 -0.15459,-0.17432 -0.21239,-0.27647 -0.0668,-0.11797 -0.123,-0.24124 -0.1695,-0.36845 -0.0336,-0.092 -0.067,-0.18369 -0.0966,-0.27699 -0.0319,-0.10039 -0.0597,-0.20233 -0.0879,-0.30386 -0.0185,-0.0665 -0.0362,-0.1333 -0.0517,-0.2005 -0.0212,-0.0923 -0.0413,-0.18471 -0.0605,-0.27751 -0.0137,-0.0664 -0.0274,-0.13318 -0.0388,-0.19998 -0.007,-0.0422 -0.0121,-0.085 -0.017,-0.12764 -0.002,-0.0177 0.0282,-0.0355 -0.0108,-0.0532 v -0.26561 c 0.0391,-0.0189 0.008,-0.0379 0.0108,-0.0569 0.009,-0.061 0.0172,-0.12284 0.0305,-0.18294 0.0246,-0.11086 0.0644,-0.21611 0.12196,-0.3147 0.0546,-0.0934 0.12252,-0.17537 0.20722,-0.24237 0.0834,-0.066 0.17553,-0.11619 0.27647,-0.15089 0.0909,-0.0313 0.18479,-0.0514 0.28009,-0.0594 0.0598,-0.005 0.12025,-0.005 0.18035,-0.004 0.0615,10e-4 0.12328,0.006 0.18448,0.0119 0.0639,0.007 0.12819,0.0134 0.19069,0.0274 0.10031,0.0224 0.19947,0.0495 0.29817,0.078 0.0294,0.008 0.0522,0.0114 0.0806,-0.005 0.0664,-0.0389 0.1389,-0.0648 0.2129,-0.0858 0.0885,-0.0251 0.17887,-0.04 0.27027,-0.0408 0.0954,-0.001 0.19089,0.006 0.28629,0.0104 0.025,10e-4 0.0499,0.008 0.0749,0.0103 0.0327,0.003 0.0638,0.0101 0.0982,-5.2e-4 0.0919,-0.0285 0.18687,-0.0468 0.28267,-0.0574 0.0146,-0.002 0.0289,-0.009 0.0434,-0.009 z m 0.29197,0.1235 c -0.0682,-0.003 -0.13695,-2.6e-4 -0.20515,0.004 -0.0612,0.003 -0.12232,0.009 -0.18242,0.0196 -0.0808,0.0146 -0.16071,0.0352 -0.24081,0.0537 -0.0157,0.004 -0.0311,0.0139 -0.046,0.0129 -0.031,-0.003 -0.0615,-0.0131 -0.0925,-0.0181 -0.0638,-0.009 -0.12751,-0.0177 -0.19172,-0.0217 -0.0534,-0.003 -0.10721,1.4e-4 -0.16071,0.004 -0.044,0.003 -0.0883,0.007 -0.13126,0.016 -0.11337,0.0241 -0.22031,0.066 -0.31781,0.12971 -0.006,0.003 -0.0168,0.003 -0.0238,10e-4 -0.072,-0.0218 -0.14289,-0.0473 -0.21549,-0.0667 -0.0996,-0.0268 -0.20044,-0.0487 -0.30334,-0.0589 -0.0478,-0.004 -0.0953,-0.0137 -0.14314,-0.0145 -0.10942,-0.002 -0.21871,-0.003 -0.32711,0.0181 -0.0731,0.0142 -0.14511,0.0328 -0.21291,0.063 -0.0971,0.0433 -0.18422,0.10054 -0.25632,0.18035 -0.0439,0.0486 -0.082,0.10104 -0.11265,0.15864 -0.05,0.0939 -0.0845,0.19326 -0.0997,0.29869 -0.011,0.0762 -0.0218,0.15274 -0.0258,0.22944 -0.005,0.0851 -0.002,0.171 0.0104,0.2558 0.009,0.0629 0.0162,0.12612 0.0279,0.18862 0.0173,0.0926 0.0364,0.18509 0.0568,0.27699 0.0179,0.0808 0.0367,0.16133 0.0579,0.24133 0.028,0.10605 0.0569,0.212 0.0894,0.31677 0.0299,0.0964 0.064,0.19181 0.0982,0.28681 0.0495,0.13752 0.10712,0.27123 0.18242,0.39687 0.0588,0.0981 0.12331,0.19168 0.21911,0.25839 0.0464,0.0323 0.0981,0.0528 0.15451,0.0548 0.0879,0.004 0.16163,-0.0321 0.22273,-0.092 0.0412,-0.0403 0.077,-0.0859 0.11524,-0.12919 0.0386,-0.0438 0.077,-0.0882 0.11575,-0.13178 0.0527,-0.0594 0.10536,-0.11885 0.15916,-0.17725 0.0322,-0.0349 0.0326,-0.0328 0.0765,-0.0134 0.0513,0.0227 0.10504,0.0384 0.16124,0.0434 0.0185,0.001 0.0371,0.004 0.0568,0.006 l -0.047,0.0605 c -0.0297,0.0379 -0.0602,0.0769 -0.108,0.0925 -0.0483,0.0157 -0.0973,0.0283 -0.14676,0.0398 -0.0569,0.0131 -0.11442,0.0246 -0.16691,0.0517 -0.0761,0.0391 -0.10001,0.1206 -0.0496,0.185 0.021,0.0267 0.0527,0.0468 0.0832,0.0636 0.0753,0.0414 0.1593,0.0545 0.2434,0.0615 0.0513,0.004 0.10353,7.9e-4 0.15503,-0.003 0.0657,-0.005 0.12919,-0.0224 0.18758,-0.0527 0.0499,-0.0259 0.0969,-0.0577 0.1447,-0.0863 v 0.004 c 10e-4,0.094 0.002,0.18815 0.004,0.28216 0.002,0.0765 0.004,0.15294 0.008,0.22944 0.003,0.0602 0.007,0.12025 0.0119,0.18035 0.005,0.054 0.0111,0.10815 0.0191,0.16175 0.0175,0.11271 0.0667,0.2123 0.13901,0.2992 0.0757,0.0911 0.17561,0.14133 0.293,0.15193 0.0677,0.006 0.13681,0.004 0.20361,-0.0114 0.0944,-0.0212 0.18765,-0.0464 0.27285,-0.0951 0.0827,-0.0472 0.14747,-0.11112 0.19327,-0.19482 0.0376,-0.0686 0.0605,-0.14208 0.0755,-0.21807 0.0125,-0.0636 0.0215,-0.12814 0.0315,-0.19224 0.006,-0.0418 0.01,-0.0837 0.0155,-0.12557 0.006,-0.045 0.0131,-0.0899 0.0191,-0.13488 0.006,-0.0464 0.01,-0.0926 0.0155,-0.13901 l 0.0191,-0.14624 c 0.004,-0.0382 0.008,-0.0764 0.0124,-0.11318 0.0402,0.006 0.079,0.014 0.11834,0.016 0.0535,0.002 0.10741,7.9e-4 0.16071,-0.004 0.0626,-0.006 0.12597,-0.0129 0.18707,-0.0269 0.1609,-0.0369 0.30129,-0.11204 0.41341,-0.23565 0.0237,-0.0262 0.0409,-0.0567 0.0429,-0.0925 0.004,-0.0564 -0.0394,-0.10245 -0.0997,-0.10645 -0.0603,-0.004 -0.11794,0.0121 -0.17674,0.0202 -0.0593,0.008 -0.11858,0.0162 -0.17828,0.0212 -0.0373,0.003 -0.0754,2.7e-4 -0.11266,-0.004 -0.0392,-0.004 -0.0782,-0.0125 -0.11265,-0.0357 0.0133,-0.0214 0.0262,-0.0432 0.0398,-0.0641 0.0788,-0.12095 0.14689,-0.24778 0.21239,-0.3762 0.0347,-0.0678 0.0665,-0.13712 0.0961,-0.20723 0.04,-0.0948 0.0798,-0.1898 0.1142,-0.2868 0.0373,-0.10519 0.0718,-0.21174 0.10129,-0.31936 0.0356,-0.13029 0.0649,-0.26241 0.078,-0.39739 0.005,-0.0592 0.014,-0.11847 0.0145,-0.17777 5.3e-4,-0.0621 -0.006,-0.12465 -0.0108,-0.18655 -0.004,-0.0498 -0.0193,-0.0966 -0.0403,-0.14211 -0.0279,-0.0604 -0.0732,-0.10793 -0.11782,-0.15503 -0.0361,-0.0382 -0.0773,-0.0721 -0.11731,-0.10645 -0.061,-0.0523 -0.12869,-0.0946 -0.19999,-0.13126 -0.0954,-0.0491 -0.19563,-0.0846 -0.30024,-0.10904 -0.0845,-0.0197 -0.17011,-0.0306 -0.25631,-0.0357 z m -0.0822,0.13591 c 0.10313,0.002 0.20582,0.0121 0.30696,0.0357 0.10364,0.0241 0.20243,0.0594 0.29404,0.11265 0.0578,0.0336 0.11156,0.0743 0.16536,0.11421 0.064,0.0474 0.11613,0.10741 0.16433,0.17001 0.0299,0.0388 0.042,0.087 0.046,0.13488 0.006,0.0634 0.0103,0.12719 0.008,0.19069 -0.002,0.0599 -0.01,0.12001 -0.0186,0.17931 -0.0118,0.0759 -0.0255,0.15155 -0.0429,0.22635 -0.0389,0.16652 -0.089,0.33003 -0.15245,0.48886 -0.0408,0.10199 -0.0834,0.2033 -0.12867,0.30333 -0.0704,0.15534 -0.15148,0.30495 -0.24288,0.44907 l -0.0109,0.0196 -0.0109,-0.008 -0.007,-0.007 c 0.0177,-0.0384 0.0361,-0.0758 0.0517,-0.1142 0.0222,-0.0545 0.0374,-0.11132 0.0424,-0.17002 0.004,-0.0488 0.008,-0.098 0.007,-0.14676 -0.002,-0.0594 -0.009,-0.11847 -0.0145,-0.17777 -0.005,-0.0523 -0.012,-0.10469 -0.015,-0.15709 -0.003,-0.0516 -0.006,-0.10353 -0.003,-0.15503 0.003,-0.0541 0.0132,-0.10785 0.0202,-0.16175 0.004,-0.0357 0.0104,-0.0712 0.0134,-0.10697 0.003,-0.0431 0.003,-0.0864 0.008,-0.12919 0.007,-0.0612 -0.009,-0.11773 -0.0289,-0.17363 -0.046,-0.1268 -0.10835,-0.24526 -0.18655,-0.35502 -0.0404,-0.0567 -0.0845,-0.11133 -0.12971,-0.16433 v -10e-4 c -0.0894,-0.10481 -0.19336,-0.19305 -0.30954,-0.26665 -0.0553,-0.035 -0.11423,-0.0647 -0.17363,-0.0982 0.0554,-0.007 0.11036,-0.0162 0.16536,-0.0212 0.0607,-0.006 0.12162,-0.0129 0.18242,-0.0108 z m -0.91674,0.0532 c 0.0936,10e-4 0.18578,0.0133 0.27698,0.0336 0.0949,0.0211 0.18492,0.0543 0.27182,0.0971 0.0728,0.0359 0.14139,0.0797 0.20619,0.12867 0.0659,0.0498 0.12589,0.10612 0.18138,0.16692 0.075,0.0821 0.14223,0.17052 0.19482,0.26872 0.0373,0.0696 0.0693,0.1417 0.10336,0.21291 l 0.002,0.009 c -0.0548,0 -0.10791,-0.002 -0.16071,5.3e-4 -0.0851,0.005 -0.16838,0.0191 -0.24288,0.0646 -0.0804,0.0491 -0.12806,0.12089 -0.14676,0.21239 -0.011,0.0573 -0.01,0.1148 -0.004,0.1726 0.0142,0.13665 0.059,0.26473 0.11627,0.38809 0.0455,0.0982 0.0958,0.19413 0.14522,0.29043 0.0283,0.0552 0.0615,0.10791 0.0884,0.16381 0.0283,0.0589 0.0568,0.11752 0.0961,0.17002 0.025,0.0335 0.0509,0.0661 0.0765,0.0992 l 0.005,0.008 c -0.0276,0.013 -0.0557,0.0234 -0.0806,0.0388 -0.0595,0.0369 -0.0912,0.0941 -0.10336,0.16123 -0.007,0.0366 -0.006,0.0747 -0.009,0.11213 -0.004,0.0491 -0.01,0.0983 -0.015,0.14728 -0.004,0.0384 -0.008,0.0769 -0.0119,0.11524 -0.006,0.0496 -0.0121,0.0987 -0.0181,0.14831 -0.005,0.0345 -0.009,0.0694 -0.0129,0.10387 -0.006,0.0463 -0.0121,0.0926 -0.0181,0.13901 -0.005,0.0407 -0.0105,0.0814 -0.0165,0.12196 -0.0158,0.10857 -0.0275,0.21803 -0.0656,0.32194 -0.0197,0.0535 -0.0488,0.10231 -0.0899,0.14211 -0.0439,0.0424 -0.0962,0.0732 -0.154,0.092 -0.0586,0.019 -0.11788,0.0376 -0.17828,0.0491 -0.0894,0.0171 -0.17815,0.0128 -0.26045,-0.0336 -0.0484,-0.0273 -0.0849,-0.0666 -0.11317,-0.11317 -0.0328,-0.0541 -0.0622,-0.11055 -0.0723,-0.17415 -0.007,-0.0449 -0.0136,-0.0902 -0.0176,-0.1354 -0.006,-0.0637 -0.01,-0.12782 -0.015,-0.19171 -0.002,-0.0306 -0.004,-0.061 -0.004,-0.0915 -0.002,-0.18699 -0.003,-0.37417 -0.004,-0.56121 -10e-4,-0.0401 0.004,-0.0803 0.003,-0.1204 -10e-4,-0.0724 -0.0273,-0.13502 -0.077,-0.18862 -0.0372,-0.0403 -0.083,-0.0641 -0.13539,-0.0765 -0.007,-0.002 -0.0137,-0.002 -0.0207,-0.002 -0.0178,-2.3e-4 -0.0354,0 -0.0574,0 0.0142,-0.0422 0.0257,-0.082 0.0408,-0.12041 0.0456,-0.1163 0.0942,-0.23133 0.13797,-0.3483 0.0241,-0.0643 0.0384,-0.13212 0.0424,-0.20102 0.004,-0.0809 0.008,-0.16198 0.007,-0.24288 -10e-4,-0.0554 -0.01,-0.11098 -0.0186,-0.16588 -0.011,-0.0703 -0.0222,-0.14071 -0.0388,-0.2098 -0.024,-0.10017 -0.0792,-0.17923 -0.17364,-0.22583 -0.0492,-0.0242 -0.10231,-0.0362 -0.15761,-0.0372 -0.13025,-0.004 -0.25149,0.0307 -0.36845,0.0842 l -0.0341,0.0155 c -0.0106,0.005 -0.0212,0.0106 -0.0357,0.0186 0.002,-0.0216 0.002,-0.0406 0.005,-0.0594 0.008,-0.0536 0.0165,-0.10751 0.0269,-0.16071 0.0207,-0.10668 0.0509,-0.21036 0.0951,-0.31006 0.0322,-0.0727 0.0701,-0.14199 0.11679,-0.20619 0.0398,-0.0546 0.0854,-0.10357 0.13746,-0.14728 0.0934,-0.0782 0.2005,-0.12679 0.31781,-0.15399 0.0777,-0.0178 0.15688,-0.0215 0.23668,-0.0207 z m -1.34617,0.009 c 0.0678,0.004 0.13548,0.008 0.20309,0.015 0.14288,0.0149 0.28188,0.0486 0.41857,0.092 l 0.0124,0.004 c -0.042,0.0537 -0.0855,0.10519 -0.12402,0.16019 -0.0562,0.0801 -0.096,0.16905 -0.13074,0.26045 -0.0365,0.0964 -0.0624,0.19576 -0.0816,0.29663 -0.0115,0.0601 -0.0188,0.12141 -0.0238,0.18241 -0.006,0.0677 -0.0133,0.13601 -0.0103,0.20361 0.006,0.11349 0.0128,0.22647 0.01,0.34003 -0.002,0.0691 -0.008,0.13842 -0.015,0.20722 -0.007,0.071 -0.0158,0.14213 -0.0108,0.21343 0.005,0.0759 0.023,0.14922 0.0527,0.21962 v 5.3e-4 c 0.0373,0.0884 0.0906,0.16563 0.15968,0.23203 l 0.0191,0.0165 c -0.0114,0.0133 -0.0228,0.0267 -0.0346,0.0398 -0.0556,0.0621 -0.11162,0.12405 -0.16692,0.18655 -0.0434,0.049 -0.0856,0.099 -0.12919,0.14779 -0.0274,0.0308 -0.0542,0.0632 -0.0858,0.0894 -0.0737,0.0613 -0.13007,0.0526 -0.20257,-0.003 -0.0575,-0.044 -0.0996,-0.10157 -0.13695,-0.16227 -0.035,-0.0572 -0.0685,-0.11615 -0.0961,-0.17725 -0.0423,-0.0937 -0.0825,-0.18845 -0.11731,-0.28525 -0.0425,-0.11856 -0.0815,-0.23856 -0.11627,-0.35967 -0.0364,-0.12637 -0.067,-0.25446 -0.0977,-0.38241 -0.0214,-0.0894 -0.0401,-0.17945 -0.0574,-0.26975 -0.0127,-0.0662 -0.0205,-0.13348 -0.032,-0.19998 -0.0153,-0.0893 -0.0133,-0.17954 -0.0103,-0.26924 0.004,-0.10232 0.0185,-0.20381 0.0491,-0.3023 0.0259,-0.0835 0.0622,-0.1618 0.11575,-0.231 0.0485,-0.0627 0.10618,-0.11515 0.17519,-0.15554 0.0769,-0.0451 0.15999,-0.073 0.24649,-0.0894 0.0508,-0.01 0.10333,-0.0115 0.15503,-0.0165 0.0209,-0.003 0.0417,-0.005 0.0625,-0.004 z m 2.44068,1.04955 c 0.0465,10e-4 0.0929,0.002 0.13952,0.004 0.0149,5.3e-4 0.0242,0.006 0.0222,0.0233 -0.005,0.0439 -0.01,0.0879 -0.015,0.13177 l -5.3e-4,-5.3e-4 c -0.006,0.052 -0.0151,0.10428 -0.0191,0.15658 -0.004,0.0545 -0.008,0.10922 -0.007,0.16382 10e-4,0.0537 0.009,0.10711 0.0145,0.16071 0.004,0.0385 0.009,0.0766 0.0114,0.11524 0.003,0.063 0.009,0.12624 0.007,0.18914 -0.002,0.0748 -0.0185,0.14712 -0.0527,0.21962 -0.0164,-0.0345 -0.0298,-0.0655 -0.0455,-0.0951 -0.0587,-0.11087 -0.12102,-0.21971 -0.17622,-0.33228 -0.0408,-0.0832 -0.0749,-0.17004 -0.10748,-0.25684 -0.0244,-0.0648 -0.0395,-0.13235 -0.0465,-0.20205 -0.005,-0.0458 -0.001,-0.0895 0.0114,-0.13333 0.0168,-0.0587 0.0577,-0.0941 0.11163,-0.11627 0.0486,-0.0204 0.0999,-0.0282 0.15244,-0.0274 z m -1.61076,0.0212 c 0.0237,5.3e-4 0.0476,0.003 0.0713,0.009 0.078,0.0192 0.1235,0.0709 0.1416,0.14573 0.0167,0.0691 0.0284,0.13951 0.0388,0.20981 0.008,0.0551 0.0125,0.1108 0.0155,0.1664 0.003,0.0501 0.003,0.10099 -5.3e-4,0.15089 -0.007,0.10121 -0.029,0.19941 -0.0692,0.29301 -0.0495,0.11515 -0.1,0.22998 -0.13746,0.34985 -0.006,0.0191 -0.0111,0.0384 -0.017,0.0589 -0.0892,-0.005 -0.17052,-0.0293 -0.24392,-0.078 -0.11938,-0.0791 -0.19246,-0.19109 -0.22686,-0.32815 -0.0107,-0.0432 -0.0152,-0.0887 -0.0155,-0.13332 -2e-4,-0.0433 0.008,-0.0868 0.0134,-0.13023 0.003,-0.0283 0.007,-0.0569 0.008,-0.0853 0.003,-0.0873 0.007,-0.17461 0.007,-0.262 0,-0.0618 -0.002,-0.12391 -0.009,-0.18501 -0.004,-0.0289 0.007,-0.0389 0.0274,-0.0517 0.10003,-0.0633 0.20773,-0.10656 0.32504,-0.12506 0.024,-0.004 0.0476,-0.006 0.0713,-0.005 z m 1.57665,0.0326 c -0.0463,0.003 -0.0857,0.008 -0.12144,0.0279 -0.0311,0.0172 -0.0394,0.047 -0.0186,0.0724 0.0292,0.0358 0.0684,0.053 0.11317,0.045 0.048,-0.008 0.085,-0.0349 0.10232,-0.0827 0.01,-0.0261 -2.6e-4,-0.0462 -0.0264,-0.0532 -0.018,-0.004 -0.0365,-0.007 -0.0491,-0.009 z m -1.56218,0.0367 c -0.0128,0 -0.0261,-5.3e-4 -0.0388,5.3e-4 -0.009,0 -0.0179,0.004 -0.0269,0.007 -0.0367,0.0127 -0.0457,0.0399 -0.03,0.0729 v 5.3e-4 c 0.0276,0.0578 0.0743,0.0882 0.14056,0.0832 0.042,-0.003 0.0762,-0.0219 0.0987,-0.0584 0.0158,-0.0256 0.01,-0.051 -0.015,-0.0698 -0.0382,-0.0291 -0.0825,-0.0351 -0.12867,-0.0357 z m 1.79059,1.46968 c 0.0123,10e-4 0.0245,0.006 0.0377,0.0145 0.0458,0.0289 0.0983,0.0415 0.15245,0.0455 0.0323,0.002 0.0646,0.008 0.0966,0.007 0.0662,-0.004 0.13244,-0.0111 0.19844,-0.0181 l 5.3e-4,5.3e-4 c 0.0324,-0.003 0.0643,-0.0105 0.0966,-0.0145 l 0.002,0.004 c -0.0303,0.0204 -0.0605,0.0409 -0.0909,0.061 -0.0845,0.0557 -0.1792,0.0827 -0.2775,0.0992 -0.0417,0.008 -0.0843,0.01 -0.12661,0.0119 -0.0392,0.002 -0.0789,0.003 -0.11782,-5.3e-4 -0.0317,-0.003 -0.0631,-0.0127 -0.0941,-0.0207 -0.005,-10e-4 -0.0114,-0.0115 -0.0108,-0.0165 0.003,-0.0301 0.004,-0.0605 0.0114,-0.0899 0.01,-0.0436 0.0425,-0.064 0.0827,-0.0775 0.014,-0.005 0.0269,-0.007 0.0393,-0.006 z m -1.57923,0.0119 c 0.0147,5e-5 0.0296,0.006 0.0424,0.016 0.0379,0.0309 0.0635,0.0693 0.0605,0.12092 -10e-4,0.0147 -0.005,0.0316 -0.0134,0.0429 -0.0509,0.068 -0.1103,0.12599 -0.1881,0.16278 -0.0565,0.0268 -0.1162,0.041 -0.1788,0.046 -0.0867,0.007 -0.1706,-0.006 -0.2527,-0.0315 -0.0166,-0.005 -0.0321,-0.0152 -0.0481,-0.0222 l 5.3e-4,-0.007 c 0.0538,-0.0125 0.10805,-0.0246 0.16175,-0.0377 0.0675,-0.0164 0.13464,-0.0335 0.19224,-0.0754 0.0396,-0.0288 0.068,-0.0677 0.0987,-0.10491 0.0265,-0.0322 0.053,-0.0645 0.0832,-0.093 0.0122,-0.0114 0.0271,-0.0171 0.0418,-0.017 z" />
  </g>
</svg>
