<?xml version="1.0" encoding="UTF-8" standalone="no"?>
<svg
   xmlns:dc="http://purl.org/dc/elements/1.1/"
   xmlns:cc="http://creativecommons.org/ns#"
   xmlns:rdf="http://www.w3.org/1999/02/22-rdf-syntax-ns#"
   xmlns:svg="http://www.w3.org/2000/svg"
   xmlns="http://www.w3.org/2000/svg"
   xmlns:sodipodi="http://sodipodi.sourceforge.net/DTD/sodipodi-0.dtd"
   xmlns:inkscape="http://www.inkscape.org/namespaces/inkscape"
   width="24"
   height="24"
   viewBox="0 0 6.3499999 6.3499999"
   version="1.1"
   id="svg10908"
   inkscape:version="1.0.1 (3bc2e813f5, 2020-09-07)"
   sodipodi:docname="postgresql-square-outline.svg">
  <title
     id="title11486">postgresql-square-outline</title>
  <defs
     id="defs10902" />
  <sodipodi:namedview
     id="base"
     pagecolor="#ffffff"
     bordercolor="#666666"
     borderopacity="1.0"
     inkscape:pageopacity="0.0"
     inkscape:pageshadow="2"
     inkscape:zoom="22.4"
     inkscape:cx="11.865285"
     inkscape:cy="11.063399"
     inkscape:document-units="mm"
     inkscape:current-layer="layer1"
     inkscape:document-rotation="0"
     showgrid="false"
     units="px"
     inkscape:window-width="1140"
     inkscape:window-height="1368"
     inkscape:window-x="1411"
     inkscape:window-y="0"
     inkscape:window-maximized="0"
     inkscape:snap-center="true"
     inkscape:snap-object-midpoints="true"
     inkscape:snap-page="true"
     inkscape:snap-intersection-paths="true"
     inkscape:snap-smooth-nodes="false"
     showguides="true"
     inkscape:guide-bbox="true"
     inkscape:snap-bbox="true"
     inkscape:bbox-paths="true"
     inkscape:bbox-nodes="true"
     inkscape:snap-bbox-edge-midpoints="true"
     inkscape:snap-bbox-midpoints="true">
    <sodipodi:guide
       position="0,6.3499999"
       orientation="1,0"
       id="guide11518" />
  </sodipodi:namedview>
  <metadata
     id="metadata10905">
    <rdf:RDF>
      <cc:Work
         rdf:about="">
        <dc:format>image/svg+xml</dc:format>
        <dc:type
           rdf:resource="http://purl.org/dc/dcmitype/StillImage" />
        <dc:title>postgresql-square-outline</dc:title>
      </cc:Work>
    </rdf:RDF>
  </metadata>
  <g
     inkscape:label="Layer 1"
     inkscape:groupmode="layer"
     id="layer1"
     transform="translate(-109.4619,-112.48571)">
    <path
       id="path1441-5-4-20-0-2-1-5-3"
       style="fill:#000000;fill-opacity:1;stroke-width:0.264583"
       d="m 109.4619,112.48571 v 6.35 h 6.35 v -6.35 z m 0.52917,0.52916 h 5.29166 v 5.29167 h -5.29166 z m 3.46335,0.26355 c -0.0145,0 -0.0288,0.007 -0.0434,0.009 -0.0958,0.0106 -0.19072,0.0289 -0.28267,0.0573 -0.0344,0.0106 -0.0655,0.004 -0.0982,5.3e-4 -0.025,-0.002 -0.0499,-0.009 -0.0749,-0.0103 -0.0954,-0.004 -0.19089,-0.0114 -0.28628,-0.0103 -0.0914,8e-4 -0.1818,0.0157 -0.27027,0.0408 -0.074,0.021 -0.14655,0.0469 -0.21291,0.0858 -0.0284,0.0166 -0.0512,0.0136 -0.0806,0.005 -0.0987,-0.0285 -0.19786,-0.0556 -0.29818,-0.078 -0.0625,-0.014 -0.12682,-0.0207 -0.19068,-0.0274 -0.0612,-0.006 -0.12298,-0.0106 -0.18449,-0.0119 -0.0601,-10e-4 -0.12052,-7.9e-4 -0.18035,0.004 -0.0953,0.008 -0.18918,0.0281 -0.28008,0.0594 -0.10094,0.0347 -0.19304,0.0849 -0.27647,0.15089 -0.0847,0.067 -0.15259,0.14893 -0.20722,0.24236 -0.0576,0.0986 -0.0974,0.20385 -0.12196,0.31471 -0.0133,0.0601 -0.0214,0.12194 -0.0305,0.18294 -0.003,0.019 0.0283,0.0379 -0.0109,0.0568 v 0.26562 c 0.0391,0.0177 0.008,0.0355 0.0104,0.0532 0.005,0.0426 0.0104,0.0854 0.0176,0.12764 0.0114,0.0668 0.025,0.13354 0.0387,0.19998 0.0192,0.0928 0.0393,0.18517 0.0605,0.27751 0.0155,0.0672 0.0332,0.13403 0.0517,0.2005 0.0282,0.10153 0.0554,0.20347 0.0873,0.30386 0.0296,0.0933 0.0636,0.18503 0.0972,0.27699 0.0465,0.1272 0.10268,0.25048 0.1695,0.36845 0.0578,0.10215 0.12379,0.19776 0.21239,0.27647 0.0584,0.0518 0.1233,0.0917 0.19895,0.11162 0.0594,0.0156 0.11951,0.0176 0.18035,0.005 0.0705,-0.0145 0.13309,-0.0449 0.18862,-0.0904 0.006,-0.005 0.0137,-0.009 0.0212,5.3e-4 0.0287,0.0364 0.0673,0.0608 0.10749,0.0816 0.10852,0.0566 0.22662,0.0737 0.34675,0.0806 0.0291,0.001 0.0585,-0.002 0.0879,-0.003 0.0571,-10e-4 0.11232,-0.0126 0.16692,-0.0284 0.0286,-0.008 0.0567,-0.0192 0.0858,-0.0289 0.002,0.031 0.004,0.061 0.004,0.0909 l 0.004,0.16278 c 7.9e-4,0.0247 0.002,0.0497 0.004,0.0744 0.006,0.0636 0.012,0.12729 0.0196,0.19068 0.005,0.0437 0.0104,0.0876 0.0207,0.13023 0.0207,0.0861 0.0486,0.16987 0.0842,0.25115 0.035,0.0798 0.0853,0.14704 0.15244,0.20257 0.0868,0.0718 0.18836,0.10234 0.29817,0.108 0.0454,0.002 0.0922,2.6e-4 0.13695,-0.008 0.0708,-0.0129 0.14187,-0.0293 0.21084,-0.0501 0.14033,-0.0424 0.26128,-0.11537 0.35191,-0.23358 0.0516,-0.0674 0.0942,-0.14019 0.12144,-0.22065 0.0224,-0.0665 0.0437,-0.1335 0.0605,-0.20154 0.0133,-0.0536 0.0198,-0.10907 0.0279,-0.16382 0.005,-0.0362 0.009,-0.073 0.0119,-0.10955 0.005,-0.0592 0.0111,-0.11837 0.015,-0.17777 0.003,-0.0413 0.003,-0.0826 0.004,-0.12402 5.3e-4,-0.0126 0.002,-0.0252 0.004,-0.0377 0.001,-0.0116 0.007,-0.0158 0.0191,-0.0155 0.0418,5.3e-4 0.0839,0.001 0.12557,0 0.0468,-0.002 0.094,-0.004 0.14004,-0.0119 0.0655,-0.011 0.13058,-0.025 0.19482,-0.0419 0.0759,-0.0199 0.14537,-0.0556 0.21239,-0.0961 0.0781,-0.0472 0.14946,-0.10236 0.20723,-0.17363 0.0502,-0.0622 0.0741,-0.13393 0.062,-0.2124 -0.0181,-0.11336 -0.11326,-0.18772 -0.22428,-0.19275 -0.0403,-0.001 -0.0812,0.002 -0.12144,0.007 -0.0486,0.006 -0.0968,0.017 -0.14521,0.0243 -0.0335,0.005 -0.0673,0.007 -0.10077,0.0109 l -0.001,-0.005 c 0.0624,-0.11795 0.12747,-0.23437 0.18655,-0.35398 0.0453,-0.0918 0.084,-0.18682 0.12403,-0.28112 0.0663,-0.15622 0.11945,-0.31742 0.16329,-0.48111 0.042,-0.15675 0.0781,-0.31488 0.0894,-0.47749 0.004,-0.0649 0.008,-0.1303 0.007,-0.19534 -2.6e-4,-0.0518 -0.006,-0.10384 -0.0108,-0.15554 -0.006,-0.0593 -0.0239,-0.11545 -0.0486,-0.1695 -0.0327,-0.0712 -0.0831,-0.12952 -0.13643,-0.18501 -0.0427,-0.0444 -0.0899,-0.0851 -0.13642,-0.12557 -0.0663,-0.0578 -0.14109,-0.10378 -0.21859,-0.14469 -0.088,-0.0465 -0.18051,-0.0829 -0.27699,-0.10749 -0.0583,-0.0148 -0.11764,-0.0259 -0.17673,-0.0377 -0.0213,-0.005 -0.0428,-0.0129 -0.0641,-0.0129 z m 0.29197,0.12351 c 0.0862,0.005 0.17187,0.016 0.25632,0.0357 0.10461,0.0244 0.20485,0.0599 0.30024,0.10903 0.0713,0.0367 0.13898,0.079 0.19998,0.13126 0.04,0.0343 0.0812,0.0682 0.11731,0.10645 0.0446,0.0471 0.0899,0.0947 0.11782,0.15503 0.021,0.0455 0.0361,0.0923 0.0403,0.14211 0.005,0.0619 0.0114,0.1245 0.0109,0.18656 -5.3e-4,0.0593 -0.009,0.11856 -0.0145,0.17776 -0.0131,0.13498 -0.0424,0.2671 -0.078,0.3974 -0.0295,0.10761 -0.064,0.21416 -0.10128,0.31936 -0.0344,0.097 -0.0742,0.19199 -0.11421,0.2868 -0.0296,0.0701 -0.0614,0.13946 -0.0961,0.20722 -0.0655,0.12842 -0.13355,0.25526 -0.21238,0.37621 -0.0136,0.0209 -0.0265,0.0427 -0.0398,0.0641 0.0344,0.0232 0.0735,0.0314 0.11266,0.0357 0.0373,0.004 0.0754,0.007 0.11265,0.004 0.0597,-0.005 0.11896,-0.0129 0.17829,-0.0212 0.0588,-0.008 0.11639,-0.0246 0.17673,-0.0202 0.0603,0.004 0.10378,0.05 0.0997,0.10646 -0.002,0.0358 -0.0192,0.0663 -0.0429,0.0925 -0.11212,0.12361 -0.25252,0.19871 -0.41341,0.23564 -0.0611,0.014 -0.12451,0.021 -0.18707,0.0269 -0.0533,0.005 -0.10726,0.006 -0.16071,0.004 -0.0393,-0.002 -0.0781,-0.0102 -0.11834,-0.016 -0.004,0.0368 -0.008,0.075 -0.0124,0.11317 l -0.0191,0.14624 c -0.006,0.0464 -0.01,0.0926 -0.0155,0.13901 -0.006,0.045 -0.0131,0.0899 -0.0191,0.13488 -0.006,0.0419 -0.01,0.0838 -0.0155,0.12557 -0.01,0.0641 -0.019,0.12867 -0.0315,0.19224 -0.015,0.076 -0.0379,0.14952 -0.0755,0.21807 -0.0458,0.0837 -0.11062,0.14762 -0.19327,0.19482 -0.0852,0.0487 -0.17844,0.0739 -0.27285,0.0951 -0.0668,0.015 -0.13591,0.0175 -0.2036,0.0114 -0.11739,-0.0106 -0.21728,-0.0609 -0.29301,-0.15193 -0.0723,-0.0869 -0.12149,-0.1865 -0.13901,-0.29921 -0.008,-0.0536 -0.0143,-0.10774 -0.0191,-0.16175 -0.005,-0.0601 -0.009,-0.12013 -0.0119,-0.18035 -0.004,-0.0765 -0.006,-0.15296 -0.008,-0.22944 -0.002,-0.094 -0.003,-0.18813 -0.004,-0.28215 v -0.004 c -0.0478,0.0286 -0.0948,0.0604 -0.14469,0.0863 -0.0584,0.0303 -0.1219,0.0477 -0.18759,0.0527 -0.0515,0.004 -0.10375,0.007 -0.15503,0.003 -0.0841,-0.007 -0.16812,-0.0201 -0.24339,-0.0615 -0.0305,-0.0168 -0.0622,-0.0369 -0.0832,-0.0636 -0.0504,-0.0644 -0.0265,-0.14589 0.0496,-0.18501 0.0525,-0.0271 0.10997,-0.0386 0.16691,-0.0517 0.0495,-0.0115 0.0985,-0.0241 0.14676,-0.0398 0.0478,-0.0156 0.0783,-0.0546 0.10801,-0.0925 l 0.047,-0.0605 c -0.0197,-0.002 -0.0384,-0.005 -0.0568,-0.006 -0.0562,-0.005 -0.10992,-0.0207 -0.16123,-0.0434 -0.0439,-0.0194 -0.0443,-0.0215 -0.0765,0.0134 -0.0538,0.0584 -0.10649,0.11789 -0.15916,0.17725 -0.0388,0.0436 -0.0772,0.088 -0.11576,0.13177 -0.0382,0.0433 -0.0741,0.0888 -0.11524,0.12919 -0.0611,0.0599 -0.13483,0.096 -0.22273,0.092 -0.0564,-0.002 -0.10756,-0.0225 -0.15399,-0.0548 -0.0958,-0.0667 -0.16085,-0.16033 -0.21963,-0.25838 -0.0753,-0.12564 -0.13294,-0.25936 -0.18241,-0.39688 -0.0342,-0.095 -0.0683,-0.19039 -0.0982,-0.2868 -0.0325,-0.10477 -0.0614,-0.21073 -0.0894,-0.31678 -0.0212,-0.08 -0.04,-0.16048 -0.0579,-0.24133 -0.0204,-0.0919 -0.0395,-0.1844 -0.0568,-0.27698 -0.0117,-0.0625 -0.0185,-0.1257 -0.0279,-0.18862 -0.0127,-0.0848 -0.0151,-0.17066 -0.0103,-0.2558 0.004,-0.0767 0.0148,-0.15324 0.0258,-0.22944 0.0152,-0.10543 0.0497,-0.20474 0.0997,-0.29869 0.0306,-0.0576 0.0688,-0.11003 0.11266,-0.15865 0.0721,-0.0798 0.15924,-0.13705 0.25631,-0.18035 0.0678,-0.0302 0.13987,-0.0488 0.21291,-0.0631 0.1084,-0.0211 0.21769,-0.0205 0.32711,-0.0181 0.0478,7.9e-4 0.0954,0.0101 0.14314,0.0145 0.10291,0.0102 0.20378,0.0321 0.30335,0.0589 0.0726,0.0194 0.1435,0.0449 0.21549,0.0667 0.007,0.002 0.0179,0.002 0.0238,-0.001 0.0975,-0.0637 0.20444,-0.10565 0.31781,-0.1297 0.043,-0.009 0.0872,-0.0132 0.13126,-0.016 0.0535,-0.004 0.10733,-0.007 0.16071,-0.004 0.0642,0.004 0.12794,0.0129 0.19172,0.0217 0.031,0.005 0.0615,0.0151 0.0925,0.0181 0.0149,10e-4 0.0303,-0.009 0.046,-0.0129 0.0801,-0.0185 0.16003,-0.0391 0.24081,-0.0538 0.0601,-0.0109 0.12126,-0.0161 0.18242,-0.0196 0.0682,-0.004 0.137,-0.007 0.20516,-0.004 z m -0.0822,0.13591 c -0.0608,-0.002 -0.12173,0.005 -0.18242,0.0108 -0.055,0.005 -0.10999,0.014 -0.16537,0.0212 0.0594,0.0335 0.11838,0.0632 0.17364,0.0982 0.11618,0.0736 0.22017,0.16184 0.30954,0.26665 v 10e-4 c 0.0452,0.053 0.0893,0.10758 0.12971,0.16433 0.0782,0.10976 0.14055,0.22822 0.18655,0.35502 0.0204,0.0559 0.0362,0.11247 0.0289,0.17363 -0.005,0.0428 -0.005,0.0861 -0.008,0.12919 -0.003,0.0358 -0.009,0.0713 -0.0134,0.10697 -0.007,0.0539 -0.0172,0.10766 -0.0202,0.16175 -0.003,0.0515 2.2e-4,0.10345 0.003,0.15503 0.003,0.0524 0.0102,0.10478 0.015,0.15709 0.005,0.0593 0.0129,0.11834 0.0145,0.17777 0.001,0.0488 -0.003,0.098 -0.007,0.14676 -0.005,0.0587 -0.0202,0.11549 -0.0424,0.17002 -0.0156,0.0384 -0.034,0.0758 -0.0517,0.1142 l 0.007,0.007 0.0108,0.008 0.0108,-0.0196 c 0.0914,-0.14413 0.17246,-0.29373 0.24288,-0.44907 0.0453,-0.10004 0.0879,-0.20134 0.12868,-0.30334 0.0635,-0.15882 0.11359,-0.32234 0.15244,-0.48886 0.0174,-0.0748 0.0311,-0.15045 0.0429,-0.22635 0.009,-0.0593 0.017,-0.11944 0.0186,-0.17931 0.002,-0.0635 -0.002,-0.12733 -0.008,-0.19069 -0.004,-0.0479 -0.0161,-0.096 -0.046,-0.13487 -0.0482,-0.0626 -0.10036,-0.12266 -0.16433,-0.17002 -0.0538,-0.0399 -0.10758,-0.0806 -0.16537,-0.1142 -0.0916,-0.0532 -0.1904,-0.0886 -0.29404,-0.11266 -0.10114,-0.0236 -0.20382,-0.0335 -0.30696,-0.0357 z m -0.91674,0.0532 c -0.0798,-7.9e-4 -0.15895,0.003 -0.23668,0.0207 -0.11731,0.0272 -0.22445,0.0758 -0.31781,0.15399 -0.0521,0.0437 -0.0976,0.0926 -0.13746,0.14728 -0.0467,0.0642 -0.0846,0.13349 -0.11679,0.20619 -0.0442,0.0997 -0.0744,0.20338 -0.0951,0.31006 -0.0104,0.0532 -0.0186,0.1071 -0.0269,0.16071 -0.003,0.0188 -0.003,0.0378 -0.005,0.0594 0.0144,-0.008 0.0251,-0.0134 0.0357,-0.0186 l 0.0346,-0.0155 c 0.11696,-0.0535 0.23769,-0.0881 0.36794,-0.0842 0.0553,0.001 0.10841,0.013 0.15761,0.0372 0.0944,0.0466 0.14964,0.12566 0.17364,0.22582 0.0166,0.0691 0.0277,0.1395 0.0388,0.20981 0.009,0.0549 0.0175,0.11051 0.0186,0.16588 0.001,0.0809 -0.003,0.16199 -0.007,0.24288 -0.004,0.0689 -0.0183,0.1367 -0.0424,0.20102 -0.0438,0.11697 -0.0924,0.232 -0.13798,0.3483 -0.0151,0.0384 -0.0266,0.0782 -0.0408,0.12041 0.022,0 0.0395,-2.3e-4 0.0574,0 0.007,2.6e-4 0.014,5.3e-4 0.0207,0.002 0.0524,0.0124 0.0982,0.0362 0.1354,0.0765 0.0497,0.0536 0.0757,0.11623 0.077,0.18863 7.9e-4,0.0401 -0.004,0.0803 -0.003,0.1204 7.9e-4,0.18704 0.002,0.37422 0.004,0.56121 2.6e-4,0.0305 0.002,0.0609 0.004,0.0915 0.005,0.0639 0.009,0.12798 0.015,0.19172 0.004,0.0452 0.0105,0.0905 0.0176,0.1354 0.0101,0.0636 0.0395,0.12002 0.0723,0.17414 0.0283,0.0466 0.0648,0.0859 0.11318,0.11318 0.0823,0.0464 0.17108,0.0507 0.26044,0.0336 0.0604,-0.0115 0.11967,-0.0301 0.17829,-0.0491 0.0578,-0.0188 0.11014,-0.0496 0.15399,-0.092 0.0411,-0.0398 0.0702,-0.0886 0.0899,-0.14211 0.0381,-0.10391 0.0498,-0.21338 0.0656,-0.32194 0.006,-0.0406 0.0111,-0.0812 0.0165,-0.12196 0.006,-0.0464 0.0121,-0.0927 0.0181,-0.13901 0.004,-0.0345 0.008,-0.0694 0.0129,-0.10387 0.006,-0.0496 0.0124,-0.0987 0.0181,-0.14831 0.004,-0.0383 0.008,-0.0768 0.0119,-0.11524 0.005,-0.049 0.0107,-0.0981 0.015,-0.14728 0.003,-0.0374 0.002,-0.0755 0.009,-0.11214 0.0122,-0.0671 0.0438,-0.12431 0.10335,-0.16123 0.0249,-0.0154 0.053,-0.0258 0.0806,-0.0387 l -0.005,-0.008 c -0.0256,-0.0331 -0.0515,-0.0657 -0.0765,-0.0992 -0.0393,-0.0525 -0.0678,-0.11107 -0.0961,-0.17002 -0.0269,-0.0559 -0.0601,-0.10859 -0.0884,-0.16382 -0.0494,-0.0963 -0.0997,-0.19222 -0.14521,-0.29042 -0.0573,-0.12336 -0.10206,-0.25144 -0.11627,-0.38809 -0.006,-0.0578 -0.007,-0.1153 0.004,-0.1726 0.0187,-0.0915 0.0664,-0.1633 0.14676,-0.21239 0.0745,-0.0455 0.15781,-0.06 0.24288,-0.0646 0.0528,-0.003 0.10592,-5.3e-4 0.16071,-5.3e-4 l -0.002,-0.009 c -0.0341,-0.0712 -0.066,-0.14334 -0.10334,-0.2129 -0.0526,-0.0982 -0.11987,-0.18666 -0.19482,-0.26872 -0.0555,-0.0608 -0.11549,-0.11709 -0.18138,-0.16692 -0.0648,-0.049 -0.13335,-0.0928 -0.20619,-0.12867 -0.0869,-0.0428 -0.1769,-0.0761 -0.27182,-0.0971 -0.0912,-0.0203 -0.18344,-0.0325 -0.27698,-0.0336 z m -1.34617,0.009 c -0.0208,-0.001 -0.0416,5.3e-4 -0.0625,0.004 -0.0517,0.005 -0.10419,0.007 -0.15503,0.0165 -0.0865,0.0164 -0.16963,0.0443 -0.2465,0.0894 -0.069,0.0404 -0.12664,0.0928 -0.17518,0.15554 -0.0536,0.0692 -0.0899,0.1475 -0.11576,0.231 -0.0306,0.0985 -0.0452,0.19998 -0.0491,0.30231 -0.003,0.0897 -0.005,0.1799 0.0104,0.26923 0.0115,0.0665 0.0193,0.13374 0.032,0.19999 0.0173,0.0903 0.036,0.18038 0.0574,0.26975 0.0307,0.12794 0.0613,0.25603 0.0977,0.3824 0.0348,0.12112 0.0737,0.24111 0.11628,0.35967 0.0348,0.0968 0.075,0.19154 0.1173,0.28526 0.0276,0.0611 0.0611,0.12009 0.0961,0.17725 0.0373,0.0607 0.0795,0.11822 0.13694,0.16226 0.0725,0.0557 0.12887,0.0644 0.20258,0.003 0.0316,-0.0262 0.0584,-0.0586 0.0858,-0.0894 0.0436,-0.0488 0.0858,-0.0988 0.12919,-0.1478 0.0553,-0.0625 0.1113,-0.12441 0.16691,-0.18655 0.0118,-0.0131 0.0232,-0.0265 0.0346,-0.0398 l -0.0191,-0.0165 c -0.0691,-0.0664 -0.12232,-0.14364 -0.15969,-0.23203 v -5.3e-4 c -0.0297,-0.0704 -0.0474,-0.14374 -0.0527,-0.21962 -0.005,-0.0713 0.004,-0.14242 0.0109,-0.21342 0.007,-0.0688 0.0129,-0.13814 0.015,-0.20723 0.003,-0.11356 -0.004,-0.22654 -0.01,-0.34003 -0.003,-0.0676 0.005,-0.13588 0.0103,-0.2036 0.005,-0.061 0.0123,-0.12231 0.0238,-0.18242 0.0193,-0.10086 0.0452,-0.20025 0.0816,-0.29662 0.0347,-0.0914 0.0745,-0.18033 0.13074,-0.26045 0.0385,-0.055 0.0821,-0.1065 0.12403,-0.1602 l -0.0124,-0.004 c -0.1367,-0.0434 -0.2757,-0.0771 -0.41858,-0.092 -0.0676,-0.007 -0.13533,-0.0109 -0.20309,-0.015 z m 2.44067,1.04954 c -0.0525,-7.9e-4 -0.10383,0.007 -0.15244,0.0274 -0.0539,0.0222 -0.0948,0.0575 -0.11162,0.11627 -0.0124,0.0438 -0.0159,0.0876 -0.0114,0.13333 0.007,0.0697 0.0221,0.13723 0.0465,0.20206 0.0326,0.0868 0.0667,0.17365 0.10748,0.25683 0.0552,0.11257 0.11757,0.22141 0.17622,0.33228 0.0157,0.0296 0.0291,0.0606 0.0455,0.0951 0.0342,-0.0725 0.0508,-0.14482 0.0527,-0.21962 0.002,-0.0629 -0.004,-0.12619 -0.007,-0.18914 -0.002,-0.0386 -0.008,-0.0768 -0.0114,-0.11524 -0.005,-0.0536 -0.0131,-0.10701 -0.0145,-0.16071 -0.001,-0.0546 0.003,-0.10929 0.007,-0.16381 0.004,-0.0523 0.0129,-0.10454 0.0191,-0.15659 l 5.3e-4,5.3e-4 c 0.005,-0.0439 0.01,-0.0879 0.015,-0.13177 0.002,-0.0177 -0.007,-0.0227 -0.0222,-0.0233 -0.0466,-0.002 -0.093,-0.003 -0.13952,-0.004 z m -1.61075,0.0212 c -0.0237,-5.3e-4 -0.0473,0.002 -0.0713,0.005 -0.11733,0.0185 -0.225,0.0618 -0.32505,0.12505 -0.0201,0.0128 -0.0309,0.0228 -0.0274,0.0517 0.007,0.0611 0.009,0.12324 0.009,0.185 -2.7e-4,0.0874 -0.004,0.17467 -0.007,0.262 -0.001,0.0284 -0.005,0.057 -0.008,0.0853 -0.005,0.0434 -0.0136,0.0869 -0.0134,0.13022 2.7e-4,0.0446 0.005,0.0901 0.0155,0.13333 0.0344,0.13706 0.10748,0.249 0.22686,0.32814 0.0734,0.0487 0.15473,0.0734 0.24391,0.078 0.006,-0.0205 0.011,-0.0398 0.017,-0.0589 0.0375,-0.11986 0.088,-0.23469 0.13746,-0.34985 0.0402,-0.0936 0.0619,-0.19179 0.0692,-0.293 0.004,-0.0499 0.003,-0.10083 5.3e-4,-0.1509 -0.003,-0.0556 -0.007,-0.11132 -0.0155,-0.16639 -0.0104,-0.0703 -0.0221,-0.14072 -0.0388,-0.20981 -0.0181,-0.0748 -0.0636,-0.12655 -0.14159,-0.14573 -0.0238,-0.006 -0.0476,-0.009 -0.0713,-0.009 z m 1.57665,0.0326 c 0.0126,0.002 0.0311,0.005 0.0491,0.009 0.0261,0.007 0.0359,0.0271 0.0264,0.0532 -0.0173,0.0478 -0.0543,0.0748 -0.10232,0.0827 -0.0448,0.008 -0.084,-0.009 -0.11317,-0.045 -0.0208,-0.0254 -0.0125,-0.0551 0.0186,-0.0724 0.0357,-0.0198 0.0751,-0.025 0.12144,-0.0279 z m -1.56218,0.0367 c 0.0462,5.3e-4 0.0905,0.007 0.12867,0.0357 0.0245,0.0188 0.0308,0.0442 0.015,0.0698 -0.0225,0.0365 -0.0567,0.0549 -0.0987,0.0584 -0.0663,0.005 -0.11297,-0.0254 -0.14056,-0.0832 v -5.3e-4 c -0.0157,-0.033 -0.007,-0.0602 0.03,-0.0729 0.009,-0.003 0.0177,-0.007 0.0269,-0.007 0.0127,-0.001 0.026,-5.3e-4 0.0388,-5.3e-4 z m 1.79059,1.46968 c -0.0123,-0.001 -0.0252,7.9e-4 -0.0393,0.006 -0.0402,0.0135 -0.073,0.0339 -0.0827,0.0775 -0.007,0.0294 -0.009,0.0598 -0.0114,0.0899 -5.3e-4,0.005 0.006,0.0152 0.0109,0.0165 0.031,0.008 0.0623,0.0179 0.094,0.0207 0.0389,0.004 0.0787,0.002 0.11782,5.3e-4 0.0423,-0.002 0.0849,-0.004 0.12661,-0.0119 0.0983,-0.0165 0.19305,-0.0435 0.2775,-0.0992 0.0304,-0.0201 0.0607,-0.0406 0.091,-0.061 l -0.002,-0.004 c -0.0323,0.004 -0.0642,0.011 -0.0966,0.0145 l -5.3e-4,-5.3e-4 c -0.066,0.007 -0.1322,0.0143 -0.19844,0.0181 -0.032,0.001 -0.0643,-0.005 -0.0966,-0.007 -0.0541,-0.004 -0.10719,-0.0166 -0.15296,-0.0455 -0.0132,-0.008 -0.0249,-0.0131 -0.0372,-0.0145 z m -1.57924,0.0119 c -0.0147,-5e-5 -0.0297,0.006 -0.0419,0.017 -0.0302,0.0285 -0.0567,0.0608 -0.0832,0.093 -0.0307,0.0372 -0.0591,0.0761 -0.0987,0.1049 -0.0576,0.0419 -0.12475,0.0591 -0.19224,0.0755 -0.0537,0.0131 -0.10794,0.0252 -0.16175,0.0377 l -5.3e-4,0.007 c 0.016,0.007 0.0315,0.0169 0.0481,0.0222 0.0821,0.0259 0.16546,0.0388 0.25218,0.0315 0.0626,-0.005 0.12229,-0.0192 0.1788,-0.046 0.0778,-0.0368 0.13774,-0.0948 0.18862,-0.16278 0.008,-0.0113 0.0124,-0.0282 0.0134,-0.0429 0.003,-0.0516 -0.0226,-0.0901 -0.0605,-0.12092 -0.0128,-0.0105 -0.0277,-0.016 -0.0424,-0.016 z" />
  </g>
</svg>
