<?xml version="1.0" encoding="UTF-8" standalone="no"?>
<svg
   xmlns:dc="http://purl.org/dc/elements/1.1/"
   xmlns:cc="http://creativecommons.org/ns#"
   xmlns:rdf="http://www.w3.org/1999/02/22-rdf-syntax-ns#"
   xmlns:svg="http://www.w3.org/2000/svg"
   xmlns="http://www.w3.org/2000/svg"
   xmlns:sodipodi="http://sodipodi.sourceforge.net/DTD/sodipodi-0.dtd"
   xmlns:inkscape="http://www.inkscape.org/namespaces/inkscape"
   width="24"
   height="24"
   viewBox="0 0 6.3499999 6.3499999"
   version="1.1"
   id="svg10908"
   inkscape:version="1.0.1 (3bc2e813f5, 2020-09-07)"
   sodipodi:docname="postgresql-circle-outline.svg">
  <title
     id="title11486">postgresql-circle-outline</title>
  <defs
     id="defs10902" />
  <sodipodi:namedview
     id="base"
     pagecolor="#ffffff"
     bordercolor="#666666"
     borderopacity="1.0"
     inkscape:pageopacity="0.0"
     inkscape:pageshadow="2"
     inkscape:zoom="22.4"
     inkscape:cx="11.865285"
     inkscape:cy="11.063399"
     inkscape:document-units="mm"
     inkscape:current-layer="layer1"
     inkscape:document-rotation="0"
     showgrid="false"
     units="px"
     inkscape:window-width="1140"
     inkscape:window-height="1368"
     inkscape:window-x="1411"
     inkscape:window-y="0"
     inkscape:window-maximized="0"
     inkscape:snap-center="true"
     inkscape:snap-object-midpoints="true"
     inkscape:snap-page="true"
     inkscape:snap-intersection-paths="true"
     inkscape:snap-smooth-nodes="false"
     showguides="true"
     inkscape:guide-bbox="true"
     inkscape:snap-bbox="true"
     inkscape:bbox-paths="true"
     inkscape:bbox-nodes="true"
     inkscape:snap-bbox-edge-midpoints="true"
     inkscape:snap-bbox-midpoints="true">
    <sodipodi:guide
       position="0,6.3499999"
       orientation="1,0"
       id="guide11518" />
  </sodipodi:namedview>
  <metadata
     id="metadata10905">
    <rdf:RDF>
      <cc:Work
         rdf:about="">
        <dc:format>image/svg+xml</dc:format>
        <dc:type
           rdf:resource="http://purl.org/dc/dcmitype/StillImage" />
        <dc:title>postgresql-circle-outline</dc:title>
      </cc:Work>
    </rdf:RDF>
  </metadata>
  <g
     inkscape:label="Layer 1"
     inkscape:groupmode="layer"
     id="layer1"
     transform="translate(-109.4619,-112.48571)">
    <path
       id="circle-2-4-0-6-8-6"
       style="fill:#000000;fill-opacity:1;fill-rule:evenodd;stroke:none;stroke-width:0.0916501"
       d="m 112.6369,112.48571 a 3.175,3.1749997 0 0 0 -3.175,3.175 3.175,3.1749997 0 0 0 3.175,3.175 3.175,3.1749997 0 0 0 3.175,-3.175 3.175,3.1749997 0 0 0 -3.175,-3.175 z m -0.005,0.52917 a 2.6458332,2.6458332 0 0 1 0.005,0 2.6458332,2.6458332 0 0 1 2.64583,2.64583 2.6458332,2.6458332 0 0 1 -2.64583,2.64583 2.6458332,2.6458332 0 0 1 -2.64583,-2.64583 2.6458332,2.6458332 0 0 1 2.64066,-2.64583 z m 0.71313,0.84646 c -0.0126,0 -0.0251,0.007 -0.0377,0.008 -0.0831,0.009 -0.16526,0.0249 -0.24495,0.0496 -0.0298,0.009 -0.0569,0.003 -0.0853,5.3e-4 -0.0217,-0.002 -0.0429,-0.008 -0.0646,-0.009 -0.0827,-0.004 -0.16589,-0.0106 -0.24856,-0.009 -0.0792,5.3e-4 -0.15741,0.0139 -0.23409,0.0357 -0.0641,0.0182 -0.12699,0.0407 -0.18449,0.0744 -0.0246,0.0144 -0.0443,0.0114 -0.0698,0.005 -0.0856,-0.0247 -0.17144,-0.0477 -0.25838,-0.0672 -0.0542,-0.0121 -0.11003,-0.018 -0.16537,-0.0238 -0.053,-0.005 -0.10637,-0.009 -0.15968,-0.0103 -0.0521,-0.001 -0.10473,-8e-4 -0.15658,0.003 -0.0826,0.007 -0.16358,0.0241 -0.24236,0.0512 -0.0875,0.0301 -0.16747,0.0741 -0.23978,0.13126 -0.0734,0.0581 -0.13248,0.12883 -0.17983,0.20981 -0.0498,0.0854 -0.0841,0.17677 -0.10543,0.27285 -0.0115,0.0521 -0.0184,0.10579 -0.0264,0.15864 -0.003,0.0165 0.0245,0.0328 -0.009,0.0491 v 0.22996 c 0.0339,0.0153 0.007,0.0307 0.009,0.046 0.005,0.0369 0.009,0.074 0.015,0.11059 0.01,0.0579 0.0216,0.11605 0.0336,0.17363 0.0166,0.0804 0.0337,0.16079 0.0522,0.24081 0.0134,0.0582 0.0284,0.11603 0.0444,0.17363 0.0244,0.088 0.0489,0.17603 0.0765,0.26304 0.0256,0.0808 0.0546,0.1606 0.0837,0.24029 0.0404,0.11025 0.0888,0.21711 0.14676,0.31936 0.0501,0.0885 0.10719,0.17157 0.18397,0.23978 0.0506,0.0449 0.10704,0.0793 0.1726,0.0966 0.0515,0.0135 0.10385,0.0153 0.15658,0.005 0.0611,-0.0125 0.11518,-0.0391 0.1633,-0.0785 0.005,-0.005 0.0116,-0.008 0.0181,5.3e-4 0.0249,0.0315 0.0586,0.0526 0.0935,0.0708 0.0941,0.049 0.19613,0.0639 0.30024,0.0698 0.0252,10e-4 0.0511,-0.002 0.0765,-0.003 0.0495,-0.001 0.0974,-0.0111 0.14469,-0.0248 0.0248,-0.007 0.0492,-0.0163 0.0744,-0.0248 10e-4,0.0268 0.003,0.0526 0.004,0.0786 l 0.003,0.14107 c 7.9e-4,0.0215 0.001,0.0432 0.003,0.0646 0.005,0.0551 0.01,0.11042 0.0165,0.16536 0.005,0.0378 0.009,0.0757 0.0181,0.11266 0.0179,0.0746 0.0425,0.1471 0.0734,0.21756 0.0303,0.0691 0.0736,0.12756 0.13177,0.17569 0.0752,0.0622 0.16373,0.0887 0.2589,0.0935 0.0393,0.002 0.0796,5.3e-4 0.11834,-0.007 0.0614,-0.0112 0.12265,-0.0254 0.18242,-0.0434 0.12162,-0.0367 0.22686,-0.10012 0.30541,-0.20257 0.0447,-0.0584 0.0813,-0.12147 0.1049,-0.1912 0.0194,-0.0576 0.0377,-0.1157 0.0522,-0.17467 0.0115,-0.0465 0.0173,-0.0947 0.0243,-0.14211 0.005,-0.0314 0.007,-0.063 0.0104,-0.0946 0.005,-0.0514 0.01,-0.10251 0.0129,-0.15399 0.003,-0.0358 0.003,-0.0721 0.004,-0.10801 5.2e-4,-0.0109 0.002,-0.0217 0.003,-0.0326 0.001,-0.0101 0.006,-0.0136 0.016,-0.0135 0.0363,5.3e-4 0.0729,0.001 0.10903,0 0.0406,-0.002 0.0816,-0.003 0.12144,-0.0103 0.0568,-0.01 0.11329,-0.0216 0.16898,-0.0362 0.0658,-0.0172 0.12589,-0.048 0.18397,-0.0832 0.0677,-0.0409 0.12926,-0.0886 0.17932,-0.15038 0.0435,-0.0539 0.0643,-0.11649 0.0537,-0.18449 l 0.002,-5.3e-4 c -0.0152,-0.0988 -0.0983,-0.16355 -0.19482,-0.16794 -0.035,-0.001 -0.0705,0.002 -0.10542,0.007 -0.0421,0.005 -0.0836,0.0149 -0.12557,0.0212 -0.0291,0.005 -0.0583,0.006 -0.0873,0.009 l -0.001,-0.004 c 0.0541,-0.10221 0.11054,-0.20329 0.16175,-0.30696 0.0393,-0.0795 0.0733,-0.16168 0.108,-0.2434 0.0575,-0.1354 0.10307,-0.27515 0.14108,-0.41702 0.0364,-0.13585 0.0678,-0.273 0.0775,-0.41393 0.004,-0.0563 0.007,-0.11314 0.006,-0.1695 -2.4e-4,-0.0449 -0.005,-0.0901 -0.01,-0.13488 -0.005,-0.0514 -0.0209,-0.0999 -0.0424,-0.14676 -0.0283,-0.0617 -0.0721,-0.11211 -0.11834,-0.16019 -0.037,-0.0385 -0.0775,-0.0735 -0.11782,-0.10853 -0.0575,-0.05 -0.12198,-0.0901 -0.18914,-0.12557 -0.0763,-0.0403 -0.15667,-0.0717 -0.2403,-0.093 -0.0506,-0.0129 -0.10227,-0.0229 -0.15348,-0.0331 -0.0185,-0.004 -0.0368,-0.0114 -0.0553,-0.0114 z m 0.25374,0.10748 c 0.0747,0.004 0.14902,0.0144 0.22221,0.0315 0.0907,0.0211 0.17776,0.0515 0.26044,0.094 0.0618,0.0318 0.12026,0.0689 0.17312,0.1142 0.0346,0.0297 0.07,0.0589 0.10129,0.092 0.0386,0.0408 0.0781,0.082 0.10231,0.13436 0.0182,0.0394 0.0315,0.0803 0.0351,0.1235 0.005,0.0537 0.01,0.10745 0.009,0.16123 -5.3e-4,0.0514 -0.007,0.10269 -0.0124,0.154 -0.0113,0.11698 -0.0368,0.23177 -0.0677,0.34468 -0.0255,0.0933 -0.0556,0.1853 -0.0879,0.27647 -0.0298,0.084 -0.064,0.16639 -0.0987,0.24856 -0.0256,0.0608 -0.0532,0.12111 -0.0832,0.17984 -0.0568,0.11129 -0.11565,0.22125 -0.18397,0.32607 -0.0118,0.0181 -0.0232,0.0368 -0.0346,0.0553 0.0298,0.0201 0.0637,0.0273 0.0977,0.031 0.0324,0.003 0.0654,0.006 0.0977,0.003 0.0517,-0.004 0.1031,-0.0114 0.15451,-0.0186 0.051,-0.007 0.10119,-0.0214 0.15348,-0.0176 0.052,0.004 0.0891,0.0433 0.0858,0.092 -0.002,0.0308 -0.0162,0.057 -0.0367,0.0796 -0.0972,0.10713 -0.21919,0.17211 -0.35863,0.20412 -0.053,0.0122 -0.10752,0.0182 -0.16175,0.0233 -0.0461,0.005 -0.0932,0.005 -0.13953,0.003 -0.0341,-0.001 -0.068,-0.009 -0.10283,-0.0139 -0.003,0.0318 -0.007,0.0651 -0.0109,0.0982 l -0.016,0.12661 c -0.005,0.0402 -0.009,0.0807 -0.0139,0.12092 -0.005,0.039 -0.0108,0.0778 -0.016,0.11679 -0.005,0.0363 -0.008,0.0728 -0.0139,0.10904 -0.008,0.0556 -0.0162,0.11078 -0.0269,0.16588 -0.013,0.0659 -0.033,0.12973 -0.0656,0.18913 -0.0397,0.0725 -0.0958,0.12808 -0.16743,0.16899 -0.0738,0.0422 -0.15485,0.0639 -0.23668,0.0822 -0.0579,0.013 -0.11755,0.0155 -0.17621,0.0104 -0.10173,-0.009 -0.18861,-0.0529 -0.25425,-0.13178 -0.0627,-0.0753 -0.10473,-0.16174 -0.11989,-0.25941 -0.007,-0.0464 -0.0129,-0.0933 -0.017,-0.14005 -0.005,-0.0521 -0.008,-0.10387 -0.01,-0.15606 -0.003,-0.0663 -0.005,-0.13267 -0.007,-0.19895 -0.002,-0.0815 -0.003,-0.16295 -0.003,-0.24443 v -0.003 c -0.0415,0.0248 -0.0824,0.052 -0.12558,0.0744 -0.0506,0.0263 -0.10533,0.0417 -0.16226,0.046 -0.0446,0.003 -0.09,0.007 -0.13436,0.003 -0.0728,-0.006 -0.14561,-0.0169 -0.21084,-0.0527 -0.0265,-0.0146 -0.0541,-0.0326 -0.0723,-0.0558 -0.0437,-0.0558 -0.0225,-0.12578 0.0434,-0.15968 0.0455,-0.0235 0.0948,-0.0336 0.14418,-0.045 0.0429,-0.01 0.0859,-0.021 0.12764,-0.0346 0.0414,-0.0135 0.0672,-0.0472 0.093,-0.0801 l 0.0408,-0.0527 c -0.017,-0.002 -0.0331,-0.004 -0.0491,-0.005 -0.0488,-0.005 -0.095,-0.0181 -0.13953,-0.0377 -0.0381,-0.0168 -0.0387,-0.0188 -0.0667,0.0114 -0.0466,0.0506 -0.0918,0.10255 -0.13746,0.15399 -0.0336,0.0378 -0.0674,0.0758 -0.10077,0.11369 -0.0331,0.0375 -0.064,0.0772 -0.0997,0.11214 -0.053,0.0519 -0.11659,0.0831 -0.19275,0.0796 -0.0489,-0.002 -0.0936,-0.0195 -0.13385,-0.0475 -0.0831,-0.0579 -0.13924,-0.13879 -0.19017,-0.22376 -0.0653,-0.10889 -0.11525,-0.22499 -0.15812,-0.34417 -0.0296,-0.0824 -0.0594,-0.16448 -0.0853,-0.24804 -0.0281,-0.0908 -0.0527,-0.183 -0.077,-0.27492 -0.0183,-0.0694 -0.0345,-0.13922 -0.0501,-0.20929 -0.0177,-0.0797 -0.0346,-0.15955 -0.0496,-0.23978 -0.0101,-0.0542 -0.0161,-0.10877 -0.0243,-0.1633 -0.0109,-0.0735 -0.0129,-0.1479 -0.009,-0.22169 0.003,-0.0665 0.0127,-0.13291 0.0222,-0.19895 0.0131,-0.0914 0.0434,-0.17748 0.0868,-0.2589 0.0265,-0.0499 0.059,-0.0953 0.0971,-0.13746 0.0625,-0.0692 0.1386,-0.11905 0.22273,-0.15658 0.0588,-0.0262 0.12066,-0.042 0.18397,-0.0543 0.0939,-0.0183 0.18887,-0.0174 0.2837,-0.0155 0.0415,5.3e-4 0.0826,0.008 0.12402,0.0124 0.0892,0.009 0.17675,0.0274 0.26304,0.0507 0.0629,0.0168 0.12416,0.0389 0.18655,0.0579 0.007,0.002 0.0157,0.002 0.0207,-0.001 0.0845,-0.0552 0.17719,-0.0919 0.27544,-0.11266 0.0373,-0.008 0.0756,-0.0111 0.11369,-0.0134 0.0463,-0.003 0.0932,-0.006 0.13952,-0.003 0.0556,0.003 0.11061,0.0115 0.16588,0.0191 0.0268,0.004 0.0532,0.0129 0.0801,0.0155 0.0129,0.001 0.0267,-0.008 0.0403,-0.0114 0.0694,-0.016 0.13826,-0.0339 0.20825,-0.0465 0.0521,-0.009 0.10514,-0.014 0.15814,-0.017 0.0591,-0.003 0.11869,-0.006 0.17776,-0.003 z m -0.0718,0.11628 c -0.0527,-10e-4 -0.10554,0.005 -0.15814,0.009 -0.0477,0.005 -0.0952,0.0123 -0.14314,0.0186 0.0515,0.029 0.10248,0.0545 0.15038,0.0847 0.10068,0.0638 0.19074,0.14068 0.2682,0.23151 l 5.3e-4,0.001 c 0.0391,0.046 0.0771,0.0929 0.11214,0.14211 0.0677,0.0951 0.12189,0.19808 0.16175,0.30799 0.0177,0.0484 0.0316,0.0973 0.0253,0.15038 -0.005,0.0371 -0.004,0.0748 -0.007,0.11213 -0.003,0.0311 -0.008,0.062 -0.0119,0.093 -0.006,0.0467 -0.0149,0.0932 -0.0176,0.14005 -0.003,0.0446 2.2e-4,0.0897 0.003,0.13435 0.003,0.0454 0.009,0.0905 0.0134,0.13591 0.005,0.0514 0.0108,0.103 0.0124,0.15452 0.001,0.0423 -0.003,0.0849 -0.006,0.12712 -0.005,0.0509 -0.0175,0.10003 -0.0367,0.14728 -0.0135,0.0333 -0.0292,0.0654 -0.0444,0.0987 l 0.006,0.006 0.009,0.007 0.009,-0.0165 c 0.0792,-0.12491 0.14981,-0.25501 0.21084,-0.38964 0.0393,-0.0867 0.0758,-0.17464 0.1111,-0.26303 0.055,-0.13765 0.0986,-0.27892 0.13229,-0.42323 0.0151,-0.0648 0.0264,-0.1306 0.0367,-0.19637 0.008,-0.0514 0.0149,-0.10367 0.0165,-0.15555 0.001,-0.0551 -10e-4,-0.11045 -0.007,-0.16536 -0.004,-0.0415 -0.0138,-0.0831 -0.0398,-0.11679 -0.0417,-0.0543 -0.0866,-0.10623 -0.14211,-0.14728 -0.0467,-0.0346 -0.0936,-0.0696 -0.14366,-0.0987 -0.0794,-0.0461 -0.16546,-0.0768 -0.25528,-0.0977 -0.0876,-0.0204 -0.17623,-0.0297 -0.26562,-0.0315 z m -0.79272,0.0465 c -0.0692,-5.3e-4 -0.13779,0.003 -0.20515,0.0181 -0.10169,0.0235 -0.19453,0.065 -0.27544,0.13281 -0.0452,0.0379 -0.0849,0.0809 -0.11937,0.12816 -0.0405,0.0556 -0.0728,0.11528 -0.10077,0.17828 -0.0384,0.0864 -0.0648,0.17678 -0.0827,0.26924 -0.009,0.0461 -0.0162,0.0925 -0.0233,0.13901 -0.003,0.0163 -0.003,0.0326 -0.004,0.0512 0.0125,-0.007 0.0217,-0.0115 0.031,-0.016 l 0.03,-0.0134 c 0.10137,-0.0463 0.20647,-0.0763 0.31936,-0.0729 0.048,0.001 0.0937,0.011 0.13643,0.032 0.0818,0.0404 0.12958,0.10904 0.15037,0.19585 0.0144,0.0599 0.0241,0.12096 0.0336,0.1819 0.007,0.0476 0.0152,0.0957 0.016,0.14366 10e-4,0.0701 -0.003,0.14021 -0.006,0.21033 -0.003,0.0597 -0.0158,0.11891 -0.0367,0.17466 -0.038,0.10137 -0.0804,0.201 -0.11989,0.30179 -0.0131,0.0333 -0.0228,0.0678 -0.0351,0.10439 0.019,0 0.0342,-1.9e-4 0.0496,0 0.006,2.6e-4 0.0123,5.3e-4 0.0181,0.002 0.0454,0.0107 0.085,0.0312 0.11731,0.0662 0.043,0.0465 0.0653,0.10054 0.0667,0.1633 5.3e-4,0.0348 -0.003,0.0696 -0.003,0.10438 8e-4,0.16209 0.002,0.32422 0.003,0.48628 2.4e-4,0.0265 0.001,0.0531 0.003,0.0796 0.004,0.0554 0.008,0.11064 0.0134,0.16588 0.004,0.0392 0.009,0.0784 0.015,0.11731 0.009,0.0551 0.0341,0.10451 0.0625,0.15141 0.0245,0.0404 0.0562,0.0745 0.0982,0.0982 0.0714,0.0402 0.14837,0.0432 0.22583,0.0284 0.0523,-0.01 0.10371,-0.0259 0.15451,-0.0424 0.0501,-0.0163 0.0953,-0.0429 0.13333,-0.0796 0.0356,-0.0345 0.0609,-0.0766 0.078,-0.12299 0.033,-0.0901 0.0432,-0.18496 0.0568,-0.27905 0.005,-0.0352 0.01,-0.0706 0.0139,-0.10594 0.005,-0.0402 0.0108,-0.0803 0.016,-0.1204 0.004,-0.0299 0.007,-0.06 0.0108,-0.0899 0.005,-0.043 0.011,-0.0857 0.016,-0.12867 0.004,-0.0332 0.007,-0.0664 0.0103,-0.0997 0.005,-0.0425 0.009,-0.0856 0.0129,-0.12816 0.003,-0.0324 0.002,-0.0649 0.007,-0.0966 0.0105,-0.0582 0.0383,-0.10805 0.0899,-0.14005 0.0216,-0.0134 0.0459,-0.0218 0.0698,-0.0331 l -0.005,-0.007 c -0.0222,-0.0287 -0.0444,-0.0572 -0.0662,-0.0863 -0.0341,-0.0455 -0.0587,-0.0962 -0.0832,-0.14728 -0.0233,-0.0484 -0.052,-0.0942 -0.0765,-0.14211 -0.0428,-0.0835 -0.0867,-0.16654 -0.12609,-0.25166 -0.0496,-0.10691 -0.0884,-0.21747 -0.10077,-0.3359 -0.005,-0.0501 -0.006,-0.10021 0.004,-0.14986 0.0162,-0.0793 0.0574,-0.14142 0.12712,-0.18397 0.0646,-0.0395 0.1366,-0.0523 0.21033,-0.0563 0.0458,-0.003 0.0915,-5.3e-4 0.13901,-5.3e-4 l -0.001,-0.008 c -0.0295,-0.0618 -0.0571,-0.12472 -0.0894,-0.185 -0.0456,-0.0851 -0.10351,-0.16142 -0.16847,-0.23254 -0.0481,-0.0526 -0.10051,-0.10151 -0.15761,-0.1447 -0.0562,-0.0425 -0.11516,-0.0806 -0.17828,-0.11162 -0.0753,-0.037 -0.1539,-0.0659 -0.23617,-0.0842 -0.079,-0.0175 -0.15869,-0.0282 -0.23978,-0.0289 z m -1.16789,0.007 c -0.018,-10e-4 -0.0362,5.3e-4 -0.0543,0.003 -0.0448,0.005 -0.0898,0.006 -0.13384,0.0145 -0.075,0.0142 -0.14733,0.0384 -0.21394,0.0775 -0.0598,0.035 -0.10986,0.0805 -0.15193,0.13487 -0.0465,0.06 -0.0778,0.12761 -0.10025,0.19999 -0.0265,0.0854 -0.0389,0.17333 -0.0424,0.262 -0.003,0.0777 -0.005,0.15564 0.009,0.23306 0.01,0.0577 0.0168,0.11622 0.0279,0.17363 0.015,0.0783 0.031,0.15613 0.0496,0.23358 0.0266,0.11088 0.0532,0.22223 0.0847,0.33176 0.0302,0.10495 0.064,0.20886 0.10077,0.31161 0.0302,0.0838 0.0651,0.16631 0.1018,0.24753 0.0239,0.0529 0.0528,0.10341 0.0832,0.15296 0.0323,0.0526 0.069,0.10291 0.11886,0.14108 0.0628,0.0483 0.1113,0.0553 0.17518,0.003 0.0274,-0.0227 0.0506,-0.0503 0.0744,-0.077 0.0378,-0.0423 0.0744,-0.0857 0.11214,-0.12816 0.048,-0.0541 0.0965,-0.10789 0.1447,-0.16175 0.0102,-0.0114 0.0201,-0.0231 0.03,-0.0346 l -0.0165,-0.0145 c -0.0597,-0.0573 -0.10612,-0.12417 -0.13849,-0.20051 -0.0257,-0.061 -0.0415,-0.1249 -0.046,-0.19068 -0.005,-0.0618 0.003,-0.12347 0.009,-0.18501 0.007,-0.0596 0.0116,-0.11943 0.0134,-0.17931 0.003,-0.0984 -0.004,-0.19671 -0.008,-0.29508 -0.003,-0.0586 0.004,-0.11752 0.009,-0.17621 0.005,-0.0528 0.0103,-0.10604 0.0202,-0.15813 0.0168,-0.0874 0.0391,-0.17384 0.0708,-0.25735 0.03,-0.0792 0.0644,-0.15587 0.11317,-0.22531 0.0334,-0.0476 0.0716,-0.0925 0.10801,-0.13901 l -0.0109,-0.004 c -0.11847,-0.0376 -0.23895,-0.0672 -0.36277,-0.0801 -0.0586,-0.006 -0.11749,-0.01 -0.17622,-0.0129 z m 2.11512,0.91054 c -0.0455,-5.3e-4 -0.0901,0.007 -0.13229,0.0238 -0.0467,0.0192 -0.082,0.0499 -0.0966,0.10077 -0.0109,0.038 -0.0136,0.0761 -0.01,0.11575 0.006,0.0605 0.0191,0.11899 0.0403,0.17518 0.0283,0.0752 0.0577,0.15014 0.093,0.22221 0.0478,0.0976 0.10212,0.19228 0.15296,0.28836 0.0136,0.0256 0.0247,0.0523 0.0388,0.0822 0.0296,-0.0628 0.0444,-0.12534 0.046,-0.19017 0.001,-0.0545 -0.003,-0.10925 -0.006,-0.16381 -0.002,-0.0334 -0.007,-0.067 -0.01,-0.10026 -0.005,-0.0464 -0.0113,-0.0924 -0.0124,-0.139 -0.001,-0.0473 0.003,-0.0949 0.006,-0.14212 0.004,-0.0453 0.0116,-0.0903 0.0171,-0.13539 l 5.3e-4,-5.3e-4 c 0.005,-0.0381 0.008,-0.0761 0.0129,-0.1142 0.002,-0.0153 -0.006,-0.0191 -0.0191,-0.0196 -0.0404,-0.001 -0.0805,-0.003 -0.12092,-0.003 z m -1.39578,0.0181 c -0.0206,-2.7e-4 -0.0412,0.001 -0.062,0.005 -0.10168,0.0161 -0.19494,0.0537 -0.28164,0.10853 -0.0174,0.0111 -0.0268,0.0199 -0.0238,0.045 0.007,0.053 0.008,0.10669 0.008,0.1602 -2.7e-4,0.0757 -0.003,0.15169 -0.006,0.22738 -5.3e-4,0.0246 -0.005,0.0489 -0.007,0.0734 -0.004,0.0376 -0.0122,0.0752 -0.0119,0.11265 2.3e-4,0.0387 0.005,0.0783 0.0139,0.11576 0.0298,0.11877 0.0929,0.21614 0.19637,0.28473 0.0636,0.0422 0.13407,0.0636 0.21136,0.0677 0.005,-0.0178 0.01,-0.0346 0.015,-0.0512 l -0.001,-5.3e-4 c 0.0326,-0.10407 0.077,-0.20336 0.1199,-0.30334 0.0348,-0.0811 0.0535,-0.16652 0.0599,-0.25425 0.003,-0.0432 0.003,-0.0868 0,-0.13022 -0.003,-0.0482 -0.006,-0.0964 -0.0129,-0.14418 -0.009,-0.061 -0.0191,-0.12202 -0.0336,-0.1819 -0.0157,-0.0648 -0.0554,-0.10997 -0.12299,-0.12661 -0.0206,-0.005 -0.0409,-0.007 -0.0615,-0.008 z m 1.36581,0.0279 c 0.0109,0.002 0.0278,0.004 0.0434,0.008 0.0227,0.007 0.0309,0.0233 0.0227,0.046 h -5.3e-4 c -0.015,0.0414 -0.0468,0.0649 -0.0884,0.0718 -0.0388,0.006 -0.0729,-0.008 -0.0982,-0.0388 -0.018,-0.022 -0.011,-0.0482 0.016,-0.063 0.0309,-0.0172 0.0648,-0.0216 0.1049,-0.0243 z m -1.35341,0.032 c 0.04,2.7e-4 0.0785,0.006 0.11162,0.031 0.0212,0.0163 0.0266,0.0383 0.0129,0.0605 -0.0195,0.0316 -0.0489,0.0471 -0.0853,0.0501 -0.0575,0.005 -0.098,-0.0217 -0.12196,-0.0718 v -5.3e-4 c -0.0136,-0.0286 -0.006,-0.0521 0.0258,-0.0631 0.008,-0.003 0.0153,-0.006 0.0233,-0.006 0.011,-10e-4 0.0225,-5.2e-4 0.0336,-5.2e-4 z m 1.55133,1.27383 c -0.0107,-0.001 -0.0215,8e-5 -0.0336,0.004 -0.0348,0.0117 -0.063,0.0299 -0.0713,0.0677 -0.006,0.0255 -0.008,0.0519 -0.0103,0.078 -5.3e-4,0.005 0.005,0.0129 0.01,0.014 0.0268,0.007 0.0542,0.0157 0.0817,0.0181 0.0337,0.003 0.0678,0.002 0.1018,0 0.0367,-0.002 0.0739,-0.004 0.11007,-0.0103 0.0852,-0.0143 0.1671,-0.0375 0.24029,-0.0858 0.0264,-0.0174 0.0529,-0.035 0.0791,-0.0527 l -0.002,-0.004 c -0.028,0.004 -0.0556,0.009 -0.0837,0.0124 l -5.3e-4,5.3e-4 c -0.0573,0.006 -0.11469,0.0127 -0.17209,0.016 -0.0277,0.001 -0.0557,-0.004 -0.0837,-0.006 -0.0469,-0.004 -0.0926,-0.0142 -0.13229,-0.0393 -0.0115,-0.007 -0.0224,-0.0111 -0.0331,-0.0124 z m -1.36839,0.01 c -0.0127,-8e-5 -0.0256,0.005 -0.0362,0.015 -0.0262,0.0247 -0.0488,0.0527 -0.0718,0.0806 -0.0266,0.0322 -0.0515,0.066 -0.0858,0.091 -0.0499,0.0363 -0.10843,0.0509 -0.16692,0.0651 -0.0465,0.0113 -0.0929,0.0222 -0.13952,0.0331 l -5.3e-4,0.006 c 0.0138,0.007 0.0268,0.0145 0.0413,0.0191 0.0711,0.0225 0.14343,0.0337 0.21859,0.0274 0.0543,-0.005 0.10606,-0.0166 0.15503,-0.0398 0.0674,-0.0319 0.11921,-0.0822 0.1633,-0.14107 0.007,-0.01 0.0111,-0.0246 0.0119,-0.0372 0.003,-0.0447 -0.0199,-0.0781 -0.0527,-0.1049 -0.0111,-0.009 -0.024,-0.0139 -0.0367,-0.014 z" />
  </g>
</svg>
