<?xml version="1.0" encoding="UTF-8" standalone="no"?>
<svg
   xmlns:dc="http://purl.org/dc/elements/1.1/"
   xmlns:cc="http://creativecommons.org/ns#"
   xmlns:rdf="http://www.w3.org/1999/02/22-rdf-syntax-ns#"
   xmlns:svg="http://www.w3.org/2000/svg"
   xmlns="http://www.w3.org/2000/svg"
   xmlns:sodipodi="http://sodipodi.sourceforge.net/DTD/sodipodi-0.dtd"
   xmlns:inkscape="http://www.inkscape.org/namespaces/inkscape"
   width="24"
   height="24"
   viewBox="0 0 6.3499999 6.3499999"
   version="1.1"
   id="svg10908"
   inkscape:version="1.0.1 (3bc2e813f5, 2020-09-07)"
   sodipodi:docname="postgresql-complex.svg">
  <title
     id="title11486">postgresql-complex</title>
  <defs
     id="defs10902" />
  <sodipodi:namedview
     id="base"
     pagecolor="#ffffff"
     bordercolor="#666666"
     borderopacity="1.0"
     inkscape:pageopacity="0.0"
     inkscape:pageshadow="2"
     inkscape:zoom="22.4"
     inkscape:cx="12.53886"
     inkscape:cy="5.7062559"
     inkscape:document-units="mm"
     inkscape:current-layer="layer1"
     inkscape:document-rotation="0"
     showgrid="false"
     units="px"
     inkscape:window-width="1140"
     inkscape:window-height="1368"
     inkscape:window-x="1411"
     inkscape:window-y="0"
     inkscape:window-maximized="0"
     inkscape:snap-center="true"
     inkscape:snap-object-midpoints="true"
     inkscape:snap-page="true"
     inkscape:snap-intersection-paths="true"
     inkscape:snap-smooth-nodes="false"
     showguides="true"
     inkscape:guide-bbox="true"
     inkscape:snap-bbox="true"
     inkscape:bbox-paths="true"
     inkscape:bbox-nodes="true"
     inkscape:snap-bbox-edge-midpoints="true"
     inkscape:snap-bbox-midpoints="true">
    <sodipodi:guide
       position="0,6.3499999"
       orientation="1,0"
       id="guide11518" />
  </sodipodi:namedview>
  <metadata
     id="metadata10905">
    <rdf:RDF>
      <cc:Work
         rdf:about="">
        <dc:format>image/svg+xml</dc:format>
        <dc:type
           rdf:resource="http://purl.org/dc/dcmitype/StillImage" />
        <dc:title>postgresql-complex</dc:title>
      </cc:Work>
    </rdf:RDF>
  </metadata>
  <g
     inkscape:label="Layer 1"
     inkscape:groupmode="layer"
     id="layer1"
     transform="translate(-109.4619,-112.48571)">
    <g
       id="postgresql-complex"
       transform="matrix(0.0518318,0,0,0.0518318,109.30593,112.34347)">
      <path
         d="m 93.809,92.112 c 0.785,-6.533 0.55,-7.492 5.416,-6.433 l 1.235,0.108 c 3.742,0.17 8.637,-0.602 11.513,-1.938 6.191,-2.873 9.861,-7.668 3.758,-6.409 C 101.807,80.313 100.85,75.598 100.85,75.598 115.553,53.783 121.699,26.09 116.393,19.311 101.923,0.822 76.876,9.565 76.457,9.791 L 76.323,9.816 C 73.572,9.245 70.493,8.904 67.034,8.848 60.733,8.744 55.952,10.5 52.325,13.25 c 0,0 -44.683,-18.409 -42.604,23.151 0.442,8.841 12.672,66.898 27.26,49.362 5.332,-6.412 10.484,-11.834 10.484,-11.834 2.558,1.699 5.622,2.567 8.834,2.255 l 0.249,-0.212 c -0.078,0.796 -0.044,1.575 0.099,2.497 -3.757,4.199 -2.653,4.936 -10.166,6.482 -7.602,1.566 -3.136,4.355 -0.221,5.084 3.535,0.884 11.712,2.136 17.238,-5.598 l -0.22,0.882 c 1.474,1.18 1.375,8.477 1.583,13.69 0.209,5.214 0.558,10.079 1.621,12.948 1.063,2.868 2.317,10.256 12.191,8.14 8.252,-1.764 14.561,-4.309 15.136,-27.985"
         id="path3966" />
      <path
         d="m 75.458,125.256 c -4.367,0 -7.211,-1.689 -8.938,-3.32 -2.607,-2.46 -3.641,-5.629 -4.259,-7.522 l -0.267,-0.79 C 60.75,110.266 60.328,105.431 60.078,99.205 60.04,98.27 60.014,97.307 59.985,96.286 59.964,95.539 59.938,94.602 59.9,93.622 c -1.553,0.742 -3.213,1.27 -4.962,1.568 -3.079,0.526 -6.389,0.356 -9.84,-0.507 -2.435,-0.609 -4.965,-1.871 -6.407,-3.82 -4.203,3.681 -8.212,3.182 -10.396,2.453 C 24.442,92.031 20.994,88.42 17.753,82.279 15.444,77.904 13.211,72.204 11.115,65.336 7.465,53.376 5.146,40.779 4.94,36.643 4.292,23.698 7.777,14.44 15.296,9.129 27.157,0.751 45.128,5.678 51.68,7.915 56.082,5.262 61.261,3.971 67.113,4.064 c 3.143,0.051 6.136,0.327 8.916,0.823 2.9,-0.912 8.628,-2.221 15.185,-2.139 12.081,0.144 22.092,4.852 28.949,13.615 4.894,6.252 2.474,19.381 0.597,26.651 -2.642,10.226 -7.271,21.102 -12.957,30.57 1.544,0.011 3.781,-0.174 6.961,-0.831 6.274,-1.295 8.109,2.069 8.607,3.575 1.995,6.042 -6.677,10.608 -9.382,11.864 -3.466,1.609 -9.117,2.589 -13.745,2.377 l -0.202,-0.013 -1.216,-0.107 -0.12,1.014 -0.116,0.991 c -0.311,11.999 -2.025,19.598 -5.552,24.619 -3.697,5.264 -8.835,6.739 -13.361,7.709 -1.544,0.33 -2.947,0.474 -4.219,0.474 z m -9.19,-43.671 c 2.819,2.256 3.066,6.501 3.287,14.434 0.028,0.99 0.054,1.927 0.089,2.802 0.106,2.65 0.355,8.855 1.327,11.477 0.137,0.371 0.26,0.747 0.39,1.146 1.083,3.316 1.626,4.979 6.309,3.978 3.931,-0.843 5.952,-1.599 7.534,-3.851 2.299,-3.274 3.585,-9.86 3.821,-19.575 l 4.783,0.116 -4.75,-0.57 0.14,-1.186 c 0.455,-3.91 0.783,-6.734 3.396,-8.602 2.097,-1.498 4.486,-1.353 6.389,-1.01 -2.091,-1.58 -2.669,-3.433 -2.823,-4.193 l -0.399,-1.965 1.121,-1.663 c 6.457,-9.58 11.781,-21.354 14.609,-32.304 2.906,-11.251 2.02,-17.226 1.134,-18.356 C 100.896,7.276 80.557,13.464 78.433,14.166 l -0.359,0.194 -1.8,0.335 -0.922,-0.191 c -2.542,-0.528 -5.366,-0.82 -8.393,-0.869 -4.756,-0.08 -8.593,1.044 -11.739,3.431 l -2.183,1.655 -2.533,-1.043 c -5.412,-2.213 -21.308,-6.662 -29.696,-0.721 -4.656,3.298 -6.777,9.76 -6.305,19.207 0.156,3.119 2.275,14.926 5.771,26.377 4.831,15.825 9.221,21.082 11.054,21.693 0.32,0.108 1.15,-0.537 1.976,-1.529 5.37,-6.459 10.479,-11.844 10.694,-12.07 l 2.77,-2.915 3.349,2.225 c 1.35,0.897 2.839,1.406 4.368,1.502 l 7.987,-6.812 -1.157,11.808 c -0.026,0.265 -0.039,0.626 0.065,1.296 l 0.348,2.238 -1.51,1.688 -0.174,0.196 4.388,2.025 z"
         id="path3968" />
      <path
         fill="#336791"
         d="M 115.731,77.44 C 101.806,80.313 100.849,75.598 100.849,75.598 115.552,53.782 121.698,26.088 116.394,19.311 101.924,0.823 76.875,9.566 76.457,9.793 L 76.322,9.817 C 73.571,9.246 70.492,8.906 67.031,8.85 60.73,8.747 55.951,10.502 52.324,13.252 c 0,0 -44.684,-18.408 -42.606,23.151 0.442,8.842 12.672,66.899 27.26,49.363 5.332,-6.412 10.483,-11.834 10.483,-11.834 2.559,1.699 5.622,2.567 8.833,2.255 l 0.25,-0.212 c -0.078,0.796 -0.042,1.575 0.1,2.497 -3.758,4.199 -2.654,4.936 -10.167,6.482 -7.602,1.566 -3.136,4.355 -0.22,5.084 3.534,0.884 11.712,2.136 17.237,-5.598 l -0.221,0.882 c 1.473,1.18 2.507,7.672 2.334,13.557 -0.174,5.885 -0.29,9.926 0.871,13.082 1.16,3.156 2.316,10.256 12.192,8.14 8.252,-1.768 12.528,-6.351 13.124,-13.995 0.422,-5.435 1.377,-4.631 1.438,-9.49 l 0.767,-2.3 c 0.884,-7.367 0.14,-9.743 5.225,-8.638 l 1.235,0.108 c 3.742,0.17 8.639,-0.602 11.514,-1.938 6.19,-2.871 9.861,-7.667 3.758,-6.408 z"
         id="path3970" />
      <path
         fill="#ffffff"
         d="m 75.957,122.307 c -8.232,0 -10.84,-6.519 -11.907,-9.185 -1.562,-3.907 -1.899,-19.069 -1.551,-31.503 0.024,-0.881 0.754,-1.577 1.64,-1.55 0.881,0.024 1.575,0.758 1.55,1.639 -0.401,14.341 0.168,27.337 1.324,30.229 1.804,4.509 4.54,8.453 12.275,6.796 7.343,-1.575 10.093,-4.359 11.318,-11.46 0.94,-5.449 2.799,-20.951 3.028,-24.01 0.066,-0.878 0.828,-1.539 1.71,-1.472 0.878,0.066 1.537,0.832 1.472,1.71 -0.239,3.185 -2.089,18.657 -3.065,24.315 -1.446,8.387 -5.185,12.191 -13.794,14.037 -1.463,0.313 -2.792,0.453 -4,0.454 z M 31.321,90.466 c -0.785,0 -1.498,-0.145 -2.116,-0.35 C 23.858,88.332 18.765,79.624 14.067,64.231 10.491,52.514 8.225,40.284 8.026,36.309 7.437,24.525 10.471,16.188 17.046,11.531 c 13.007,-9.216 34.888,-0.44 35.813,-0.062 0.815,0.333 1.207,1.265 0.873,2.081 -0.333,0.815 -1.265,1.206 -2.08,0.874 -0.211,-0.086 -21.193,-8.492 -32.768,-0.285 -5.622,3.986 -8.203,11.392 -7.672,22.011 0.167,3.349 2.284,15.285 5.906,27.149 4.194,13.742 8.967,22.413 13.096,23.79 0.648,0.216 2.62,0.873 5.439,-2.517 5.305,-6.382 10.178,-11.476 10.227,-11.526 0.61,-0.636 1.62,-0.657 2.256,-0.047 0.636,0.61 0.658,1.62 0.048,2.255 -0.048,0.05 -4.847,5.067 -10.077,11.359 -2.477,2.979 -4.851,3.853 -6.786,3.853 z M 100.75,77.021 c -0.307,0 -0.617,-0.088 -0.891,-0.272 -0.73,-0.493 -0.924,-1.484 -0.431,-2.215 C 114.291,52.479 119.508,25.83 115.04,20.12 109.416,12.934 101.475,9.181 91.436,8.964 84.003,8.804 78.095,10.702 77.129,11.033 l -0.243,0.099 C 75.915,11.437 75.17,10.905 74.889,10.283 74.556,9.547 74.829,8.677 75.52,8.258 75.566,8.231 75.712,8.169 75.949,8.082 l -0.021,0.006 0.021,-0.007 c 1.641,-0.601 7.639,-2.4 15.068,-2.315 11.108,0.118 20.284,4.401 26.534,12.388 2.957,3.779 2.964,12.485 0.019,23.887 -3.002,11.625 -8.651,24.118 -15.497,34.277 -0.306,0.457 -0.81,0.703 -1.323,0.703 z m 0.76,10.21 c -2.538,0 -4.813,-0.358 -6.175,-1.174 -1.4,-0.839 -1.667,-1.979 -1.702,-2.584 -0.382,-6.71 3.32,-7.878 5.208,-8.411 -0.263,-0.398 -0.637,-0.866 -1.024,-1.349 -1.101,-1.376 -2.609,-3.26 -3.771,-6.078 -0.182,-0.44 -0.752,-1.463 -1.412,-2.648 C 89.055,58.569 81.608,45.214 86.392,38.375 88.606,35.21 93.015,33.964 99.511,34.659 97.6,28.837 88.5,10.625 66.907,10.271 c -6.494,-0.108 -11.82,1.889 -15.822,5.93 -8.96,9.049 -8.636,25.422 -8.631,25.586 0.023,0.881 -0.672,1.614 -1.553,1.637 C 40.02,43.452 39.288,42.752 39.264,41.871 39.244,41.144 38.91,23.962 48.818,13.955 53.455,9.272 59.559,6.96 66.96,7.081 c 13.814,0.227 22.706,7.25 27.732,13.101 5.479,6.377 8.165,13.411 8.386,15.759 0.165,1.746 -1.088,2.095 -1.341,2.147 l -0.576,0.013 c -6.375,-1.021 -10.465,-0.312 -12.156,2.104 -3.639,5.201 3.406,17.834 6.414,23.229 0.768,1.376 1.322,2.371 1.576,2.985 0.988,2.396 2.277,4.006 3.312,5.3 0.911,1.138 1.7,2.125 1.982,3.283 0.131,0.23 1.99,2.98 13.021,0.703 2.765,-0.57 4.423,-0.083 4.93,1.45 0.997,3.015 -4.597,6.532 -7.694,7.97 -2.775,1.29 -7.204,2.106 -11.036,2.106 z M 96.814,83.21 c 0.35,0.353 2.101,0.962 5.727,0.806 3.224,-0.138 6.624,-0.839 8.664,-1.786 2.609,-1.212 4.351,-2.567 5.253,-3.492 l -0.5,0.092 c -7.053,1.456 -12.042,1.262 -14.828,-0.577 -0.199,-0.131 -0.378,-0.267 -0.54,-0.401 -0.302,0.119 -0.581,0.197 -0.78,0.253 -1.58,0.443 -3.214,0.902 -2.996,5.105 z m -45.562,8.915 c -1.752,0 -3.596,-0.239 -5.479,-0.71 -1.951,-0.488 -5.24,-1.957 -5.19,-4.37 0.057,-2.707 3.994,-3.519 5.476,-3.824 5.354,-1.103 5.703,-1.545 7.376,-3.67 0.488,-0.619 1.095,-1.39 1.923,-2.314 1.229,-1.376 2.572,-2.073 3.992,-2.073 0.989,0 1.8,0.335 2.336,0.558 1.708,0.708 3.133,2.42 3.719,4.467 0.529,1.847 0.276,3.625 -0.71,5.006 -3.237,4.533 -7.886,6.93 -13.443,6.93 z M 44.03,87.182 c 0.481,0.372 1.445,0.869 2.518,1.137 1.631,0.408 3.213,0.615 4.705,0.615 4.546,0 8.196,-1.882 10.847,-5.594 0.553,-0.774 0.387,-1.757 0.239,-2.274 -0.31,-1.083 -1.08,-2.068 -1.873,-2.397 -0.43,-0.178 -0.787,-0.314 -1.115,-0.314 -0.176,0 -0.712,0 -1.614,1.009 -0.762,0.851 -1.311,1.548 -1.794,2.162 -2.084,2.646 -3.039,3.544 -9.239,4.821 -1.513,0.31 -2.289,0.626 -2.674,0.835 z m 12.269,-7.36 c -0.774,0 -1.454,-0.565 -1.575,-1.354 -0.04,-0.265 -0.066,-0.531 -0.08,-0.799 -4.064,-0.076 -7.985,-1.82 -10.962,-4.926 -3.764,-3.927 -5.477,-9.368 -4.699,-14.927 0.845,-6.037 0.529,-11.366 0.359,-14.229 -0.047,-0.796 -0.081,-1.371 -0.079,-1.769 0.003,-0.505 0.013,-1.844 4.489,-4.113 1.592,-0.807 4.784,-2.215 8.271,-2.576 5.777,-0.597 9.585,1.976 10.725,7.246 3.077,14.228 0.244,20.521 -1.825,25.117 -0.385,0.856 -0.749,1.664 -1.04,2.447 l -0.257,0.69 c -1.093,2.931 -2.038,5.463 -1.748,7.354 0.134,0.871 -0.464,1.685 -1.335,1.819 z M 42.464,42.26 l 0.062,1.139 c 0.176,2.974 0.504,8.508 -0.384,14.86 -0.641,4.585 0.759,9.06 3.843,12.276 2.437,2.542 5.644,3.945 8.94,3.945 h 0.068 c 0.369,-1.555 0.982,-3.197 1.642,-4.966 l 0.255,-0.686 c 0.329,-0.884 0.714,-1.74 1.122,-2.646 1.991,-4.424 4.47,-9.931 1.615,-23.132 -0.565,-2.615 -1.936,-4.128 -4.189,-4.627 -4.628,-1.022 -11.525,2.459 -12.974,3.837 z m 9.63,-0.677 c -0.08,0.564 1.033,2.07 2.485,2.271 1.449,0.203 2.689,-0.975 2.768,-1.539 0.079,-0.564 -1.033,-1.186 -2.485,-1.388 -1.451,-0.202 -2.691,0.092 -2.768,0.656 z m 2.818,2.826 -0.407,-0.028 c -0.9,-0.125 -1.81,-0.692 -2.433,-1.518 -0.219,-0.29 -0.576,-0.852 -0.505,-1.354 0.101,-0.736 0.999,-1.177 2.4,-1.177 0.313,0 0.639,0.023 0.967,0.069 0.766,0.106 1.477,0.327 2.002,0.62 0.91,0.508 0.977,1.075 0.936,1.368 -0.112,0.813 -1.405,2.02 -2.96,2.02 z m -2.289,-2.732 c 0.045,0.348 0.907,1.496 2.029,1.651 l 0.261,0.018 c 1.036,0 1.81,-0.815 1.901,-1.082 -0.096,-0.182 -0.762,-0.634 -2.025,-0.81 -0.28,-0.04 -0.556,-0.059 -0.821,-0.059 -0.812,0 -1.243,0.183 -1.345,0.282 z m 43.605,-1.245 c 0.079,0.564 -1.033,2.07 -2.484,2.272 -1.45,0.202 -2.691,-0.975 -2.771,-1.539 -0.076,-0.564 1.036,-1.187 2.486,-1.388 1.45,-0.203 2.689,0.092 2.769,0.655 z m -2.819,2.56 c -1.396,0 -2.601,-1.086 -2.7,-1.791 -0.115,-0.846 1.278,-1.489 2.712,-1.688 0.316,-0.044 0.629,-0.066 0.93,-0.066 1.238,0 2.058,0.363 2.14,0.949 0.053,0.379 -0.238,0.964 -0.739,1.492 -0.331,0.347 -1.026,0.948 -1.973,1.079 z m 0.943,-3.013 c -0.276,0 -0.564,0.021 -0.856,0.061 -1.441,0.201 -2.301,0.779 -2.259,1.089 0.048,0.341 0.968,1.332 2.173,1.332 l 0.297,-0.021 c 0.787,-0.109 1.378,-0.623 1.66,-0.919 0.443,-0.465 0.619,-0.903 0.598,-1.052 -0.028,-0.198 -0.56,-0.49 -1.613,-0.49 z m 3.965,32.843 c -0.305,0 -0.613,-0.088 -0.886,-0.27 -0.732,-0.49 -0.929,-1.481 -0.438,-2.213 3.398,-5.075 2.776,-10.25 2.175,-15.255 -0.257,-2.132 -0.521,-4.337 -0.453,-6.453 0.07,-2.177 0.347,-3.973 0.614,-5.71 0.317,-2.058 0.617,-4.002 0.493,-6.31 -0.048,-0.88 0.627,-1.631 1.507,-1.679 0.883,-0.047 1.632,0.627 1.679,1.507 0.142,2.638 -0.197,4.838 -0.525,6.967 -0.253,1.643 -0.515,3.342 -0.578,5.327 -0.061,1.874 0.178,3.864 0.431,5.97 0.64,5.322 1.365,11.354 -2.691,17.411 -0.308,0.459 -0.813,0.708 -1.328,0.708 z"
         id="path3972" />
      <path
         stroke="#ffffff"
         stroke-width="3"
         stroke-linecap="round"
         stroke-linejoin="round"
         d="M 4.335,19.029"
         fill="none"
         id="path3974" />
    </g>
  </g>
</svg>
