<?xml version="1.0" encoding="UTF-8" standalone="no"?>
<svg
   xmlns:dc="http://purl.org/dc/elements/1.1/"
   xmlns:cc="http://creativecommons.org/ns#"
   xmlns:rdf="http://www.w3.org/1999/02/22-rdf-syntax-ns#"
   xmlns:svg="http://www.w3.org/2000/svg"
   xmlns="http://www.w3.org/2000/svg"
   xmlns:sodipodi="http://sodipodi.sourceforge.net/DTD/sodipodi-0.dtd"
   xmlns:inkscape="http://www.inkscape.org/namespaces/inkscape"
   width="24"
   height="24"
   viewBox="0 0 6.3499999 6.3499999"
   version="1.1"
   id="svg10908"
   inkscape:version="1.0.1 (3bc2e813f5, 2020-09-07)"
   sodipodi:docname="postgresql-circle-filled.svg">
  <title
     id="title11486">postgresql-circle-filled</title>
  <defs
     id="defs10902" />
  <sodipodi:namedview
     id="base"
     pagecolor="#ffffff"
     bordercolor="#666666"
     borderopacity="1.0"
     inkscape:pageopacity="0.0"
     inkscape:pageshadow="2"
     inkscape:zoom="22.4"
     inkscape:cx="11.865285"
     inkscape:cy="11.063399"
     inkscape:document-units="mm"
     inkscape:current-layer="layer1"
     inkscape:document-rotation="0"
     showgrid="false"
     units="px"
     inkscape:window-width="1140"
     inkscape:window-height="1368"
     inkscape:window-x="1411"
     inkscape:window-y="0"
     inkscape:window-maximized="0"
     inkscape:snap-center="true"
     inkscape:snap-object-midpoints="true"
     inkscape:snap-page="true"
     inkscape:snap-intersection-paths="true"
     inkscape:snap-smooth-nodes="false"
     showguides="true"
     inkscape:guide-bbox="true"
     inkscape:snap-bbox="true"
     inkscape:bbox-paths="true"
     inkscape:bbox-nodes="true"
     inkscape:snap-bbox-edge-midpoints="true"
     inkscape:snap-bbox-midpoints="true">
    <sodipodi:guide
       position="0,6.3499999"
       orientation="1,0"
       id="guide11518" />
  </sodipodi:namedview>
  <metadata
     id="metadata10905">
    <rdf:RDF>
      <cc:Work
         rdf:about="">
        <dc:format>image/svg+xml</dc:format>
        <dc:type
           rdf:resource="http://purl.org/dc/dcmitype/StillImage" />
        <dc:title>postgresql-circle-filled</dc:title>
      </cc:Work>
    </rdf:RDF>
  </metadata>
  <g
     inkscape:label="Layer 1"
     inkscape:groupmode="layer"
     id="layer1"
     transform="translate(-109.4619,-112.48571)">
    <path
       id="circle-11-9"
       style="fill:#000000;fill-opacity:1;fill-rule:evenodd;stroke:none;stroke-width:0.0916501"
       d="m 112.6369,112.48571 a 3.175,3.1749997 0 0 0 -3.175,3.175 3.175,3.1749997 0 0 0 3.175,3.175 3.175,3.1749997 0 0 0 3.175,-3.175 3.175,3.1749997 0 0 0 -3.175,-3.175 z m 0.70797,1.37563 h 0.34675 c 0.0185,0 0.0368,0.007 0.0553,0.0114 0.0512,0.0102 0.10288,0.0202 0.15348,0.0331 0.0836,0.0213 0.164,0.0527 0.24029,0.093 0.0672,0.0354 0.13164,0.0756 0.18914,0.12558 0.0403,0.035 0.0808,0.07 0.11782,0.10852 0.0462,0.0481 0.09,0.0985 0.11834,0.16019 0.0215,0.0469 0.0374,0.0954 0.0424,0.14677 0.005,0.0448 0.01,0.09 0.01,0.13487 10e-4,0.0564 -0.002,0.1132 -0.006,0.1695 -0.01,0.14093 -0.0411,0.27808 -0.0775,0.41393 -0.038,0.14187 -0.0836,0.28163 -0.14108,0.41703 -0.0348,0.0817 -0.0687,0.16389 -0.108,0.24339 -0.0512,0.10367 -0.10765,0.20475 -0.16175,0.30696 l 0.001,0.004 c 0.029,-0.003 0.0582,-0.004 0.0873,-0.009 0.042,-0.006 0.0835,-0.0162 0.12557,-0.0212 0.0349,-0.005 0.0704,-0.008 0.10542,-0.007 0.0965,0.004 0.17962,0.0691 0.19482,0.16795 l -0.002,5.3e-4 c 0.0106,0.068 -0.0102,0.13058 -0.0537,0.18448 -0.0501,0.0618 -0.11161,0.10948 -0.17932,0.15038 -0.0581,0.0352 -0.11816,0.066 -0.18396,0.0832 -0.0557,0.0146 -0.11218,0.0262 -0.16898,0.0362 -0.0398,0.007 -0.0808,0.008 -0.12144,0.0104 -0.0362,0.001 -0.0727,5.3e-4 -0.10904,0 -0.0103,-2e-4 -0.015,0.003 -0.016,0.0134 -0.001,0.0109 -0.003,0.0217 -0.003,0.0326 -0.001,0.0359 -0.001,0.0722 -0.004,0.108 -0.003,0.0515 -0.008,0.1026 -0.0129,0.154 -0.003,0.0316 -0.005,0.0632 -0.0103,0.0946 -0.007,0.0474 -0.0128,0.0956 -0.0243,0.14211 -0.0145,0.059 -0.0328,0.11707 -0.0522,0.17467 -0.0236,0.0697 -0.0602,0.1328 -0.1049,0.1912 -0.0785,0.10245 -0.18379,0.16588 -0.30541,0.20258 -0.0598,0.018 -0.12102,0.0322 -0.18241,0.0434 -0.0388,0.007 -0.079,0.009 -0.11834,0.007 -0.0952,-0.005 -0.1837,-0.0313 -0.2589,-0.0935 -0.0582,-0.0481 -0.10148,-0.1066 -0.13178,-0.1757 -0.0309,-0.0704 -0.0555,-0.14296 -0.0734,-0.21756 -0.009,-0.037 -0.0131,-0.0748 -0.0181,-0.11265 -0.007,-0.0549 -0.0115,-0.11027 -0.0165,-0.16537 -0.002,-0.0214 -0.002,-0.0431 -0.003,-0.0646 l -0.003,-0.14108 c -0.001,-0.0259 -0.003,-0.0517 -0.004,-0.0785 -0.0252,0.008 -0.0491,0.0178 -0.0739,0.0248 -0.0473,0.0137 -0.0952,0.0238 -0.14469,0.0248 -0.0254,10e-4 -0.0513,0.004 -0.0765,0.003 -0.10411,-0.006 -0.20666,-0.0208 -0.30076,-0.0698 -0.0349,-0.0182 -0.0681,-0.0393 -0.093,-0.0708 -0.006,-0.008 -0.0131,-0.005 -0.0181,-5.3e-4 -0.0481,0.0394 -0.1022,0.066 -0.1633,0.0785 -0.0527,0.0102 -0.10508,0.008 -0.15658,-0.005 -0.0656,-0.0173 -0.122,-0.0517 -0.1726,-0.0966 -0.0768,-0.0682 -0.13387,-0.15128 -0.18397,-0.23978 -0.058,-0.10225 -0.10636,-0.20911 -0.14676,-0.31936 -0.0291,-0.0797 -0.0581,-0.1595 -0.0837,-0.2403 -0.0276,-0.087 -0.0521,-0.17503 -0.0765,-0.26303 -0.016,-0.0576 -0.031,-0.11544 -0.0444,-0.17364 -0.0185,-0.08 -0.0356,-0.16041 -0.0522,-0.24081 -0.012,-0.0576 -0.0236,-0.11573 -0.0336,-0.17363 -0.006,-0.0366 -0.01,-0.0737 -0.015,-0.11059 -0.002,-0.0153 0.0246,-0.0307 -0.009,-0.046 V 114.791 c 0.0338,-0.0163 0.006,-0.0326 0.009,-0.0491 0.008,-0.0529 0.0149,-0.10655 0.0264,-0.15865 0.0213,-0.0961 0.0556,-0.18745 0.10542,-0.27285 0.0473,-0.081 0.10643,-0.15171 0.17983,-0.20981 0.0723,-0.0572 0.15228,-0.10115 0.23978,-0.13125 0.0788,-0.0271 0.15976,-0.0442 0.24236,-0.0512 0.0519,-0.004 0.10448,-0.004 0.15658,-0.003 0.0533,0.001 0.10668,0.005 0.15968,0.0103 0.0553,0.006 0.11117,0.0117 0.16537,0.0238 0.0869,0.0195 0.17278,0.0425 0.25838,0.0672 0.0255,0.007 0.0452,0.01 0.0698,-0.005 0.0575,-0.0337 0.12039,-0.0562 0.18449,-0.0744 0.0767,-0.0218 0.15489,-0.035 0.23409,-0.0356 0.0827,-10e-4 0.16586,0.005 0.24857,0.009 0.0217,0.001 0.0429,0.007 0.0646,0.009 0.0284,0.002 0.0555,0.008 0.0853,-5.3e-4 0.0797,-0.0247 0.16184,-0.0406 0.24494,-0.0496 0.0126,-0.001 0.0251,-0.008 0.0377,-0.008 z m 0.25373,0.10748 c -0.0591,-0.003 -0.11867,1e-4 -0.17777,0.003 -0.053,0.003 -0.10603,0.008 -0.15813,0.017 -0.07,0.0126 -0.13886,0.0305 -0.20826,0.0465 -0.0136,0.003 -0.0274,0.0123 -0.0403,0.0114 -0.0269,-0.003 -0.0533,-0.0115 -0.0801,-0.0155 -0.0553,-0.008 -0.11028,-0.0161 -0.16588,-0.0191 -0.0463,-0.003 -0.0932,1e-4 -0.13953,0.003 -0.0381,0.002 -0.0764,0.005 -0.11369,0.0134 -0.0982,0.0208 -0.19093,0.0575 -0.27543,0.11265 -0.005,0.003 -0.0137,0.003 -0.0207,10e-4 -0.0624,-0.019 -0.12366,-0.0411 -0.18656,-0.0579 -0.0863,-0.0232 -0.17383,-0.0416 -0.26303,-0.0506 -0.0415,-0.005 -0.0825,-0.0118 -0.12402,-0.0124 -0.0948,-0.002 -0.18981,-0.003 -0.28371,0.0155 -0.0633,0.0123 -0.12516,0.0281 -0.18396,0.0543 -0.0841,0.0375 -0.16023,0.0874 -0.22273,0.15658 -0.0381,0.0422 -0.0707,0.0876 -0.0971,0.13746 -0.0434,0.0814 -0.0737,0.1675 -0.0868,0.2589 -0.01,0.066 -0.0192,0.13246 -0.0222,0.19896 -0.004,0.0738 -0.002,0.14819 0.009,0.22169 0.008,0.0545 0.0142,0.10909 0.0243,0.16329 0.015,0.0802 0.0319,0.16009 0.0496,0.23978 0.0156,0.0701 0.0318,0.13989 0.0501,0.20929 0.0243,0.0919 0.0489,0.18412 0.077,0.27492 0.0259,0.0836 0.0557,0.16565 0.0853,0.24805 0.0429,0.11918 0.0928,0.23527 0.15813,0.34416 0.0509,0.085 0.10707,0.16586 0.19017,0.22376 0.0402,0.028 0.0849,0.0456 0.13384,0.0475 0.0762,0.004 0.13975,-0.0277 0.19276,-0.0796 0.0357,-0.0349 0.0666,-0.0746 0.0997,-0.11214 0.0334,-0.0379 0.0672,-0.0759 0.10077,-0.11368 0.0457,-0.0514 0.0909,-0.1034 0.13746,-0.154 0.028,-0.0302 0.0286,-0.0282 0.0667,-0.0114 0.0445,0.0197 0.0907,0.0327 0.13953,0.0377 0.016,0.001 0.0321,0.003 0.0491,0.005 l -0.0408,0.0527 c -0.0258,0.0329 -0.0516,0.0666 -0.093,0.0801 -0.0418,0.0136 -0.0847,0.0246 -0.12764,0.0346 -0.0493,0.0114 -0.0987,0.0215 -0.14418,0.045 -0.0659,0.0339 -0.0871,0.10388 -0.0434,0.15968 0.0182,0.0232 0.0459,0.0412 0.0724,0.0558 0.0652,0.0358 0.13804,0.0467 0.21084,0.0527 0.0444,0.004 0.0898,5.3e-4 0.13436,-0.003 0.0569,-0.004 0.11166,-0.0197 0.16226,-0.046 0.0432,-0.0224 0.0841,-0.0496 0.12557,-0.0744 v 0.003 c 0,0.0815 0.001,0.16293 0.003,0.24443 0.002,0.0663 0.004,0.13266 0.007,0.19896 0.002,0.0522 0.005,0.10396 0.01,0.15606 0.004,0.0468 0.01,0.0936 0.0165,0.14004 0.0152,0.0977 0.0577,0.18412 0.12041,0.25942 0.0656,0.0789 0.15252,0.12277 0.25424,0.13177 0.0587,0.005 0.11832,0.003 0.17622,-0.0103 0.0818,-0.0183 0.16288,-0.04 0.23668,-0.0822 0.0716,-0.0409 0.12773,-0.0965 0.16743,-0.16898 0.0326,-0.0594 0.0526,-0.12323 0.0656,-0.18913 0.0107,-0.0551 0.0189,-0.11029 0.0269,-0.16589 0.006,-0.0362 0.009,-0.0727 0.014,-0.10904 0.005,-0.039 0.011,-0.0778 0.016,-0.11678 0.005,-0.0402 0.009,-0.0807 0.0139,-0.12092 l 0.016,-0.12661 c 0.004,-0.0331 0.008,-0.0664 0.0108,-0.0982 0.0348,0.005 0.0687,0.0129 0.10283,0.014 0.0463,0.002 0.0934,0.002 0.13953,-0.003 0.0542,-0.005 0.10875,-0.0111 0.16175,-0.0233 0.13944,-0.032 0.26143,-0.097 0.35863,-0.20412 0.0205,-0.0226 0.0346,-0.0488 0.0367,-0.0796 0.003,-0.0486 -0.0338,-0.088 -0.0858,-0.092 -0.0523,-0.004 -0.10248,0.0106 -0.15348,0.0176 -0.0514,0.007 -0.10281,0.0146 -0.15451,0.0186 -0.0323,0.003 -0.0653,-1e-4 -0.0977,-0.003 -0.034,-0.004 -0.0679,-0.0109 -0.0977,-0.031 0.0114,-0.0185 0.0228,-0.0372 0.0346,-0.0553 0.0683,-0.10482 0.12717,-0.21479 0.18397,-0.32608 0.03,-0.0587 0.0576,-0.11903 0.0832,-0.17983 0.0347,-0.0822 0.0689,-0.16457 0.0987,-0.24857 0.0323,-0.0912 0.0623,-0.18317 0.0879,-0.27647 0.0309,-0.1129 0.0564,-0.2277 0.0677,-0.34468 0.005,-0.0513 0.0119,-0.10259 0.0124,-0.15399 0.001,-0.0538 -0.004,-0.10753 -0.009,-0.16123 -0.004,-0.0432 -0.0169,-0.0841 -0.0351,-0.12351 -0.0242,-0.0524 -0.0637,-0.0936 -0.10232,-0.13436 -0.0313,-0.0331 -0.0667,-0.0623 -0.10128,-0.092 -0.0529,-0.0453 -0.11132,-0.0824 -0.17312,-0.11421 -0.0827,-0.0426 -0.16975,-0.0729 -0.26045,-0.094 -0.0732,-0.0171 -0.1475,-0.0275 -0.2222,-0.0315 z m -0.0718,0.11628 c 0.0894,0.002 0.17801,0.0111 0.26562,0.0315 0.0898,0.0209 0.17588,0.0516 0.25528,0.0977 0.0501,0.0291 0.097,0.0641 0.14366,0.0987 0.0555,0.041 0.10041,0.093 0.14211,0.14728 0.026,0.0337 0.0358,0.0753 0.0398,0.11679 0.006,0.0549 0.008,0.11026 0.007,0.16536 -0.002,0.0519 -0.009,0.10415 -0.0165,0.15555 -0.0103,0.0658 -0.0216,0.13157 -0.0367,0.19637 -0.0337,0.14431 -0.0773,0.28558 -0.1323,0.42323 -0.0353,0.0884 -0.0718,0.17633 -0.1111,0.26303 -0.061,0.13463 -0.13164,0.26473 -0.21084,0.38964 l -0.009,0.0165 -0.009,-0.007 -0.006,-0.006 c 0.0153,-0.0333 0.031,-0.0654 0.0444,-0.0987 0.0192,-0.0472 0.0317,-0.0964 0.0367,-0.14727 0.003,-0.0422 0.007,-0.0848 0.006,-0.12713 -0.002,-0.0515 -0.007,-0.10311 -0.0124,-0.15451 -0.004,-0.0454 -0.0104,-0.0905 -0.0134,-0.13591 -0.003,-0.0447 -0.006,-0.0898 -0.003,-0.13436 0.003,-0.0469 0.0116,-0.0933 0.0176,-0.14004 0.004,-0.031 0.009,-0.0619 0.0119,-0.093 0.003,-0.0373 0.002,-0.075 0.007,-0.11214 0.006,-0.053 -0.008,-0.10198 -0.0253,-0.15038 -0.0399,-0.10991 -0.094,-0.21289 -0.16175,-0.30799 -0.0351,-0.0492 -0.073,-0.0961 -0.11214,-0.14211 l -5.2e-4,-0.001 c -0.0775,-0.0908 -0.16753,-0.1677 -0.2682,-0.23151 -0.0479,-0.0303 -0.0989,-0.0557 -0.15038,-0.0848 0.048,-0.006 0.0954,-0.0136 0.14314,-0.0186 0.0526,-0.004 0.10543,-0.0103 0.15813,-0.009 z m -0.79272,0.0465 c 0.0811,8e-4 0.16078,0.0114 0.23978,0.0289 0.0823,0.0183 0.16086,0.0472 0.23616,0.0842 0.0631,0.031 0.12208,0.0691 0.17828,0.11162 0.0571,0.0432 0.10952,0.0921 0.15762,0.14469 0.065,0.0711 0.12286,0.14745 0.16846,0.23254 0.0323,0.0603 0.0599,0.12321 0.0894,0.18501 l 10e-4,0.008 c -0.0475,0 -0.0932,-0.002 -0.13901,5.3e-4 -0.0737,0.004 -0.14572,0.0168 -0.21032,0.0563 -0.0697,0.0426 -0.11092,0.10467 -0.12712,0.18397 -0.01,0.0496 -0.009,0.0998 -0.004,0.14986 0.0124,0.11843 0.0512,0.22899 0.10077,0.3359 0.0394,0.0851 0.0833,0.16816 0.12609,0.25167 0.0245,0.0479 0.0532,0.0937 0.0765,0.14211 0.0245,0.051 0.0491,0.10177 0.0832,0.14727 0.0217,0.0291 0.0439,0.0576 0.0661,0.0863 l 0.005,0.007 c -0.0239,0.0113 -0.0482,0.0197 -0.0698,0.0331 -0.0516,0.032 -0.0794,0.0818 -0.0899,0.14004 -0.005,0.0317 -0.004,0.0642 -0.007,0.0966 -0.004,0.0426 -0.008,0.0857 -0.0129,0.12815 -0.003,0.0333 -0.006,0.0665 -0.0104,0.0997 -0.005,0.0429 -0.011,0.0857 -0.016,0.12867 -0.004,0.0299 -0.007,0.06 -0.0109,0.0899 -0.005,0.0401 -0.011,0.0802 -0.016,0.12041 -0.004,0.0353 -0.009,0.0707 -0.0139,0.10593 -0.0136,0.0941 -0.0238,0.18896 -0.0568,0.27906 -0.0171,0.0464 -0.0424,0.0885 -0.078,0.12299 -0.0381,0.0367 -0.0832,0.0633 -0.13333,0.0796 -0.0508,0.0165 -0.10221,0.0324 -0.15451,0.0424 -0.0775,0.0148 -0.15443,0.0118 -0.22583,-0.0284 -0.042,-0.0237 -0.0737,-0.0578 -0.0982,-0.0982 -0.0284,-0.0469 -0.0535,-0.0963 -0.0625,-0.15141 -0.006,-0.0389 -0.011,-0.0781 -0.015,-0.1173 -0.005,-0.0552 -0.009,-0.11048 -0.0134,-0.16589 -0.002,-0.0265 -0.003,-0.0531 -0.003,-0.0796 -0.001,-0.16206 -0.002,-0.32418 -0.003,-0.48627 0,-0.0348 0.004,-0.0696 0.003,-0.10439 -0.001,-0.0628 -0.0237,-0.1168 -0.0667,-0.1633 -0.0323,-0.0349 -0.0719,-0.0554 -0.1173,-0.0661 -0.006,-0.002 -0.0121,-0.002 -0.0181,-0.002 -0.0154,-1.9e-4 -0.0306,0 -0.0496,0 0.0123,-0.0366 0.022,-0.0711 0.0351,-0.10438 0.0395,-0.10079 0.0819,-0.20043 0.11989,-0.3018 0.0209,-0.0557 0.0337,-0.11496 0.0367,-0.17466 0.003,-0.0701 0.007,-0.14022 0.006,-0.21033 -8e-4,-0.048 -0.009,-0.0961 -0.016,-0.14365 -0.009,-0.061 -0.0192,-0.12201 -0.0336,-0.18191 -0.0208,-0.0868 -0.0686,-0.15545 -0.15038,-0.19585 -0.0427,-0.021 -0.0884,-0.031 -0.13642,-0.032 -0.11289,-0.003 -0.21799,0.0266 -0.31936,0.0729 l -0.03,0.0135 c -0.009,0.004 -0.0185,0.009 -0.031,0.016 0.001,-0.0186 0.001,-0.0349 0.004,-0.0512 0.007,-0.0465 0.0143,-0.0929 0.0232,-0.13901 0.0179,-0.0925 0.0443,-0.18284 0.0827,-0.26923 0.0279,-0.063 0.0603,-0.12269 0.10077,-0.17829 0.0345,-0.0473 0.0742,-0.0903 0.11938,-0.12816 0.0809,-0.0678 0.17375,-0.10931 0.27543,-0.13281 0.0674,-0.015 0.13596,-0.0187 0.20516,-0.0181 z m -1.16789,0.007 c 0.0587,0.003 0.11762,0.007 0.17622,0.0129 0.12382,0.0129 0.2443,0.0425 0.36277,0.0801 l 0.0109,0.004 c -0.0364,0.0465 -0.0746,0.0914 -0.10801,0.13901 -0.0488,0.0694 -0.0832,0.14611 -0.11317,0.2253 -0.0317,0.0835 -0.054,0.16995 -0.0708,0.25735 -0.01,0.0521 -0.0152,0.10534 -0.0202,0.15814 -0.005,0.0587 -0.0123,0.11761 -0.009,0.17621 0.004,0.0984 0.0113,0.19667 0.008,0.29507 -0.002,0.0599 -0.006,0.11972 -0.0134,0.17932 -0.006,0.0615 -0.0138,0.1232 -0.009,0.185 0.004,0.0658 0.0203,0.12969 0.046,0.19069 0.0324,0.0763 0.0788,0.14317 0.13849,0.2005 l 0.0165,0.0145 c -0.01,0.0115 -0.0198,0.0232 -0.03,0.0346 -0.0482,0.0538 -0.0967,0.10765 -0.1447,0.16175 -0.0377,0.0425 -0.0743,0.0859 -0.11214,0.12816 -0.0238,0.0267 -0.047,0.0543 -0.0744,0.077 -0.0639,0.0527 -0.11238,0.0456 -0.17519,-0.003 -0.0498,-0.0382 -0.0866,-0.0885 -0.11885,-0.14108 -0.0304,-0.0495 -0.0593,-0.10006 -0.0832,-0.15296 -0.0367,-0.0812 -0.0716,-0.16373 -0.1018,-0.24753 -0.0368,-0.10275 -0.0706,-0.20666 -0.10077,-0.31161 -0.0315,-0.10953 -0.0581,-0.22089 -0.0847,-0.33176 -0.0186,-0.0774 -0.0346,-0.15528 -0.0496,-0.23358 -0.0111,-0.0574 -0.0179,-0.11593 -0.0279,-0.17363 -0.014,-0.0774 -0.0118,-0.15536 -0.009,-0.23306 0.003,-0.0887 0.0159,-0.1766 0.0424,-0.26201 0.0225,-0.0724 0.0538,-0.13998 0.10025,-0.19998 0.0421,-0.0543 0.0921,-0.0999 0.15193,-0.13488 0.0666,-0.0391 0.13894,-0.0633 0.21394,-0.0775 0.0441,-0.008 0.089,-0.009 0.13384,-0.0145 0.0181,-0.002 0.0363,-0.004 0.0543,-0.003 z m 2.11512,0.91054 c 0.0404,0 0.0805,0.002 0.12092,0.003 0.013,5.3e-4 0.0211,0.004 0.0191,0.0196 -0.005,0.0381 -0.008,0.0761 -0.0129,0.1142 l -5.3e-4,5.3e-4 c -0.005,0.0451 -0.013,0.0901 -0.0171,0.13539 -0.003,0.0473 -0.007,0.0948 -0.006,0.14211 10e-4,0.0466 0.007,0.0926 0.0124,0.13901 0.003,0.0333 0.008,0.0669 0.01,0.10026 0.003,0.0546 0.007,0.10931 0.006,0.16381 -0.002,0.0648 -0.0164,0.12737 -0.046,0.19017 -0.0141,-0.0299 -0.0252,-0.0566 -0.0388,-0.0822 -0.0508,-0.0961 -0.10516,-0.19075 -0.15296,-0.28835 -0.0353,-0.0721 -0.0647,-0.14701 -0.093,-0.22221 -0.0212,-0.0562 -0.0343,-0.11468 -0.0403,-0.17518 -0.004,-0.0397 -10e-4,-0.0778 0.01,-0.11576 0.0146,-0.0508 0.0499,-0.0816 0.0966,-0.10076 0.0422,-0.0168 0.0868,-0.0244 0.13229,-0.0238 z m -1.39578,0.0181 c 0.0206,2.6e-4 0.0409,0.003 0.0615,0.008 0.0676,0.0166 0.10728,0.0618 0.12298,0.12661 0.0145,0.0599 0.0246,0.1209 0.0336,0.1819 0.007,0.0477 0.01,0.096 0.0129,0.14418 0.003,0.0434 0.003,0.087 0,0.13022 -0.006,0.0877 -0.0251,0.17315 -0.06,0.25425 -0.0429,0.1 -0.0873,0.19927 -0.11989,0.30334 l 0.001,5.3e-4 c -0.005,0.0166 -0.01,0.0334 -0.015,0.0512 -0.0773,-0.004 -0.14775,-0.0255 -0.21135,-0.0677 -0.1035,-0.0686 -0.16657,-0.16597 -0.19637,-0.28473 -0.009,-0.0374 -0.0137,-0.0771 -0.0139,-0.11576 -2.6e-4,-0.0375 0.008,-0.0751 0.0119,-0.11265 0.002,-0.0245 0.006,-0.0488 0.007,-0.0734 0.003,-0.0757 0.006,-0.15167 0.006,-0.22737 0,-0.0535 -7.9e-4,-0.1072 -0.008,-0.1602 -0.003,-0.025 0.006,-0.0339 0.0238,-0.045 0.0867,-0.0548 0.17995,-0.0924 0.28163,-0.10852 0.0208,-0.003 0.0414,-0.005 0.062,-0.005 z m 1.36581,0.0279 c -0.0401,0.003 -0.074,0.007 -0.1049,0.0243 -0.027,0.0149 -0.034,0.041 -0.016,0.0631 0.0253,0.0309 0.0594,0.0447 0.0982,0.0387 0.0416,-0.007 0.0734,-0.0304 0.0884,-0.0718 h 5.3e-4 c 0.008,-0.0227 -3e-5,-0.039 -0.0227,-0.046 -0.0156,-0.004 -0.0325,-0.006 -0.0434,-0.008 z m -1.35341,0.032 c -0.0111,0 -0.0226,-5.2e-4 -0.0336,5.3e-4 -0.008,0 -0.0153,0.003 -0.0232,0.006 -0.0317,0.0109 -0.0394,0.0344 -0.0259,0.0631 v 5.3e-4 c 0.0239,0.0501 0.0645,0.0768 0.12195,0.0718 0.0364,-0.003 0.0658,-0.0185 0.0853,-0.0501 0.0137,-0.0222 0.008,-0.0442 -0.0129,-0.0605 -0.0331,-0.0253 -0.0716,-0.0307 -0.11162,-0.031 z m 1.55133,1.27383 c 0.0107,0.001 0.0216,0.005 0.0331,0.0124 0.0397,0.0251 0.0854,0.0353 0.13229,0.0393 0.028,0.002 0.056,0.007 0.0837,0.006 0.0574,-0.003 0.11478,-0.01 0.17208,-0.016 l 5.3e-4,-5.3e-4 c 0.0281,-0.003 0.0557,-0.008 0.0837,-0.0124 l 0.002,0.004 c -0.0262,0.0177 -0.0527,0.0353 -0.0791,0.0527 -0.0732,0.0483 -0.1551,0.0715 -0.24029,0.0858 -0.0361,0.006 -0.0734,0.008 -0.11008,0.0103 -0.0339,0.002 -0.0681,0.003 -0.1018,0 -0.0275,-0.002 -0.0549,-0.0111 -0.0816,-0.0181 -0.005,-0.001 -0.0102,-0.009 -0.01,-0.014 0.002,-0.0261 0.004,-0.0525 0.0103,-0.078 0.008,-0.0378 0.0365,-0.056 0.0713,-0.0677 0.0122,-0.004 0.0229,-0.005 0.0336,-0.004 z m -1.36839,0.01 c 0.0127,6e-5 0.0256,0.005 0.0367,0.014 0.0328,0.0267 0.0557,0.0602 0.0527,0.1049 -8e-4,0.0126 -0.005,0.0272 -0.0119,0.0372 -0.0441,0.0589 -0.0959,0.10918 -0.1633,0.14107 -0.049,0.0232 -0.10073,0.0348 -0.15503,0.0398 -0.0752,0.006 -0.14749,-0.005 -0.21859,-0.0274 -0.0145,-0.005 -0.0275,-0.0121 -0.0413,-0.0191 l 5.3e-4,-0.006 c 0.0466,-0.0109 0.093,-0.0218 0.13953,-0.0331 0.0585,-0.0142 0.11701,-0.0288 0.16691,-0.0651 0.0343,-0.025 0.0592,-0.0588 0.0858,-0.091 0.023,-0.0279 0.0456,-0.0559 0.0718,-0.0806 0.0106,-0.01 0.0234,-0.0151 0.0362,-0.015 z" />
  </g>
</svg>
