<?xml version="1.0" encoding="UTF-8" standalone="no"?>
<svg
   xmlns:dc="http://purl.org/dc/elements/1.1/"
   xmlns:cc="http://creativecommons.org/ns#"
   xmlns:rdf="http://www.w3.org/1999/02/22-rdf-syntax-ns#"
   xmlns:svg="http://www.w3.org/2000/svg"
   xmlns="http://www.w3.org/2000/svg"
   xmlns:sodipodi="http://sodipodi.sourceforge.net/DTD/sodipodi-0.dtd"
   xmlns:inkscape="http://www.inkscape.org/namespaces/inkscape"
   width="24"
   height="24"
   viewBox="0 0 6.3499999 6.3499999"
   version="1.1"
   id="svg10908"
   inkscape:version="1.0.1 (3bc2e813f5, 2020-09-07)"
   sodipodi:docname="postgresql-plain.svg">
  <title
     id="title11486">postgresql-plain</title>
  <defs
     id="defs10902" />
  <sodipodi:namedview
     id="base"
     pagecolor="#ffffff"
     bordercolor="#666666"
     borderopacity="1.0"
     inkscape:pageopacity="0.0"
     inkscape:pageshadow="2"
     inkscape:zoom="22.4"
     inkscape:cx="12.53886"
     inkscape:cy="9.2776845"
     inkscape:document-units="mm"
     inkscape:current-layer="layer1"
     inkscape:document-rotation="0"
     showgrid="false"
     units="px"
     inkscape:window-width="1140"
     inkscape:window-height="1368"
     inkscape:window-x="1411"
     inkscape:window-y="0"
     inkscape:window-maximized="0"
     inkscape:snap-center="true"
     inkscape:snap-object-midpoints="true"
     inkscape:snap-page="true"
     inkscape:snap-intersection-paths="true"
     inkscape:snap-smooth-nodes="false"
     showguides="true"
     inkscape:guide-bbox="true"
     inkscape:snap-bbox="true"
     inkscape:bbox-paths="true"
     inkscape:bbox-nodes="true"
     inkscape:snap-bbox-edge-midpoints="true"
     inkscape:snap-bbox-midpoints="true">
    <sodipodi:guide
       position="0,6.3499999"
       orientation="1,0"
       id="guide11518" />
  </sodipodi:namedview>
  <metadata
     id="metadata10905">
    <rdf:RDF>
      <cc:Work
         rdf:about="">
        <dc:format>image/svg+xml</dc:format>
        <dc:type
           rdf:resource="http://purl.org/dc/dcmitype/StillImage" />
        <dc:title>postgresql-plain</dc:title>
      </cc:Work>
    </rdf:RDF>
  </metadata>
  <g
     inkscape:label="Layer 1"
     inkscape:groupmode="layer"
     id="layer1"
     transform="translate(-109.4619,-112.48571)">
    <path
       fill-rule="evenodd"
       clip-rule="evenodd"
       fill="#336791"
       d="m 115.71573,116.33019 c -0.0234,-0.15204 -0.15115,-0.25161 -0.2997,-0.25834 -0.0538,-0.002 -0.10838,0.003 -0.162,0.01 -0.0648,0.008 -0.12875,0.0228 -0.19336,0.0325 -0.0447,0.007 -0.0899,0.01 -0.13453,0.0143 l -0.001,-0.006 c 0.0833,-0.15726 0.17001,-0.31279 0.2488,-0.47228 0.0604,-0.12234 0.11207,-0.24912 0.16548,-0.37485 0.0884,-0.20831 0.15897,-0.42309 0.21744,-0.64135 0.056,-0.209 0.10394,-0.42028 0.119,-0.63709 0.006,-0.0866 0.0102,-0.17356 0.01,-0.26026 -3.9e-4,-0.0691 -0.008,-0.13839 -0.0148,-0.20733 -0.008,-0.079 -0.0317,-0.15386 -0.0647,-0.22592 -0.0436,-0.0949 -0.11109,-0.17284 -0.18216,-0.24683 -0.0569,-0.0592 -0.11947,-0.11322 -0.18153,-0.16715 -0.0885,-0.077 -0.18794,-0.13839 -0.29127,-0.19294 -0.11739,-0.062 -0.24077,-0.11052 -0.36942,-0.14329 -0.0778,-0.0198 -0.15736,-0.0346 -0.23614,-0.0503 -0.0284,-0.006 -0.0567,-0.0176 -0.0851,-0.0176 h -0.5336 c -0.0193,0 -0.0384,0.01 -0.0578,0.0121 -0.12777,0.0142 -0.25402,0.0383 -0.37662,0.0763 -0.0459,0.0142 -0.0877,0.005 -0.1313,0.001 -0.0334,-0.003 -0.0662,-0.012 -0.0996,-0.0137 -0.12724,-0.006 -0.25464,-0.0157 -0.38183,-0.0143 -0.12187,0.001 -0.24249,0.0213 -0.36046,0.0548 -0.0987,0.028 -0.19534,0.0623 -0.28381,0.11417 -0.0379,0.0222 -0.0679,0.018 -0.10708,0.007 -0.13167,-0.038 -0.26428,-0.0737 -0.39803,-0.10364 -0.0834,-0.0186 -0.16908,-0.0279 -0.25422,-0.0368 -0.0816,-0.008 -0.16382,-0.0136 -0.24583,-0.0153 -0.0801,-0.002 -0.16085,-0.002 -0.24062,0.005 -0.12708,0.0113 -0.25177,0.0371 -0.37297,0.0788 -0.13458,0.0463 -0.25797,0.11332 -0.36921,0.20138 -0.11291,0.0894 -0.20347,0.19847 -0.27631,0.32305 -0.0767,0.13146 -0.12938,0.2722 -0.1621,0.42002 -0.0177,0.0801 -0.0289,0.16241 -0.0411,0.24374 -0.004,0.0253 0.0381,0.0507 -0.014,0.0759 v 0.354 c 0.0521,0.0236 0.0108,0.0471 0.0139,0.0707 0.007,0.0568 0.0137,0.11396 0.0232,0.17028 0.0152,0.0891 0.0331,0.17804 0.0515,0.26662 0.0256,0.12375 0.0522,0.2474 0.0806,0.37052 0.0206,0.0896 0.0441,0.17872 0.0687,0.26735 0.0376,0.13537 0.0746,0.271 0.11703,0.40486 0.0394,0.12437 0.0846,0.24697 0.12942,0.36957 0.0621,0.16961 0.13636,0.33374 0.22546,0.49104 0.0771,0.1362 0.16512,0.26376 0.28324,0.3687 0.0778,0.0691 0.1645,0.12229 0.26537,0.14886 0.0793,0.0208 0.15981,0.0233 0.24094,0.007 0.094,-0.0193 0.17731,-0.0598 0.25135,-0.12041 0.008,-0.007 0.0178,-0.0123 0.0279,5.8e-4 0.0383,0.0485 0.0896,0.0809 0.14319,0.10885 0.14469,0.0754 0.30236,0.0981 0.46253,0.10728 0.0388,0.002 0.078,-0.003 0.11703,-0.004 0.0761,-0.002 0.15011,-0.0169 0.2229,-0.038 0.0381,-0.0111 0.0754,-0.0251 0.11422,-0.0381 0.002,0.0413 0.005,0.0811 0.006,0.12093 l 0.005,0.21707 c 9.8e-4,0.033 0.002,0.0662 0.005,0.0991 0.008,0.0848 0.0156,0.1696 0.0257,0.25412 0.007,0.0582 0.0143,0.11697 0.028,0.17382 0.0276,0.11479 0.0649,0.22655 0.11244,0.33493 0.0466,0.10634 0.11369,0.19612 0.20321,0.27016 0.11567,0.0957 0.25125,0.13647 0.39766,0.14402 0.0605,0.003 0.12281,2e-4 0.18242,-0.0106 0.0945,-0.0172 0.18873,-0.0387 0.28069,-0.0664 0.18711,-0.0565 0.34884,-0.15402 0.46967,-0.31164 0.0688,-0.0898 0.12526,-0.187 0.16153,-0.29428 0.0299,-0.0886 0.0581,-0.17815 0.0805,-0.26887 0.0177,-0.0715 0.0265,-0.14521 0.0373,-0.21821 0.007,-0.0483 0.0114,-0.0971 0.0159,-0.14574 0.007,-0.079 0.0148,-0.15803 0.02,-0.23723 0.004,-0.0551 0.004,-0.11052 0.006,-0.16575 6.6e-4,-0.0168 0.003,-0.0336 0.005,-0.0503 0.002,-0.0155 0.009,-0.0209 0.0251,-0.0206 0.0558,7.7e-4 0.11171,0.002 0.16736,-2e-4 0.0624,-0.003 0.12531,-0.005 0.18669,-0.0158 0.0874,-0.0147 0.17434,-0.0331 0.26001,-0.0556 0.10124,-0.0265 0.19409,-0.0739 0.28345,-0.12792 0.1041,-0.0629 0.19898,-0.13667 0.276,-0.23171 0.0669,-0.0829 0.0987,-0.17872 0.0825,-0.28335 z m -0.17778,0.0512 c -0.003,0.0477 -0.0253,0.0885 -0.057,0.12343 -0.14949,0.16481 -0.33701,0.2648 -0.55153,0.31404 -0.0815,0.0187 -0.16559,0.0283 -0.24901,0.0361 -0.071,0.007 -0.14308,0.008 -0.21436,0.005 -0.0524,-0.002 -0.10442,-0.014 -0.15798,-0.0217 -0.005,0.049 -0.0105,0.1 -0.0167,0.1509 l -0.025,0.19513 c -0.008,0.0619 -0.0134,0.1239 -0.0212,0.1857 -0.008,0.06 -0.0171,0.11974 -0.0251,0.17971 -0.008,0.0559 -0.0129,0.11198 -0.0212,0.16773 -0.0128,0.0855 -0.025,0.17111 -0.0416,0.25588 -0.02,0.10135 -0.0507,0.19951 -0.10077,0.29091 -0.0611,0.11155 -0.14767,0.19654 -0.25787,0.25948 -0.11359,0.0649 -0.23775,0.0987 -0.36364,0.12693 -0.0891,0.02 -0.18091,0.0233 -0.27115,0.0152 -0.15652,-0.0142 -0.29012,-0.0811 -0.3911,-0.20248 -0.0964,-0.11583 -0.16163,-0.24859 -0.18497,-0.39886 -0.0112,-0.0714 -0.0192,-0.1435 -0.0256,-0.21551 -0.007,-0.0801 -0.0119,-0.16043 -0.0156,-0.24072 -0.005,-0.10197 -0.008,-0.20394 -0.0103,-0.30591 -0.003,-0.12537 -0.004,-0.25073 -0.005,-0.37609 l -3.1e-4,-0.005 c -0.0638,0.0382 -0.12646,0.0801 -0.19295,0.11463 -0.0778,0.0404 -0.16241,0.0639 -0.24999,0.0705 -0.0687,0.005 -0.13824,0.01 -0.2066,0.004 -0.11207,-0.009 -0.22405,-0.0266 -0.3244,-0.0817 -0.0407,-0.0224 -0.0832,-0.0497 -0.11119,-0.0854 -0.0672,-0.0858 -0.035,-0.19415 0.0663,-0.24631 0.07,-0.0361 0.14646,-0.0512 0.22238,-0.0687 0.066,-0.0153 0.13162,-0.0326 0.19597,-0.0536 0.0637,-0.0208 0.10384,-0.0725 0.14349,-0.12312 l 0.0628,-0.0808 c -0.0262,-0.003 -0.0509,-0.006 -0.0756,-0.008 -0.075,-0.007 -0.14651,-0.0277 -0.21493,-0.058 -0.0586,-0.0259 -0.0594,-0.0287 -0.10239,0.0179 -0.0717,0.0778 -0.14141,0.15752 -0.21165,0.23666 -0.0517,0.0582 -0.10306,0.11677 -0.15449,0.17513 -0.051,0.0577 -0.0987,0.11874 -0.15355,0.17247 -0.0815,0.0798 -0.17971,0.12776 -0.29689,0.12234 -0.0752,-0.003 -0.14402,-0.0298 -0.20592,-0.0729 -0.12776,-0.089 -0.21384,-0.21348 -0.2922,-0.34421 -0.10041,-0.16752 -0.17747,-0.34598 -0.24344,-0.52933 -0.0456,-0.12672 -0.0915,-0.25354 -0.13135,-0.38209 -0.0433,-0.13969 -0.0813,-0.28116 -0.11865,-0.42257 -0.0282,-0.10671 -0.0533,-0.21431 -0.0772,-0.32211 -0.0272,-0.1226 -0.0533,-0.24541 -0.0763,-0.36885 -0.0155,-0.0833 -0.0245,-0.16783 -0.0371,-0.25172 -0.0169,-0.11307 -0.0201,-0.22718 -0.0139,-0.34071 0.005,-0.10229 0.0202,-0.20431 0.0348,-0.30591 0.0202,-0.14058 0.0665,-0.27324 0.13318,-0.3985 0.0408,-0.0768 0.0914,-0.14652 0.15001,-0.21134 0.0961,-0.1064 0.21249,-0.1833 0.34192,-0.24103 0.0905,-0.0403 0.18601,-0.0646 0.2834,-0.0836 0.14453,-0.0281 0.29038,-0.027 0.43627,-0.024 0.0638,0.001 0.12729,0.0129 0.19102,0.0192 0.13719,0.0136 0.27167,0.0425 0.40443,0.0782 0.0968,0.0259 0.19154,0.0596 0.28752,0.0887 0.01,0.003 0.0238,0.003 0.0316,-0.002 0.13005,-0.0849 0.27219,-0.14089 0.42335,-0.17293 0.0574,-0.0121 0.11656,-0.0174 0.17523,-0.0212 0.0713,-0.005 0.14324,-0.009 0.21441,-0.005 0.0856,0.005 0.1707,0.0175 0.25573,0.0292 0.0413,0.006 0.0815,0.0199 0.12292,0.0239 0.0198,0.002 0.0408,-0.0126 0.0617,-0.0174 0.10676,-0.0246 0.21305,-0.0521 0.32075,-0.0716 0.0802,-0.0145 0.1621,-0.0213 0.24365,-0.026 0.0909,-0.005 0.18252,-0.009 0.27339,-0.005 0.11489,0.006 0.22895,0.0219 0.34155,0.0481 0.13948,0.0325 0.27329,0.0796 0.40048,0.14506 0.095,0.0489 0.18539,0.10557 0.26672,0.17528 0.0533,0.0457 0.10786,0.0909 0.156,0.14189 0.0594,0.0628 0.12,0.12572 0.15726,0.20623 0.028,0.0607 0.048,0.12354 0.0536,0.19002 0.007,0.0826 0.0152,0.16559 0.0144,0.24833 -7.4e-4,0.0791 -0.0115,0.15825 -0.0192,0.23719 -0.0174,0.17997 -0.0565,0.35603 -0.10406,0.52975 -0.0393,0.14349 -0.0852,0.28543 -0.1349,0.42569 -0.0458,0.12928 -0.0986,0.2562 -0.15204,0.38261 -0.0394,0.0935 -0.0819,0.18596 -0.12807,0.27631 -0.0874,0.17122 -0.17825,0.34066 -0.28335,0.50193 -0.0181,0.0279 -0.0353,0.0564 -0.053,0.0849 0.0459,0.0309 0.0978,0.0418 0.15012,0.0475 0.0498,0.005 0.10051,0.009 0.15021,0.005 0.0796,-0.006 0.15887,-0.0172 0.23797,-0.0283 0.0784,-0.011 0.15516,-0.0332 0.23561,-0.0274 0.0803,0.006 0.13782,0.0669 0.13235,0.14219 z m -1.14698,-0.17471 c -0.0341,-0.0441 -0.0689,-0.0876 -0.10234,-0.13224 -0.0524,-0.07 -0.0901,-0.14824 -0.12791,-0.22682 -0.0358,-0.0745 -0.0798,-0.14495 -0.11761,-0.21858 -0.0659,-0.12843 -0.13302,-0.25646 -0.19372,-0.3874 -0.0763,-0.16449 -0.13652,-0.33482 -0.15548,-0.51703 -0.008,-0.0771 -0.01,-0.15413 0.006,-0.23051 0.025,-0.12198 0.0887,-0.21738 0.19581,-0.28283 0.0994,-0.0607 0.21008,-0.0803 0.32352,-0.0864 0.0704,-0.004 0.1411,-5.9e-4 0.21415,-5.9e-4 l -0.002,-0.0124 c -0.0454,-0.095 -0.0879,-0.19159 -0.13759,-0.28434 -0.0701,-0.13088 -0.15986,-0.2489 -0.2598,-0.35832 -0.074,-0.081 -0.15423,-0.15621 -0.24208,-0.22265 -0.0864,-0.0654 -0.17741,-0.1238 -0.27454,-0.17158 -0.11582,-0.057 -0.23645,-0.10098 -0.36301,-0.12906 -0.12161,-0.027 -0.24401,-0.0435 -0.36875,-0.0449 -0.1064,-0.001 -0.21212,0.004 -0.31575,0.0277 -0.15642,0.0362 -0.2995,0.10061 -0.42398,0.20492 -0.0695,0.0583 -0.13016,0.12365 -0.18325,0.19644 -0.0623,0.0856 -0.1126,0.17804 -0.15559,0.27496 -0.059,0.13297 -0.0995,0.27136 -0.12713,0.4136 -0.0139,0.0709 -0.0247,0.14246 -0.0357,0.21395 -0.004,0.025 -0.004,0.0506 -0.006,0.0793 0.0192,-0.01 0.0331,-0.0177 0.0473,-0.0246 l 0.0461,-0.0207 c 0.15595,-0.0713 0.31752,-0.11724 0.49119,-0.11197 0.0738,0.002 0.14438,0.0168 0.20998,0.0491 0.12584,0.0621 0.19946,0.16757 0.23145,0.30112 0.0221,0.0922 0.0372,0.18616 0.0519,0.2799 0.0115,0.0732 0.0233,0.1472 0.0247,0.22103 0.002,0.10791 -0.004,0.21603 -0.009,0.32388 -0.005,0.0919 -0.0242,0.18237 -0.0563,0.26814 -0.0584,0.15595 -0.12338,0.30934 -0.18414,0.46441 -0.0201,0.0512 -0.0355,0.10426 -0.0545,0.16058 0.0293,0 0.053,-1.9e-4 0.0768,1.1e-4 0.009,1.6e-4 0.0188,4e-4 0.0277,0.003 0.0698,0.0165 0.13037,0.0481 0.18002,0.10181 0.0662,0.0715 0.10098,0.15491 0.10276,0.25146 9.8e-4,0.0535 -0.005,0.10718 -0.004,0.16069 0.001,0.24938 0.003,0.49875 0.005,0.74807 3.7e-4,0.0407 0.002,0.0815 0.005,0.12224 0.006,0.0852 0.0123,0.17043 0.0206,0.25542 0.006,0.0603 0.014,0.12046 0.0235,0.18033 0.0135,0.0848 0.0521,0.16033 0.0959,0.23249 0.0377,0.0621 0.0868,0.11479 0.15136,0.15116 0.10979,0.0618 0.22801,0.067 0.34718,0.0442 0.0805,-0.0154 0.15954,-0.0401 0.2377,-0.0655 0.0771,-0.0251 0.14667,-0.0661 0.20514,-0.12266 0.0548,-0.0531 0.0936,-0.11781 0.11984,-0.18924 0.0508,-0.13855 0.0667,-0.28444 0.0877,-0.42919 0.008,-0.0542 0.0147,-0.10854 0.0219,-0.16283 0.008,-0.0618 0.0165,-0.12354 0.0244,-0.18528 0.006,-0.046 0.0111,-0.0921 0.0168,-0.13813 0.008,-0.0661 0.0165,-0.13209 0.0242,-0.19821 0.006,-0.0511 0.0109,-0.10244 0.0161,-0.15366 0.007,-0.0654 0.014,-0.13089 0.0198,-0.19643 0.004,-0.0498 0.003,-0.10041 0.0115,-0.14923 0.0162,-0.0895 0.0585,-0.1657 0.13787,-0.21493 0.0332,-0.0206 0.0707,-0.0341 0.10749,-0.0515 z m -3.00109,-0.36747 c -0.0396,-0.0939 -0.0635,-0.19175 -0.0705,-0.29294 -0.007,-0.0951 0.005,-0.18982 0.0144,-0.28449 0.01,-0.0917 0.0173,-0.18383 0.0201,-0.27595 0.005,-0.15141 -0.006,-0.30262 -0.0129,-0.45394 -0.004,-0.0901 0.006,-0.18127 0.0141,-0.27157 0.007,-0.0813 0.0163,-0.16288 0.0316,-0.24301 0.0258,-0.13449 0.06,-0.26704 0.10869,-0.39553 0.0462,-0.12182 0.0993,-0.24046 0.17429,-0.34728 0.0514,-0.0733 0.10968,-0.14173 0.1657,-0.21332 l -0.0166,-0.006 c -0.18227,-0.0579 -0.3675,-0.10312 -0.55799,-0.12287 -0.0901,-0.009 -0.1805,-0.0148 -0.27084,-0.0202 -0.0277,-0.002 -0.0559,0.002 -0.0837,0.005 -0.0689,0.007 -0.1386,0.009 -0.20639,0.0221 -0.11536,0.0219 -0.22603,0.0588 -0.32852,0.1189 -0.092,0.0539 -0.16929,0.12364 -0.23401,0.20727 -0.0715,0.0923 -0.11958,0.19675 -0.15412,0.3081 -0.0408,0.13135 -0.0602,0.26652 -0.0655,0.40293 -0.005,0.11958 -0.007,0.23984 0.0138,0.35895 0.0154,0.0887 0.0256,0.1783 0.0426,0.26662 0.0231,0.12041 0.0478,0.24057 0.0764,0.35973 0.0409,0.17059 0.0817,0.34144 0.13021,0.50995 0.0464,0.16147 0.0987,0.32149 0.15537,0.47957 0.0464,0.12901 0.1,0.25563 0.15648,0.38058 0.0368,0.0814 0.0813,0.1597 0.12802,0.23593 0.0497,0.0809 0.10613,0.15772 0.18278,0.21644 0.0967,0.0742 0.17158,0.0857 0.26985,0.004 0.0421,-0.0349 0.0777,-0.0779 0.11432,-0.1189 0.0582,-0.0651 0.11437,-0.13203 0.17231,-0.19737 0.0738,-0.0833 0.1485,-0.16564 0.22264,-0.24849 0.0157,-0.0175 0.0307,-0.0355 0.046,-0.0532 l -0.0252,-0.0222 c -0.0922,-0.0885 -0.16355,-0.19117 -0.21336,-0.30903 z m 2.79741,-2.47858 c 0.0602,0.0707 0.11854,0.14339 0.17241,0.21905 0.10421,0.14636 0.18748,0.30439 0.2488,0.47347 0.0272,0.0745 0.0488,0.14976 0.0391,0.2313 -0.007,0.0571 -0.006,0.11505 -0.0112,0.17247 -0.004,0.0478 -0.0118,0.0953 -0.018,0.14292 -0.009,0.0718 -0.0227,0.14339 -0.0267,0.21551 -0.004,0.0686 1.6e-4,0.13797 0.004,0.20675 0.004,0.0699 0.0138,0.13943 0.0202,0.2092 0.007,0.0791 0.017,0.15819 0.0192,0.23744 0.002,0.0651 -0.004,0.13058 -0.01,0.19555 -0.007,0.0783 -0.0266,0.15402 -0.0562,0.22671 -0.0208,0.0512 -0.0456,0.10077 -0.0691,0.15199 l 0.009,0.01 0.0143,0.0111 0.0144,-0.0258 c 0.12188,-0.19216 0.23031,-0.39172 0.3242,-0.59884 0.0604,-0.13339 0.11698,-0.26865 0.17127,-0.40464 0.0846,-0.21176 0.15157,-0.42945 0.20336,-0.65147 0.0232,-0.0997 0.041,-0.20086 0.0568,-0.30205 0.0123,-0.0791 0.0226,-0.15913 0.0249,-0.23895 0.002,-0.0847 -0.002,-0.17002 -0.0101,-0.25449 -0.006,-0.0638 -0.0216,-0.12797 -0.0615,-0.17981 -0.0642,-0.0835 -0.13359,-0.1633 -0.21889,-0.22645 -0.0718,-0.0532 -0.14334,-0.10775 -0.2204,-0.15251 -0.12219,-0.0709 -0.25443,-0.11807 -0.39261,-0.15022 -0.13485,-0.0314 -0.27147,-0.045 -0.40897,-0.0478 -0.0811,-0.002 -0.16252,0.007 -0.24344,0.0146 -0.0733,0.007 -0.14615,0.0186 -0.21998,0.0283 0.0792,0.0446 0.1573,0.0841 0.23098,0.13083 0.1549,0.0981 0.29371,0.21619 0.41288,0.35593 z m -2.01255,2.74707 c 0.0501,-0.16012 0.11828,-0.31299 0.18435,-0.4668 0.0536,-0.12475 0.0828,-0.25615 0.0926,-0.39111 0.005,-0.0665 0.004,-0.1339 2.1e-4,-0.20065 -0.004,-0.0742 -0.01,-0.1485 -0.0204,-0.22192 -0.0139,-0.0938 -0.0296,-0.18773 -0.0519,-0.27985 -0.0241,-0.0997 -0.0848,-0.16908 -0.18877,-0.19466 -0.0634,-0.0156 -0.12631,-0.0149 -0.19034,-0.005 -0.15642,0.0247 -0.29961,0.0823 -0.43299,0.16668 -0.0268,0.017 -0.0416,0.0307 -0.0369,0.0692 0.01,0.0815 0.0119,0.16439 0.0116,0.24672 -5.2e-4,0.1165 -0.005,0.23301 -0.01,0.34946 -0.001,0.0379 -0.007,0.0757 -0.011,0.11344 -0.006,0.0578 -0.0183,0.11562 -0.0179,0.17335 3.7e-4,0.0595 0.007,0.12041 0.0209,0.17804 0.0459,0.18273 0.14297,0.33227 0.30215,0.43779 0.0979,0.0649 0.20623,0.0976 0.32514,0.10379 0.008,-0.0273 0.0153,-0.0531 0.0232,-0.0786 z m -0.18685,-1.56768 c -0.0209,-0.044 -0.009,-0.0804 0.0396,-0.0973 0.0118,-0.004 0.024,-0.009 0.0363,-0.01 0.0169,-0.002 0.0341,-4e-4 0.0512,-4e-4 0.0616,4e-4 0.12083,0.009 0.17169,0.0481 0.0326,0.0251 0.0414,0.0585 0.0203,0.0927 -0.03,0.0486 -0.0757,0.0729 -0.13178,0.0776 -0.0884,0.007 -0.15048,-0.0339 -0.18726,-0.11094 z m 2.45101,-0.0161 c 0.007,-0.0586 0.0128,-0.11729 0.02,-0.17585 0.003,-0.0236 -0.009,-0.0299 -0.0292,-0.0305 -0.0621,-0.002 -0.12421,-0.004 -0.18632,-0.005 -0.07,-10e-4 -0.13819,0.01 -0.203,0.0366 -0.0719,0.0296 -0.12667,0.077 -0.14902,0.15527 -0.0167,0.0584 -0.0212,0.11666 -0.0153,0.17768 0.009,0.093 0.0296,0.18325 0.0622,0.26969 0.0435,0.11573 0.0889,0.2314 0.14328,0.34228 0.0736,0.15011 0.15694,0.29543 0.23515,0.44325 0.0209,0.0394 0.0384,0.0806 0.0602,0.12667 0.0456,-0.0966 0.0678,-0.1932 0.0704,-0.29293 0.002,-0.0839 -0.005,-0.16815 -0.01,-0.25209 -0.003,-0.0514 -0.0103,-0.10243 -0.0153,-0.15371 -0.007,-0.0714 -0.0176,-0.14281 -0.0192,-0.21441 -0.002,-0.0728 0.004,-0.14599 0.01,-0.21868 0.006,-0.0697 0.0174,-0.13886 0.0258,-0.20826 z m -0.14011,-0.0564 c -0.0231,0.0637 -0.0724,0.0997 -0.13641,0.11025 -0.0597,0.01 -0.11192,-0.0122 -0.15079,-0.0598 -0.0277,-0.0339 -0.0171,-0.074 0.0244,-0.0969 0.0476,-0.0264 0.1,-0.033 0.16173,-0.037 0.0168,0.003 0.0421,0.006 0.0661,0.0125 0.0349,0.01 0.0477,0.0361 0.035,0.071 z m -1.84566,1.96227 c -0.0341,-0.0279 -0.0793,-0.0295 -0.11171,0.001 -0.0403,0.038 -0.0757,0.0815 -0.11114,0.12442 -0.0409,0.0496 -0.0793,0.10109 -0.13203,0.13949 -0.0768,0.0558 -0.16632,0.0789 -0.25631,0.10082 -0.0715,0.0174 -0.14339,0.0336 -0.21514,0.0503 l -8.8e-4,0.009 c 0.0213,0.01 0.0419,0.0221 0.0641,0.0292 0.10942,0.0346 0.22071,0.0519 0.33633,0.0421 0.0835,-0.007 0.16299,-0.0253 0.23833,-0.061 0.10369,-0.0491 0.18346,-0.12698 0.2513,-0.21754 0.0114,-0.0151 0.0165,-0.0375 0.0179,-0.057 0.005,-0.0688 -0.0303,-0.11999 -0.0808,-0.16116 z m 2.69648,0.0274 c -0.0881,0.009 -0.17622,0.0194 -0.26453,0.0245 -0.0426,0.002 -0.0859,-0.006 -0.12891,-0.009 -0.0722,-0.006 -0.14261,-0.0219 -0.20363,-0.0604 -0.0353,-0.0223 -0.0647,-0.0248 -0.10217,-0.0121 -0.0536,0.018 -0.0973,0.0454 -0.11021,0.10348 -0.009,0.0392 -0.012,0.0799 -0.0155,0.12005 -6.6e-4,0.007 0.008,0.0201 0.0149,0.0219 0.0413,0.0109 0.0828,0.0238 0.12511,0.0276 0.0519,0.005 0.10473,0.003 0.15699,5.8e-4 0.0564,-0.003 0.11322,-0.006 0.16882,-0.0158 0.13104,-0.022 0.25781,-0.0578 0.37041,-0.13214 0.0406,-0.0268 0.0808,-0.0542 0.12115,-0.0814 l -0.003,-0.006 c -0.043,0.006 -0.0859,0.0142 -0.12912,0.0188 z"
       id="postgresql"
       style="fill:#000000;fill-opacity:1;stroke-width:0.0521049" />
  </g>
</svg>
