<?xml version="1.0" encoding="UTF-8" standalone="no"?>
<svg
   xmlns:dc="http://purl.org/dc/elements/1.1/"
   xmlns:cc="http://creativecommons.org/ns#"
   xmlns:rdf="http://www.w3.org/1999/02/22-rdf-syntax-ns#"
   xmlns:svg="http://www.w3.org/2000/svg"
   xmlns="http://www.w3.org/2000/svg"
   xmlns:sodipodi="http://sodipodi.sourceforge.net/DTD/sodipodi-0.dtd"
   xmlns:inkscape="http://www.inkscape.org/namespaces/inkscape"
   width="24"
   height="24"
   viewBox="0 0 6.3499999 6.3499999"
   version="1.1"
   id="svg10908"
   inkscape:version="1.0.1 (3bc2e813f5, 2020-09-07)"
   sodipodi:docname="python-circle-outline.svg">
  <title
     id="title11486">python-circle-outline</title>
  <defs
     id="defs10902" />
  <sodipodi:namedview
     id="base"
     pagecolor="#ffffff"
     bordercolor="#666666"
     borderopacity="1.0"
     inkscape:pageopacity="0.0"
     inkscape:pageshadow="2"
     inkscape:zoom="22.4"
     inkscape:cx="11.865285"
     inkscape:cy="11.063399"
     inkscape:document-units="mm"
     inkscape:current-layer="layer1"
     inkscape:document-rotation="0"
     showgrid="false"
     units="px"
     inkscape:window-width="1140"
     inkscape:window-height="1368"
     inkscape:window-x="1411"
     inkscape:window-y="0"
     inkscape:window-maximized="0"
     inkscape:snap-center="true"
     inkscape:snap-object-midpoints="true"
     inkscape:snap-page="true"
     inkscape:snap-intersection-paths="true"
     inkscape:snap-smooth-nodes="false"
     showguides="true"
     inkscape:guide-bbox="true"
     inkscape:snap-bbox="true"
     inkscape:bbox-paths="true"
     inkscape:bbox-nodes="true"
     inkscape:snap-bbox-edge-midpoints="true"
     inkscape:snap-bbox-midpoints="true">
    <sodipodi:guide
       position="0,6.3499999"
       orientation="1,0"
       id="guide11518" />
  </sodipodi:namedview>
  <metadata
     id="metadata10905">
    <rdf:RDF>
      <cc:Work
         rdf:about="">
        <dc:format>image/svg+xml</dc:format>
        <dc:type
           rdf:resource="http://purl.org/dc/dcmitype/StillImage" />
        <dc:title>python-circle-outline</dc:title>
      </cc:Work>
    </rdf:RDF>
  </metadata>
  <g
     inkscape:label="Layer 1"
     inkscape:groupmode="layer"
     id="layer1"
     transform="translate(-109.4619,-112.48571)">
    <path
       id="circle-2-4-0-0-4-8"
       style="fill:#000000;fill-opacity:1;fill-rule:evenodd;stroke:none;stroke-width:0.0916501"
       d="m 112.6369,112.48571 a 3.175,3.1749997 0 0 0 -3.175,3.175 3.175,3.1749997 0 0 0 3.175,3.175 3.175,3.1749997 0 0 0 3.175,-3.175 3.175,3.1749997 0 0 0 -3.175,-3.175 z m -0.005,0.52917 a 2.6458332,2.6458332 0 0 1 0.005,0 2.6458332,2.6458332 0 0 1 2.64583,2.64583 2.6458332,2.6458332 0 0 1 -2.64583,2.64583 2.6458332,2.6458332 0 0 1 -2.64583,-2.64583 2.6458332,2.6458332 0 0 1 2.64066,-2.64583 z m -0.0238,0.26458 c -0.1942,7.9e-4 -0.37425,0.0176 -0.53743,0.0465 -0.48084,0.0849 -0.56224,0.26278 -0.56224,0.59066 v 0.42065 h 1.12859 v 0.15606 h -1.56528 c -0.33018,0 -0.61962,0.19856 -0.71003,0.57619 -0.10434,0.43277 -0.10898,0.69739 0,1.14929 0.0808,0.33632 0.27386,0.5705 0.60409,0.5705 h 0.38706 v -0.50798 c 0,-0.37505 0.32777,-0.69866 0.71314,-0.69866 h 1.13481 c 0.3159,0 0.56482,-0.26723 0.56482,-0.58446 v -1.08159 c 0,-0.30793 -0.25802,-0.5393 -0.56637,-0.59066 -0.19514,-0.0325 -0.3969,-0.0473 -0.59118,-0.0465 z m -0.6134,0.3483 c 0.11734,0 0.21291,0.0972 0.21291,0.21704 -4e-5,0.11932 -0.0956,0.21601 -0.21291,0.21601 -0.11777,0 -0.21342,-0.0967 -0.21342,-0.21601 0,-0.11982 0.0956,-0.21704 0.21342,-0.21704 z m 1.9265,0.86558 v 0.50488 c 0,0.39114 -0.3422,0.70125 -0.72037,0.70125 h -1.13481 c -0.31088,0 -0.55759,0.2855 -0.55759,0.59686 v 1.08159 c 0,0.30785 0.26242,0.48888 0.56275,0.57722 0.3597,0.10574 0.70035,0.12485 1.13069,0 0.28601,-0.0829 0.56378,-0.24942 0.56378,-0.57722 v -0.43305 h -1.12863 v -0.15555 h 1.70015 c 0.33019,0 0.45304,-0.22476 0.56793,-0.5705 0.11858,-0.35592 0.11348,-0.69277 0,-1.14929 -0.0817,-0.32879 -0.23727,-0.57619 -0.56793,-0.57619 z m -0.64854,2.7404 c 0.1178,0 0.21291,0.0966 0.21291,0.21601 0,0.11971 -0.0951,0.21704 -0.21291,0.21704 -0.11734,0 -0.21342,-0.0973 -0.21342,-0.21704 0,-0.1194 0.0961,-0.21601 0.21342,-0.21601 z" />
  </g>
</svg>
