<?xml version="1.0" encoding="UTF-8" standalone="no"?>
<svg
   xmlns:dc="http://purl.org/dc/elements/1.1/"
   xmlns:cc="http://creativecommons.org/ns#"
   xmlns:rdf="http://www.w3.org/1999/02/22-rdf-syntax-ns#"
   xmlns:svg="http://www.w3.org/2000/svg"
   xmlns="http://www.w3.org/2000/svg"
   xmlns:sodipodi="http://sodipodi.sourceforge.net/DTD/sodipodi-0.dtd"
   xmlns:inkscape="http://www.inkscape.org/namespaces/inkscape"
   width="24"
   height="24"
   viewBox="0 0 6.3499999 6.3499999"
   version="1.1"
   id="svg10908"
   inkscape:version="1.0.1 (3bc2e813f5, 2020-09-07)"
   sodipodi:docname="python-square-filled.svg">
  <title
     id="title11486">python-square-filled</title>
  <defs
     id="defs10902" />
  <sodipodi:namedview
     id="base"
     pagecolor="#ffffff"
     bordercolor="#666666"
     borderopacity="1.0"
     inkscape:pageopacity="0.0"
     inkscape:pageshadow="2"
     inkscape:zoom="22.4"
     inkscape:cx="11.865285"
     inkscape:cy="11.063399"
     inkscape:document-units="mm"
     inkscape:current-layer="layer1"
     inkscape:document-rotation="0"
     showgrid="false"
     units="px"
     inkscape:window-width="1140"
     inkscape:window-height="1368"
     inkscape:window-x="1411"
     inkscape:window-y="0"
     inkscape:window-maximized="0"
     inkscape:snap-center="true"
     inkscape:snap-object-midpoints="true"
     inkscape:snap-page="true"
     inkscape:snap-intersection-paths="true"
     inkscape:snap-smooth-nodes="false"
     showguides="true"
     inkscape:guide-bbox="true"
     inkscape:snap-bbox="true"
     inkscape:bbox-paths="true"
     inkscape:bbox-nodes="true"
     inkscape:snap-bbox-edge-midpoints="true"
     inkscape:snap-bbox-midpoints="true">
    <sodipodi:guide
       position="0,6.3499999"
       orientation="1,0"
       id="guide11518" />
  </sodipodi:namedview>
  <metadata
     id="metadata10905">
    <rdf:RDF>
      <cc:Work
         rdf:about="">
        <dc:format>image/svg+xml</dc:format>
        <dc:type
           rdf:resource="http://purl.org/dc/dcmitype/StillImage" />
        <dc:title>python-square-filled</dc:title>
      </cc:Work>
    </rdf:RDF>
  </metadata>
  <g
     inkscape:label="Layer 1"
     inkscape:groupmode="layer"
     id="layer1"
     transform="translate(-109.4619,-112.48571)">
    <path
       id="square-1-1"
       style="fill:#000000;fill-opacity:1;fill-rule:evenodd;stroke:none;stroke-width:0.0694534"
       d="m 109.4619,112.48571 v 6.35 h 6.35 v -6.35 z m 3.14606,0.79375 c 0.19428,-7.9e-4 0.39604,0.014 0.59118,0.0465 0.30835,0.0514 0.56637,0.28273 0.56637,0.59066 v 1.08159 c 0,0.31723 -0.24892,0.58446 -0.56482,0.58446 h -1.13481 c -0.38537,0 -0.71314,0.32362 -0.71314,0.69867 v 0.50797 h -0.38705 c -0.33023,0 -0.5233,-0.23417 -0.6041,-0.5705 -0.10898,-0.4519 -0.10434,-0.71652 0,-1.14929 0.0904,-0.37763 0.37985,-0.57619 0.71003,-0.57619 h 1.56528 v -0.15606 h -1.12861 v -0.42065 c 0,-0.32788 0.0814,-0.50576 0.56224,-0.59066 0.16318,-0.0289 0.34323,-0.0457 0.53743,-0.0465 z m -0.61339,0.3483 c -0.11781,0 -0.21343,0.0972 -0.21343,0.21704 0,0.1193 0.0957,0.21601 0.21343,0.21601 0.11734,0 0.21286,-0.0967 0.2129,-0.21601 0,-0.1198 -0.0956,-0.21704 -0.2129,-0.21704 z m 1.92649,0.86558 h 0.416 c 0.33066,0 0.48622,0.2474 0.56792,0.57619 0.11348,0.45652 0.11858,0.79337 0,1.14929 -0.11489,0.34575 -0.23773,0.5705 -0.56792,0.5705 h -1.70016 v 0.15555 h 1.12861 v 0.43305 c 10e-6,0.3278 -0.27777,0.49432 -0.56378,0.57723 -0.43033,0.12485 -0.77099,0.10573 -1.13068,0 -0.30034,-0.0883 -0.56276,-0.26938 -0.56276,-0.57723 v -1.0821 c 0,-0.31136 0.24671,-0.59635 0.55759,-0.59635 h 1.13481 c 0.37817,0 0.72037,-0.31011 0.72037,-0.70125 z m -0.64854,2.7404 c -0.1173,0 -0.21342,0.0966 -0.21342,0.21601 0,0.11972 0.0961,0.21704 0.21342,0.21704 0.11783,0 0.21291,-0.0973 0.21291,-0.21704 0,-0.11938 -0.0951,-0.21601 -0.21291,-0.21601 z" />
  </g>
</svg>
