<?xml version="1.0" encoding="UTF-8" standalone="no"?>
<svg
   xmlns:dc="http://purl.org/dc/elements/1.1/"
   xmlns:cc="http://creativecommons.org/ns#"
   xmlns:rdf="http://www.w3.org/1999/02/22-rdf-syntax-ns#"
   xmlns:svg="http://www.w3.org/2000/svg"
   xmlns="http://www.w3.org/2000/svg"
   xmlns:sodipodi="http://sodipodi.sourceforge.net/DTD/sodipodi-0.dtd"
   xmlns:inkscape="http://www.inkscape.org/namespaces/inkscape"
   width="24"
   height="24"
   viewBox="0 0 6.3499999 6.3499999"
   version="1.1"
   id="svg10908"
   inkscape:version="1.0.1 (3bc2e813f5, 2020-09-07)"
   sodipodi:docname="github-roundedsquare-outline-black.svg">
  <title
     id="title11486">github-roundedsquare-outline-black</title>
  <defs
     id="defs10902" />
  <sodipodi:namedview
     id="base"
     pagecolor="#ffffff"
     bordercolor="#666666"
     borderopacity="1.0"
     inkscape:pageopacity="0.0"
     inkscape:pageshadow="2"
     inkscape:zoom="22.4"
     inkscape:cx="11.239633"
     inkscape:cy="11.063399"
     inkscape:document-units="mm"
     inkscape:current-layer="layer1"
     inkscape:document-rotation="0"
     showgrid="false"
     units="px"
     inkscape:window-width="1274"
     inkscape:window-height="1368"
     inkscape:window-x="1277"
     inkscape:window-y="1080"
     inkscape:window-maximized="0"
     inkscape:snap-center="true"
     inkscape:snap-object-midpoints="true"
     inkscape:snap-page="true"
     inkscape:snap-intersection-paths="true"
     inkscape:snap-smooth-nodes="false"
     showguides="true"
     inkscape:guide-bbox="true"
     inkscape:snap-bbox="true"
     inkscape:bbox-paths="true"
     inkscape:bbox-nodes="true"
     inkscape:snap-bbox-edge-midpoints="true"
     inkscape:snap-bbox-midpoints="true">
    <sodipodi:guide
       position="0,6.3499999"
       orientation="1,0"
       id="guide11518" />
  </sodipodi:namedview>
  <metadata
     id="metadata10905">
    <rdf:RDF>
      <cc:Work
         rdf:about="">
        <dc:format>image/svg+xml</dc:format>
        <dc:type
           rdf:resource="http://purl.org/dc/dcmitype/StillImage" />
        <dc:title>github-roundedsquare-outline-black</dc:title>
      </cc:Work>
    </rdf:RDF>
  </metadata>
  <g
     inkscape:label="Layer 1"
     inkscape:groupmode="layer"
     id="layer1"
     transform="translate(-109.4619,-112.48571)">
    <path
       id="roundedsquare-outline-2-2-3"
       style="fill:#000000;fill-opacity:1;fill-rule:evenodd;stroke:none;stroke-width:0.529071;stroke-linejoin:round;stroke-miterlimit:4;stroke-dasharray:none;stroke-opacity:1"
       d="m 110.32851,112.48571 c -0.47997,0 -0.86661,0.38664 -0.86661,0.86661 v 4.61678 c 0,0.47997 0.38664,0.86661 0.86661,0.86661 h 4.61678 c 0.47997,0 0.86661,-0.38664 0.86661,-0.86661 v -4.61678 c 0,-0.47997 -0.38664,-0.86661 -0.86661,-0.86661 z m 0.19172,0.52917 h 4.23334 c 0.29316,0 0.52916,0.236 0.52916,0.52916 v 4.23334 c 0,0.29315 -0.236,0.52916 -0.52916,0.52916 h -1.42214 c -0.005,-0.39876 0.001,-0.81727 0.001,-1.13636 0,-0.27863 -0.0954,-0.46024 -0.20257,-0.55294 0.66514,-0.074 1.36425,-0.32707 1.36425,-1.47433 0,-0.32611 -0.11646,-0.59227 -0.30799,-0.8015 0.031,-0.0752 0.13368,-0.37874 -0.0289,-0.79013 0,0 -0.25101,-0.0805 -0.82113,0.30592 -0.2388,-0.0662 -0.49401,-0.0992 -0.74776,-0.10025 -0.2539,10e-4 -0.50996,0.034 -0.74828,0.10025 -0.42811,-0.28983 -0.6758,-0.31711 -0.77308,-0.31264 -0.0324,0.002 -0.0481,0.007 -0.0481,0.007 -0.1622,0.41143 -0.0599,0.71547 -0.0289,0.79065 -0.19108,0.20923 -0.308,0.47487 -0.308,0.80099 0,1.14453 0.69718,1.40096 1.36065,1.47639 -0.0854,0.0746 -0.16233,0.20692 -0.18914,0.39998 -0.17045,0.0763 -0.6033,0.20798 -0.86972,-0.24857 0,0 -0.15743,-0.28695 -0.45733,-0.30799 0,0 -0.29177,-0.004 -0.0207,0.18139 0,0 0.19588,0.0919 0.33176,0.43718 0,0 0.17515,0.53313 1.00614,0.35243 0.003,0.29091 0.005,0.5819 0.003,0.87282 h -1.32656 c -0.29316,0 -0.52916,-0.23601 -0.52916,-0.52917 v -4.23333 c 0,-0.29316 0.236,-0.52917 0.52916,-0.52917 z m 0.154,3.5357 c 0.009,-0.002 0.0207,9e-5 0.0315,0.005 0.0218,0.01 0.0345,0.0301 0.0269,0.045 -0.007,0.0148 -0.0299,0.0194 -0.0511,0.009 -0.0218,-0.01 -0.0345,-0.0301 -0.0274,-0.045 0.003,-0.008 0.0108,-0.0129 0.0202,-0.0145 z m 0.13849,0.10387 h 5.3e-4 c 0.011,0.002 0.0218,0.009 0.0315,0.0191 0.0195,0.0211 0.0238,0.0486 0.009,0.062 -0.0142,0.0132 -0.042,0.008 -0.061,-0.0134 -0.0196,-0.0208 -0.0237,-0.0486 -0.009,-0.062 0.007,-0.006 0.018,-0.008 0.0289,-0.006 z m 0.12558,0.15399 c 0.0121,0.005 0.0237,0.0142 0.0331,0.0274 0.0182,0.027 0.0188,0.0589 0,0.0718 -0.0183,0.0128 -0.0482,0.001 -0.0667,-0.0253 -0.0183,-0.0266 -0.0189,-0.0586 0,-0.0713 0.009,-0.006 0.0216,-0.007 0.0336,-0.003 z m 0.13539,0.16743 h 5.3e-4 c 0.0139,0.002 0.0292,0.01 0.0418,0.0217 0.0261,0.0241 0.034,0.0585 0.0165,0.0765 -0.0163,0.0181 -0.0515,0.0132 -0.077,-0.0114 -0.0261,-0.0241 -0.0335,-0.0585 -0.0171,-0.0765 0.008,-0.009 0.0212,-0.0122 0.0351,-0.0104 z m 0.185,0.13281 c 0.0136,-0.004 0.0305,-0.005 0.0475,5.3e-4 0.0338,0.0102 0.0557,0.0377 0.0486,0.0615 -0.007,0.0235 -0.0405,0.0338 -0.0744,0.0238 -0.0338,-0.0102 -0.0561,-0.0373 -0.0491,-0.061 0.003,-0.0118 0.0138,-0.0204 0.0274,-0.0248 z m 0.49713,0.008 c 0.0353,-0.006 0.0669,0.008 0.0713,0.0326 0.004,0.024 -0.0205,0.0487 -0.0558,0.0553 -0.0346,0.007 -0.0669,-0.008 -0.0713,-0.032 -0.004,-0.0246 0.0212,-0.0494 0.0558,-0.0558 z m -0.22066,0.0279 c 0.0355,-5.3e-4 0.0641,0.019 0.0641,0.0434 0.001,0.0246 -0.0275,0.0455 -0.063,0.046 -0.0358,7.9e-4 -0.0649,-0.0192 -0.0651,-0.0434 0,-0.0249 0.0284,-0.0452 0.0641,-0.046 z" />
  </g>
</svg>
