<?xml version="1.0" encoding="UTF-8" standalone="no"?>
<svg
   xmlns:dc="http://purl.org/dc/elements/1.1/"
   xmlns:cc="http://creativecommons.org/ns#"
   xmlns:rdf="http://www.w3.org/1999/02/22-rdf-syntax-ns#"
   xmlns:svg="http://www.w3.org/2000/svg"
   xmlns="http://www.w3.org/2000/svg"
   xmlns:sodipodi="http://sodipodi.sourceforge.net/DTD/sodipodi-0.dtd"
   xmlns:inkscape="http://www.inkscape.org/namespaces/inkscape"
   width="24"
   height="24"
   viewBox="0 0 6.3499999 6.3499999"
   version="1.1"
   id="svg10908"
   inkscape:version="1.0.1 (3bc2e813f5, 2020-09-07)"
   sodipodi:docname="inkscape-circle-outline.svg">
  <title
     id="title11486">inkscape-circle-outline</title>
  <defs
     id="defs10902" />
  <sodipodi:namedview
     id="base"
     pagecolor="#ffffff"
     bordercolor="#666666"
     borderopacity="1.0"
     inkscape:pageopacity="0.0"
     inkscape:pageshadow="2"
     inkscape:zoom="22.4"
     inkscape:cx="11.239633"
     inkscape:cy="11.063399"
     inkscape:document-units="mm"
     inkscape:current-layer="layer1"
     inkscape:document-rotation="0"
     showgrid="false"
     units="px"
     inkscape:window-width="1140"
     inkscape:window-height="1368"
     inkscape:window-x="1411"
     inkscape:window-y="0"
     inkscape:window-maximized="0"
     inkscape:snap-center="true"
     inkscape:snap-object-midpoints="true"
     inkscape:snap-page="true"
     inkscape:snap-intersection-paths="true"
     inkscape:snap-smooth-nodes="false"
     showguides="true"
     inkscape:guide-bbox="true"
     inkscape:snap-bbox="true"
     inkscape:bbox-paths="true"
     inkscape:bbox-nodes="true"
     inkscape:snap-bbox-edge-midpoints="true"
     inkscape:snap-bbox-midpoints="true">
    <sodipodi:guide
       position="0,6.3499999"
       orientation="1,0"
       id="guide11518" />
  </sodipodi:namedview>
  <metadata
     id="metadata10905">
    <rdf:RDF>
      <cc:Work
         rdf:about="">
        <dc:format>image/svg+xml</dc:format>
        <dc:type
           rdf:resource="http://purl.org/dc/dcmitype/StillImage" />
        <dc:title>inkscape-circle-outline</dc:title>
      </cc:Work>
    </rdf:RDF>
  </metadata>
  <g
     inkscape:label="Layer 1"
     inkscape:groupmode="layer"
     id="layer1"
     transform="translate(-109.4619,-112.48571)">
    <path
       id="circle-2-4-0-0-4-4"
       style="fill:#000000;fill-opacity:1;fill-rule:evenodd;stroke:none;stroke-width:0.0916501"
       d="m 112.6369,112.48571 a 3.175,3.1749997 0 0 0 -3.175,3.175 3.175,3.1749997 0 0 0 3.175,3.175 3.175,3.1749997 0 0 0 3.175,-3.175 3.175,3.1749997 0 0 0 -3.175,-3.175 z m -0.005,0.52917 a 2.6458332,2.6458332 0 0 1 0.005,0 2.6458332,2.6458332 0 0 1 2.64583,2.64583 2.6458332,2.6458332 0 0 1 -2.64583,2.64583 2.6458332,2.6458332 0 0 1 -2.64583,-2.64583 2.6458332,2.6458332 0 0 1 2.64066,-2.64583 z m -0.0289,0.60874 c -0.1273,0 -0.25333,0.0465 -0.34468,0.13953 l -1.52601,1.5596 c -0.51427,0.63947 0.3521,0.56504 0.72089,0.74775 0.13196,0.13533 -0.51103,0.23674 -0.37569,0.37207 0.13195,0.13533 0.80495,0.26074 0.9369,0.39946 l -0.1385,0.416 c 0.13196,0.13533 0.43962,0.007 0.49713,0.32143 0.0406,0.22331 0.55527,0.0949 0.80564,-0.0879 0.13194,-0.13534 -0.25391,-0.12173 -0.12196,-0.26045 0.33157,-0.33834 0.63973,-0.12182 0.75138,-0.46354 0.0575,-0.16918 -0.48749,-0.25711 -0.35554,-0.39584 0.38571,-0.21992 1.70855,-0.36574 1.08262,-0.99167 l -1.57975,-1.61696 c -0.0964,-0.093 -0.22513,-0.13953 -0.35243,-0.13953 z m 0.0124,0.15245 c 0.0913,-2.6e-4 0.18258,0.033 0.24856,0.0992 l 0.60203,0.61237 c 0.0575,0.0575 0.0576,0.16874 0.0238,0.20257 l -0.29766,-0.2403 -0.0574,0.35502 -0.25063,-0.13178 -0.39894,0.25373 -0.13229,-0.52451 -0.21963,0.37879 h -0.32814 c -0.13534,0 -0.14926,-0.17896 -0.0274,-0.30076 0.21315,-0.23008 0.45715,-0.46721 0.58911,-0.60255 0.066,-0.0677 0.15721,-0.10154 0.24856,-0.1018 z m -0.72605,2.37918 c 0.0406,0.0237 0.65647,0.14863 0.80873,0.1757 0.0541,0.0101 0.017,0.0646 -0.0574,0.10181 -0.1624,0.044 -0.94762,-0.27751 -0.75137,-0.27751 z m 2.39727,0.4284 c -0.1235,0.004 -0.24522,0.067 -0.27906,0.18707 0,0.0778 0.56844,0.12893 0.56844,-0.0165 -0.0406,-0.11842 -0.16589,-0.17434 -0.28938,-0.17053 z m -2.59003,0.33487 c -0.1827,-0.0136 -0.41721,0.12209 -0.25735,0.26148 0.13534,0.11503 0.34528,-0.0304 0.40618,-0.19276 -0.033,-0.0431 -0.0879,-0.0642 -0.14883,-0.0687 z m 2.23966,0.0114 c -0.17255,0.15564 0.0205,0.31441 0.18965,0.21291 0.0372,-0.0406 -1.7e-4,-0.1757 -0.18965,-0.21291 z" />
  </g>
</svg>
