<?xml version="1.0" encoding="UTF-8" standalone="no"?>
<svg
   xmlns:dc="http://purl.org/dc/elements/1.1/"
   xmlns:cc="http://creativecommons.org/ns#"
   xmlns:rdf="http://www.w3.org/1999/02/22-rdf-syntax-ns#"
   xmlns:svg="http://www.w3.org/2000/svg"
   xmlns="http://www.w3.org/2000/svg"
   xmlns:sodipodi="http://sodipodi.sourceforge.net/DTD/sodipodi-0.dtd"
   xmlns:inkscape="http://www.inkscape.org/namespaces/inkscape"
   width="24"
   height="24"
   viewBox="0 0 6.3499999 6.3499999"
   version="1.1"
   id="svg10908"
   inkscape:version="1.0.1 (3bc2e813f5, 2020-09-07)"
   sodipodi:docname="inkscape-square-outline.svg">
  <title
     id="title11486">inkscape-square-outline</title>
  <defs
     id="defs10902" />
  <sodipodi:namedview
     id="base"
     pagecolor="#ffffff"
     bordercolor="#666666"
     borderopacity="1.0"
     inkscape:pageopacity="0.0"
     inkscape:pageshadow="2"
     inkscape:zoom="22.4"
     inkscape:cx="11.239633"
     inkscape:cy="11.063399"
     inkscape:document-units="mm"
     inkscape:current-layer="layer1"
     inkscape:document-rotation="0"
     showgrid="false"
     units="px"
     inkscape:window-width="1140"
     inkscape:window-height="1368"
     inkscape:window-x="1411"
     inkscape:window-y="0"
     inkscape:window-maximized="0"
     inkscape:snap-center="true"
     inkscape:snap-object-midpoints="true"
     inkscape:snap-page="true"
     inkscape:snap-intersection-paths="true"
     inkscape:snap-smooth-nodes="false"
     showguides="true"
     inkscape:guide-bbox="true"
     inkscape:snap-bbox="true"
     inkscape:bbox-paths="true"
     inkscape:bbox-nodes="true"
     inkscape:snap-bbox-edge-midpoints="true"
     inkscape:snap-bbox-midpoints="true">
    <sodipodi:guide
       position="0,6.3499999"
       orientation="1,0"
       id="guide11518" />
  </sodipodi:namedview>
  <metadata
     id="metadata10905">
    <rdf:RDF>
      <cc:Work
         rdf:about="">
        <dc:format>image/svg+xml</dc:format>
        <dc:type
           rdf:resource="http://purl.org/dc/dcmitype/StillImage" />
        <dc:title>inkscape-square-outline</dc:title>
      </cc:Work>
    </rdf:RDF>
  </metadata>
  <g
     inkscape:label="Layer 1"
     inkscape:groupmode="layer"
     id="layer1"
     transform="translate(-109.4619,-112.48571)">
    <path
       id="path1441-5-4-20-0-2-5-5-9-5"
       style="fill:#000000;fill-opacity:1;stroke-width:0.264583"
       d="m 109.4619,112.48571 v 6.35 h 6.35 v -6.35 z m 0.52917,0.52917 h 5.29166 v 5.29166 h -5.29166 z m 2.60655,0.29507 c -0.14688,0 -0.2925,0.0539 -0.3979,0.16123 l -1.76062,1.79937 c -0.59339,0.73784 0.40595,0.65219 0.83147,0.863 0.15225,0.15617 -0.58919,0.27329 -0.43304,0.42943 0.15226,0.15616 0.92882,0.30038 1.08107,0.46044 l -0.15968,0.48059 c 0.15225,0.15615 0.50723,0.008 0.5736,0.37052 0.0469,0.25765 0.64026,0.10952 0.92915,-0.10129 0.15225,-0.15615 -0.29281,-0.14068 -0.14056,-0.30075 0.38258,-0.39039 0.73778,-0.14057 0.86661,-0.53486 0.0664,-0.1952 -0.56205,-0.29676 -0.40979,-0.45682 0.44505,-0.25375 1.97176,-0.42137 1.24953,-1.1436 l -1.82314,-1.86603 c -0.11126,-0.10736 -0.25981,-0.16123 -0.4067,-0.16123 z m 0.0139,0.17622 c 0.1054,-5.3e-4 0.21119,0.0376 0.28732,0.11368 l 0.69453,0.70642 c 0.0664,0.0664 0.0665,0.19507 0.0274,0.23409 v 5.3e-4 l -0.34365,-0.2775 -0.0661,0.41031 -0.28887,-0.15245 -0.46095,0.29249 -0.15193,-0.60461 -0.25373,0.43718 h -0.37879 c -0.15616,0 -0.17159,-0.20724 -0.031,-0.34778 0.24593,-0.26547 0.52677,-0.53837 0.67902,-0.69453 0.0761,-0.0781 0.1814,-0.11729 0.28681,-0.11782 z m -0.83716,2.74505 c 0.0469,0.0273 0.75709,0.17185 0.93276,0.20309 0.0625,0.0117 0.0198,0.0738 -0.0661,0.11678 -0.18738,0.0508 -1.09303,-0.31987 -0.86661,-0.31987 z m 2.76572,0.49402 c -0.14249,0.004 -0.2829,0.078 -0.32194,0.21653 0,0.0898 0.65577,0.14821 0.65577,-0.0196 -0.0469,-0.13664 -0.19134,-0.20128 -0.33383,-0.19689 z m -2.98845,0.38706 c -0.21081,-0.0157 -0.48107,0.1409 -0.29662,0.30179 0.15616,0.13274 0.39844,-0.0354 0.46871,-0.22272 -0.0381,-0.0498 -0.10182,-0.0738 -0.17209,-0.0791 z m 2.58434,0.0129 c -0.1991,0.17958 0.0234,0.36309 0.21859,0.24598 0.043,-0.0469 3e-5,-0.20305 -0.21859,-0.24598 z" />
  </g>
</svg>
