<?xml version="1.0" encoding="UTF-8" standalone="no"?>
<svg
   xmlns:dc="http://purl.org/dc/elements/1.1/"
   xmlns:cc="http://creativecommons.org/ns#"
   xmlns:rdf="http://www.w3.org/1999/02/22-rdf-syntax-ns#"
   xmlns:svg="http://www.w3.org/2000/svg"
   xmlns="http://www.w3.org/2000/svg"
   xmlns:sodipodi="http://sodipodi.sourceforge.net/DTD/sodipodi-0.dtd"
   xmlns:inkscape="http://www.inkscape.org/namespaces/inkscape"
   width="24"
   height="24"
   viewBox="0 0 6.3499999 6.3499999"
   version="1.1"
   id="svg10908"
   inkscape:version="1.0.1 (3bc2e813f5, 2020-09-07)"
   sodipodi:docname="inkscape-plain.svg">
  <title
     id="title11486">inkscape-plain</title>
  <defs
     id="defs10902" />
  <sodipodi:namedview
     id="base"
     pagecolor="#ffffff"
     bordercolor="#666666"
     borderopacity="1.0"
     inkscape:pageopacity="0.0"
     inkscape:pageshadow="2"
     inkscape:zoom="22.4"
     inkscape:cx="12.53886"
     inkscape:cy="5.7062559"
     inkscape:document-units="mm"
     inkscape:current-layer="layer1"
     inkscape:document-rotation="0"
     showgrid="false"
     units="px"
     inkscape:window-width="1140"
     inkscape:window-height="1368"
     inkscape:window-x="1411"
     inkscape:window-y="0"
     inkscape:window-maximized="0"
     inkscape:snap-center="true"
     inkscape:snap-object-midpoints="true"
     inkscape:snap-page="true"
     inkscape:snap-intersection-paths="true"
     inkscape:snap-smooth-nodes="false"
     showguides="true"
     inkscape:guide-bbox="true"
     inkscape:snap-bbox="true"
     inkscape:bbox-paths="true"
     inkscape:bbox-nodes="true"
     inkscape:snap-bbox-edge-midpoints="true"
     inkscape:snap-bbox-midpoints="true">
    <sodipodi:guide
       position="0,6.3499999"
       orientation="1,0"
       id="guide11518" />
  </sodipodi:namedview>
  <metadata
     id="metadata10905">
    <rdf:RDF>
      <cc:Work
         rdf:about="">
        <dc:format>image/svg+xml</dc:format>
        <dc:type
           rdf:resource="http://purl.org/dc/dcmitype/StillImage" />
        <dc:title>inkscape-plain</dc:title>
      </cc:Work>
    </rdf:RDF>
  </metadata>
  <g
     inkscape:label="Layer 1"
     inkscape:groupmode="layer"
     id="layer1"
     transform="translate(-109.4619,-112.48571)">
    <path
       d="m 114.63584,117.61328 c -0.26546,0.23944 0.0312,0.48408 0.2915,0.32793 0.0573,-0.0625 0,-0.27068 -0.2915,-0.32793 z m -3.84146,0.38519 c 0.20821,0.17697 0.53093,-0.0469 0.62463,-0.2967 -0.20301,-0.26547 -0.95256,0.0104 -0.62463,0.2967 z m 3.95077,-0.62984 c 0,0.11972 0.87448,0.1978 0.87448,-0.026 -0.12492,-0.36437 -0.77037,-0.34355 -0.87448,0.026 z m 0.81202,-2.13935 -2.43085,-2.4881 c -0.29669,-0.28629 -0.79119,-0.28629 -1.07227,0 l -2.34756,2.39961 c -0.7912,0.98379 0.54134,0.86928 1.10871,1.15036 0.20301,0.20821 -0.78599,0.36437 -0.57778,0.57257 0.20301,0.20821 1.23885,0.40081 1.44185,0.61422 l -0.21341,0.64025 c 0.203,0.2082 0.67668,0.0104 0.76516,0.49449 0.0625,0.34355 0.85366,0.14575 1.23885,-0.13533 0.203,-0.20821 -0.39039,-0.18739 -0.18739,-0.40081 0.51011,-0.52052 0.98379,-0.18739 1.15556,-0.71311 0.0885,-0.26027 -0.74955,-0.3956 -0.54655,-0.60902 0.5934,-0.33834 2.62865,-0.56216 1.66568,-1.52513 z m -2.91493,1.61883 c -0.24985,0.0677 -1.45747,-0.42683 -1.15556,-0.42683 0.0625,0.0364 1.00981,0.22903 1.24405,0.27067 0.0833,0.0156 0.026,0.0989 -0.0885,0.15616 z m 1.30651,-2.6807 -0.45806,-0.36957 -0.0885,0.54655 -0.38519,-0.203 -0.61421,0.39039 -0.20301,-0.80681 -0.33834,0.58298 h -0.5049 c -0.20821,0 -0.22903,-0.27587 -0.0416,-0.46326 0.32793,-0.35396 0.7027,-0.71832 0.90571,-0.92653 0.203,-0.20821 0.56216,-0.20821 0.76517,-0.005 l 0.92653,0.94215 c 0.0885,0.0885 0.0885,0.26026 0.0364,0.31231 z"
       id="inkscape"
       style="fill:#00000a;fill-opacity:1;stroke-width:0.052052" />
  </g>
</svg>
