<?xml version="1.0" encoding="UTF-8" standalone="no"?>
<svg
   xmlns:dc="http://purl.org/dc/elements/1.1/"
   xmlns:cc="http://creativecommons.org/ns#"
   xmlns:rdf="http://www.w3.org/1999/02/22-rdf-syntax-ns#"
   xmlns:svg="http://www.w3.org/2000/svg"
   xmlns="http://www.w3.org/2000/svg"
   xmlns:sodipodi="http://sodipodi.sourceforge.net/DTD/sodipodi-0.dtd"
   xmlns:inkscape="http://www.inkscape.org/namespaces/inkscape"
   width="24"
   height="24"
   viewBox="0 0 6.3499999 6.3499999"
   version="1.1"
   id="svg10908"
   inkscape:version="1.0.1 (3bc2e813f5, 2020-09-07)"
   sodipodi:docname="inkscape-circle-filled.svg">
  <title
     id="title11486">inkscape-circle-filled</title>
  <defs
     id="defs10902" />
  <sodipodi:namedview
     id="base"
     pagecolor="#ffffff"
     bordercolor="#666666"
     borderopacity="1.0"
     inkscape:pageopacity="0.0"
     inkscape:pageshadow="2"
     inkscape:zoom="22.4"
     inkscape:cx="11.239633"
     inkscape:cy="11.063399"
     inkscape:document-units="mm"
     inkscape:current-layer="layer1"
     inkscape:document-rotation="0"
     showgrid="false"
     units="px"
     inkscape:window-width="1140"
     inkscape:window-height="1368"
     inkscape:window-x="1411"
     inkscape:window-y="0"
     inkscape:window-maximized="0"
     inkscape:snap-center="true"
     inkscape:snap-object-midpoints="true"
     inkscape:snap-page="true"
     inkscape:snap-intersection-paths="true"
     inkscape:snap-smooth-nodes="false"
     showguides="true"
     inkscape:guide-bbox="true"
     inkscape:snap-bbox="true"
     inkscape:bbox-paths="true"
     inkscape:bbox-nodes="true"
     inkscape:snap-bbox-edge-midpoints="true"
     inkscape:snap-bbox-midpoints="true">
    <sodipodi:guide
       position="0,6.3499999"
       orientation="1,0"
       id="guide11518" />
  </sodipodi:namedview>
  <metadata
     id="metadata10905">
    <rdf:RDF>
      <cc:Work
         rdf:about="">
        <dc:format>image/svg+xml</dc:format>
        <dc:type
           rdf:resource="http://purl.org/dc/dcmitype/StillImage" />
        <dc:title>inkscape-circle-filled</dc:title>
      </cc:Work>
    </rdf:RDF>
  </metadata>
  <g
     inkscape:label="Layer 1"
     inkscape:groupmode="layer"
     id="layer1"
     transform="translate(-109.4619,-112.48571)">
    <path
       id="circle-0-6"
       style="fill:#000000;fill-opacity:1;fill-rule:evenodd;stroke:none;stroke-width:0.0916501"
       d="m 112.6369,112.48571 a 3.175,3.1749997 0 0 0 -3.175,3.175 3.175,3.1749997 0 0 0 3.175,3.175 3.175,3.1749997 0 0 0 3.175,-3.175 3.175,3.1749997 0 0 0 -3.175,-3.175 z m -0.0341,1.13791 c 0.1273,0 0.25601,0.0465 0.35244,0.13953 l 1.57975,1.61696 c 0.62593,0.62593 -0.69692,0.77175 -1.08263,0.99167 -0.13195,0.13873 0.41304,0.22666 0.35554,0.39584 -0.11165,0.34172 -0.41981,0.1252 -0.75138,0.46354 -0.13195,0.13872 0.25391,0.12511 0.12196,0.26045 -0.25037,0.1827 -0.76504,0.31116 -0.80564,0.0879 -0.0575,-0.31443 -0.36517,-0.1861 -0.49712,-0.32143 l 0.13849,-0.416 c -0.13195,-0.13872 -0.80494,-0.26413 -0.93689,-0.39946 -0.13534,-0.13533 0.50764,-0.23674 0.37568,-0.37207 -0.36879,-0.18271 -1.23516,-0.10828 -0.72088,-0.74775 l 1.526,-1.5596 c 0.0913,-0.093 0.21738,-0.13953 0.34468,-0.13953 z m 0.0124,0.15245 c -0.0914,2.6e-4 -0.18259,0.0341 -0.24856,0.1018 -0.13196,0.13534 -0.37596,0.37247 -0.58911,0.60255 -0.12187,0.1218 -0.10795,0.30076 0.0274,0.30076 h 0.32814 l 0.21962,-0.37879 0.1323,0.52451 0.39894,-0.25373 0.25063,0.13178 0.0574,-0.35502 0.29766,0.2403 c 0.0338,-0.0338 0.0337,-0.14507 -0.0238,-0.20257 l -0.60203,-0.61237 c -0.066,-0.0662 -0.15721,-0.0996 -0.24856,-0.0992 z m -0.72605,2.37918 c -0.19624,0 0.58897,0.32151 0.75137,0.27751 0.0744,-0.0372 0.11146,-0.0917 0.0574,-0.10181 -0.15226,-0.0271 -0.76813,-0.152 -0.80873,-0.1757 z m 2.39727,0.4284 c 0.12349,-0.004 0.24879,0.0521 0.28938,0.17053 1e-5,0.14547 -0.56844,0.0943 -0.56844,0.0165 0.0338,-0.12011 0.15556,-0.18326 0.27906,-0.18707 z m -2.59003,0.33487 c 0.0609,0.005 0.11584,0.0256 0.14883,0.0687 -0.0609,0.16235 -0.27083,0.30779 -0.40617,0.19276 -0.15987,-0.13939 0.0746,-0.27507 0.25734,-0.26148 z m 2.23966,0.0114 c 0.18948,0.0372 0.22685,0.17231 0.18965,0.21291 -0.16918,0.1015 -0.3622,-0.0573 -0.18965,-0.21291 z" />
  </g>
</svg>
