<?xml version="1.0" encoding="UTF-8" standalone="no"?>
<svg
   xmlns:dc="http://purl.org/dc/elements/1.1/"
   xmlns:cc="http://creativecommons.org/ns#"
   xmlns:rdf="http://www.w3.org/1999/02/22-rdf-syntax-ns#"
   xmlns:svg="http://www.w3.org/2000/svg"
   xmlns="http://www.w3.org/2000/svg"
   xmlns:sodipodi="http://sodipodi.sourceforge.net/DTD/sodipodi-0.dtd"
   xmlns:inkscape="http://www.inkscape.org/namespaces/inkscape"
   width="24"
   height="24"
   viewBox="0 0 6.3499999 6.3499999"
   version="1.1"
   id="svg10908"
   inkscape:version="1.0.1 (3bc2e813f5, 2020-09-07)"
   sodipodi:docname="inkscape-roundedsquare-outline.svg">
  <title
     id="title11486">inkscape-roundedsquare-outline</title>
  <defs
     id="defs10902" />
  <sodipodi:namedview
     id="base"
     pagecolor="#ffffff"
     bordercolor="#666666"
     borderopacity="1.0"
     inkscape:pageopacity="0.0"
     inkscape:pageshadow="2"
     inkscape:zoom="22.4"
     inkscape:cx="11.239633"
     inkscape:cy="11.063399"
     inkscape:document-units="mm"
     inkscape:current-layer="layer1"
     inkscape:document-rotation="0"
     showgrid="false"
     units="px"
     inkscape:window-width="1140"
     inkscape:window-height="1368"
     inkscape:window-x="1411"
     inkscape:window-y="0"
     inkscape:window-maximized="0"
     inkscape:snap-center="true"
     inkscape:snap-object-midpoints="true"
     inkscape:snap-page="true"
     inkscape:snap-intersection-paths="true"
     inkscape:snap-smooth-nodes="false"
     showguides="true"
     inkscape:guide-bbox="true"
     inkscape:snap-bbox="true"
     inkscape:bbox-paths="true"
     inkscape:bbox-nodes="true"
     inkscape:snap-bbox-edge-midpoints="true"
     inkscape:snap-bbox-midpoints="true">
    <sodipodi:guide
       position="0,6.3499999"
       orientation="1,0"
       id="guide11518" />
  </sodipodi:namedview>
  <metadata
     id="metadata10905">
    <rdf:RDF>
      <cc:Work
         rdf:about="">
        <dc:format>image/svg+xml</dc:format>
        <dc:type
           rdf:resource="http://purl.org/dc/dcmitype/StillImage" />
        <dc:title>inkscape-roundedsquare-outline</dc:title>
      </cc:Work>
    </rdf:RDF>
  </metadata>
  <g
     inkscape:label="Layer 1"
     inkscape:groupmode="layer"
     id="layer1"
     transform="translate(-109.4619,-112.48571)">
    <path
       id="roundedsquare-outline-2-6-0"
       style="fill:#000000;fill-opacity:1;fill-rule:evenodd;stroke:none;stroke-width:0.529071;stroke-linejoin:round;stroke-miterlimit:4;stroke-dasharray:none;stroke-opacity:1"
       d="m 110.32851,112.48571 c -0.47997,0 -0.86661,0.38664 -0.86661,0.86661 v 4.61678 c 0,0.47997 0.38664,0.86661 0.86661,0.86661 h 4.61678 c 0.47997,0 0.86661,-0.38664 0.86661,-0.86661 v -4.61678 c 0,-0.47997 -0.38664,-0.86661 -0.86661,-0.86661 z m 0.19172,0.52917 h 4.23334 c 0.29316,0 0.52916,0.236 0.52916,0.52916 v 4.23334 c 0,0.29316 -0.236,0.52916 -0.52916,0.52916 h -4.23334 c -0.29316,0 -0.52916,-0.236 -0.52916,-0.52916 v -4.23334 c 0,-0.29316 0.236,-0.52916 0.52916,-0.52916 z m 2.0774,0.29507 c -0.14689,0 -0.292,0.0539 -0.3974,0.16123 l -1.76061,1.79937 c -0.5934,0.73784 0.40594,0.65219 0.83147,0.863 0.15226,0.15617 -0.58971,0.27329 -0.43356,0.42943 0.15226,0.15616 0.92932,0.30038 1.08158,0.46044 l -0.16019,0.48059 c 0.15224,0.15615 0.50775,0.008 0.57412,0.37052 0.0469,0.25765 0.64026,0.10952 0.92914,-0.10129 0.15226,-0.15615 -0.2928,-0.14068 -0.14056,-0.30075 0.38258,-0.39039 0.73779,-0.14057 0.86662,-0.53486 0.0664,-0.19519 -0.56258,-0.29676 -0.41031,-0.45681 0.44504,-0.25376 1.97177,-0.42137 1.24953,-1.14361 l -1.82314,-1.86603 c -0.11126,-0.10735 -0.25981,-0.16123 -0.40669,-0.16123 z m 0.0145,0.17622 c 0.10541,-5.3e-4 0.21067,0.0376 0.2868,0.11368 l 0.69505,0.70642 c 0.0664,0.0664 0.0665,0.19507 0.0274,0.23409 v 5.3e-4 l -0.34365,-0.2775 -0.0667,0.41031 -0.28887,-0.15244 -0.46044,0.29248 -0.15245,-0.60461 -0.25373,0.43718 h -0.37879 c -0.15616,0 -0.17159,-0.20724 -0.031,-0.34778 0.24594,-0.26547 0.52678,-0.53837 0.67903,-0.69453 0.0761,-0.0781 0.18191,-0.11729 0.28732,-0.11782 z m -0.83768,2.74505 c 0.0469,0.0273 0.75761,0.17186 0.93328,0.20309 0.0625,0.0117 0.0192,0.0739 -0.0667,0.11678 -0.18739,0.0508 -1.09304,-0.31987 -0.86662,-0.31987 z m 2.76624,0.49403 c -0.14249,0.004 -0.28341,0.0779 -0.32246,0.21652 0,0.0898 0.65629,0.14821 0.65629,-0.0196 -0.0468,-0.13664 -0.19134,-0.20128 -0.33383,-0.19689 z m -2.98896,0.38705 c -0.21081,-0.0157 -0.48108,0.1409 -0.29663,0.30179 0.15616,0.13274 0.39845,-0.0354 0.46871,-0.22272 -0.0381,-0.0498 -0.10181,-0.0738 -0.17208,-0.0791 z m 2.58485,0.0129 c -0.1991,0.17958 0.0234,0.36309 0.21859,0.24598 0.043,-0.0469 3e-5,-0.20305 -0.21859,-0.24598 z" />
  </g>
</svg>
