<?xml version="1.0" encoding="UTF-8" standalone="no"?>
<svg
   xmlns:dc="http://purl.org/dc/elements/1.1/"
   xmlns:cc="http://creativecommons.org/ns#"
   xmlns:rdf="http://www.w3.org/1999/02/22-rdf-syntax-ns#"
   xmlns:svg="http://www.w3.org/2000/svg"
   xmlns="http://www.w3.org/2000/svg"
   xmlns:sodipodi="http://sodipodi.sourceforge.net/DTD/sodipodi-0.dtd"
   xmlns:inkscape="http://www.inkscape.org/namespaces/inkscape"
   width="24"
   height="24"
   viewBox="0 0 6.3499999 6.3499999"
   version="1.1"
   id="svg10908"
   inkscape:version="1.0.1 (3bc2e813f5, 2020-09-07)"
   sodipodi:docname="address-outline-roundedsquare-outline.svg">
  <title
     id="title11486">address-outline-roundedsquare-outline</title>
  <defs
     id="defs10902" />
  <sodipodi:namedview
     id="base"
     pagecolor="#ffffff"
     bordercolor="#666666"
     borderopacity="1.0"
     inkscape:pageopacity="0.0"
     inkscape:pageshadow="2"
     inkscape:zoom="22.4"
     inkscape:cx="11.239633"
     inkscape:cy="11.063399"
     inkscape:document-units="mm"
     inkscape:current-layer="layer1"
     inkscape:document-rotation="0"
     showgrid="false"
     units="px"
     inkscape:window-width="1140"
     inkscape:window-height="1368"
     inkscape:window-x="1411"
     inkscape:window-y="0"
     inkscape:window-maximized="0"
     inkscape:snap-center="true"
     inkscape:snap-object-midpoints="true"
     inkscape:snap-page="true"
     inkscape:snap-intersection-paths="true"
     inkscape:snap-smooth-nodes="false"
     showguides="true"
     inkscape:guide-bbox="true"
     inkscape:snap-bbox="true"
     inkscape:bbox-paths="true"
     inkscape:bbox-nodes="true"
     inkscape:snap-bbox-edge-midpoints="true"
     inkscape:snap-bbox-midpoints="true">
    <sodipodi:guide
       position="0,6.3499999"
       orientation="1,0"
       id="guide11518" />
  </sodipodi:namedview>
  <metadata
     id="metadata10905">
    <rdf:RDF>
      <cc:Work
         rdf:about="">
        <dc:format>image/svg+xml</dc:format>
        <dc:type
           rdf:resource="http://purl.org/dc/dcmitype/StillImage" />
        <dc:title>address-outline-roundedsquare-outline</dc:title>
      </cc:Work>
    </rdf:RDF>
  </metadata>
  <g
     inkscape:label="Layer 1"
     inkscape:groupmode="layer"
     id="layer1"
     transform="translate(-109.4619,-112.48571)">
    <path
       id="roundedsquare-outline-2-62-0-0"
       style="fill:#000000;fill-opacity:1;fill-rule:evenodd;stroke:none;stroke-width:0.529071;stroke-linejoin:round;stroke-miterlimit:4;stroke-dasharray:none;stroke-opacity:1"
       d="m 110.32851,112.48571 c -0.47997,0 -0.86661,0.38664 -0.86661,0.86661 v 4.61678 c 0,0.47997 0.38664,0.86661 0.86661,0.86661 h 4.61677 c 0.47997,0 0.86662,-0.38664 0.86662,-0.86661 v -4.61678 c 0,-0.47997 -0.38665,-0.86661 -0.86662,-0.86661 z m 0.19172,0.52917 h 4.23333 c 0.29316,0 0.52917,0.236 0.52917,0.52916 v 4.23334 c 0,0.29316 -0.23601,0.52916 -0.52917,0.52916 h -4.23333 c -0.29316,0 -0.52917,-0.236 -0.52917,-0.52916 v -4.23334 c 0,-0.29316 0.23601,-0.52916 0.52917,-0.52916 z m 2.11667,0.66145 c -0.83344,0 -1.5875,0.63908 -1.5875,1.6273 0,0.65881 0.52982,1.43856 1.5875,2.34146 1.05767,-0.9029 1.5875,-1.68265 1.5875,-2.34146 0,-0.98822 -0.75407,-1.6273 -1.5875,-1.6273 z m 0,0.39688 c 0.66476,0 1.19062,0.51009 1.19062,1.23042 0,0.46434 -0.38695,1.07962 -1.19062,1.81384 -0.80368,-0.73422 -1.19063,-1.3495 -1.19063,-1.81384 0,-0.72033 0.52586,-1.23042 1.19063,-1.23042 z m 0,0.79375 c -0.21829,0 -0.39688,0.17859 -0.39688,0.39688 0,0.21828 0.17859,0.39687 0.39688,0.39687 0.21828,0 0.39687,-0.17859 0.39687,-0.39687 0,-0.21829 -0.17859,-0.39688 -0.39687,-0.39688 z" />
  </g>
</svg>
